<svg width="589" height="307" viewBox="0 0 589 307" fill="none" xmlns="http://www.w3.org/2000/svg">
<rect width="589" height="307" fill="white"/>
<rect width="589" height="307" fill="white"/>
<path d="M44.112 154V126.588H53.44C55.5813 126.588 57.3267 126.955 58.676 127.688C60.0547 128.421 61.0667 129.389 61.712 130.592C62.3867 131.795 62.724 133.144 62.724 134.64C62.724 135.725 62.5333 136.752 62.152 137.72C61.8 138.659 61.2427 139.495 60.48 140.228C59.7467 140.932 58.808 141.489 57.664 141.9C56.5493 142.311 55.2147 142.516 53.66 142.516H49.172V154H44.112ZM49.172 138.38H53.308C54.2467 138.38 55.0387 138.219 55.684 137.896C56.3293 137.573 56.8133 137.133 57.136 136.576C57.4587 136.019 57.62 135.373 57.62 134.64C57.62 133.907 57.4587 133.261 57.136 132.704C56.8133 132.147 56.3293 131.707 55.684 131.384C55.068 131.061 54.2907 130.9 53.352 130.9H49.172V138.38ZM74.956 154.44C73.1373 154.44 71.48 154 69.984 153.12C68.5173 152.211 67.3587 150.949 66.508 149.336C65.6573 147.723 65.232 145.86 65.232 143.748C65.232 141.724 65.6573 139.905 66.508 138.292C67.3587 136.679 68.5173 135.403 69.984 134.464C71.48 133.525 73.1373 133.056 74.956 133.056C76.804 133.056 78.4613 133.525 79.928 134.464C81.424 135.403 82.5973 136.679 83.448 138.292C84.328 139.905 84.768 141.724 84.768 143.748C84.768 145.86 84.328 147.723 83.448 149.336C82.5973 150.949 81.424 152.211 79.928 153.12C78.4613 154 76.804 154.44 74.956 154.44ZM74.956 150.48C75.924 150.48 76.76 150.201 77.464 149.644C78.168 149.057 78.7253 148.265 79.136 147.268C79.576 146.241 79.796 145.068 79.796 143.748C79.796 142.369 79.576 141.181 79.136 140.184C78.7253 139.187 78.168 138.424 77.464 137.896C76.76 137.339 75.924 137.06 74.956 137.06C74.076 137.06 73.2693 137.339 72.536 137.896C71.832 138.424 71.26 139.187 70.82 140.184C70.4093 141.181 70.204 142.369 70.204 143.748C70.204 145.068 70.4093 146.241 70.82 147.268C71.2307 148.265 71.788 149.057 72.492 149.644C73.2253 150.201 74.0467 150.48 74.956 150.48ZM90.18 154L86.396 133.54H90.708L93.04 147.532L95.944 135.828H98.54L101.972 147.444C102.236 145.508 102.441 143.865 102.588 142.516C102.764 141.167 102.896 140.023 102.984 139.084C103.072 138.145 103.131 137.339 103.16 136.664C103.189 135.96 103.204 135.315 103.204 134.728V133.54H107.428C107.252 135.711 107.003 137.969 106.68 140.316C106.357 142.663 105.991 144.995 105.58 147.312C105.199 149.629 104.803 151.859 104.392 154H100.036L97.176 142.912L94.536 154H90.18ZM119.924 154.484C118.457 154.484 117.093 154.249 115.832 153.78C114.6 153.311 113.515 152.636 112.576 151.756C111.667 150.847 110.963 149.732 110.464 148.412C109.965 147.092 109.716 145.596 109.716 143.924C109.716 142.223 109.965 140.697 110.464 139.348C110.963 137.999 111.637 136.855 112.488 135.916C113.368 134.977 114.395 134.273 115.568 133.804C116.741 133.305 118.003 133.056 119.352 133.056C120.555 133.056 121.684 133.261 122.74 133.672C123.796 134.083 124.72 134.713 125.512 135.564C126.333 136.385 126.979 137.427 127.448 138.688C127.917 139.92 128.152 141.357 128.152 143C128.152 143.293 128.137 143.645 128.108 144.056C128.108 144.467 128.093 144.819 128.064 145.112H114.512C114.571 146.08 114.761 146.916 115.084 147.62C115.407 148.295 115.832 148.852 116.36 149.292C116.888 149.732 117.475 150.069 118.12 150.304C118.765 150.509 119.44 150.612 120.144 150.612C120.76 150.612 121.347 150.553 121.904 150.436C122.491 150.319 123.033 150.113 123.532 149.82C124.06 149.527 124.559 149.145 125.028 148.676L127.58 151.14C126.935 151.903 126.201 152.548 125.38 153.076C124.588 153.575 123.723 153.927 122.784 154.132C121.875 154.367 120.921 154.484 119.924 154.484ZM114.6 141.372H123.312C123.312 140.668 123.209 140.037 123.004 139.48C122.828 138.923 122.564 138.453 122.212 138.072C121.86 137.691 121.42 137.412 120.892 137.236C120.393 137.031 119.807 136.928 119.132 136.928C118.575 136.928 118.032 137.016 117.504 137.192C117.005 137.339 116.551 137.603 116.14 137.984C115.729 138.365 115.392 138.835 115.128 139.392C114.864 139.949 114.688 140.609 114.6 141.372ZM133.916 133.54H139.064L139.02 139.26L138.448 138.908C138.565 137.999 138.815 137.192 139.196 136.488C139.607 135.784 140.105 135.168 140.692 134.64C141.308 134.112 141.968 133.716 142.672 133.452C143.405 133.188 144.153 133.056 144.916 133.056C146.06 133.056 147.087 133.247 147.996 133.628C148.935 133.98 149.8 134.567 150.592 135.388L148.48 139.568L148.348 139.92L147.952 139.744C147.864 139.509 147.776 139.275 147.688 139.04C147.6 138.776 147.38 138.483 147.028 138.16C146.617 137.837 146.177 137.588 145.708 137.412C145.268 137.236 144.784 137.148 144.256 137.148C143.552 137.148 142.877 137.265 142.232 137.5C141.587 137.735 141.015 138.101 140.516 138.6C140.047 139.099 139.665 139.744 139.372 140.536C139.108 141.299 138.976 142.208 138.976 143.264V154H133.916V133.54ZM158.116 137.412H153.672V133.54H158.116V132.308C158.116 130.431 158.497 128.905 159.26 127.732C160.052 126.529 161.093 125.635 162.384 125.048C163.675 124.461 165.068 124.168 166.564 124.168C167.943 124.168 169.219 124.417 170.392 124.916C171.595 125.385 172.607 126.075 173.428 126.984L171.58 130.372L171.36 130.724L171.008 130.504C170.92 130.299 170.832 130.093 170.744 129.888C170.656 129.653 170.421 129.375 170.04 129.052C169.541 128.7 169.043 128.451 168.544 128.304C168.045 128.128 167.473 128.04 166.828 128.04C166.065 128.04 165.391 128.201 164.804 128.524C164.217 128.847 163.777 129.316 163.484 129.932C163.191 130.548 163.044 131.325 163.044 132.264V133.54H169.204V137.412H163.044V154H158.116V137.412ZM183.328 154.528C182.507 154.528 181.729 154.411 180.996 154.176C180.263 153.971 179.603 153.648 179.016 153.208C178.429 152.739 177.916 152.152 177.476 151.448C177.065 150.744 176.743 149.908 176.508 148.94C176.273 147.943 176.156 146.813 176.156 145.552V133.54H181.172V145.552C181.172 146.461 181.245 147.239 181.392 147.884C181.539 148.5 181.759 149.013 182.052 149.424C182.345 149.805 182.683 150.084 183.064 150.26C183.475 150.436 183.9 150.524 184.34 150.524C184.956 150.524 185.513 150.421 186.012 150.216C186.54 149.981 186.98 149.644 187.332 149.204C187.713 148.764 188.007 148.221 188.212 147.576C188.417 146.901 188.52 146.109 188.52 145.2V133.54H193.492V150.744C193.492 151.389 193.507 151.976 193.536 152.504C193.595 153.003 193.727 153.501 193.932 154H189.4C189.253 153.707 189.151 153.413 189.092 153.12C189.033 152.827 188.989 152.533 188.96 152.24C188.96 151.917 188.96 151.624 188.96 151.36C188.637 151.859 188.271 152.313 187.86 152.724C187.449 153.105 186.995 153.428 186.496 153.692C186.027 153.956 185.513 154.161 184.956 154.308C184.428 154.455 183.885 154.528 183.328 154.528ZM198.772 154V150.084H204.536V128.392H199.036V124.476H209.552V150.084H215.272V154H198.772ZM220.772 154V150.084H226.536V128.392H221.036V124.476H231.552V150.084H237.272V154H220.772Z" fill="black"/>
<path d="M49.1953 208.688H50.8008L57.6797 225H55.2422L53.5898 220.898H46.3477L44.707 225H42.3164L49.1953 208.688ZM52.8398 219.023L49.9805 211.875L47.1094 219.023H52.8398ZM66.1875 212.906H68.6836L71.7891 222.516L74.9297 212.906H77.3672L80.543 222.48L83.4961 212.906H85.8164L81.75 225H79.3359L76.0781 215.836L72.9961 225H70.582L66.1875 212.906ZM90.5625 209.391C90.5625 209.836 90.4141 210.18 90.1172 210.422C89.8281 210.656 89.4648 210.773 89.0273 210.773C88.5898 210.773 88.2266 210.656 87.9375 210.422C87.6562 210.18 87.5156 209.836 87.5156 209.391C87.5156 208.938 87.6562 208.594 87.9375 208.359C88.2266 208.125 88.5898 208.008 89.0273 208.008C89.4648 208.008 89.8281 208.125 90.1172 208.359C90.4141 208.594 90.5625 208.938 90.5625 209.391ZM87.8203 212.906H90.1641V225H87.8203V212.906ZM95.6836 214.23C96.3633 213.707 97.125 213.324 97.9688 213.082C98.8203 212.84 99.5625 212.719 100.195 212.719C100.828 212.719 101.316 212.734 101.66 212.766V207.562H103.992V225H101.895L101.801 223.605C101.324 224.238 100.602 224.707 99.6328 225.012C99.2578 225.129 98.875 225.188 98.4844 225.188C98.1016 225.188 97.7227 225.148 97.3477 225.07C96.9727 224.992 96.5977 224.863 96.2227 224.684C95.8555 224.496 95.5039 224.254 95.168 223.957C94.832 223.652 94.5312 223.281 94.2656 222.844C93.7031 221.883 93.4219 220.746 93.4219 219.434C93.4219 218.121 93.6289 217.059 94.043 216.246C94.4648 215.426 95.0117 214.754 95.6836 214.23ZM97.1016 215.625C96.7031 216 96.3945 216.484 96.1758 217.078C95.9648 217.664 95.8594 218.379 95.8594 219.223C95.8594 220.059 95.9609 220.75 96.1641 221.297C96.3672 221.836 96.6211 222.258 96.9258 222.562C97.4648 223.109 98.1133 223.383 98.8711 223.383C99.8477 223.383 100.656 223.023 101.297 222.305C101.461 222.125 101.578 221.965 101.648 221.824V214.617L101.414 214.594C101.055 214.547 100.625 214.523 100.125 214.523C99.6328 214.523 99.1055 214.613 98.543 214.793C97.9805 214.965 97.5 215.242 97.1016 215.625ZM113.496 225.188C109.074 225.188 106.863 223.027 106.863 218.707C106.863 216.848 107.477 215.359 108.703 214.242C109.805 213.227 111.062 212.719 112.477 212.719C114.016 212.719 115.219 213.234 116.086 214.266C116.891 215.227 117.293 216.512 117.293 218.121V219.035H109.301C109.301 221.246 110.203 222.598 112.008 223.09C112.438 223.207 113.098 223.266 113.988 223.266C114.887 223.266 115.766 223.145 116.625 222.902V224.883C115.766 225.086 114.723 225.188 113.496 225.188ZM114.949 217.312C114.949 216.562 114.742 215.93 114.328 215.414C113.844 214.82 113.176 214.523 112.324 214.523C111.426 214.523 110.695 214.809 110.133 215.379C109.617 215.91 109.359 216.555 109.359 217.312H114.949ZM126.211 212.906H128.73L132.023 222.715L135.328 212.906H137.836L133.207 225H130.852L126.211 212.906ZM140.379 222.844C140.121 222.398 139.914 221.875 139.758 221.273C139.609 220.672 139.535 219.887 139.535 218.918C139.535 217.949 139.742 217.059 140.156 216.246C140.578 215.426 141.125 214.754 141.797 214.23C143.102 213.223 144.723 212.719 146.66 212.719C147.668 212.719 148.43 212.742 148.945 212.789C148.945 212.789 149.324 212.828 150.082 212.906V225H147.973L147.879 223.605C147.41 224.23 146.695 224.695 145.734 225C145.367 225.117 144.988 225.176 144.598 225.176C144.215 225.176 143.836 225.137 143.461 225.059C143.086 224.98 142.711 224.852 142.336 224.672C141.969 224.492 141.617 224.254 141.281 223.957C140.945 223.652 140.645 223.281 140.379 222.844ZM147.738 214.629C147.238 214.566 146.738 214.535 146.238 214.535C145.746 214.535 145.219 214.625 144.656 214.805C144.094 214.977 143.613 215.25 143.215 215.625C142.387 216.406 141.973 217.598 141.973 219.199C141.973 220.715 142.328 221.836 143.039 222.562C143.578 223.102 144.227 223.371 144.984 223.371C145.961 223.371 146.766 223.016 147.398 222.305C147.555 222.125 147.668 221.965 147.738 221.824V214.629ZM161.52 215.051C161.09 214.926 160.574 214.863 159.973 214.863C159.379 214.863 158.891 214.926 158.508 215.051C158.125 215.168 157.789 215.312 157.5 215.484C156.969 215.797 156.582 216.148 156.34 216.539V225H153.996V212.906H156.246L156.34 214.582C156.926 213.848 157.781 213.297 158.906 212.93C159.312 212.789 159.777 212.719 160.301 212.719C160.824 212.719 161.23 212.758 161.52 212.836V215.051ZM166.57 209.391C166.57 209.836 166.422 210.18 166.125 210.422C165.836 210.656 165.473 210.773 165.035 210.773C164.598 210.773 164.234 210.656 163.945 210.422C163.664 210.18 163.523 209.836 163.523 209.391C163.523 208.938 163.664 208.594 163.945 208.359C164.234 208.125 164.598 208.008 165.035 208.008C165.473 208.008 165.836 208.125 166.125 208.359C166.422 208.594 166.57 208.938 166.57 209.391ZM163.828 212.906H166.172V225H163.828V212.906ZM175.512 225.188C171.09 225.188 168.879 223.027 168.879 218.707C168.879 216.848 169.492 215.359 170.719 214.242C171.82 213.227 173.078 212.719 174.492 212.719C176.031 212.719 177.234 213.234 178.102 214.266C178.906 215.227 179.309 216.512 179.309 218.121V219.035H171.316C171.316 221.246 172.219 222.598 174.023 223.09C174.453 223.207 175.113 223.266 176.004 223.266C176.902 223.266 177.781 223.145 178.641 222.902V224.883C177.781 225.086 176.738 225.188 175.512 225.188ZM176.965 217.312C176.965 216.562 176.758 215.93 176.344 215.414C175.859 214.82 175.191 214.523 174.34 214.523C173.441 214.523 172.711 214.809 172.148 215.379C171.633 215.91 171.375 216.555 171.375 217.312H176.965ZM186.234 223.148C186.492 223.242 186.883 223.289 187.406 223.289C187.93 223.289 188.367 223.227 188.719 223.102V224.977C188.555 225.016 188.316 225.039 188.004 225.047L187.266 225.07C187.102 225.07 186.977 225.07 186.891 225.07C185.383 225.07 184.27 224.578 183.551 223.594C182.973 222.797 182.684 221.742 182.684 220.43V214.699H180.949V213.598L182.684 212.906L183.246 209.906H185.027V212.906H188.777V214.699H185.027V220.418C185.027 221.949 185.43 222.859 186.234 223.148ZM191.391 228C191.602 228.062 191.887 228.094 192.246 228.094C192.613 228.094 192.988 228.02 193.371 227.871C193.754 227.73 194.086 227.531 194.367 227.273C194.836 226.852 195.262 226.188 195.645 225.281L190.676 212.906H193.172L196.664 222.539L199.793 212.906H202.266L197.297 226.488C196.922 227.504 196.402 228.281 195.738 228.82C194.863 229.523 193.695 229.875 192.234 229.875C192.102 229.875 191.965 229.867 191.824 229.852L191.391 229.805V228ZM211.125 218.93C211.125 217.031 211.73 215.492 212.941 214.312C214.074 213.211 215.477 212.66 217.148 212.66C218.789 212.66 220.16 213.211 221.262 214.312C222.434 215.484 223.02 217.023 223.02 218.93C223.02 220.828 222.43 222.359 221.25 223.523C220.133 224.633 218.762 225.188 217.137 225.188C215.488 225.188 214.09 224.633 212.941 223.523C211.73 222.359 211.125 220.828 211.125 218.93ZM213.562 218.93C213.562 220.93 214.203 222.289 215.484 223.008C215.938 223.258 216.48 223.383 217.113 223.383C217.746 223.383 218.281 223.258 218.719 223.008C219.156 222.75 219.516 222.414 219.797 222C220.32 221.203 220.582 220.18 220.582 218.93C220.582 216.945 219.953 215.586 218.695 214.852C218.258 214.594 217.734 214.465 217.125 214.465C216.516 214.465 215.984 214.594 215.531 214.852C215.086 215.102 214.719 215.434 214.43 215.848C213.852 216.66 213.562 217.688 213.562 218.93ZM232.043 209.32C231.762 209.227 231.371 209.18 230.871 209.18C230.371 209.18 229.973 209.227 229.676 209.32C229.387 209.414 229.156 209.551 228.984 209.73C228.688 210.051 228.539 210.574 228.539 211.301V212.906H231.562V214.699H228.539V225H226.195V214.699H224.742V213.598L226.195 212.906V211.617C226.195 210.797 226.266 210.18 226.406 209.766C226.555 209.352 226.73 209.008 226.934 208.734C227.137 208.461 227.41 208.223 227.754 208.02C228.48 207.59 229.5 207.375 230.812 207.375C231.359 207.375 231.77 207.406 232.043 207.469V209.32ZM246.258 223.148C246.516 223.242 246.906 223.289 247.43 223.289C247.953 223.289 248.391 223.227 248.742 223.102V224.977C248.578 225.016 248.34 225.039 248.027 225.047L247.289 225.07C247.125 225.07 247 225.07 246.914 225.07C245.406 225.07 244.293 224.578 243.574 223.594C242.996 222.797 242.707 221.742 242.707 220.43V214.699H240.973V213.598L242.707 212.906L243.27 209.906H245.051V212.906H248.801V214.699H245.051V220.418C245.051 221.949 245.453 222.859 246.258 223.148ZM251.133 218.93C251.133 217.031 251.738 215.492 252.949 214.312C254.082 213.211 255.484 212.66 257.156 212.66C258.797 212.66 260.168 213.211 261.27 214.312C262.441 215.484 263.027 217.023 263.027 218.93C263.027 220.828 262.438 222.359 261.258 223.523C260.141 224.633 258.77 225.188 257.145 225.188C255.496 225.188 254.098 224.633 252.949 223.523C251.738 222.359 251.133 220.828 251.133 218.93ZM253.57 218.93C253.57 220.93 254.211 222.289 255.492 223.008C255.945 223.258 256.488 223.383 257.121 223.383C257.754 223.383 258.289 223.258 258.727 223.008C259.164 222.75 259.523 222.414 259.805 222C260.328 221.203 260.59 220.18 260.59 218.93C260.59 216.945 259.961 215.586 258.703 214.852C258.266 214.594 257.742 214.465 257.133 214.465C256.523 214.465 255.992 214.594 255.539 214.852C255.094 215.102 254.727 215.434 254.438 215.848C253.859 216.66 253.57 217.688 253.57 218.93ZM265.125 218.93C265.125 217.031 265.73 215.492 266.941 214.312C268.074 213.211 269.477 212.66 271.148 212.66C272.789 212.66 274.16 213.211 275.262 214.312C276.434 215.484 277.02 217.023 277.02 218.93C277.02 220.828 276.43 222.359 275.25 223.523C274.133 224.633 272.762 225.188 271.137 225.188C269.488 225.188 268.09 224.633 266.941 223.523C265.73 222.359 265.125 220.828 265.125 218.93ZM267.562 218.93C267.562 220.93 268.203 222.289 269.484 223.008C269.938 223.258 270.48 223.383 271.113 223.383C271.746 223.383 272.281 223.258 272.719 223.008C273.156 222.75 273.516 222.414 273.797 222C274.32 221.203 274.582 220.18 274.582 218.93C274.582 216.945 273.953 215.586 272.695 214.852C272.258 214.594 271.734 214.465 271.125 214.465C270.516 214.465 269.984 214.594 269.531 214.852C269.086 215.102 268.719 215.434 268.43 215.848C267.852 216.66 267.562 217.688 267.562 218.93ZM280.406 207.562H282.75V220.418C282.75 221.965 283.102 222.875 283.805 223.148C284.039 223.242 284.289 223.289 284.555 223.289C284.82 223.289 285.059 223.258 285.27 223.195V225L284.836 225.047C284.695 225.062 284.559 225.07 284.426 225.07C282.926 225.07 281.844 224.578 281.18 223.594C280.664 222.82 280.406 221.766 280.406 220.43V207.562ZM290.883 225.188C289.906 225.188 288.918 225.117 287.918 224.977V222.902C288.934 223.145 289.965 223.266 291.012 223.266C293.105 223.266 294.152 222.824 294.152 221.941C294.152 221.605 294.07 221.355 293.906 221.191C293.664 220.934 293.281 220.676 292.758 220.418L291.047 219.633C289.938 219.078 289.219 218.633 288.891 218.297C288.273 217.672 287.965 216.93 287.965 216.07C287.965 215.102 288.414 214.312 289.312 213.703C290.281 213.047 291.641 212.719 293.391 212.719C294.273 212.719 295.164 212.781 296.062 212.906V214.91C295.078 214.73 294.219 214.641 293.484 214.641C292.758 214.641 292.191 214.688 291.785 214.781C291.387 214.875 291.086 214.992 290.883 215.133C290.562 215.352 290.402 215.637 290.402 215.988C290.402 216.332 290.512 216.613 290.73 216.832C290.957 217.043 291.309 217.273 291.785 217.523L293.508 218.355C294.633 218.941 295.355 219.391 295.676 219.703C296.285 220.297 296.59 221.043 296.59 221.941C296.59 222.902 296.105 223.676 295.137 224.262C294.121 224.879 292.703 225.188 290.883 225.188ZM312.258 223.148C312.516 223.242 312.906 223.289 313.43 223.289C313.953 223.289 314.391 223.227 314.742 223.102V224.977C314.578 225.016 314.34 225.039 314.027 225.047L313.289 225.07C313.125 225.07 313 225.07 312.914 225.07C311.406 225.07 310.293 224.578 309.574 223.594C308.996 222.797 308.707 221.742 308.707 220.43V214.699H306.973V213.598L308.707 212.906L309.27 209.906H311.051V212.906H314.801V214.699H311.051V220.418C311.051 221.949 311.453 222.859 312.258 223.148ZM317.133 218.93C317.133 217.031 317.738 215.492 318.949 214.312C320.082 213.211 321.484 212.66 323.156 212.66C324.797 212.66 326.168 213.211 327.27 214.312C328.441 215.484 329.027 217.023 329.027 218.93C329.027 220.828 328.438 222.359 327.258 223.523C326.141 224.633 324.77 225.188 323.145 225.188C321.496 225.188 320.098 224.633 318.949 223.523C317.738 222.359 317.133 220.828 317.133 218.93ZM319.57 218.93C319.57 220.93 320.211 222.289 321.492 223.008C321.945 223.258 322.488 223.383 323.121 223.383C323.754 223.383 324.289 223.258 324.727 223.008C325.164 222.75 325.523 222.414 325.805 222C326.328 221.203 326.59 220.18 326.59 218.93C326.59 216.945 325.961 215.586 324.703 214.852C324.266 214.594 323.742 214.465 323.133 214.465C322.523 214.465 321.992 214.594 321.539 214.852C321.094 215.102 320.727 215.434 320.438 215.848C319.859 216.66 319.57 217.688 319.57 218.93ZM342.867 225.188C341.891 225.188 340.902 225.117 339.902 224.977V222.902C340.918 223.145 341.949 223.266 342.996 223.266C345.09 223.266 346.137 222.824 346.137 221.941C346.137 221.605 346.055 221.355 345.891 221.191C345.648 220.934 345.266 220.676 344.742 220.418L343.031 219.633C341.922 219.078 341.203 218.633 340.875 218.297C340.258 217.672 339.949 216.93 339.949 216.07C339.949 215.102 340.398 214.312 341.297 213.703C342.266 213.047 343.625 212.719 345.375 212.719C346.258 212.719 347.148 212.781 348.047 212.906V214.91C347.062 214.73 346.203 214.641 345.469 214.641C344.742 214.641 344.176 214.688 343.77 214.781C343.371 214.875 343.07 214.992 342.867 215.133C342.547 215.352 342.387 215.637 342.387 215.988C342.387 216.332 342.496 216.613 342.715 216.832C342.941 217.043 343.293 217.273 343.77 217.523L345.492 218.355C346.617 218.941 347.34 219.391 347.66 219.703C348.27 220.297 348.574 221.043 348.574 221.941C348.574 222.902 348.09 223.676 347.121 224.262C346.105 224.879 344.688 225.188 342.867 225.188ZM352.441 222.844C352.184 222.398 351.977 221.875 351.82 221.273C351.672 220.672 351.598 219.887 351.598 218.918C351.598 217.949 351.805 217.059 352.219 216.246C352.641 215.426 353.188 214.754 353.859 214.23C355.164 213.223 356.785 212.719 358.723 212.719C359.73 212.719 360.492 212.742 361.008 212.789C361.008 212.789 361.387 212.828 362.145 212.906V225H360.035L359.941 223.605C359.473 224.23 358.758 224.695 357.797 225C357.43 225.117 357.051 225.176 356.66 225.176C356.277 225.176 355.898 225.137 355.523 225.059C355.148 224.98 354.773 224.852 354.398 224.672C354.031 224.492 353.68 224.254 353.344 223.957C353.008 223.652 352.707 223.281 352.441 222.844ZM359.801 214.629C359.301 214.566 358.801 214.535 358.301 214.535C357.809 214.535 357.281 214.625 356.719 214.805C356.156 214.977 355.676 215.25 355.277 215.625C354.449 216.406 354.035 217.598 354.035 219.199C354.035 220.715 354.391 221.836 355.102 222.562C355.641 223.102 356.289 223.371 357.047 223.371C358.023 223.371 358.828 223.016 359.461 222.305C359.617 222.125 359.73 221.965 359.801 221.824V214.629ZM370.242 223.148C370.5 223.242 370.891 223.289 371.414 223.289C371.938 223.289 372.375 223.227 372.727 223.102V224.977C372.562 225.016 372.324 225.039 372.012 225.047L371.273 225.07C371.109 225.07 370.984 225.07 370.898 225.07C369.391 225.07 368.277 224.578 367.559 223.594C366.98 222.797 366.691 221.742 366.691 220.43V214.699H364.957V213.598L366.691 212.906L367.254 209.906H369.035V212.906H372.785V214.699H369.035V220.418C369.035 221.949 369.438 222.859 370.242 223.148ZM378.633 209.391C378.633 209.836 378.484 210.18 378.188 210.422C377.898 210.656 377.535 210.773 377.098 210.773C376.66 210.773 376.297 210.656 376.008 210.422C375.727 210.18 375.586 209.836 375.586 209.391C375.586 208.938 375.727 208.594 376.008 208.359C376.297 208.125 376.66 208.008 377.098 208.008C377.535 208.008 377.898 208.125 378.188 208.359C378.484 208.594 378.633 208.938 378.633 209.391ZM375.891 212.906H378.234V225H375.891V212.906ZM384.891 225.188C383.914 225.188 382.926 225.117 381.926 224.977V222.902C382.941 223.145 383.973 223.266 385.02 223.266C387.113 223.266 388.16 222.824 388.16 221.941C388.16 221.605 388.078 221.355 387.914 221.191C387.672 220.934 387.289 220.676 386.766 220.418L385.055 219.633C383.945 219.078 383.227 218.633 382.898 218.297C382.281 217.672 381.973 216.93 381.973 216.07C381.973 215.102 382.422 214.312 383.32 213.703C384.289 213.047 385.648 212.719 387.398 212.719C388.281 212.719 389.172 212.781 390.07 212.906V214.91C389.086 214.73 388.227 214.641 387.492 214.641C386.766 214.641 386.199 214.688 385.793 214.781C385.395 214.875 385.094 214.992 384.891 215.133C384.57 215.352 384.41 215.637 384.41 215.988C384.41 216.332 384.52 216.613 384.738 216.832C384.965 217.043 385.316 217.273 385.793 217.523L387.516 218.355C388.641 218.941 389.363 219.391 389.684 219.703C390.293 220.297 390.598 221.043 390.598 221.941C390.598 222.902 390.113 223.676 389.145 224.262C388.129 224.879 386.711 225.188 384.891 225.188ZM400.066 209.32C399.785 209.227 399.395 209.18 398.895 209.18C398.395 209.18 397.996 209.227 397.699 209.32C397.41 209.414 397.18 209.551 397.008 209.73C396.711 210.051 396.562 210.574 396.562 211.301V212.906H399.586V214.699H396.562V225H394.219V214.699H392.766V213.598L394.219 212.906V211.617C394.219 210.797 394.289 210.18 394.43 209.766C394.578 209.352 394.754 209.008 394.957 208.734C395.16 208.461 395.434 208.223 395.777 208.02C396.504 207.59 397.523 207.375 398.836 207.375C399.383 207.375 399.793 207.406 400.066 207.469V209.32ZM401.438 228C401.648 228.062 401.934 228.094 402.293 228.094C402.66 228.094 403.035 228.02 403.418 227.871C403.801 227.73 404.133 227.531 404.414 227.273C404.883 226.852 405.309 226.188 405.691 225.281L400.723 212.906H403.219L406.711 222.539L409.84 212.906H412.312L407.344 226.488C406.969 227.504 406.449 228.281 405.785 228.82C404.91 229.523 403.742 229.875 402.281 229.875C402.148 229.875 402.012 229.867 401.871 229.852L401.438 229.805V228ZM422.496 222.844C422.238 222.398 422.031 221.875 421.875 221.273C421.727 220.672 421.652 219.887 421.652 218.918C421.652 217.949 421.859 217.059 422.273 216.246C422.695 215.426 423.242 214.754 423.914 214.23C425.219 213.223 426.84 212.719 428.777 212.719C429.785 212.719 430.547 212.742 431.062 212.789C431.062 212.789 431.441 212.828 432.199 212.906V225H430.09L429.996 223.605C429.527 224.23 428.812 224.695 427.852 225C427.484 225.117 427.105 225.176 426.715 225.176C426.332 225.176 425.953 225.137 425.578 225.059C425.203 224.98 424.828 224.852 424.453 224.672C424.086 224.492 423.734 224.254 423.398 223.957C423.062 223.652 422.762 223.281 422.496 222.844ZM429.855 214.629C429.355 214.566 428.855 214.535 428.355 214.535C427.863 214.535 427.336 214.625 426.773 214.805C426.211 214.977 425.73 215.25 425.332 215.625C424.504 216.406 424.09 217.598 424.09 219.199C424.09 220.715 424.445 221.836 425.156 222.562C425.695 223.102 426.344 223.371 427.102 223.371C428.078 223.371 428.883 223.016 429.516 222.305C429.672 222.125 429.785 221.965 429.855 221.824V214.629ZM437.777 214.23C438.457 213.707 439.219 213.324 440.062 213.082C440.914 212.84 441.656 212.719 442.289 212.719C442.922 212.719 443.41 212.734 443.754 212.766V207.562H446.086V225H443.988L443.895 223.605C443.418 224.238 442.695 224.707 441.727 225.012C441.352 225.129 440.969 225.188 440.578 225.188C440.195 225.188 439.816 225.148 439.441 225.07C439.066 224.992 438.691 224.863 438.316 224.684C437.949 224.496 437.598 224.254 437.262 223.957C436.926 223.652 436.625 223.281 436.359 222.844C435.797 221.883 435.516 220.746 435.516 219.434C435.516 218.121 435.723 217.059 436.137 216.246C436.559 215.426 437.105 214.754 437.777 214.23ZM439.195 215.625C438.797 216 438.488 216.484 438.27 217.078C438.059 217.664 437.953 218.379 437.953 219.223C437.953 220.059 438.055 220.75 438.258 221.297C438.461 221.836 438.715 222.258 439.02 222.562C439.559 223.109 440.207 223.383 440.965 223.383C441.941 223.383 442.75 223.023 443.391 222.305C443.555 222.125 443.672 221.965 443.742 221.824V214.617L443.508 214.594C443.148 214.547 442.719 214.523 442.219 214.523C441.727 214.523 441.199 214.613 440.637 214.793C440.074 214.965 439.594 215.242 439.195 215.625ZM448.289 212.906H450.809L454.102 222.715L457.406 212.906H459.914L455.285 225H452.93L448.289 212.906ZM462.457 222.844C462.199 222.398 461.992 221.875 461.836 221.273C461.688 220.672 461.613 219.887 461.613 218.918C461.613 217.949 461.82 217.059 462.234 216.246C462.656 215.426 463.203 214.754 463.875 214.23C465.18 213.223 466.801 212.719 468.738 212.719C469.746 212.719 470.508 212.742 471.023 212.789C471.023 212.789 471.402 212.828 472.16 212.906V225H470.051L469.957 223.605C469.488 224.23 468.773 224.695 467.812 225C467.445 225.117 467.066 225.176 466.676 225.176C466.293 225.176 465.914 225.137 465.539 225.059C465.164 224.98 464.789 224.852 464.414 224.672C464.047 224.492 463.695 224.254 463.359 223.957C463.023 223.652 462.723 223.281 462.457 222.844ZM469.816 214.629C469.316 214.566 468.816 214.535 468.316 214.535C467.824 214.535 467.297 214.625 466.734 214.805C466.172 214.977 465.691 215.25 465.293 215.625C464.465 216.406 464.051 217.598 464.051 219.199C464.051 220.715 464.406 221.836 465.117 222.562C465.656 223.102 466.305 223.371 467.062 223.371C468.039 223.371 468.844 223.016 469.477 222.305C469.633 222.125 469.746 221.965 469.816 221.824V214.629ZM481.359 214.734C480.195 214.734 479.16 215.129 478.254 215.918V225H475.91V212.906H478.078L478.242 214.219C479.516 213.219 480.832 212.719 482.191 212.719C483.629 212.719 484.684 213.148 485.355 214.008C486.059 214.914 486.41 216.375 486.41 218.391V225H484.066V218.391C484.066 216.453 483.543 215.297 482.496 214.922C482.16 214.797 481.781 214.734 481.359 214.734ZM498.609 224.965C498.141 225.113 497.328 225.188 496.172 225.188C495.016 225.188 494.031 225.047 493.219 224.766C492.414 224.484 491.727 224.07 491.156 223.523C489.977 222.391 489.387 220.82 489.387 218.812C489.387 216.867 490.094 215.336 491.508 214.219C492.773 213.219 494.328 212.719 496.172 212.719C497.312 212.719 498.094 212.758 498.516 212.836V214.922C497.859 214.711 497.109 214.605 496.266 214.605C495.43 214.605 494.734 214.723 494.18 214.957C493.625 215.184 493.172 215.492 492.82 215.883C492.156 216.625 491.824 217.602 491.824 218.812C491.824 220.859 492.562 222.223 494.039 222.902C494.562 223.145 495.074 223.266 495.574 223.266C496.074 223.266 496.457 223.254 496.723 223.23C496.996 223.207 497.254 223.176 497.496 223.137C498.012 223.051 498.383 222.961 498.609 222.867V224.965ZM507.551 225.188C503.129 225.188 500.918 223.027 500.918 218.707C500.918 216.848 501.531 215.359 502.758 214.242C503.859 213.227 505.117 212.719 506.531 212.719C508.07 212.719 509.273 213.234 510.141 214.266C510.945 215.227 511.348 216.512 511.348 218.121V219.035H503.355C503.355 221.246 504.258 222.598 506.062 223.09C506.492 223.207 507.152 223.266 508.043 223.266C508.941 223.266 509.82 223.145 510.68 222.902V224.883C509.82 225.086 508.777 225.188 507.551 225.188ZM509.004 217.312C509.004 216.562 508.797 215.93 508.383 215.414C507.898 214.82 507.23 214.523 506.379 214.523C505.48 214.523 504.75 214.809 504.188 215.379C503.672 215.91 503.414 216.555 503.414 217.312H509.004ZM515.754 214.23C516.434 213.707 517.195 213.324 518.039 213.082C518.891 212.84 519.633 212.719 520.266 212.719C520.898 212.719 521.387 212.734 521.73 212.766V207.562H524.062V225H521.965L521.871 223.605C521.395 224.238 520.672 224.707 519.703 225.012C519.328 225.129 518.945 225.188 518.555 225.188C518.172 225.188 517.793 225.148 517.418 225.07C517.043 224.992 516.668 224.863 516.293 224.684C515.926 224.496 515.574 224.254 515.238 223.957C514.902 223.652 514.602 223.281 514.336 222.844C513.773 221.883 513.492 220.746 513.492 219.434C513.492 218.121 513.699 217.059 514.113 216.246C514.535 215.426 515.082 214.754 515.754 214.23ZM517.172 215.625C516.773 216 516.465 216.484 516.246 217.078C516.035 217.664 515.93 218.379 515.93 219.223C515.93 220.059 516.031 220.75 516.234 221.297C516.438 221.836 516.691 222.258 516.996 222.562C517.535 223.109 518.184 223.383 518.941 223.383C519.918 223.383 520.727 223.023 521.367 222.305C521.531 222.125 521.648 221.965 521.719 221.824V214.617L521.484 214.594C521.125 214.547 520.695 214.523 520.195 214.523C519.703 214.523 519.176 214.613 518.613 214.793C518.051 214.965 517.57 215.242 517.172 215.625ZM51.7031 252.035V242.906H54.0469V255H51.9375L51.7266 253.723C50.5703 254.699 49.293 255.188 47.8945 255.188C46.4102 255.188 45.3594 254.777 44.7422 253.957C44.1016 253.121 43.7812 251.68 43.7812 249.633V242.906H46.125V249.516C46.125 250.961 46.332 251.945 46.7461 252.469C47.1133 252.938 47.8125 253.172 48.8438 253.172C49.8828 253.172 50.8359 252.793 51.7031 252.035ZM60.7969 255.188C59.8203 255.188 58.832 255.117 57.832 254.977V252.902C58.8477 253.145 59.8789 253.266 60.9258 253.266C63.0195 253.266 64.0664 252.824 64.0664 251.941C64.0664 251.605 63.9844 251.355 63.8203 251.191C63.5781 250.934 63.1953 250.676 62.6719 250.418L60.9609 249.633C59.8516 249.078 59.1328 248.633 58.8047 248.297C58.1875 247.672 57.8789 246.93 57.8789 246.07C57.8789 245.102 58.3281 244.312 59.2266 243.703C60.1953 243.047 61.5547 242.719 63.3047 242.719C64.1875 242.719 65.0781 242.781 65.9766 242.906V244.91C64.9922 244.73 64.1328 244.641 63.3984 244.641C62.6719 244.641 62.1055 244.688 61.6992 244.781C61.3008 244.875 61 244.992 60.7969 245.133C60.4766 245.352 60.3164 245.637 60.3164 245.988C60.3164 246.332 60.4258 246.613 60.6445 246.832C60.8711 247.043 61.2227 247.273 61.6992 247.523L63.4219 248.355C64.5469 248.941 65.2695 249.391 65.5898 249.703C66.1992 250.297 66.5039 251.043 66.5039 251.941C66.5039 252.902 66.0195 253.676 65.0508 254.262C64.0352 254.879 62.6172 255.188 60.7969 255.188ZM75.4805 255.188C71.0586 255.188 68.8477 253.027 68.8477 248.707C68.8477 246.848 69.4609 245.359 70.6875 244.242C71.7891 243.227 73.0469 242.719 74.4609 242.719C76 242.719 77.2031 243.234 78.0703 244.266C78.875 245.227 79.2773 246.512 79.2773 248.121V249.035H71.2852C71.2852 251.246 72.1875 252.598 73.9922 253.09C74.4219 253.207 75.082 253.266 75.9727 253.266C76.8711 253.266 77.75 253.145 78.6094 252.902V254.883C77.75 255.086 76.707 255.188 75.4805 255.188ZM76.9336 247.312C76.9336 246.562 76.7266 245.93 76.3125 245.414C75.8281 244.82 75.1602 244.523 74.3086 244.523C73.4102 244.523 72.6797 244.809 72.1172 245.379C71.6016 245.91 71.3438 246.555 71.3438 247.312H76.9336ZM89.543 245.051C89.1133 244.926 88.5977 244.863 87.9961 244.863C87.4023 244.863 86.9141 244.926 86.5312 245.051C86.1484 245.168 85.8125 245.312 85.5234 245.484C84.9922 245.797 84.6055 246.148 84.3633 246.539V255H82.0195V242.906H84.2695L84.3633 244.582C84.9492 243.848 85.8047 243.297 86.9297 242.93C87.3359 242.789 87.8008 242.719 88.3242 242.719C88.8477 242.719 89.2539 242.758 89.543 242.836V245.051ZM100.395 252.844C100.137 252.398 99.9297 251.875 99.7734 251.273C99.625 250.672 99.5508 249.887 99.5508 248.918C99.5508 247.949 99.7578 247.059 100.172 246.246C100.594 245.426 101.141 244.754 101.812 244.23C103.117 243.223 104.738 242.719 106.676 242.719C107.684 242.719 108.445 242.742 108.961 242.789C108.961 242.789 109.34 242.828 110.098 242.906V255H107.988L107.895 253.605C107.426 254.23 106.711 254.695 105.75 255C105.383 255.117 105.004 255.176 104.613 255.176C104.23 255.176 103.852 255.137 103.477 255.059C103.102 254.98 102.727 254.852 102.352 254.672C101.984 254.492 101.633 254.254 101.297 253.957C100.961 253.652 100.66 253.281 100.395 252.844ZM107.754 244.629C107.254 244.566 106.754 244.535 106.254 244.535C105.762 244.535 105.234 244.625 104.672 244.805C104.109 244.977 103.629 245.25 103.23 245.625C102.402 246.406 101.988 247.598 101.988 249.199C101.988 250.715 102.344 251.836 103.055 252.562C103.594 253.102 104.242 253.371 105 253.371C105.977 253.371 106.781 253.016 107.414 252.305C107.57 252.125 107.684 251.965 107.754 251.824V244.629ZM119.297 244.734C118.133 244.734 117.098 245.129 116.191 245.918V255H113.848V242.906H116.016L116.18 244.219C117.453 243.219 118.77 242.719 120.129 242.719C121.566 242.719 122.621 243.148 123.293 244.008C123.996 244.914 124.348 246.375 124.348 248.391V255H122.004V248.391C122.004 246.453 121.48 245.297 120.434 244.922C120.098 244.797 119.719 244.734 119.297 244.734ZM129.691 244.23C130.371 243.707 131.133 243.324 131.977 243.082C132.828 242.84 133.57 242.719 134.203 242.719C134.836 242.719 135.324 242.734 135.668 242.766V237.562H138V255H135.902L135.809 253.605C135.332 254.238 134.609 254.707 133.641 255.012C133.266 255.129 132.883 255.188 132.492 255.188C132.109 255.188 131.73 255.148 131.355 255.07C130.98 254.992 130.605 254.863 130.23 254.684C129.863 254.496 129.512 254.254 129.176 253.957C128.84 253.652 128.539 253.281 128.273 252.844C127.711 251.883 127.43 250.746 127.43 249.434C127.43 248.121 127.637 247.059 128.051 246.246C128.473 245.426 129.02 244.754 129.691 244.23ZM131.109 245.625C130.711 246 130.402 246.484 130.184 247.078C129.973 247.664 129.867 248.379 129.867 249.223C129.867 250.059 129.969 250.75 130.172 251.297C130.375 251.836 130.629 252.258 130.934 252.562C131.473 253.109 132.121 253.383 132.879 253.383C133.855 253.383 134.664 253.023 135.305 252.305C135.469 252.125 135.586 251.965 135.656 251.824V244.617L135.422 244.594C135.062 244.547 134.633 244.523 134.133 244.523C133.641 244.523 133.113 244.613 132.551 244.793C131.988 244.965 131.508 245.242 131.109 245.625ZM148.219 242.906H150.715L153.82 252.516L156.961 242.906H159.398L162.574 252.48L165.527 242.906H167.848L163.781 255H161.367L158.109 245.836L155.027 255H152.613L148.219 242.906ZM175.512 255.188C171.09 255.188 168.879 253.027 168.879 248.707C168.879 246.848 169.492 245.359 170.719 244.242C171.82 243.227 173.078 242.719 174.492 242.719C176.031 242.719 177.234 243.234 178.102 244.266C178.906 245.227 179.309 246.512 179.309 248.121V249.035H171.316C171.316 251.246 172.219 252.598 174.023 253.09C174.453 253.207 175.113 253.266 176.004 253.266C176.902 253.266 177.781 253.145 178.641 252.902V254.883C177.781 255.086 176.738 255.188 175.512 255.188ZM176.965 247.312C176.965 246.562 176.758 245.93 176.344 245.414C175.859 244.82 175.191 244.523 174.34 244.523C173.441 244.523 172.711 244.809 172.148 245.379C171.633 245.91 171.375 246.555 171.375 247.312H176.965ZM190.348 253.652C189.676 254.176 188.914 254.562 188.062 254.812C187.219 255.055 186.305 255.176 185.32 255.176C184.344 255.176 183.25 255.117 182.039 255V237.562H184.383V244.113C184.898 243.527 185.613 243.109 186.527 242.859C186.871 242.766 187.223 242.719 187.582 242.719C187.949 242.719 188.32 242.758 188.695 242.836C189.07 242.906 189.441 243.031 189.809 243.211C190.184 243.391 190.539 243.629 190.875 243.926C191.211 244.223 191.508 244.594 191.766 245.039C192.336 245.992 192.621 247.125 192.621 248.438C192.621 249.742 192.41 250.805 191.988 251.625C191.574 252.445 191.027 253.121 190.348 253.652ZM184.395 253.277C184.613 253.34 185.043 253.371 185.684 253.371C186.324 253.371 186.926 253.281 187.488 253.102C188.051 252.922 188.531 252.641 188.93 252.258C189.766 251.453 190.184 250.254 190.184 248.66C190.184 246.715 189.617 245.441 188.484 244.84C188.078 244.629 187.664 244.523 187.242 244.523C186.82 244.523 186.453 244.578 186.141 244.688C185.828 244.797 185.555 244.93 185.32 245.086C184.875 245.391 184.566 245.719 184.395 246.07V253.277ZM198.82 255.188C197.844 255.188 196.855 255.117 195.855 254.977V252.902C196.871 253.145 197.902 253.266 198.949 253.266C201.043 253.266 202.09 252.824 202.09 251.941C202.09 251.605 202.008 251.355 201.844 251.191C201.602 250.934 201.219 250.676 200.695 250.418L198.984 249.633C197.875 249.078 197.156 248.633 196.828 248.297C196.211 247.672 195.902 246.93 195.902 246.07C195.902 245.102 196.352 244.312 197.25 243.703C198.219 243.047 199.578 242.719 201.328 242.719C202.211 242.719 203.102 242.781 204 242.906V244.91C203.016 244.73 202.156 244.641 201.422 244.641C200.695 244.641 200.129 244.688 199.723 244.781C199.324 244.875 199.023 244.992 198.82 245.133C198.5 245.352 198.34 245.637 198.34 245.988C198.34 246.332 198.449 246.613 198.668 246.832C198.895 247.043 199.246 247.273 199.723 247.523L201.445 248.355C202.57 248.941 203.293 249.391 203.613 249.703C204.223 250.297 204.527 251.043 204.527 251.941C204.527 252.902 204.043 253.676 203.074 254.262C202.059 254.879 200.641 255.188 198.82 255.188ZM210.586 239.391C210.586 239.836 210.438 240.18 210.141 240.422C209.852 240.656 209.488 240.773 209.051 240.773C208.613 240.773 208.25 240.656 207.961 240.422C207.68 240.18 207.539 239.836 207.539 239.391C207.539 238.938 207.68 238.594 207.961 238.359C208.25 238.125 208.613 238.008 209.051 238.008C209.488 238.008 209.852 238.125 210.141 238.359C210.438 238.594 210.586 238.938 210.586 239.391ZM207.844 242.906H210.188V255H207.844V242.906ZM218.227 253.148C218.484 253.242 218.875 253.289 219.398 253.289C219.922 253.289 220.359 253.227 220.711 253.102V254.977C220.547 255.016 220.309 255.039 219.996 255.047L219.258 255.07C219.094 255.07 218.969 255.07 218.883 255.07C217.375 255.07 216.262 254.578 215.543 253.594C214.965 252.797 214.676 251.742 214.676 250.43V244.699H212.941V243.598L214.676 242.906L215.238 239.906H217.02V242.906H220.77V244.699H217.02V250.418C217.02 251.949 217.422 252.859 218.227 253.148ZM229.535 255.188C225.113 255.188 222.902 253.027 222.902 248.707C222.902 246.848 223.516 245.359 224.742 244.242C225.844 243.227 227.102 242.719 228.516 242.719C230.055 242.719 231.258 243.234 232.125 244.266C232.93 245.227 233.332 246.512 233.332 248.121V249.035H225.34C225.34 251.246 226.242 252.598 228.047 253.09C228.477 253.207 229.137 253.266 230.027 253.266C230.926 253.266 231.805 253.145 232.664 252.902V254.883C231.805 255.086 230.762 255.188 229.535 255.188ZM230.988 247.312C230.988 246.562 230.781 245.93 230.367 245.414C229.883 244.82 229.215 244.523 228.363 244.523C227.465 244.523 226.734 244.809 226.172 245.379C225.656 245.91 225.398 246.555 225.398 247.312H230.988ZM245.73 244.23C246.41 243.707 247.172 243.324 248.016 243.082C248.867 242.84 249.609 242.719 250.242 242.719C250.875 242.719 251.363 242.734 251.707 242.766V237.562H254.039V255H251.941L251.848 253.605C251.371 254.238 250.648 254.707 249.68 255.012C249.305 255.129 248.922 255.188 248.531 255.188C248.148 255.188 247.77 255.148 247.395 255.07C247.02 254.992 246.645 254.863 246.27 254.684C245.902 254.496 245.551 254.254 245.215 253.957C244.879 253.652 244.578 253.281 244.312 252.844C243.75 251.883 243.469 250.746 243.469 249.434C243.469 248.121 243.676 247.059 244.09 246.246C244.512 245.426 245.059 244.754 245.73 244.23ZM247.148 245.625C246.75 246 246.441 246.484 246.223 247.078C246.012 247.664 245.906 248.379 245.906 249.223C245.906 250.059 246.008 250.75 246.211 251.297C246.414 251.836 246.668 252.258 246.973 252.562C247.512 253.109 248.16 253.383 248.918 253.383C249.895 253.383 250.703 253.023 251.344 252.305C251.508 252.125 251.625 251.965 251.695 251.824V244.617L251.461 244.594C251.102 244.547 250.672 244.523 250.172 244.523C249.68 244.523 249.152 244.613 248.59 244.793C248.027 244.965 247.547 245.242 247.148 245.625ZM263.543 255.188C259.121 255.188 256.91 253.027 256.91 248.707C256.91 246.848 257.523 245.359 258.75 244.242C259.852 243.227 261.109 242.719 262.523 242.719C264.062 242.719 265.266 243.234 266.133 244.266C266.938 245.227 267.34 246.512 267.34 248.121V249.035H259.348C259.348 251.246 260.25 252.598 262.055 253.09C262.484 253.207 263.145 253.266 264.035 253.266C264.934 253.266 265.812 253.145 266.672 252.902V254.883C265.812 255.086 264.77 255.188 263.543 255.188ZM264.996 247.312C264.996 246.562 264.789 245.93 264.375 245.414C263.891 244.82 263.223 244.523 262.371 244.523C261.473 244.523 260.742 244.809 260.18 245.379C259.664 245.91 259.406 246.555 259.406 247.312H264.996ZM268.266 242.906H270.785L274.078 252.715L277.383 242.906H279.891L275.262 255H272.906L268.266 242.906ZM287.543 255.188C283.121 255.188 280.91 253.027 280.91 248.707C280.91 246.848 281.523 245.359 282.75 244.242C283.852 243.227 285.109 242.719 286.523 242.719C288.062 242.719 289.266 243.234 290.133 244.266C290.938 245.227 291.34 246.512 291.34 248.121V249.035H283.348C283.348 251.246 284.25 252.598 286.055 253.09C286.484 253.207 287.145 253.266 288.035 253.266C288.934 253.266 289.812 253.145 290.672 252.902V254.883C289.812 255.086 288.77 255.188 287.543 255.188ZM288.996 247.312C288.996 246.562 288.789 245.93 288.375 245.414C287.891 244.82 287.223 244.523 286.371 244.523C285.473 244.523 284.742 244.809 284.18 245.379C283.664 245.91 283.406 246.555 283.406 247.312H288.996ZM294.422 237.562H296.766V250.418C296.766 251.965 297.117 252.875 297.82 253.148C298.055 253.242 298.305 253.289 298.57 253.289C298.836 253.289 299.074 253.258 299.285 253.195V255L298.852 255.047C298.711 255.062 298.574 255.07 298.441 255.07C296.941 255.07 295.859 254.578 295.195 253.594C294.68 252.82 294.422 251.766 294.422 250.43V237.562ZM301.148 248.93C301.148 247.031 301.754 245.492 302.965 244.312C304.098 243.211 305.5 242.66 307.172 242.66C308.812 242.66 310.184 243.211 311.285 244.312C312.457 245.484 313.043 247.023 313.043 248.93C313.043 250.828 312.453 252.359 311.273 253.523C310.156 254.633 308.785 255.188 307.16 255.188C305.512 255.188 304.113 254.633 302.965 253.523C301.754 252.359 301.148 250.828 301.148 248.93ZM303.586 248.93C303.586 250.93 304.227 252.289 305.508 253.008C305.961 253.258 306.504 253.383 307.137 253.383C307.77 253.383 308.305 253.258 308.742 253.008C309.18 252.75 309.539 252.414 309.82 252C310.344 251.203 310.605 250.18 310.605 248.93C310.605 246.945 309.977 245.586 308.719 244.852C308.281 244.594 307.758 244.465 307.148 244.465C306.539 244.465 306.008 244.594 305.555 244.852C305.109 245.102 304.742 245.434 304.453 245.848C303.875 246.66 303.586 247.688 303.586 248.93ZM318.445 259.688H316.102V242.906H318.211L318.305 244.289C318.773 243.664 319.492 243.199 320.461 242.895C320.836 242.777 321.215 242.719 321.598 242.719C321.988 242.719 322.371 242.762 322.746 242.848C323.121 242.926 323.492 243.059 323.859 243.246C324.227 243.426 324.578 243.668 324.914 243.973C325.25 244.27 325.547 244.641 325.805 245.086C326.367 246.047 326.648 247.238 326.648 248.66C326.648 250.832 325.898 252.492 324.398 253.641C323.07 254.664 321.453 255.176 319.547 255.176H318.961C318.773 255.176 318.602 255.172 318.445 255.164V259.688ZM318.445 253.266C318.664 253.328 319.094 253.359 319.734 253.359C320.375 253.359 320.977 253.27 321.539 253.09C322.102 252.91 322.578 252.633 322.969 252.258C323.797 251.461 324.211 250.262 324.211 248.66C324.211 247.152 323.852 246.039 323.133 245.32C322.602 244.789 321.953 244.523 321.188 244.523C320.227 244.523 319.43 244.879 318.797 245.59C318.633 245.77 318.516 245.93 318.445 246.07V253.266ZM335.59 255.188C331.168 255.188 328.957 253.027 328.957 248.707C328.957 246.848 329.57 245.359 330.797 244.242C331.898 243.227 333.156 242.719 334.57 242.719C336.109 242.719 337.312 243.234 338.18 244.266C338.984 245.227 339.387 246.512 339.387 248.121V249.035H331.395C331.395 251.246 332.297 252.598 334.102 253.09C334.531 253.207 335.191 253.266 336.082 253.266C336.98 253.266 337.859 253.145 338.719 252.902V254.883C337.859 255.086 336.816 255.188 335.59 255.188ZM337.043 247.312C337.043 246.562 336.836 245.93 336.422 245.414C335.938 244.82 335.27 244.523 334.418 244.523C333.52 244.523 332.789 244.809 332.227 245.379C331.711 245.91 331.453 246.555 331.453 247.312H337.043ZM349.652 245.051C349.223 244.926 348.707 244.863 348.105 244.863C347.512 244.863 347.023 244.926 346.641 245.051C346.258 245.168 345.922 245.312 345.633 245.484C345.102 245.797 344.715 246.148 344.473 246.539V255H342.129V242.906H344.379L344.473 244.582C345.059 243.848 345.914 243.297 347.039 242.93C347.445 242.789 347.91 242.719 348.434 242.719C348.957 242.719 349.363 242.758 349.652 242.836V245.051ZM365.414 244.734C364.25 244.734 363.215 245.129 362.309 245.918V255H359.965V242.906H362.133L362.297 244.219C363.57 243.219 364.887 242.719 366.246 242.719C367.684 242.719 368.738 243.148 369.41 244.008C370.113 244.914 370.465 246.375 370.465 248.391V255H368.121V248.391C368.121 246.453 367.598 245.297 366.551 244.922C366.215 244.797 365.836 244.734 365.414 244.734ZM379.629 255.188C375.207 255.188 372.996 253.027 372.996 248.707C372.996 246.848 373.609 245.359 374.836 244.242C375.938 243.227 377.195 242.719 378.609 242.719C380.148 242.719 381.352 243.234 382.219 244.266C383.023 245.227 383.426 246.512 383.426 248.121V249.035H375.434C375.434 251.246 376.336 252.598 378.141 253.09C378.57 253.207 379.23 253.266 380.121 253.266C381.02 253.266 381.898 253.145 382.758 252.902V254.883C381.898 255.086 380.855 255.188 379.629 255.188ZM381.082 247.312C381.082 246.562 380.875 245.93 380.461 245.414C379.977 244.82 379.309 244.523 378.457 244.523C377.559 244.523 376.828 244.809 376.266 245.379C375.75 245.91 375.492 246.555 375.492 247.312H381.082ZM391.652 255.188C387.23 255.188 385.02 253.027 385.02 248.707C385.02 246.848 385.633 245.359 386.859 244.242C387.961 243.227 389.219 242.719 390.633 242.719C392.172 242.719 393.375 243.234 394.242 244.266C395.047 245.227 395.449 246.512 395.449 248.121V249.035H387.457C387.457 251.246 388.359 252.598 390.164 253.09C390.594 253.207 391.254 253.266 392.145 253.266C393.043 253.266 393.922 253.145 394.781 252.902V254.883C393.922 255.086 392.879 255.188 391.652 255.188ZM393.105 247.312C393.105 246.562 392.898 245.93 392.484 245.414C392 244.82 391.332 244.523 390.48 244.523C389.582 244.523 388.852 244.809 388.289 245.379C387.773 245.91 387.516 246.555 387.516 247.312H393.105ZM399.855 244.23C400.535 243.707 401.297 243.324 402.141 243.082C402.992 242.84 403.734 242.719 404.367 242.719C405 242.719 405.488 242.734 405.832 242.766V237.562H408.164V255H406.066L405.973 253.605C405.496 254.238 404.773 254.707 403.805 255.012C403.43 255.129 403.047 255.188 402.656 255.188C402.273 255.188 401.895 255.148 401.52 255.07C401.145 254.992 400.77 254.863 400.395 254.684C400.027 254.496 399.676 254.254 399.34 253.957C399.004 253.652 398.703 253.281 398.438 252.844C397.875 251.883 397.594 250.746 397.594 249.434C397.594 248.121 397.801 247.059 398.215 246.246C398.637 245.426 399.184 244.754 399.855 244.23ZM401.273 245.625C400.875 246 400.566 246.484 400.348 247.078C400.137 247.664 400.031 248.379 400.031 249.223C400.031 250.059 400.133 250.75 400.336 251.297C400.539 251.836 400.793 252.258 401.098 252.562C401.637 253.109 402.285 253.383 403.043 253.383C404.02 253.383 404.828 253.023 405.469 252.305C405.633 252.125 405.75 251.965 405.82 251.824V244.617L405.586 244.594C405.227 244.547 404.797 244.523 404.297 244.523C403.805 244.523 403.277 244.613 402.715 244.793C402.152 244.965 401.672 245.242 401.273 245.625ZM414.984 255.188C414.008 255.188 413.02 255.117 412.02 254.977V252.902C413.035 253.145 414.066 253.266 415.113 253.266C417.207 253.266 418.254 252.824 418.254 251.941C418.254 251.605 418.172 251.355 418.008 251.191C417.766 250.934 417.383 250.676 416.859 250.418L415.148 249.633C414.039 249.078 413.32 248.633 412.992 248.297C412.375 247.672 412.066 246.93 412.066 246.07C412.066 245.102 412.516 244.312 413.414 243.703C414.383 243.047 415.742 242.719 417.492 242.719C418.375 242.719 419.266 242.781 420.164 242.906V244.91C419.18 244.73 418.32 244.641 417.586 244.641C416.859 244.641 416.293 244.688 415.887 244.781C415.488 244.875 415.188 244.992 414.984 245.133C414.664 245.352 414.504 245.637 414.504 245.988C414.504 246.332 414.613 246.613 414.832 246.832C415.059 247.043 415.41 247.273 415.887 247.523L417.609 248.355C418.734 248.941 419.457 249.391 419.777 249.703C420.387 250.297 420.691 251.043 420.691 251.941C420.691 252.902 420.207 253.676 419.238 254.262C418.223 254.879 416.805 255.188 414.984 255.188ZM425.203 255.293C424.734 255.293 424.344 255.168 424.031 254.918C423.727 254.66 423.574 254.293 423.574 253.816C423.574 253.332 423.727 252.961 424.031 252.703C424.344 252.445 424.734 252.316 425.203 252.316C425.68 252.316 426.074 252.445 426.387 252.703C426.699 252.961 426.855 253.332 426.855 253.816C426.855 254.293 426.699 254.66 426.387 254.918C426.074 255.168 425.68 255.293 425.203 255.293Z" fill="#4F4D4D"/>
<path d="M100.406 81.1667C101.283 81.1667 102 81.9964 102 83.0104V89.1562C102 90.1703 101.283 91 100.406 91H35.5938C34.7172 91 34 90.1703 34 89.1562V33.8437C34 32.8297 34.7172 32 35.5938 32H40.9062C41.7828 32 42.5 32.8297 42.5 33.8437V81.1667H100.406ZM83.4992 46.6732L72.25 55.3542L60.9211 37.8846C60.2437 36.8398 58.8625 36.9167 58.2781 38.0383L46.75 60.2708V76.25H97.75L85.8102 47.3953C85.3852 46.3966 84.2961 46.0586 83.4992 46.6732V46.6732Z" fill="#FFA800"/>
</svg>
