<svg width="470" height="158" viewBox="0 0 470 158" fill="none" xmlns="http://www.w3.org/2000/svg">
<rect width="470" height="158" fill="white"/>
<path d="M158.044 69.368C156.06 70.712 153.34 71.384 149.884 71.384C145.02 71.384 141.068 69.896 138.028 66.92C134.988 63.912 133.468 59.832 133.468 54.68C133.468 49.816 135.004 45.864 138.076 42.824C141.18 39.752 145.068 38.216 149.74 38.216C153.1 38.216 155.836 38.792 157.948 39.944V43.928C156.54 43.192 155.276 42.664 154.156 42.344C153.036 42.024 151.564 41.864 149.74 41.864C146.252 41.864 143.34 43.048 141.004 45.416C138.7 47.784 137.548 50.872 137.548 54.68C137.548 58.648 138.7 61.816 141.004 64.184C143.308 66.552 146.364 67.736 150.172 67.736C153.244 67.736 155.868 66.92 158.044 65.288V69.368ZM167.527 71H163.735V37.064H167.527V71ZM196.154 58.904C196.154 62.52 195.13 65.512 193.082 67.88C191.034 70.248 188.218 71.432 184.634 71.432C181.146 71.432 178.378 70.264 176.33 67.928C174.314 65.56 173.306 62.584 173.306 59C173.306 55.384 174.346 52.376 176.426 49.976C178.538 47.544 181.274 46.328 184.634 46.328C188.314 46.328 191.146 47.512 193.13 49.88C195.146 52.248 196.154 55.256 196.154 58.904ZM177.242 58.952C177.242 61.48 177.914 63.64 179.258 65.432C180.602 67.192 182.394 68.072 184.634 68.072C187.066 68.072 188.938 67.208 190.25 65.48C191.562 63.72 192.218 61.544 192.218 58.952C192.218 56.264 191.594 54.056 190.346 52.328C189.098 50.568 187.194 49.688 184.634 49.688C182.33 49.688 180.522 50.584 179.21 52.376C177.898 54.168 177.242 56.36 177.242 58.952ZM220.611 71H216.819V66.776C215.539 69.784 212.995 71.288 209.187 71.288C206.787 71.288 204.883 70.584 203.475 69.176C202.099 67.736 201.411 65.816 201.411 63.416V46.664H205.203V62.456C205.203 64.216 205.651 65.56 206.547 66.488C207.443 67.416 208.659 67.88 210.195 67.88C212.211 67.88 213.811 67.176 214.995 65.768C216.211 64.36 216.819 62.456 216.819 60.056V46.664H220.611V71ZM230.117 59.096C230.117 61.72 230.757 63.848 232.037 65.48C233.317 67.112 234.933 67.928 236.885 67.928C238.869 67.928 240.549 67.192 241.925 65.72C243.333 64.248 244.037 61.896 244.037 58.664C244.037 55.592 243.317 53.336 241.877 51.896C240.437 50.456 238.853 49.736 237.125 49.736C235.109 49.736 233.429 50.552 232.085 52.184C230.773 53.784 230.117 56.088 230.117 59.096ZM247.829 71H244.037V67.4C242.309 70.056 239.813 71.384 236.549 71.384C233.317 71.384 230.773 70.184 228.917 67.784C227.093 65.384 226.181 62.472 226.181 59.048C226.181 55.24 227.157 52.168 229.109 49.832C231.061 47.464 233.573 46.28 236.645 46.28C239.813 46.28 242.277 47.64 244.037 50.36V37.064H247.829V71ZM290.238 71H286.35V56.36H270.654V71H266.766V38.648H270.654V52.856H286.35V38.648H290.238V71ZM318.826 58.904C318.826 62.52 317.802 65.512 315.754 67.88C313.706 70.248 310.89 71.432 307.306 71.432C303.818 71.432 301.05 70.264 299.002 67.928C296.986 65.56 295.978 62.584 295.978 59C295.978 55.384 297.018 52.376 299.098 49.976C301.21 47.544 303.946 46.328 307.306 46.328C310.986 46.328 313.818 47.512 315.802 49.88C317.818 52.248 318.826 55.256 318.826 58.904ZM299.914 58.952C299.914 61.48 300.586 63.64 301.93 65.432C303.274 67.192 305.066 68.072 307.306 68.072C309.738 68.072 311.61 67.208 312.922 65.48C314.234 63.72 314.89 61.544 314.89 58.952C314.89 56.264 314.266 54.056 313.018 52.328C311.77 50.568 309.866 49.688 307.306 49.688C305.002 49.688 303.194 50.584 301.882 52.376C300.57 54.168 299.914 56.36 299.914 58.952ZM339.011 64.52C339.011 66.6 338.275 68.248 336.803 69.464C335.363 70.68 333.379 71.288 330.851 71.288C327.907 71.288 325.523 70.792 323.699 69.8V66.104C325.843 67.384 328.147 68.024 330.611 68.024C332.083 68.024 333.203 67.736 333.971 67.16C334.739 66.584 335.123 65.8 335.123 64.808C335.123 63.656 334.691 62.76 333.827 62.12C332.995 61.48 331.587 60.76 329.603 59.96C327.779 59.256 326.307 58.376 325.187 57.32C324.099 56.264 323.555 54.84 323.555 53.048C323.555 51.032 324.307 49.432 325.811 48.248C327.347 47.032 329.251 46.424 331.523 46.424C334.051 46.424 336.083 46.776 337.619 47.48V51.08C336.147 50.184 334.131 49.736 331.571 49.736C330.291 49.736 329.267 50.04 328.499 50.648C327.763 51.224 327.395 51.976 327.395 52.904C327.395 53.48 327.507 53.992 327.731 54.44C327.955 54.856 328.387 55.272 329.027 55.688C329.699 56.104 330.179 56.392 330.467 56.552C330.787 56.68 331.459 56.968 332.483 57.416C334.531 58.248 336.131 59.192 337.283 60.248C338.435 61.304 339.011 62.728 339.011 64.52ZM356.344 70.376C355.288 70.952 354.104 71.24 352.792 71.24C347.992 71.24 345.592 68.792 345.592 63.896V49.736H341.704V46.664H345.592V40.616H349.384V46.664H356.104V49.736H349.384V63.992C349.384 66.584 350.6 67.88 353.032 67.88C354.28 67.88 355.384 67.512 356.344 66.776V70.376ZM365.855 71H362.063V46.664H365.855V71ZM365.711 37.256C366.191 37.736 366.431 38.328 366.431 39.032C366.431 39.736 366.191 40.328 365.711 40.808C365.231 41.256 364.639 41.48 363.935 41.48C363.231 41.48 362.639 41.256 362.159 40.808C361.711 40.328 361.487 39.736 361.487 39.032C361.487 38.328 361.711 37.736 362.159 37.256C362.639 36.776 363.231 36.536 363.935 36.536C364.639 36.536 365.231 36.776 365.711 37.256ZM392.274 71H388.482V55.256C388.482 53.464 388.018 52.104 387.09 51.176C386.194 50.216 385.01 49.736 383.538 49.736C381.714 49.736 380.13 50.44 378.786 51.848C377.474 53.256 376.818 55.208 376.818 57.704V71H373.074V46.664H376.818V50.888C378.258 47.848 380.818 46.328 384.498 46.328C386.866 46.328 388.754 47.048 390.162 48.488C391.57 49.928 392.274 51.848 392.274 54.248V71ZM418.628 69.032C418.628 72.744 417.604 75.528 415.556 77.384C413.508 79.272 410.868 80.216 407.636 80.216C404.692 80.216 402.18 79.72 400.1 78.728V74.936C402.148 76.12 404.548 76.712 407.3 76.712C409.636 76.712 411.476 76.088 412.82 74.84C414.164 73.592 414.836 71.64 414.836 68.984V66.248C413.236 69 410.852 70.376 407.684 70.376C404.9 70.376 402.516 69.352 400.532 67.304C398.58 65.256 397.604 62.408 397.604 58.76C397.604 55.144 398.516 52.168 400.34 49.832C402.164 47.496 404.548 46.328 407.492 46.328C410.82 46.328 413.268 47.784 414.836 50.696V46.664H418.628V69.032ZM401.54 58.664C401.54 61.384 402.212 63.464 403.556 64.904C404.9 66.312 406.42 67.016 408.116 67.016C409.876 67.016 411.428 66.344 412.772 65C414.148 63.624 414.836 61.592 414.836 58.904C414.836 55.8 414.18 53.496 412.868 51.992C411.556 50.488 410.036 49.736 408.308 49.736C406.228 49.736 404.58 50.568 403.364 52.232C402.148 53.864 401.54 56.008 401.54 58.664Z" fill="black"/>
<path d="M143.24 98.14H138.16V104H136.54V90.52H143.94V91.94H138.16V96.72H143.24V98.14ZM155.165 98.96C155.165 100.467 154.738 101.713 153.885 102.7C153.032 103.687 151.858 104.18 150.365 104.18C148.912 104.18 147.758 103.693 146.905 102.72C146.065 101.733 145.645 100.493 145.645 99C145.645 97.4933 146.078 96.24 146.945 95.24C147.825 94.2267 148.965 93.72 150.365 93.72C151.898 93.72 153.078 94.2133 153.905 95.2C154.745 96.1867 155.165 97.44 155.165 98.96ZM147.285 98.98C147.285 100.033 147.565 100.933 148.125 101.68C148.685 102.413 149.432 102.78 150.365 102.78C151.378 102.78 152.158 102.42 152.705 101.7C153.252 100.967 153.525 100.06 153.525 98.98C153.525 97.86 153.265 96.94 152.745 96.22C152.225 95.4867 151.432 95.12 150.365 95.12C149.405 95.12 148.652 95.4933 148.105 96.24C147.558 96.9867 147.285 97.9 147.285 98.98ZM159.036 104H157.456L157.476 93.86H159.036V95.64C159.569 94.3867 160.489 93.76 161.796 93.76C162.036 93.76 162.222 93.7733 162.356 93.8V95.36C162.076 95.2667 161.789 95.22 161.496 95.22C160.789 95.22 160.202 95.5467 159.736 96.2C159.269 96.8533 159.036 97.6067 159.036 98.46V104ZM176.322 104H168.962V90.52H170.582V102.54H176.322V104ZM181.513 102.78C182.233 102.78 182.806 102.58 183.233 102.18C183.66 101.767 183.873 101.247 183.873 100.62V99.32H182.113C181.26 99.32 180.62 99.4867 180.193 99.82C179.766 100.153 179.553 100.573 179.553 101.08C179.553 101.587 179.72 102 180.053 102.32C180.386 102.627 180.873 102.78 181.513 102.78ZM183.893 102.8C183.373 103.667 182.426 104.1 181.053 104.1C180.106 104.1 179.34 103.82 178.753 103.26C178.18 102.7 177.893 101.993 177.893 101.14C177.893 100.167 178.26 99.4133 178.993 98.88C179.74 98.3333 180.753 98.06 182.033 98.06H183.873V97.54C183.873 96.74 183.693 96.14 183.333 95.74C182.973 95.3267 182.366 95.12 181.513 95.12C180.433 95.12 179.473 95.4067 178.633 95.98V94.4C179.393 93.9333 180.393 93.7 181.633 93.7C184.18 93.7 185.453 94.9933 185.453 97.58V104H183.893V102.8ZM189.817 104H188.237L188.257 93.86H189.817V95.64C190.35 94.3867 191.27 93.76 192.577 93.76C192.817 93.76 193.004 93.7733 193.137 93.8V95.36C192.857 95.2667 192.57 95.22 192.277 95.22C191.57 95.22 190.984 95.5467 190.517 96.2C190.05 96.8533 189.817 97.6067 189.817 98.46V104ZM202.96 103.18C202.96 104.727 202.534 105.887 201.68 106.66C200.827 107.447 199.727 107.84 198.38 107.84C197.154 107.84 196.107 107.633 195.24 107.22V105.64C196.094 106.133 197.094 106.38 198.24 106.38C199.214 106.38 199.98 106.12 200.54 105.6C201.1 105.08 201.38 104.267 201.38 103.16V102.02C200.714 103.167 199.72 103.74 198.4 103.74C197.24 103.74 196.247 103.313 195.42 102.46C194.607 101.607 194.2 100.42 194.2 98.9C194.2 97.3933 194.58 96.1533 195.34 95.18C196.1 94.2067 197.094 93.72 198.32 93.72C199.707 93.72 200.727 94.3267 201.38 95.54V93.86H202.96V103.18ZM195.84 98.86C195.84 99.9933 196.12 100.86 196.68 101.46C197.24 102.047 197.874 102.34 198.58 102.34C199.314 102.34 199.96 102.06 200.52 101.5C201.094 100.927 201.38 100.08 201.38 98.96C201.38 97.6667 201.107 96.7067 200.56 96.08C200.014 95.4533 199.38 95.14 198.66 95.14C197.794 95.14 197.107 95.4867 196.6 96.18C196.094 96.86 195.84 97.7533 195.84 98.86ZM213.157 103.48C212.37 103.893 211.41 104.1 210.277 104.1C208.744 104.1 207.504 103.633 206.557 102.7C205.624 101.753 205.157 100.507 205.157 98.96C205.157 97.3467 205.577 96.0733 206.417 95.14C207.257 94.2067 208.337 93.74 209.657 93.74C210.924 93.74 211.93 94.1467 212.677 94.96C213.424 95.7733 213.797 96.9267 213.797 98.42C213.797 98.8467 213.764 99.24 213.697 99.6H206.777C206.897 100.6 207.277 101.367 207.917 101.9C208.557 102.433 209.397 102.7 210.437 102.7C211.57 102.7 212.477 102.467 213.157 102V103.48ZM209.657 95.12C208.897 95.12 208.25 95.3933 207.717 95.94C207.184 96.4867 206.87 97.2667 206.777 98.28H212.217V97.88C212.217 97.04 211.99 96.3733 211.537 95.88C211.084 95.3733 210.457 95.12 209.657 95.12ZM227.189 101.3C227.189 102.167 226.882 102.853 226.269 103.36C225.669 103.867 224.842 104.12 223.789 104.12C222.562 104.12 221.569 103.913 220.809 103.5V101.96C221.702 102.493 222.662 102.76 223.689 102.76C224.302 102.76 224.769 102.64 225.089 102.4C225.409 102.16 225.569 101.833 225.569 101.42C225.569 100.94 225.389 100.567 225.029 100.3C224.682 100.033 224.096 99.7333 223.269 99.4C222.509 99.1067 221.896 98.74 221.429 98.3C220.976 97.86 220.749 97.2667 220.749 96.52C220.749 95.68 221.062 95.0133 221.689 94.52C222.329 94.0133 223.122 93.76 224.069 93.76C225.122 93.76 225.969 93.9067 226.609 94.2V95.7C225.996 95.3267 225.156 95.14 224.089 95.14C223.556 95.14 223.129 95.2667 222.809 95.52C222.502 95.76 222.349 96.0733 222.349 96.46C222.349 96.7 222.396 96.9133 222.489 97.1C222.582 97.2733 222.762 97.4467 223.029 97.62C223.309 97.7933 223.509 97.9133 223.629 97.98C223.762 98.0333 224.042 98.1533 224.469 98.34C225.322 98.6867 225.989 99.08 226.469 99.52C226.949 99.96 227.189 100.553 227.189 101.3ZM236.311 103.64C235.671 104.027 234.884 104.22 233.951 104.22C232.351 104.22 231.078 103.713 230.131 102.7C229.198 101.673 228.731 100.427 228.731 98.96C228.731 97.52 229.198 96.28 230.131 95.24C231.078 94.2 232.364 93.68 233.991 93.68C234.858 93.68 235.631 93.8667 236.311 94.24V95.74C235.698 95.3267 234.978 95.12 234.151 95.12C233.004 95.12 232.084 95.4933 231.391 96.24C230.711 96.9733 230.371 97.8867 230.371 98.98C230.384 100.073 230.718 100.987 231.371 101.72C232.024 102.44 232.951 102.8 234.151 102.8C234.924 102.8 235.644 102.58 236.311 102.14V103.64ZM241.845 102.78C242.565 102.78 243.138 102.58 243.565 102.18C243.992 101.767 244.205 101.247 244.205 100.62V99.32H242.445C241.592 99.32 240.952 99.4867 240.525 99.82C240.098 100.153 239.885 100.573 239.885 101.08C239.885 101.587 240.052 102 240.385 102.32C240.718 102.627 241.205 102.78 241.845 102.78ZM244.225 102.8C243.705 103.667 242.758 104.1 241.385 104.1C240.438 104.1 239.672 103.82 239.085 103.26C238.512 102.7 238.225 101.993 238.225 101.14C238.225 100.167 238.592 99.4133 239.325 98.88C240.072 98.3333 241.085 98.06 242.365 98.06H244.205V97.54C244.205 96.74 244.025 96.14 243.665 95.74C243.305 95.3267 242.698 95.12 241.845 95.12C240.765 95.12 239.805 95.4067 238.965 95.98V94.4C239.725 93.9333 240.725 93.7 241.965 93.7C244.512 93.7 245.785 94.9933 245.785 97.58V104H244.225V102.8ZM250.249 104H248.669V89.86H250.249V104ZM260.657 103.48C259.87 103.893 258.91 104.1 257.777 104.1C256.244 104.1 255.004 103.633 254.057 102.7C253.124 101.753 252.657 100.507 252.657 98.96C252.657 97.3467 253.077 96.0733 253.917 95.14C254.757 94.2067 255.837 93.74 257.157 93.74C258.424 93.74 259.43 94.1467 260.177 94.96C260.924 95.7733 261.297 96.9267 261.297 98.42C261.297 98.8467 261.264 99.24 261.197 99.6H254.277C254.397 100.6 254.777 101.367 255.417 101.9C256.057 102.433 256.897 102.7 257.937 102.7C259.07 102.7 259.977 102.467 260.657 102V103.48ZM257.157 95.12C256.397 95.12 255.75 95.3933 255.217 95.94C254.684 96.4867 254.37 97.2667 254.277 98.28H259.717V97.88C259.717 97.04 259.49 96.3733 259.037 95.88C258.584 95.3733 257.957 95.12 257.157 95.12ZM270.149 107.94H268.589V93.86H270.149V95.4C270.856 94.2667 271.902 93.7 273.289 93.7C274.636 93.7 275.689 94.1933 276.449 95.18C277.222 96.1533 277.609 97.3733 277.609 98.84C277.609 100.4 277.202 101.68 276.389 102.68C275.589 103.667 274.542 104.16 273.249 104.16C271.916 104.16 270.882 103.593 270.149 102.46V107.94ZM270.149 98.94C270.149 100.233 270.449 101.187 271.049 101.8C271.649 102.413 272.316 102.72 273.049 102.72C273.902 102.72 274.602 102.387 275.149 101.72C275.696 101.04 275.969 100.08 275.969 98.84C275.969 97.7333 275.702 96.84 275.169 96.16C274.636 95.48 273.962 95.14 273.149 95.14C272.336 95.14 271.629 95.44 271.029 96.04C270.442 96.6267 270.149 97.5933 270.149 98.94ZM281.497 104H279.917L279.937 93.86H281.497V95.64C282.03 94.3867 282.95 93.76 284.257 93.76C284.497 93.76 284.683 93.7733 284.817 93.8V95.36C284.537 95.2667 284.25 95.22 283.957 95.22C283.25 95.22 282.663 95.5467 282.197 96.2C281.73 96.8533 281.497 97.6067 281.497 98.46V104ZM295.38 98.96C295.38 100.467 294.953 101.713 294.1 102.7C293.247 103.687 292.073 104.18 290.58 104.18C289.127 104.18 287.973 103.693 287.12 102.72C286.28 101.733 285.86 100.493 285.86 99C285.86 97.4933 286.293 96.24 287.16 95.24C288.04 94.2267 289.18 93.72 290.58 93.72C292.113 93.72 293.293 94.2133 294.12 95.2C294.96 96.1867 295.38 97.44 295.38 98.96ZM287.5 98.98C287.5 100.033 287.78 100.933 288.34 101.68C288.9 102.413 289.647 102.78 290.58 102.78C291.593 102.78 292.373 102.42 292.92 101.7C293.467 100.967 293.74 100.06 293.74 98.98C293.74 97.86 293.48 96.94 292.96 96.22C292.44 95.4867 291.647 95.12 290.58 95.12C289.62 95.12 288.867 95.4933 288.32 96.24C287.773 96.9867 287.5 97.9 287.5 98.98ZM299.35 105.1C299.35 105.98 299.117 106.667 298.65 107.16C298.197 107.653 297.564 107.9 296.75 107.9C296.31 107.9 295.83 107.8 295.31 107.6V106.2C295.817 106.413 296.27 106.52 296.67 106.52C297.417 106.52 297.79 106.033 297.79 105.06V93.86H299.35V105.1ZM299.29 89.94C299.49 90.14 299.59 90.3867 299.59 90.68C299.59 90.9733 299.49 91.22 299.29 91.42C299.09 91.6067 298.844 91.7 298.55 91.7C298.257 91.7 298.01 91.6067 297.81 91.42C297.624 91.22 297.53 90.9733 297.53 90.68C297.53 90.3867 297.624 90.14 297.81 89.94C298.01 89.74 298.257 89.64 298.55 89.64C298.844 89.64 299.09 89.74 299.29 89.94ZM309.641 103.48C308.855 103.893 307.895 104.1 306.761 104.1C305.228 104.1 303.988 103.633 303.041 102.7C302.108 101.753 301.641 100.507 301.641 98.96C301.641 97.3467 302.061 96.0733 302.901 95.14C303.741 94.2067 304.821 93.74 306.141 93.74C307.408 93.74 308.415 94.1467 309.161 94.96C309.908 95.7733 310.281 96.9267 310.281 98.42C310.281 98.8467 310.248 99.24 310.181 99.6H303.261C303.381 100.6 303.761 101.367 304.401 101.9C305.041 102.433 305.881 102.7 306.921 102.7C308.055 102.7 308.961 102.467 309.641 102V103.48ZM306.141 95.12C305.381 95.12 304.735 95.3933 304.201 95.94C303.668 96.4867 303.355 97.2667 303.261 98.28H308.701V97.88C308.701 97.04 308.475 96.3733 308.021 95.88C307.568 95.3733 306.941 95.12 306.141 95.12ZM319.67 103.64C319.03 104.027 318.244 104.22 317.31 104.22C315.71 104.22 314.437 103.713 313.49 102.7C312.557 101.673 312.09 100.427 312.09 98.96C312.09 97.52 312.557 96.28 313.49 95.24C314.437 94.2 315.724 93.68 317.35 93.68C318.217 93.68 318.99 93.8667 319.67 94.24V95.74C319.057 95.3267 318.337 95.12 317.51 95.12C316.364 95.12 315.444 95.4933 314.75 96.24C314.07 96.9733 313.73 97.8867 313.73 98.98C313.744 100.073 314.077 100.987 314.73 101.72C315.384 102.44 316.31 102.8 317.51 102.8C318.284 102.8 319.004 102.58 319.67 102.14V103.64ZM327.185 103.74C326.745 103.98 326.251 104.1 325.705 104.1C323.705 104.1 322.705 103.08 322.705 101.04V95.14H321.085V93.86H322.705V91.34H324.285V93.86H327.085V95.14H324.285V101.08C324.285 102.16 324.791 102.7 325.805 102.7C326.325 102.7 326.785 102.547 327.185 102.24V103.74ZM335.587 101.3C335.587 102.167 335.281 102.853 334.667 103.36C334.067 103.867 333.241 104.12 332.187 104.12C330.961 104.12 329.967 103.913 329.207 103.5V101.96C330.101 102.493 331.061 102.76 332.087 102.76C332.701 102.76 333.167 102.64 333.487 102.4C333.807 102.16 333.967 101.833 333.967 101.42C333.967 100.94 333.787 100.567 333.427 100.3C333.081 100.033 332.494 99.7333 331.667 99.4C330.907 99.1067 330.294 98.74 329.827 98.3C329.374 97.86 329.147 97.2667 329.147 96.52C329.147 95.68 329.461 95.0133 330.087 94.52C330.727 94.0133 331.521 93.76 332.467 93.76C333.521 93.76 334.367 93.9067 335.007 94.2V95.7C334.394 95.3267 333.554 95.14 332.487 95.14C331.954 95.14 331.527 95.2667 331.207 95.52C330.901 95.76 330.747 96.0733 330.747 96.46C330.747 96.7 330.794 96.9133 330.887 97.1C330.981 97.2733 331.161 97.4467 331.427 97.62C331.707 97.7933 331.907 97.9133 332.027 97.98C332.161 98.0333 332.441 98.1533 332.867 98.34C333.721 98.6867 334.387 99.08 334.867 99.52C335.347 99.96 335.587 100.553 335.587 101.3Z" fill="black"/>
<path d="M101.88 65.4469C102.565 63.6078 102.95 61.5969 102.95 59.5C102.95 50.3906 95.7609 43 86.9 43C83.6064 43 80.5302 44.0312 77.9889 45.7844C73.3578 37.5344 64.7142 32 54.8 32C40.0206 32 28.05 44.3062 28.05 59.5C28.05 59.9641 28.0667 60.4281 28.0834 60.8922C18.7209 64.2781 12 73.4563 12 84.25C12 97.9141 22.7836 109 36.075 109H97.6C109.42 109 119 99.1516 119 87C119 76.3609 111.644 67.475 101.88 65.4469ZM77.7716 76H66.8375V95.25C66.8375 96.7625 65.6337 98 64.1625 98H56.1375C54.6663 98 53.4625 96.7625 53.4625 95.25V76H42.5284C40.1377 76 38.9506 73.0438 40.6392 71.3078L58.2608 53.1922C59.2973 52.1266 61.0027 52.1266 62.0392 53.1922L79.6608 71.3078C81.3494 73.0438 80.1456 76 77.7716 76Z" fill="#FFA800"/>
</svg>
