<svg width="560" height="158" viewBox="0 0 560 158" fill="none" xmlns="http://www.w3.org/2000/svg">
<rect width="560" height="158" fill="white"/>
<path d="M164.818 69.368C162.834 70.712 160.114 71.384 156.658 71.384C151.794 71.384 147.842 69.896 144.802 66.92C141.762 63.912 140.242 59.832 140.242 54.68C140.242 49.816 141.778 45.864 144.85 42.824C147.954 39.752 151.842 38.216 156.514 38.216C159.874 38.216 162.61 38.792 164.722 39.944V43.928C163.314 43.192 162.05 42.664 160.93 42.344C159.81 42.024 158.338 41.864 156.514 41.864C153.026 41.864 150.114 43.048 147.778 45.416C145.474 47.784 144.322 50.872 144.322 54.68C144.322 58.648 145.474 61.816 147.778 64.184C150.082 66.552 153.138 67.736 156.946 67.736C160.018 67.736 162.642 66.92 164.818 65.288V69.368ZM180.877 70.376C179.629 73.672 178.141 75.992 176.413 77.336C174.717 78.68 172.765 79.352 170.557 79.352C169.725 79.352 169.053 79.272 168.541 79.112V75.704C169.021 75.832 169.565 75.896 170.173 75.896C173.405 75.896 175.693 74.056 177.037 70.376L167.197 46.664H171.469L174.637 54.68L178.909 65.72C179.165 64.888 180.445 61.208 182.749 54.68L185.581 46.664H189.661L180.877 70.376ZM197.924 71H194.132V37.064H197.924V50.312C199.684 47.624 202.148 46.28 205.316 46.28C208.388 46.28 210.9 47.464 212.852 49.832C214.804 52.168 215.78 55.24 215.78 59.048C215.78 62.472 214.852 65.384 212.996 67.784C211.172 70.184 208.644 71.384 205.412 71.384C202.148 71.384 199.652 70.056 197.924 67.4V71ZM197.924 58.664C197.924 61.896 198.612 64.248 199.988 65.72C201.396 67.192 203.092 67.928 205.076 67.928C207.028 67.928 208.644 67.112 209.924 65.48C211.204 63.848 211.844 61.72 211.844 59.096C211.844 56.088 211.172 53.784 209.828 52.184C208.516 50.552 206.852 49.736 204.836 49.736C203.108 49.736 201.524 50.456 200.084 51.896C198.644 53.336 197.924 55.592 197.924 58.664ZM239.123 69.752C237.235 70.744 234.931 71.24 232.211 71.24C228.531 71.24 225.555 70.12 223.283 67.88C221.043 65.608 219.923 62.616 219.923 58.904C219.923 55.032 220.931 51.976 222.947 49.736C224.963 47.496 227.555 46.376 230.723 46.376C233.763 46.376 236.179 47.352 237.971 49.304C239.763 51.256 240.659 54.024 240.659 57.608C240.659 58.632 240.579 59.576 240.419 60.44H223.811C224.099 62.84 225.011 64.68 226.547 65.96C228.083 67.24 230.099 67.88 232.595 67.88C235.315 67.88 237.491 67.32 239.123 66.2V69.752ZM230.723 49.688C228.899 49.688 227.347 50.344 226.067 51.656C224.787 52.968 224.035 54.84 223.811 57.272H236.867V56.312C236.867 54.296 236.323 52.696 235.235 51.512C234.147 50.296 232.643 49.688 230.723 49.688ZM250.186 71H246.394L246.442 46.664H250.186V50.936C251.466 47.928 253.674 46.424 256.81 46.424C257.386 46.424 257.834 46.456 258.154 46.52V50.264C257.482 50.04 256.794 49.928 256.09 49.928C254.394 49.928 252.986 50.712 251.866 52.28C250.746 53.848 250.186 55.656 250.186 57.704V71ZM271.17 59.096H266.178V71H262.29V38.648H270.786C274.53 38.648 277.474 39.624 279.618 41.576C281.794 43.496 282.882 45.992 282.882 49.064C282.882 51.944 281.81 54.344 279.666 56.264C277.522 58.152 274.69 59.096 271.17 59.096ZM270.834 41.96H266.178V55.784H271.17C273.602 55.784 275.506 55.16 276.882 53.912C278.258 52.632 278.946 51.016 278.946 49.064C278.946 46.888 278.242 45.16 276.834 43.88C275.426 42.6 273.426 41.96 270.834 41.96ZM295.694 68.072C297.422 68.072 298.798 67.592 299.822 66.632C300.846 65.64 301.358 64.392 301.358 62.888V59.768H297.134C295.086 59.768 293.55 60.168 292.526 60.968C291.502 61.768 290.99 62.776 290.99 63.992C290.99 65.208 291.39 66.2 292.19 66.968C292.99 67.704 294.158 68.072 295.694 68.072ZM301.406 68.12C300.158 70.2 297.886 71.24 294.59 71.24C292.318 71.24 290.478 70.568 289.07 69.224C287.694 67.88 287.006 66.184 287.006 64.136C287.006 61.8 287.886 59.992 289.646 58.712C291.438 57.4 293.87 56.744 296.942 56.744H301.358V55.496C301.358 53.576 300.926 52.136 300.062 51.176C299.198 50.184 297.742 49.688 295.694 49.688C293.102 49.688 290.798 50.376 288.782 51.752V47.96C290.606 46.84 293.006 46.28 295.982 46.28C302.094 46.28 305.15 49.384 305.15 55.592V71H301.406V68.12ZM331.079 71H327.287V55.256C327.287 53.464 326.823 52.104 325.895 51.176C324.999 50.216 323.815 49.736 322.343 49.736C320.519 49.736 318.935 50.44 317.591 51.848C316.279 53.256 315.623 55.208 315.623 57.704V71H311.879V46.664H315.623V50.888C317.063 47.848 319.623 46.328 323.303 46.328C325.671 46.328 327.559 47.048 328.967 48.488C330.375 49.928 331.079 51.848 331.079 54.248V71ZM355.561 69.752C353.673 70.744 351.369 71.24 348.649 71.24C344.969 71.24 341.993 70.12 339.721 67.88C337.481 65.608 336.361 62.616 336.361 58.904C336.361 55.032 337.369 51.976 339.385 49.736C341.401 47.496 343.993 46.376 347.161 46.376C350.201 46.376 352.617 47.352 354.409 49.304C356.201 51.256 357.097 54.024 357.097 57.608C357.097 58.632 357.017 59.576 356.857 60.44H340.249C340.537 62.84 341.449 64.68 342.985 65.96C344.521 67.24 346.537 67.88 349.033 67.88C351.753 67.88 353.929 67.32 355.561 66.2V69.752ZM347.161 49.688C345.337 49.688 343.785 50.344 342.505 51.656C341.225 52.968 340.473 54.84 340.249 57.272H353.305V56.312C353.305 54.296 352.761 52.696 351.673 51.512C350.585 50.296 349.081 49.688 347.161 49.688ZM366.863 71H363.071V37.064H366.863V71ZM409.465 71H405.577V56.36H389.881V71H385.993V38.648H389.881V52.856H405.577V38.648H409.465V71ZM438.053 58.904C438.053 62.52 437.029 65.512 434.981 67.88C432.933 70.248 430.117 71.432 426.533 71.432C423.045 71.432 420.277 70.264 418.229 67.928C416.213 65.56 415.205 62.584 415.205 59C415.205 55.384 416.245 52.376 418.325 49.976C420.437 47.544 423.173 46.328 426.533 46.328C430.213 46.328 433.045 47.512 435.029 49.88C437.045 52.248 438.053 55.256 438.053 58.904ZM419.141 58.952C419.141 61.48 419.813 63.64 421.157 65.432C422.501 67.192 424.293 68.072 426.533 68.072C428.965 68.072 430.837 67.208 432.149 65.48C433.461 63.72 434.117 61.544 434.117 58.952C434.117 56.264 433.493 54.056 432.245 52.328C430.997 50.568 429.093 49.688 426.533 49.688C424.229 49.688 422.421 50.584 421.109 52.376C419.797 54.168 419.141 56.36 419.141 58.952ZM458.238 64.52C458.238 66.6 457.502 68.248 456.03 69.464C454.59 70.68 452.606 71.288 450.078 71.288C447.134 71.288 444.75 70.792 442.926 69.8V66.104C445.07 67.384 447.374 68.024 449.838 68.024C451.31 68.024 452.43 67.736 453.198 67.16C453.966 66.584 454.35 65.8 454.35 64.808C454.35 63.656 453.918 62.76 453.054 62.12C452.222 61.48 450.814 60.76 448.83 59.96C447.006 59.256 445.534 58.376 444.414 57.32C443.326 56.264 442.782 54.84 442.782 53.048C442.782 51.032 443.534 49.432 445.038 48.248C446.574 47.032 448.478 46.424 450.75 46.424C453.278 46.424 455.31 46.776 456.846 47.48V51.08C455.374 50.184 453.358 49.736 450.798 49.736C449.518 49.736 448.494 50.04 447.726 50.648C446.99 51.224 446.622 51.976 446.622 52.904C446.622 53.48 446.734 53.992 446.958 54.44C447.182 54.856 447.614 55.272 448.254 55.688C448.926 56.104 449.406 56.392 449.694 56.552C450.014 56.68 450.686 56.968 451.71 57.416C453.758 58.248 455.358 59.192 456.51 60.248C457.662 61.304 458.238 62.728 458.238 64.52ZM475.571 70.376C474.515 70.952 473.331 71.24 472.019 71.24C467.219 71.24 464.819 68.792 464.819 63.896V49.736H460.931V46.664H464.819V40.616H468.611V46.664H475.331V49.736H468.611V63.992C468.611 66.584 469.827 67.88 472.259 67.88C473.507 67.88 474.611 67.512 475.571 66.776V70.376ZM485.082 71H481.29V46.664H485.082V71ZM484.938 37.256C485.418 37.736 485.658 38.328 485.658 39.032C485.658 39.736 485.418 40.328 484.938 40.808C484.458 41.256 483.866 41.48 483.162 41.48C482.458 41.48 481.866 41.256 481.386 40.808C480.938 40.328 480.714 39.736 480.714 39.032C480.714 38.328 480.938 37.736 481.386 37.256C481.866 36.776 482.458 36.536 483.162 36.536C483.866 36.536 484.458 36.776 484.938 37.256ZM511.501 71H507.709V55.256C507.709 53.464 507.245 52.104 506.317 51.176C505.421 50.216 504.237 49.736 502.765 49.736C500.941 49.736 499.357 50.44 498.013 51.848C496.701 53.256 496.045 55.208 496.045 57.704V71H492.301V46.664H496.045V50.888C497.485 47.848 500.045 46.328 503.725 46.328C506.093 46.328 507.981 47.048 509.389 48.488C510.797 49.928 511.501 51.848 511.501 54.248V71ZM537.855 69.032C537.855 72.744 536.831 75.528 534.783 77.384C532.735 79.272 530.095 80.216 526.863 80.216C523.919 80.216 521.407 79.72 519.327 78.728V74.936C521.375 76.12 523.775 76.712 526.527 76.712C528.863 76.712 530.703 76.088 532.047 74.84C533.391 73.592 534.063 71.64 534.063 68.984V66.248C532.463 69 530.079 70.376 526.911 70.376C524.127 70.376 521.743 69.352 519.759 67.304C517.807 65.256 516.831 62.408 516.831 58.76C516.831 55.144 517.743 52.168 519.567 49.832C521.391 47.496 523.775 46.328 526.719 46.328C530.047 46.328 532.495 47.784 534.063 50.696V46.664H537.855V69.032ZM520.767 58.664C520.767 61.384 521.439 63.464 522.783 64.904C524.127 66.312 525.647 67.016 527.343 67.016C529.103 67.016 530.655 66.344 531.999 65C533.375 63.624 534.063 61.592 534.063 58.904C534.063 55.8 533.407 53.496 532.095 51.992C530.783 50.488 529.263 49.736 527.535 49.736C525.455 49.736 523.807 50.568 522.591 52.232C521.375 53.864 520.767 56.008 520.767 58.664Z" fill="black"/>
<path d="M151.2 100.32C150.373 100.88 149.24 101.16 147.8 101.16C145.773 101.16 144.127 100.54 142.86 99.3C141.593 98.0467 140.96 96.3467 140.96 94.2C140.96 92.1733 141.6 90.5267 142.88 89.26C144.173 87.98 145.793 87.34 147.74 87.34C149.14 87.34 150.28 87.58 151.16 88.06V89.72C150.573 89.4133 150.047 89.1933 149.58 89.06C149.113 88.9267 148.5 88.86 147.74 88.86C146.287 88.86 145.073 89.3533 144.1 90.34C143.14 91.3267 142.66 92.6133 142.66 94.2C142.66 95.8533 143.14 97.1733 144.1 98.16C145.06 99.1467 146.333 99.64 147.92 99.64C149.2 99.64 150.293 99.3 151.2 98.62V100.32ZM162.411 95.96C162.411 97.4667 161.985 98.7133 161.131 99.7C160.278 100.687 159.105 101.18 157.611 101.18C156.158 101.18 155.005 100.693 154.151 99.72C153.311 98.7333 152.891 97.4933 152.891 96C152.891 94.4933 153.325 93.24 154.191 92.24C155.071 91.2267 156.211 90.72 157.611 90.72C159.145 90.72 160.325 91.2133 161.151 92.2C161.991 93.1867 162.411 94.44 162.411 95.96ZM154.531 95.98C154.531 97.0333 154.811 97.9333 155.371 98.68C155.931 99.4133 156.678 99.78 157.611 99.78C158.625 99.78 159.405 99.42 159.951 98.7C160.498 97.9667 160.771 97.06 160.771 95.98C160.771 94.86 160.511 93.94 159.991 93.22C159.471 92.4867 158.678 92.12 157.611 92.12C156.651 92.12 155.898 92.4933 155.351 93.24C154.805 93.9867 154.531 94.9 154.531 95.98ZM172.722 101H171.142V94.44C171.142 93.6933 170.948 93.1267 170.562 92.74C170.188 92.34 169.695 92.14 169.082 92.14C168.322 92.14 167.662 92.4333 167.102 93.02C166.555 93.6067 166.282 94.42 166.282 95.46V101H164.722V90.86H166.282V92.62C166.882 91.3533 167.948 90.72 169.482 90.72C170.468 90.72 171.255 91.02 171.842 91.62C172.428 92.22 172.722 93.02 172.722 94.02V101ZM180.603 100.74C180.163 100.98 179.669 101.1 179.123 101.1C177.123 101.1 176.123 100.08 176.123 98.04V92.14H174.503V90.86H176.123V88.34H177.703V90.86H180.503V92.14H177.703V98.08C177.703 99.16 178.209 99.7 179.223 99.7C179.743 99.7 180.203 99.5467 180.603 99.24V100.74ZM184.465 101H182.885L182.905 90.86H184.465V92.64C184.999 91.3867 185.919 90.76 187.225 90.76C187.465 90.76 187.652 90.7733 187.785 90.8V92.36C187.505 92.2667 187.219 92.22 186.925 92.22C186.219 92.22 185.632 92.5467 185.165 93.2C184.699 93.8533 184.465 94.6067 184.465 95.46V101ZM198.349 95.96C198.349 97.4667 197.922 98.7133 197.069 99.7C196.215 100.687 195.042 101.18 193.549 101.18C192.095 101.18 190.942 100.693 190.089 99.72C189.249 98.7333 188.829 97.4933 188.829 96C188.829 94.4933 189.262 93.24 190.129 92.24C191.009 91.2267 192.149 90.72 193.549 90.72C195.082 90.72 196.262 91.2133 197.089 92.2C197.929 93.1867 198.349 94.44 198.349 95.96ZM190.469 95.98C190.469 97.0333 190.749 97.9333 191.309 98.68C191.869 99.4133 192.615 99.78 193.549 99.78C194.562 99.78 195.342 99.42 195.889 98.7C196.435 97.9667 196.709 97.06 196.709 95.98C196.709 94.86 196.449 93.94 195.929 93.22C195.409 92.4867 194.615 92.12 193.549 92.12C192.589 92.12 191.835 92.4933 191.289 93.24C190.742 93.9867 190.469 94.9 190.469 95.98ZM202.319 101H200.739V86.86H202.319V101ZM211.77 104.94H210.21V90.86H211.77V92.4C212.477 91.2667 213.523 90.7 214.91 90.7C216.257 90.7 217.31 91.1933 218.07 92.18C218.843 93.1533 219.23 94.3733 219.23 95.84C219.23 97.4 218.823 98.68 218.01 99.68C217.21 100.667 216.163 101.16 214.87 101.16C213.537 101.16 212.503 100.593 211.77 99.46V104.94ZM211.77 95.94C211.77 97.2333 212.07 98.1867 212.67 98.8C213.27 99.4133 213.937 99.72 214.67 99.72C215.523 99.72 216.223 99.3867 216.77 98.72C217.317 98.04 217.59 97.08 217.59 95.84C217.59 94.7333 217.323 93.84 216.79 93.16C216.257 92.48 215.583 92.14 214.77 92.14C213.957 92.14 213.25 92.44 212.65 93.04C212.063 93.6267 211.77 94.5933 211.77 95.94ZM224.658 99.78C225.378 99.78 225.951 99.58 226.378 99.18C226.804 98.7667 227.018 98.2467 227.018 97.62V96.32H225.258C224.404 96.32 223.764 96.4867 223.338 96.82C222.911 97.1533 222.698 97.5733 222.698 98.08C222.698 98.5867 222.864 99 223.198 99.32C223.531 99.6267 224.018 99.78 224.658 99.78ZM227.038 99.8C226.518 100.667 225.571 101.1 224.198 101.1C223.251 101.1 222.484 100.82 221.898 100.26C221.324 99.7 221.038 98.9933 221.038 98.14C221.038 97.1667 221.404 96.4133 222.138 95.88C222.884 95.3333 223.898 95.06 225.178 95.06H227.018V94.54C227.018 93.74 226.838 93.14 226.478 92.74C226.118 92.3267 225.511 92.12 224.658 92.12C223.578 92.12 222.618 92.4067 221.778 92.98V91.4C222.538 90.9333 223.538 90.7 224.778 90.7C227.324 90.7 228.598 91.9933 228.598 94.58V101H227.038V99.8ZM239.401 101H237.821V94.44C237.821 93.6933 237.628 93.1267 237.241 92.74C236.868 92.34 236.375 92.14 235.761 92.14C235.001 92.14 234.341 92.4333 233.781 93.02C233.235 93.6067 232.961 94.42 232.961 95.46V101H231.401V90.86H232.961V92.62C233.561 91.3533 234.628 90.72 236.161 90.72C237.148 90.72 237.935 91.02 238.521 91.62C239.108 92.22 239.401 93.02 239.401 94.02V101ZM249.602 100.48C248.816 100.893 247.856 101.1 246.722 101.1C245.189 101.1 243.949 100.633 243.002 99.7C242.069 98.7533 241.602 97.5067 241.602 95.96C241.602 94.3467 242.022 93.0733 242.862 92.14C243.702 91.2067 244.782 90.74 246.102 90.74C247.369 90.74 248.376 91.1467 249.122 91.96C249.869 92.7733 250.242 93.9267 250.242 95.42C250.242 95.8467 250.209 96.24 250.142 96.6H243.222C243.342 97.6 243.722 98.3667 244.362 98.9C245.002 99.4333 245.842 99.7 246.882 99.7C248.016 99.7 248.922 99.4667 249.602 99V100.48ZM246.102 92.12C245.342 92.12 244.696 92.3933 244.162 92.94C243.629 93.4867 243.316 94.2667 243.222 95.28H248.662V94.88C248.662 94.04 248.436 93.3733 247.982 92.88C247.529 92.3733 246.902 92.12 246.102 92.12ZM254.311 101H252.731V86.86H254.311V101ZM266.302 101H264.362L261.242 90.86H262.922L263.902 94.22C264.249 95.3933 264.536 96.42 264.762 97.3C265.002 98.1667 265.156 98.7467 265.222 99.04L265.322 99.46C265.522 98.6067 266.009 96.8533 266.782 94.2L267.742 90.86H269.422L270.402 94.2L271.902 99.48C272.089 98.6933 272.602 96.9333 273.442 94.2L274.462 90.86H276.082L272.882 101H270.942L269.982 97.68L268.582 92.62C268.382 93.4733 267.929 95.16 267.222 97.68L266.302 101ZM279.702 101H278.122V90.86H279.702V101ZM279.642 86.94C279.842 87.14 279.942 87.3867 279.942 87.68C279.942 87.9733 279.842 88.22 279.642 88.42C279.442 88.6067 279.195 88.7 278.902 88.7C278.609 88.7 278.362 88.6067 278.162 88.42C277.975 88.22 277.882 87.9733 277.882 87.68C277.882 87.3867 277.975 87.14 278.162 86.94C278.362 86.74 278.609 86.64 278.902 86.64C279.195 86.64 279.442 86.74 279.642 86.94ZM287.79 100.74C287.35 100.98 286.857 101.1 286.31 101.1C284.31 101.1 283.31 100.08 283.31 98.04V92.14H281.69V90.86H283.31V88.34H284.89V90.86H287.69V92.14H284.89V98.08C284.89 99.16 285.397 99.7 286.41 99.7C286.93 99.7 287.39 99.5467 287.79 99.24V100.74ZM298.093 101H296.513V94.44C296.513 93.7067 296.319 93.14 295.933 92.74C295.559 92.34 295.066 92.14 294.453 92.14C293.706 92.14 293.053 92.4267 292.493 93C291.933 93.5733 291.653 94.3933 291.653 95.46V101H290.093V86.86H291.653V92.62C292.253 91.3533 293.319 90.72 294.853 90.72C295.826 90.72 296.606 91.02 297.193 91.62C297.793 92.22 298.093 93.0333 298.093 94.06V101ZM314.696 95.96C314.696 97.4667 314.27 98.7133 313.416 99.7C312.563 100.687 311.39 101.18 309.896 101.18C308.443 101.18 307.29 100.693 306.436 99.72C305.596 98.7333 305.176 97.4933 305.176 96C305.176 94.4933 305.61 93.24 306.476 92.24C307.356 91.2267 308.496 90.72 309.896 90.72C311.43 90.72 312.61 91.2133 313.436 92.2C314.276 93.1867 314.696 94.44 314.696 95.96ZM306.816 95.98C306.816 97.0333 307.096 97.9333 307.656 98.68C308.216 99.4133 308.963 99.78 309.896 99.78C310.91 99.78 311.69 99.42 312.236 98.7C312.783 97.9667 313.056 97.06 313.056 95.98C313.056 94.86 312.796 93.94 312.276 93.22C311.756 92.4867 310.963 92.12 309.896 92.12C308.936 92.12 308.183 92.4933 307.636 93.24C307.09 93.9867 306.816 94.9 306.816 95.98ZM318.567 104.94H317.007V90.86H318.567V92.4C319.274 91.2667 320.32 90.7 321.707 90.7C323.054 90.7 324.107 91.1933 324.867 92.18C325.64 93.1533 326.027 94.3733 326.027 95.84C326.027 97.4 325.62 98.68 324.807 99.68C324.007 100.667 322.96 101.16 321.667 101.16C320.334 101.16 319.3 100.593 318.567 99.46V104.94ZM318.567 95.94C318.567 97.2333 318.867 98.1867 319.467 98.8C320.067 99.4133 320.734 99.72 321.467 99.72C322.32 99.72 323.02 99.3867 323.567 98.72C324.114 98.04 324.387 97.08 324.387 95.84C324.387 94.7333 324.12 93.84 323.587 93.16C323.054 92.48 322.38 92.14 321.567 92.14C320.754 92.14 320.047 92.44 319.447 93.04C318.86 93.6267 318.567 94.5933 318.567 95.94ZM335.755 100.48C334.968 100.893 334.008 101.1 332.875 101.1C331.341 101.1 330.101 100.633 329.155 99.7C328.221 98.7533 327.755 97.5067 327.755 95.96C327.755 94.3467 328.175 93.0733 329.015 92.14C329.855 91.2067 330.935 90.74 332.255 90.74C333.521 90.74 334.528 91.1467 335.275 91.96C336.021 92.7733 336.395 93.9267 336.395 95.42C336.395 95.8467 336.361 96.24 336.295 96.6H329.375C329.495 97.6 329.875 98.3667 330.515 98.9C331.155 99.4333 331.995 99.7 333.035 99.7C334.168 99.7 335.075 99.4667 335.755 99V100.48ZM332.255 92.12C331.495 92.12 330.848 92.3933 330.315 92.94C329.781 93.4867 329.468 94.2667 329.375 95.28H334.815V94.88C334.815 94.04 334.588 93.3733 334.135 92.88C333.681 92.3733 333.055 92.12 332.255 92.12ZM346.804 101H345.224V94.44C345.224 93.6933 345.03 93.1267 344.644 92.74C344.27 92.34 343.777 92.14 343.164 92.14C342.404 92.14 341.744 92.4333 341.184 93.02C340.637 93.6067 340.364 94.42 340.364 95.46V101H338.804V90.86H340.364V92.62C340.964 91.3533 342.03 90.72 343.564 90.72C344.55 90.72 345.337 91.02 345.924 91.62C346.51 92.22 346.804 93.02 346.804 94.02V101ZM349.565 103.04H347.965L355.245 86.86H356.865L349.565 103.04ZM365.111 101H357.751V87.52H359.371V99.54H365.111V101ZM368.862 101H367.282V90.86H368.862V101ZM368.802 86.94C369.002 87.14 369.102 87.3867 369.102 87.68C369.102 87.9733 369.002 88.22 368.802 88.42C368.602 88.6067 368.356 88.7 368.062 88.7C367.769 88.7 367.522 88.6067 367.322 88.42C367.136 88.22 367.042 87.9733 367.042 87.68C367.042 87.3867 367.136 87.14 367.322 86.94C367.522 86.74 367.769 86.64 368.062 86.64C368.356 86.64 368.602 86.74 368.802 86.94ZM376.95 100.74C376.51 100.98 376.017 101.1 375.47 101.1C373.47 101.1 372.47 100.08 372.47 98.04V92.14H370.85V90.86H372.47V88.34H374.05V90.86H376.85V92.14H374.05V98.08C374.05 99.16 374.557 99.7 375.57 99.7C376.09 99.7 376.55 99.5467 376.95 99.24V100.74ZM386.653 100.48C385.866 100.893 384.906 101.1 383.773 101.1C382.24 101.1 381 100.633 380.053 99.7C379.12 98.7533 378.653 97.5067 378.653 95.96C378.653 94.3467 379.073 93.0733 379.913 92.14C380.753 91.2067 381.833 90.74 383.153 90.74C384.42 90.74 385.426 91.1467 386.173 91.96C386.92 92.7733 387.293 93.9267 387.293 95.42C387.293 95.8467 387.26 96.24 387.193 96.6H380.273C380.393 97.6 380.773 98.3667 381.413 98.9C382.053 99.4333 382.893 99.7 383.933 99.7C385.066 99.7 385.973 99.4667 386.653 99V100.48ZM383.153 92.12C382.393 92.12 381.746 92.3933 381.213 92.94C380.68 93.4867 380.366 94.2667 380.273 95.28H385.713V94.88C385.713 94.04 385.486 93.3733 385.033 92.88C384.58 92.3733 383.953 92.12 383.153 92.12ZM397.582 97.42C397.582 98.6067 397.176 99.5267 396.362 100.18C395.549 100.82 394.502 101.14 393.222 101.14C391.809 101.14 390.609 100.853 389.622 100.28V98.54C390.596 99.2733 391.782 99.64 393.182 99.64C394.022 99.64 394.682 99.4533 395.162 99.08C395.642 98.7067 395.882 98.1667 395.882 97.46C395.882 97.1667 395.822 96.9067 395.702 96.68C395.596 96.44 395.409 96.2267 395.142 96.04C394.889 95.84 394.642 95.68 394.402 95.56C394.176 95.4267 393.862 95.2667 393.462 95.08C393.382 95.04 393.262 94.9867 393.102 94.92C392.529 94.6667 392.089 94.46 391.782 94.3C391.489 94.14 391.136 93.9067 390.722 93.6C390.322 93.28 390.029 92.9133 389.842 92.5C389.656 92.0867 389.562 91.6067 389.562 91.06C389.562 89.9133 389.969 89.02 390.782 88.38C391.609 87.7267 392.642 87.4 393.882 87.4C395.042 87.4 396.029 87.6067 396.842 88.02V89.72C396.029 89.1867 395.056 88.92 393.922 88.92C393.109 88.92 392.462 89.1133 391.982 89.5C391.502 89.8733 391.262 90.3667 391.262 90.98C391.262 91.3 391.322 91.5867 391.442 91.84C391.576 92.0933 391.802 92.3333 392.122 92.56C392.442 92.7733 392.716 92.94 392.942 93.06C393.169 93.1667 393.522 93.3267 394.002 93.54C394.456 93.74 394.802 93.9 395.042 94.02C395.282 94.1267 395.589 94.3067 395.962 94.56C396.349 94.8 396.636 95.04 396.822 95.28C397.022 95.5067 397.196 95.8133 397.342 96.2C397.502 96.5733 397.582 96.98 397.582 97.42ZM401.75 104.94H400.19V90.86H401.75V92.4C402.457 91.2667 403.504 90.7 404.89 90.7C406.237 90.7 407.29 91.1933 408.05 92.18C408.824 93.1533 409.21 94.3733 409.21 95.84C409.21 97.4 408.804 98.68 407.99 99.68C407.19 100.667 406.144 101.16 404.85 101.16C403.517 101.16 402.484 100.593 401.75 99.46V104.94ZM401.75 95.94C401.75 97.2333 402.05 98.1867 402.65 98.8C403.25 99.4133 403.917 99.72 404.65 99.72C405.504 99.72 406.204 99.3867 406.75 98.72C407.297 98.04 407.57 97.08 407.57 95.84C407.57 94.7333 407.304 93.84 406.77 93.16C406.237 92.48 405.564 92.14 404.75 92.14C403.937 92.14 403.23 92.44 402.63 93.04C402.044 93.6267 401.75 94.5933 401.75 95.94ZM418.938 100.48C418.151 100.893 417.191 101.1 416.058 101.1C414.525 101.1 413.285 100.633 412.338 99.7C411.405 98.7533 410.938 97.5067 410.938 95.96C410.938 94.3467 411.358 93.0733 412.198 92.14C413.038 91.2067 414.118 90.74 415.438 90.74C416.705 90.74 417.711 91.1467 418.458 91.96C419.205 92.7733 419.578 93.9267 419.578 95.42C419.578 95.8467 419.545 96.24 419.478 96.6H412.558C412.678 97.6 413.058 98.3667 413.698 98.9C414.338 99.4333 415.178 99.7 416.218 99.7C417.351 99.7 418.258 99.4667 418.938 99V100.48ZM415.438 92.12C414.678 92.12 414.031 92.3933 413.498 92.94C412.965 93.4867 412.651 94.2667 412.558 95.28H417.998V94.88C417.998 94.04 417.771 93.3733 417.318 92.88C416.865 92.3733 416.238 92.12 415.438 92.12ZM429.387 100.48C428.601 100.893 427.641 101.1 426.507 101.1C424.974 101.1 423.734 100.633 422.787 99.7C421.854 98.7533 421.387 97.5067 421.387 95.96C421.387 94.3467 421.807 93.0733 422.647 92.14C423.487 91.2067 424.567 90.74 425.887 90.74C427.154 90.74 428.161 91.1467 428.907 91.96C429.654 92.7733 430.027 93.9267 430.027 95.42C430.027 95.8467 429.994 96.24 429.927 96.6H423.007C423.127 97.6 423.507 98.3667 424.147 98.9C424.787 99.4333 425.627 99.7 426.667 99.7C427.801 99.7 428.707 99.4667 429.387 99V100.48ZM425.887 92.12C425.127 92.12 424.481 92.3933 423.947 92.94C423.414 93.4867 423.101 94.2667 423.007 95.28H428.447V94.88C428.447 94.04 428.221 93.3733 427.767 92.88C427.314 92.3733 426.687 92.12 425.887 92.12ZM433.477 96.04C433.477 97.1333 433.743 98.02 434.277 98.7C434.81 99.38 435.483 99.72 436.297 99.72C437.123 99.72 437.823 99.4133 438.397 98.8C438.983 98.1867 439.277 97.2067 439.277 95.86C439.277 94.58 438.977 93.64 438.377 93.04C437.777 92.44 437.117 92.14 436.397 92.14C435.557 92.14 434.857 92.48 434.297 93.16C433.75 93.8267 433.477 94.7867 433.477 96.04ZM440.857 101H439.277V99.5C438.557 100.607 437.517 101.16 436.157 101.16C434.81 101.16 433.75 100.66 432.977 99.66C432.217 98.66 431.837 97.4467 431.837 96.02C431.837 94.4333 432.243 93.1533 433.057 92.18C433.87 91.1933 434.917 90.7 436.197 90.7C437.517 90.7 438.543 91.2667 439.277 92.4V86.86H440.857V101ZM146.3 129H144.24L140.72 115.52H142.42L143.68 120.52L145.34 127.3C146.087 124.567 146.72 122.307 147.24 120.52L148.64 115.72H150.26L151.74 120.52L153.78 127.36C154.393 124.413 154.887 122.14 155.26 120.54L156.4 115.52H158.04L154.88 129H152.8L151.5 124.74L149.48 118C149.067 119.573 148.427 121.82 147.56 124.74L146.3 129ZM167.63 128.48C166.843 128.893 165.883 129.1 164.75 129.1C163.216 129.1 161.976 128.633 161.03 127.7C160.096 126.753 159.63 125.507 159.63 123.96C159.63 122.347 160.05 121.073 160.89 120.14C161.73 119.207 162.81 118.74 164.13 118.74C165.396 118.74 166.403 119.147 167.15 119.96C167.896 120.773 168.27 121.927 168.27 123.42C168.27 123.847 168.236 124.24 168.17 124.6H161.25C161.37 125.6 161.75 126.367 162.39 126.9C163.03 127.433 163.87 127.7 164.91 127.7C166.043 127.7 166.95 127.467 167.63 127V128.48ZM164.13 120.12C163.37 120.12 162.723 120.393 162.19 120.94C161.656 121.487 161.343 122.267 161.25 123.28H166.69V122.88C166.69 122.04 166.463 121.373 166.01 120.88C165.556 120.373 164.93 120.12 164.13 120.12ZM172.319 129H170.739V114.86H172.319V120.38C173.052 119.26 174.079 118.7 175.399 118.7C176.679 118.7 177.725 119.193 178.539 120.18C179.352 121.153 179.759 122.433 179.759 124.02C179.759 125.447 179.372 126.66 178.599 127.66C177.839 128.66 176.785 129.16 175.439 129.16C174.079 129.16 173.039 128.607 172.319 127.5V129ZM172.319 123.86C172.319 125.207 172.605 126.187 173.179 126.8C173.765 127.413 174.472 127.72 175.299 127.72C176.112 127.72 176.785 127.38 177.319 126.7C177.852 126.02 178.119 125.133 178.119 124.04C178.119 122.787 177.839 121.827 177.279 121.16C176.732 120.48 176.039 120.14 175.199 120.14C174.479 120.14 173.819 120.44 173.219 121.04C172.619 121.64 172.319 122.58 172.319 123.86ZM188.185 126.3C188.185 127.167 187.878 127.853 187.265 128.36C186.665 128.867 185.838 129.12 184.785 129.12C183.558 129.12 182.565 128.913 181.805 128.5V126.96C182.698 127.493 183.658 127.76 184.685 127.76C185.298 127.76 185.765 127.64 186.085 127.4C186.405 127.16 186.565 126.833 186.565 126.42C186.565 125.94 186.385 125.567 186.025 125.3C185.678 125.033 185.092 124.733 184.265 124.4C183.505 124.107 182.892 123.74 182.425 123.3C181.972 122.86 181.745 122.267 181.745 121.52C181.745 120.68 182.058 120.013 182.685 119.52C183.325 119.013 184.118 118.76 185.065 118.76C186.118 118.76 186.965 118.907 187.605 119.2V120.7C186.992 120.327 186.152 120.14 185.085 120.14C184.552 120.14 184.125 120.267 183.805 120.52C183.498 120.76 183.345 121.073 183.345 121.46C183.345 121.7 183.392 121.913 183.485 122.1C183.578 122.273 183.758 122.447 184.025 122.62C184.305 122.793 184.505 122.913 184.625 122.98C184.758 123.033 185.038 123.153 185.465 123.34C186.318 123.687 186.985 124.08 187.465 124.52C187.945 124.96 188.185 125.553 188.185 126.3ZM197.727 128.48C196.941 128.893 195.981 129.1 194.847 129.1C193.314 129.1 192.074 128.633 191.127 127.7C190.194 126.753 189.727 125.507 189.727 123.96C189.727 122.347 190.147 121.073 190.987 120.14C191.827 119.207 192.907 118.74 194.227 118.74C195.494 118.74 196.501 119.147 197.247 119.96C197.994 120.773 198.367 121.927 198.367 123.42C198.367 123.847 198.334 124.24 198.267 124.6H191.347C191.467 125.6 191.847 126.367 192.487 126.9C193.127 127.433 193.967 127.7 195.007 127.7C196.141 127.7 197.047 127.467 197.727 127V128.48ZM194.227 120.12C193.467 120.12 192.821 120.393 192.287 120.94C191.754 121.487 191.441 122.267 191.347 123.28H196.787V122.88C196.787 122.04 196.561 121.373 196.107 120.88C195.654 120.373 195.027 120.12 194.227 120.12ZM202.336 129H200.756L200.776 118.86H202.336V120.64C202.87 119.387 203.79 118.76 205.096 118.76C205.336 118.76 205.523 118.773 205.656 118.8V120.36C205.376 120.267 205.09 120.22 204.796 120.22C204.09 120.22 203.503 120.547 203.036 121.2C202.57 121.853 202.336 122.607 202.336 123.46V129ZM211.82 129H209.88L206.34 118.86H207.98L209.38 123.14L210.86 127.76C210.98 127.187 211.48 125.647 212.36 123.14L213.8 118.86H215.44L211.82 129ZM224.798 128.48C224.011 128.893 223.051 129.1 221.918 129.1C220.384 129.1 219.144 128.633 218.198 127.7C217.264 126.753 216.798 125.507 216.798 123.96C216.798 122.347 217.218 121.073 218.058 120.14C218.898 119.207 219.978 118.74 221.298 118.74C222.564 118.74 223.571 119.147 224.318 119.96C225.064 120.773 225.438 121.927 225.438 123.42C225.438 123.847 225.404 124.24 225.338 124.6H218.418C218.538 125.6 218.918 126.367 219.558 126.9C220.198 127.433 221.038 127.7 222.078 127.7C223.211 127.7 224.118 127.467 224.798 127V128.48ZM221.298 120.12C220.538 120.12 219.891 120.393 219.358 120.94C218.824 121.487 218.511 122.267 218.418 123.28H223.858V122.88C223.858 122.04 223.631 121.373 223.178 120.88C222.724 120.373 222.098 120.12 221.298 120.12ZM229.407 129H227.827L227.847 118.86H229.407V120.64C229.94 119.387 230.86 118.76 232.167 118.76C232.407 118.76 232.593 118.773 232.727 118.8V120.36C232.447 120.267 232.16 120.22 231.867 120.22C231.16 120.22 230.573 120.547 230.107 121.2C229.64 121.853 229.407 122.607 229.407 123.46V129Z" fill="black"/>
<path d="M100.917 43H30.0833C26.1727 43 23 46.0234 23 49.75V94.75C23 98.4766 26.1727 101.5 30.0833 101.5H58.4167L56.0556 108.25H45.4306C43.4679 108.25 41.8889 109.755 41.8889 111.625C41.8889 113.495 43.4679 115 45.4306 115H85.5694C87.5321 115 89.1111 113.495 89.1111 111.625C89.1111 109.755 87.5321 108.25 85.5694 108.25H74.9444L72.5833 101.5H100.917C104.827 101.5 108 98.4766 108 94.75V49.75C108 46.0234 104.827 43 100.917 43ZM98.5556 92.5H32.4444V52H98.5556V92.5Z" fill="#FFA800"/>
</svg>
