<svg width="476" height="158" viewBox="0 0 476 158" fill="none" xmlns="http://www.w3.org/2000/svg">
<rect width="476" height="158" fill="white"/>
<path d="M148.488 72H138.696V39.648H148.296C153.064 39.648 156.968 41.136 160.008 44.112C163.08 47.056 164.616 50.88 164.616 55.584C164.616 60.256 163.192 64.16 160.344 67.296C157.528 70.432 153.576 72 148.488 72ZM148.248 43.104H142.632V68.592H148.44C152.44 68.592 155.464 67.36 157.512 64.896C159.56 62.4 160.584 59.296 160.584 55.584C160.584 52.064 159.432 49.104 157.128 46.704C154.856 44.304 151.896 43.104 148.248 43.104ZM191.646 59.904C191.646 63.52 190.622 66.512 188.574 68.88C186.526 71.248 183.71 72.432 180.126 72.432C176.638 72.432 173.87 71.264 171.822 68.928C169.806 66.56 168.798 63.584 168.798 60C168.798 56.384 169.838 53.376 171.918 50.976C174.03 48.544 176.766 47.328 180.126 47.328C183.806 47.328 186.638 48.512 188.622 50.88C190.638 53.248 191.646 56.256 191.646 59.904ZM172.734 59.952C172.734 62.48 173.406 64.64 174.75 66.432C176.094 68.192 177.886 69.072 180.126 69.072C182.558 69.072 184.43 68.208 185.742 66.48C187.054 64.72 187.71 62.544 187.71 59.952C187.71 57.264 187.086 55.056 185.838 53.328C184.59 51.568 182.686 50.688 180.126 50.688C177.822 50.688 176.014 51.584 174.702 53.376C173.39 55.168 172.734 57.36 172.734 59.952ZM229.736 72H225.944V56.256C225.944 52.576 224.392 50.736 221.288 50.736C219.752 50.736 218.376 51.44 217.16 52.848C215.944 54.224 215.336 56.176 215.336 58.704V72H211.544V56.256C211.544 52.576 209.992 50.736 206.888 50.736C205.352 50.736 203.976 51.44 202.76 52.848C201.544 54.224 200.936 56.176 200.936 58.704V72H197.192V47.664H200.936V51.6C202.28 48.752 204.568 47.328 207.799 47.328C211.544 47.328 213.912 48.912 214.904 52.08C215.608 50.544 216.584 49.376 217.832 48.576C219.112 47.744 220.536 47.328 222.104 47.328C224.632 47.328 226.536 48.048 227.816 49.488C229.096 50.928 229.736 52.864 229.736 55.296V72ZM243.913 69.072C245.641 69.072 247.017 68.592 248.041 67.632C249.065 66.64 249.577 65.392 249.577 63.888V60.768H245.353C243.305 60.768 241.769 61.168 240.745 61.968C239.721 62.768 239.209 63.776 239.209 64.992C239.209 66.208 239.609 67.2 240.409 67.968C241.209 68.704 242.377 69.072 243.913 69.072ZM249.625 69.12C248.377 71.2 246.105 72.24 242.809 72.24C240.537 72.24 238.697 71.568 237.289 70.224C235.913 68.88 235.225 67.184 235.225 65.136C235.225 62.8 236.105 60.992 237.865 59.712C239.657 58.4 242.089 57.744 245.161 57.744H249.577V56.496C249.577 54.576 249.145 53.136 248.281 52.176C247.417 51.184 245.961 50.688 243.913 50.688C241.321 50.688 239.017 51.376 237.001 52.752V48.96C238.825 47.84 241.225 47.28 244.201 47.28C250.313 47.28 253.369 50.384 253.369 56.592V72H249.625V69.12ZM264.082 72H260.29V47.664H264.082V72ZM263.938 38.256C264.418 38.736 264.658 39.328 264.658 40.032C264.658 40.736 264.418 41.328 263.938 41.808C263.458 42.256 262.866 42.48 262.162 42.48C261.458 42.48 260.866 42.256 260.386 41.808C259.938 41.328 259.714 40.736 259.714 40.032C259.714 39.328 259.938 38.736 260.386 38.256C260.866 37.776 261.458 37.536 262.162 37.536C262.866 37.536 263.458 37.776 263.938 38.256ZM290.501 72H286.709V56.256C286.709 54.464 286.245 53.104 285.317 52.176C284.421 51.216 283.237 50.736 281.765 50.736C279.941 50.736 278.357 51.44 277.013 52.848C275.701 54.256 275.045 56.208 275.045 58.704V72H271.301V47.664H275.045V51.888C276.485 48.848 279.045 47.328 282.725 47.328C285.093 47.328 286.981 48.048 288.389 49.488C289.797 50.928 290.501 52.848 290.501 55.248V72ZM327.662 43.056H318.926V72H315.038V43.056H306.302V39.648H327.662V43.056ZM335.842 72H332.05L332.098 47.664H335.842V51.936C337.122 48.928 339.33 47.424 342.466 47.424C343.042 47.424 343.49 47.456 343.81 47.52V51.264C343.138 51.04 342.45 50.928 341.746 50.928C340.05 50.928 338.642 51.712 337.522 53.28C336.402 54.848 335.842 56.656 335.842 58.704V72ZM355.194 69.072C356.922 69.072 358.298 68.592 359.322 67.632C360.346 66.64 360.858 65.392 360.858 63.888V60.768H356.634C354.586 60.768 353.05 61.168 352.026 61.968C351.002 62.768 350.49 63.776 350.49 64.992C350.49 66.208 350.89 67.2 351.69 67.968C352.49 68.704 353.658 69.072 355.194 69.072ZM360.906 69.12C359.658 71.2 357.386 72.24 354.09 72.24C351.818 72.24 349.978 71.568 348.57 70.224C347.194 68.88 346.506 67.184 346.506 65.136C346.506 62.8 347.386 60.992 349.146 59.712C350.938 58.4 353.37 57.744 356.442 57.744H360.858V56.496C360.858 54.576 360.426 53.136 359.562 52.176C358.698 51.184 357.242 50.688 355.194 50.688C352.602 50.688 350.298 51.376 348.282 52.752V48.96C350.106 47.84 352.506 47.28 355.482 47.28C361.594 47.28 364.65 50.384 364.65 56.592V72H360.906V69.12ZM390.579 72H386.787V56.256C386.787 54.464 386.323 53.104 385.395 52.176C384.499 51.216 383.315 50.736 381.843 50.736C380.019 50.736 378.435 51.44 377.091 52.848C375.779 54.256 375.123 56.208 375.123 58.704V72H371.379V47.664H375.123V51.888C376.563 48.848 379.123 47.328 382.803 47.328C385.171 47.328 387.059 48.048 388.467 49.488C389.875 50.928 390.579 52.848 390.579 55.248V72ZM411.941 65.52C411.941 67.6 411.205 69.248 409.733 70.464C408.293 71.68 406.309 72.288 403.781 72.288C400.837 72.288 398.453 71.792 396.629 70.8V67.104C398.773 68.384 401.077 69.024 403.541 69.024C405.013 69.024 406.133 68.736 406.901 68.16C407.669 67.584 408.053 66.8 408.053 65.808C408.053 64.656 407.621 63.76 406.757 63.12C405.925 62.48 404.517 61.76 402.533 60.96C400.709 60.256 399.237 59.376 398.117 58.32C397.029 57.264 396.485 55.84 396.485 54.048C396.485 52.032 397.237 50.432 398.741 49.248C400.277 48.032 402.181 47.424 404.453 47.424C406.981 47.424 409.013 47.776 410.549 48.48V52.08C409.077 51.184 407.061 50.736 404.501 50.736C403.221 50.736 402.197 51.04 401.429 51.648C400.693 52.224 400.325 52.976 400.325 53.904C400.325 54.48 400.437 54.992 400.661 55.44C400.885 55.856 401.317 56.272 401.957 56.688C402.629 57.104 403.109 57.392 403.397 57.552C403.717 57.68 404.389 57.968 405.413 58.416C407.461 59.248 409.061 60.192 410.213 61.248C411.365 62.304 411.941 63.728 411.941 65.52ZM428.362 50.736H422.986V72H419.194V50.736H415.018V47.664H419.194V45.408C419.194 43.04 419.818 41.168 421.066 39.792C422.346 38.416 424.106 37.728 426.346 37.728C427.114 37.728 427.898 37.84 428.698 38.064V41.52C427.93 41.264 427.194 41.136 426.49 41.136C425.466 41.136 424.618 41.488 423.946 42.192C423.306 42.896 422.986 43.984 422.986 45.456V47.664H428.362V50.736ZM450.639 70.752C448.751 71.744 446.447 72.24 443.727 72.24C440.047 72.24 437.071 71.12 434.799 68.88C432.559 66.608 431.439 63.616 431.439 59.904C431.439 56.032 432.447 52.976 434.463 50.736C436.479 48.496 439.071 47.376 442.239 47.376C445.279 47.376 447.695 48.352 449.487 50.304C451.279 52.256 452.175 55.024 452.175 58.608C452.175 59.632 452.095 60.576 451.935 61.44H435.327C435.615 63.84 436.527 65.68 438.063 66.96C439.599 68.24 441.615 68.88 444.111 68.88C446.831 68.88 449.007 68.32 450.639 67.2V70.752ZM442.239 50.688C440.415 50.688 438.863 51.344 437.583 52.656C436.303 53.968 435.551 55.84 435.327 58.272H448.383V57.312C448.383 55.296 447.839 53.696 446.751 52.512C445.663 51.296 444.159 50.688 442.239 50.688ZM461.701 72H457.909L457.957 47.664H461.701V51.936C462.981 48.928 465.189 47.424 468.325 47.424C468.901 47.424 469.349 47.456 469.669 47.52V51.264C468.997 51.04 468.309 50.928 467.605 50.928C465.909 50.928 464.501 51.712 463.381 53.28C462.261 54.848 461.701 56.656 461.701 58.704V72Z" fill="black"/>
<path d="M141.3 107H139.24L135.72 93.52H137.42L138.68 98.52L140.34 105.3C141.087 102.567 141.72 100.307 142.24 98.52L143.64 93.72H145.26L146.74 98.52L148.78 105.36C149.393 102.413 149.887 100.14 150.26 98.54L151.4 93.52H153.04L149.88 107H147.8L146.5 102.74L144.48 96C144.067 97.5733 143.427 99.82 142.56 102.74L141.3 107ZM158.33 105.78C159.05 105.78 159.623 105.58 160.05 105.18C160.476 104.767 160.69 104.247 160.69 103.62V102.32H158.93C158.076 102.32 157.436 102.487 157.01 102.82C156.583 103.153 156.37 103.573 156.37 104.08C156.37 104.587 156.536 105 156.87 105.32C157.203 105.627 157.69 105.78 158.33 105.78ZM160.71 105.8C160.19 106.667 159.243 107.1 157.87 107.1C156.923 107.1 156.156 106.82 155.57 106.26C154.996 105.7 154.71 104.993 154.71 104.14C154.71 103.167 155.076 102.413 155.81 101.88C156.556 101.333 157.57 101.06 158.85 101.06H160.69V100.54C160.69 99.74 160.51 99.14 160.15 98.74C159.79 98.3267 159.183 98.12 158.33 98.12C157.25 98.12 156.29 98.4067 155.45 98.98V97.4C156.21 96.9333 157.21 96.7 158.45 96.7C160.996 96.7 162.27 97.9933 162.27 100.58V107H160.71V105.8ZM173.073 107H171.493V100.44C171.493 99.6933 171.3 99.1267 170.913 98.74C170.54 98.34 170.047 98.14 169.433 98.14C168.673 98.14 168.013 98.4333 167.453 99.02C166.907 99.6067 166.633 100.42 166.633 101.46V107H165.073V96.86H166.633V98.62C167.233 97.3533 168.3 96.72 169.833 96.72C170.82 96.72 171.607 97.02 172.193 97.62C172.78 98.22 173.073 99.02 173.073 100.02V107ZM180.954 106.74C180.514 106.98 180.021 107.1 179.474 107.1C177.474 107.1 176.474 106.08 176.474 104.04V98.14H174.854V96.86H176.474V94.34H178.054V96.86H180.854V98.14H178.054V104.08C178.054 105.16 178.561 105.7 179.574 105.7C180.094 105.7 180.554 105.547 180.954 105.24V106.74ZM193.22 106.74C192.78 106.98 192.286 107.1 191.74 107.1C189.74 107.1 188.74 106.08 188.74 104.04V98.14H187.12V96.86H188.74V94.34H190.32V96.86H193.12V98.14H190.32V104.08C190.32 105.16 190.826 105.7 191.84 105.7C192.36 105.7 192.82 105.547 193.22 105.24V106.74ZM204.443 101.96C204.443 103.467 204.016 104.713 203.163 105.7C202.309 106.687 201.136 107.18 199.643 107.18C198.189 107.18 197.036 106.693 196.183 105.72C195.343 104.733 194.923 103.493 194.923 102C194.923 100.493 195.356 99.24 196.223 98.24C197.103 97.2267 198.243 96.72 199.643 96.72C201.176 96.72 202.356 97.2133 203.183 98.2C204.023 99.1867 204.443 100.44 204.443 101.96ZM196.562 101.98C196.562 103.033 196.843 103.933 197.403 104.68C197.963 105.413 198.709 105.78 199.643 105.78C200.656 105.78 201.436 105.42 201.983 104.7C202.529 103.967 202.803 103.06 202.803 101.98C202.803 100.86 202.543 99.94 202.023 99.22C201.503 98.4867 200.709 98.12 199.643 98.12C198.683 98.12 197.929 98.4933 197.383 99.24C196.836 99.9867 196.562 100.9 196.562 101.98ZM216.716 106.74C216.276 106.98 215.782 107.1 215.236 107.1C213.236 107.1 212.236 106.08 212.236 104.04V98.14H210.616V96.86H212.236V94.34H213.816V96.86H216.616V98.14H213.816V104.08C213.816 105.16 214.322 105.7 215.336 105.7C215.856 105.7 216.316 105.547 216.716 105.24V106.74ZM220.579 107H218.999L219.019 96.86H220.579V98.64C221.112 97.3867 222.032 96.76 223.339 96.76C223.579 96.76 223.765 96.7733 223.899 96.8V98.36C223.619 98.2667 223.332 98.22 223.039 98.22C222.332 98.22 221.745 98.5467 221.279 99.2C220.812 99.8533 220.579 100.607 220.579 101.46V107ZM228.642 105.78C229.362 105.78 229.935 105.58 230.362 105.18C230.789 104.767 231.002 104.247 231.002 103.62V102.32H229.242C228.389 102.32 227.749 102.487 227.322 102.82C226.895 103.153 226.682 103.573 226.682 104.08C226.682 104.587 226.849 105 227.182 105.32C227.515 105.627 228.002 105.78 228.642 105.78ZM231.022 105.8C230.502 106.667 229.555 107.1 228.182 107.1C227.235 107.1 226.469 106.82 225.882 106.26C225.309 105.7 225.022 104.993 225.022 104.14C225.022 103.167 225.389 102.413 226.122 101.88C226.869 101.333 227.882 101.06 229.162 101.06H231.002V100.54C231.002 99.74 230.822 99.14 230.462 98.74C230.102 98.3267 229.495 98.12 228.642 98.12C227.562 98.12 226.602 98.4067 225.762 98.98V97.4C226.522 96.9333 227.522 96.7 228.762 96.7C231.309 96.7 232.582 97.9933 232.582 100.58V107H231.022V105.8ZM243.386 107H241.806V100.44C241.806 99.6933 241.612 99.1267 241.226 98.74C240.852 98.34 240.359 98.14 239.746 98.14C238.986 98.14 238.326 98.4333 237.766 99.02C237.219 99.6067 236.946 100.42 236.946 101.46V107H235.386V96.86H236.946V98.62C237.546 97.3533 238.612 96.72 240.146 96.72C241.132 96.72 241.919 97.02 242.506 97.62C243.092 98.22 243.386 99.02 243.386 100.02V107ZM252.287 104.3C252.287 105.167 251.98 105.853 251.367 106.36C250.767 106.867 249.94 107.12 248.887 107.12C247.66 107.12 246.667 106.913 245.907 106.5V104.96C246.8 105.493 247.76 105.76 248.787 105.76C249.4 105.76 249.867 105.64 250.187 105.4C250.507 105.16 250.667 104.833 250.667 104.42C250.667 103.94 250.487 103.567 250.127 103.3C249.78 103.033 249.193 102.733 248.367 102.4C247.607 102.107 246.993 101.74 246.527 101.3C246.073 100.86 245.847 100.267 245.847 99.52C245.847 98.68 246.16 98.0133 246.787 97.52C247.427 97.0133 248.22 96.76 249.167 96.76C250.22 96.76 251.067 96.9067 251.707 97.2V98.7C251.093 98.3267 250.253 98.14 249.187 98.14C248.653 98.14 248.227 98.2667 247.907 98.52C247.6 98.76 247.447 99.0733 247.447 99.46C247.447 99.7 247.493 99.9133 247.587 100.1C247.68 100.273 247.86 100.447 248.127 100.62C248.407 100.793 248.607 100.913 248.727 100.98C248.86 101.033 249.14 101.153 249.567 101.34C250.42 101.687 251.087 102.08 251.567 102.52C252.047 102.96 252.287 103.553 252.287 104.3ZM259.129 98.14H256.889V107H255.309V98.14H253.569V96.86H255.309V95.92C255.309 94.9333 255.569 94.1533 256.089 93.58C256.622 93.0067 257.355 92.72 258.289 92.72C258.609 92.72 258.935 92.7667 259.269 92.86V94.3C258.949 94.1933 258.642 94.14 258.349 94.14C257.922 94.14 257.569 94.2867 257.289 94.58C257.022 94.8733 256.889 95.3267 256.889 95.94V96.86H259.129V98.14ZM268.411 106.48C267.624 106.893 266.664 107.1 265.531 107.1C263.997 107.1 262.757 106.633 261.811 105.7C260.877 104.753 260.411 103.507 260.411 101.96C260.411 100.347 260.831 99.0733 261.671 98.14C262.511 97.2067 263.591 96.74 264.911 96.74C266.177 96.74 267.184 97.1467 267.931 97.96C268.677 98.7733 269.051 99.9267 269.051 101.42C269.051 101.847 269.017 102.24 268.951 102.6H262.031C262.151 103.6 262.531 104.367 263.171 104.9C263.811 105.433 264.651 105.7 265.691 105.7C266.824 105.7 267.731 105.467 268.411 105V106.48ZM264.911 98.12C264.151 98.12 263.504 98.3933 262.971 98.94C262.437 99.4867 262.124 100.267 262.031 101.28H267.471V100.88C267.471 100.04 267.244 99.3733 266.791 98.88C266.337 98.3733 265.711 98.12 264.911 98.12ZM273.02 107H271.44L271.46 96.86H273.02V98.64C273.553 97.3867 274.473 96.76 275.78 96.76C276.02 96.76 276.207 96.7733 276.34 96.8V98.36C276.06 98.2667 275.773 98.22 275.48 98.22C274.773 98.22 274.187 98.5467 273.72 99.2C273.253 99.8533 273.02 100.607 273.02 101.46V107ZM283.906 102.04C283.906 103.133 284.173 104.02 284.706 104.7C285.24 105.38 285.913 105.72 286.726 105.72C287.553 105.72 288.253 105.413 288.826 104.8C289.413 104.187 289.706 103.207 289.706 101.86C289.706 100.58 289.406 99.64 288.806 99.04C288.206 98.44 287.546 98.14 286.826 98.14C285.986 98.14 285.286 98.48 284.726 99.16C284.18 99.8267 283.906 100.787 283.906 102.04ZM291.286 107H289.706V105.5C288.986 106.607 287.946 107.16 286.586 107.16C285.24 107.16 284.18 106.66 283.406 105.66C282.646 104.66 282.266 103.447 282.266 102.02C282.266 100.433 282.673 99.1533 283.486 98.18C284.3 97.1933 285.346 96.7 286.626 96.7C287.946 96.7 288.973 97.2667 289.706 98.4V92.86H291.286V107ZM303.134 101.96C303.134 103.467 302.707 104.713 301.854 105.7C301.001 106.687 299.827 107.18 298.334 107.18C296.881 107.18 295.727 106.693 294.874 105.72C294.034 104.733 293.614 103.493 293.614 102C293.614 100.493 294.047 99.24 294.914 98.24C295.794 97.2267 296.934 96.72 298.334 96.72C299.867 96.72 301.047 97.2133 301.874 98.2C302.714 99.1867 303.134 100.44 303.134 101.96ZM295.254 101.98C295.254 103.033 295.534 103.933 296.094 104.68C296.654 105.413 297.401 105.78 298.334 105.78C299.347 105.78 300.127 105.42 300.674 104.7C301.221 103.967 301.494 103.06 301.494 101.98C301.494 100.86 301.234 99.94 300.714 99.22C300.194 98.4867 299.401 98.12 298.334 98.12C297.374 98.12 296.621 98.4933 296.074 99.24C295.527 99.9867 295.254 100.9 295.254 101.98ZM319.004 107H317.424V100.44C317.424 98.9067 316.778 98.14 315.484 98.14C314.844 98.14 314.271 98.4333 313.764 99.02C313.258 99.5933 313.004 100.407 313.004 101.46V107H311.424V100.44C311.424 98.9067 310.778 98.14 309.484 98.14C308.844 98.14 308.271 98.4333 307.764 99.02C307.258 99.5933 307.004 100.407 307.004 101.46V107H305.444V96.86H307.004V98.5C307.564 97.3133 308.518 96.72 309.864 96.72C311.424 96.72 312.411 97.38 312.824 98.7C313.118 98.06 313.524 97.5733 314.044 97.24C314.578 96.8933 315.171 96.72 315.824 96.72C316.878 96.72 317.671 97.02 318.204 97.62C318.738 98.22 319.004 99.0267 319.004 100.04V107ZM324.912 105.78C325.632 105.78 326.205 105.58 326.632 105.18C327.058 104.767 327.272 104.247 327.272 103.62V102.32H325.512C324.658 102.32 324.018 102.487 323.592 102.82C323.165 103.153 322.952 103.573 322.952 104.08C322.952 104.587 323.118 105 323.452 105.32C323.785 105.627 324.272 105.78 324.912 105.78ZM327.292 105.8C326.772 106.667 325.825 107.1 324.452 107.1C323.505 107.1 322.738 106.82 322.152 106.26C321.578 105.7 321.292 104.993 321.292 104.14C321.292 103.167 321.658 102.413 322.392 101.88C323.138 101.333 324.152 101.06 325.432 101.06H327.272V100.54C327.272 99.74 327.092 99.14 326.732 98.74C326.372 98.3267 325.765 98.12 324.912 98.12C323.832 98.12 322.872 98.4067 322.032 98.98V97.4C322.792 96.9333 323.792 96.7 325.032 96.7C327.578 96.7 328.852 97.9933 328.852 100.58V107H327.292V105.8ZM333.315 107H331.735V96.86H333.315V107ZM333.255 92.94C333.455 93.14 333.555 93.3867 333.555 93.68C333.555 93.9733 333.455 94.22 333.255 94.42C333.055 94.6067 332.809 94.7 332.515 94.7C332.222 94.7 331.975 94.6067 331.775 94.42C331.589 94.22 331.495 93.9733 331.495 93.68C331.495 93.3867 331.589 93.14 331.775 92.94C331.975 92.74 332.222 92.64 332.515 92.64C332.809 92.64 333.055 92.74 333.255 92.94ZM344.323 107H342.743V100.44C342.743 99.6933 342.55 99.1267 342.163 98.74C341.79 98.34 341.297 98.14 340.683 98.14C339.923 98.14 339.263 98.4333 338.703 99.02C338.157 99.6067 337.883 100.42 337.883 101.46V107H336.323V96.86H337.883V98.62C338.483 97.3533 339.55 96.72 341.083 96.72C342.07 96.72 342.857 97.02 343.443 97.62C344.03 98.22 344.323 99.02 344.323 100.02V107ZM357.087 106.74C356.647 106.98 356.154 107.1 355.607 107.1C353.607 107.1 352.607 106.08 352.607 104.04V98.14H350.987V96.86H352.607V94.34H354.187V96.86H356.987V98.14H354.187V104.08C354.187 105.16 354.694 105.7 355.707 105.7C356.227 105.7 356.687 105.547 357.087 105.24V106.74ZM368.31 101.96C368.31 103.467 367.883 104.713 367.03 105.7C366.176 106.687 365.003 107.18 363.51 107.18C362.056 107.18 360.903 106.693 360.05 105.72C359.21 104.733 358.79 103.493 358.79 102C358.79 100.493 359.223 99.24 360.09 98.24C360.97 97.2267 362.11 96.72 363.51 96.72C365.043 96.72 366.223 97.2133 367.05 98.2C367.89 99.1867 368.31 100.44 368.31 101.96ZM360.43 101.98C360.43 103.033 360.71 103.933 361.27 104.68C361.83 105.413 362.576 105.78 363.51 105.78C364.523 105.78 365.303 105.42 365.85 104.7C366.396 103.967 366.67 103.06 366.67 101.98C366.67 100.86 366.41 99.94 365.89 99.22C365.37 98.4867 364.576 98.12 363.51 98.12C362.55 98.12 361.796 98.4933 361.25 99.24C360.703 99.9867 360.43 100.9 360.43 101.98ZM385.363 107H383.743V100.9H377.203V107H375.583V93.52H377.203V99.44H383.743V93.52H385.363V107ZM397.275 101.96C397.275 103.467 396.848 104.713 395.995 105.7C395.141 106.687 393.968 107.18 392.475 107.18C391.021 107.18 389.868 106.693 389.015 105.72C388.175 104.733 387.755 103.493 387.755 102C387.755 100.493 388.188 99.24 389.055 98.24C389.935 97.2267 391.075 96.72 392.475 96.72C394.008 96.72 395.188 97.2133 396.015 98.2C396.855 99.1867 397.275 100.44 397.275 101.96ZM389.395 101.98C389.395 103.033 389.675 103.933 390.235 104.68C390.795 105.413 391.541 105.78 392.475 105.78C393.488 105.78 394.268 105.42 394.815 104.7C395.361 103.967 395.635 103.06 395.635 101.98C395.635 100.86 395.375 99.94 394.855 99.22C394.335 98.4867 393.541 98.12 392.475 98.12C391.515 98.12 390.761 98.4933 390.215 99.24C389.668 99.9867 389.395 100.9 389.395 101.98ZM405.685 104.3C405.685 105.167 405.378 105.853 404.765 106.36C404.165 106.867 403.338 107.12 402.285 107.12C401.058 107.12 400.065 106.913 399.305 106.5V104.96C400.198 105.493 401.158 105.76 402.185 105.76C402.798 105.76 403.265 105.64 403.585 105.4C403.905 105.16 404.065 104.833 404.065 104.42C404.065 103.94 403.885 103.567 403.525 103.3C403.178 103.033 402.592 102.733 401.765 102.4C401.005 102.107 400.392 101.74 399.925 101.3C399.472 100.86 399.245 100.267 399.245 99.52C399.245 98.68 399.558 98.0133 400.185 97.52C400.825 97.0133 401.618 96.76 402.565 96.76C403.618 96.76 404.465 96.9067 405.105 97.2V98.7C404.492 98.3267 403.652 98.14 402.585 98.14C402.052 98.14 401.625 98.2667 401.305 98.52C400.998 98.76 400.845 99.0733 400.845 99.46C400.845 99.7 400.892 99.9133 400.985 100.1C401.078 100.273 401.258 100.447 401.525 100.62C401.805 100.793 402.005 100.913 402.125 100.98C402.258 101.033 402.538 101.153 402.965 101.34C403.818 101.687 404.485 102.08 404.965 102.52C405.445 102.96 405.685 103.553 405.685 104.3ZM412.907 106.74C412.467 106.98 411.974 107.1 411.427 107.1C409.427 107.1 408.427 106.08 408.427 104.04V98.14H406.807V96.86H408.427V94.34H410.007V96.86H412.807V98.14H410.007V104.08C410.007 105.16 410.514 105.7 411.527 105.7C412.047 105.7 412.507 105.547 412.907 105.24V106.74ZM416.87 107H415.29V96.86H416.87V107ZM416.81 92.94C417.01 93.14 417.11 93.3867 417.11 93.68C417.11 93.9733 417.01 94.22 416.81 94.42C416.61 94.6067 416.363 94.7 416.07 94.7C415.777 94.7 415.53 94.6067 415.33 94.42C415.143 94.22 415.05 93.9733 415.05 93.68C415.05 93.3867 415.143 93.14 415.33 92.94C415.53 92.74 415.777 92.64 416.07 92.64C416.363 92.64 416.61 92.74 416.81 92.94ZM427.878 107H426.298V100.44C426.298 99.6933 426.105 99.1267 425.718 98.74C425.345 98.34 424.851 98.14 424.238 98.14C423.478 98.14 422.818 98.4333 422.258 99.02C421.711 99.6067 421.438 100.42 421.438 101.46V107H419.878V96.86H421.438V98.62C422.038 97.3533 423.105 96.72 424.638 96.72C425.625 96.72 426.411 97.02 426.998 97.62C427.585 98.22 427.878 99.02 427.878 100.02V107ZM438.859 106.18C438.859 107.727 438.432 108.887 437.579 109.66C436.725 110.447 435.625 110.84 434.279 110.84C433.052 110.84 432.005 110.633 431.139 110.22V108.64C431.992 109.133 432.992 109.38 434.139 109.38C435.112 109.38 435.879 109.12 436.439 108.6C436.999 108.08 437.279 107.267 437.279 106.16V105.02C436.612 106.167 435.619 106.74 434.299 106.74C433.139 106.74 432.145 106.313 431.319 105.46C430.505 104.607 430.099 103.42 430.099 101.9C430.099 100.393 430.479 99.1533 431.239 98.18C431.999 97.2067 432.992 96.72 434.219 96.72C435.605 96.72 436.625 97.3267 437.279 98.54V96.86H438.859V106.18ZM431.739 101.86C431.739 102.993 432.019 103.86 432.579 104.46C433.139 105.047 433.772 105.34 434.479 105.34C435.212 105.34 435.859 105.06 436.419 104.5C436.992 103.927 437.279 103.08 437.279 101.96C437.279 100.667 437.005 99.7067 436.459 99.08C435.912 98.4533 435.279 98.14 434.559 98.14C433.692 98.14 433.005 98.4867 432.499 99.18C431.992 99.86 431.739 100.753 431.739 101.86ZM449.055 106.48C448.269 106.893 447.309 107.1 446.175 107.1C444.642 107.1 443.402 106.633 442.455 105.7C441.522 104.753 441.055 103.507 441.055 101.96C441.055 100.347 441.475 99.0733 442.315 98.14C443.155 97.2067 444.235 96.74 445.555 96.74C446.822 96.74 447.829 97.1467 448.575 97.96C449.322 98.7733 449.695 99.9267 449.695 101.42C449.695 101.847 449.662 102.24 449.595 102.6H442.675C442.795 103.6 443.175 104.367 443.815 104.9C444.455 105.433 445.295 105.7 446.335 105.7C447.469 105.7 448.375 105.467 449.055 105V106.48ZM445.555 98.12C444.795 98.12 444.149 98.3933 443.615 98.94C443.082 99.4867 442.769 100.267 442.675 101.28H448.115V100.88C448.115 100.04 447.889 99.3733 447.435 98.88C446.982 98.3733 446.355 98.12 445.555 98.12ZM453.665 107H452.085L452.105 96.86H453.665V98.64C454.198 97.3867 455.118 96.76 456.425 96.76C456.665 96.76 456.851 96.7733 456.985 96.8V98.36C456.705 98.2667 456.418 98.22 456.125 98.22C455.418 98.22 454.831 98.5467 454.365 99.2C453.898 99.8533 453.665 100.607 453.665 101.46V107Z" fill="black"/>
<path d="M33.4062 75.9375C32.0828 75.9375 31 76.9359 31 78.1562V82.5938C31 83.8141 32.0828 84.8125 33.4062 84.8125H50.25V75.9375H33.4062ZM106.947 50.5605L92.224 36.9707C91.5473 36.3467 90.6299 36 89.6674 36H88.75V53.75H108V52.9041C108 52.0305 107.624 51.1846 106.947 50.5605ZM83.9375 54.8594V36H53.8594C51.8592 36 50.25 37.4838 50.25 39.3281V75.9375H69.5V66.8961C69.5 64.9131 72.1018 63.9285 73.6207 65.3291L87.998 78.7109C88.9906 79.64 88.9906 81.1238 87.998 82.0391L73.6057 95.407C72.0867 96.8076 69.485 95.823 69.485 93.84V84.8125H50.25V103.672C50.25 105.516 51.8592 107 53.8594 107H104.391C106.391 107 108 105.516 108 103.672V58.1875H87.5469C85.5617 58.1875 83.9375 56.6898 83.9375 54.8594Z" fill="#FFA800"/>
</svg>
