<svg width="682" height="163" viewBox="0 0 682 163" fill="none" xmlns="http://www.w3.org/2000/svg">
<rect y="1" width="682" height="162" fill="white"/>
<path d="M163.944 32.456C161.352 34.408 158.008 35.384 153.912 35.384C148.92 35.384 144.904 33.912 141.864 30.968C138.824 27.992 137.304 23.928 137.304 18.776C137.304 13.88 138.808 9.88 141.816 6.776C144.856 3.64 148.68 2.072 153.288 2.072C157.096 2.072 160.248 2.808 162.744 4.28V8.456C160.12 6.728 157.08 5.864 153.624 5.864C150.008 5.864 147.064 7.048 144.792 9.416C142.52 11.752 141.384 14.872 141.384 18.776C141.384 22.776 142.504 25.928 144.744 28.232C146.984 30.504 150.072 31.64 154.008 31.64C156.184 31.64 158.2 31.208 160.056 30.344V20.264H152.952V16.856H163.944V32.312H163.896L163.944 32.456ZM192.068 22.904C192.068 26.52 191.044 29.512 188.996 31.88C186.948 34.248 184.132 35.432 180.548 35.432C177.06 35.432 174.292 34.264 172.244 31.928C170.228 29.56 169.22 26.584 169.22 23C169.22 19.384 170.26 16.376 172.34 13.976C174.452 11.544 177.188 10.328 180.548 10.328C184.228 10.328 187.06 11.512 189.044 13.88C191.06 16.248 192.068 19.256 192.068 22.904ZM173.156 22.952C173.156 25.48 173.828 27.64 175.172 29.432C176.516 31.192 178.308 32.072 180.548 32.072C182.98 32.072 184.852 31.208 186.164 29.48C187.476 27.72 188.132 25.544 188.132 22.952C188.132 20.264 187.508 18.056 186.26 16.328C185.012 14.568 183.108 13.688 180.548 13.688C178.244 13.688 176.436 14.584 175.124 16.376C173.812 18.168 173.156 20.36 173.156 22.952ZM219.021 22.904C219.021 26.52 217.997 29.512 215.949 31.88C213.901 34.248 211.085 35.432 207.501 35.432C204.013 35.432 201.245 34.264 199.197 31.928C197.181 29.56 196.173 26.584 196.173 23C196.173 19.384 197.213 16.376 199.293 13.976C201.405 11.544 204.141 10.328 207.501 10.328C211.181 10.328 214.013 11.512 215.997 13.88C218.013 16.248 219.021 19.256 219.021 22.904ZM200.109 22.952C200.109 25.48 200.781 27.64 202.125 29.432C203.469 31.192 205.261 32.072 207.501 32.072C209.933 32.072 211.805 31.208 213.117 29.48C214.429 27.72 215.085 25.544 215.085 22.952C215.085 20.264 214.461 18.056 213.213 16.328C211.965 14.568 210.061 13.688 207.501 13.688C205.197 13.688 203.389 14.584 202.077 16.376C200.765 18.168 200.109 20.36 200.109 22.952ZM244.199 33.032C244.199 36.744 243.175 39.528 241.127 41.384C239.079 43.272 236.439 44.216 233.207 44.216C230.263 44.216 227.751 43.72 225.671 42.728V38.936C227.719 40.12 230.119 40.712 232.871 40.712C235.207 40.712 237.047 40.088 238.391 38.84C239.735 37.592 240.407 35.64 240.407 32.984V30.248C238.807 33 236.423 34.376 233.255 34.376C230.471 34.376 228.087 33.352 226.103 31.304C224.151 29.256 223.175 26.408 223.175 22.76C223.175 19.144 224.087 16.168 225.911 13.832C227.735 11.496 230.119 10.328 233.062 10.328C236.391 10.328 238.839 11.784 240.407 14.696V10.664H244.199V33.032ZM227.111 22.664C227.111 25.384 227.783 27.464 229.127 28.904C230.471 30.312 231.991 31.016 233.687 31.016C235.447 31.016 236.999 30.344 238.343 29C239.719 27.624 240.407 25.592 240.407 22.904C240.407 19.8 239.751 17.496 238.439 15.992C237.127 14.488 235.607 13.736 233.879 13.736C231.799 13.736 230.151 14.568 228.935 16.232C227.719 17.864 227.111 20.008 227.111 22.664ZM254.894 35H251.102V1.064H254.894V35ZM279.873 33.752C277.985 34.744 275.681 35.24 272.961 35.24C269.281 35.24 266.305 34.12 264.033 31.88C261.793 29.608 260.673 26.616 260.673 22.904C260.673 19.032 261.681 15.976 263.697 13.736C265.713 11.496 268.305 10.376 271.473 10.376C274.513 10.376 276.929 11.352 278.721 13.304C280.513 15.256 281.409 18.024 281.409 21.608C281.409 22.632 281.329 23.576 281.169 24.44H264.561C264.849 26.84 265.761 28.68 267.297 29.96C268.833 31.24 270.849 31.88 273.345 31.88C276.065 31.88 278.241 31.32 279.873 30.2V33.752ZM271.473 13.688C269.649 13.688 268.097 14.344 266.817 15.656C265.537 16.968 264.785 18.84 264.561 21.272H277.617V20.312C277.617 18.296 277.073 16.696 275.985 15.512C274.897 14.296 273.393 13.688 271.473 13.688ZM310.526 35H305.582L297.134 2.648H301.214L304.238 14.648L308.222 30.92C310.014 24.36 311.534 18.936 312.782 14.648L316.142 3.128H320.03L323.582 14.648L328.478 31.064C329.95 23.992 331.134 18.536 332.03 14.696L334.766 2.648H338.702L331.118 35H326.126L323.006 24.776L318.158 8.6C317.166 12.376 315.63 17.768 313.55 24.776L310.526 35ZM365.365 22.904C365.365 26.52 364.341 29.512 362.293 31.88C360.245 34.248 357.429 35.432 353.845 35.432C350.357 35.432 347.589 34.264 345.541 31.928C343.525 29.56 342.517 26.584 342.517 23C342.517 19.384 343.557 16.376 345.637 13.976C347.749 11.544 350.485 10.328 353.845 10.328C357.525 10.328 360.357 11.512 362.341 13.88C364.357 16.248 365.365 19.256 365.365 22.904ZM346.453 22.952C346.453 25.48 347.125 27.64 348.469 29.432C349.813 31.192 351.605 32.072 353.845 32.072C356.277 32.072 358.149 31.208 359.461 29.48C360.773 27.72 361.429 25.544 361.429 22.952C361.429 20.264 360.805 18.056 359.557 16.328C358.309 14.568 356.405 13.688 353.845 13.688C351.541 13.688 349.733 14.584 348.421 16.376C347.109 18.168 346.453 20.36 346.453 22.952ZM374.654 35H370.862L370.91 10.664H374.654V14.936C375.934 11.928 378.142 10.424 381.278 10.424C381.854 10.424 382.302 10.456 382.622 10.52V14.264C381.95 14.04 381.262 13.928 380.558 13.928C378.862 13.928 377.454 14.712 376.334 16.28C375.214 17.848 374.654 19.656 374.654 21.704V35ZM390.311 35H386.567V1.256H390.311V35ZM395.255 22.232L405.143 35H400.583L390.791 22.232L400.343 10.664H404.855L395.255 22.232ZM424.269 28.52C424.269 30.6 423.533 32.248 422.061 33.464C420.621 34.68 418.637 35.288 416.109 35.288C413.165 35.288 410.781 34.792 408.957 33.8V30.104C411.101 31.384 413.405 32.024 415.869 32.024C417.341 32.024 418.461 31.736 419.229 31.16C419.997 30.584 420.381 29.8 420.381 28.808C420.381 27.656 419.949 26.76 419.085 26.12C418.253 25.48 416.845 24.76 414.861 23.96C413.037 23.256 411.565 22.376 410.445 21.32C409.357 20.264 408.813 18.84 408.813 17.048C408.813 15.032 409.565 13.432 411.069 12.248C412.605 11.032 414.509 10.424 416.781 10.424C419.309 10.424 421.341 10.776 422.877 11.48V15.08C421.405 14.184 419.389 13.736 416.829 13.736C415.549 13.736 414.525 14.04 413.757 14.648C413.021 15.224 412.653 15.976 412.653 16.904C412.653 17.48 412.765 17.992 412.989 18.44C413.213 18.856 413.645 19.272 414.285 19.688C414.957 20.104 415.437 20.392 415.725 20.552C416.045 20.68 416.717 20.968 417.741 21.416C419.789 22.248 421.389 23.192 422.541 24.248C423.693 25.304 424.269 26.728 424.269 28.52ZM433.154 44.456H429.41V10.664H433.154V14.36C434.85 11.64 437.362 10.28 440.69 10.28C443.922 10.28 446.45 11.464 448.274 13.832C450.13 16.168 451.058 19.096 451.058 22.616C451.058 26.36 450.082 29.432 448.13 31.832C446.21 34.2 443.698 35.384 440.594 35.384C437.394 35.384 434.914 34.024 433.154 31.304V44.456ZM433.154 22.856C433.154 25.96 433.874 28.248 435.314 29.72C436.754 31.192 438.354 31.928 440.114 31.928C442.162 31.928 443.842 31.128 445.154 29.528C446.466 27.896 447.122 25.592 447.122 22.616C447.122 19.96 446.482 17.816 445.202 16.184C443.922 14.552 442.306 13.736 440.354 13.736C438.402 13.736 436.706 14.456 435.266 15.896C433.858 17.304 433.154 19.624 433.154 22.856ZM464.085 32.072C465.813 32.072 467.189 31.592 468.213 30.632C469.237 29.64 469.749 28.392 469.749 26.888V23.768H465.525C463.477 23.768 461.941 24.168 460.917 24.968C459.893 25.768 459.381 26.776 459.381 27.992C459.381 29.208 459.781 30.2 460.581 30.968C461.381 31.704 462.549 32.072 464.085 32.072ZM469.797 32.12C468.549 34.2 466.277 35.24 462.981 35.24C460.709 35.24 458.869 34.568 457.461 33.224C456.085 31.88 455.397 30.184 455.397 28.136C455.397 25.8 456.277 23.992 458.037 22.712C459.829 21.4 462.261 20.744 465.333 20.744H469.749V19.496C469.749 17.576 469.317 16.136 468.453 15.176C467.589 14.184 466.133 13.688 464.085 13.688C461.493 13.688 459.189 14.376 457.173 15.752V11.96C458.997 10.84 461.397 10.28 464.373 10.28C470.485 10.28 473.541 13.384 473.541 19.592V35H469.797V32.12ZM497.022 34.136C495.486 35.064 493.598 35.528 491.358 35.528C487.518 35.528 484.462 34.312 482.19 31.88C479.95 29.416 478.83 26.424 478.83 22.904C478.83 19.448 479.95 16.472 482.19 13.976C484.462 11.48 487.55 10.232 491.454 10.232C493.534 10.232 495.39 10.68 497.022 11.576V15.176C495.55 14.184 493.822 13.688 491.838 13.688C489.086 13.688 486.878 14.584 485.214 16.376C483.582 18.136 482.766 20.328 482.766 22.952C482.798 25.576 483.598 27.768 485.166 29.528C486.734 31.256 488.958 32.12 491.838 32.12C493.694 32.12 495.422 31.592 497.022 30.536V34.136ZM520.623 33.752C518.735 34.744 516.431 35.24 513.711 35.24C510.031 35.24 507.055 34.12 504.783 31.88C502.543 29.608 501.423 26.616 501.423 22.904C501.423 19.032 502.431 15.976 504.447 13.736C506.463 11.496 509.055 10.376 512.223 10.376C515.263 10.376 517.679 11.352 519.471 13.304C521.263 15.256 522.159 18.024 522.159 21.608C522.159 22.632 522.079 23.576 521.919 24.44H505.311C505.599 26.84 506.511 28.68 508.047 29.96C509.583 31.24 511.599 31.88 514.095 31.88C516.815 31.88 518.991 31.32 520.623 30.2V33.752ZM512.223 13.688C510.399 13.688 508.847 14.344 507.567 15.656C506.287 16.968 505.535 18.84 505.311 21.272H518.367V20.312C518.367 18.296 517.823 16.696 516.735 15.512C515.647 14.296 514.143 13.688 512.223 13.688ZM557.9 35H539.852V2.648H557.66V6.056H543.74V17.144H556.028V20.552H543.74V31.592H557.9V35ZM596.251 35H592.459V19.256C592.459 15.576 590.907 13.736 587.803 13.736C586.267 13.736 584.891 14.44 583.675 15.848C582.459 17.224 581.851 19.176 581.851 21.704V35H578.059V19.256C578.059 15.576 576.507 13.736 573.403 13.736C571.867 13.736 570.491 14.44 569.275 15.848C568.059 17.224 567.451 19.176 567.451 21.704V35H563.707V10.664H567.451V14.6C568.795 11.752 571.083 10.328 574.315 10.328C578.059 10.328 580.427 11.912 581.419 15.08C582.123 13.544 583.099 12.376 584.347 11.576C585.627 10.744 587.051 10.328 588.619 10.328C591.147 10.328 593.051 11.048 594.331 12.488C595.611 13.928 596.251 15.864 596.251 18.296V35ZM610.428 32.072C612.156 32.072 613.532 31.592 614.556 30.632C615.58 29.64 616.092 28.392 616.092 26.888V23.768H611.868C609.82 23.768 608.284 24.168 607.26 24.968C606.236 25.768 605.724 26.776 605.724 27.992C605.724 29.208 606.124 30.2 606.924 30.968C607.724 31.704 608.892 32.072 610.428 32.072ZM616.14 32.12C614.892 34.2 612.62 35.24 609.324 35.24C607.052 35.24 605.212 34.568 603.804 33.224C602.428 31.88 601.74 30.184 601.74 28.136C601.74 25.8 602.62 23.992 604.38 22.712C606.172 21.4 608.604 20.744 611.676 20.744H616.092V19.496C616.092 17.576 615.66 16.136 614.796 15.176C613.932 14.184 612.476 13.688 610.428 13.688C607.836 13.688 605.532 14.376 603.516 15.752V11.96C605.34 10.84 607.74 10.28 610.716 10.28C616.828 10.28 619.884 13.384 619.884 19.592V35H616.14V32.12ZM630.597 35H626.805V10.664H630.597V35ZM630.453 1.256C630.933 1.736 631.173 2.328 631.173 3.032C631.173 3.736 630.933 4.328 630.453 4.808C629.973 5.256 629.381 5.48 628.677 5.48C627.973 5.48 627.381 5.256 626.901 4.808C626.453 4.328 626.229 3.736 626.229 3.032C626.229 2.328 626.453 1.736 626.901 1.256C627.381 0.775998 627.973 0.535997 628.677 0.535997C629.381 0.535997 629.973 0.775998 630.453 1.256ZM641.801 35H638.009V1.064H641.801V35ZM162.168 101H158.28V86.36H142.584V101H138.696V68.648H142.584V82.856H158.28V68.648H162.168V101ZM190.756 88.904C190.756 92.52 189.732 95.512 187.684 97.88C185.636 100.248 182.82 101.432 179.236 101.432C175.748 101.432 172.98 100.264 170.932 97.928C168.916 95.56 167.908 92.584 167.908 89C167.908 85.384 168.948 82.376 171.028 79.976C173.14 77.544 175.876 76.328 179.236 76.328C182.916 76.328 185.748 77.512 187.732 79.88C189.748 82.248 190.756 85.256 190.756 88.904ZM171.844 88.952C171.844 91.48 172.516 93.64 173.86 95.432C175.204 97.192 176.996 98.072 179.236 98.072C181.668 98.072 183.54 97.208 184.852 95.48C186.164 93.72 186.82 91.544 186.82 88.952C186.82 86.264 186.196 84.056 184.948 82.328C183.7 80.568 181.796 79.688 179.236 79.688C176.932 79.688 175.124 80.584 173.812 82.376C172.5 84.168 171.844 86.36 171.844 88.952ZM210.941 94.52C210.941 96.6 210.205 98.248 208.733 99.464C207.293 100.68 205.309 101.288 202.781 101.288C199.837 101.288 197.453 100.792 195.629 99.8V96.104C197.773 97.384 200.077 98.024 202.541 98.024C204.013 98.024 205.133 97.736 205.901 97.16C206.669 96.584 207.053 95.8 207.053 94.808C207.053 93.656 206.621 92.76 205.757 92.12C204.925 91.48 203.517 90.76 201.533 89.96C199.709 89.256 198.237 88.376 197.117 87.32C196.029 86.264 195.485 84.84 195.485 83.048C195.485 81.032 196.237 79.432 197.741 78.248C199.277 77.032 201.181 76.424 203.453 76.424C205.981 76.424 208.013 76.776 209.549 77.48V81.08C208.077 80.184 206.061 79.736 203.501 79.736C202.221 79.736 201.197 80.04 200.429 80.648C199.693 81.224 199.325 81.976 199.325 82.904C199.325 83.48 199.437 83.992 199.661 84.44C199.885 84.856 200.317 85.272 200.957 85.688C201.629 86.104 202.109 86.392 202.397 86.552C202.717 86.68 203.389 86.968 204.413 87.416C206.461 88.248 208.061 89.192 209.213 90.248C210.365 91.304 210.941 92.728 210.941 94.52ZM228.274 100.376C227.218 100.952 226.034 101.24 224.722 101.24C219.922 101.24 217.522 98.792 217.522 93.896V79.736H213.634V76.664H217.522V70.616H221.314V76.664H228.034V79.736H221.314V93.992C221.314 96.584 222.53 97.88 224.962 97.88C226.21 97.88 227.314 97.512 228.274 96.776V100.376ZM237.785 101H233.993V76.664H237.785V101ZM237.641 67.256C238.121 67.736 238.361 68.328 238.361 69.032C238.361 69.736 238.121 70.328 237.641 70.808C237.161 71.256 236.569 71.48 235.865 71.48C235.161 71.48 234.569 71.256 234.089 70.808C233.641 70.328 233.417 69.736 233.417 69.032C233.417 68.328 233.641 67.736 234.089 67.256C234.569 66.776 235.161 66.536 235.865 66.536C236.569 66.536 237.161 66.776 237.641 67.256ZM264.204 101H260.412V85.256C260.412 83.464 259.948 82.104 259.02 81.176C258.124 80.216 256.94 79.736 255.468 79.736C253.644 79.736 252.06 80.44 250.716 81.848C249.404 83.256 248.748 85.208 248.748 87.704V101H245.004V76.664H248.748V80.888C250.188 77.848 252.748 76.328 256.428 76.328C258.796 76.328 260.684 77.048 262.092 78.488C263.5 79.928 264.204 81.848 264.204 84.248V101ZM290.558 99.032C290.558 102.744 289.534 105.528 287.486 107.384C285.438 109.272 282.798 110.216 279.566 110.216C276.622 110.216 274.11 109.72 272.03 108.728V104.936C274.078 106.12 276.478 106.712 279.23 106.712C281.566 106.712 283.406 106.088 284.75 104.84C286.094 103.592 286.766 101.64 286.766 98.984V96.248C285.166 99 282.782 100.376 279.614 100.376C276.83 100.376 274.446 99.352 272.462 97.304C270.51 95.256 269.534 92.408 269.534 88.76C269.534 85.144 270.446 82.168 272.27 79.832C274.094 77.496 276.478 76.328 279.422 76.328C282.75 76.328 285.198 77.784 286.766 80.696V76.664H290.558V99.032ZM273.47 88.664C273.47 91.384 274.142 93.464 275.486 94.904C276.83 96.312 278.35 97.016 280.046 97.016C281.806 97.016 283.358 96.344 284.702 95C286.078 93.624 286.766 91.592 286.766 88.904C286.766 85.8 286.11 83.496 284.798 81.992C283.486 80.488 281.966 79.736 280.238 79.736C278.158 79.736 276.51 80.568 275.294 82.232C274.078 83.864 273.47 86.008 273.47 88.664Z" fill="black"/>
<path d="M152.06 135.94C150.98 136.753 149.587 137.16 147.88 137.16C145.8 137.16 144.127 136.547 142.86 135.32C141.593 134.08 140.96 132.387 140.96 130.24C140.96 128.2 141.587 126.533 142.84 125.24C144.107 123.933 145.7 123.28 147.62 123.28C149.207 123.28 150.52 123.587 151.56 124.2V125.94C150.467 125.22 149.2 124.86 147.76 124.86C146.253 124.86 145.027 125.353 144.08 126.34C143.133 127.313 142.66 128.613 142.66 130.24C142.66 131.907 143.127 133.22 144.06 134.18C144.993 135.127 146.28 135.6 147.92 135.6C148.827 135.6 149.667 135.42 150.44 135.06V130.86H147.48V129.44H152.06V135.88H152.04L152.06 135.94ZM162.258 136.48C161.472 136.893 160.512 137.1 159.378 137.1C157.845 137.1 156.605 136.633 155.658 135.7C154.725 134.753 154.258 133.507 154.258 131.96C154.258 130.347 154.678 129.073 155.518 128.14C156.358 127.207 157.438 126.74 158.758 126.74C160.025 126.74 161.032 127.147 161.778 127.96C162.525 128.773 162.898 129.927 162.898 131.42C162.898 131.847 162.865 132.24 162.798 132.6H155.878C155.998 133.6 156.378 134.367 157.018 134.9C157.658 135.433 158.498 135.7 159.538 135.7C160.672 135.7 161.578 135.467 162.258 135V136.48ZM158.758 128.12C157.998 128.12 157.352 128.393 156.818 128.94C156.285 129.487 155.972 130.267 155.878 131.28H161.318V130.88C161.318 130.04 161.092 129.373 160.638 128.88C160.185 128.373 159.558 128.12 158.758 128.12ZM170.388 136.74C169.948 136.98 169.454 137.1 168.908 137.1C166.908 137.1 165.908 136.08 165.908 134.04V128.14H164.288V126.86H165.908V124.34H167.488V126.86H170.288V128.14H167.488V134.08C167.488 135.16 167.994 135.7 169.008 135.7C169.528 135.7 169.988 135.547 170.388 135.24V136.74ZM184.553 136.64C183.913 137.027 183.127 137.22 182.193 137.22C180.593 137.22 179.32 136.713 178.373 135.7C177.44 134.673 176.973 133.427 176.973 131.96C176.973 130.52 177.44 129.28 178.373 128.24C179.32 127.2 180.607 126.68 182.233 126.68C183.1 126.68 183.873 126.867 184.553 127.24V128.74C183.94 128.327 183.22 128.12 182.393 128.12C181.247 128.12 180.327 128.493 179.633 129.24C178.953 129.973 178.613 130.887 178.613 131.98C178.627 133.073 178.96 133.987 179.613 134.72C180.267 135.44 181.193 135.8 182.393 135.8C183.167 135.8 183.887 135.58 184.553 135.14V136.64ZM194.867 137H193.287V135.24C192.754 136.493 191.694 137.12 190.107 137.12C189.107 137.12 188.314 136.827 187.727 136.24C187.154 135.64 186.867 134.84 186.867 133.84V126.86H188.447V133.44C188.447 134.173 188.634 134.733 189.007 135.12C189.381 135.507 189.887 135.7 190.527 135.7C191.367 135.7 192.034 135.407 192.527 134.82C193.034 134.233 193.287 133.44 193.287 132.44V126.86H194.867V137ZM203.888 134.3C203.888 135.167 203.581 135.853 202.968 136.36C202.368 136.867 201.541 137.12 200.488 137.12C199.261 137.12 198.268 136.913 197.508 136.5V134.96C198.401 135.493 199.361 135.76 200.388 135.76C201.001 135.76 201.468 135.64 201.788 135.4C202.108 135.16 202.268 134.833 202.268 134.42C202.268 133.94 202.088 133.567 201.728 133.3C201.381 133.033 200.795 132.733 199.968 132.4C199.208 132.107 198.595 131.74 198.128 131.3C197.675 130.86 197.448 130.267 197.448 129.52C197.448 128.68 197.761 128.013 198.388 127.52C199.028 127.013 199.821 126.76 200.768 126.76C201.821 126.76 202.668 126.907 203.308 127.2V128.7C202.695 128.327 201.855 128.14 200.788 128.14C200.255 128.14 199.828 128.267 199.508 128.52C199.201 128.76 199.048 129.073 199.048 129.46C199.048 129.7 199.095 129.913 199.188 130.1C199.281 130.273 199.461 130.447 199.728 130.62C200.008 130.793 200.208 130.913 200.328 130.98C200.461 131.033 200.741 131.153 201.168 131.34C202.021 131.687 202.688 132.08 203.168 132.52C203.648 132.96 203.888 133.553 203.888 134.3ZM211.11 136.74C210.67 136.98 210.177 137.1 209.63 137.1C207.63 137.1 206.63 136.08 206.63 134.04V128.14H205.01V126.86H206.63V124.34H208.21V126.86H211.01V128.14H208.21V134.08C208.21 135.16 208.717 135.7 209.73 135.7C210.25 135.7 210.71 135.547 211.11 135.24V136.74ZM222.333 131.96C222.333 133.467 221.906 134.713 221.053 135.7C220.2 136.687 219.026 137.18 217.533 137.18C216.08 137.18 214.926 136.693 214.073 135.72C213.233 134.733 212.813 133.493 212.813 132C212.813 130.493 213.246 129.24 214.113 128.24C214.993 127.227 216.133 126.72 217.533 126.72C219.066 126.72 220.246 127.213 221.073 128.2C221.913 129.187 222.333 130.44 222.333 131.96ZM214.453 131.98C214.453 133.033 214.733 133.933 215.293 134.68C215.853 135.413 216.6 135.78 217.533 135.78C218.546 135.78 219.326 135.42 219.873 134.7C220.42 133.967 220.693 133.06 220.693 131.98C220.693 130.86 220.433 129.94 219.913 129.22C219.393 128.487 218.6 128.12 217.533 128.12C216.573 128.12 215.82 128.493 215.273 129.24C214.726 129.987 214.453 130.9 214.453 131.98ZM238.204 137H236.624V130.44C236.624 128.907 235.977 128.14 234.684 128.14C234.044 128.14 233.47 128.433 232.964 129.02C232.457 129.593 232.204 130.407 232.204 131.46V137H230.624V130.44C230.624 128.907 229.977 128.14 228.684 128.14C228.044 128.14 227.47 128.433 226.964 129.02C226.457 129.593 226.204 130.407 226.204 131.46V137H224.644V126.86H226.204V128.5C226.764 127.313 227.717 126.72 229.064 126.72C230.624 126.72 231.61 127.38 232.024 128.7C232.317 128.06 232.724 127.573 233.244 127.24C233.777 126.893 234.37 126.72 235.024 126.72C236.077 126.72 236.87 127.02 237.404 127.62C237.937 128.22 238.204 129.027 238.204 130.04V137ZM253.294 136.48C252.507 136.893 251.547 137.1 250.414 137.1C248.88 137.1 247.64 136.633 246.694 135.7C245.76 134.753 245.294 133.507 245.294 131.96C245.294 130.347 245.714 129.073 246.554 128.14C247.394 127.207 248.474 126.74 249.794 126.74C251.06 126.74 252.067 127.147 252.814 127.96C253.56 128.773 253.934 129.927 253.934 131.42C253.934 131.847 253.9 132.24 253.834 132.6H246.914C247.034 133.6 247.414 134.367 248.054 134.9C248.694 135.433 249.534 135.7 250.574 135.7C251.707 135.7 252.614 135.467 253.294 135V136.48ZM249.794 128.12C249.034 128.12 248.387 128.393 247.854 128.94C247.32 129.487 247.007 130.267 246.914 131.28H252.354V130.88C252.354 130.04 252.127 129.373 251.674 128.88C251.22 128.373 250.594 128.12 249.794 128.12ZM269.903 137H268.323V130.44C268.323 128.907 267.676 128.14 266.383 128.14C265.743 128.14 265.169 128.433 264.663 129.02C264.156 129.593 263.903 130.407 263.903 131.46V137H262.323V130.44C262.323 128.907 261.676 128.14 260.383 128.14C259.743 128.14 259.169 128.433 258.663 129.02C258.156 129.593 257.903 130.407 257.903 131.46V137H256.343V126.86H257.903V128.5C258.463 127.313 259.416 126.72 260.763 126.72C262.323 126.72 263.309 127.38 263.723 128.7C264.016 128.06 264.423 127.573 264.943 127.24C265.476 126.893 266.069 126.72 266.723 126.72C267.776 126.72 268.569 127.02 269.103 127.62C269.636 128.22 269.903 129.027 269.903 130.04V137ZM275.81 135.78C276.53 135.78 277.103 135.58 277.53 135.18C277.957 134.767 278.17 134.247 278.17 133.62V132.32H276.41C275.557 132.32 274.917 132.487 274.49 132.82C274.063 133.153 273.85 133.573 273.85 134.08C273.85 134.587 274.017 135 274.35 135.32C274.683 135.627 275.17 135.78 275.81 135.78ZM278.19 135.8C277.67 136.667 276.723 137.1 275.35 137.1C274.403 137.1 273.637 136.82 273.05 136.26C272.477 135.7 272.19 134.993 272.19 134.14C272.19 133.167 272.557 132.413 273.29 131.88C274.037 131.333 275.05 131.06 276.33 131.06H278.17V130.54C278.17 129.74 277.99 129.14 277.63 128.74C277.27 128.327 276.663 128.12 275.81 128.12C274.73 128.12 273.77 128.407 272.93 128.98V127.4C273.69 126.933 274.69 126.7 275.93 126.7C278.477 126.7 279.75 127.993 279.75 130.58V137H278.19V135.8ZM284.214 137H282.634V126.86H284.214V137ZM284.154 122.94C284.354 123.14 284.454 123.387 284.454 123.68C284.454 123.973 284.354 124.22 284.154 124.42C283.954 124.607 283.707 124.7 283.414 124.7C283.12 124.7 282.874 124.607 282.674 124.42C282.487 124.22 282.394 123.973 282.394 123.68C282.394 123.387 282.487 123.14 282.674 122.94C282.874 122.74 283.12 122.64 283.414 122.64C283.707 122.64 283.954 122.74 284.154 122.94ZM288.882 137H287.302V122.86H288.882V137ZM299.873 135.78C300.593 135.78 301.166 135.58 301.593 135.18C302.019 134.767 302.233 134.247 302.233 133.62V132.32H300.473C299.619 132.32 298.979 132.487 298.553 132.82C298.126 133.153 297.913 133.573 297.913 134.08C297.913 134.587 298.079 135 298.413 135.32C298.746 135.627 299.233 135.78 299.873 135.78ZM302.253 135.8C301.733 136.667 300.786 137.1 299.413 137.1C298.466 137.1 297.699 136.82 297.113 136.26C296.539 135.7 296.253 134.993 296.253 134.14C296.253 133.167 296.619 132.413 297.353 131.88C298.099 131.333 299.113 131.06 300.393 131.06H302.233V130.54C302.233 129.74 302.053 129.14 301.693 128.74C301.333 128.327 300.726 128.12 299.873 128.12C298.793 128.12 297.833 128.407 296.993 128.98V127.4C297.753 126.933 298.753 126.7 299.993 126.7C302.539 126.7 303.813 127.993 303.813 130.58V137H302.253V135.8ZM314.616 137H313.036V130.44C313.036 129.693 312.843 129.127 312.456 128.74C312.083 128.34 311.59 128.14 310.976 128.14C310.216 128.14 309.556 128.433 308.996 129.02C308.45 129.607 308.176 130.42 308.176 131.46V137H306.616V126.86H308.176V128.62C308.776 127.353 309.843 126.72 311.376 126.72C312.363 126.72 313.15 127.02 313.736 127.62C314.323 128.22 314.616 129.02 314.616 130.02V137ZM318.457 132.04C318.457 133.133 318.724 134.02 319.257 134.7C319.79 135.38 320.464 135.72 321.277 135.72C322.104 135.72 322.804 135.413 323.377 134.8C323.964 134.187 324.257 133.207 324.257 131.86C324.257 130.58 323.957 129.64 323.357 129.04C322.757 128.44 322.097 128.14 321.377 128.14C320.537 128.14 319.837 128.48 319.277 129.16C318.73 129.827 318.457 130.787 318.457 132.04ZM325.837 137H324.257V135.5C323.537 136.607 322.497 137.16 321.137 137.16C319.79 137.16 318.73 136.66 317.957 135.66C317.197 134.66 316.817 133.447 316.817 132.02C316.817 130.433 317.224 129.153 318.037 128.18C318.85 127.193 319.897 126.7 321.177 126.7C322.497 126.7 323.524 127.267 324.257 128.4V122.86H325.837V137ZM340.488 133.4C340.488 134.467 340.114 135.353 339.368 136.06C338.621 136.767 337.568 137.12 336.208 137.12C334.954 137.12 333.868 136.9 332.948 136.46V134.88C333.934 135.4 335.008 135.66 336.168 135.66C337.021 135.66 337.681 135.44 338.148 135C338.628 134.56 338.868 133.987 338.868 133.28C338.868 132.573 338.601 132.033 338.067 131.66C337.548 131.273 336.794 131.08 335.808 131.08H334.968V129.7H335.808C336.554 129.7 337.181 129.493 337.688 129.08C338.208 128.653 338.468 128.087 338.468 127.38C338.468 126.673 338.248 126.14 337.808 125.78C337.368 125.42 336.761 125.24 335.988 125.24C335.068 125.24 334.188 125.513 333.348 126.06V124.52C334.121 124.027 335.014 123.78 336.028 123.78C337.321 123.78 338.321 124.113 339.028 124.78C339.748 125.433 340.108 126.247 340.108 127.22C340.108 127.927 339.928 128.56 339.568 129.12C339.221 129.68 338.701 130.1 338.008 130.38C338.768 130.553 339.368 130.907 339.808 131.44C340.261 131.96 340.488 132.613 340.488 133.4ZM351.524 130.42C351.524 132.46 351.124 134.093 350.324 135.32C349.524 136.547 348.384 137.16 346.904 137.16C345.531 137.16 344.431 136.547 343.604 135.32C342.777 134.093 342.364 132.46 342.364 130.42C342.364 128.367 342.777 126.747 343.604 125.56C344.444 124.36 345.544 123.76 346.904 123.76C348.317 123.76 349.437 124.36 350.264 125.56C351.104 126.747 351.524 128.367 351.524 130.42ZM344.844 126.62C344.271 127.513 343.984 128.78 343.984 130.42C343.984 132.06 344.264 133.347 344.824 134.28C345.384 135.2 346.077 135.66 346.904 135.66C347.824 135.66 348.551 135.207 349.084 134.3C349.631 133.393 349.904 132.1 349.904 130.42C349.904 128.753 349.617 127.48 349.044 126.6C348.484 125.707 347.771 125.26 346.904 125.26C346.104 125.26 345.417 125.713 344.844 126.62ZM364.443 135.94C363.363 136.753 361.969 137.16 360.263 137.16C358.183 137.16 356.509 136.547 355.243 135.32C353.976 134.08 353.343 132.387 353.343 130.24C353.343 128.2 353.969 126.533 355.223 125.24C356.489 123.933 358.083 123.28 360.003 123.28C361.589 123.28 362.903 123.587 363.943 124.2V125.94C362.849 125.22 361.583 124.86 360.143 124.86C358.636 124.86 357.409 125.353 356.463 126.34C355.516 127.313 355.043 128.613 355.043 130.24C355.043 131.907 355.509 133.22 356.443 134.18C357.376 135.127 358.663 135.6 360.303 135.6C361.209 135.6 362.049 135.42 362.823 135.06V130.86H359.863V129.44H364.443V135.88H364.423L364.443 135.94ZM372.241 137H367.321V123.52H371.381C372.768 123.52 373.875 123.84 374.701 124.48C375.541 125.12 375.961 125.98 375.961 127.06C375.961 127.833 375.741 128.507 375.301 129.08C374.875 129.64 374.321 129.993 373.641 130.14C374.388 130.26 375.021 130.6 375.541 131.16C376.075 131.707 376.341 132.453 376.341 133.4C376.341 134.48 375.981 135.353 375.261 136.02C374.555 136.673 373.548 137 372.241 137ZM371.381 124.9H368.941V129.5H371.101C372.181 129.5 372.981 129.273 373.501 128.82C374.021 128.367 374.281 127.78 374.281 127.06C374.281 126.433 374.035 125.92 373.541 125.52C373.061 125.107 372.341 124.9 371.381 124.9ZM371.701 130.88H368.941V135.62H372.001C372.855 135.62 373.508 135.427 373.961 135.04C374.428 134.64 374.661 134.06 374.661 133.3C374.661 132.54 374.401 131.947 373.881 131.52C373.375 131.093 372.648 130.88 371.701 130.88ZM392.47 131.96C392.47 133.467 392.043 134.713 391.19 135.7C390.337 136.687 389.163 137.18 387.67 137.18C386.217 137.18 385.063 136.693 384.21 135.72C383.37 134.733 382.95 133.493 382.95 132C382.95 130.493 383.383 129.24 384.25 128.24C385.13 127.227 386.27 126.72 387.67 126.72C389.203 126.72 390.383 127.213 391.21 128.2C392.05 129.187 392.47 130.44 392.47 131.96ZM384.59 131.98C384.59 133.033 384.87 133.933 385.43 134.68C385.99 135.413 386.737 135.78 387.67 135.78C388.683 135.78 389.463 135.42 390.01 134.7C390.557 133.967 390.83 133.06 390.83 131.98C390.83 130.86 390.57 129.94 390.05 129.22C389.53 128.487 388.737 128.12 387.67 128.12C386.71 128.12 385.957 128.493 385.41 129.24C384.863 129.987 384.59 130.9 384.59 131.98ZM399.48 128.14H397.24V137H395.66V128.14H393.92V126.86H395.66V125.92C395.66 124.933 395.92 124.153 396.44 123.58C396.974 123.007 397.707 122.72 398.64 122.72C398.96 122.72 399.287 122.767 399.62 122.86V124.3C399.3 124.193 398.994 124.14 398.7 124.14C398.274 124.14 397.92 124.287 397.64 124.58C397.374 124.873 397.24 125.327 397.24 125.94V126.86H399.48V128.14ZM414.125 133.42C414.125 134.607 413.718 135.527 412.905 136.18C412.092 136.82 411.045 137.14 409.765 137.14C408.352 137.14 407.152 136.853 406.165 136.28V134.54C407.138 135.273 408.325 135.64 409.725 135.64C410.565 135.64 411.225 135.453 411.705 135.08C412.185 134.707 412.425 134.167 412.425 133.46C412.425 133.167 412.365 132.907 412.245 132.68C412.138 132.44 411.952 132.227 411.685 132.04C411.432 131.84 411.185 131.68 410.945 131.56C410.718 131.427 410.405 131.267 410.005 131.08C409.925 131.04 409.805 130.987 409.645 130.92C409.072 130.667 408.632 130.46 408.325 130.3C408.032 130.14 407.678 129.907 407.265 129.6C406.865 129.28 406.572 128.913 406.385 128.5C406.198 128.087 406.105 127.607 406.105 127.06C406.105 125.913 406.512 125.02 407.325 124.38C408.152 123.727 409.185 123.4 410.425 123.4C411.585 123.4 412.572 123.607 413.385 124.02V125.72C412.572 125.187 411.598 124.92 410.465 124.92C409.652 124.92 409.005 125.113 408.525 125.5C408.045 125.873 407.805 126.367 407.805 126.98C407.805 127.3 407.865 127.587 407.985 127.84C408.118 128.093 408.345 128.333 408.665 128.56C408.985 128.773 409.258 128.94 409.485 129.06C409.712 129.167 410.065 129.327 410.545 129.54C410.998 129.74 411.345 129.9 411.585 130.02C411.825 130.127 412.132 130.307 412.505 130.56C412.892 130.8 413.178 131.04 413.365 131.28C413.565 131.507 413.738 131.813 413.885 132.2C414.045 132.573 414.125 132.98 414.125 133.42ZM421.813 136.74C421.373 136.98 420.88 137.1 420.333 137.1C418.333 137.1 417.333 136.08 417.333 134.04V128.14H415.713V126.86H417.333V124.34H418.913V126.86H421.713V128.14H418.913V134.08C418.913 135.16 419.42 135.7 420.433 135.7C420.953 135.7 421.413 135.547 421.813 135.24V136.74ZM433.036 131.96C433.036 133.467 432.61 134.713 431.756 135.7C430.903 136.687 429.73 137.18 428.236 137.18C426.783 137.18 425.63 136.693 424.776 135.72C423.936 134.733 423.516 133.493 423.516 132C423.516 130.493 423.95 129.24 424.816 128.24C425.696 127.227 426.836 126.72 428.236 126.72C429.77 126.72 430.95 127.213 431.776 128.2C432.616 129.187 433.036 130.44 433.036 131.96ZM425.156 131.98C425.156 133.033 425.436 133.933 425.996 134.68C426.556 135.413 427.303 135.78 428.236 135.78C429.25 135.78 430.03 135.42 430.576 134.7C431.123 133.967 431.396 133.06 431.396 131.98C431.396 130.86 431.136 129.94 430.616 129.22C430.096 128.487 429.303 128.12 428.236 128.12C427.276 128.12 426.523 128.493 425.976 129.24C425.43 129.987 425.156 130.9 425.156 131.98ZM436.907 137H435.327L435.347 126.86H436.907V128.64C437.44 127.387 438.36 126.76 439.667 126.76C439.907 126.76 440.093 126.773 440.227 126.8V128.36C439.947 128.267 439.66 128.22 439.367 128.22C438.66 128.22 438.073 128.547 437.607 129.2C437.14 129.853 436.907 130.607 436.907 131.46V137ZM444.97 135.78C445.69 135.78 446.263 135.58 446.69 135.18C447.117 134.767 447.33 134.247 447.33 133.62V132.32H445.57C444.717 132.32 444.077 132.487 443.65 132.82C443.223 133.153 443.01 133.573 443.01 134.08C443.01 134.587 443.177 135 443.51 135.32C443.843 135.627 444.33 135.78 444.97 135.78ZM447.35 135.8C446.83 136.667 445.883 137.1 444.51 137.1C443.563 137.1 442.797 136.82 442.21 136.26C441.637 135.7 441.35 134.993 441.35 134.14C441.35 133.167 441.717 132.413 442.45 131.88C443.197 131.333 444.21 131.06 445.49 131.06H447.33V130.54C447.33 129.74 447.15 129.14 446.79 128.74C446.43 128.327 445.823 128.12 444.97 128.12C443.89 128.12 442.93 128.407 442.09 128.98V127.4C442.85 126.933 443.85 126.7 445.09 126.7C447.637 126.7 448.91 127.993 448.91 130.58V137H447.35V135.8ZM459.894 136.18C459.894 137.727 459.467 138.887 458.614 139.66C457.761 140.447 456.661 140.84 455.314 140.84C454.087 140.84 453.041 140.633 452.174 140.22V138.64C453.027 139.133 454.027 139.38 455.174 139.38C456.147 139.38 456.914 139.12 457.474 138.6C458.034 138.08 458.314 137.267 458.314 136.16V135.02C457.647 136.167 456.654 136.74 455.334 136.74C454.174 136.74 453.181 136.313 452.354 135.46C451.541 134.607 451.134 133.42 451.134 131.9C451.134 130.393 451.514 129.153 452.274 128.18C453.034 127.207 454.027 126.72 455.254 126.72C456.641 126.72 457.661 127.327 458.314 128.54V126.86H459.894V136.18ZM452.774 131.86C452.774 132.993 453.054 133.86 453.614 134.46C454.174 135.047 454.807 135.34 455.514 135.34C456.247 135.34 456.894 135.06 457.454 134.5C458.027 133.927 458.314 133.08 458.314 131.96C458.314 130.667 458.041 129.707 457.494 129.08C456.947 128.453 456.314 128.14 455.594 128.14C454.727 128.14 454.041 128.487 453.534 129.18C453.027 129.86 452.774 130.753 452.774 131.86ZM470.09 136.48C469.304 136.893 468.344 137.1 467.21 137.1C465.677 137.1 464.437 136.633 463.49 135.7C462.557 134.753 462.09 133.507 462.09 131.96C462.09 130.347 462.51 129.073 463.35 128.14C464.19 127.207 465.27 126.74 466.59 126.74C467.857 126.74 468.864 127.147 469.61 127.96C470.357 128.773 470.73 129.927 470.73 131.42C470.73 131.847 470.697 132.24 470.63 132.6H463.71C463.83 133.6 464.21 134.367 464.85 134.9C465.49 135.433 466.33 135.7 467.37 135.7C468.504 135.7 469.41 135.467 470.09 135V136.48ZM466.59 128.12C465.83 128.12 465.184 128.393 464.65 128.94C464.117 129.487 463.804 130.267 463.71 131.28H469.15V130.88C469.15 130.04 468.924 129.373 468.47 128.88C468.017 128.373 467.39 128.12 466.59 128.12Z" fill="black"/>
<path d="M100 54.2133C100 71.6155 86.299 84 66.0656 84C46.6664 84 31 70.3734 31 53.5C31 36.6266 46.6664 23 66.0656 23C75.5107 23 83.457 26.0131 89.5793 30.9817L80.0352 38.9633C67.5502 28.4851 44.3334 36.356 44.3334 53.5C44.3334 64.1381 54.1037 72.7593 66.0656 72.7593C79.9504 72.7593 85.1537 64.1012 85.9738 59.6123H66.0656V49.1218H99.4486C99.7738 50.6837 100 52.1841 100 54.2133Z" fill="#FFA800"/>
</svg>
