<svg width="638" height="158" viewBox="0 0 638 158" fill="none" xmlns="http://www.w3.org/2000/svg">
<rect width="638" height="158" fill="white"/>
<path d="M168.137 81H164.249V66.36H148.553V81H144.665V48.648H148.553V62.856H164.249V48.648H168.137V81ZM196.725 68.904C196.725 72.52 195.701 75.512 193.653 77.88C191.605 80.248 188.789 81.432 185.205 81.432C181.717 81.432 178.949 80.264 176.901 77.928C174.885 75.56 173.877 72.584 173.877 69C173.877 65.384 174.917 62.376 176.997 59.976C179.109 57.544 181.845 56.328 185.205 56.328C188.885 56.328 191.717 57.512 193.701 59.88C195.717 62.248 196.725 65.256 196.725 68.904ZM177.812 68.952C177.812 71.48 178.485 73.64 179.829 75.432C181.173 77.192 182.965 78.072 185.205 78.072C187.637 78.072 189.509 77.208 190.821 75.48C192.133 73.72 192.789 71.544 192.789 68.952C192.789 66.264 192.165 64.056 190.917 62.328C189.669 60.568 187.765 59.688 185.205 59.688C182.901 59.688 181.093 60.584 179.781 62.376C178.469 64.168 177.812 66.36 177.812 68.952ZM216.91 74.52C216.91 76.6 216.174 78.248 214.702 79.464C213.262 80.68 211.278 81.288 208.75 81.288C205.806 81.288 203.422 80.792 201.598 79.8V76.104C203.742 77.384 206.046 78.024 208.51 78.024C209.982 78.024 211.102 77.736 211.87 77.16C212.638 76.584 213.022 75.8 213.022 74.808C213.022 73.656 212.59 72.76 211.726 72.12C210.894 71.48 209.486 70.76 207.502 69.96C205.678 69.256 204.206 68.376 203.086 67.32C201.998 66.264 201.454 64.84 201.454 63.048C201.454 61.032 202.206 59.432 203.71 58.248C205.246 57.032 207.15 56.424 209.422 56.424C211.95 56.424 213.982 56.776 215.518 57.48V61.08C214.046 60.184 212.03 59.736 209.47 59.736C208.19 59.736 207.166 60.04 206.398 60.648C205.662 61.224 205.294 61.976 205.294 62.904C205.294 63.48 205.406 63.992 205.63 64.44C205.854 64.856 206.286 65.272 206.926 65.688C207.598 66.104 208.078 66.392 208.366 66.552C208.686 66.68 209.358 66.968 210.382 67.416C212.43 68.248 214.03 69.192 215.182 70.248C216.334 71.304 216.91 72.728 216.91 74.52ZM234.243 80.376C233.187 80.952 232.003 81.24 230.691 81.24C225.891 81.24 223.491 78.792 223.491 73.896V59.736H219.603V56.664H223.491V50.616H227.283V56.664H234.003V59.736H227.283V73.992C227.283 76.584 228.499 77.88 230.931 77.88C232.179 77.88 233.283 77.512 234.243 76.776V80.376ZM243.754 81H239.962V56.664H243.754V81ZM243.61 47.256C244.09 47.736 244.33 48.328 244.33 49.032C244.33 49.736 244.09 50.328 243.61 50.808C243.13 51.256 242.538 51.48 241.834 51.48C241.13 51.48 240.538 51.256 240.058 50.808C239.61 50.328 239.386 49.736 239.386 49.032C239.386 48.328 239.61 47.736 240.058 47.256C240.538 46.776 241.13 46.536 241.834 46.536C242.538 46.536 243.13 46.776 243.61 47.256ZM270.173 81H266.381V65.256C266.381 63.464 265.917 62.104 264.989 61.176C264.093 60.216 262.909 59.736 261.437 59.736C259.613 59.736 258.029 60.44 256.685 61.848C255.373 63.256 254.717 65.208 254.717 67.704V81H250.973V56.664H254.717V60.888C256.157 57.848 258.717 56.328 262.397 56.328C264.765 56.328 266.653 57.048 268.061 58.488C269.469 59.928 270.173 61.848 270.173 64.248V81ZM296.527 79.032C296.527 82.744 295.503 85.528 293.455 87.384C291.407 89.272 288.767 90.216 285.535 90.216C282.591 90.216 280.079 89.72 277.999 88.728V84.936C280.047 86.12 282.447 86.712 285.199 86.712C287.535 86.712 289.375 86.088 290.719 84.84C292.063 83.592 292.735 81.64 292.735 78.984V76.248C291.135 79 288.751 80.376 285.583 80.376C282.799 80.376 280.415 79.352 278.431 77.304C276.479 75.256 275.503 72.408 275.503 68.76C275.503 65.144 276.415 62.168 278.239 59.832C280.063 57.496 282.447 56.328 285.391 56.328C288.719 56.328 291.167 57.784 292.735 60.696V56.664H296.527V79.032ZM279.439 68.664C279.439 71.384 280.111 73.464 281.455 74.904C282.799 76.312 284.319 77.016 286.015 77.016C287.775 77.016 289.327 76.344 290.671 75C292.047 73.624 292.735 71.592 292.735 68.904C292.735 65.8 292.079 63.496 290.767 61.992C289.455 60.488 287.935 59.736 286.207 59.736C284.127 59.736 282.479 60.568 281.263 62.232C280.047 63.864 279.439 66.008 279.439 68.664ZM320.998 79.752C319.11 80.744 316.806 81.24 314.086 81.24C310.406 81.24 307.43 80.12 305.158 77.88C302.918 75.608 301.798 72.616 301.798 68.904C301.798 65.032 302.806 61.976 304.822 59.736C306.838 57.496 309.43 56.376 312.598 56.376C315.638 56.376 318.054 57.352 319.846 59.304C321.638 61.256 322.534 64.024 322.534 67.608C322.534 68.632 322.454 69.576 322.294 70.44H305.686C305.974 72.84 306.886 74.68 308.422 75.96C309.958 77.24 311.974 77.88 314.47 77.88C317.19 77.88 319.366 77.32 320.998 76.2V79.752ZM312.598 59.688C310.774 59.688 309.222 60.344 307.942 61.656C306.662 62.968 305.91 64.84 305.686 67.272H318.742V66.312C318.742 64.296 318.198 62.696 317.11 61.512C316.022 60.296 314.518 59.688 312.598 59.688ZM332.061 81H328.269L328.317 56.664H332.061V60.936C333.341 57.928 335.549 56.424 338.685 56.424C339.261 56.424 339.709 56.456 340.029 56.52V60.264C339.357 60.04 338.669 59.928 337.965 59.928C336.269 59.928 334.861 60.712 333.741 62.28C332.621 63.848 332.061 65.656 332.061 67.704V81ZM373.932 81H355.884V48.648H373.692V52.056H359.772V63.144H372.06V66.552H359.772V77.592H373.932V81ZM412.282 81H408.49V65.256C408.49 61.576 406.938 59.736 403.834 59.736C402.298 59.736 400.922 60.44 399.706 61.848C398.49 63.224 397.882 65.176 397.882 67.704V81H394.09V65.256C394.09 61.576 392.538 59.736 389.434 59.736C387.898 59.736 386.522 60.44 385.306 61.848C384.09 63.224 383.482 65.176 383.482 67.704V81H379.738V56.664H383.482V60.6C384.826 57.752 387.114 56.328 390.346 56.328C394.09 56.328 396.458 57.912 397.45 61.08C398.154 59.544 399.13 58.376 400.378 57.576C401.658 56.744 403.082 56.328 404.65 56.328C407.178 56.328 409.082 57.048 410.362 58.488C411.642 59.928 412.282 61.864 412.282 64.296V81ZM426.46 78.072C428.188 78.072 429.564 77.592 430.588 76.632C431.612 75.64 432.124 74.392 432.124 72.888V69.768H427.9C425.852 69.768 424.316 70.168 423.292 70.968C422.268 71.768 421.756 72.776 421.756 73.992C421.756 75.208 422.156 76.2 422.956 76.968C423.756 77.704 424.924 78.072 426.46 78.072ZM432.172 78.12C430.924 80.2 428.652 81.24 425.356 81.24C423.084 81.24 421.244 80.568 419.836 79.224C418.46 77.88 417.772 76.184 417.772 74.136C417.772 71.8 418.652 69.992 420.412 68.712C422.204 67.4 424.636 66.744 427.708 66.744H432.124V65.496C432.124 63.576 431.692 62.136 430.828 61.176C429.964 60.184 428.508 59.688 426.46 59.688C423.868 59.688 421.564 60.376 419.548 61.752V57.96C421.372 56.84 423.772 56.28 426.748 56.28C432.86 56.28 435.916 59.384 435.916 65.592V81H432.172V78.12ZM446.629 81H442.837V56.664H446.629V81ZM446.485 47.256C446.965 47.736 447.205 48.328 447.205 49.032C447.205 49.736 446.965 50.328 446.485 50.808C446.005 51.256 445.413 51.48 444.709 51.48C444.005 51.48 443.413 51.256 442.933 50.808C442.485 50.328 442.261 49.736 442.261 49.032C442.261 48.328 442.485 47.736 442.933 47.256C443.413 46.776 444.005 46.536 444.709 46.536C445.413 46.536 446.005 46.776 446.485 47.256ZM457.832 81H454.04V47.064H457.832V81ZM500.434 81H496.546V66.36H480.85V81H476.962V48.648H480.85V62.856H496.546V48.648H500.434V81ZM529.021 68.904C529.021 72.52 527.997 75.512 525.949 77.88C523.901 80.248 521.085 81.432 517.501 81.432C514.013 81.432 511.245 80.264 509.197 77.928C507.181 75.56 506.173 72.584 506.173 69C506.173 65.384 507.213 62.376 509.293 59.976C511.405 57.544 514.141 56.328 517.501 56.328C521.181 56.328 524.013 57.512 525.997 59.88C528.013 62.248 529.021 65.256 529.021 68.904ZM510.109 68.952C510.109 71.48 510.781 73.64 512.125 75.432C513.469 77.192 515.261 78.072 517.501 78.072C519.933 78.072 521.805 77.208 523.117 75.48C524.429 73.72 525.085 71.544 525.085 68.952C525.085 66.264 524.461 64.056 523.213 62.328C521.965 60.568 520.061 59.688 517.501 59.688C515.197 59.688 513.389 60.584 512.077 62.376C510.765 64.168 510.109 66.36 510.109 68.952ZM549.207 74.52C549.207 76.6 548.471 78.248 546.999 79.464C545.559 80.68 543.575 81.288 541.047 81.288C538.103 81.288 535.719 80.792 533.895 79.8V76.104C536.039 77.384 538.343 78.024 540.807 78.024C542.279 78.024 543.399 77.736 544.167 77.16C544.935 76.584 545.319 75.8 545.319 74.808C545.319 73.656 544.887 72.76 544.023 72.12C543.191 71.48 541.783 70.76 539.799 69.96C537.975 69.256 536.503 68.376 535.383 67.32C534.295 66.264 533.751 64.84 533.751 63.048C533.751 61.032 534.503 59.432 536.007 58.248C537.543 57.032 539.447 56.424 541.719 56.424C544.247 56.424 546.279 56.776 547.815 57.48V61.08C546.343 60.184 544.327 59.736 541.767 59.736C540.487 59.736 539.463 60.04 538.695 60.648C537.959 61.224 537.591 61.976 537.591 62.904C537.591 63.48 537.703 63.992 537.927 64.44C538.151 64.856 538.583 65.272 539.223 65.688C539.895 66.104 540.375 66.392 540.663 66.552C540.983 66.68 541.655 66.968 542.679 67.416C544.727 68.248 546.327 69.192 547.479 70.248C548.631 71.304 549.207 72.728 549.207 74.52ZM566.54 80.376C565.484 80.952 564.3 81.24 562.988 81.24C558.188 81.24 555.788 78.792 555.788 73.896V59.736H551.9V56.664H555.788V50.616H559.58V56.664H566.3V59.736H559.58V73.992C559.58 76.584 560.796 77.88 563.228 77.88C564.476 77.88 565.58 77.512 566.54 76.776V80.376ZM576.051 81H572.259V56.664H576.051V81ZM575.907 47.256C576.387 47.736 576.627 48.328 576.627 49.032C576.627 49.736 576.387 50.328 575.907 50.808C575.427 51.256 574.835 51.48 574.131 51.48C573.427 51.48 572.835 51.256 572.355 50.808C571.907 50.328 571.683 49.736 571.683 49.032C571.683 48.328 571.907 47.736 572.355 47.256C572.835 46.776 573.427 46.536 574.131 46.536C574.835 46.536 575.427 46.776 575.907 47.256ZM602.47 81H598.678V65.256C598.678 63.464 598.214 62.104 597.286 61.176C596.39 60.216 595.206 59.736 593.734 59.736C591.91 59.736 590.326 60.44 588.982 61.848C587.67 63.256 587.014 65.208 587.014 67.704V81H583.27V56.664H587.014V60.888C588.454 57.848 591.014 56.328 594.694 56.328C597.062 56.328 598.95 57.048 600.358 58.488C601.766 59.928 602.47 61.848 602.47 64.248V81ZM628.824 79.032C628.824 82.744 627.8 85.528 625.752 87.384C623.704 89.272 621.064 90.216 617.832 90.216C614.888 90.216 612.376 89.72 610.296 88.728V84.936C612.344 86.12 614.744 86.712 617.496 86.712C619.832 86.712 621.672 86.088 623.016 84.84C624.36 83.592 625.032 81.64 625.032 78.984V76.248C623.432 79 621.048 80.376 617.88 80.376C615.096 80.376 612.712 79.352 610.728 77.304C608.776 75.256 607.8 72.408 607.8 68.76C607.8 65.144 608.712 62.168 610.536 59.832C612.36 57.496 614.744 56.328 617.688 56.328C621.016 56.328 623.464 57.784 625.032 60.696V56.664H628.824V79.032ZM611.736 68.664C611.736 71.384 612.408 73.464 613.752 74.904C615.096 76.312 616.616 77.016 618.312 77.016C620.072 77.016 621.624 76.344 622.968 75C624.344 73.624 625.032 71.592 625.032 68.904C625.032 65.8 624.376 63.496 623.064 61.992C621.752 60.488 620.232 59.736 618.504 59.736C616.424 59.736 614.776 60.568 613.56 62.232C612.344 63.864 611.736 66.008 611.736 68.664Z" fill="black"/>
<path d="M145.24 110.04H143.16V115H141.54V101.52H145.08C146.64 101.52 147.867 101.927 148.76 102.74C149.667 103.54 150.12 104.58 150.12 105.86C150.12 107.06 149.673 108.06 148.78 108.86C147.887 109.647 146.707 110.04 145.24 110.04ZM145.1 102.9H143.16V108.66H145.24C146.253 108.66 147.047 108.4 147.62 107.88C148.193 107.347 148.48 106.673 148.48 105.86C148.48 104.953 148.187 104.233 147.6 103.7C147.013 103.167 146.18 102.9 145.1 102.9ZM153.918 115H152.338L152.358 104.86H153.918V106.64C154.452 105.387 155.372 104.76 156.678 104.76C156.918 104.76 157.105 104.773 157.238 104.8V106.36C156.958 106.267 156.672 106.22 156.378 106.22C155.672 106.22 155.085 106.547 154.618 107.2C154.152 107.853 153.918 108.607 153.918 109.46V115ZM167.802 109.96C167.802 111.467 167.375 112.713 166.522 113.7C165.669 114.687 164.495 115.18 163.002 115.18C161.549 115.18 160.395 114.693 159.542 113.72C158.702 112.733 158.282 111.493 158.282 110C158.282 108.493 158.715 107.24 159.582 106.24C160.462 105.227 161.602 104.72 163.002 104.72C164.535 104.72 165.715 105.213 166.542 106.2C167.382 107.187 167.802 108.44 167.802 109.96ZM159.922 109.98C159.922 111.033 160.202 111.933 160.762 112.68C161.322 113.413 162.069 113.78 163.002 113.78C164.015 113.78 164.795 113.42 165.342 112.7C165.889 111.967 166.162 111.06 166.162 109.98C166.162 108.86 165.902 107.94 165.382 107.22C164.862 106.487 164.069 106.12 163.002 106.12C162.042 106.12 161.289 106.493 160.742 107.24C160.195 107.987 159.922 108.9 159.922 109.98ZM183.672 115H182.092V108.44C182.092 106.907 181.446 106.14 180.152 106.14C179.512 106.14 178.939 106.433 178.432 107.02C177.926 107.593 177.672 108.407 177.672 109.46V115H176.092V108.44C176.092 106.907 175.446 106.14 174.152 106.14C173.512 106.14 172.939 106.433 172.432 107.02C171.926 107.593 171.672 108.407 171.672 109.46V115H170.112V104.86H171.672V106.5C172.232 105.313 173.186 104.72 174.532 104.72C176.092 104.72 177.079 105.38 177.492 106.7C177.786 106.06 178.192 105.573 178.712 105.24C179.246 104.893 179.839 104.72 180.492 104.72C181.546 104.72 182.339 105.02 182.872 105.62C183.406 106.22 183.672 107.027 183.672 108.04V115ZM195.4 109.96C195.4 111.467 194.973 112.713 194.12 113.7C193.266 114.687 192.093 115.18 190.6 115.18C189.146 115.18 187.993 114.693 187.14 113.72C186.3 112.733 185.88 111.493 185.88 110C185.88 108.493 186.313 107.24 187.18 106.24C188.06 105.227 189.2 104.72 190.6 104.72C192.133 104.72 193.313 105.213 194.14 106.2C194.98 107.187 195.4 108.44 195.4 109.96ZM187.52 109.98C187.52 111.033 187.8 111.933 188.36 112.68C188.92 113.413 189.666 113.78 190.6 113.78C191.613 113.78 192.393 113.42 192.94 112.7C193.486 111.967 193.76 111.06 193.76 109.98C193.76 108.86 193.5 107.94 192.98 107.22C192.46 106.487 191.666 106.12 190.6 106.12C189.64 106.12 188.886 106.493 188.34 107.24C187.793 107.987 187.52 108.9 187.52 109.98ZM202.79 114.74C202.35 114.98 201.857 115.1 201.31 115.1C199.31 115.1 198.31 114.08 198.31 112.04V106.14H196.69V104.86H198.31V102.34H199.89V104.86H202.69V106.14H199.89V112.08C199.89 113.16 200.397 113.7 201.41 113.7C201.93 113.7 202.39 113.547 202.79 113.24V114.74ZM212.493 114.48C211.706 114.893 210.746 115.1 209.613 115.1C208.079 115.1 206.839 114.633 205.893 113.7C204.959 112.753 204.493 111.507 204.493 109.96C204.493 108.347 204.913 107.073 205.753 106.14C206.593 105.207 207.673 104.74 208.993 104.74C210.259 104.74 211.266 105.147 212.013 105.96C212.759 106.773 213.133 107.927 213.133 109.42C213.133 109.847 213.099 110.24 213.033 110.6H206.113C206.233 111.6 206.613 112.367 207.253 112.9C207.893 113.433 208.733 113.7 209.773 113.7C210.906 113.7 211.813 113.467 212.493 113V114.48ZM208.993 106.12C208.233 106.12 207.586 106.393 207.053 106.94C206.519 107.487 206.206 108.267 206.113 109.28H211.553V108.88C211.553 108.04 211.326 107.373 210.873 106.88C210.419 106.373 209.793 106.12 208.993 106.12ZM224.825 114.74C224.305 116.113 223.685 117.08 222.965 117.64C222.258 118.2 221.445 118.48 220.525 118.48C220.178 118.48 219.898 118.447 219.685 118.38V116.96C219.885 117.013 220.112 117.04 220.365 117.04C221.712 117.04 222.665 116.273 223.225 114.74L219.125 104.86H220.905L222.225 108.2L224.005 112.8C224.112 112.453 224.645 110.92 225.605 108.2L226.785 104.86H228.485L224.825 114.74ZM239.208 109.96C239.208 111.467 238.781 112.713 237.928 113.7C237.075 114.687 235.901 115.18 234.408 115.18C232.955 115.18 231.801 114.693 230.948 113.72C230.108 112.733 229.688 111.493 229.688 110C229.688 108.493 230.121 107.24 230.988 106.24C231.868 105.227 233.008 104.72 234.408 104.72C235.941 104.72 237.121 105.213 237.948 106.2C238.788 107.187 239.208 108.44 239.208 109.96ZM231.328 109.98C231.328 111.033 231.608 111.933 232.168 112.68C232.728 113.413 233.475 113.78 234.408 113.78C235.421 113.78 236.201 113.42 236.748 112.7C237.295 111.967 237.568 111.06 237.568 109.98C237.568 108.86 237.308 107.94 236.788 107.22C236.268 106.487 235.475 106.12 234.408 106.12C233.448 106.12 232.695 106.493 232.148 107.24C231.601 107.987 231.328 108.9 231.328 109.98ZM249.399 115H247.819V113.24C247.285 114.493 246.225 115.12 244.639 115.12C243.639 115.12 242.845 114.827 242.259 114.24C241.685 113.64 241.399 112.84 241.399 111.84V104.86H242.979V111.44C242.979 112.173 243.165 112.733 243.539 113.12C243.912 113.507 244.419 113.7 245.059 113.7C245.899 113.7 246.565 113.407 247.059 112.82C247.565 112.233 247.819 111.44 247.819 110.44V104.86H249.399V115ZM253.879 115H252.299L252.319 104.86H253.879V106.64C254.413 105.387 255.333 104.76 256.639 104.76C256.879 104.76 257.066 104.773 257.199 104.8V106.36C256.919 106.267 256.633 106.22 256.339 106.22C255.633 106.22 255.046 106.547 254.579 107.2C254.113 107.853 253.879 108.607 253.879 109.46V115ZM265.366 115H263.786V100.86H265.366V106.38C266.099 105.26 267.126 104.7 268.446 104.7C269.726 104.7 270.772 105.193 271.586 106.18C272.399 107.153 272.806 108.433 272.806 110.02C272.806 111.447 272.419 112.66 271.646 113.66C270.886 114.66 269.832 115.16 268.486 115.16C267.126 115.16 266.086 114.607 265.366 113.5V115ZM265.366 109.86C265.366 111.207 265.652 112.187 266.226 112.8C266.812 113.413 267.519 113.72 268.346 113.72C269.159 113.72 269.832 113.38 270.366 112.7C270.899 112.02 271.166 111.133 271.166 110.04C271.166 108.787 270.886 107.827 270.326 107.16C269.779 106.48 269.086 106.14 268.246 106.14C267.526 106.14 266.866 106.44 266.266 107.04C265.666 107.64 265.366 108.58 265.366 109.86ZM283.012 115H281.432V113.24C280.899 114.493 279.839 115.12 278.252 115.12C277.252 115.12 276.459 114.827 275.872 114.24C275.299 113.64 275.012 112.84 275.012 111.84V104.86H276.592V111.44C276.592 112.173 276.779 112.733 277.152 113.12C277.525 113.507 278.032 113.7 278.672 113.7C279.512 113.7 280.179 113.407 280.672 112.82C281.179 112.233 281.432 111.44 281.432 110.44V104.86H283.012V115ZM292.033 112.3C292.033 113.167 291.726 113.853 291.113 114.36C290.513 114.867 289.686 115.12 288.633 115.12C287.406 115.12 286.413 114.913 285.653 114.5V112.96C286.546 113.493 287.506 113.76 288.533 113.76C289.146 113.76 289.613 113.64 289.933 113.4C290.253 113.16 290.413 112.833 290.413 112.42C290.413 111.94 290.233 111.567 289.873 111.3C289.526 111.033 288.939 110.733 288.113 110.4C287.353 110.107 286.739 109.74 286.273 109.3C285.819 108.86 285.593 108.267 285.593 107.52C285.593 106.68 285.906 106.013 286.533 105.52C287.173 105.013 287.966 104.76 288.913 104.76C289.966 104.76 290.813 104.907 291.453 105.2V106.7C290.839 106.327 289.999 106.14 288.933 106.14C288.399 106.14 287.973 106.267 287.653 106.52C287.346 106.76 287.193 107.073 287.193 107.46C287.193 107.7 287.239 107.913 287.333 108.1C287.426 108.273 287.606 108.447 287.873 108.62C288.153 108.793 288.353 108.913 288.473 108.98C288.606 109.033 288.886 109.153 289.313 109.34C290.166 109.687 290.833 110.08 291.313 110.52C291.793 110.96 292.033 111.553 292.033 112.3ZM295.835 115H294.255V104.86H295.835V115ZM295.775 100.94C295.975 101.14 296.075 101.387 296.075 101.68C296.075 101.973 295.975 102.22 295.775 102.42C295.575 102.607 295.328 102.7 295.035 102.7C294.742 102.7 294.495 102.607 294.295 102.42C294.108 102.22 294.015 101.973 294.015 101.68C294.015 101.387 294.108 101.14 294.295 100.94C294.495 100.74 294.742 100.64 295.035 100.64C295.328 100.64 295.575 100.74 295.775 100.94ZM306.843 115H305.263V108.44C305.263 107.693 305.069 107.127 304.683 106.74C304.309 106.34 303.816 106.14 303.203 106.14C302.443 106.14 301.783 106.433 301.223 107.02C300.676 107.607 300.403 108.42 300.403 109.46V115H298.843V104.86H300.403V106.62C301.003 105.353 302.069 104.72 303.603 104.72C304.589 104.72 305.376 105.02 305.963 105.62C306.549 106.22 306.843 107.02 306.843 108.02V115ZM317.044 114.48C316.257 114.893 315.297 115.1 314.164 115.1C312.63 115.1 311.39 114.633 310.444 113.7C309.51 112.753 309.044 111.507 309.044 109.96C309.044 108.347 309.464 107.073 310.304 106.14C311.144 105.207 312.224 104.74 313.544 104.74C314.81 104.74 315.817 105.147 316.564 105.96C317.31 106.773 317.684 107.927 317.684 109.42C317.684 109.847 317.65 110.24 317.584 110.6H310.664C310.784 111.6 311.164 112.367 311.804 112.9C312.444 113.433 313.284 113.7 314.324 113.7C315.457 113.7 316.364 113.467 317.044 113V114.48ZM313.544 106.12C312.784 106.12 312.137 106.393 311.604 106.94C311.07 107.487 310.757 108.267 310.664 109.28H316.104V108.88C316.104 108.04 315.877 107.373 315.424 106.88C314.97 106.373 314.344 106.12 313.544 106.12ZM326.193 112.3C326.193 113.167 325.886 113.853 325.273 114.36C324.673 114.867 323.846 115.12 322.793 115.12C321.566 115.12 320.573 114.913 319.813 114.5V112.96C320.706 113.493 321.666 113.76 322.693 113.76C323.306 113.76 323.773 113.64 324.093 113.4C324.413 113.16 324.573 112.833 324.573 112.42C324.573 111.94 324.393 111.567 324.033 111.3C323.686 111.033 323.099 110.733 322.273 110.4C321.513 110.107 320.899 109.74 320.433 109.3C319.979 108.86 319.753 108.267 319.753 107.52C319.753 106.68 320.066 106.013 320.693 105.52C321.333 105.013 322.126 104.76 323.073 104.76C324.126 104.76 324.973 104.907 325.613 105.2V106.7C324.999 106.327 324.159 106.14 323.093 106.14C322.559 106.14 322.133 106.267 321.813 106.52C321.506 106.76 321.353 107.073 321.353 107.46C321.353 107.7 321.399 107.913 321.493 108.1C321.586 108.273 321.766 108.447 322.033 108.62C322.313 108.793 322.513 108.913 322.633 108.98C322.766 109.033 323.046 109.153 323.473 109.34C324.326 109.687 324.993 110.08 325.473 110.52C325.953 110.96 326.193 111.553 326.193 112.3ZM334.435 112.3C334.435 113.167 334.128 113.853 333.515 114.36C332.915 114.867 332.088 115.12 331.035 115.12C329.808 115.12 328.815 114.913 328.055 114.5V112.96C328.948 113.493 329.908 113.76 330.935 113.76C331.548 113.76 332.015 113.64 332.335 113.4C332.655 113.16 332.815 112.833 332.815 112.42C332.815 111.94 332.635 111.567 332.275 111.3C331.928 111.033 331.342 110.733 330.515 110.4C329.755 110.107 329.142 109.74 328.675 109.3C328.222 108.86 327.995 108.267 327.995 107.52C327.995 106.68 328.308 106.013 328.935 105.52C329.575 105.013 330.368 104.76 331.315 104.76C332.368 104.76 333.215 104.907 333.855 105.2V106.7C333.242 106.327 332.402 106.14 331.335 106.14C330.802 106.14 330.375 106.267 330.055 106.52C329.748 106.76 329.595 107.073 329.595 107.46C329.595 107.7 329.642 107.913 329.735 108.1C329.828 108.273 330.008 108.447 330.275 108.62C330.555 108.793 330.755 108.913 330.875 108.98C331.008 109.033 331.288 109.153 331.715 109.34C332.568 109.687 333.235 110.08 333.715 110.52C334.195 110.96 334.435 111.553 334.435 112.3ZM345.56 115H343.62L340.5 104.86H342.18L343.16 108.22C343.507 109.393 343.793 110.42 344.02 111.3C344.26 112.167 344.413 112.747 344.48 113.04L344.58 113.46C344.78 112.607 345.267 110.853 346.04 108.2L347 104.86H348.68L349.66 108.2L351.16 113.48C351.347 112.693 351.86 110.933 352.7 108.2L353.72 104.86H355.34L352.14 115H350.2L349.24 111.68L347.84 106.62C347.64 107.473 347.187 109.16 346.48 111.68L345.56 115ZM358.96 115H357.38V104.86H358.96V115ZM358.9 100.94C359.1 101.14 359.2 101.387 359.2 101.68C359.2 101.973 359.1 102.22 358.9 102.42C358.7 102.607 358.453 102.7 358.16 102.7C357.867 102.7 357.62 102.607 357.42 102.42C357.233 102.22 357.14 101.973 357.14 101.68C357.14 101.387 357.233 101.14 357.42 100.94C357.62 100.74 357.867 100.64 358.16 100.64C358.453 100.64 358.7 100.74 358.9 100.94ZM367.048 114.74C366.608 114.98 366.114 115.1 365.568 115.1C363.568 115.1 362.568 114.08 362.568 112.04V106.14H360.948V104.86H362.568V102.34H364.148V104.86H366.948V106.14H364.148V112.08C364.148 113.16 364.654 113.7 365.668 113.7C366.188 113.7 366.648 113.547 367.048 113.24V114.74ZM377.351 115H375.771V108.44C375.771 107.707 375.577 107.14 375.191 106.74C374.817 106.34 374.324 106.14 373.711 106.14C372.964 106.14 372.311 106.427 371.751 107C371.191 107.573 370.911 108.393 370.911 109.46V115H369.351V100.86H370.911V106.62C371.511 105.353 372.577 104.72 374.111 104.72C375.084 104.72 375.864 105.02 376.451 105.62C377.051 106.22 377.351 107.033 377.351 108.06V115ZM393.954 109.96C393.954 111.467 393.528 112.713 392.674 113.7C391.821 114.687 390.648 115.18 389.154 115.18C387.701 115.18 386.548 114.693 385.694 113.72C384.854 112.733 384.434 111.493 384.434 110C384.434 108.493 384.868 107.24 385.734 106.24C386.614 105.227 387.754 104.72 389.154 104.72C390.688 104.72 391.868 105.213 392.694 106.2C393.534 107.187 393.954 108.44 393.954 109.96ZM386.074 109.98C386.074 111.033 386.354 111.933 386.914 112.68C387.474 113.413 388.221 113.78 389.154 113.78C390.168 113.78 390.948 113.42 391.494 112.7C392.041 111.967 392.314 111.06 392.314 109.98C392.314 108.86 392.054 107.94 391.534 107.22C391.014 106.487 390.221 106.12 389.154 106.12C388.194 106.12 387.441 106.493 386.894 107.24C386.348 107.987 386.074 108.9 386.074 109.98ZM404.145 115H402.565V113.24C402.031 114.493 400.971 115.12 399.385 115.12C398.385 115.12 397.591 114.827 397.005 114.24C396.431 113.64 396.145 112.84 396.145 111.84V104.86H397.725V111.44C397.725 112.173 397.911 112.733 398.285 113.12C398.658 113.507 399.165 113.7 399.805 113.7C400.645 113.7 401.311 113.407 401.805 112.82C402.311 112.233 402.565 111.44 402.565 110.44V104.86H404.145V115ZM412.145 114.74C411.705 114.98 411.212 115.1 410.665 115.1C408.665 115.1 407.665 114.08 407.665 112.04V106.14H406.045V104.86H407.665V102.34H409.245V104.86H412.045V106.14H409.245V112.08C409.245 113.16 409.752 113.7 410.765 113.7C411.285 113.7 411.745 113.547 412.145 113.24V114.74ZM416.008 115H414.428L414.448 104.86H416.008V106.64C416.542 105.387 417.462 104.76 418.768 104.76C419.008 104.76 419.195 104.773 419.328 104.8V106.36C419.048 106.267 418.762 106.22 418.468 106.22C417.762 106.22 417.175 106.547 416.708 107.2C416.242 107.853 416.008 108.607 416.008 109.46V115ZM428.372 114.48C427.585 114.893 426.625 115.1 425.492 115.1C423.958 115.1 422.718 114.633 421.772 113.7C420.838 112.753 420.372 111.507 420.372 109.96C420.372 108.347 420.792 107.073 421.632 106.14C422.472 105.207 423.552 104.74 424.872 104.74C426.138 104.74 427.145 105.147 427.892 105.96C428.638 106.773 429.012 107.927 429.012 109.42C429.012 109.847 428.978 110.24 428.912 110.6H421.992C422.112 111.6 422.492 112.367 423.132 112.9C423.772 113.433 424.612 113.7 425.652 113.7C426.785 113.7 427.692 113.467 428.372 113V114.48ZM424.872 106.12C424.112 106.12 423.465 106.393 422.932 106.94C422.398 107.487 422.085 108.267 421.992 109.28H427.432V108.88C427.432 108.04 427.205 107.373 426.752 106.88C426.298 106.373 425.672 106.12 424.872 106.12ZM434.521 113.78C435.241 113.78 435.814 113.58 436.241 113.18C436.668 112.767 436.881 112.247 436.881 111.62V110.32H435.121C434.268 110.32 433.628 110.487 433.201 110.82C432.774 111.153 432.561 111.573 432.561 112.08C432.561 112.587 432.728 113 433.061 113.32C433.394 113.627 433.881 113.78 434.521 113.78ZM436.901 113.8C436.381 114.667 435.434 115.1 434.061 115.1C433.114 115.1 432.348 114.82 431.761 114.26C431.188 113.7 430.901 112.993 430.901 112.14C430.901 111.167 431.268 110.413 432.001 109.88C432.748 109.333 433.761 109.06 435.041 109.06H436.881V108.54C436.881 107.74 436.701 107.14 436.341 106.74C435.981 106.327 435.374 106.12 434.521 106.12C433.441 106.12 432.481 106.407 431.641 106.98V105.4C432.401 104.933 433.401 104.7 434.641 104.7C437.188 104.7 438.461 105.993 438.461 108.58V115H436.901V113.8ZM448.245 114.64C447.605 115.027 446.818 115.22 445.885 115.22C444.285 115.22 443.011 114.713 442.065 113.7C441.131 112.673 440.665 111.427 440.665 109.96C440.665 108.52 441.131 107.28 442.065 106.24C443.011 105.2 444.298 104.68 445.925 104.68C446.791 104.68 447.565 104.867 448.245 105.24V106.74C447.631 106.327 446.911 106.12 446.085 106.12C444.938 106.12 444.018 106.493 443.325 107.24C442.645 107.973 442.305 108.887 442.305 109.98C442.318 111.073 442.651 111.987 443.305 112.72C443.958 113.44 444.885 113.8 446.085 113.8C446.858 113.8 447.578 113.58 448.245 113.14V114.64ZM458.679 115H457.099V108.44C457.099 107.707 456.905 107.14 456.519 106.74C456.145 106.34 455.652 106.14 455.039 106.14C454.292 106.14 453.639 106.427 453.079 107C452.519 107.573 452.239 108.393 452.239 109.46V115H450.679V100.86H452.239V106.62C452.839 105.353 453.905 104.72 455.439 104.72C456.412 104.72 457.192 105.02 457.779 105.62C458.379 106.22 458.679 107.033 458.679 108.06V115Z" fill="black"/>
<path d="M31 94.1138L36.8388 104.894C37.4192 106.129 38.3095 107.166 39.4101 107.891C40.5108 108.617 41.7784 109 43.0714 109H81.8249L73.7863 94.1138H31ZM98.8661 90.1384L76.2984 47.9609C75.7044 46.7647 74.8167 45.7639 73.7306 45.0661C72.6445 44.3682 71.401 43.9997 70.1337 44H58.1301L93.068 108.942L98.5945 98.7132C98.8525 98.2489 101.446 94.404 98.8661 90.1384ZM68.0697 83.5368L52.3864 54.519L36.703 83.5368H68.0697Z" fill="#FFA800"/>
</svg>
