<svg width="666" height="158" viewBox="0 0 666 158" fill="none" xmlns="http://www.w3.org/2000/svg">
<rect width="666" height="158" fill="white"/>
<path d="M143.834 71H139.946L142.298 38.648H147.242L151.514 50.456L156.698 65.528C158.554 60.28 160.378 55.256 162.17 50.456L166.634 38.648H171.578L174.41 71H170.522L169.418 58.232L168.266 43.88C166.57 48.616 164.826 53.4 163.034 58.232L158.522 70.28H154.826L150.554 58.232L145.658 44.168C145.658 45.416 145.354 50.104 144.746 58.232L143.834 71ZM185.23 71H181.438V46.664H185.23V71ZM185.086 37.256C185.566 37.736 185.806 38.328 185.806 39.032C185.806 39.736 185.566 40.328 185.086 40.808C184.606 41.256 184.014 41.48 183.31 41.48C182.606 41.48 182.014 41.256 181.534 40.808C181.086 40.328 180.862 39.736 180.862 39.032C180.862 38.328 181.086 37.736 181.534 37.256C182.014 36.776 182.606 36.536 183.31 36.536C184.014 36.536 184.606 36.776 185.086 37.256ZM211.649 71H207.857V55.256C207.857 53.464 207.393 52.104 206.465 51.176C205.569 50.216 204.385 49.736 202.913 49.736C201.089 49.736 199.505 50.44 198.161 51.848C196.849 53.256 196.193 55.208 196.193 57.704V71H192.449V46.664H196.193V50.888C197.633 47.848 200.193 46.328 203.873 46.328C206.241 46.328 208.129 47.048 209.537 48.488C210.945 49.928 211.649 51.848 211.649 54.248V71ZM236.131 69.752C234.243 70.744 231.939 71.24 229.219 71.24C225.539 71.24 222.563 70.12 220.291 67.88C218.051 65.608 216.931 62.616 216.931 58.904C216.931 55.032 217.939 51.976 219.955 49.736C221.971 47.496 224.563 46.376 227.731 46.376C230.771 46.376 233.187 47.352 234.979 49.304C236.771 51.256 237.667 54.024 237.667 57.608C237.667 58.632 237.587 59.576 237.427 60.44H220.819C221.107 62.84 222.019 64.68 223.555 65.96C225.091 67.24 227.107 67.88 229.603 67.88C232.323 67.88 234.499 67.32 236.131 66.2V69.752ZM227.731 49.688C225.907 49.688 224.355 50.344 223.075 51.656C221.795 52.968 221.043 54.84 220.819 57.272H233.875V56.312C233.875 54.296 233.331 52.696 232.243 51.512C231.155 50.296 229.651 49.688 227.731 49.688ZM260.201 70.136C258.665 71.064 256.777 71.528 254.537 71.528C250.697 71.528 247.641 70.312 245.369 67.88C243.129 65.416 242.009 62.424 242.009 58.904C242.009 55.448 243.129 52.472 245.369 49.976C247.641 47.48 250.729 46.232 254.633 46.232C256.713 46.232 258.569 46.68 260.201 47.576V51.176C258.729 50.184 257.001 49.688 255.017 49.688C252.265 49.688 250.057 50.584 248.393 52.376C246.761 54.136 245.945 56.328 245.945 58.952C245.977 61.576 246.777 63.768 248.345 65.528C249.913 67.256 252.137 68.12 255.017 68.12C256.873 68.12 258.601 67.592 260.201 66.536V70.136ZM269.787 71H265.995L266.043 46.664H269.787V50.936C271.067 47.928 273.275 46.424 276.411 46.424C276.987 46.424 277.435 46.456 277.755 46.52V50.264C277.083 50.04 276.395 49.928 275.691 49.928C273.995 49.928 272.587 50.712 271.467 52.28C270.347 53.848 269.787 55.656 269.787 57.704V71ZM289.139 68.072C290.867 68.072 292.243 67.592 293.267 66.632C294.291 65.64 294.803 64.392 294.803 62.888V59.768H290.579C288.531 59.768 286.995 60.168 285.971 60.968C284.947 61.768 284.435 62.776 284.435 63.992C284.435 65.208 284.835 66.2 285.635 66.968C286.435 67.704 287.603 68.072 289.139 68.072ZM294.851 68.12C293.603 70.2 291.331 71.24 288.035 71.24C285.763 71.24 283.923 70.568 282.515 69.224C281.139 67.88 280.451 66.184 280.451 64.136C280.451 61.8 281.331 59.992 283.091 58.712C284.883 57.4 287.315 56.744 290.387 56.744H294.803V55.496C294.803 53.576 294.371 52.136 293.507 51.176C292.643 50.184 291.187 49.688 289.139 49.688C286.547 49.688 284.243 50.376 282.227 51.752V47.96C284.051 46.84 286.451 46.28 289.427 46.28C295.539 46.28 298.595 49.384 298.595 55.592V71H294.851V68.12ZM316.604 49.736H311.228V71H307.436V49.736H303.26V46.664H307.436V44.408C307.436 42.04 308.06 40.168 309.308 38.792C310.588 37.416 312.348 36.728 314.588 36.728C315.356 36.728 316.14 36.84 316.94 37.064V40.52C316.172 40.264 315.436 40.136 314.732 40.136C313.708 40.136 312.86 40.488 312.188 41.192C311.548 41.896 311.228 42.984 311.228 44.456V46.664H316.604V49.736ZM333.313 70.376C332.257 70.952 331.073 71.24 329.761 71.24C324.961 71.24 322.561 68.792 322.561 63.896V49.736H318.673V46.664H322.561V40.616H326.353V46.664H333.073V49.736H326.353V63.992C326.353 66.584 327.569 67.88 330.001 67.88C331.249 67.88 332.353 67.512 333.313 66.776V70.376ZM369.471 62.408C369.471 65.256 368.495 67.464 366.543 69.032C364.591 70.568 362.079 71.336 359.007 71.336C355.615 71.336 352.735 70.648 350.367 69.272V65.096C352.703 66.856 355.551 67.736 358.911 67.736C360.927 67.736 362.511 67.288 363.663 66.392C364.815 65.496 365.391 64.2 365.391 62.504C365.391 61.8 365.247 61.176 364.959 60.632C364.703 60.056 364.255 59.544 363.615 59.096C363.007 58.616 362.415 58.232 361.839 57.944C361.295 57.624 360.543 57.24 359.583 56.792C359.391 56.696 359.103 56.568 358.719 56.408C357.343 55.8 356.287 55.304 355.551 54.92C354.847 54.536 353.999 53.976 353.007 53.24C352.047 52.472 351.343 51.592 350.895 50.6C350.447 49.608 350.223 48.456 350.223 47.144C350.223 44.392 351.199 42.248 353.151 40.712C355.135 39.144 357.615 38.36 360.591 38.36C363.375 38.36 365.743 38.856 367.695 39.848V43.928C365.743 42.648 363.407 42.008 360.687 42.008C358.735 42.008 357.183 42.472 356.031 43.4C354.879 44.296 354.303 45.48 354.303 46.952C354.303 47.72 354.447 48.408 354.735 49.016C355.055 49.624 355.599 50.2 356.367 50.744C357.135 51.256 357.791 51.656 358.335 51.944C358.879 52.2 359.727 52.584 360.879 53.096C361.967 53.576 362.799 53.96 363.375 54.248C363.951 54.504 364.687 54.936 365.583 55.544C366.511 56.12 367.199 56.696 367.647 57.272C368.127 57.816 368.543 58.552 368.895 59.48C369.279 60.376 369.471 61.352 369.471 62.408ZM393.491 69.752C391.603 70.744 389.299 71.24 386.579 71.24C382.899 71.24 379.923 70.12 377.651 67.88C375.411 65.608 374.291 62.616 374.291 58.904C374.291 55.032 375.299 51.976 377.315 49.736C379.331 47.496 381.923 46.376 385.091 46.376C388.131 46.376 390.547 47.352 392.339 49.304C394.131 51.256 395.027 54.024 395.027 57.608C395.027 58.632 394.947 59.576 394.787 60.44H378.179C378.467 62.84 379.379 64.68 380.915 65.96C382.451 67.24 384.467 67.88 386.963 67.88C389.683 67.88 391.859 67.32 393.491 66.2V69.752ZM385.091 49.688C383.267 49.688 381.715 50.344 380.435 51.656C379.155 52.968 378.403 54.84 378.179 57.272H391.235V56.312C391.235 54.296 390.691 52.696 389.603 51.512C388.515 50.296 387.011 49.688 385.091 49.688ZM404.553 71H400.761L400.809 46.664H404.553V50.936C405.833 47.928 408.041 46.424 411.177 46.424C411.753 46.424 412.201 46.456 412.521 46.52V50.264C411.849 50.04 411.161 49.928 410.457 49.928C408.761 49.928 407.353 50.712 406.233 52.28C405.113 53.848 404.553 55.656 404.553 57.704V71ZM427.313 71H422.657L414.161 46.664H418.097L421.457 56.936L425.009 68.024C425.297 66.648 426.497 62.952 428.609 56.936L432.065 46.664H436.001L427.313 71ZM458.459 69.752C456.571 70.744 454.267 71.24 451.547 71.24C447.867 71.24 444.891 70.12 442.619 67.88C440.379 65.608 439.259 62.616 439.259 58.904C439.259 55.032 440.267 51.976 442.283 49.736C444.299 47.496 446.891 46.376 450.059 46.376C453.099 46.376 455.515 47.352 457.307 49.304C459.099 51.256 459.995 54.024 459.995 57.608C459.995 58.632 459.915 59.576 459.755 60.44H443.147C443.435 62.84 444.347 64.68 445.883 65.96C447.419 67.24 449.435 67.88 451.931 67.88C454.651 67.88 456.827 67.32 458.459 66.2V69.752ZM450.059 49.688C448.235 49.688 446.683 50.344 445.403 51.656C444.123 52.968 443.371 54.84 443.147 57.272H456.203V56.312C456.203 54.296 455.659 52.696 454.571 51.512C453.483 50.296 451.979 49.688 450.059 49.688ZM469.521 71H465.729L465.777 46.664H469.521V50.936C470.801 47.928 473.009 46.424 476.145 46.424C476.721 46.424 477.169 46.456 477.489 46.52V50.264C476.817 50.04 476.129 49.928 475.425 49.928C473.729 49.928 472.321 50.712 471.201 52.28C470.081 53.848 469.521 55.656 469.521 57.704V71ZM516.816 71H512.928V56.36H497.232V71H493.344V38.648H497.232V52.856H512.928V38.648H516.816V71ZM545.404 58.904C545.404 62.52 544.38 65.512 542.332 67.88C540.284 70.248 537.468 71.432 533.884 71.432C530.396 71.432 527.628 70.264 525.58 67.928C523.564 65.56 522.556 62.584 522.556 59C522.556 55.384 523.596 52.376 525.676 49.976C527.788 47.544 530.524 46.328 533.884 46.328C537.564 46.328 540.396 47.512 542.38 49.88C544.396 52.248 545.404 55.256 545.404 58.904ZM526.492 58.952C526.492 61.48 527.164 63.64 528.508 65.432C529.852 67.192 531.644 68.072 533.884 68.072C536.316 68.072 538.188 67.208 539.5 65.48C540.812 63.72 541.468 61.544 541.468 58.952C541.468 56.264 540.844 54.056 539.596 52.328C538.348 50.568 536.444 49.688 533.884 49.688C531.58 49.688 529.772 50.584 528.46 52.376C527.148 54.168 526.492 56.36 526.492 58.952ZM565.589 64.52C565.589 66.6 564.853 68.248 563.381 69.464C561.941 70.68 559.957 71.288 557.429 71.288C554.485 71.288 552.101 70.792 550.277 69.8V66.104C552.421 67.384 554.725 68.024 557.189 68.024C558.661 68.024 559.781 67.736 560.549 67.16C561.317 66.584 561.701 65.8 561.701 64.808C561.701 63.656 561.269 62.76 560.405 62.12C559.573 61.48 558.165 60.76 556.181 59.96C554.357 59.256 552.885 58.376 551.765 57.32C550.677 56.264 550.133 54.84 550.133 53.048C550.133 51.032 550.885 49.432 552.389 48.248C553.925 47.032 555.829 46.424 558.101 46.424C560.629 46.424 562.661 46.776 564.197 47.48V51.08C562.725 50.184 560.709 49.736 558.149 49.736C556.869 49.736 555.845 50.04 555.077 50.648C554.341 51.224 553.973 51.976 553.973 52.904C553.973 53.48 554.085 53.992 554.309 54.44C554.533 54.856 554.965 55.272 555.605 55.688C556.277 56.104 556.757 56.392 557.045 56.552C557.365 56.68 558.037 56.968 559.061 57.416C561.109 58.248 562.709 59.192 563.861 60.248C565.013 61.304 565.589 62.728 565.589 64.52ZM582.923 70.376C581.867 70.952 580.683 71.24 579.371 71.24C574.571 71.24 572.171 68.792 572.171 63.896V49.736H568.283V46.664H572.171V40.616H575.963V46.664H582.683V49.736H575.963V63.992C575.963 66.584 577.179 67.88 579.611 67.88C580.859 67.88 581.963 67.512 582.923 66.776V70.376ZM592.433 71H588.641V46.664H592.433V71ZM592.289 37.256C592.769 37.736 593.009 38.328 593.009 39.032C593.009 39.736 592.769 40.328 592.289 40.808C591.809 41.256 591.217 41.48 590.513 41.48C589.809 41.48 589.217 41.256 588.737 40.808C588.289 40.328 588.065 39.736 588.065 39.032C588.065 38.328 588.289 37.736 588.737 37.256C589.217 36.776 589.809 36.536 590.513 36.536C591.217 36.536 591.809 36.776 592.289 37.256ZM618.852 71H615.06V55.256C615.06 53.464 614.596 52.104 613.668 51.176C612.772 50.216 611.588 49.736 610.116 49.736C608.292 49.736 606.708 50.44 605.364 51.848C604.052 53.256 603.396 55.208 603.396 57.704V71H599.652V46.664H603.396V50.888C604.836 47.848 607.396 46.328 611.076 46.328C613.444 46.328 615.332 47.048 616.74 48.488C618.148 49.928 618.852 51.848 618.852 54.248V71ZM645.206 69.032C645.206 72.744 644.182 75.528 642.134 77.384C640.086 79.272 637.446 80.216 634.214 80.216C631.27 80.216 628.758 79.72 626.678 78.728V74.936C628.726 76.12 631.126 76.712 633.878 76.712C636.214 76.712 638.054 76.088 639.398 74.84C640.742 73.592 641.414 71.64 641.414 68.984V66.248C639.814 69 637.43 70.376 634.262 70.376C631.478 70.376 629.094 69.352 627.11 67.304C625.158 65.256 624.182 62.408 624.182 58.76C624.182 55.144 625.094 52.168 626.918 49.832C628.742 47.496 631.126 46.328 634.07 46.328C637.398 46.328 639.846 47.784 641.414 50.696V46.664H645.206V69.032ZM628.118 58.664C628.118 61.384 628.79 63.464 630.134 64.904C631.478 66.312 632.998 67.016 634.694 67.016C636.454 67.016 638.006 66.344 639.35 65C640.726 63.624 641.414 61.592 641.414 58.904C641.414 55.8 640.758 53.496 639.446 51.992C638.134 50.488 636.614 49.736 634.886 49.736C632.806 49.736 631.158 50.568 629.942 52.232C628.726 53.864 628.118 56.008 628.118 58.664Z" fill="black"/>
<path d="M144.34 114.42C144.34 115.607 143.933 116.527 143.12 117.18C142.307 117.82 141.26 118.14 139.98 118.14C138.567 118.14 137.367 117.853 136.38 117.28V115.54C137.353 116.273 138.54 116.64 139.94 116.64C140.78 116.64 141.44 116.453 141.92 116.08C142.4 115.707 142.64 115.167 142.64 114.46C142.64 114.167 142.58 113.907 142.46 113.68C142.353 113.44 142.167 113.227 141.9 113.04C141.647 112.84 141.4 112.68 141.16 112.56C140.933 112.427 140.62 112.267 140.22 112.08C140.14 112.04 140.02 111.987 139.86 111.92C139.287 111.667 138.847 111.46 138.54 111.3C138.247 111.14 137.893 110.907 137.48 110.6C137.08 110.28 136.787 109.913 136.6 109.5C136.413 109.087 136.32 108.607 136.32 108.06C136.32 106.913 136.727 106.02 137.54 105.38C138.367 104.727 139.4 104.4 140.64 104.4C141.8 104.4 142.787 104.607 143.6 105.02V106.72C142.787 106.187 141.813 105.92 140.68 105.92C139.867 105.92 139.22 106.113 138.74 106.5C138.26 106.873 138.02 107.367 138.02 107.98C138.02 108.3 138.08 108.587 138.2 108.84C138.333 109.093 138.56 109.333 138.88 109.56C139.2 109.773 139.473 109.94 139.7 110.06C139.927 110.167 140.28 110.327 140.76 110.54C141.213 110.74 141.56 110.9 141.8 111.02C142.04 111.127 142.347 111.307 142.72 111.56C143.107 111.8 143.393 112.04 143.58 112.28C143.78 112.507 143.953 112.813 144.1 113.2C144.26 113.573 144.34 113.98 144.34 114.42ZM154.948 118H153.368V111.44C153.368 110.707 153.175 110.14 152.788 109.74C152.415 109.34 151.922 109.14 151.308 109.14C150.562 109.14 149.908 109.427 149.348 110C148.788 110.573 148.508 111.393 148.508 112.46V118H146.948V103.86H148.508V109.62C149.108 108.353 150.175 107.72 151.708 107.72C152.682 107.72 153.462 108.02 154.048 108.62C154.648 109.22 154.948 110.033 154.948 111.06V118ZM160.849 116.78C161.569 116.78 162.142 116.58 162.569 116.18C162.996 115.767 163.209 115.247 163.209 114.62V113.32H161.449C160.596 113.32 159.956 113.487 159.529 113.82C159.102 114.153 158.889 114.573 158.889 115.08C158.889 115.587 159.056 116 159.389 116.32C159.722 116.627 160.209 116.78 160.849 116.78ZM163.229 116.8C162.709 117.667 161.762 118.1 160.389 118.1C159.442 118.1 158.676 117.82 158.089 117.26C157.516 116.7 157.229 115.993 157.229 115.14C157.229 114.167 157.596 113.413 158.329 112.88C159.076 112.333 160.089 112.06 161.369 112.06H163.209V111.54C163.209 110.74 163.029 110.14 162.669 109.74C162.309 109.327 161.702 109.12 160.849 109.12C159.769 109.12 158.809 109.407 157.969 109.98V108.4C158.729 107.933 159.729 107.7 160.969 107.7C163.516 107.7 164.789 108.993 164.789 111.58V118H163.229V116.8ZM169.153 118H167.573L167.593 107.86H169.153V109.64C169.686 108.387 170.606 107.76 171.913 107.76C172.153 107.76 172.339 107.773 172.473 107.8V109.36C172.193 109.267 171.906 109.22 171.613 109.22C170.906 109.22 170.319 109.547 169.853 110.2C169.386 110.853 169.153 111.607 169.153 112.46V118ZM181.516 117.48C180.73 117.893 179.77 118.1 178.636 118.1C177.103 118.1 175.863 117.633 174.916 116.7C173.983 115.753 173.516 114.507 173.516 112.96C173.516 111.347 173.936 110.073 174.776 109.14C175.616 108.207 176.696 107.74 178.016 107.74C179.283 107.74 180.29 108.147 181.036 108.96C181.783 109.773 182.156 110.927 182.156 112.42C182.156 112.847 182.123 113.24 182.056 113.6H175.136C175.256 114.6 175.636 115.367 176.276 115.9C176.916 116.433 177.756 116.7 178.796 116.7C179.93 116.7 180.836 116.467 181.516 116V117.48ZM178.016 109.12C177.256 109.12 176.61 109.393 176.076 109.94C175.543 110.487 175.23 111.267 175.136 112.28H180.576V111.88C180.576 111.04 180.35 110.373 179.896 109.88C179.443 109.373 178.816 109.12 178.016 109.12ZM194.708 118H193.088V113L188.508 104.52H190.388L191.408 106.5C192.102 107.833 192.655 108.92 193.068 109.76C193.482 110.6 193.722 111.107 193.788 111.28L193.888 111.52C194.008 111.187 194.855 109.513 196.428 106.5L197.448 104.52H199.328L194.708 112.98V118ZM210.224 112.96C210.224 114.467 209.797 115.713 208.944 116.7C208.09 117.687 206.917 118.18 205.424 118.18C203.97 118.18 202.817 117.693 201.964 116.72C201.124 115.733 200.704 114.493 200.704 113C200.704 111.493 201.137 110.24 202.004 109.24C202.884 108.227 204.024 107.72 205.424 107.72C206.957 107.72 208.137 108.213 208.964 109.2C209.804 110.187 210.224 111.44 210.224 112.96ZM202.344 112.98C202.344 114.033 202.624 114.933 203.184 115.68C203.744 116.413 204.49 116.78 205.424 116.78C206.437 116.78 207.217 116.42 207.764 115.7C208.31 114.967 208.584 114.06 208.584 112.98C208.584 111.86 208.324 110.94 207.804 110.22C207.284 109.487 206.49 109.12 205.424 109.12C204.464 109.12 203.71 109.493 203.164 110.24C202.617 110.987 202.344 111.9 202.344 112.98ZM220.414 118H218.834V116.24C218.301 117.493 217.241 118.12 215.654 118.12C214.654 118.12 213.861 117.827 213.274 117.24C212.701 116.64 212.414 115.84 212.414 114.84V107.86H213.994V114.44C213.994 115.173 214.181 115.733 214.554 116.12C214.928 116.507 215.434 116.7 216.074 116.7C216.914 116.7 217.581 116.407 218.074 115.82C218.581 115.233 218.834 114.44 218.834 113.44V107.86H220.414V118ZM224.895 118H223.315L223.335 107.86H224.895V109.64C225.428 108.387 226.348 107.76 227.655 107.76C227.895 107.76 228.082 107.773 228.215 107.8V109.36C227.935 109.267 227.648 109.22 227.355 109.22C226.648 109.22 226.062 109.547 225.595 110.2C225.128 110.853 224.895 111.607 224.895 112.46V118ZM236.301 118H234.681L235.661 104.52H237.721L239.501 109.44L241.661 115.72C242.435 113.533 243.195 111.44 243.941 109.44L245.801 104.52H247.861L249.041 118H247.421L246.961 112.68L246.481 106.7C245.775 108.673 245.048 110.667 244.301 112.68L242.421 117.7H240.881L239.101 112.68L237.061 106.82C237.061 107.34 236.935 109.293 236.681 112.68L236.301 118ZM253.55 118H251.97V107.86H253.55V118ZM253.49 103.94C253.69 104.14 253.79 104.387 253.79 104.68C253.79 104.973 253.69 105.22 253.49 105.42C253.29 105.607 253.043 105.7 252.75 105.7C252.456 105.7 252.21 105.607 252.01 105.42C251.823 105.22 251.73 104.973 251.73 104.68C251.73 104.387 251.823 104.14 252.01 103.94C252.21 103.74 252.456 103.64 252.75 103.64C253.043 103.64 253.29 103.74 253.49 103.94ZM264.558 118H262.978V111.44C262.978 110.693 262.784 110.127 262.398 109.74C262.024 109.34 261.531 109.14 260.918 109.14C260.158 109.14 259.498 109.433 258.938 110.02C258.391 110.607 258.118 111.42 258.118 112.46V118H256.558V107.86H258.118V109.62C258.718 108.353 259.784 107.72 261.318 107.72C262.304 107.72 263.091 108.02 263.678 108.62C264.264 109.22 264.558 110.02 264.558 111.02V118ZM274.758 117.48C273.972 117.893 273.012 118.1 271.878 118.1C270.345 118.1 269.105 117.633 268.158 116.7C267.225 115.753 266.758 114.507 266.758 112.96C266.758 111.347 267.178 110.073 268.018 109.14C268.858 108.207 269.938 107.74 271.258 107.74C272.525 107.74 273.532 108.147 274.278 108.96C275.025 109.773 275.398 110.927 275.398 112.42C275.398 112.847 275.365 113.24 275.298 113.6H268.378C268.498 114.6 268.878 115.367 269.518 115.9C270.158 116.433 270.998 116.7 272.038 116.7C273.172 116.7 274.078 116.467 274.758 116V117.48ZM271.258 109.12C270.498 109.12 269.852 109.393 269.318 109.94C268.785 110.487 268.472 111.267 268.378 112.28H273.818V111.88C273.818 111.04 273.592 110.373 273.138 109.88C272.685 109.373 272.058 109.12 271.258 109.12ZM284.788 117.64C284.148 118.027 283.361 118.22 282.428 118.22C280.828 118.22 279.554 117.713 278.608 116.7C277.674 115.673 277.208 114.427 277.208 112.96C277.208 111.52 277.674 110.28 278.608 109.24C279.554 108.2 280.841 107.68 282.468 107.68C283.334 107.68 284.108 107.867 284.788 108.24V109.74C284.174 109.327 283.454 109.12 282.628 109.12C281.481 109.12 280.561 109.493 279.868 110.24C279.188 110.973 278.848 111.887 278.848 112.98C278.861 114.073 279.194 114.987 279.848 115.72C280.501 116.44 281.428 116.8 282.628 116.8C283.401 116.8 284.121 116.58 284.788 116.14V117.64ZM288.782 118H287.202L287.222 107.86H288.782V109.64C289.315 108.387 290.235 107.76 291.542 107.76C291.782 107.76 291.968 107.773 292.102 107.8V109.36C291.822 109.267 291.535 109.22 291.242 109.22C290.535 109.22 289.948 109.547 289.482 110.2C289.015 110.853 288.782 111.607 288.782 112.46V118ZM296.845 116.78C297.565 116.78 298.138 116.58 298.565 116.18C298.992 115.767 299.205 115.247 299.205 114.62V113.32H297.445C296.592 113.32 295.952 113.487 295.525 113.82C295.098 114.153 294.885 114.573 294.885 115.08C294.885 115.587 295.052 116 295.385 116.32C295.718 116.627 296.205 116.78 296.845 116.78ZM299.225 116.8C298.705 117.667 297.758 118.1 296.385 118.1C295.438 118.1 294.672 117.82 294.085 117.26C293.512 116.7 293.225 115.993 293.225 115.14C293.225 114.167 293.592 113.413 294.325 112.88C295.072 112.333 296.085 112.06 297.365 112.06H299.205V111.54C299.205 110.74 299.025 110.14 298.665 109.74C298.305 109.327 297.698 109.12 296.845 109.12C295.765 109.12 294.805 109.407 293.965 109.98V108.4C294.725 107.933 295.725 107.7 296.965 107.7C299.512 107.7 300.785 108.993 300.785 111.58V118H299.225V116.8ZM308.289 109.14H306.049V118H304.469V109.14H302.729V107.86H304.469V106.92C304.469 105.933 304.729 105.153 305.249 104.58C305.782 104.007 306.516 103.72 307.449 103.72C307.769 103.72 308.096 103.767 308.429 103.86V105.3C308.109 105.193 307.802 105.14 307.509 105.14C307.082 105.14 306.729 105.287 306.449 105.58C306.182 105.873 306.049 106.327 306.049 106.94V107.86H308.289V109.14ZM315.251 117.74C314.811 117.98 314.318 118.1 313.771 118.1C311.771 118.1 310.771 117.08 310.771 115.04V109.14H309.151V107.86H310.771V105.34H312.351V107.86H315.151V109.14H312.351V115.08C312.351 116.16 312.858 116.7 313.871 116.7C314.391 116.7 314.851 116.547 315.251 116.24V117.74ZM329.837 117.48C329.05 117.893 328.09 118.1 326.957 118.1C325.423 118.1 324.183 117.633 323.237 116.7C322.303 115.753 321.837 114.507 321.837 112.96C321.837 111.347 322.257 110.073 323.097 109.14C323.937 108.207 325.017 107.74 326.337 107.74C327.603 107.74 328.61 108.147 329.357 108.96C330.103 109.773 330.477 110.927 330.477 112.42C330.477 112.847 330.443 113.24 330.377 113.6H323.457C323.577 114.6 323.957 115.367 324.597 115.9C325.237 116.433 326.077 116.7 327.117 116.7C328.25 116.7 329.157 116.467 329.837 116V117.48ZM326.337 109.12C325.577 109.12 324.93 109.393 324.397 109.94C323.863 110.487 323.55 111.267 323.457 112.28H328.897V111.88C328.897 111.04 328.67 110.373 328.217 109.88C327.763 109.373 327.137 109.12 326.337 109.12ZM333.666 118H331.926L335.326 112.8L332.126 107.84H333.946L336.246 111.64L338.566 107.84H340.366L337.086 112.82L340.486 118H338.666L336.206 114L333.666 118ZM343.997 121.94H342.437V107.86H343.997V109.4C344.703 108.267 345.75 107.7 347.137 107.7C348.483 107.7 349.537 108.193 350.297 109.18C351.07 110.153 351.457 111.373 351.457 112.84C351.457 114.4 351.05 115.68 350.237 116.68C349.437 117.667 348.39 118.16 347.097 118.16C345.763 118.16 344.73 117.593 343.997 116.46V121.94ZM343.997 112.94C343.997 114.233 344.297 115.187 344.897 115.8C345.497 116.413 346.163 116.72 346.897 116.72C347.75 116.72 348.45 116.387 348.997 115.72C349.543 115.04 349.817 114.08 349.817 112.84C349.817 111.733 349.55 110.84 349.017 110.16C348.483 109.48 347.81 109.14 346.997 109.14C346.183 109.14 345.477 109.44 344.877 110.04C344.29 110.627 343.997 111.593 343.997 112.94ZM361.184 117.48C360.398 117.893 359.438 118.1 358.304 118.1C356.771 118.1 355.531 117.633 354.584 116.7C353.651 115.753 353.184 114.507 353.184 112.96C353.184 111.347 353.604 110.073 354.444 109.14C355.284 108.207 356.364 107.74 357.684 107.74C358.951 107.74 359.958 108.147 360.704 108.96C361.451 109.773 361.824 110.927 361.824 112.42C361.824 112.847 361.791 113.24 361.724 113.6H354.804C354.924 114.6 355.304 115.367 355.944 115.9C356.584 116.433 357.424 116.7 358.464 116.7C359.598 116.7 360.504 116.467 361.184 116V117.48ZM357.684 109.12C356.924 109.12 356.278 109.393 355.744 109.94C355.211 110.487 354.898 111.267 354.804 112.28H360.244V111.88C360.244 111.04 360.018 110.373 359.564 109.88C359.111 109.373 358.484 109.12 357.684 109.12ZM365.793 118H364.213L364.233 107.86H365.793V109.64C366.327 108.387 367.247 107.76 368.553 107.76C368.793 107.76 368.98 107.773 369.113 107.8V109.36C368.833 109.267 368.547 109.22 368.253 109.22C367.547 109.22 366.96 109.547 366.493 110.2C366.027 110.853 365.793 111.607 365.793 112.46V118ZM372.417 118H370.837V107.86H372.417V118ZM372.357 103.94C372.557 104.14 372.657 104.387 372.657 104.68C372.657 104.973 372.557 105.22 372.357 105.42C372.157 105.607 371.91 105.7 371.617 105.7C371.324 105.7 371.077 105.607 370.877 105.42C370.69 105.22 370.597 104.973 370.597 104.68C370.597 104.387 370.69 104.14 370.877 103.94C371.077 103.74 371.324 103.64 371.617 103.64C371.91 103.64 372.157 103.74 372.357 103.94ZM382.825 117.48C382.038 117.893 381.078 118.1 379.945 118.1C378.412 118.1 377.172 117.633 376.225 116.7C375.292 115.753 374.825 114.507 374.825 112.96C374.825 111.347 375.245 110.073 376.085 109.14C376.925 108.207 378.005 107.74 379.325 107.74C380.592 107.74 381.598 108.147 382.345 108.96C383.092 109.773 383.465 110.927 383.465 112.42C383.465 112.847 383.432 113.24 383.365 113.6H376.445C376.565 114.6 376.945 115.367 377.585 115.9C378.225 116.433 379.065 116.7 380.105 116.7C381.238 116.7 382.145 116.467 382.825 116V117.48ZM379.325 109.12C378.565 109.12 377.918 109.393 377.385 109.94C376.852 110.487 376.538 111.267 376.445 112.28H381.885V111.88C381.885 111.04 381.658 110.373 381.205 109.88C380.752 109.373 380.125 109.12 379.325 109.12ZM393.874 118H392.294V111.44C392.294 110.693 392.101 110.127 391.714 109.74C391.341 109.34 390.847 109.14 390.234 109.14C389.474 109.14 388.814 109.433 388.254 110.02C387.707 110.607 387.434 111.42 387.434 112.46V118H385.874V107.86H387.434V109.62C388.034 108.353 389.101 107.72 390.634 107.72C391.621 107.72 392.407 108.02 392.994 108.62C393.581 109.22 393.874 110.02 393.874 111.02V118ZM403.655 117.64C403.015 118.027 402.228 118.22 401.295 118.22C399.695 118.22 398.422 117.713 397.475 116.7C396.542 115.673 396.075 114.427 396.075 112.96C396.075 111.52 396.542 110.28 397.475 109.24C398.422 108.2 399.708 107.68 401.335 107.68C402.202 107.68 402.975 107.867 403.655 108.24V109.74C403.042 109.327 402.322 109.12 401.495 109.12C400.348 109.12 399.428 109.493 398.735 110.24C398.055 110.973 397.715 111.887 397.715 112.98C397.728 114.073 398.062 114.987 398.715 115.72C399.368 116.44 400.295 116.8 401.495 116.8C402.268 116.8 402.988 116.58 403.655 116.14V117.64ZM413.489 117.48C412.702 117.893 411.742 118.1 410.609 118.1C409.076 118.1 407.836 117.633 406.889 116.7C405.956 115.753 405.489 114.507 405.489 112.96C405.489 111.347 405.909 110.073 406.749 109.14C407.589 108.207 408.669 107.74 409.989 107.74C411.256 107.74 412.262 108.147 413.009 108.96C413.756 109.773 414.129 110.927 414.129 112.42C414.129 112.847 414.096 113.24 414.029 113.6H407.109C407.229 114.6 407.609 115.367 408.249 115.9C408.889 116.433 409.729 116.7 410.769 116.7C411.902 116.7 412.809 116.467 413.489 116V117.48ZM409.989 109.12C409.229 109.12 408.582 109.393 408.049 109.94C407.516 110.487 407.202 111.267 407.109 112.28H412.549V111.88C412.549 111.04 412.322 110.373 411.869 109.88C411.416 109.373 410.789 109.12 409.989 109.12Z" fill="black"/>
<path d="M84.6398 73.7409L71.1464 62.0131C71.1464 62.0131 68.4527 47.8215 72.5066 39.495C76.5597 31.1659 98.16 26.2411 98.16 26.2411C98.16 26.2411 98.7642 29.4508 99.4142 33.9917L94.5939 52.0384C94.3914 52.7948 95.1798 53.5595 95.6768 53.0882L100.873 48.1707C101.188 54.1975 100.972 59.9122 99.4935 62.9507C95.4395 71.2772 84.6398 73.7409 84.6398 73.7409V73.7409ZM53.9421 110.916L57.0318 113.602C57.8855 114.343 58.9547 114.168 59.4203 113.211L75.4504 81.9127L80.7615 86.5282C81.5536 87.2168 82.5242 86.7287 82.5574 85.6266L82.7981 77.5255L69.3047 65.7977L63.8582 69.3774C63.117 69.8639 63.1763 71.2437 63.9668 71.9313L69.2708 76.5418L53.2408 107.841C52.7747 108.796 53.088 110.174 53.9421 110.916V110.916Z" fill="#FFA800"/>
</svg>
