<svg width="470" height="158" viewBox="0 0 470 158" fill="none" xmlns="http://www.w3.org/2000/svg">
<rect width="470" height="158" fill="white"/>
<path d="M152.881 71H147.984L137.041 38.648H141.217L145.441 51.464L150.481 67.496C151.729 63.464 153.457 58.12 155.665 51.464L159.984 38.648H164.161L152.881 71ZM178.451 59.096H173.459V71H169.571V38.648H178.067C181.811 38.648 184.755 39.624 186.899 41.576C189.075 43.496 190.163 45.992 190.163 49.064C190.163 51.944 189.091 54.344 186.947 56.264C184.803 58.152 181.971 59.096 178.451 59.096ZM178.115 41.96H173.459V55.784H178.451C180.883 55.784 182.787 55.16 184.163 53.912C185.539 52.632 186.227 51.016 186.227 49.064C186.227 46.888 185.523 45.16 184.115 43.88C182.707 42.6 180.707 41.96 178.115 41.96ZM214.447 62.408C214.447 65.256 213.471 67.464 211.519 69.032C209.567 70.568 207.055 71.336 203.983 71.336C200.591 71.336 197.711 70.648 195.343 69.272V65.096C197.679 66.856 200.527 67.736 203.887 67.736C205.903 67.736 207.487 67.288 208.639 66.392C209.791 65.496 210.367 64.2 210.367 62.504C210.367 61.8 210.223 61.176 209.935 60.632C209.679 60.056 209.231 59.544 208.591 59.096C207.983 58.616 207.391 58.232 206.815 57.944C206.271 57.624 205.519 57.24 204.559 56.792C204.367 56.696 204.079 56.568 203.695 56.408C202.319 55.8 201.263 55.304 200.527 54.92C199.823 54.536 198.975 53.976 197.983 53.24C197.023 52.472 196.319 51.592 195.871 50.6C195.423 49.608 195.199 48.456 195.199 47.144C195.199 44.392 196.175 42.248 198.127 40.712C200.111 39.144 202.591 38.36 205.567 38.36C208.351 38.36 210.719 38.856 212.671 39.848V43.928C210.719 42.648 208.383 42.008 205.663 42.008C203.711 42.008 202.159 42.472 201.007 43.4C199.855 44.296 199.279 45.48 199.279 46.952C199.279 47.72 199.423 48.408 199.711 49.016C200.031 49.624 200.575 50.2 201.343 50.744C202.111 51.256 202.767 51.656 203.311 51.944C203.855 52.2 204.703 52.584 205.855 53.096C206.943 53.576 207.775 53.96 208.351 54.248C208.927 54.504 209.663 54.936 210.559 55.544C211.487 56.12 212.175 56.696 212.623 57.272C213.103 57.816 213.519 58.552 213.871 59.48C214.255 60.376 214.447 61.352 214.447 62.408ZM256.09 71H252.202V56.36H236.506V71H232.618V38.648H236.506V52.856H252.202V38.648H256.09V71ZM284.678 58.904C284.678 62.52 283.654 65.512 281.606 67.88C279.558 70.248 276.742 71.432 273.158 71.432C269.67 71.432 266.902 70.264 264.854 67.928C262.838 65.56 261.83 62.584 261.83 59C261.83 55.384 262.87 52.376 264.95 49.976C267.062 47.544 269.798 46.328 273.158 46.328C276.838 46.328 279.67 47.512 281.654 49.88C283.67 52.248 284.678 55.256 284.678 58.904ZM265.766 58.952C265.766 61.48 266.438 63.64 267.782 65.432C269.126 67.192 270.918 68.072 273.158 68.072C275.59 68.072 277.462 67.208 278.774 65.48C280.086 63.72 280.742 61.544 280.742 58.952C280.742 56.264 280.118 54.056 278.87 52.328C277.622 50.568 275.718 49.688 273.158 49.688C270.854 49.688 269.046 50.584 267.734 52.376C266.422 54.168 265.766 56.36 265.766 58.952ZM304.863 64.52C304.863 66.6 304.127 68.248 302.655 69.464C301.215 70.68 299.231 71.288 296.703 71.288C293.759 71.288 291.375 70.792 289.551 69.8V66.104C291.695 67.384 293.999 68.024 296.463 68.024C297.935 68.024 299.055 67.736 299.823 67.16C300.591 66.584 300.975 65.8 300.975 64.808C300.975 63.656 300.543 62.76 299.679 62.12C298.847 61.48 297.439 60.76 295.455 59.96C293.631 59.256 292.159 58.376 291.039 57.32C289.951 56.264 289.407 54.84 289.407 53.048C289.407 51.032 290.159 49.432 291.663 48.248C293.199 47.032 295.103 46.424 297.375 46.424C299.903 46.424 301.935 46.776 303.471 47.48V51.08C301.999 50.184 299.983 49.736 297.423 49.736C296.143 49.736 295.119 50.04 294.351 50.648C293.615 51.224 293.247 51.976 293.247 52.904C293.247 53.48 293.359 53.992 293.583 54.44C293.807 54.856 294.239 55.272 294.879 55.688C295.551 56.104 296.031 56.392 296.319 56.552C296.639 56.68 297.311 56.968 298.335 57.416C300.383 58.248 301.983 59.192 303.135 60.248C304.287 61.304 304.863 62.728 304.863 64.52ZM322.196 70.376C321.14 70.952 319.956 71.24 318.644 71.24C313.844 71.24 311.444 68.792 311.444 63.896V49.736H307.556V46.664H311.444V40.616H315.236V46.664H321.956V49.736H315.236V63.992C315.236 66.584 316.452 67.88 318.884 67.88C320.132 67.88 321.236 67.512 322.196 66.776V70.376ZM331.707 71H327.915V46.664H331.707V71ZM331.563 37.256C332.043 37.736 332.283 38.328 332.283 39.032C332.283 39.736 332.043 40.328 331.563 40.808C331.083 41.256 330.491 41.48 329.787 41.48C329.083 41.48 328.491 41.256 328.011 40.808C327.563 40.328 327.339 39.736 327.339 39.032C327.339 38.328 327.563 37.736 328.011 37.256C328.491 36.776 329.083 36.536 329.787 36.536C330.491 36.536 331.083 36.776 331.563 37.256ZM358.126 71H354.334V55.256C354.334 53.464 353.87 52.104 352.942 51.176C352.046 50.216 350.862 49.736 349.39 49.736C347.566 49.736 345.982 50.44 344.638 51.848C343.326 53.256 342.67 55.208 342.67 57.704V71H338.926V46.664H342.67V50.888C344.11 47.848 346.67 46.328 350.35 46.328C352.718 46.328 354.606 47.048 356.014 48.488C357.422 49.928 358.126 51.848 358.126 54.248V71ZM384.48 69.032C384.48 72.744 383.456 75.528 381.408 77.384C379.36 79.272 376.72 80.216 373.488 80.216C370.544 80.216 368.032 79.72 365.952 78.728V74.936C368 76.12 370.4 76.712 373.152 76.712C375.488 76.712 377.328 76.088 378.672 74.84C380.016 73.592 380.688 71.64 380.688 68.984V66.248C379.088 69 376.704 70.376 373.536 70.376C370.752 70.376 368.368 69.352 366.384 67.304C364.432 65.256 363.456 62.408 363.456 58.76C363.456 55.144 364.368 52.168 366.192 49.832C368.016 47.496 370.4 46.328 373.344 46.328C376.672 46.328 379.12 47.784 380.688 50.696V46.664H384.48V69.032ZM367.392 58.664C367.392 61.384 368.064 63.464 369.408 64.904C370.752 66.312 372.272 67.016 373.968 67.016C375.728 67.016 377.28 66.344 378.624 65C380 63.624 380.688 61.592 380.688 58.904C380.688 55.8 380.032 53.496 378.72 51.992C377.408 50.488 375.888 49.736 374.16 49.736C372.08 49.736 370.432 50.568 369.216 52.232C368 53.864 367.392 56.008 367.392 58.664Z" fill="black"/>
<path d="M140.62 107H136.54V93.52H140.54C142.527 93.52 144.153 94.14 145.42 95.38C146.7 96.6067 147.34 98.2 147.34 100.16C147.34 102.107 146.747 103.733 145.56 105.04C144.387 106.347 142.74 107 140.62 107ZM140.52 94.96H138.18V105.58H140.6C142.267 105.58 143.527 105.067 144.38 104.04C145.233 103 145.66 101.707 145.66 100.16C145.66 98.6933 145.18 97.46 144.22 96.46C143.273 95.46 142.04 94.96 140.52 94.96ZM157.083 106.48C156.296 106.893 155.336 107.1 154.203 107.1C152.669 107.1 151.429 106.633 150.483 105.7C149.549 104.753 149.083 103.507 149.083 101.96C149.083 100.347 149.503 99.0733 150.343 98.14C151.183 97.2067 152.263 96.74 153.583 96.74C154.849 96.74 155.856 97.1467 156.603 97.96C157.349 98.7733 157.723 99.9267 157.723 101.42C157.723 101.847 157.689 102.24 157.623 102.6H150.703C150.823 103.6 151.203 104.367 151.843 104.9C152.483 105.433 153.323 105.7 154.363 105.7C155.496 105.7 156.403 105.467 157.083 105V106.48ZM153.583 98.12C152.823 98.12 152.176 98.3933 151.643 98.94C151.109 99.4867 150.796 100.267 150.703 101.28H156.143V100.88C156.143 100.04 155.916 99.3733 155.463 98.88C155.009 98.3733 154.383 98.12 153.583 98.12ZM161.172 102.04C161.172 103.133 161.439 104.02 161.972 104.7C162.505 105.38 163.179 105.72 163.992 105.72C164.819 105.72 165.519 105.413 166.092 104.8C166.679 104.187 166.972 103.207 166.972 101.86C166.972 100.58 166.672 99.64 166.072 99.04C165.472 98.44 164.812 98.14 164.092 98.14C163.252 98.14 162.552 98.48 161.992 99.16C161.445 99.8267 161.172 100.787 161.172 102.04ZM168.552 107H166.972V105.5C166.252 106.607 165.212 107.16 163.852 107.16C162.505 107.16 161.445 106.66 160.672 105.66C159.912 104.66 159.532 103.447 159.532 102.02C159.532 100.433 159.939 99.1533 160.752 98.18C161.565 97.1933 162.612 96.7 163.892 96.7C165.212 96.7 166.239 97.2667 166.972 98.4V92.86H168.552V107ZM173.14 107H171.56V96.86H173.14V107ZM173.08 92.94C173.28 93.14 173.38 93.3867 173.38 93.68C173.38 93.9733 173.28 94.22 173.08 94.42C172.88 94.6067 172.633 94.7 172.34 94.7C172.046 94.7 171.8 94.6067 171.6 94.42C171.413 94.22 171.32 93.9733 171.32 93.68C171.32 93.3867 171.413 93.14 171.6 92.94C171.8 92.74 172.046 92.64 172.34 92.64C172.633 92.64 172.88 92.74 173.08 92.94ZM183.128 106.64C182.488 107.027 181.701 107.22 180.768 107.22C179.168 107.22 177.894 106.713 176.948 105.7C176.014 104.673 175.548 103.427 175.548 101.96C175.548 100.52 176.014 99.28 176.948 98.24C177.894 97.2 179.181 96.68 180.808 96.68C181.674 96.68 182.448 96.8667 183.128 97.24V98.74C182.514 98.3267 181.794 98.12 180.968 98.12C179.821 98.12 178.901 98.4933 178.208 99.24C177.528 99.9733 177.188 100.887 177.188 101.98C177.201 103.073 177.534 103.987 178.188 104.72C178.841 105.44 179.768 105.8 180.968 105.8C181.741 105.8 182.461 105.58 183.128 105.14V106.64ZM188.662 105.78C189.382 105.78 189.955 105.58 190.382 105.18C190.808 104.767 191.022 104.247 191.022 103.62V102.32H189.262C188.408 102.32 187.768 102.487 187.342 102.82C186.915 103.153 186.702 103.573 186.702 104.08C186.702 104.587 186.868 105 187.202 105.32C187.535 105.627 188.022 105.78 188.662 105.78ZM191.042 105.8C190.522 106.667 189.575 107.1 188.202 107.1C187.255 107.1 186.488 106.82 185.902 106.26C185.328 105.7 185.042 104.993 185.042 104.14C185.042 103.167 185.408 102.413 186.142 101.88C186.888 101.333 187.902 101.06 189.182 101.06H191.022V100.54C191.022 99.74 190.842 99.14 190.482 98.74C190.122 98.3267 189.515 98.12 188.662 98.12C187.582 98.12 186.622 98.4067 185.782 98.98V97.4C186.542 96.9333 187.542 96.7 188.782 96.7C191.328 96.7 192.602 97.9933 192.602 100.58V107H191.042V105.8ZM200.485 106.74C200.045 106.98 199.552 107.1 199.005 107.1C197.005 107.1 196.005 106.08 196.005 104.04V98.14H194.385V96.86H196.005V94.34H197.585V96.86H200.385V98.14H197.585V104.08C197.585 105.16 198.092 105.7 199.105 105.7C199.625 105.7 200.085 105.547 200.485 105.24V106.74ZM210.188 106.48C209.401 106.893 208.441 107.1 207.308 107.1C205.775 107.1 204.535 106.633 203.588 105.7C202.655 104.753 202.188 103.507 202.188 101.96C202.188 100.347 202.608 99.0733 203.448 98.14C204.288 97.2067 205.368 96.74 206.688 96.74C207.955 96.74 208.961 97.1467 209.708 97.96C210.455 98.7733 210.828 99.9267 210.828 101.42C210.828 101.847 210.795 102.24 210.728 102.6H203.808C203.928 103.6 204.308 104.367 204.948 104.9C205.588 105.433 206.428 105.7 207.468 105.7C208.601 105.7 209.508 105.467 210.188 105V106.48ZM206.688 98.12C205.928 98.12 205.281 98.3933 204.748 98.94C204.215 99.4867 203.901 100.267 203.808 101.28H209.248V100.88C209.248 100.04 209.021 99.3733 208.568 98.88C208.115 98.3733 207.488 98.12 206.688 98.12ZM214.277 102.04C214.277 103.133 214.544 104.02 215.077 104.7C215.611 105.38 216.284 105.72 217.097 105.72C217.924 105.72 218.624 105.413 219.197 104.8C219.784 104.187 220.077 103.207 220.077 101.86C220.077 100.58 219.777 99.64 219.177 99.04C218.577 98.44 217.917 98.14 217.197 98.14C216.357 98.14 215.657 98.48 215.097 99.16C214.551 99.8267 214.277 100.787 214.277 102.04ZM221.657 107H220.077V105.5C219.357 106.607 218.317 107.16 216.957 107.16C215.611 107.16 214.551 106.66 213.777 105.66C213.017 104.66 212.637 103.447 212.637 102.02C212.637 100.433 213.044 99.1533 213.857 98.18C214.671 97.1933 215.717 96.7 216.997 96.7C218.317 96.7 219.344 97.2667 220.077 98.4V92.86H221.657V107ZM231.028 107H229.448L229.468 96.86H231.028V98.64C231.561 97.3867 232.481 96.76 233.788 96.76C234.028 96.76 234.214 96.7733 234.348 96.8V98.36C234.068 98.2667 233.781 98.22 233.488 98.22C232.781 98.22 232.194 98.5467 231.728 99.2C231.261 99.8533 231.028 100.607 231.028 101.46V107ZM243.391 106.48C242.605 106.893 241.645 107.1 240.511 107.1C238.978 107.1 237.738 106.633 236.791 105.7C235.858 104.753 235.391 103.507 235.391 101.96C235.391 100.347 235.811 99.0733 236.651 98.14C237.491 97.2067 238.571 96.74 239.891 96.74C241.158 96.74 242.165 97.1467 242.911 97.96C243.658 98.7733 244.031 99.9267 244.031 101.42C244.031 101.847 243.998 102.24 243.931 102.6H237.011C237.131 103.6 237.511 104.367 238.151 104.9C238.791 105.433 239.631 105.7 240.671 105.7C241.805 105.7 242.711 105.467 243.391 105V106.48ZM239.891 98.12C239.131 98.12 238.485 98.3933 237.951 98.94C237.418 99.4867 237.105 100.267 237.011 101.28H242.451V100.88C242.451 100.04 242.225 99.3733 241.771 98.88C241.318 98.3733 240.691 98.12 239.891 98.12ZM252.54 104.3C252.54 105.167 252.234 105.853 251.62 106.36C251.02 106.867 250.194 107.12 249.14 107.12C247.914 107.12 246.92 106.913 246.16 106.5V104.96C247.054 105.493 248.014 105.76 249.04 105.76C249.654 105.76 250.12 105.64 250.44 105.4C250.76 105.16 250.92 104.833 250.92 104.42C250.92 103.94 250.74 103.567 250.38 103.3C250.034 103.033 249.447 102.733 248.62 102.4C247.86 102.107 247.247 101.74 246.78 101.3C246.327 100.86 246.1 100.267 246.1 99.52C246.1 98.68 246.414 98.0133 247.04 97.52C247.68 97.0133 248.474 96.76 249.42 96.76C250.474 96.76 251.32 96.9067 251.96 97.2V98.7C251.347 98.3267 250.507 98.14 249.44 98.14C248.907 98.14 248.48 98.2667 248.16 98.52C247.854 98.76 247.7 99.0733 247.7 99.46C247.7 99.7 247.747 99.9133 247.84 100.1C247.934 100.273 248.114 100.447 248.38 100.62C248.66 100.793 248.86 100.913 248.98 100.98C249.114 101.033 249.394 101.153 249.82 101.34C250.674 101.687 251.34 102.08 251.82 102.52C252.3 102.96 252.54 103.553 252.54 104.3ZM263.603 101.96C263.603 103.467 263.176 104.713 262.323 105.7C261.469 106.687 260.296 107.18 258.803 107.18C257.349 107.18 256.196 106.693 255.343 105.72C254.503 104.733 254.083 103.493 254.083 102C254.083 100.493 254.516 99.24 255.383 98.24C256.263 97.2267 257.403 96.72 258.803 96.72C260.336 96.72 261.516 97.2133 262.343 98.2C263.183 99.1867 263.603 100.44 263.603 101.96ZM255.723 101.98C255.723 103.033 256.003 103.933 256.563 104.68C257.123 105.413 257.869 105.78 258.803 105.78C259.816 105.78 260.596 105.42 261.143 104.7C261.689 103.967 261.963 103.06 261.963 101.98C261.963 100.86 261.703 99.94 261.183 99.22C260.663 98.4867 259.869 98.12 258.803 98.12C257.843 98.12 257.089 98.4933 256.543 99.24C255.996 99.9867 255.723 100.9 255.723 101.98ZM273.793 107H272.213V105.24C271.68 106.493 270.62 107.12 269.033 107.12C268.033 107.12 267.24 106.827 266.653 106.24C266.08 105.64 265.793 104.84 265.793 103.84V96.86H267.373V103.44C267.373 104.173 267.56 104.733 267.933 105.12C268.306 105.507 268.813 105.7 269.453 105.7C270.293 105.7 270.96 105.407 271.453 104.82C271.96 104.233 272.213 103.44 272.213 102.44V96.86H273.793V107ZM278.274 107H276.694L276.714 96.86H278.274V98.64C278.807 97.3867 279.727 96.76 281.034 96.76C281.274 96.76 281.461 96.7733 281.594 96.8V98.36C281.314 98.2667 281.027 98.22 280.734 98.22C280.027 98.22 279.441 98.5467 278.974 99.2C278.507 99.8533 278.274 100.607 278.274 101.46V107ZM290.217 106.64C289.577 107.027 288.791 107.22 287.857 107.22C286.257 107.22 284.984 106.713 284.037 105.7C283.104 104.673 282.637 103.427 282.637 101.96C282.637 100.52 283.104 99.28 284.037 98.24C284.984 97.2 286.271 96.68 287.897 96.68C288.764 96.68 289.537 96.8667 290.217 97.24V98.74C289.604 98.3267 288.884 98.12 288.057 98.12C286.911 98.12 285.991 98.4933 285.297 99.24C284.617 99.9733 284.277 100.887 284.277 101.98C284.291 103.073 284.624 103.987 285.277 104.72C285.931 105.44 286.857 105.8 288.057 105.8C288.831 105.8 289.551 105.58 290.217 105.14V106.64ZM300.051 106.48C299.265 106.893 298.305 107.1 297.171 107.1C295.638 107.1 294.398 106.633 293.451 105.7C292.518 104.753 292.051 103.507 292.051 101.96C292.051 100.347 292.471 99.0733 293.311 98.14C294.151 97.2067 295.231 96.74 296.551 96.74C297.818 96.74 298.825 97.1467 299.571 97.96C300.318 98.7733 300.691 99.9267 300.691 101.42C300.691 101.847 300.658 102.24 300.591 102.6H293.671C293.791 103.6 294.171 104.367 294.811 104.9C295.451 105.433 296.291 105.7 297.331 105.7C298.465 105.7 299.371 105.467 300.051 105V106.48ZM296.551 98.12C295.791 98.12 295.145 98.3933 294.611 98.94C294.078 99.4867 293.765 100.267 293.671 101.28H299.111V100.88C299.111 100.04 298.885 99.3733 298.431 98.88C297.978 98.3733 297.351 98.12 296.551 98.12ZM309.201 104.3C309.201 105.167 308.894 105.853 308.281 106.36C307.681 106.867 306.854 107.12 305.801 107.12C304.574 107.12 303.581 106.913 302.821 106.5V104.96C303.714 105.493 304.674 105.76 305.701 105.76C306.314 105.76 306.781 105.64 307.101 105.4C307.421 105.16 307.581 104.833 307.581 104.42C307.581 103.94 307.401 103.567 307.041 103.3C306.694 103.033 306.107 102.733 305.281 102.4C304.521 102.107 303.907 101.74 303.441 101.3C302.987 100.86 302.761 100.267 302.761 99.52C302.761 98.68 303.074 98.0133 303.701 97.52C304.341 97.0133 305.134 96.76 306.081 96.76C307.134 96.76 307.981 96.9067 308.621 97.2V98.7C308.007 98.3267 307.167 98.14 306.101 98.14C305.567 98.14 305.141 98.2667 304.821 98.52C304.514 98.76 304.361 99.0733 304.361 99.46C304.361 99.7 304.407 99.9133 304.501 100.1C304.594 100.273 304.774 100.447 305.041 100.62C305.321 100.793 305.521 100.913 305.641 100.98C305.774 101.033 306.054 101.153 306.481 101.34C307.334 101.687 308.001 102.08 308.481 102.52C308.961 102.96 309.201 103.553 309.201 104.3ZM321.306 106.74C320.866 106.98 320.372 107.1 319.826 107.1C317.826 107.1 316.826 106.08 316.826 104.04V98.14H315.206V96.86H316.826V94.34H318.406V96.86H321.206V98.14H318.406V104.08C318.406 105.16 318.912 105.7 319.926 105.7C320.446 105.7 320.906 105.547 321.306 105.24V106.74ZM332.528 101.96C332.528 103.467 332.102 104.713 331.248 105.7C330.395 106.687 329.222 107.18 327.728 107.18C326.275 107.18 325.122 106.693 324.268 105.72C323.428 104.733 323.008 103.493 323.008 102C323.008 100.493 323.442 99.24 324.308 98.24C325.188 97.2267 326.328 96.72 327.728 96.72C329.262 96.72 330.442 97.2133 331.268 98.2C332.108 99.1867 332.528 100.44 332.528 101.96ZM324.648 101.98C324.648 103.033 324.928 103.933 325.488 104.68C326.048 105.413 326.795 105.78 327.728 105.78C328.742 105.78 329.522 105.42 330.068 104.7C330.615 103.967 330.888 103.06 330.888 101.98C330.888 100.86 330.628 99.94 330.108 99.22C329.588 98.4867 328.795 98.12 327.728 98.12C326.768 98.12 326.015 98.4933 325.468 99.24C324.922 99.9867 324.648 100.9 324.648 101.98ZM345.822 104.3C345.822 105.167 345.515 105.853 344.902 106.36C344.302 106.867 343.475 107.12 342.422 107.12C341.195 107.12 340.202 106.913 339.442 106.5V104.96C340.335 105.493 341.295 105.76 342.322 105.76C342.935 105.76 343.402 105.64 343.722 105.4C344.042 105.16 344.202 104.833 344.202 104.42C344.202 103.94 344.022 103.567 343.662 103.3C343.315 103.033 342.728 102.733 341.902 102.4C341.142 102.107 340.528 101.74 340.062 101.3C339.608 100.86 339.382 100.267 339.382 99.52C339.382 98.68 339.695 98.0133 340.322 97.52C340.962 97.0133 341.755 96.76 342.702 96.76C343.755 96.76 344.602 96.9067 345.242 97.2V98.7C344.628 98.3267 343.788 98.14 342.722 98.14C342.188 98.14 341.762 98.2667 341.442 98.52C341.135 98.76 340.982 99.0733 340.982 99.46C340.982 99.7 341.028 99.9133 341.122 100.1C341.215 100.273 341.395 100.447 341.662 100.62C341.942 100.793 342.142 100.913 342.262 100.98C342.395 101.033 342.675 101.153 343.102 101.34C343.955 101.687 344.622 102.08 345.102 102.52C345.582 102.96 345.822 103.553 345.822 104.3ZM354.944 106.64C354.304 107.027 353.517 107.22 352.584 107.22C350.984 107.22 349.711 106.713 348.764 105.7C347.831 104.673 347.364 103.427 347.364 101.96C347.364 100.52 347.831 99.28 348.764 98.24C349.711 97.2 350.997 96.68 352.624 96.68C353.491 96.68 354.264 96.8667 354.944 97.24V98.74C354.331 98.3267 353.611 98.12 352.784 98.12C351.637 98.12 350.717 98.4933 350.024 99.24C349.344 99.9733 349.004 100.887 349.004 101.98C349.017 103.073 349.351 103.987 350.004 104.72C350.657 105.44 351.584 105.8 352.784 105.8C353.557 105.8 354.277 105.58 354.944 105.14V106.64ZM360.478 105.78C361.198 105.78 361.771 105.58 362.198 105.18C362.625 104.767 362.838 104.247 362.838 103.62V102.32H361.078C360.225 102.32 359.585 102.487 359.158 102.82C358.731 103.153 358.518 103.573 358.518 104.08C358.518 104.587 358.685 105 359.018 105.32C359.351 105.627 359.838 105.78 360.478 105.78ZM362.858 105.8C362.338 106.667 361.391 107.1 360.018 107.1C359.071 107.1 358.305 106.82 357.718 106.26C357.145 105.7 356.858 104.993 356.858 104.14C356.858 103.167 357.225 102.413 357.958 101.88C358.705 101.333 359.718 101.06 360.998 101.06H362.838V100.54C362.838 99.74 362.658 99.14 362.298 98.74C361.938 98.3267 361.331 98.12 360.478 98.12C359.398 98.12 358.438 98.4067 357.598 98.98V97.4C358.358 96.9333 359.358 96.7 360.598 96.7C363.145 96.7 364.418 97.9933 364.418 100.58V107H362.858V105.8ZM368.882 107H367.302V92.86H368.882V107ZM379.29 106.48C378.503 106.893 377.543 107.1 376.41 107.1C374.876 107.1 373.636 106.633 372.69 105.7C371.756 104.753 371.29 103.507 371.29 101.96C371.29 100.347 371.71 99.0733 372.55 98.14C373.39 97.2067 374.47 96.74 375.79 96.74C377.056 96.74 378.063 97.1467 378.81 97.96C379.556 98.7733 379.93 99.9267 379.93 101.42C379.93 101.847 379.896 102.24 379.83 102.6H372.91C373.03 103.6 373.41 104.367 374.05 104.9C374.69 105.433 375.53 105.7 376.57 105.7C377.703 105.7 378.61 105.467 379.29 105V106.48ZM375.79 98.12C375.03 98.12 374.383 98.3933 373.85 98.94C373.316 99.4867 373.003 100.267 372.91 101.28H378.35V100.88C378.35 100.04 378.123 99.3733 377.67 98.88C377.216 98.3733 376.59 98.12 375.79 98.12Z" fill="black"/>
<path d="M65.5 25C39.2637 25 18 45.3684 18 70.5C18 95.6316 39.2637 116 65.5 116C91.7363 116 113 95.6316 113 70.5C113 45.3684 91.7363 25 65.5 25ZM86.2812 91.8281C86.2812 92.6102 85.6133 93.25 84.7969 93.25H75.8906C75.0742 93.25 74.4062 92.6102 74.4062 91.8281V76.1875H56.5938V91.8281C56.5938 92.6102 55.9258 93.25 55.1094 93.25H46.2031C45.3867 93.25 44.7188 92.6102 44.7188 91.8281V49.1719C44.7188 48.3898 45.3867 47.75 46.2031 47.75H55.1094C55.9258 47.75 56.5938 48.3898 56.5938 49.1719V64.8125H74.4062V49.1719C74.4062 48.3898 75.0742 47.75 75.8906 47.75H84.7969C85.6133 47.75 86.2812 48.3898 86.2812 49.1719V91.8281Z" fill="#FFA800"/>
</svg>
