<svg width="638" height="158" viewBox="0 0 638 158" fill="none" xmlns="http://www.w3.org/2000/svg">
<rect width="638" height="158" fill="white"/>
<path d="M150.12 81H145.176L136.728 48.648H140.808L143.832 60.648L147.816 76.92C149.608 70.36 151.128 64.936 152.376 60.648L155.736 49.128H159.624L163.176 60.648L168.072 77.064C169.544 69.992 170.728 64.536 171.624 60.696L174.36 48.648H178.296L170.712 81H165.72L162.6 70.776L157.752 54.6C156.76 58.376 155.224 63.768 153.144 70.776L150.12 81ZM207.215 81H203.327V66.36H187.631V81H183.743V48.648H187.631V62.856H203.327V48.648H207.215V81ZM242.235 64.68C242.235 69.768 240.923 73.832 238.299 76.872C235.707 79.88 232.187 81.384 227.739 81.384C223.355 81.384 219.835 79.864 217.179 76.824C214.523 73.784 213.195 69.736 213.195 64.68C213.195 59.592 214.491 55.544 217.083 52.536C219.707 49.528 223.243 48.024 227.691 48.024C232.235 48.024 235.787 49.528 238.347 52.536C240.939 55.512 242.235 59.56 242.235 64.68ZM217.275 64.68C217.275 68.68 218.219 71.848 220.107 74.184C222.027 76.52 224.571 77.688 227.739 77.688C231.035 77.688 233.579 76.536 235.371 74.232C237.195 71.928 238.107 68.744 238.107 64.68C238.107 60.616 237.195 57.432 235.371 55.128C233.547 52.824 230.987 51.672 227.691 51.672C224.427 51.672 221.867 52.84 220.011 55.176C218.187 57.48 217.275 60.648 217.275 64.68ZM252.372 81H248.484V48.648H252.372V81ZM278.775 72.408C278.775 75.256 277.799 77.464 275.847 79.032C273.895 80.568 271.383 81.336 268.311 81.336C264.919 81.336 262.039 80.648 259.671 79.272V75.096C262.007 76.856 264.855 77.736 268.215 77.736C270.231 77.736 271.815 77.288 272.967 76.392C274.119 75.496 274.695 74.2 274.695 72.504C274.695 71.8 274.551 71.176 274.263 70.632C274.007 70.056 273.559 69.544 272.919 69.096C272.311 68.616 271.719 68.232 271.143 67.944C270.599 67.624 269.847 67.24 268.887 66.792C268.695 66.696 268.407 66.568 268.023 66.408C266.647 65.8 265.591 65.304 264.855 64.92C264.151 64.536 263.303 63.976 262.311 63.24C261.351 62.472 260.647 61.592 260.199 60.6C259.751 59.608 259.527 58.456 259.527 57.144C259.527 54.392 260.503 52.248 262.455 50.712C264.439 49.144 266.919 48.36 269.895 48.36C272.679 48.36 275.047 48.856 276.999 49.848V53.928C275.047 52.648 272.711 52.008 269.991 52.008C268.039 52.008 266.487 52.472 265.335 53.4C264.183 54.296 263.607 55.48 263.607 56.952C263.607 57.72 263.751 58.408 264.039 59.016C264.359 59.624 264.903 60.2 265.671 60.744C266.439 61.256 267.095 61.656 267.639 61.944C268.183 62.2 269.031 62.584 270.183 63.096C271.271 63.576 272.103 63.96 272.679 64.248C273.255 64.504 273.991 64.936 274.887 65.544C275.815 66.12 276.503 66.696 276.951 67.272C277.431 67.816 277.847 68.552 278.199 69.48C278.583 70.376 278.775 71.352 278.775 72.408ZM314.61 81H296.946V48.648H300.834V77.496H314.61V81ZM341.037 68.904C341.037 72.52 340.013 75.512 337.965 77.88C335.917 80.248 333.101 81.432 329.517 81.432C326.029 81.432 323.261 80.264 321.213 77.928C319.197 75.56 318.189 72.584 318.189 69C318.189 65.384 319.229 62.376 321.309 59.976C323.421 57.544 326.157 56.328 329.517 56.328C333.197 56.328 336.029 57.512 338.013 59.88C340.029 62.248 341.037 65.256 341.037 68.904ZM322.125 68.952C322.125 71.48 322.797 73.64 324.141 75.432C325.485 77.192 327.277 78.072 329.517 78.072C331.949 78.072 333.821 77.208 335.133 75.48C336.445 73.72 337.101 71.544 337.101 68.952C337.101 66.264 336.477 64.056 335.229 62.328C333.981 60.568 332.077 59.688 329.517 59.688C327.213 59.688 325.405 60.584 324.093 62.376C322.781 64.168 322.125 66.36 322.125 68.952ZM367.99 68.904C367.99 72.52 366.966 75.512 364.918 77.88C362.87 80.248 360.054 81.432 356.47 81.432C352.982 81.432 350.214 80.264 348.166 77.928C346.15 75.56 345.142 72.584 345.142 69C345.142 65.384 346.182 62.376 348.262 59.976C350.374 57.544 353.11 56.328 356.47 56.328C360.15 56.328 362.982 57.512 364.966 59.88C366.982 62.248 367.99 65.256 367.99 68.904ZM349.078 68.952C349.078 71.48 349.75 73.64 351.094 75.432C352.438 77.192 354.23 78.072 356.47 78.072C358.902 78.072 360.774 77.208 362.086 75.48C363.398 73.72 364.054 71.544 364.054 68.952C364.054 66.264 363.43 64.056 362.182 62.328C360.934 60.568 359.03 59.688 356.47 59.688C354.166 59.688 352.358 60.584 351.046 62.376C349.734 64.168 349.078 66.36 349.078 68.952ZM377.279 81H373.535V47.256H377.279V81ZM382.223 68.232L392.111 81H387.551L377.759 68.232L387.311 56.664H391.823L382.223 68.232ZM415.51 81H411.718V76.776C410.438 79.784 407.894 81.288 404.086 81.288C401.686 81.288 399.782 80.584 398.374 79.176C396.998 77.736 396.31 75.816 396.31 73.416V56.664H400.102V72.456C400.102 74.216 400.55 75.56 401.446 76.488C402.342 77.416 403.558 77.88 405.094 77.88C407.11 77.88 408.71 77.176 409.894 75.768C411.11 74.36 411.718 72.456 411.718 70.056V56.664H415.51V81ZM426.264 90.456H422.52V56.664H426.264V60.36C427.96 57.64 430.472 56.28 433.8 56.28C437.032 56.28 439.56 57.464 441.384 59.832C443.24 62.168 444.168 65.096 444.168 68.616C444.168 72.36 443.192 75.432 441.24 77.832C439.32 80.2 436.808 81.384 433.704 81.384C430.504 81.384 428.024 80.024 426.264 77.304V90.456ZM426.264 68.856C426.264 71.96 426.984 74.248 428.424 75.72C429.864 77.192 431.464 77.928 433.224 77.928C435.272 77.928 436.952 77.128 438.264 75.528C439.576 73.896 440.232 71.592 440.232 68.616C440.232 65.96 439.592 63.816 438.312 62.184C437.032 60.552 435.416 59.736 433.464 59.736C431.512 59.736 429.816 60.456 428.376 61.896C426.968 63.304 426.264 65.624 426.264 68.856Z" fill="black"/>
<path d="M148.9 115H141.54V101.52H143.16V113.54H148.9V115ZM159.911 109.96C159.911 111.467 159.485 112.713 158.631 113.7C157.778 114.687 156.605 115.18 155.111 115.18C153.658 115.18 152.505 114.693 151.651 113.72C150.811 112.733 150.391 111.493 150.391 110C150.391 108.493 150.825 107.24 151.691 106.24C152.571 105.227 153.711 104.72 155.111 104.72C156.645 104.72 157.825 105.213 158.651 106.2C159.491 107.187 159.911 108.44 159.911 109.96ZM152.031 109.98C152.031 111.033 152.311 111.933 152.871 112.68C153.431 113.413 154.178 113.78 155.111 113.78C156.125 113.78 156.905 113.42 157.451 112.7C157.998 111.967 158.271 111.06 158.271 109.98C158.271 108.86 158.011 107.94 157.491 107.22C156.971 106.487 156.178 106.12 155.111 106.12C154.151 106.12 153.398 106.493 152.851 107.24C152.305 107.987 152.031 108.9 152.031 109.98ZM171.142 109.96C171.142 111.467 170.715 112.713 169.862 113.7C169.008 114.687 167.835 115.18 166.342 115.18C164.888 115.18 163.735 114.693 162.882 113.72C162.042 112.733 161.622 111.493 161.622 110C161.622 108.493 162.055 107.24 162.922 106.24C163.802 105.227 164.942 104.72 166.342 104.72C167.875 104.72 169.055 105.213 169.882 106.2C170.722 107.187 171.142 108.44 171.142 109.96ZM163.262 109.98C163.262 111.033 163.542 111.933 164.102 112.68C164.662 113.413 165.408 113.78 166.342 113.78C167.355 113.78 168.135 113.42 168.682 112.7C169.228 111.967 169.502 111.06 169.502 109.98C169.502 108.86 169.242 107.94 168.722 107.22C168.202 106.487 167.408 106.12 166.342 106.12C165.382 106.12 164.628 106.493 164.082 107.24C163.535 107.987 163.262 108.9 163.262 109.98ZM175.012 115H173.452V100.94H175.012V115ZM177.072 109.68L181.192 115H179.292L175.212 109.68L179.192 104.86H181.072L177.072 109.68ZM190.942 115H189.362V113.24C188.828 114.493 187.768 115.12 186.182 115.12C185.182 115.12 184.388 114.827 183.802 114.24C183.228 113.64 182.942 112.84 182.942 111.84V104.86H184.522V111.44C184.522 112.173 184.708 112.733 185.082 113.12C185.455 113.507 185.962 113.7 186.602 113.7C187.442 113.7 188.108 113.407 188.602 112.82C189.108 112.233 189.362 111.44 189.362 110.44V104.86H190.942V115ZM195.422 118.94H193.862V104.86H195.422V106.4C196.129 105.267 197.176 104.7 198.562 104.7C199.909 104.7 200.962 105.193 201.722 106.18C202.496 107.153 202.882 108.373 202.882 109.84C202.882 111.4 202.476 112.68 201.662 113.68C200.862 114.667 199.816 115.16 198.522 115.16C197.189 115.16 196.156 114.593 195.422 113.46V118.94ZM195.422 109.94C195.422 111.233 195.722 112.187 196.322 112.8C196.922 113.413 197.589 113.72 198.322 113.72C199.176 113.72 199.876 113.387 200.422 112.72C200.969 112.04 201.242 111.08 201.242 109.84C201.242 108.733 200.976 107.84 200.442 107.16C199.909 106.48 199.236 106.14 198.422 106.14C197.609 106.14 196.902 106.44 196.302 107.04C195.716 107.627 195.422 108.593 195.422 109.94ZM215.173 114.74C214.733 114.98 214.239 115.1 213.693 115.1C211.693 115.1 210.693 114.08 210.693 112.04V106.14H209.073V104.86H210.693V102.34H212.273V104.86H215.073V106.14H212.273V112.08C212.273 113.16 212.779 113.7 213.793 113.7C214.313 113.7 214.773 113.547 215.173 113.24V114.74ZM226.396 109.96C226.396 111.467 225.969 112.713 225.116 113.7C224.262 114.687 223.089 115.18 221.596 115.18C220.142 115.18 218.989 114.693 218.136 113.72C217.296 112.733 216.876 111.493 216.876 110C216.876 108.493 217.309 107.24 218.176 106.24C219.056 105.227 220.196 104.72 221.596 104.72C223.129 104.72 224.309 105.213 225.136 106.2C225.976 107.187 226.396 108.44 226.396 109.96ZM218.516 109.98C218.516 111.033 218.796 111.933 219.356 112.68C219.916 113.413 220.662 113.78 221.596 113.78C222.609 113.78 223.389 113.42 223.936 112.7C224.482 111.967 224.756 111.06 224.756 109.98C224.756 108.86 224.496 107.94 223.976 107.22C223.456 106.487 222.662 106.12 221.596 106.12C220.636 106.12 219.882 106.493 219.336 107.24C218.789 107.987 218.516 108.9 218.516 109.98ZM237.626 109.96C237.626 111.467 237.199 112.713 236.346 113.7C235.493 114.687 234.319 115.18 232.826 115.18C231.373 115.18 230.219 114.693 229.366 113.72C228.526 112.733 228.106 111.493 228.106 110C228.106 108.493 228.539 107.24 229.406 106.24C230.286 105.227 231.426 104.72 232.826 104.72C234.359 104.72 235.539 105.213 236.366 106.2C237.206 107.187 237.626 108.44 237.626 109.96ZM229.746 109.98C229.746 111.033 230.026 111.933 230.586 112.68C231.146 113.413 231.893 113.78 232.826 113.78C233.839 113.78 234.619 113.42 235.166 112.7C235.713 111.967 235.986 111.06 235.986 109.98C235.986 108.86 235.726 107.94 235.206 107.22C234.686 106.487 233.893 106.12 232.826 106.12C231.866 106.12 231.113 106.493 230.566 107.24C230.019 107.987 229.746 108.9 229.746 109.98ZM241.597 115H240.017V100.86H241.597V115ZM254.567 114.74C254.127 114.98 253.634 115.1 253.087 115.1C251.087 115.1 250.087 114.08 250.087 112.04V106.14H248.467V104.86H250.087V102.34H251.667V104.86H254.467V106.14H251.667V112.08C251.667 113.16 252.174 113.7 253.187 113.7C253.707 113.7 254.167 113.547 254.567 113.24V114.74ZM265.79 109.96C265.79 111.467 265.363 112.713 264.51 113.7C263.657 114.687 262.483 115.18 260.99 115.18C259.537 115.18 258.383 114.693 257.53 113.72C256.69 112.733 256.27 111.493 256.27 110C256.27 108.493 256.703 107.24 257.57 106.24C258.45 105.227 259.59 104.72 260.99 104.72C262.523 104.72 263.703 105.213 264.53 106.2C265.37 107.187 265.79 108.44 265.79 109.96ZM257.91 109.98C257.91 111.033 258.19 111.933 258.75 112.68C259.31 113.413 260.057 113.78 260.99 113.78C262.003 113.78 262.783 113.42 263.33 112.7C263.877 111.967 264.15 111.06 264.15 109.98C264.15 108.86 263.89 107.94 263.37 107.22C262.85 106.487 262.057 106.12 260.99 106.12C260.03 106.12 259.277 106.493 258.73 107.24C258.183 107.987 257.91 108.9 257.91 109.98ZM277.683 106.14H275.443V115H273.863V106.14H272.123V104.86H273.863V103.92C273.863 102.933 274.123 102.153 274.643 101.58C275.177 101.007 275.91 100.72 276.843 100.72C277.163 100.72 277.49 100.767 277.823 100.86V102.3C277.503 102.193 277.197 102.14 276.903 102.14C276.477 102.14 276.123 102.287 275.843 102.58C275.577 102.873 275.443 103.327 275.443 103.94V104.86H277.683V106.14ZM281.225 115H279.645V104.86H281.225V115ZM281.165 100.94C281.365 101.14 281.465 101.387 281.465 101.68C281.465 101.973 281.365 102.22 281.165 102.42C280.965 102.607 280.719 102.7 280.425 102.7C280.132 102.7 279.885 102.607 279.685 102.42C279.499 102.22 279.405 101.973 279.405 101.68C279.405 101.387 279.499 101.14 279.685 100.94C279.885 100.74 280.132 100.64 280.425 100.64C280.719 100.64 280.965 100.74 281.165 100.94ZM292.233 115H290.653V108.44C290.653 107.693 290.46 107.127 290.073 106.74C289.7 106.34 289.207 106.14 288.593 106.14C287.833 106.14 287.173 106.433 286.613 107.02C286.067 107.607 285.793 108.42 285.793 109.46V115H284.233V104.86H285.793V106.62C286.393 105.353 287.46 104.72 288.993 104.72C289.98 104.72 290.767 105.02 291.353 105.62C291.94 106.22 292.233 107.02 292.233 108.02V115ZM296.074 110.04C296.074 111.133 296.341 112.02 296.874 112.7C297.408 113.38 298.081 113.72 298.894 113.72C299.721 113.72 300.421 113.413 300.994 112.8C301.581 112.187 301.874 111.207 301.874 109.86C301.874 108.58 301.574 107.64 300.974 107.04C300.374 106.44 299.714 106.14 298.994 106.14C298.154 106.14 297.454 106.48 296.894 107.16C296.348 107.827 296.074 108.787 296.074 110.04ZM303.454 115H301.874V113.5C301.154 114.607 300.114 115.16 298.754 115.16C297.408 115.16 296.348 114.66 295.574 113.66C294.814 112.66 294.434 111.447 294.434 110.02C294.434 108.433 294.841 107.153 295.654 106.18C296.468 105.193 297.514 104.7 298.794 104.7C300.114 104.7 301.141 105.267 301.874 106.4V100.86H303.454V115ZM316.105 115H314.045L310.525 101.52H312.225L313.485 106.52L315.145 113.3C315.891 110.567 316.525 108.307 317.045 106.52L318.445 101.72H320.065L321.545 106.52L323.585 113.36C324.198 110.413 324.691 108.14 325.065 106.54L326.205 101.52H327.845L324.685 115H322.605L321.305 110.74L319.285 104C318.871 105.573 318.231 107.82 317.365 110.74L316.105 115ZM339.894 115H338.274V108.9H331.734V115H330.114V101.52H331.734V107.44H338.274V101.52H339.894V115ZM354.486 108.2C354.486 110.32 353.939 112.013 352.846 113.28C351.766 114.533 350.299 115.16 348.446 115.16C346.619 115.16 345.152 114.527 344.046 113.26C342.939 111.993 342.386 110.307 342.386 108.2C342.386 106.08 342.926 104.393 344.006 103.14C345.099 101.887 346.572 101.26 348.426 101.26C350.319 101.26 351.799 101.887 352.866 103.14C353.946 104.38 354.486 106.067 354.486 108.2ZM344.086 108.2C344.086 109.867 344.479 111.187 345.266 112.16C346.066 113.133 347.126 113.62 348.446 113.62C349.819 113.62 350.879 113.14 351.626 112.18C352.386 111.22 352.766 109.893 352.766 108.2C352.766 106.507 352.386 105.18 351.626 104.22C350.866 103.26 349.799 102.78 348.426 102.78C347.066 102.78 345.999 103.267 345.226 104.24C344.466 105.2 344.086 106.52 344.086 108.2ZM358.71 115H357.09V101.52H358.71V115ZM369.711 111.42C369.711 112.607 369.304 113.527 368.491 114.18C367.678 114.82 366.631 115.14 365.351 115.14C363.938 115.14 362.738 114.853 361.751 114.28V112.54C362.724 113.273 363.911 113.64 365.311 113.64C366.151 113.64 366.811 113.453 367.291 113.08C367.771 112.707 368.011 112.167 368.011 111.46C368.011 111.167 367.951 110.907 367.831 110.68C367.724 110.44 367.538 110.227 367.271 110.04C367.018 109.84 366.771 109.68 366.531 109.56C366.304 109.427 365.991 109.267 365.591 109.08C365.511 109.04 365.391 108.987 365.231 108.92C364.658 108.667 364.218 108.46 363.911 108.3C363.618 108.14 363.264 107.907 362.851 107.6C362.451 107.28 362.158 106.913 361.971 106.5C361.784 106.087 361.691 105.607 361.691 105.06C361.691 103.913 362.098 103.02 362.911 102.38C363.738 101.727 364.771 101.4 366.011 101.4C367.171 101.4 368.158 101.607 368.971 102.02V103.72C368.158 103.187 367.184 102.92 366.051 102.92C365.238 102.92 364.591 103.113 364.111 103.5C363.631 103.873 363.391 104.367 363.391 104.98C363.391 105.3 363.451 105.587 363.571 105.84C363.704 106.093 363.931 106.333 364.251 106.56C364.571 106.773 364.844 106.94 365.071 107.06C365.298 107.167 365.651 107.327 366.131 107.54C366.584 107.74 366.931 107.9 367.171 108.02C367.411 108.127 367.718 108.307 368.091 108.56C368.478 108.8 368.764 109.04 368.951 109.28C369.151 109.507 369.324 109.813 369.471 110.2C369.631 110.573 369.711 110.98 369.711 111.42ZM378.862 115H377.282V104.86H378.862V115ZM378.802 100.94C379.002 101.14 379.102 101.387 379.102 101.68C379.102 101.973 379.002 102.22 378.802 102.42C378.602 102.607 378.356 102.7 378.062 102.7C377.769 102.7 377.522 102.607 377.322 102.42C377.136 102.22 377.042 101.973 377.042 101.68C377.042 101.387 377.136 101.14 377.322 100.94C377.522 100.74 377.769 100.64 378.062 100.64C378.356 100.64 378.602 100.74 378.802 100.94ZM389.87 115H388.29V108.44C388.29 107.693 388.097 107.127 387.71 106.74C387.337 106.34 386.843 106.14 386.23 106.14C385.47 106.14 384.81 106.433 384.25 107.02C383.703 107.607 383.43 108.42 383.43 109.46V115H381.87V104.86H383.43V106.62C384.03 105.353 385.097 104.72 386.63 104.72C387.617 104.72 388.403 105.02 388.99 105.62C389.577 106.22 389.87 107.02 389.87 108.02V115ZM397.371 106.14H395.131V115H393.551V106.14H391.811V104.86H393.551V103.92C393.551 102.933 393.811 102.153 394.331 101.58C394.864 101.007 395.598 100.72 396.531 100.72C396.851 100.72 397.178 100.767 397.511 100.86V102.3C397.191 102.193 396.884 102.14 396.591 102.14C396.164 102.14 395.811 102.287 395.531 102.58C395.264 102.873 395.131 103.327 395.131 103.94V104.86H397.371V106.14ZM408.173 109.96C408.173 111.467 407.746 112.713 406.893 113.7C406.04 114.687 404.866 115.18 403.373 115.18C401.92 115.18 400.766 114.693 399.913 113.72C399.073 112.733 398.653 111.493 398.653 110C398.653 108.493 399.086 107.24 399.953 106.24C400.833 105.227 401.973 104.72 403.373 104.72C404.906 104.72 406.086 105.213 406.913 106.2C407.753 107.187 408.173 108.44 408.173 109.96ZM400.293 109.98C400.293 111.033 400.573 111.933 401.133 112.68C401.693 113.413 402.44 113.78 403.373 113.78C404.386 113.78 405.166 113.42 405.713 112.7C406.26 111.967 406.533 111.06 406.533 109.98C406.533 108.86 406.273 107.94 405.753 107.22C405.233 106.487 404.44 106.12 403.373 106.12C402.413 106.12 401.66 106.493 401.113 107.24C400.566 107.987 400.293 108.9 400.293 109.98ZM412.043 115H410.463L410.483 104.86H412.043V106.64C412.577 105.387 413.497 104.76 414.803 104.76C415.043 104.76 415.23 104.773 415.363 104.8V106.36C415.083 106.267 414.797 106.22 414.503 106.22C413.797 106.22 413.21 106.547 412.743 107.2C412.277 107.853 412.043 108.607 412.043 109.46V115ZM430.567 115H428.987V108.44C428.987 106.907 428.34 106.14 427.047 106.14C426.407 106.14 425.834 106.433 425.327 107.02C424.82 107.593 424.567 108.407 424.567 109.46V115H422.987V108.44C422.987 106.907 422.34 106.14 421.047 106.14C420.407 106.14 419.834 106.433 419.327 107.02C418.82 107.593 418.567 108.407 418.567 109.46V115H417.007V104.86H418.567V106.5C419.127 105.313 420.08 104.72 421.427 104.72C422.987 104.72 423.974 105.38 424.387 106.7C424.68 106.06 425.087 105.573 425.607 105.24C426.14 104.893 426.734 104.72 427.387 104.72C428.44 104.72 429.234 105.02 429.767 105.62C430.3 106.22 430.567 107.027 430.567 108.04V115ZM436.474 113.78C437.194 113.78 437.767 113.58 438.194 113.18C438.621 112.767 438.834 112.247 438.834 111.62V110.32H437.074C436.221 110.32 435.581 110.487 435.154 110.82C434.727 111.153 434.514 111.573 434.514 112.08C434.514 112.587 434.681 113 435.014 113.32C435.347 113.627 435.834 113.78 436.474 113.78ZM438.854 113.8C438.334 114.667 437.387 115.1 436.014 115.1C435.067 115.1 434.301 114.82 433.714 114.26C433.141 113.7 432.854 112.993 432.854 112.14C432.854 111.167 433.221 110.413 433.954 109.88C434.701 109.333 435.714 109.06 436.994 109.06H438.834V108.54C438.834 107.74 438.654 107.14 438.294 106.74C437.934 106.327 437.327 106.12 436.474 106.12C435.394 106.12 434.434 106.407 433.594 106.98V105.4C434.354 104.933 435.354 104.7 436.594 104.7C439.141 104.7 440.414 105.993 440.414 108.58V115H438.854V113.8ZM448.298 114.74C447.858 114.98 447.364 115.1 446.818 115.1C444.818 115.1 443.818 114.08 443.818 112.04V106.14H442.198V104.86H443.818V102.34H445.398V104.86H448.198V106.14H445.398V112.08C445.398 113.16 445.904 113.7 446.918 113.7C447.438 113.7 447.898 113.547 448.298 113.24V114.74ZM452.261 115H450.681V104.86H452.261V115ZM452.201 100.94C452.401 101.14 452.501 101.387 452.501 101.68C452.501 101.973 452.401 102.22 452.201 102.42C452.001 102.607 451.754 102.7 451.461 102.7C451.167 102.7 450.921 102.607 450.721 102.42C450.534 102.22 450.441 101.973 450.441 101.68C450.441 101.387 450.534 101.14 450.721 100.94C450.921 100.74 451.167 100.64 451.461 100.64C451.754 100.64 452.001 100.74 452.201 100.94ZM464.189 109.96C464.189 111.467 463.762 112.713 462.909 113.7C462.055 114.687 460.882 115.18 459.389 115.18C457.935 115.18 456.782 114.693 455.929 113.72C455.089 112.733 454.669 111.493 454.669 110C454.669 108.493 455.102 107.24 455.969 106.24C456.849 105.227 457.989 104.72 459.389 104.72C460.922 104.72 462.102 105.213 462.929 106.2C463.769 107.187 464.189 108.44 464.189 109.96ZM456.309 109.98C456.309 111.033 456.589 111.933 457.149 112.68C457.709 113.413 458.455 113.78 459.389 113.78C460.402 113.78 461.182 113.42 461.729 112.7C462.275 111.967 462.549 111.06 462.549 109.98C462.549 108.86 462.289 107.94 461.769 107.22C461.249 106.487 460.455 106.12 459.389 106.12C458.429 106.12 457.675 106.493 457.129 107.24C456.582 107.987 456.309 108.9 456.309 109.98ZM474.499 115H472.919V108.44C472.919 107.693 472.726 107.127 472.339 106.74C471.966 106.34 471.472 106.14 470.859 106.14C470.099 106.14 469.439 106.433 468.879 107.02C468.332 107.607 468.059 108.42 468.059 109.46V115H466.499V104.86H468.059V106.62C468.659 105.353 469.726 104.72 471.259 104.72C472.246 104.72 473.032 105.02 473.619 105.62C474.206 106.22 474.499 107.02 474.499 108.02V115Z" fill="black"/>
<path d="M83.2494 70.4516C80.998 57.8488 75.6876 49 69.5078 49C63.3279 49 58.0175 57.8488 55.7661 70.4516H83.2494ZM54.6015 84C54.6015 87.1331 54.7879 90.1391 55.1139 93.0323H83.8861C84.2121 90.1391 84.3985 87.1331 84.3985 84C84.3985 80.8669 84.2121 77.8609 83.8861 74.9677H55.1139C54.7879 77.8609 54.6015 80.8669 54.6015 84ZM105.019 70.4516C100.578 60.869 91.5876 53.4597 80.4856 50.4677C84.2743 55.2379 86.8828 62.4214 88.2492 70.4516H105.019ZM58.5144 50.4677C47.4279 53.4597 38.4221 60.869 33.9968 70.4516H50.7663C52.1172 62.4214 54.7258 55.2379 58.5144 50.4677ZM106.68 74.9677H88.8703C89.1964 77.9315 89.3827 80.9657 89.3827 84C89.3827 87.0343 89.1964 90.0685 88.8703 93.0323H106.665C107.519 90.1391 108 87.1331 108 84C108 80.8669 107.519 77.8609 106.68 74.9677ZM49.6328 84C49.6328 80.9657 49.8191 77.9315 50.1452 74.9677H32.3353C31.4969 77.8609 31 80.8669 31 84C31 87.1331 31.4969 90.1391 32.3353 93.0323H50.1297C49.8191 90.0685 49.6328 87.0343 49.6328 84ZM55.7661 97.5484C58.0175 110.151 63.3279 119 69.5078 119C75.6876 119 80.998 110.151 83.2494 97.5484H55.7661ZM80.5011 117.532C91.5876 114.54 100.593 107.131 105.034 97.5484H88.2648C86.8984 105.579 84.2898 112.762 80.5011 117.532ZM33.9968 97.5484C38.4376 107.131 47.4279 114.54 58.5299 117.532C54.7413 112.762 52.1327 105.579 50.7663 97.5484H33.9968Z" fill="#FFA800"/>
</svg>
