<svg width="539" height="78" viewBox="0 0 539 78" fill="none" xmlns="http://www.w3.org/2000/svg">
<rect width="539" height="78" fill="black"/>
<path d="M132.823 52H126.891L135.929 25.8182H143.063L152.088 52H146.156L139.598 31.8011H139.394L132.823 52ZM132.452 41.7088H146.463V46.0298H132.452V41.7088ZM163.095 52.3835C161.084 52.3835 159.354 51.9574 157.905 51.1051C156.465 50.2443 155.357 49.0511 154.581 47.5256C153.814 46 153.43 44.2443 153.43 42.2585C153.43 40.2472 153.818 38.483 154.594 36.9659C155.378 35.4403 156.49 34.2514 157.93 33.3991C159.371 32.5384 161.084 32.108 163.07 32.108C164.783 32.108 166.283 32.419 167.57 33.0412C168.857 33.6634 169.875 34.5369 170.625 35.6619C171.375 36.7869 171.788 38.108 171.865 39.625H166.726C166.581 38.6449 166.198 37.8565 165.575 37.2599C164.962 36.6548 164.156 36.3523 163.159 36.3523C162.315 36.3523 161.578 36.5824 160.948 37.0426C160.325 37.4943 159.84 38.1548 159.49 39.0241C159.141 39.8935 158.966 40.946 158.966 42.1818C158.966 43.4347 159.136 44.5 159.477 45.3778C159.827 46.2557 160.317 46.9247 160.948 47.3849C161.578 47.8452 162.315 48.0753 163.159 48.0753C163.781 48.0753 164.34 47.9474 164.834 47.6918C165.337 47.4361 165.75 47.0653 166.074 46.5795C166.406 46.0852 166.624 45.4929 166.726 44.8026H171.865C171.78 46.3026 171.371 47.6236 170.638 48.7656C169.913 49.8991 168.912 50.7855 167.634 51.4247C166.355 52.0639 164.842 52.3835 163.095 52.3835ZM184.224 52.3835C182.213 52.3835 180.483 51.9574 179.034 51.1051C177.593 50.2443 176.486 49.0511 175.71 47.5256C174.943 46 174.559 44.2443 174.559 42.2585C174.559 40.2472 174.947 38.483 175.723 36.9659C176.507 35.4403 177.619 34.2514 179.059 33.3991C180.5 32.5384 182.213 32.108 184.199 32.108C185.912 32.108 187.412 32.419 188.699 33.0412C189.986 33.6634 191.004 34.5369 191.754 35.6619C192.504 36.7869 192.917 38.108 192.994 39.625H187.855C187.71 38.6449 187.326 37.8565 186.704 37.2599C186.091 36.6548 185.285 36.3523 184.288 36.3523C183.444 36.3523 182.707 36.5824 182.076 37.0426C181.454 37.4943 180.968 38.1548 180.619 39.0241C180.27 39.8935 180.095 40.946 180.095 42.1818C180.095 43.4347 180.265 44.5 180.606 45.3778C180.956 46.2557 181.446 46.9247 182.076 47.3849C182.707 47.8452 183.444 48.0753 184.288 48.0753C184.91 48.0753 185.468 47.9474 185.963 47.6918C186.466 47.4361 186.879 47.0653 187.203 46.5795C187.535 46.0852 187.753 45.4929 187.855 44.8026H192.994C192.909 46.3026 192.5 47.6236 191.767 48.7656C191.042 49.8991 190.041 50.7855 188.763 51.4247C187.484 52.0639 185.971 52.3835 184.224 52.3835ZM205.43 52.3835C203.41 52.3835 201.671 51.9744 200.214 51.1562C198.765 50.3295 197.649 49.1619 196.864 47.6534C196.08 46.1364 195.688 44.3423 195.688 42.2713C195.688 40.2514 196.08 38.4787 196.864 36.9531C197.649 35.4276 198.752 34.2386 200.176 33.3864C201.607 32.5341 203.286 32.108 205.212 32.108C206.508 32.108 207.714 32.3168 208.83 32.7344C209.955 33.1435 210.935 33.7614 211.771 34.5881C212.614 35.4148 213.271 36.4545 213.739 37.7074C214.208 38.9517 214.443 40.4091 214.443 42.0795V43.5753H197.862V40.2003H209.316C209.316 39.4162 209.146 38.7216 208.805 38.1165C208.464 37.5114 207.991 37.0384 207.386 36.6974C206.789 36.348 206.095 36.1733 205.302 36.1733C204.475 36.1733 203.742 36.3651 203.103 36.7486C202.472 37.1236 201.978 37.6307 201.62 38.2699C201.262 38.9006 201.079 39.6037 201.07 40.3793V43.5881C201.07 44.5597 201.249 45.3991 201.607 46.1065C201.974 46.8139 202.489 47.3594 203.154 47.7429C203.819 48.1264 204.607 48.3182 205.519 48.3182C206.124 48.3182 206.678 48.233 207.181 48.0625C207.684 47.892 208.114 47.6364 208.472 47.2955C208.83 46.9545 209.103 46.5369 209.291 46.0426L214.327 46.375C214.072 47.5852 213.548 48.642 212.755 49.5455C211.971 50.4403 210.957 51.1392 209.712 51.642C208.477 52.1364 207.049 52.3835 205.43 52.3835ZM234.335 37.9631L229.349 38.2699C229.264 37.8437 229.08 37.4602 228.799 37.1193C228.518 36.7699 228.147 36.4929 227.687 36.2884C227.235 36.0753 226.694 35.9688 226.063 35.9688C225.22 35.9688 224.508 36.1477 223.928 36.5057C223.349 36.8551 223.059 37.3239 223.059 37.9119C223.059 38.3807 223.247 38.777 223.622 39.1009C223.997 39.4247 224.64 39.6847 225.552 39.8807L229.106 40.5966C231.015 40.9886 232.438 41.6193 233.376 42.4886C234.313 43.358 234.782 44.5 234.782 45.9148C234.782 47.2017 234.403 48.331 233.644 49.3026C232.894 50.2741 231.863 51.0327 230.551 51.5781C229.247 52.1151 227.742 52.3835 226.038 52.3835C223.438 52.3835 221.367 51.8423 219.825 50.7599C218.291 49.669 217.391 48.1861 217.127 46.3111L222.484 46.0298C222.646 46.8224 223.038 47.4276 223.66 47.8452C224.282 48.2543 225.079 48.4588 226.05 48.4588C227.005 48.4588 227.772 48.2756 228.352 47.9091C228.94 47.5341 229.238 47.0526 229.247 46.4645C229.238 45.9702 229.029 45.5653 228.62 45.25C228.211 44.9261 227.58 44.679 226.728 44.5085L223.327 43.831C221.41 43.4474 219.982 42.7827 219.045 41.8366C218.116 40.8906 217.651 39.6847 217.651 38.2188C217.651 36.9574 217.992 35.8707 218.674 34.9588C219.364 34.0469 220.332 33.3438 221.576 32.8494C222.829 32.3551 224.295 32.108 225.974 32.108C228.454 32.108 230.406 32.6321 231.829 33.6804C233.261 34.7287 234.096 36.1562 234.335 37.9631ZM254.549 37.9631L249.564 38.2699C249.478 37.8437 249.295 37.4602 249.014 37.1193C248.733 36.7699 248.362 36.4929 247.902 36.2884C247.45 36.0753 246.909 35.9688 246.278 35.9688C245.434 35.9688 244.723 36.1477 244.143 36.5057C243.564 36.8551 243.274 37.3239 243.274 37.9119C243.274 38.3807 243.461 38.777 243.836 39.1009C244.211 39.4247 244.855 39.6847 245.767 39.8807L249.321 40.5966C251.23 40.9886 252.653 41.6193 253.591 42.4886C254.528 43.358 254.997 44.5 254.997 45.9148C254.997 47.2017 254.618 48.331 253.859 49.3026C253.109 50.2741 252.078 51.0327 250.765 51.5781C249.461 52.1151 247.957 52.3835 246.253 52.3835C243.653 52.3835 241.582 51.8423 240.039 50.7599C238.505 49.669 237.606 48.1861 237.342 46.3111L242.699 46.0298C242.861 46.8224 243.253 47.4276 243.875 47.8452C244.497 48.2543 245.294 48.4588 246.265 48.4588C247.22 48.4588 247.987 48.2756 248.566 47.9091C249.155 47.5341 249.453 47.0526 249.461 46.4645C249.453 45.9702 249.244 45.5653 248.835 45.25C248.426 44.9261 247.795 44.679 246.943 44.5085L243.542 43.831C241.625 43.4474 240.197 42.7827 239.26 41.8366C238.331 40.8906 237.866 39.6847 237.866 38.2188C237.866 36.9574 238.207 35.8707 238.889 34.9588C239.579 34.0469 240.547 33.3438 241.791 32.8494C243.044 32.3551 244.51 32.108 246.189 32.108C248.669 32.108 250.62 32.6321 252.044 33.6804C253.476 34.7287 254.311 36.1562 254.549 37.9631ZM266.861 25.8182H273.687L280.897 43.4091H281.204L288.414 25.8182H295.241V52H289.872V34.9588H289.655L282.879 51.8722H279.223L272.447 34.8949H272.23V52H266.861V25.8182ZM305.299 52.3707C304.046 52.3707 302.93 52.1534 301.95 51.7188C300.97 51.2756 300.194 50.6236 299.623 49.7628C299.06 48.8935 298.779 47.8111 298.779 46.5156C298.779 45.4247 298.979 44.5085 299.38 43.767C299.781 43.0256 300.326 42.429 301.016 41.9773C301.707 41.5256 302.491 41.1847 303.369 40.9545C304.255 40.7244 305.184 40.5625 306.156 40.4688C307.298 40.3494 308.218 40.2386 308.917 40.1364C309.616 40.0256 310.123 39.8636 310.438 39.6506C310.754 39.4375 310.911 39.1222 310.911 38.7045V38.6278C310.911 37.8182 310.656 37.1918 310.144 36.7486C309.641 36.3054 308.925 36.0838 307.997 36.0838C307.016 36.0838 306.237 36.3011 305.657 36.7358C305.077 37.1619 304.694 37.6989 304.506 38.3466L299.47 37.9375C299.725 36.7443 300.228 35.7131 300.978 34.8438C301.728 33.9659 302.695 33.2926 303.88 32.8239C305.073 32.3466 306.454 32.108 308.022 32.108C309.113 32.108 310.157 32.2358 311.154 32.4915C312.16 32.7472 313.051 33.1435 313.826 33.6804C314.61 34.2173 315.228 34.9077 315.68 35.7514C316.131 36.5866 316.357 37.5881 316.357 38.7557V52H311.193V49.277H311.039C310.724 49.8906 310.302 50.4318 309.774 50.9006C309.245 51.3608 308.61 51.723 307.869 51.9872C307.127 52.2429 306.271 52.3707 305.299 52.3707ZM306.859 48.6122C307.66 48.6122 308.367 48.4545 308.981 48.1392C309.595 47.8153 310.076 47.3807 310.425 46.8352C310.775 46.2898 310.95 45.6719 310.95 44.9815V42.8977C310.779 43.0085 310.545 43.1108 310.247 43.2045C309.957 43.2898 309.629 43.3707 309.262 43.4474C308.896 43.5156 308.529 43.5795 308.163 43.6392C307.796 43.6903 307.464 43.7372 307.166 43.7798C306.526 43.8736 305.968 44.0227 305.491 44.2273C305.014 44.4318 304.643 44.7088 304.379 45.0582C304.114 45.3991 303.982 45.8253 303.982 46.3366C303.982 47.0781 304.251 47.6449 304.788 48.0369C305.333 48.4205 306.024 48.6122 306.859 48.6122ZM326.028 40.6477V52H320.582V32.3636H325.773V35.8281H326.003C326.438 34.6861 327.166 33.7827 328.189 33.1179C329.212 32.4446 330.452 32.108 331.909 32.108C333.273 32.108 334.462 32.4062 335.476 33.0028C336.49 33.5994 337.278 34.4517 337.841 35.5597C338.403 36.6591 338.685 37.9716 338.685 39.4972V52H333.239V40.4688C333.247 39.267 332.94 38.3295 332.318 37.6562C331.696 36.9744 330.84 36.6335 329.749 36.6335C329.016 36.6335 328.368 36.7912 327.805 37.1065C327.251 37.4219 326.817 37.8821 326.501 38.4872C326.195 39.0838 326.037 39.804 326.028 40.6477ZM348.576 52.3707C347.324 52.3707 346.207 52.1534 345.227 51.7188C344.247 51.2756 343.471 50.6236 342.9 49.7628C342.338 48.8935 342.057 47.8111 342.057 46.5156C342.057 45.4247 342.257 44.5085 342.657 43.767C343.058 43.0256 343.603 42.429 344.294 41.9773C344.984 41.5256 345.768 41.1847 346.646 40.9545C347.532 40.7244 348.461 40.5625 349.433 40.4688C350.575 40.3494 351.495 40.2386 352.194 40.1364C352.893 40.0256 353.4 39.8636 353.716 39.6506C354.031 39.4375 354.189 39.1222 354.189 38.7045V38.6278C354.189 37.8182 353.933 37.1918 353.422 36.7486C352.919 36.3054 352.203 36.0838 351.274 36.0838C350.294 36.0838 349.514 36.3011 348.934 36.7358C348.355 37.1619 347.971 37.6989 347.784 38.3466L342.747 37.9375C343.003 36.7443 343.505 35.7131 344.255 34.8438C345.005 33.9659 345.973 33.2926 347.157 32.8239C348.351 32.3466 349.731 32.108 351.299 32.108C352.39 32.108 353.434 32.2358 354.432 32.4915C355.437 32.7472 356.328 33.1435 357.103 33.6804C357.888 34.2173 358.505 34.9077 358.957 35.7514C359.409 36.5866 359.635 37.5881 359.635 38.7557V52H354.47V49.277H354.316C354.001 49.8906 353.579 50.4318 353.051 50.9006C352.522 51.3608 351.888 51.723 351.146 51.9872C350.405 52.2429 349.548 52.3707 348.576 52.3707ZM350.136 48.6122C350.937 48.6122 351.645 48.4545 352.258 48.1392C352.872 47.8153 353.353 47.3807 353.703 46.8352C354.052 46.2898 354.227 45.6719 354.227 44.9815V42.8977C354.057 43.0085 353.822 43.1108 353.524 43.2045C353.234 43.2898 352.906 43.3707 352.54 43.4474C352.173 43.5156 351.807 43.5795 351.44 43.6392C351.074 43.6903 350.741 43.7372 350.443 43.7798C349.804 43.8736 349.245 44.0227 348.768 44.2273C348.291 44.4318 347.92 44.7088 347.656 45.0582C347.392 45.3991 347.26 45.8253 347.26 46.3366C347.26 47.0781 347.528 47.6449 348.065 48.0369C348.611 48.4205 349.301 48.6122 350.136 48.6122ZM372.706 59.7727C370.942 59.7727 369.429 59.5298 368.168 59.044C366.915 58.5668 365.918 57.9148 365.177 57.0881C364.435 56.2614 363.954 55.3324 363.732 54.3011L368.769 53.6236C368.922 54.0156 369.165 54.3821 369.498 54.723C369.83 55.0639 370.269 55.3366 370.814 55.5412C371.368 55.7543 372.042 55.8608 372.834 55.8608C374.019 55.8608 374.995 55.571 375.762 54.9915C376.537 54.4205 376.925 53.4616 376.925 52.1151V48.5227H376.695C376.456 49.0682 376.098 49.5838 375.621 50.0696C375.144 50.5554 374.53 50.9517 373.78 51.2585C373.03 51.5653 372.135 51.7188 371.096 51.7188C369.621 51.7188 368.279 51.3778 367.069 50.696C365.867 50.0057 364.908 48.9531 364.192 47.5384C363.485 46.1151 363.131 44.3168 363.131 42.1435C363.131 39.919 363.493 38.0611 364.218 36.5696C364.942 35.0781 365.905 33.9616 367.107 33.2202C368.317 32.4787 369.642 32.108 371.083 32.108C372.182 32.108 373.103 32.2955 373.844 32.6705C374.586 33.0369 375.182 33.4972 375.634 34.0511C376.094 34.5966 376.448 35.1335 376.695 35.6619H376.9V32.3636H382.307V52.1918C382.307 53.8622 381.898 55.2599 381.08 56.3849C380.262 57.5099 379.128 58.3537 377.679 58.9162C376.239 59.4872 374.581 59.7727 372.706 59.7727ZM372.821 47.6278C373.699 47.6278 374.441 47.4105 375.046 46.9759C375.66 46.5327 376.128 45.902 376.452 45.0838C376.785 44.2571 376.951 43.2685 376.951 42.1179C376.951 40.9673 376.789 39.9702 376.465 39.1264C376.141 38.2741 375.672 37.6136 375.059 37.1449C374.445 36.6761 373.699 36.4418 372.821 36.4418C371.927 36.4418 371.172 36.6847 370.559 37.1705C369.945 37.6477 369.481 38.3125 369.165 39.1648C368.85 40.017 368.692 41.0014 368.692 42.1179C368.692 43.2514 368.85 44.2315 369.165 45.0582C369.489 45.8764 369.954 46.5114 370.559 46.9631C371.172 47.4062 371.927 47.6278 372.821 47.6278ZM386.641 52V32.3636H391.831V35.8281H392.062C392.471 34.6776 393.152 33.7699 394.107 33.1051C395.062 32.4403 396.204 32.108 397.533 32.108C398.88 32.108 400.026 32.4446 400.972 33.1179C401.918 33.7827 402.549 34.6861 402.864 35.8281H403.069C403.469 34.7031 404.194 33.804 405.242 33.1307C406.299 32.4489 407.547 32.108 408.988 32.108C410.82 32.108 412.307 32.6918 413.449 33.8594C414.6 35.0185 415.175 36.6634 415.175 38.794V52H409.742V39.8679C409.742 38.777 409.452 37.9588 408.873 37.4134C408.293 36.8679 407.569 36.5952 406.699 36.5952C405.711 36.5952 404.939 36.9105 404.385 37.5412C403.831 38.1634 403.554 38.9858 403.554 40.0085V52H398.275V39.7528C398.275 38.7898 397.998 38.0227 397.444 37.4517C396.898 36.8807 396.178 36.5952 395.283 36.5952C394.678 36.5952 394.133 36.7486 393.647 37.0554C393.169 37.3537 392.79 37.7756 392.509 38.321C392.228 38.858 392.087 39.4886 392.087 40.2131V52H386.641ZM428.426 52.3835C426.406 52.3835 424.667 51.9744 423.21 51.1562C421.761 50.3295 420.645 49.1619 419.861 47.6534C419.076 46.1364 418.684 44.3423 418.684 42.2713C418.684 40.2514 419.076 38.4787 419.861 36.9531C420.645 35.4276 421.748 34.2386 423.172 33.3864C424.603 32.5341 426.282 32.108 428.209 32.108C429.504 32.108 430.71 32.3168 431.826 32.7344C432.951 33.1435 433.932 33.7614 434.767 34.5881C435.611 35.4148 436.267 36.4545 436.736 37.7074C437.204 38.9517 437.439 40.4091 437.439 42.0795V43.5753H420.858V40.2003H432.312C432.312 39.4162 432.142 38.7216 431.801 38.1165C431.46 37.5114 430.987 37.0384 430.382 36.6974C429.785 36.348 429.091 36.1733 428.298 36.1733C427.471 36.1733 426.738 36.3651 426.099 36.7486C425.468 37.1236 424.974 37.6307 424.616 38.2699C424.258 38.9006 424.075 39.6037 424.066 40.3793V43.5881C424.066 44.5597 424.245 45.3991 424.603 46.1065C424.97 46.8139 425.486 47.3594 426.15 47.7429C426.815 48.1264 427.603 48.3182 428.515 48.3182C429.12 48.3182 429.674 48.233 430.177 48.0625C430.68 47.892 431.111 47.6364 431.468 47.2955C431.826 46.9545 432.099 46.5369 432.287 46.0426L437.324 46.375C437.068 47.5852 436.544 48.642 435.751 49.5455C434.967 50.4403 433.953 51.1392 432.709 51.642C431.473 52.1364 430.045 52.3835 428.426 52.3835ZM446.439 40.6477V52H440.993V32.3636H446.183V35.8281H446.413C446.848 34.6861 447.576 33.7827 448.599 33.1179C449.622 32.4446 450.862 32.108 452.319 32.108C453.683 32.108 454.872 32.4062 455.886 33.0028C456.9 33.5994 457.689 34.4517 458.251 35.5597C458.814 36.6591 459.095 37.9716 459.095 39.4972V52H453.649V40.4688C453.657 39.267 453.351 38.3295 452.728 37.6562C452.106 36.9744 451.25 36.6335 450.159 36.6335C449.426 36.6335 448.778 36.7912 448.216 37.1065C447.662 37.4219 447.227 37.8821 446.912 38.4872C446.605 39.0838 446.447 39.804 446.439 40.6477ZM473.832 32.3636V36.4545H462.006V32.3636H473.832ZM464.691 27.6591H470.137V45.9659C470.137 46.4687 470.214 46.8608 470.367 47.142C470.521 47.4148 470.734 47.6065 471.006 47.7173C471.288 47.8281 471.612 47.8835 471.978 47.8835C472.234 47.8835 472.489 47.8622 472.745 47.8196C473.001 47.7685 473.197 47.7301 473.333 47.7045L474.19 51.7571C473.917 51.8423 473.533 51.9403 473.039 52.0511C472.545 52.1705 471.944 52.2429 471.237 52.2685C469.924 52.3196 468.774 52.1449 467.785 51.7443C466.805 51.3437 466.042 50.7216 465.497 49.8778C464.951 49.0341 464.683 47.9687 464.691 46.6818V27.6591Z" fill="white"/>
<path d="M74.6882 26.9062C74.6882 22.3309 70.1622 18.625 64.5742 18.625C58.9862 18.625 54.4602 22.3309 54.4602 26.9062C54.4602 30.6742 57.5323 33.8521 61.7296 34.8563C61.6538 36.5229 61.1986 37.8064 60.3389 38.676C58.392 40.6635 54.1062 40.9947 49.5675 41.3363C46.0023 41.6055 42.3107 41.8953 39.2891 43.0857V28.1795C43.3979 27.1236 46.3689 23.9871 46.3689 20.2812C46.3689 15.7059 41.8429 12 36.2549 12C30.6669 12 26.1409 15.7059 26.1409 20.2812C26.1409 23.9871 29.1119 27.1236 33.2207 28.1795V48.8102C29.1119 49.8764 26.1409 53.0129 26.1409 56.7188C26.1409 61.2941 30.6669 65 36.2549 65C41.8429 65 46.3689 61.2941 46.3689 56.7188C46.3689 53.1992 43.6887 50.1869 39.8959 48.9965C40.2879 48.4582 40.8821 47.982 41.7797 47.6094C43.8278 46.7605 46.8873 46.5328 50.1364 46.2844C55.4716 45.8807 61.5147 45.4148 65.0799 41.7918C66.8498 39.9906 67.7475 37.6719 67.8107 34.7631C71.8057 33.6451 74.6882 30.55 74.6882 26.9062ZM36.2549 18.625C37.3674 18.625 38.2777 19.3703 38.2777 20.2812C38.2777 21.1922 37.3674 21.9375 36.2549 21.9375C35.1424 21.9375 34.2321 21.1922 34.2321 20.2812C34.2321 19.3703 35.1424 18.625 36.2549 18.625ZM36.2549 58.375C35.1424 58.375 34.2321 57.6297 34.2321 56.7188C34.2321 55.8078 35.1424 55.0625 36.2549 55.0625C37.3674 55.0625 38.2777 55.8078 38.2777 56.7188C38.2777 57.6297 37.3674 58.375 36.2549 58.375ZM64.5742 25.25C65.6867 25.25 66.597 25.9953 66.597 26.9062C66.597 27.8172 65.6867 28.5625 64.5742 28.5625C63.4616 28.5625 62.5514 27.8172 62.5514 26.9062C62.5514 25.9953 63.4616 25.25 64.5742 25.25Z" fill="#FFA800"/>
</svg>
