<svg width="543" height="78" viewBox="0 0 543 78" fill="none" xmlns="http://www.w3.org/2000/svg">
<rect width="543" height="78" fill="black"/>
<path d="M127.914 49H118.633V22.8182H127.991C130.624 22.8182 132.892 23.3423 134.792 24.3906C136.693 25.4304 138.154 26.9261 139.177 28.8778C140.208 30.8295 140.724 33.1648 140.724 35.8835C140.724 38.6108 140.208 40.9545 139.177 42.9148C138.154 44.875 136.684 46.3793 134.767 47.4276C132.857 48.4759 130.573 49 127.914 49ZM124.169 44.2571H127.684C129.32 44.2571 130.697 43.9673 131.813 43.3878C132.938 42.7997 133.782 41.892 134.345 40.6648C134.916 39.429 135.201 37.8352 135.201 35.8835C135.201 33.9489 134.916 32.3679 134.345 31.1406C133.782 29.9134 132.943 29.0099 131.826 28.4304C130.71 27.8509 129.333 27.5611 127.697 27.5611H124.169V44.2571ZM154.106 49H144.824V22.8182H154.182C156.816 22.8182 159.083 23.3423 160.983 24.3906C162.884 25.4304 164.346 26.9261 165.368 28.8778C166.4 30.8295 166.915 33.1648 166.915 35.8835C166.915 38.6108 166.4 40.9545 165.368 42.9148C164.346 44.875 162.876 46.3793 160.958 47.4276C159.049 48.4759 156.765 49 154.106 49ZM150.36 44.2571H153.876C155.512 44.2571 156.888 43.9673 158.005 43.3878C159.13 42.7997 159.974 41.892 160.536 40.6648C161.107 39.429 161.393 37.8352 161.393 35.8835C161.393 33.9489 161.107 32.3679 160.536 31.1406C159.974 29.9134 159.134 29.0099 158.018 28.4304C156.901 27.8509 155.525 27.5611 153.888 27.5611H150.36V44.2571ZM179.786 49.3835C177.8 49.3835 176.083 48.9616 174.634 48.1179C173.193 47.2656 172.081 46.081 171.297 44.5639C170.513 43.0384 170.121 41.2699 170.121 39.2585C170.121 37.2301 170.513 35.4574 171.297 33.9403C172.081 32.4148 173.193 31.2301 174.634 30.3864C176.083 29.5341 177.8 29.108 179.786 29.108C181.771 29.108 183.485 29.5341 184.925 30.3864C186.374 31.2301 187.49 32.4148 188.274 33.9403C189.058 35.4574 189.45 37.2301 189.45 39.2585C189.45 41.2699 189.058 43.0384 188.274 44.5639C187.49 46.081 186.374 47.2656 184.925 48.1179C183.485 48.9616 181.771 49.3835 179.786 49.3835ZM179.811 45.1648C180.715 45.1648 181.469 44.9091 182.074 44.3977C182.679 43.8778 183.135 43.1705 183.442 42.2756C183.757 41.3807 183.915 40.3622 183.915 39.2202C183.915 38.0781 183.757 37.0597 183.442 36.1648C183.135 35.2699 182.679 34.5625 182.074 34.0426C181.469 33.5227 180.715 33.2628 179.811 33.2628C178.899 33.2628 178.132 33.5227 177.51 34.0426C176.896 34.5625 176.432 35.2699 176.117 36.1648C175.81 37.0597 175.656 38.0781 175.656 39.2202C175.656 40.3622 175.81 41.3807 176.117 42.2756C176.432 43.1705 176.896 43.8778 177.51 44.3977C178.132 44.9091 178.899 45.1648 179.811 45.1648ZM207.297 30.348C207.195 29.3168 206.756 28.5156 205.98 27.9446C205.205 27.3736 204.152 27.0881 202.823 27.0881C201.919 27.0881 201.156 27.2159 200.534 27.4716C199.912 27.7188 199.435 28.0639 199.102 28.5071C198.779 28.9503 198.617 29.4531 198.617 30.0156C198.6 30.4844 198.698 30.8935 198.911 31.2429C199.132 31.5923 199.435 31.8949 199.818 32.1506C200.202 32.3977 200.645 32.6151 201.148 32.8026C201.651 32.9815 202.188 33.1349 202.759 33.2628L205.111 33.8253C206.253 34.081 207.301 34.4219 208.256 34.848C209.21 35.2741 210.037 35.7983 210.736 36.4205C211.435 37.0426 211.976 37.7756 212.36 38.6193C212.752 39.4631 212.952 40.4304 212.96 41.5213C212.952 43.1236 212.543 44.5128 211.733 45.6889C210.932 46.8565 209.773 47.7642 208.256 48.4119C206.747 49.0511 204.928 49.3707 202.797 49.3707C200.683 49.3707 198.843 49.0469 197.274 48.3991C195.715 47.7514 194.496 46.7926 193.618 45.5227C192.749 44.2443 192.293 42.6634 192.25 40.7798H197.607C197.666 41.6577 197.918 42.3906 198.361 42.9787C198.813 43.5582 199.414 43.9972 200.164 44.2955C200.922 44.5852 201.779 44.7301 202.733 44.7301C203.671 44.7301 204.485 44.5937 205.175 44.321C205.874 44.0483 206.415 43.669 206.798 43.1832C207.182 42.6974 207.374 42.1392 207.374 41.5085C207.374 40.9205 207.199 40.4261 206.85 40.0256C206.509 39.625 206.006 39.2841 205.341 39.0028C204.685 38.7216 203.879 38.4659 202.925 38.2358L200.074 37.5199C197.867 36.983 196.124 36.1435 194.845 35.0014C193.567 33.8594 192.932 32.321 192.941 30.3864C192.932 28.8011 193.354 27.4162 194.206 26.2315C195.067 25.0469 196.247 24.1222 197.747 23.4574C199.247 22.7926 200.952 22.4602 202.861 22.4602C204.804 22.4602 206.5 22.7926 207.949 23.4574C209.406 24.1222 210.54 25.0469 211.35 26.2315C212.159 27.4162 212.577 28.7884 212.602 30.348H207.297ZM225.016 49V22.8182H235.345C237.331 22.8182 239.023 23.1974 240.421 23.956C241.818 24.706 242.884 25.75 243.617 27.0881C244.358 28.4176 244.729 29.9517 244.729 31.6903C244.729 33.429 244.354 34.9631 243.604 36.2926C242.854 37.6222 241.767 38.6577 240.344 39.3991C238.929 40.1406 237.216 40.5114 235.205 40.5114H228.621V36.0753H234.31C235.375 36.0753 236.253 35.892 236.943 35.5256C237.642 35.1506 238.162 34.6349 238.503 33.9787C238.852 33.3139 239.027 32.5511 239.027 31.6903C239.027 30.821 238.852 30.0625 238.503 29.4148C238.162 28.7585 237.642 28.2514 236.943 27.8935C236.244 27.527 235.358 27.3438 234.284 27.3438H230.551V49H225.016ZM248.222 49V29.3636H253.502V32.7898H253.706C254.064 31.571 254.665 30.6506 255.509 30.0284C256.353 29.3977 257.324 29.0824 258.424 29.0824C258.697 29.0824 258.991 29.0994 259.306 29.1335C259.621 29.1676 259.898 29.2145 260.137 29.2741V34.1065C259.881 34.0298 259.528 33.9616 259.076 33.902C258.624 33.8423 258.211 33.8125 257.836 33.8125C257.035 33.8125 256.319 33.9872 255.688 34.3366C255.066 34.6776 254.572 35.1548 254.205 35.7685C253.847 36.3821 253.668 37.0895 253.668 37.8906V49H248.222ZM270.911 49.3835C268.925 49.3835 267.208 48.9616 265.759 48.1179C264.318 47.2656 263.206 46.081 262.422 44.5639C261.638 43.0384 261.246 41.2699 261.246 39.2585C261.246 37.2301 261.638 35.4574 262.422 33.9403C263.206 32.4148 264.318 31.2301 265.759 30.3864C267.208 29.5341 268.925 29.108 270.911 29.108C272.896 29.108 274.61 29.5341 276.05 30.3864C277.499 31.2301 278.615 32.4148 279.399 33.9403C280.183 35.4574 280.575 37.2301 280.575 39.2585C280.575 41.2699 280.183 43.0384 279.399 44.5639C278.615 46.081 277.499 47.2656 276.05 48.1179C274.61 48.9616 272.896 49.3835 270.911 49.3835ZM270.936 45.1648C271.84 45.1648 272.594 44.9091 273.199 44.3977C273.804 43.8778 274.26 43.1705 274.567 42.2756C274.882 41.3807 275.04 40.3622 275.04 39.2202C275.04 38.0781 274.882 37.0597 274.567 36.1648C274.26 35.2699 273.804 34.5625 273.199 34.0426C272.594 33.5227 271.84 33.2628 270.936 33.2628C270.024 33.2628 269.257 33.5227 268.635 34.0426C268.021 34.5625 267.557 35.2699 267.242 36.1648C266.935 37.0597 266.781 38.0781 266.781 39.2202C266.781 40.3622 266.935 41.3807 267.242 42.2756C267.557 43.1705 268.021 43.8778 268.635 44.3977C269.257 44.9091 270.024 45.1648 270.936 45.1648ZM294.561 29.3636V33.4545H282.736V29.3636H294.561ZM285.421 24.6591H290.867V42.9659C290.867 43.4687 290.943 43.8608 291.097 44.142C291.25 44.4148 291.463 44.6065 291.736 44.7173C292.017 44.8281 292.341 44.8835 292.708 44.8835C292.963 44.8835 293.219 44.8622 293.475 44.8196C293.73 44.7685 293.926 44.7301 294.063 44.7045L294.919 48.7571C294.646 48.8423 294.263 48.9403 293.769 49.0511C293.274 49.1705 292.673 49.2429 291.966 49.2685C290.654 49.3196 289.503 49.1449 288.514 48.7443C287.534 48.3437 286.771 47.7216 286.226 46.8778C285.681 46.0341 285.412 44.9687 285.421 43.6818V24.6591ZM306.847 49.3835C304.827 49.3835 303.088 48.9744 301.631 48.1562C300.182 47.3295 299.066 46.1619 298.281 44.6534C297.497 43.1364 297.105 41.3423 297.105 39.2713C297.105 37.2514 297.497 35.4787 298.281 33.9531C299.066 32.4276 300.169 31.2386 301.593 30.3864C303.024 29.5341 304.703 29.108 306.629 29.108C307.925 29.108 309.131 29.3168 310.247 29.7344C311.372 30.1435 312.352 30.7614 313.188 31.5881C314.031 32.4148 314.688 33.4545 315.156 34.7074C315.625 35.9517 315.86 37.4091 315.86 39.0795V40.5753H299.279V37.2003H310.733C310.733 36.4162 310.563 35.7216 310.222 35.1165C309.881 34.5114 309.408 34.0384 308.803 33.6974C308.206 33.348 307.512 33.1733 306.719 33.1733C305.892 33.1733 305.159 33.3651 304.52 33.7486C303.889 34.1236 303.395 34.6307 303.037 35.2699C302.679 35.9006 302.496 36.6037 302.487 37.3793V40.5881C302.487 41.5597 302.666 42.3991 303.024 43.1065C303.391 43.8139 303.906 44.3594 304.571 44.7429C305.236 45.1264 306.024 45.3182 306.936 45.3182C307.541 45.3182 308.095 45.233 308.598 45.0625C309.101 44.892 309.531 44.6364 309.889 44.2955C310.247 43.9545 310.52 43.5369 310.708 43.0426L315.744 43.375C315.489 44.5852 314.965 45.642 314.172 46.5455C313.388 47.4403 312.374 48.1392 311.129 48.642C309.894 49.1364 308.466 49.3835 306.847 49.3835ZM328.286 49.3835C326.274 49.3835 324.544 48.9574 323.095 48.1051C321.655 47.2443 320.547 46.0511 319.771 44.5256C319.004 43 318.621 41.2443 318.621 39.2585C318.621 37.2472 319.009 35.483 319.784 33.9659C320.568 32.4403 321.681 31.2514 323.121 30.3991C324.561 29.5384 326.274 29.108 328.26 29.108C329.973 29.108 331.473 29.419 332.76 30.0412C334.047 30.6634 335.066 31.5369 335.816 32.6619C336.566 33.7869 336.979 35.108 337.056 36.625H331.916C331.771 35.6449 331.388 34.8565 330.766 34.2599C330.152 33.6548 329.347 33.3523 328.35 33.3523C327.506 33.3523 326.769 33.5824 326.138 34.0426C325.516 34.4943 325.03 35.1548 324.681 36.0241C324.331 36.8935 324.156 37.946 324.156 39.1818C324.156 40.4347 324.327 41.5 324.668 42.3778C325.017 43.2557 325.507 43.9247 326.138 44.3849C326.769 44.8452 327.506 45.0753 328.35 45.0753C328.972 45.0753 329.53 44.9474 330.024 44.6918C330.527 44.4361 330.941 44.0653 331.264 43.5795C331.597 43.0852 331.814 42.4929 331.916 41.8026H337.056C336.97 43.3026 336.561 44.6236 335.828 45.7656C335.104 46.8991 334.102 47.7855 332.824 48.4247C331.546 49.0639 330.033 49.3835 328.286 49.3835ZM350.987 29.3636V33.4545H339.162V29.3636H350.987ZM341.846 24.6591H347.292V42.9659C347.292 43.4687 347.369 43.8608 347.523 44.142C347.676 44.4148 347.889 44.6065 348.162 44.7173C348.443 44.8281 348.767 44.8835 349.133 44.8835C349.389 44.8835 349.645 44.8622 349.9 44.8196C350.156 44.7685 350.352 44.7301 350.488 44.7045L351.345 48.7571C351.072 48.8423 350.689 48.9403 350.194 49.0511C349.7 49.1705 349.099 49.2429 348.392 49.2685C347.079 49.3196 345.929 49.1449 344.94 48.7443C343.96 48.3437 343.197 47.7216 342.652 46.8778C342.106 46.0341 341.838 44.9687 341.846 43.6818V24.6591ZM354.535 49V29.3636H359.981V49H354.535ZM357.27 26.8324C356.461 26.8324 355.766 26.5639 355.187 26.027C354.616 25.4815 354.33 24.8295 354.33 24.071C354.33 23.321 354.616 22.6776 355.187 22.1406C355.766 21.5952 356.461 21.3224 357.27 21.3224C358.08 21.3224 358.77 21.5952 359.341 22.1406C359.921 22.6776 360.211 23.321 360.211 24.071C360.211 24.8295 359.921 25.4815 359.341 26.027C358.77 26.5639 358.08 26.8324 357.27 26.8324ZM373.215 49.3835C371.23 49.3835 369.512 48.9616 368.063 48.1179C366.623 47.2656 365.511 46.081 364.727 44.5639C363.943 43.0384 363.551 41.2699 363.551 39.2585C363.551 37.2301 363.943 35.4574 364.727 33.9403C365.511 32.4148 366.623 31.2301 368.063 30.3864C369.512 29.5341 371.23 29.108 373.215 29.108C375.201 29.108 376.914 29.5341 378.355 30.3864C379.803 31.2301 380.92 32.4148 381.704 33.9403C382.488 35.4574 382.88 37.2301 382.88 39.2585C382.88 41.2699 382.488 43.0384 381.704 44.5639C380.92 46.081 379.803 47.2656 378.355 48.1179C376.914 48.9616 375.201 49.3835 373.215 49.3835ZM373.241 45.1648C374.144 45.1648 374.899 44.9091 375.504 44.3977C376.109 43.8778 376.565 43.1705 376.872 42.2756C377.187 41.3807 377.345 40.3622 377.345 39.2202C377.345 38.0781 377.187 37.0597 376.872 36.1648C376.565 35.2699 376.109 34.5625 375.504 34.0426C374.899 33.5227 374.144 33.2628 373.241 33.2628C372.329 33.2628 371.562 33.5227 370.94 34.0426C370.326 34.5625 369.862 35.2699 369.546 36.1648C369.24 37.0597 369.086 38.0781 369.086 39.2202C369.086 40.3622 369.24 41.3807 369.546 42.2756C369.862 43.1705 370.326 43.8778 370.94 44.3977C371.562 44.9091 372.329 45.1648 373.241 45.1648ZM391.867 37.6477V49H386.421V29.3636H391.612V32.8281H391.842C392.276 31.6861 393.005 30.7827 394.028 30.1179C395.051 29.4446 396.291 29.108 397.748 29.108C399.112 29.108 400.301 29.4062 401.315 30.0028C402.329 30.5994 403.117 31.4517 403.68 32.5597C404.242 33.6591 404.524 34.9716 404.524 36.4972V49H399.078V37.4688C399.086 36.267 398.779 35.3295 398.157 34.6562C397.535 33.9744 396.678 33.6335 395.588 33.6335C394.855 33.6335 394.207 33.7912 393.644 34.1065C393.09 34.4219 392.656 34.8821 392.34 35.4872C392.034 36.0838 391.876 36.804 391.867 37.6477Z" fill="white"/>
<path d="M22.4899 36.0288L23.0881 43.5135L22.4899 51.3782C22.459 51.6661 22.263 51.8848 22.0361 51.8848C21.8092 51.8848 21.6029 51.6661 21.6029 51.3782L21.0253 43.5135L21.6029 36.0288C21.6029 35.7755 21.7989 35.5452 22.0361 35.5452C22.263 35.5452 22.459 35.7755 22.4899 36.0288ZM24.6971 30.778C24.4083 30.778 24.2124 31.0313 24.1814 31.3537L23.6657 43.5135L24.1814 51.3782C24.2124 51.7006 24.4083 51.9539 24.6971 51.9539C24.955 51.9539 25.1819 51.7006 25.1819 51.3782L25.7801 43.5135L25.1819 31.3537C25.1819 31.0313 24.955 30.778 24.6971 30.778ZM27.3272 28.0029C27.0075 28.0029 26.7806 28.2562 26.7496 28.6132L26.2958 43.5826L26.7496 51.3897C26.7806 51.7467 27.0075 52 27.3272 52C27.616 52 27.8739 51.7467 27.8739 51.3897L28.4205 43.5826L27.8739 28.6132C27.8739 28.2562 27.616 28.0029 27.3272 28.0029ZM11.7426 39.1263C11.5982 39.1263 11.5157 39.253 11.4848 39.4142L11 43.5135L11.4848 47.5437C11.5157 47.7049 11.5982 47.8316 11.7426 47.8316C11.887 47.8316 11.9695 47.7049 12.0005 47.5437L12.5781 43.5135L12.0005 39.4142C11.9695 39.253 11.887 39.1263 11.7426 39.1263V39.1263ZM14.1767 36.6045C14.0323 36.6045 13.9189 36.7312 13.9189 36.8924L13.2588 43.5135L13.9189 49.9734C13.9189 50.1691 14.0323 50.2958 14.1767 50.2958C14.3211 50.2958 14.4346 50.1691 14.4655 50.0079L15.2082 43.5135L14.4655 36.8924C14.4346 36.7312 14.3211 36.6045 14.1767 36.6045V36.6045ZM16.7862 35.2918C16.6109 35.2918 16.4665 35.453 16.4458 35.6718L15.8476 43.5135L16.4458 51.0903C16.4768 51.2861 16.6212 51.4473 16.7862 51.4473C16.9616 51.4473 17.106 51.2861 17.106 51.0903L17.8176 43.5135L17.106 35.6718C17.106 35.453 16.9616 35.2918 16.7862 35.2918V35.2918ZM19.3957 35.0385C19.1997 35.0385 19.0244 35.1997 19.0244 35.453L18.4262 43.5135L19.0244 51.3206C19.0244 51.5739 19.1997 51.7352 19.3957 51.7352C19.5917 51.7352 19.767 51.5739 19.7979 51.3206L20.458 43.5135L19.7979 35.453C19.767 35.1997 19.5917 35.0385 19.3957 35.0385ZM44.2939 22.2684C44.1805 22.1763 44.0051 22.1072 43.8608 22.1072C43.6338 22.1072 43.4276 22.1994 43.2832 22.326C43.0872 22.5218 42.9634 22.8096 42.9428 23.0975V23.1896L42.6024 43.5365L42.7778 47.2789L42.9531 50.9291C42.984 51.4703 43.3863 51.9194 43.8711 51.9194C44.3558 51.9194 44.7581 51.4703 44.7581 50.9291L45.1603 43.5365L44.7581 23.0975C44.7168 22.7521 44.5518 22.4297 44.2939 22.2684V22.2684ZM41.5401 24.0302C41.3957 23.9381 41.2513 23.869 41.0863 23.869C40.9212 23.869 40.7665 23.9381 40.6324 24.0302C40.4055 24.1914 40.2611 24.4793 40.2611 24.8017L40.2302 24.9975L39.9414 43.5135C39.9414 43.5135 39.9414 43.548 40.2611 51.0673V51.1018C40.2611 51.2976 40.323 51.4818 40.4365 51.643C40.6118 51.8618 40.8387 52 41.0966 52C41.3235 52 41.5298 51.8733 41.6742 51.7121C41.8495 51.5509 41.932 51.3321 41.932 51.0673L41.963 50.2958L42.2827 43.548L41.9423 24.8017C41.9114 24.4793 41.767 24.1914 41.5401 24.0302V24.0302ZM30.0502 26.6211C29.7304 26.6211 29.4519 26.9435 29.4519 27.3235L28.9981 43.5135L29.4519 51.2515C29.4829 51.6315 29.7407 51.9194 30.0502 51.9194C30.3905 51.9194 30.6484 51.6315 30.6793 51.2515L31.195 43.5135L30.6793 27.3235C30.6587 26.9435 30.4008 26.6211 30.0502 26.6211ZM68.9034 33.8525C67.7895 33.8525 66.7271 34.1058 65.7473 34.5549C65.0872 26.4023 58.9606 20 51.4829 20C49.647 20 47.8729 20.38 46.2949 21.0824C45.6657 21.3357 45.4904 21.5891 45.4904 22.1418V50.8946C45.4904 51.4703 45.8926 51.8849 46.3774 51.9539H68.8931C73.3591 51.9539 77 47.9237 77 42.9377C77.0103 37.9172 73.3694 33.8525 68.9034 33.8525V33.8525ZM38.3014 26.909C37.8683 26.909 37.5279 27.289 37.4969 27.8071L37.1566 43.548L37.4969 51.1018C37.5279 51.5855 37.8683 51.9655 38.3014 51.9655C38.7346 51.9655 39.075 51.5855 39.075 51.1018L39.4773 43.548L39.075 27.8071C39.0441 27.289 38.7346 26.909 38.3014 26.909ZM32.7731 26.0108C32.4327 26.0108 32.113 26.3678 32.113 26.7823L31.7107 43.5135L32.113 51.217C32.1439 51.6315 32.4327 51.9539 32.7731 51.9539C33.1444 51.9539 33.4332 51.6315 33.4641 51.217L33.9179 43.5135L33.4641 26.7823C33.4332 26.3678 33.1444 26.0108 32.7731 26.0108V26.0108ZM35.527 26.4023C35.1247 26.4023 34.8153 26.7593 34.8153 27.1968L34.413 43.5135L34.8153 51.1594C34.8462 51.6085 35.135 51.9539 35.527 51.9539C35.9189 51.9539 36.2386 51.597 36.2386 51.1594L36.6718 43.5135L36.2386 27.1968C36.2386 26.7478 35.9292 26.4023 35.527 26.4023V26.4023Z" fill="#FFA800"/>
</svg>
