<svg width="543" height="78" viewBox="0 0 543 78" fill="none" xmlns="http://www.w3.org/2000/svg">
<rect width="543" height="78" fill="black"/>
<path d="M135.887 47V20.8182H153.222V25.3821H141.422V31.6207H152.072V36.1847H141.422V47H135.887ZM156.527 47V27.3636H161.807V30.7898H162.011C162.369 29.571 162.97 28.6506 163.814 28.0284C164.657 27.3977 165.629 27.0824 166.729 27.0824C167.001 27.0824 167.295 27.0994 167.611 27.1335C167.926 27.1676 168.203 27.2145 168.442 27.2741V32.1065C168.186 32.0298 167.832 31.9616 167.381 31.902C166.929 31.8423 166.515 31.8125 166.14 31.8125C165.339 31.8125 164.623 31.9872 163.993 32.3366C163.371 32.6776 162.876 33.1548 162.51 33.7685C162.152 34.3821 161.973 35.0895 161.973 35.8906V47H156.527ZM179.292 47.3835C177.272 47.3835 175.534 46.9744 174.076 46.1562C172.627 45.3295 171.511 44.1619 170.727 42.6534C169.943 41.1364 169.551 39.3423 169.551 37.2713C169.551 35.2514 169.943 33.4787 170.727 31.9531C171.511 30.4276 172.615 29.2386 174.038 28.3864C175.47 27.5341 177.149 27.108 179.075 27.108C180.37 27.108 181.576 27.3168 182.693 27.7344C183.818 28.1435 184.798 28.7614 185.633 29.5881C186.477 30.4148 187.133 31.4545 187.602 32.7074C188.07 33.9517 188.305 35.4091 188.305 37.0795V38.5753H171.724V35.2003H183.178C183.178 34.4162 183.008 33.7216 182.667 33.1165C182.326 32.5114 181.853 32.0384 181.248 31.6974C180.651 31.348 179.957 31.1733 179.164 31.1733C178.338 31.1733 177.605 31.3651 176.965 31.7486C176.335 32.1236 175.84 32.6307 175.482 33.2699C175.124 33.9006 174.941 34.6037 174.933 35.3793V38.5881C174.933 39.5597 175.112 40.3991 175.47 41.1065C175.836 41.8139 176.352 42.3594 177.017 42.7429C177.681 43.1264 178.47 43.3182 179.382 43.3182C179.987 43.3182 180.541 43.233 181.044 43.0625C181.546 42.892 181.977 42.6364 182.335 42.2955C182.693 41.9545 182.965 41.5369 183.153 41.0426L188.19 41.375C187.934 42.5852 187.41 43.642 186.617 44.5455C185.833 45.4403 184.819 46.1392 183.575 46.642C182.339 47.1364 180.911 47.3835 179.292 47.3835ZM200.808 47.3835C198.788 47.3835 197.049 46.9744 195.592 46.1562C194.143 45.3295 193.026 44.1619 192.242 42.6534C191.458 41.1364 191.066 39.3423 191.066 37.2713C191.066 35.2514 191.458 33.4787 192.242 31.9531C193.026 30.4276 194.13 29.2386 195.553 28.3864C196.985 27.5341 198.664 27.108 200.59 27.108C201.886 27.108 203.092 27.3168 204.208 27.7344C205.333 28.1435 206.313 28.7614 207.149 29.5881C207.992 30.4148 208.649 31.4545 209.117 32.7074C209.586 33.9517 209.82 35.4091 209.82 37.0795V38.5753H193.24V35.2003H204.694C204.694 34.4162 204.524 33.7216 204.183 33.1165C203.842 32.5114 203.369 32.0384 202.764 31.6974C202.167 31.348 201.472 31.1733 200.68 31.1733C199.853 31.1733 199.12 31.3651 198.481 31.7486C197.85 32.1236 197.356 32.6307 196.998 33.2699C196.64 33.9006 196.457 34.6037 196.448 35.3793V38.5881C196.448 39.5597 196.627 40.3991 196.985 41.1065C197.352 41.8139 197.867 42.3594 198.532 42.7429C199.197 43.1264 199.985 43.3182 200.897 43.3182C201.502 43.3182 202.056 43.233 202.559 43.0625C203.062 42.892 203.492 42.6364 203.85 42.2955C204.208 41.9545 204.481 41.5369 204.669 41.0426L209.705 41.375C209.45 42.5852 208.926 43.642 208.133 44.5455C207.349 45.4403 206.335 46.1392 205.09 46.642C203.855 47.1364 202.427 47.3835 200.808 47.3835ZM221.809 20.8182H228.635L235.846 38.4091H236.153L243.363 20.8182H250.189V47H244.82V29.9588H244.603L237.827 46.8722H234.171L227.395 29.8949H227.178V47H221.809V20.8182ZM254.648 47V27.3636H260.094V47H254.648ZM257.384 24.8324C256.574 24.8324 255.879 24.5639 255.3 24.027C254.729 23.4815 254.443 22.8295 254.443 22.071C254.443 21.321 254.729 20.6776 255.3 20.1406C255.879 19.5952 256.574 19.3224 257.384 19.3224C258.193 19.3224 258.884 19.5952 259.455 20.1406C260.034 20.6776 260.324 21.321 260.324 22.071C260.324 22.8295 260.034 23.4815 259.455 24.027C258.884 24.5639 258.193 24.8324 257.384 24.8324ZM273.303 54.7727C271.539 54.7727 270.026 54.5298 268.765 54.044C267.512 53.5668 266.515 52.9148 265.773 52.0881C265.032 51.2614 264.55 50.3324 264.329 49.3011L269.366 48.6236C269.519 49.0156 269.762 49.3821 270.094 49.723C270.427 50.0639 270.866 50.3366 271.411 50.5412C271.965 50.7543 272.638 50.8608 273.431 50.8608C274.616 50.8608 275.591 50.571 276.358 49.9915C277.134 49.4205 277.522 48.4616 277.522 47.1151V43.5227H277.292C277.053 44.0682 276.695 44.5838 276.218 45.0696C275.741 45.5554 275.127 45.9517 274.377 46.2585C273.627 46.5653 272.732 46.7188 271.692 46.7188C270.218 46.7188 268.876 46.3778 267.665 45.696C266.464 45.0057 265.505 43.9531 264.789 42.5384C264.081 41.1151 263.728 39.3168 263.728 37.1435C263.728 34.919 264.09 33.0611 264.814 31.5696C265.539 30.0781 266.502 28.9616 267.704 28.2202C268.914 27.4787 270.239 27.108 271.68 27.108C272.779 27.108 273.699 27.2955 274.441 27.6705C275.182 28.0369 275.779 28.4972 276.231 29.0511C276.691 29.5966 277.045 30.1335 277.292 30.6619H277.496V27.3636H282.904V47.1918C282.904 48.8622 282.495 50.2599 281.677 51.3849C280.858 52.5099 279.725 53.3537 278.276 53.9162C276.836 54.4872 275.178 54.7727 273.303 54.7727ZM273.418 42.6278C274.296 42.6278 275.037 42.4105 275.643 41.9759C276.256 41.5327 276.725 40.902 277.049 40.0838C277.381 39.2571 277.547 38.2685 277.547 37.1179C277.547 35.9673 277.385 34.9702 277.062 34.1264C276.738 33.2741 276.269 32.6136 275.655 32.1449C275.042 31.6761 274.296 31.4418 273.418 31.4418C272.523 31.4418 271.769 31.6847 271.155 32.1705C270.542 32.6477 270.077 33.3125 269.762 34.1648C269.447 35.017 269.289 36.0014 269.289 37.1179C269.289 38.2514 269.447 39.2315 269.762 40.0582C270.086 40.8764 270.55 41.5114 271.155 41.9631C271.769 42.4062 272.523 42.6278 273.418 42.6278ZM287.238 47V27.3636H292.518V30.7898H292.722C293.08 29.571 293.681 28.6506 294.525 28.0284C295.368 27.3977 296.34 27.0824 297.439 27.0824C297.712 27.0824 298.006 27.0994 298.322 27.1335C298.637 27.1676 298.914 27.2145 299.153 27.2741V32.1065C298.897 32.0298 298.543 31.9616 298.091 31.902C297.64 31.8423 297.226 31.8125 296.851 31.8125C296.05 31.8125 295.334 31.9872 294.704 32.3366C294.081 32.6776 293.587 33.1548 293.221 33.7685C292.863 34.3821 292.684 35.0895 292.684 35.8906V47H287.238ZM307.005 47.3707C305.752 47.3707 304.636 47.1534 303.656 46.7188C302.676 46.2756 301.9 45.6236 301.329 44.7628C300.767 43.8935 300.485 42.8111 300.485 41.5156C300.485 40.4247 300.686 39.5085 301.086 38.767C301.487 38.0256 302.032 37.429 302.722 36.9773C303.413 36.5256 304.197 36.1847 305.075 35.9545C305.961 35.7244 306.89 35.5625 307.862 35.4688C309.004 35.3494 309.924 35.2386 310.623 35.1364C311.322 35.0256 311.829 34.8636 312.144 34.6506C312.46 34.4375 312.617 34.1222 312.617 33.7045V33.6278C312.617 32.8182 312.362 32.1918 311.85 31.7486C311.347 31.3054 310.632 31.0838 309.703 31.0838C308.722 31.0838 307.943 31.3011 307.363 31.7358C306.784 32.1619 306.4 32.6989 306.213 33.3466L301.176 32.9375C301.431 31.7443 301.934 30.7131 302.684 29.8438C303.434 28.9659 304.401 28.2926 305.586 27.8239C306.779 27.3466 308.16 27.108 309.728 27.108C310.819 27.108 311.863 27.2358 312.86 27.4915C313.866 27.7472 314.757 28.1435 315.532 28.6804C316.316 29.2173 316.934 29.9077 317.386 30.7514C317.838 31.5866 318.063 32.5881 318.063 33.7557V47H312.899V44.277H312.745C312.43 44.8906 312.008 45.4318 311.48 45.9006C310.951 46.3608 310.316 46.723 309.575 46.9872C308.833 47.2429 307.977 47.3707 307.005 47.3707ZM308.565 43.6122C309.366 43.6122 310.073 43.4545 310.687 43.1392C311.301 42.8153 311.782 42.3807 312.132 41.8352C312.481 41.2898 312.656 40.6719 312.656 39.9815V37.8977C312.485 38.0085 312.251 38.1108 311.953 38.2045C311.663 38.2898 311.335 38.3707 310.968 38.4474C310.602 38.5156 310.235 38.5795 309.869 38.6392C309.502 38.6903 309.17 38.7372 308.872 38.7798C308.232 38.8736 307.674 39.0227 307.197 39.2273C306.72 39.4318 306.349 39.7088 306.085 40.0582C305.82 40.3991 305.688 40.8253 305.688 41.3366C305.688 42.0781 305.957 42.6449 306.494 43.0369C307.039 43.4205 307.73 43.6122 308.565 43.6122ZM332.733 27.3636V31.4545H320.908V27.3636H332.733ZM323.593 22.6591H329.039V40.9659C329.039 41.4687 329.115 41.8608 329.269 42.142C329.422 42.4148 329.635 42.6065 329.908 42.7173C330.189 42.8281 330.513 42.8835 330.879 42.8835C331.135 42.8835 331.391 42.8622 331.646 42.8196C331.902 42.7685 332.098 42.7301 332.235 42.7045L333.091 46.7571C332.818 46.8423 332.435 46.9403 331.941 47.0511C331.446 47.1705 330.845 47.2429 330.138 47.2685C328.825 47.3196 327.675 47.1449 326.686 46.7443C325.706 46.3437 324.943 45.7216 324.398 44.8778C323.852 44.0341 323.584 42.9687 323.593 41.6818V22.6591ZM336.281 47V27.3636H341.727V47H336.281ZM339.017 24.8324C338.207 24.8324 337.512 24.5639 336.933 24.027C336.362 23.4815 336.076 22.8295 336.076 22.071C336.076 21.321 336.362 20.6776 336.933 20.1406C337.512 19.5952 338.207 19.3224 339.017 19.3224C339.826 19.3224 340.517 19.5952 341.088 20.1406C341.667 20.6776 341.957 21.321 341.957 22.071C341.957 22.8295 341.667 23.4815 341.088 24.027C340.517 24.5639 339.826 24.8324 339.017 24.8324ZM354.961 47.3835C352.976 47.3835 351.258 46.9616 349.809 46.1179C348.369 45.2656 347.257 44.081 346.473 42.5639C345.689 41.0384 345.297 39.2699 345.297 37.2585C345.297 35.2301 345.689 33.4574 346.473 31.9403C347.257 30.4148 348.369 29.2301 349.809 28.3864C351.258 27.5341 352.976 27.108 354.961 27.108C356.947 27.108 358.66 27.5341 360.101 28.3864C361.55 29.2301 362.666 30.4148 363.45 31.9403C364.234 33.4574 364.626 35.2301 364.626 37.2585C364.626 39.2699 364.234 41.0384 363.45 42.5639C362.666 44.081 361.55 45.2656 360.101 46.1179C358.66 46.9616 356.947 47.3835 354.961 47.3835ZM354.987 43.1648C355.89 43.1648 356.645 42.9091 357.25 42.3977C357.855 41.8778 358.311 41.1705 358.618 40.2756C358.933 39.3807 359.091 38.3622 359.091 37.2202C359.091 36.0781 358.933 35.0597 358.618 34.1648C358.311 33.2699 357.855 32.5625 357.25 32.0426C356.645 31.5227 355.89 31.2628 354.987 31.2628C354.075 31.2628 353.308 31.5227 352.686 32.0426C352.072 32.5625 351.608 33.2699 351.292 34.1648C350.986 35.0597 350.832 36.0781 350.832 37.2202C350.832 38.3622 350.986 39.3807 351.292 40.2756C351.608 41.1705 352.072 41.8778 352.686 42.3977C353.308 42.9091 354.075 43.1648 354.987 43.1648ZM373.613 35.6477V47H368.167V27.3636H373.358V30.8281H373.588C374.023 29.6861 374.751 28.7827 375.774 28.1179C376.797 27.4446 378.037 27.108 379.494 27.108C380.858 27.108 382.047 27.4062 383.061 28.0028C384.075 28.5994 384.863 29.4517 385.426 30.5597C385.988 31.6591 386.27 32.9716 386.27 34.4972V47H380.824V35.4688C380.832 34.267 380.525 33.3295 379.903 32.6562C379.281 31.9744 378.425 31.6335 377.334 31.6335C376.601 31.6335 375.953 31.7912 375.39 32.1065C374.836 32.4219 374.402 32.8821 374.086 33.4872C373.78 34.0838 373.622 34.804 373.613 35.6477Z" fill="white"/>
<path d="M78.1947 19.6787C78.1194 19.4157 77.9443 19.1746 77.6906 18.9844C77.4369 18.7941 77.1154 18.6629 76.7646 18.6064C72.9902 18 70.0374 18 67.0952 18C54.9982 18 47.7424 22.8515 42.328 29.2498H30.1138C29.0707 29.2505 28.0483 29.4686 27.1609 29.8797C26.2735 30.2908 25.5561 30.8788 25.0886 31.578L19.2957 40.2615C19.0817 40.5832 18.981 40.9405 19.003 41.2996C19.025 41.6587 19.169 42.0076 19.4213 42.3132C19.6737 42.6188 20.026 42.871 20.4449 43.0458C20.8638 43.2207 21.3353 43.3123 21.8147 43.3121H33.9785L31.3446 45.287C30.6413 45.8144 30.2462 46.5297 30.2462 47.2755C30.2462 48.0213 30.6413 48.7366 31.3446 49.264L37.311 53.7385C37.6594 53.9997 38.0729 54.2069 38.5281 54.3483C38.9832 54.4897 39.471 54.5624 39.9637 54.5624C40.4564 54.5624 40.9442 54.4897 41.3993 54.3483C41.8545 54.2069 42.268 53.9997 42.6164 53.7385L45.2503 51.7636V60.89C45.2501 61.2494 45.3724 61.6028 45.6055 61.9167C45.8387 62.2307 46.1749 62.4948 46.5823 62.6839C46.9897 62.8731 47.4549 62.9812 47.9336 62.9977C48.4124 63.0143 48.8888 62.939 49.3178 62.7788L60.8873 58.4379C61.8213 58.0881 62.6068 57.5499 63.1555 56.8839C63.7042 56.2178 63.9945 55.4503 63.9936 54.6675V45.4909C72.5025 41.4216 78.9976 35.9637 78.9976 26.9384C79.0093 24.7235 79.0093 22.5087 78.1947 19.6787V19.6787ZM64.0053 32.7654C63.078 32.7654 62.1714 32.5592 61.4004 32.1729C60.6293 31.7866 60.0283 31.2376 59.6735 30.5952C59.3186 29.9528 59.2257 29.2459 59.4066 28.564C59.5876 27.882 60.0341 27.2556 60.6899 26.764C61.3456 26.2723 62.1811 25.9375 63.0906 25.8018C64.0001 25.6662 64.9429 25.7358 65.7996 26.0019C66.6564 26.268 67.3887 26.7186 67.9039 27.2967C68.4191 27.8748 68.6941 28.5545 68.6941 29.2498C68.6941 30.1822 68.2001 31.0764 67.3208 31.7357C66.4415 32.395 65.2489 32.7654 64.0053 32.7654V32.7654Z" fill="#FFA800"/>
</svg>
