<svg width="579" height="78" viewBox="0 0 579 78" fill="none" xmlns="http://www.w3.org/2000/svg">
<rect width="579" height="78" fill="black"/>
<path d="M127.999 25.4602C129.346 25.4602 130.642 25.6861 131.886 26.1378C133.139 26.5895 134.255 27.3097 135.235 28.2983C136.224 29.2869 137.004 30.5994 137.575 32.2358C138.154 33.8636 138.448 35.8622 138.457 38.2315C138.457 40.456 138.205 42.4418 137.703 44.1889C137.208 45.9276 136.497 47.4062 135.568 48.625C134.639 49.8438 133.518 50.7727 132.205 51.4119C130.893 52.0426 129.427 52.358 127.808 52.358C126.061 52.358 124.518 52.0213 123.18 51.348C121.842 50.6662 120.764 49.7415 119.945 48.5739C119.136 47.3977 118.646 46.0767 118.475 44.6108H123.934C124.147 45.5653 124.595 46.3068 125.276 46.8352C125.958 47.3551 126.802 47.6151 127.808 47.6151C129.512 47.6151 130.808 46.8736 131.694 45.3906C132.58 43.8991 133.028 41.858 133.036 39.267H132.857C132.465 40.0341 131.937 40.6946 131.272 41.2486C130.607 41.794 129.845 42.2159 128.984 42.5142C128.132 42.8125 127.224 42.9616 126.261 42.9616C124.718 42.9616 123.342 42.5994 122.132 41.875C120.921 41.1506 119.967 40.1534 119.268 38.8835C118.569 37.6136 118.22 36.1648 118.22 34.5369C118.211 32.7812 118.616 31.2173 119.434 29.8452C120.252 28.473 121.394 27.3991 122.86 26.6236C124.335 25.8395 126.048 25.4517 127.999 25.4602ZM128.038 29.8068C127.177 29.8068 126.41 30.0114 125.737 30.4205C125.072 30.8295 124.544 31.3793 124.151 32.0696C123.768 32.7599 123.58 33.5312 123.589 34.3835C123.589 35.2443 123.776 36.0199 124.151 36.7102C124.535 37.392 125.055 37.9375 125.711 38.3466C126.376 38.7472 127.134 38.9474 127.987 38.9474C128.626 38.9474 129.218 38.8281 129.764 38.5895C130.309 38.3509 130.782 38.0227 131.183 37.6051C131.592 37.179 131.911 36.6889 132.142 36.1349C132.372 35.581 132.487 34.9929 132.487 34.3707C132.478 33.544 132.282 32.7855 131.899 32.0952C131.515 31.4048 130.987 30.8509 130.313 30.4332C129.64 30.0156 128.882 29.8068 128.038 29.8068ZM151.765 25.4602C153.112 25.4602 154.407 25.6861 155.651 26.1378C156.904 26.5895 158.021 27.3097 159.001 28.2983C159.99 29.2869 160.769 30.5994 161.34 32.2358C161.92 33.8636 162.214 35.8622 162.222 38.2315C162.222 40.456 161.971 42.4418 161.468 44.1889C160.974 45.9276 160.262 47.4062 159.333 48.625C158.404 49.8438 157.284 50.7727 155.971 51.4119C154.659 52.0426 153.193 52.358 151.573 52.358C149.826 52.358 148.284 52.0213 146.945 51.348C145.607 50.6662 144.529 49.7415 143.711 48.5739C142.901 47.3977 142.411 46.0767 142.241 44.6108H147.7C147.913 45.5653 148.36 46.3068 149.042 46.8352C149.724 47.3551 150.568 47.6151 151.573 47.6151C153.278 47.6151 154.573 46.8736 155.46 45.3906C156.346 43.8991 156.794 41.858 156.802 39.267H156.623C156.231 40.0341 155.703 40.6946 155.038 41.2486C154.373 41.794 153.61 42.2159 152.749 42.5142C151.897 42.8125 150.99 42.9616 150.026 42.9616C148.484 42.9616 147.107 42.5994 145.897 41.875C144.687 41.1506 143.732 40.1534 143.034 38.8835C142.335 37.6136 141.985 36.1648 141.985 34.5369C141.977 32.7812 142.382 31.2173 143.2 29.8452C144.018 28.473 145.16 27.3991 146.626 26.6236C148.1 25.8395 149.813 25.4517 151.765 25.4602ZM151.803 29.8068C150.943 29.8068 150.176 30.0114 149.502 30.4205C148.838 30.8295 148.309 31.3793 147.917 32.0696C147.534 32.7599 147.346 33.5312 147.355 34.3835C147.355 35.2443 147.542 36.0199 147.917 36.7102C148.301 37.392 148.82 37.9375 149.477 38.3466C150.142 38.7472 150.9 38.9474 151.752 38.9474C152.392 38.9474 152.984 38.8281 153.529 38.5895C154.075 38.3509 154.548 38.0227 154.948 37.6051C155.357 37.179 155.677 36.6889 155.907 36.1349C156.137 35.581 156.252 34.9929 156.252 34.3707C156.244 33.544 156.048 32.7855 155.664 32.0952C155.281 31.4048 154.752 30.8509 154.079 30.4332C153.406 30.0156 152.647 29.8068 151.803 29.8068ZM168.237 52.3324C167.394 52.3324 166.669 52.0341 166.064 51.4375C165.468 50.8324 165.169 50.108 165.169 49.2642C165.169 48.429 165.468 47.7131 166.064 47.1165C166.669 46.5199 167.394 46.2216 168.237 46.2216C169.056 46.2216 169.771 46.5199 170.385 47.1165C170.999 47.7131 171.306 48.429 171.306 49.2642C171.306 49.8267 171.161 50.3423 170.871 50.8111C170.59 51.2713 170.219 51.642 169.759 51.9233C169.298 52.196 168.791 52.3324 168.237 52.3324ZM184.706 25.4602C186.053 25.4602 187.349 25.6861 188.593 26.1378C189.846 26.5895 190.962 27.3097 191.942 28.2983C192.931 29.2869 193.711 30.5994 194.282 32.2358C194.861 33.8636 195.155 35.8622 195.164 38.2315C195.164 40.456 194.912 42.4418 194.41 44.1889C193.915 45.9276 193.204 47.4062 192.275 48.625C191.346 49.8438 190.225 50.7727 188.912 51.4119C187.6 52.0426 186.134 52.358 184.515 52.358C182.768 52.358 181.225 52.0213 179.887 51.348C178.549 50.6662 177.471 49.7415 176.653 48.5739C175.843 47.3977 175.353 46.0767 175.182 44.6108H180.641C180.854 45.5653 181.302 46.3068 181.983 46.8352C182.665 47.3551 183.509 47.6151 184.515 47.6151C186.219 47.6151 187.515 46.8736 188.401 45.3906C189.287 43.8991 189.735 41.858 189.743 39.267H189.564C189.172 40.0341 188.644 40.6946 187.979 41.2486C187.314 41.794 186.552 42.2159 185.691 42.5142C184.839 42.8125 183.931 42.9616 182.968 42.9616C181.425 42.9616 180.049 42.5994 178.839 41.875C177.628 41.1506 176.674 40.1534 175.975 38.8835C175.276 37.6136 174.927 36.1648 174.927 34.5369C174.918 32.7812 175.323 31.2173 176.141 29.8452C176.959 28.473 178.101 27.3991 179.567 26.6236C181.042 25.8395 182.755 25.4517 184.706 25.4602ZM184.745 29.8068C183.884 29.8068 183.117 30.0114 182.444 30.4205C181.779 30.8295 181.251 31.3793 180.858 32.0696C180.475 32.7599 180.287 33.5312 180.296 34.3835C180.296 35.2443 180.483 36.0199 180.858 36.7102C181.242 37.392 181.762 37.9375 182.418 38.3466C183.083 38.7472 183.841 38.9474 184.694 38.9474C185.333 38.9474 185.925 38.8281 186.471 38.5895C187.016 38.3509 187.489 38.0227 187.89 37.6051C188.299 37.179 188.618 36.6889 188.849 36.1349C189.079 35.581 189.194 34.9929 189.194 34.3707C189.185 33.544 188.989 32.7855 188.606 32.0952C188.222 31.4048 187.694 30.8509 187.02 30.4332C186.347 30.0156 185.589 29.8068 184.745 29.8068ZM213.33 47.0909V45.7102C213.33 44.6619 213.552 43.6989 213.995 42.821C214.447 41.9347 215.099 41.2273 215.951 40.6989C216.812 40.1619 217.86 39.8935 219.096 39.8935C220.349 39.8935 221.401 40.1577 222.253 40.6861C223.114 41.2145 223.762 41.9219 224.197 42.8082C224.64 43.6861 224.861 44.6534 224.861 45.7102V47.0909C224.861 48.1392 224.64 49.1065 224.197 49.9929C223.753 50.8707 223.101 51.5739 222.241 52.1023C221.38 52.6392 220.331 52.9077 219.096 52.9077C217.843 52.9077 216.79 52.6392 215.938 52.1023C215.086 51.5739 214.438 50.8707 213.995 49.9929C213.552 49.1065 213.33 48.1392 213.33 47.0909ZM217.05 45.7102V47.0909C217.05 47.696 217.195 48.267 217.485 48.804C217.783 49.3409 218.32 49.6094 219.096 49.6094C219.871 49.6094 220.4 49.3452 220.681 48.8168C220.971 48.2884 221.116 47.7131 221.116 47.0909V45.7102C221.116 45.0881 220.979 44.5085 220.706 43.9716C220.434 43.4347 219.897 43.1662 219.096 43.1662C218.329 43.1662 217.796 43.4347 217.498 43.9716C217.199 44.5085 217.05 45.0881 217.05 45.7102ZM199.894 32.108V30.7273C199.894 29.6705 200.12 28.7031 200.572 27.8253C201.023 26.9389 201.675 26.2315 202.528 25.7031C203.388 25.1747 204.428 24.9105 205.647 24.9105C206.908 24.9105 207.965 25.1747 208.817 25.7031C209.67 26.2315 210.317 26.9389 210.76 27.8253C211.204 28.7031 211.425 29.6705 211.425 30.7273V32.108C211.425 33.1648 211.199 34.1321 210.748 35.0099C210.305 35.8878 209.653 36.5909 208.792 37.1193C207.939 37.6392 206.891 37.8991 205.647 37.8991C204.403 37.8991 203.35 37.6349 202.489 37.1065C201.637 36.5696 200.989 35.8665 200.546 34.9972C200.111 34.1193 199.894 33.1562 199.894 32.108ZM203.64 30.7273V32.108C203.64 32.7301 203.785 33.3054 204.074 33.8338C204.373 34.3622 204.897 34.6264 205.647 34.6264C206.431 34.6264 206.964 34.3622 207.245 33.8338C207.535 33.3054 207.68 32.7301 207.68 32.108V30.7273C207.68 30.1051 207.543 29.5256 207.27 28.9886C206.998 28.4517 206.456 28.1832 205.647 28.1832C204.888 28.1832 204.364 28.456 204.074 29.0014C203.785 29.5469 203.64 30.1222 203.64 30.7273ZM201.581 52L219.581 25.8182H222.931L204.931 52H201.581ZM254.594 25.8182H260.129V42.821C260.129 44.7301 259.673 46.4006 258.762 47.8324C257.858 49.2642 256.593 50.3807 254.965 51.1818C253.337 51.9744 251.441 52.3707 249.276 52.3707C247.102 52.3707 245.202 51.9744 243.574 51.1818C241.946 50.3807 240.681 49.2642 239.777 47.8324C238.874 46.4006 238.422 44.7301 238.422 42.821V25.8182H243.958V42.348C243.958 43.3452 244.175 44.2315 244.61 45.0071C245.053 45.7827 245.675 46.392 246.476 46.8352C247.277 47.2784 248.21 47.5 249.276 47.5C250.35 47.5 251.283 47.2784 252.075 46.8352C252.877 46.392 253.494 45.7827 253.929 45.0071C254.372 44.2315 254.594 43.3452 254.594 42.348V25.8182ZM264.581 59.3636V32.3636H269.951V35.6619H270.194C270.432 35.1335 270.778 34.5966 271.229 34.0511C271.689 33.4972 272.286 33.0369 273.019 32.6705C273.76 32.2955 274.681 32.108 275.78 32.108C277.212 32.108 278.533 32.483 279.743 33.233C280.954 33.9744 281.921 35.0952 282.645 36.5952C283.37 38.0866 283.732 39.9574 283.732 42.2074C283.732 44.3977 283.378 46.2472 282.671 47.7557C281.972 49.2557 281.018 50.3935 279.807 51.169C278.606 51.9361 277.259 52.3196 275.768 52.3196C274.711 52.3196 273.812 52.1449 273.07 51.7955C272.337 51.446 271.736 51.0071 271.268 50.4787C270.799 49.9418 270.441 49.4006 270.194 48.8551H270.028V59.3636H264.581ZM269.912 42.1818C269.912 43.3494 270.074 44.3679 270.398 45.2372C270.722 46.1065 271.191 46.7841 271.805 47.2699C272.418 47.7472 273.164 47.9858 274.042 47.9858C274.928 47.9858 275.678 47.7429 276.292 47.2571C276.905 46.7628 277.37 46.081 277.685 45.2116C278.009 44.3338 278.171 43.3239 278.171 42.1818C278.171 41.0483 278.013 40.0511 277.698 39.1903C277.383 38.3295 276.918 37.6562 276.305 37.1705C275.691 36.6847 274.937 36.4418 274.042 36.4418C273.155 36.4418 272.405 36.6761 271.792 37.1449C271.187 37.6136 270.722 38.2784 270.398 39.1392C270.074 40 269.912 41.0142 269.912 42.1818ZM297.807 32.3636V36.4545H285.982V32.3636H297.807ZM288.667 27.6591H294.113V45.9659C294.113 46.4687 294.189 46.8608 294.343 47.142C294.496 47.4148 294.709 47.6065 294.982 47.7173C295.263 47.8281 295.587 47.8835 295.954 47.8835C296.209 47.8835 296.465 47.8622 296.721 47.8196C296.976 47.7685 297.172 47.7301 297.309 47.7045L298.165 51.7571C297.893 51.8423 297.509 51.9403 297.015 52.0511C296.52 52.1705 295.92 52.2429 295.212 52.2685C293.9 52.3196 292.749 52.1449 291.76 51.7443C290.78 51.3437 290.018 50.7216 289.472 49.8778C288.927 49.0341 288.658 47.9687 288.667 46.6818V27.6591ZM301.355 52V32.3636H306.801V52H301.355ZM304.091 29.8324C303.281 29.8324 302.586 29.5639 302.007 29.027C301.436 28.4815 301.15 27.8295 301.15 27.071C301.15 26.321 301.436 25.6776 302.007 25.1406C302.586 24.5952 303.281 24.3224 304.091 24.3224C304.9 24.3224 305.591 24.5952 306.162 25.1406C306.741 25.6776 307.031 26.321 307.031 27.071C307.031 27.8295 306.741 28.4815 306.162 29.027C305.591 29.5639 304.9 29.8324 304.091 29.8324ZM311.164 52V32.3636H316.354V35.8281H316.584C316.993 34.6776 317.675 33.7699 318.629 33.1051C319.584 32.4403 320.726 32.108 322.056 32.108C323.402 32.108 324.548 32.4446 325.494 33.1179C326.441 33.7827 327.071 34.6861 327.387 35.8281H327.591C327.992 34.7031 328.716 33.804 329.764 33.1307C330.821 32.4489 332.07 32.108 333.51 32.108C335.343 32.108 336.83 32.6918 337.972 33.8594C339.122 35.0185 339.698 36.6634 339.698 38.794V52H334.264V39.8679C334.264 38.777 333.975 37.9588 333.395 37.4134C332.816 36.8679 332.091 36.5952 331.222 36.5952C330.233 36.5952 329.462 36.9105 328.908 37.5412C328.354 38.1634 328.077 38.9858 328.077 40.0085V52H322.797V39.7528C322.797 38.7898 322.52 38.0227 321.966 37.4517C321.421 36.8807 320.7 36.5952 319.806 36.5952C319.2 36.5952 318.655 36.7486 318.169 37.0554C317.692 37.3537 317.313 37.7756 317.031 38.321C316.75 38.858 316.61 39.4886 316.61 40.2131V52H311.164ZM352.948 52.3835C350.928 52.3835 349.19 51.9744 347.732 51.1562C346.284 50.3295 345.167 49.1619 344.383 47.6534C343.599 46.1364 343.207 44.3423 343.207 42.2713C343.207 40.2514 343.599 38.4787 344.383 36.9531C345.167 35.4276 346.271 34.2386 347.694 33.3864C349.126 32.5341 350.805 32.108 352.731 32.108C354.026 32.108 355.232 32.3168 356.349 32.7344C357.474 33.1435 358.454 33.7614 359.289 34.5881C360.133 35.4148 360.789 36.4545 361.258 37.7074C361.727 38.9517 361.961 40.4091 361.961 42.0795V43.5753H345.38V40.2003H356.835C356.835 39.4162 356.664 38.7216 356.323 38.1165C355.982 37.5114 355.509 37.0384 354.904 36.6974C354.308 36.348 353.613 36.1733 352.82 36.1733C351.994 36.1733 351.261 36.3651 350.622 36.7486C349.991 37.1236 349.497 37.6307 349.139 38.2699C348.781 38.9006 348.597 39.6037 348.589 40.3793V43.5881C348.589 44.5597 348.768 45.3991 349.126 46.1065C349.492 46.8139 350.008 47.3594 350.673 47.7429C351.338 48.1264 352.126 48.3182 353.038 48.3182C353.643 48.3182 354.197 48.233 354.7 48.0625C355.203 47.892 355.633 47.6364 355.991 47.2955C356.349 46.9545 356.622 46.5369 356.809 46.0426L361.846 46.375C361.59 47.5852 361.066 48.642 360.274 49.5455C359.49 50.4403 358.475 51.1392 357.231 51.642C355.995 52.1364 354.568 52.3835 352.948 52.3835ZM391.31 34.2812C391.131 33.6591 390.88 33.1094 390.556 32.6321C390.232 32.1463 389.836 31.7372 389.367 31.4048C388.907 31.0639 388.378 30.804 387.782 30.625C387.194 30.446 386.542 30.3565 385.826 30.3565C384.488 30.3565 383.312 30.6889 382.297 31.3537C381.292 32.0185 380.508 32.9858 379.945 34.2557C379.383 35.517 379.101 37.0597 379.101 38.8835C379.101 40.7074 379.378 42.2585 379.932 43.5369C380.486 44.8153 381.27 45.7912 382.285 46.4645C383.299 47.1293 384.496 47.4616 385.877 47.4616C387.13 47.4616 388.199 47.2401 389.086 46.7969C389.981 46.3452 390.662 45.7102 391.131 44.892C391.608 44.0739 391.847 43.1065 391.847 41.9901L392.972 42.1562H386.222V37.9886H397.178V41.2869C397.178 43.5881 396.692 45.5653 395.721 47.2188C394.749 48.8636 393.411 50.1335 391.706 51.0284C390.002 51.9148 388.05 52.358 385.851 52.358C383.397 52.358 381.241 51.8168 379.383 50.7344C377.525 49.6435 376.076 48.0966 375.036 46.0938C374.005 44.0824 373.489 41.696 373.489 38.9347C373.489 36.8125 373.796 34.9205 374.41 33.2585C375.032 31.5881 375.901 30.1733 377.018 29.0142C378.134 27.8551 379.434 26.973 380.917 26.3679C382.4 25.7628 384.006 25.4602 385.736 25.4602C387.219 25.4602 388.6 25.6776 389.878 26.1122C391.157 26.5384 392.29 27.1435 393.279 27.9276C394.276 28.7116 395.09 29.6449 395.721 30.7273C396.351 31.8011 396.756 32.9858 396.935 34.2812H391.31ZM413.826 43.6392V32.3636H419.272V52H414.044V48.4332H413.839C413.396 49.5838 412.659 50.5085 411.627 51.2074C410.605 51.9062 409.356 52.2557 407.882 52.2557C406.569 52.2557 405.414 51.9574 404.417 51.3608C403.42 50.7642 402.64 49.9162 402.078 48.8168C401.524 47.7173 401.242 46.4006 401.234 44.8665V32.3636H406.68V43.8949C406.688 45.054 406.999 45.9702 407.613 46.6435C408.227 47.3168 409.049 47.6534 410.08 47.6534C410.737 47.6534 411.35 47.5043 411.921 47.206C412.492 46.8991 412.953 46.4474 413.302 45.8509C413.66 45.2543 413.835 44.517 413.826 43.6392ZM429.228 52.3707C427.975 52.3707 426.858 52.1534 425.878 51.7188C424.898 51.2756 424.123 50.6236 423.552 49.7628C422.989 48.8935 422.708 47.8111 422.708 46.5156C422.708 45.4247 422.908 44.5085 423.309 43.767C423.709 43.0256 424.255 42.429 424.945 41.9773C425.635 41.5256 426.42 41.1847 427.297 40.9545C428.184 40.7244 429.113 40.5625 430.084 40.4688C431.226 40.3494 432.147 40.2386 432.846 40.1364C433.545 40.0256 434.052 39.8636 434.367 39.6506C434.682 39.4375 434.84 39.1222 434.84 38.7045V38.6278C434.84 37.8182 434.584 37.1918 434.073 36.7486C433.57 36.3054 432.854 36.0838 431.925 36.0838C430.945 36.0838 430.165 36.3011 429.586 36.7358C429.006 37.1619 428.623 37.6989 428.435 38.3466L423.398 37.9375C423.654 36.7443 424.157 35.7131 424.907 34.8438C425.657 33.9659 426.624 33.2926 427.809 32.8239C429.002 32.3466 430.383 32.108 431.951 32.108C433.042 32.108 434.086 32.2358 435.083 32.4915C436.089 32.7472 436.979 33.1435 437.755 33.6804C438.539 34.2173 439.157 34.9077 439.608 35.7514C440.06 36.5866 440.286 37.5881 440.286 38.7557V52H435.121V49.277H434.968C434.653 49.8906 434.231 50.4318 433.702 50.9006C433.174 51.3608 432.539 51.723 431.797 51.9872C431.056 52.2429 430.199 52.3707 429.228 52.3707ZM430.787 48.6122C431.589 48.6122 432.296 48.4545 432.91 48.1392C433.523 47.8153 434.005 47.3807 434.354 46.8352C434.704 46.2898 434.878 45.6719 434.878 44.9815V42.8977C434.708 43.0085 434.474 43.1108 434.175 43.2045C433.885 43.2898 433.557 43.3707 433.191 43.4474C432.824 43.5156 432.458 43.5795 432.091 43.6392C431.725 43.6903 431.393 43.7372 431.094 43.7798C430.455 43.8736 429.897 44.0227 429.42 44.2273C428.942 44.4318 428.572 44.7088 428.307 45.0582C428.043 45.3991 427.911 45.8253 427.911 46.3366C427.911 47.0781 428.18 47.6449 428.716 48.0369C429.262 48.4205 429.952 48.6122 430.787 48.6122ZM444.511 52V32.3636H449.791V35.7898H449.996C450.354 34.571 450.954 33.6506 451.798 33.0284C452.642 32.3977 453.613 32.0824 454.713 32.0824C454.986 32.0824 455.28 32.0994 455.595 32.1335C455.91 32.1676 456.187 32.2145 456.426 32.2741V37.1065C456.17 37.0298 455.817 36.9616 455.365 36.902C454.913 36.8423 454.5 36.8125 454.125 36.8125C453.324 36.8125 452.608 36.9872 451.977 37.3366C451.355 37.6776 450.861 38.1548 450.494 38.7685C450.136 39.3821 449.957 40.0895 449.957 40.8906V52H444.511ZM464.279 52.3707C463.026 52.3707 461.909 52.1534 460.929 51.7188C459.949 51.2756 459.173 50.6236 458.602 49.7628C458.04 48.8935 457.759 47.8111 457.759 46.5156C457.759 45.4247 457.959 44.5085 458.36 43.767C458.76 43.0256 459.306 42.429 459.996 41.9773C460.686 41.5256 461.47 41.1847 462.348 40.9545C463.235 40.7244 464.164 40.5625 465.135 40.4688C466.277 40.3494 467.198 40.2386 467.896 40.1364C468.595 40.0256 469.102 39.8636 469.418 39.6506C469.733 39.4375 469.891 39.1222 469.891 38.7045V38.6278C469.891 37.8182 469.635 37.1918 469.124 36.7486C468.621 36.3054 467.905 36.0838 466.976 36.0838C465.996 36.0838 465.216 36.3011 464.637 36.7358C464.057 37.1619 463.673 37.6989 463.486 38.3466L458.449 37.9375C458.705 36.7443 459.208 35.7131 459.958 34.8438C460.708 33.9659 461.675 33.2926 462.86 32.8239C464.053 32.3466 465.433 32.108 467.002 32.108C468.093 32.108 469.137 32.2358 470.134 32.4915C471.139 32.7472 472.03 33.1435 472.806 33.6804C473.59 34.2173 474.208 34.9077 474.659 35.7514C475.111 36.5866 475.337 37.5881 475.337 38.7557V52H470.172V49.277H470.019C469.703 49.8906 469.281 50.4318 468.753 50.9006C468.225 51.3608 467.59 51.723 466.848 51.9872C466.107 52.2429 465.25 52.3707 464.279 52.3707ZM465.838 48.6122C466.639 48.6122 467.347 48.4545 467.96 48.1392C468.574 47.8153 469.056 47.3807 469.405 46.8352C469.754 46.2898 469.929 45.6719 469.929 44.9815V42.8977C469.759 43.0085 469.524 43.1108 469.226 43.2045C468.936 43.2898 468.608 43.3707 468.242 43.4474C467.875 43.5156 467.509 43.5795 467.142 43.6392C466.776 43.6903 466.443 43.7372 466.145 43.7798C465.506 43.8736 464.948 44.0227 464.47 44.2273C463.993 44.4318 463.622 44.7088 463.358 45.0582C463.094 45.3991 462.962 45.8253 462.962 46.3366C462.962 47.0781 463.23 47.6449 463.767 48.0369C464.313 48.4205 465.003 48.6122 465.838 48.6122ZM485.008 40.6477V52H479.562V32.3636H484.752V35.8281H484.982C485.417 34.6861 486.146 33.7827 487.169 33.1179C488.191 32.4446 489.431 32.108 490.889 32.108C492.252 32.108 493.441 32.4062 494.455 33.0028C495.47 33.5994 496.258 34.4517 496.82 35.5597C497.383 36.6591 497.664 37.9716 497.664 39.4972V52H492.218V40.4688C492.227 39.267 491.92 38.3295 491.298 37.6562C490.676 36.9744 489.819 36.6335 488.728 36.6335C487.995 36.6335 487.347 36.7912 486.785 37.1065C486.231 37.4219 485.796 37.8821 485.481 38.4872C485.174 39.0838 485.017 39.804 485.008 40.6477ZM512.401 32.3636V36.4545H500.576V32.3636H512.401ZM503.26 27.6591H508.706V45.9659C508.706 46.4687 508.783 46.8608 508.937 47.142C509.09 47.4148 509.303 47.6065 509.576 47.7173C509.857 47.8281 510.181 47.8835 510.547 47.8835C510.803 47.8835 511.059 47.8622 511.314 47.8196C511.57 47.7685 511.766 47.7301 511.903 47.7045L512.759 51.7571C512.486 51.8423 512.103 51.9403 511.608 52.0511C511.114 52.1705 510.513 52.2429 509.806 52.2685C508.493 52.3196 507.343 52.1449 506.354 51.7443C505.374 51.3437 504.611 50.7216 504.066 49.8778C503.52 49.0341 503.252 47.9687 503.26 46.6818V27.6591ZM524.687 52.3835C522.667 52.3835 520.928 51.9744 519.471 51.1562C518.022 50.3295 516.905 49.1619 516.121 47.6534C515.337 46.1364 514.945 44.3423 514.945 42.2713C514.945 40.2514 515.337 38.4787 516.121 36.9531C516.905 35.4276 518.009 34.2386 519.432 33.3864C520.864 32.5341 522.543 32.108 524.469 32.108C525.765 32.108 526.971 32.3168 528.087 32.7344C529.212 33.1435 530.192 33.7614 531.028 34.5881C531.871 35.4148 532.528 36.4545 532.996 37.7074C533.465 38.9517 533.699 40.4091 533.699 42.0795V43.5753H517.118V40.2003H528.573C528.573 39.4162 528.403 38.7216 528.062 38.1165C527.721 37.5114 527.248 37.0384 526.643 36.6974C526.046 36.348 525.351 36.1733 524.559 36.1733C523.732 36.1733 522.999 36.3651 522.36 36.7486C521.729 37.1236 521.235 37.6307 520.877 38.2699C520.519 38.9006 520.336 39.6037 520.327 40.3793V43.5881C520.327 44.5597 520.506 45.3991 520.864 46.1065C521.231 46.8139 521.746 47.3594 522.411 47.7429C523.076 48.1264 523.864 48.3182 524.776 48.3182C525.381 48.3182 525.935 48.233 526.438 48.0625C526.941 47.892 527.371 47.6364 527.729 47.2955C528.087 46.9545 528.36 46.5369 528.547 46.0426L533.584 46.375C533.329 47.5852 532.805 48.642 532.012 49.5455C531.228 50.4403 530.214 51.1392 528.969 51.642C527.733 52.1364 526.306 52.3835 524.687 52.3835ZM546.202 52.3835C544.182 52.3835 542.444 51.9744 540.986 51.1562C539.537 50.3295 538.421 49.1619 537.637 47.6534C536.853 46.1364 536.461 44.3423 536.461 42.2713C536.461 40.2514 536.853 38.4787 537.637 36.9531C538.421 35.4276 539.525 34.2386 540.948 33.3864C542.38 32.5341 544.059 32.108 545.985 32.108C547.28 32.108 548.486 32.3168 549.603 32.7344C550.728 33.1435 551.708 33.7614 552.543 34.5881C553.387 35.4148 554.043 36.4545 554.512 37.7074C554.981 38.9517 555.215 40.4091 555.215 42.0795V43.5753H538.634V40.2003H550.089C550.089 39.4162 549.918 38.7216 549.577 38.1165C549.236 37.5114 548.763 37.0384 548.158 36.6974C547.562 36.348 546.867 36.1733 546.074 36.1733C545.248 36.1733 544.515 36.3651 543.876 36.7486C543.245 37.1236 542.751 37.6307 542.393 38.2699C542.035 38.9006 541.851 39.6037 541.843 40.3793V43.5881C541.843 44.5597 542.022 45.3991 542.38 46.1065C542.746 46.8139 543.262 47.3594 543.927 47.7429C544.591 48.1264 545.38 48.3182 546.292 48.3182C546.897 48.3182 547.451 48.233 547.954 48.0625C548.456 47.892 548.887 47.6364 549.245 47.2955C549.603 46.9545 549.876 46.5369 550.063 46.0426L555.1 46.375C554.844 47.5852 554.32 48.642 553.528 49.5455C552.743 50.4403 551.729 51.1392 550.485 51.642C549.249 52.1364 547.822 52.3835 546.202 52.3835Z" fill="white"/>
<path d="M37.7245 29.5132L30.7035 18.4872C30.4148 18.0337 30.0064 17.6583 29.518 17.3976C29.0296 17.137 28.4779 17 27.9166 17H16.628C15.3127 17 14.5429 18.3944 15.2965 19.4098L26.5973 34.6228C29.6158 31.9651 33.4548 30.141 37.7245 29.5132ZM65.3719 17H54.0832C52.9416 17 51.8834 17.5646 51.2963 18.4872L44.2753 29.5132C48.545 30.141 52.3841 31.9651 55.4025 34.6218L66.7034 19.4098C67.457 18.3944 66.6871 17 65.3719 17ZM40.9999 32.3125C31.1281 32.3125 23.1249 39.8539 23.1249 49.1562C23.1249 58.4586 31.1281 66 40.9999 66C50.8718 66 58.8749 58.4586 58.8749 49.1562C58.8749 39.8539 50.8718 32.3125 40.9999 32.3125ZM50.3965 47.3628L46.5442 50.9L47.4552 55.8976C47.6177 56.7934 46.6163 57.4776 45.7642 57.0546L40.9999 54.6955L36.2366 57.0546C35.3835 57.4805 34.3831 56.7924 34.5456 55.8976L35.4566 50.9L31.6044 47.3628C30.9117 46.7273 31.2946 45.6181 32.2493 45.488L37.5742 44.7568L39.9538 40.209C40.1681 39.7994 40.5825 39.5974 40.9979 39.5974C41.4153 39.5974 41.8327 39.8022 42.047 40.209L44.4266 44.7568L49.7516 45.488C50.7063 45.6181 51.0891 46.7273 50.3965 47.3628V47.3628Z" fill="#FFA800"/>
</svg>
