<svg width="543" height="78" viewBox="0 0 543 78" fill="none" xmlns="http://www.w3.org/2000/svg">
<rect width="543" height="78" fill="black"/>
<path d="M98.8863 52V48.0114L108.206 39.3821C108.999 38.6151 109.663 37.9247 110.2 37.3111C110.746 36.6974 111.159 36.0966 111.44 35.5085C111.722 34.9119 111.862 34.2685 111.862 33.5781C111.862 32.8111 111.687 32.1506 111.338 31.5966C110.989 31.0341 110.511 30.6037 109.906 30.3054C109.301 29.9986 108.615 29.8452 107.848 29.8452C107.047 29.8452 106.348 30.0071 105.751 30.331C105.155 30.6548 104.695 31.1193 104.371 31.7244C104.047 32.3295 103.885 33.0497 103.885 33.8849H98.6306C98.6306 32.1719 99.0184 30.6847 99.794 29.4233C100.57 28.1619 101.656 27.1861 103.054 26.4957C104.452 25.8054 106.062 25.4602 107.886 25.4602C109.761 25.4602 111.393 25.7926 112.783 26.4574C114.18 27.1136 115.267 28.0256 116.043 29.1932C116.818 30.3608 117.206 31.6989 117.206 33.2074C117.206 34.196 117.01 35.1719 116.618 36.1349C116.234 37.098 115.548 38.1676 114.56 39.3438C113.571 40.5114 112.178 41.9134 110.379 43.5497L106.557 47.2955V47.4744H117.551V52H98.8863ZM120.603 47.3977V43.0384L131.534 25.8182H135.292V31.8523H133.068L126.177 42.7571V42.9616H141.71V47.3977H120.603ZM133.17 52V46.0682L133.272 44.1378V25.8182H138.463V52H133.17ZM156.853 24.5909L148.415 55.9375H143.723L152.161 24.5909H156.853ZM160.461 52L171.315 30.5227V30.3438H158.671V25.8182H177.042V30.4077L166.175 52H160.461ZM192.29 24.5909L183.853 55.9375H179.161L187.598 24.5909H192.29ZM204.54 52.358C202.631 52.358 200.931 52.0298 199.44 51.3736C197.957 50.7088 196.785 49.7969 195.924 48.6378C195.072 47.4702 194.633 46.1236 194.607 44.598H200.181C200.215 45.2372 200.424 45.7997 200.807 46.2855C201.2 46.7628 201.719 47.1335 202.367 47.3977C203.015 47.6619 203.744 47.794 204.553 47.794C205.397 47.794 206.143 47.6449 206.79 47.3466C207.438 47.0483 207.945 46.6349 208.312 46.1065C208.678 45.5781 208.861 44.9687 208.861 44.2784C208.861 43.5795 208.665 42.9616 208.273 42.4247C207.89 41.8793 207.336 41.4531 206.611 41.1463C205.896 40.8395 205.043 40.6861 204.055 40.6861H201.613V36.6207H204.055C204.89 36.6207 205.627 36.4759 206.266 36.1861C206.914 35.8963 207.417 35.4957 207.775 34.9844C208.133 34.4645 208.312 33.8594 208.312 33.169C208.312 32.5128 208.154 31.9375 207.839 31.4432C207.532 30.9403 207.097 30.5483 206.535 30.267C205.981 29.9858 205.333 29.8452 204.592 29.8452C203.842 29.8452 203.155 29.9815 202.533 30.2543C201.911 30.5185 201.413 30.8977 201.038 31.392C200.663 31.8864 200.462 32.4659 200.437 33.1307H195.131C195.157 31.6222 195.587 30.2926 196.423 29.142C197.258 27.9915 198.383 27.0923 199.798 26.4446C201.221 25.7884 202.827 25.4602 204.617 25.4602C206.424 25.4602 208.005 25.7884 209.36 26.4446C210.715 27.1009 211.768 27.9872 212.518 29.1037C213.276 30.2116 213.651 31.456 213.643 32.8366C213.651 34.3026 213.195 35.5256 212.275 36.5057C211.363 37.4858 210.174 38.108 208.708 38.3722V38.5767C210.634 38.8239 212.1 39.4929 213.106 40.5838C214.12 41.6662 214.623 43.0213 214.614 44.6491C214.623 46.1406 214.192 47.4659 213.323 48.625C212.462 49.7841 211.273 50.696 209.756 51.3608C208.239 52.0256 206.501 52.358 204.54 52.358ZM228.642 52.358C227.295 52.3494 225.995 52.1236 224.742 51.6804C223.498 51.2372 222.382 50.517 221.393 49.5199C220.404 48.5227 219.62 47.2017 219.041 45.5568C218.47 43.9119 218.184 41.892 218.184 39.4972C218.193 37.2983 218.444 35.3338 218.939 33.6037C219.441 31.8651 220.157 30.3906 221.086 29.1804C222.024 27.9702 223.144 27.0497 224.448 26.419C225.752 25.7798 227.214 25.4602 228.833 25.4602C230.581 25.4602 232.123 25.8011 233.461 26.483C234.799 27.1562 235.873 28.0724 236.683 29.2315C237.501 30.3906 237.995 31.6903 238.166 33.1307H232.707C232.494 32.2188 232.046 31.5028 231.365 30.983C230.683 30.4631 229.839 30.2031 228.833 30.2031C227.129 30.2031 225.833 30.9446 224.947 32.4276C224.069 33.9105 223.622 35.9261 223.605 38.4744H223.784C224.176 37.6989 224.704 37.0384 225.369 36.4929C226.042 35.9389 226.805 35.517 227.657 35.2273C228.518 34.929 229.426 34.7798 230.38 34.7798C231.931 34.7798 233.312 35.1463 234.522 35.8793C235.733 36.6037 236.687 37.6009 237.386 38.8707C238.085 40.1406 238.434 41.5937 238.434 43.2301C238.434 45.0028 238.021 46.5795 237.194 47.9602C236.376 49.3409 235.23 50.4233 233.755 51.2074C232.289 51.983 230.585 52.3665 228.642 52.358ZM228.616 48.0114C229.468 48.0114 230.231 47.8068 230.904 47.3977C231.578 46.9886 232.106 46.4347 232.49 45.7358C232.873 45.0369 233.065 44.2528 233.065 43.3835C233.065 42.5142 232.873 41.7344 232.49 41.044C232.115 40.3537 231.595 39.804 230.93 39.3949C230.265 38.9858 229.507 38.7812 228.654 38.7812C228.015 38.7812 227.423 38.9006 226.877 39.1392C226.341 39.3778 225.867 39.7102 225.458 40.1364C225.058 40.5625 224.742 41.0568 224.512 41.6193C224.282 42.1733 224.167 42.7656 224.167 43.3963C224.167 44.2401 224.359 45.0114 224.742 45.7102C225.135 46.4091 225.663 46.9673 226.328 47.3849C227.001 47.8026 227.764 48.0114 228.616 48.0114ZM251.921 52.358C250.115 52.358 248.504 52.0256 247.089 51.3608C245.683 50.696 244.566 49.7798 243.74 48.6122C242.913 47.4446 242.483 46.1065 242.448 44.598H247.818C247.877 45.6122 248.304 46.4347 249.096 47.0653C249.889 47.696 250.831 48.0114 251.921 48.0114C252.791 48.0114 253.558 47.8196 254.223 47.4361C254.896 47.044 255.42 46.5028 255.795 45.8125C256.179 45.1136 256.37 44.3125 256.37 43.4091C256.37 42.4886 256.174 41.679 255.782 40.9801C255.399 40.2812 254.866 39.7358 254.184 39.3438C253.502 38.9517 252.723 38.7514 251.845 38.7429C251.078 38.7429 250.332 38.9006 249.608 39.2159C248.892 39.5312 248.333 39.9616 247.933 40.5071L243.011 39.625L244.251 25.8182H260.257V30.3438H248.815L248.137 36.902H248.291C248.751 36.2543 249.446 35.7173 250.375 35.2912C251.304 34.8651 252.343 34.652 253.494 34.652C255.071 34.652 256.477 35.0227 257.713 35.7642C258.948 36.5057 259.924 37.5241 260.64 38.8196C261.356 40.1065 261.71 41.5895 261.701 43.2685C261.71 45.0327 261.301 46.6009 260.474 47.973C259.656 49.3366 258.51 50.4105 257.035 51.1946C255.569 51.9702 253.865 52.358 251.921 52.358ZM273.05 30.3821V25.8182H294.553V30.3821H286.538V52H281.066V30.3821H273.05ZM304.093 52.3835C302.073 52.3835 300.335 51.9744 298.877 51.1562C297.429 50.3295 296.312 49.1619 295.528 47.6534C294.744 46.1364 294.352 44.3423 294.352 42.2713C294.352 40.2514 294.744 38.4787 295.528 36.9531C296.312 35.4276 297.416 34.2386 298.839 33.3864C300.271 32.5341 301.95 32.108 303.876 32.108C305.171 32.108 306.377 32.3168 307.494 32.7344C308.619 33.1435 309.599 33.7614 310.434 34.5881C311.278 35.4148 311.934 36.4545 312.403 37.7074C312.872 38.9517 313.106 40.4091 313.106 42.0795V43.5753H296.525V40.2003H307.98C307.98 39.4162 307.809 38.7216 307.468 38.1165C307.127 37.5114 306.654 37.0384 306.049 36.6974C305.453 36.348 304.758 36.1733 303.966 36.1733C303.139 36.1733 302.406 36.3651 301.767 36.7486C301.136 37.1236 300.642 37.6307 300.284 38.2699C299.926 38.9006 299.742 39.6037 299.734 40.3793V43.5881C299.734 44.5597 299.913 45.3991 300.271 46.1065C300.637 46.8139 301.153 47.3594 301.818 47.7429C302.483 48.1264 303.271 48.3182 304.183 48.3182C304.788 48.3182 305.342 48.233 305.845 48.0625C306.348 47.892 306.778 47.6364 307.136 47.2955C307.494 46.9545 307.767 46.5369 307.954 46.0426L312.991 46.375C312.735 47.5852 312.211 48.642 311.419 49.5455C310.635 50.4403 309.62 51.1392 308.376 51.642C307.14 52.1364 305.713 52.3835 304.093 52.3835ZM325.532 52.3835C323.521 52.3835 321.791 51.9574 320.342 51.1051C318.902 50.2443 317.794 49.0511 317.018 47.5256C316.251 46 315.867 44.2443 315.867 42.2585C315.867 40.2472 316.255 38.483 317.031 36.9659C317.815 35.4403 318.927 34.2514 320.367 33.3991C321.808 32.5384 323.521 32.108 325.507 32.108C327.22 32.108 328.72 32.419 330.007 33.0412C331.294 33.6634 332.312 34.5369 333.062 35.6619C333.812 36.7869 334.225 38.108 334.302 39.625H329.163C329.018 38.6449 328.635 37.8565 328.012 37.2599C327.399 36.6548 326.593 36.3523 325.596 36.3523C324.752 36.3523 324.015 36.5824 323.385 37.0426C322.762 37.4943 322.277 38.1548 321.927 39.0241C321.578 39.8935 321.403 40.946 321.403 42.1818C321.403 43.4347 321.573 44.5 321.914 45.3778C322.264 46.2557 322.754 46.9247 323.385 47.3849C324.015 47.8452 324.752 48.0753 325.596 48.0753C326.218 48.0753 326.777 47.9474 327.271 47.6918C327.774 47.4361 328.187 47.0653 328.511 46.5795C328.843 46.0852 329.061 45.4929 329.163 44.8026H334.302C334.217 46.3026 333.808 47.6236 333.075 48.7656C332.35 49.8991 331.349 50.7855 330.071 51.4247C328.792 52.0639 327.279 52.3835 325.532 52.3835ZM343.235 40.6477V52H337.789V25.8182H343.082V35.8281H343.312C343.755 34.669 344.471 33.7614 345.459 33.1051C346.448 32.4403 347.688 32.108 349.18 32.108C350.543 32.108 351.732 32.4062 352.746 33.0028C353.769 33.5909 354.562 34.4389 355.124 35.5469C355.695 36.6463 355.977 37.9631 355.968 39.4972V52H350.522V40.4688C350.53 39.2585 350.224 38.3168 349.602 37.6435C348.988 36.9702 348.127 36.6335 347.019 36.6335C346.278 36.6335 345.621 36.7912 345.05 37.1065C344.488 37.4219 344.045 37.8821 343.721 38.4872C343.405 39.0838 343.244 39.804 343.235 40.6477ZM382.891 33.348C382.789 32.3168 382.35 31.5156 381.575 30.9446C380.799 30.3736 379.746 30.0881 378.417 30.0881C377.513 30.0881 376.751 30.2159 376.128 30.4716C375.506 30.7188 375.029 31.0639 374.697 31.5071C374.373 31.9503 374.211 32.4531 374.211 33.0156C374.194 33.4844 374.292 33.8935 374.505 34.2429C374.727 34.5923 375.029 34.8949 375.413 35.1506C375.796 35.3977 376.239 35.6151 376.742 35.8026C377.245 35.9815 377.782 36.1349 378.353 36.2628L380.705 36.8253C381.847 37.081 382.896 37.4219 383.85 37.848C384.805 38.2741 385.631 38.7983 386.33 39.4205C387.029 40.0426 387.57 40.7756 387.954 41.6193C388.346 42.4631 388.546 43.4304 388.555 44.5213C388.546 46.1236 388.137 47.5128 387.327 48.6889C386.526 49.8565 385.367 50.7642 383.85 51.4119C382.342 52.0511 380.522 52.3707 378.391 52.3707C376.278 52.3707 374.437 52.0469 372.869 51.3991C371.309 50.7514 370.09 49.7926 369.212 48.5227C368.343 47.2443 367.887 45.6634 367.844 43.7798H373.201C373.261 44.6577 373.512 45.3906 373.955 45.9787C374.407 46.5582 375.008 46.9972 375.758 47.2955C376.516 47.5852 377.373 47.7301 378.327 47.7301C379.265 47.7301 380.079 47.5937 380.769 47.321C381.468 47.0483 382.009 46.669 382.393 46.1832C382.776 45.6974 382.968 45.1392 382.968 44.5085C382.968 43.9205 382.793 43.4261 382.444 43.0256C382.103 42.625 381.6 42.2841 380.935 42.0028C380.279 41.7216 379.474 41.4659 378.519 41.2358L375.668 40.5199C373.461 39.983 371.718 39.1435 370.44 38.0014C369.161 36.8594 368.526 35.321 368.535 33.3864C368.526 31.8011 368.948 30.4162 369.8 29.2315C370.661 28.0469 371.842 27.1222 373.342 26.4574C374.842 25.7926 376.546 25.4602 378.455 25.4602C380.398 25.4602 382.094 25.7926 383.543 26.4574C385.001 27.1222 386.134 28.0469 386.944 29.2315C387.753 30.4162 388.171 31.7884 388.197 33.348H382.891ZM404.768 43.6392V32.3636H410.214V52H404.985V48.4332H404.781C404.338 49.5838 403.6 50.5085 402.569 51.2074C401.546 51.9062 400.298 52.2557 398.823 52.2557C397.511 52.2557 396.356 51.9574 395.359 51.3608C394.362 50.7642 393.582 49.9162 393.019 48.8168C392.465 47.7173 392.184 46.4006 392.176 44.8665V32.3636H397.622V43.8949C397.63 45.054 397.941 45.9702 398.555 46.6435C399.169 47.3168 399.991 47.6534 401.022 47.6534C401.679 47.6534 402.292 47.5043 402.863 47.206C403.434 46.8991 403.894 46.4474 404.244 45.8509C404.602 45.2543 404.777 44.517 404.768 43.6392ZM414.57 59.3636V32.3636H419.94V35.6619H420.182C420.421 35.1335 420.766 34.5966 421.218 34.0511C421.678 33.4972 422.275 33.0369 423.008 32.6705C423.749 32.2955 424.67 32.108 425.769 32.108C427.201 32.108 428.522 32.483 429.732 33.233C430.942 33.9744 431.91 35.0952 432.634 36.5952C433.359 38.0866 433.721 39.9574 433.721 42.2074C433.721 44.3977 433.367 46.2472 432.66 47.7557C431.961 49.2557 431.006 50.3935 429.796 51.169C428.594 51.9361 427.248 52.3196 425.756 52.3196C424.7 52.3196 423.8 52.1449 423.059 51.7955C422.326 51.446 421.725 51.0071 421.256 50.4787C420.788 49.9418 420.43 49.4006 420.182 48.8551H420.016V59.3636H414.57ZM419.901 42.1818C419.901 43.3494 420.063 44.3679 420.387 45.2372C420.711 46.1065 421.18 46.7841 421.793 47.2699C422.407 47.7472 423.153 47.9858 424.03 47.9858C424.917 47.9858 425.667 47.7429 426.28 47.2571C426.894 46.7628 427.359 46.081 427.674 45.2116C427.998 44.3338 428.16 43.3239 428.16 42.1818C428.16 41.0483 428.002 40.0511 427.687 39.1903C427.371 38.3295 426.907 37.6562 426.293 37.1705C425.68 36.6847 424.925 36.4418 424.03 36.4418C423.144 36.4418 422.394 36.6761 421.78 37.1449C421.175 37.6136 420.711 38.2784 420.387 39.1392C420.063 40 419.901 41.0142 419.901 42.1818ZM437.352 59.3636V32.3636H442.721V35.6619H442.964C443.202 35.1335 443.548 34.5966 443.999 34.0511C444.459 33.4972 445.056 33.0369 445.789 32.6705C446.53 32.2955 447.451 32.108 448.55 32.108C449.982 32.108 451.303 32.483 452.513 33.233C453.724 33.9744 454.691 35.0952 455.415 36.5952C456.14 38.0866 456.502 39.9574 456.502 42.2074C456.502 44.3977 456.148 46.2472 455.441 47.7557C454.742 49.2557 453.788 50.3935 452.577 51.169C451.376 51.9361 450.029 52.3196 448.538 52.3196C447.481 52.3196 446.582 52.1449 445.84 51.7955C445.107 51.446 444.506 51.0071 444.038 50.4787C443.569 49.9418 443.211 49.4006 442.964 48.8551H442.798V59.3636H437.352ZM442.682 42.1818C442.682 43.3494 442.844 44.3679 443.168 45.2372C443.492 46.1065 443.961 46.7841 444.575 47.2699C445.188 47.7472 445.934 47.9858 446.812 47.9858C447.698 47.9858 448.448 47.7429 449.062 47.2571C449.675 46.7628 450.14 46.081 450.455 45.2116C450.779 44.3338 450.941 43.3239 450.941 42.1818C450.941 41.0483 450.783 40.0511 450.468 39.1903C450.153 38.3295 449.688 37.6562 449.075 37.1705C448.461 36.6847 447.707 36.4418 446.812 36.4418C445.925 36.4418 445.175 36.6761 444.562 37.1449C443.957 37.6136 443.492 38.2784 443.168 39.1392C442.844 40 442.682 41.0142 442.682 42.1818ZM469.005 52.3835C467.019 52.3835 465.302 51.9616 463.853 51.1179C462.413 50.2656 461.3 49.081 460.516 47.5639C459.732 46.0384 459.34 44.2699 459.34 42.2585C459.34 40.2301 459.732 38.4574 460.516 36.9403C461.3 35.4148 462.413 34.2301 463.853 33.3864C465.302 32.5341 467.019 32.108 469.005 32.108C470.991 32.108 472.704 32.5341 474.144 33.3864C475.593 34.2301 476.709 35.4148 477.494 36.9403C478.278 38.4574 478.67 40.2301 478.67 42.2585C478.67 44.2699 478.278 46.0384 477.494 47.5639C476.709 49.081 475.593 50.2656 474.144 51.1179C472.704 51.9616 470.991 52.3835 469.005 52.3835ZM469.03 48.1648C469.934 48.1648 470.688 47.9091 471.293 47.3977C471.898 46.8778 472.354 46.1705 472.661 45.2756C472.977 44.3807 473.134 43.3622 473.134 42.2202C473.134 41.0781 472.977 40.0597 472.661 39.1648C472.354 38.2699 471.898 37.5625 471.293 37.0426C470.688 36.5227 469.934 36.2628 469.03 36.2628C468.119 36.2628 467.352 36.5227 466.729 37.0426C466.116 37.5625 465.651 38.2699 465.336 39.1648C465.029 40.0597 464.876 41.0781 464.876 42.2202C464.876 43.3622 465.029 44.3807 465.336 45.2756C465.651 46.1705 466.116 46.8778 466.729 47.3977C467.352 47.9091 468.119 48.1648 469.03 48.1648ZM482.211 52V32.3636H487.491V35.7898H487.695C488.053 34.571 488.654 33.6506 489.498 33.0284C490.342 32.3977 491.313 32.0824 492.413 32.0824C492.685 32.0824 492.979 32.0994 493.295 32.1335C493.61 32.1676 493.887 32.2145 494.126 32.2741V37.1065C493.87 37.0298 493.516 36.9616 493.065 36.902C492.613 36.8423 492.2 36.8125 491.825 36.8125C491.023 36.8125 490.307 36.9872 489.677 37.3366C489.055 37.6776 488.56 38.1548 488.194 38.7685C487.836 39.3821 487.657 40.0895 487.657 40.8906V52H482.211ZM508.37 32.3636V36.4545H496.545V32.3636H508.37ZM499.23 27.6591H504.676V45.9659C504.676 46.4687 504.752 46.8608 504.906 47.142C505.059 47.4148 505.272 47.6065 505.545 47.7173C505.826 47.8281 506.15 47.8835 506.517 47.8835C506.772 47.8835 507.028 47.8622 507.284 47.8196C507.539 47.7685 507.735 47.7301 507.872 47.7045L508.728 51.7571C508.456 51.8423 508.072 51.9403 507.578 52.0511C507.083 52.1705 506.483 52.2429 505.775 52.2685C504.463 52.3196 503.312 52.1449 502.323 51.7443C501.343 51.3437 500.581 50.7216 500.035 49.8778C499.49 49.0341 499.221 47.9687 499.23 46.6818V27.6591Z" fill="white"/>
<path d="M30.2461 47.625C30.0446 47.625 29.843 47.6564 29.6507 47.7229C28.5575 48.1012 27.4079 48.3438 26.1975 48.3438C24.9871 48.3438 23.8374 48.1012 22.7434 47.7229C22.5511 47.6564 22.3504 47.625 22.1488 47.625C16.9142 47.625 12.6741 52.1603 12.7019 57.7432C12.7137 60.1025 14.5348 62 16.7506 62H35.6444C37.8602 62 39.6812 60.1025 39.6931 57.7432C39.7209 52.1603 35.4807 47.625 30.2461 47.625ZM26.1975 44.75C30.6696 44.75 34.2948 40.8885 34.2948 36.125C34.2948 31.3615 30.6696 27.5 26.1975 27.5C21.7254 27.5 18.1001 31.3615 18.1001 36.125C18.1001 40.8885 21.7254 44.75 26.1975 44.75ZM62.6355 16H30.2461C28.0135 16 26.1975 17.999 26.1975 20.4554V24.625C28.1729 24.625 30.0015 25.2341 31.5957 26.2242V21.75H61.286V47.625H55.8877V41.875H45.0913V47.625H38.6606C40.2717 49.1245 41.4542 51.1046 42.0084 53.375H62.6355C64.8682 53.375 66.6842 51.376 66.6842 48.9196V20.4554C66.6842 17.999 64.8682 16 62.6355 16Z" fill="#FFA800"/>
</svg>
