<svg width="541" height="79" viewBox="0 0 541 79" fill="none" xmlns="http://www.w3.org/2000/svg">
<rect width="541" height="78.963" fill="black"/>
<path d="M122.085 53H116.153L125.192 26.8182H132.325L141.351 53H135.419L128.861 32.8011H128.656L122.085 53ZM121.714 42.7088H135.726V47.0298H121.714V42.7088ZM156.992 44.6392V33.3636H162.438V53H157.21V49.4332H157.005C156.562 50.5838 155.825 51.5085 154.793 52.2074C153.771 52.9062 152.522 53.2557 151.048 53.2557C149.735 53.2557 148.58 52.9574 147.583 52.3608C146.586 51.7642 145.806 50.9162 145.244 49.8168C144.69 48.7173 144.408 47.4006 144.4 45.8665V33.3636H149.846V44.8949C149.854 46.054 150.165 46.9702 150.779 47.6435C151.393 48.3168 152.215 48.6534 153.246 48.6534C153.903 48.6534 154.516 48.5043 155.087 48.206C155.658 47.8991 156.119 47.4474 156.468 46.8509C156.826 46.2543 157.001 45.517 156.992 44.6392ZM177.239 33.3636V37.4545H165.414V33.3636H177.239ZM168.098 28.6591H173.544V46.9659C173.544 47.4687 173.621 47.8608 173.775 48.142C173.928 48.4148 174.141 48.6065 174.414 48.7173C174.695 48.8281 175.019 48.8835 175.385 48.8835C175.641 48.8835 175.897 48.8622 176.152 48.8196C176.408 48.7685 176.604 48.7301 176.74 48.7045L177.597 52.7571C177.324 52.8423 176.941 52.9403 176.446 53.0511C175.952 53.1705 175.351 53.2429 174.644 53.2685C173.331 53.3196 172.181 53.1449 171.192 52.7443C170.212 52.3437 169.449 51.7216 168.904 50.8778C168.358 50.0341 168.09 48.9687 168.098 47.6818V28.6591ZM189.448 53.3835C187.462 53.3835 185.745 52.9616 184.296 52.1179C182.855 51.2656 181.743 50.081 180.959 48.5639C180.175 47.0384 179.783 45.2699 179.783 43.2585C179.783 41.2301 180.175 39.4574 180.959 37.9403C181.743 36.4148 182.855 35.2301 184.296 34.3864C185.745 33.5341 187.462 33.108 189.448 33.108C191.434 33.108 193.147 33.5341 194.587 34.3864C196.036 35.2301 197.152 36.4148 197.936 37.9403C198.721 39.4574 199.113 41.2301 199.113 43.2585C199.113 45.2699 198.721 47.0384 197.936 48.5639C197.152 50.081 196.036 51.2656 194.587 52.1179C193.147 52.9616 191.434 53.3835 189.448 53.3835ZM189.473 49.1648C190.377 49.1648 191.131 48.9091 191.736 48.3977C192.341 47.8778 192.797 47.1705 193.104 46.2756C193.419 45.3807 193.577 44.3622 193.577 43.2202C193.577 42.0781 193.419 41.0597 193.104 40.1648C192.797 39.2699 192.341 38.5625 191.736 38.0426C191.131 37.5227 190.377 37.2628 189.473 37.2628C188.561 37.2628 187.794 37.5227 187.172 38.0426C186.559 38.5625 186.094 39.2699 185.779 40.1648C185.472 41.0597 185.319 42.0781 185.319 43.2202C185.319 44.3622 185.472 45.3807 185.779 46.2756C186.094 47.1705 186.559 47.8778 187.172 48.3977C187.794 48.9091 188.561 49.1648 189.473 49.1648ZM202.654 53V33.3636H207.844V36.8281H208.074C208.483 35.6776 209.165 34.7699 210.12 34.1051C211.074 33.4403 212.216 33.108 213.546 33.108C214.892 33.108 216.039 33.4446 216.985 34.1179C217.931 34.7827 218.561 35.6861 218.877 36.8281H219.081C219.482 35.7031 220.206 34.804 221.255 34.1307C222.311 33.4489 223.56 33.108 225 33.108C226.833 33.108 228.32 33.6918 229.462 34.8594C230.613 36.0185 231.188 37.6634 231.188 39.794V53H225.755V40.8679C225.755 39.777 225.465 38.9588 224.885 38.4134C224.306 37.8679 223.581 37.5952 222.712 37.5952C221.723 37.5952 220.952 37.9105 220.398 38.5412C219.844 39.1634 219.567 39.9858 219.567 41.0085V53H214.287V40.7528C214.287 39.7898 214.01 39.0227 213.456 38.4517C212.911 37.8807 212.191 37.5952 211.296 37.5952C210.691 37.5952 210.145 37.7486 209.659 38.0554C209.182 38.3537 208.803 38.7756 208.522 39.321C208.24 39.858 208.1 40.4886 208.1 41.2131V53H202.654ZM241.089 53.3707C239.836 53.3707 238.72 53.1534 237.74 52.7188C236.76 52.2756 235.984 51.6236 235.413 50.7628C234.85 49.8935 234.569 48.8111 234.569 47.5156C234.569 46.4247 234.77 45.5085 235.17 44.767C235.571 44.0256 236.116 43.429 236.806 42.9773C237.497 42.5256 238.281 42.1847 239.159 41.9545C240.045 41.7244 240.974 41.5625 241.946 41.4688C243.088 41.3494 244.008 41.2386 244.707 41.1364C245.406 41.0256 245.913 40.8636 246.228 40.6506C246.544 40.4375 246.701 40.1222 246.701 39.7045V39.6278C246.701 38.8182 246.446 38.1918 245.934 37.7486C245.431 37.3054 244.716 37.0838 243.787 37.0838C242.806 37.0838 242.027 37.3011 241.447 37.7358C240.868 38.1619 240.484 38.6989 240.297 39.3466L235.26 38.9375C235.515 37.7443 236.018 36.7131 236.768 35.8438C237.518 34.9659 238.485 34.2926 239.67 33.8239C240.863 33.3466 242.244 33.108 243.812 33.108C244.903 33.108 245.947 33.2358 246.944 33.4915C247.95 33.7472 248.841 34.1435 249.616 34.6804C250.4 35.2173 251.018 35.9077 251.47 36.7514C251.922 37.5866 252.147 38.5881 252.147 39.7557V53H246.983V50.277H246.829C246.514 50.8906 246.092 51.4318 245.564 51.9006C245.035 52.3608 244.4 52.723 243.659 52.9872C242.917 53.2429 242.061 53.3707 241.089 53.3707ZM242.649 49.6122C243.45 49.6122 244.157 49.4545 244.771 49.1392C245.385 48.8153 245.866 48.3807 246.216 47.8352C246.565 47.2898 246.74 46.6719 246.74 45.9815V43.8977C246.569 44.0085 246.335 44.1108 246.037 44.2045C245.747 44.2898 245.419 44.3707 245.052 44.4474C244.686 44.5156 244.319 44.5795 243.953 44.6392C243.586 44.6903 243.254 44.7372 242.956 44.7798C242.316 44.8736 241.758 45.0227 241.281 45.2273C240.804 45.4318 240.433 45.7088 240.169 46.0582C239.904 46.3991 239.772 46.8253 239.772 47.3366C239.772 48.0781 240.041 48.6449 240.578 49.0369C241.123 49.4205 241.814 49.6122 242.649 49.6122ZM266.817 33.3636V37.4545H254.992V33.3636H266.817ZM257.676 28.6591H263.123V46.9659C263.123 47.4687 263.199 47.8608 263.353 48.142C263.506 48.4148 263.719 48.6065 263.992 48.7173C264.273 48.8281 264.597 48.8835 264.963 48.8835C265.219 48.8835 265.475 48.8622 265.73 48.8196C265.986 48.7685 266.182 48.7301 266.319 48.7045L267.175 52.7571C266.902 52.8423 266.519 52.9403 266.025 53.0511C265.53 53.1705 264.929 53.2429 264.222 53.2685C262.909 53.3196 261.759 53.1449 260.77 52.7443C259.79 52.3437 259.027 51.7216 258.482 50.8778C257.936 50.0341 257.668 48.9687 257.676 47.6818V28.6591ZM270.365 53V33.3636H275.811V53H270.365ZM273.1 30.8324C272.291 30.8324 271.596 30.5639 271.017 30.027C270.446 29.4815 270.16 28.8295 270.16 28.071C270.16 27.321 270.446 26.6776 271.017 26.1406C271.596 25.5952 272.291 25.3224 273.1 25.3224C273.91 25.3224 274.6 25.5952 275.172 26.1406C275.751 26.6776 276.041 27.321 276.041 28.071C276.041 28.8295 275.751 29.4815 275.172 30.027C274.6 30.5639 273.91 30.8324 273.1 30.8324ZM289.045 53.3835C287.034 53.3835 285.304 52.9574 283.855 52.1051C282.415 51.2443 281.307 50.0511 280.531 48.5256C279.764 47 279.381 45.2443 279.381 43.2585C279.381 41.2472 279.768 39.483 280.544 37.9659C281.328 36.4403 282.44 35.2514 283.881 34.3991C285.321 33.5384 287.034 33.108 289.02 33.108C290.733 33.108 292.233 33.419 293.52 34.0412C294.807 34.6634 295.825 35.5369 296.575 36.6619C297.325 37.7869 297.739 39.108 297.815 40.625H292.676C292.531 39.6449 292.148 38.8565 291.526 38.2599C290.912 37.6548 290.107 37.3523 289.109 37.3523C288.266 37.3523 287.528 37.5824 286.898 38.0426C286.276 38.4943 285.79 39.1548 285.44 40.0241C285.091 40.8935 284.916 41.946 284.916 43.1818C284.916 44.4347 285.087 45.5 285.428 46.3778C285.777 47.2557 286.267 47.9247 286.898 48.3849C287.528 48.8452 288.266 49.0753 289.109 49.0753C289.732 49.0753 290.29 48.9474 290.784 48.6918C291.287 48.4361 291.7 48.0653 292.024 47.5795C292.357 47.0852 292.574 46.4929 292.676 45.8026H297.815C297.73 47.3026 297.321 48.6236 296.588 49.7656C295.864 50.8991 294.862 51.7855 293.584 52.4247C292.305 53.0639 290.793 53.3835 289.045 53.3835ZM309.737 53V26.8182H315.183V36.6619H315.349C315.587 36.1335 315.933 35.5966 316.384 35.0511C316.844 34.4972 317.441 34.0369 318.174 33.6705C318.915 33.2955 319.836 33.108 320.935 33.108C322.367 33.108 323.688 33.483 324.898 34.233C326.109 34.9744 327.076 36.0952 327.8 37.5952C328.525 39.0866 328.887 40.9574 328.887 43.2074C328.887 45.3977 328.533 47.2472 327.826 48.7557C327.127 50.2557 326.173 51.3935 324.962 52.169C323.761 52.9361 322.414 53.3196 320.923 53.3196C319.866 53.3196 318.967 53.1449 318.225 52.7955C317.492 52.446 316.891 52.0071 316.423 51.4787C315.954 50.9418 315.596 50.4006 315.349 49.8551H315.106V53H309.737ZM315.067 43.1818C315.067 44.3494 315.229 45.3679 315.553 46.2372C315.877 47.1065 316.346 47.7841 316.96 48.2699C317.573 48.7472 318.319 48.9858 319.197 48.9858C320.083 48.9858 320.833 48.7429 321.447 48.2571C322.06 47.7628 322.525 47.081 322.84 46.2116C323.164 45.3338 323.326 44.3239 323.326 43.1818C323.326 42.0483 323.168 41.0511 322.853 40.1903C322.538 39.3295 322.073 38.6562 321.46 38.1705C320.846 37.6847 320.092 37.4418 319.197 37.4418C318.31 37.4418 317.56 37.6761 316.947 38.1449C316.342 38.6136 315.877 39.2784 315.553 40.1392C315.229 41 315.067 42.0142 315.067 43.1818ZM338.12 53.3707C336.868 53.3707 335.751 53.1534 334.771 52.7188C333.791 52.2756 333.015 51.6236 332.444 50.7628C331.882 49.8935 331.6 48.8111 331.6 47.5156C331.6 46.4247 331.801 45.5085 332.201 44.767C332.602 44.0256 333.147 43.429 333.838 42.9773C334.528 42.5256 335.312 42.1847 336.19 41.9545C337.076 41.7244 338.005 41.5625 338.977 41.4688C340.119 41.3494 341.039 41.2386 341.738 41.1364C342.437 41.0256 342.944 40.8636 343.26 40.6506C343.575 40.4375 343.733 40.1222 343.733 39.7045V39.6278C343.733 38.8182 343.477 38.1918 342.966 37.7486C342.463 37.3054 341.747 37.0838 340.818 37.0838C339.838 37.0838 339.058 37.3011 338.478 37.7358C337.899 38.1619 337.515 38.6989 337.328 39.3466L332.291 38.9375C332.547 37.7443 333.049 36.7131 333.799 35.8438C334.549 34.9659 335.517 34.2926 336.701 33.8239C337.895 33.3466 339.275 33.108 340.843 33.108C341.934 33.108 342.978 33.2358 343.975 33.4915C344.981 33.7472 345.872 34.1435 346.647 34.6804C347.431 35.2173 348.049 35.9077 348.501 36.7514C348.953 37.5866 349.179 38.5881 349.179 39.7557V53H344.014V50.277H343.86C343.545 50.8906 343.123 51.4318 342.595 51.9006C342.066 52.3608 341.431 52.723 340.69 52.9872C339.949 53.2429 339.092 53.3707 338.12 53.3707ZM339.68 49.6122C340.481 49.6122 341.189 49.4545 341.802 49.1392C342.416 48.8153 342.897 48.3807 343.247 47.8352C343.596 47.2898 343.771 46.6719 343.771 45.9815V43.8977C343.6 44.0085 343.366 44.1108 343.068 44.2045C342.778 44.2898 342.45 44.3707 342.083 44.4474C341.717 44.5156 341.35 44.5795 340.984 44.6392C340.618 44.6903 340.285 44.7372 339.987 44.7798C339.348 44.8736 338.789 45.0227 338.312 45.2273C337.835 45.4318 337.464 45.7088 337.2 46.0582C336.936 46.3991 336.804 46.8253 336.804 47.3366C336.804 48.0781 337.072 48.6449 337.609 49.0369C338.154 49.4205 338.845 49.6122 339.68 49.6122ZM362.276 53.3835C360.265 53.3835 358.534 52.9574 357.086 52.1051C355.645 51.2443 354.537 50.0511 353.762 48.5256C352.995 47 352.611 45.2443 352.611 43.2585C352.611 41.2472 352.999 39.483 353.775 37.9659C354.559 36.4403 355.671 35.2514 357.111 34.3991C358.551 33.5384 360.265 33.108 362.25 33.108C363.963 33.108 365.463 33.419 366.75 34.0412C368.037 34.6634 369.056 35.5369 369.806 36.6619C370.556 37.7869 370.969 39.108 371.046 40.625H365.907C365.762 39.6449 365.378 38.8565 364.756 38.2599C364.142 37.6548 363.337 37.3523 362.34 37.3523C361.496 37.3523 360.759 37.5824 360.128 38.0426C359.506 38.4943 359.02 39.1548 358.671 40.0241C358.321 40.8935 358.147 41.946 358.147 43.1818C358.147 44.4347 358.317 45.5 358.658 46.3778C359.007 47.2557 359.498 47.9247 360.128 48.3849C360.759 48.8452 361.496 49.0753 362.34 49.0753C362.962 49.0753 363.52 48.9474 364.015 48.6918C364.517 48.4361 364.931 48.0653 365.255 47.5795C365.587 47.0852 365.804 46.4929 365.907 45.8026H371.046C370.961 47.3026 370.551 48.6236 369.819 49.7656C369.094 50.8991 368.093 51.7855 366.814 52.4247C365.536 53.0639 364.023 53.3835 362.276 53.3835ZM379.467 47.3494L379.48 40.8168H380.273L386.562 33.3636H392.814L384.364 43.233H383.072L379.467 47.3494ZM374.533 53V26.8182H379.979V53H374.533ZM386.805 53L381.027 44.4474L384.658 40.5994L393.185 53H386.805ZM408.078 44.6392V33.3636H413.524V53H408.295V49.4332H408.091C407.648 50.5838 406.911 51.5085 405.879 52.2074C404.857 52.9062 403.608 53.2557 402.134 53.2557C400.821 53.2557 399.666 52.9574 398.669 52.3608C397.672 51.7642 396.892 50.9162 396.33 49.8168C395.776 48.7173 395.494 47.4006 395.486 45.8665V33.3636H400.932V44.8949C400.94 46.054 401.251 46.9702 401.865 47.6435C402.479 48.3168 403.301 48.6534 404.332 48.6534C404.989 48.6534 405.602 48.5043 406.173 48.206C406.744 47.8991 407.205 47.4474 407.554 46.8509C407.912 46.2543 408.087 45.517 408.078 44.6392ZM417.88 60.3636V33.3636H423.25V36.6619H423.493C423.731 36.1335 424.076 35.5966 424.528 35.0511C424.988 34.4972 425.585 34.0369 426.318 33.6705C427.059 33.2955 427.98 33.108 429.079 33.108C430.511 33.108 431.832 33.483 433.042 34.233C434.252 34.9744 435.22 36.0952 435.944 37.5952C436.669 39.0866 437.031 40.9574 437.031 43.2074C437.031 45.3977 436.677 47.2472 435.97 48.7557C435.271 50.2557 434.316 51.3935 433.106 52.169C431.904 52.9361 430.558 53.3196 429.066 53.3196C428.01 53.3196 427.11 53.1449 426.369 52.7955C425.636 52.446 425.035 52.0071 424.566 51.4787C424.098 50.9418 423.74 50.4006 423.493 49.8551H423.326V60.3636H417.88ZM423.211 43.1818C423.211 44.3494 423.373 45.3679 423.697 46.2372C424.021 47.1065 424.49 47.7841 425.103 48.2699C425.717 48.7472 426.463 48.9858 427.341 48.9858C428.227 48.9858 428.977 48.7429 429.591 48.2571C430.204 47.7628 430.669 47.081 430.984 46.2116C431.308 45.3338 431.47 44.3239 431.47 43.1818C431.47 42.0483 431.312 41.0511 430.997 40.1903C430.681 39.3295 430.217 38.6562 429.603 38.1705C428.99 37.6847 428.235 37.4418 427.341 37.4418C426.454 37.4418 425.704 37.6761 425.091 38.1449C424.485 38.6136 424.021 39.2784 423.697 40.1392C423.373 41 423.211 42.0142 423.211 43.1818ZM457 38.9631L452.014 39.2699C451.929 38.8437 451.745 38.4602 451.464 38.1193C451.183 37.7699 450.812 37.4929 450.352 37.2884C449.9 37.0753 449.359 36.9688 448.728 36.9688C447.885 36.9688 447.173 37.1477 446.593 37.5057C446.014 37.8551 445.724 38.3239 445.724 38.9119C445.724 39.3807 445.912 39.777 446.287 40.1009C446.662 40.4247 447.305 40.6847 448.217 40.8807L451.771 41.5966C453.68 41.9886 455.103 42.6193 456.041 43.4886C456.978 44.358 457.447 45.5 457.447 46.9148C457.447 48.2017 457.068 49.331 456.309 50.3026C455.559 51.2741 454.528 52.0327 453.216 52.5781C451.912 53.1151 450.407 53.3835 448.703 53.3835C446.103 53.3835 444.032 52.8423 442.49 51.7599C440.956 50.669 440.056 49.1861 439.792 47.3111L445.149 47.0298C445.311 47.8224 445.703 48.4276 446.325 48.8452C446.947 49.2543 447.744 49.4588 448.716 49.4588C449.67 49.4588 450.437 49.2756 451.017 48.9091C451.605 48.5341 451.903 48.0526 451.912 47.4645C451.903 46.9702 451.694 46.5653 451.285 46.25C450.876 45.9261 450.245 45.679 449.393 45.5085L445.993 44.831C444.075 44.4474 442.647 43.7827 441.71 42.8366C440.781 41.8906 440.316 40.6847 440.316 39.2188C440.316 37.9574 440.657 36.8707 441.339 35.9588C442.029 35.0469 442.997 34.3438 444.241 33.8494C445.494 33.3551 446.96 33.108 448.639 33.108C451.119 33.108 453.071 33.6321 454.494 34.6804C455.926 35.7287 456.761 37.1562 457 38.9631Z" fill="white"/>
<path d="M76.8183 29.6111H17.9191C15.5956 29.6111 13.712 28.1097 13.712 26.2577V19.5509C13.712 17.6989 15.5956 16.1975 17.9191 16.1975H76.8183C79.1417 16.1975 81.0253 17.6989 81.0253 19.5509V26.2577C81.0253 28.1097 79.1417 29.6111 76.8183 29.6111ZM70.5076 20.3893C68.765 20.3893 67.3523 21.5153 67.3523 22.9043C67.3523 24.2934 68.765 25.4194 70.5076 25.4194C72.2503 25.4194 73.6629 24.2934 73.6629 22.9043C73.6629 21.5153 72.2503 20.3893 70.5076 20.3893ZM62.0935 20.3893C60.3508 20.3893 58.9381 21.5153 58.9381 22.9043C58.9381 24.2934 60.3508 25.4194 62.0935 25.4194C63.8361 25.4194 65.2488 24.2934 65.2488 22.9043C65.2488 21.5153 63.8361 20.3893 62.0935 20.3893ZM76.8183 46.3781H17.9191C15.5956 46.3781 13.712 44.8767 13.712 43.0247V36.3179C13.712 34.4659 15.5956 32.9645 17.9191 32.9645H76.8183C79.1417 32.9645 81.0253 34.4659 81.0253 36.3179V43.0247C81.0253 44.8767 79.1417 46.3781 76.8183 46.3781ZM70.5076 37.1563C68.765 37.1563 67.3523 38.2823 67.3523 39.6713C67.3523 41.0603 68.765 42.1864 70.5076 42.1864C72.2503 42.1864 73.6629 41.0603 73.6629 39.6713C73.6629 38.2823 72.2503 37.1563 70.5076 37.1563ZM62.0935 37.1563C60.3508 37.1563 58.9381 38.2823 58.9381 39.6713C58.9381 41.0603 60.3508 42.1864 62.0935 42.1864C63.8361 42.1864 65.2488 41.0603 65.2488 39.6713C65.2488 38.2823 63.8361 37.1563 62.0935 37.1563ZM76.8183 63.1451H17.9191C15.5956 63.1451 13.712 61.6437 13.712 59.7917V53.0849C13.712 51.2329 15.5956 49.7315 17.9191 49.7315H76.8183C79.1417 49.7315 81.0253 51.2329 81.0253 53.0849V59.7917C81.0253 61.6437 79.1417 63.1451 76.8183 63.1451ZM70.5076 53.9232C68.765 53.9232 67.3523 55.0492 67.3523 56.4383C67.3523 57.8273 68.765 58.9533 70.5076 58.9533C72.2503 58.9533 73.6629 57.8273 73.6629 56.4383C73.6629 55.0492 72.2503 53.9232 70.5076 53.9232ZM62.0935 53.9232C60.3508 53.9232 58.9381 55.0492 58.9381 56.4383C58.9381 57.8273 60.3508 58.9533 62.0935 58.9533C63.8361 58.9533 65.2488 57.8273 65.2488 56.4383C65.2488 55.0492 63.8361 53.9232 62.0935 53.9232Z" fill="#FFA800"/>
</svg>
