<svg width="541" height="78" viewBox="0 0 541 78" fill="none" xmlns="http://www.w3.org/2000/svg">
<rect width="541" height="78" fill="black"/>
<path d="M116.13 57H110.198L119.237 30.8182H126.37L135.396 57H129.464L122.906 36.8011H122.701L116.13 57ZM115.759 46.7088H129.771V51.0298H115.759V46.7088ZM151.037 48.6392V37.3636H156.483V57H151.254V53.4332H151.05C150.607 54.5838 149.869 55.5085 148.838 56.2074C147.816 56.9062 146.567 57.2557 145.093 57.2557C143.78 57.2557 142.625 56.9574 141.628 56.3608C140.631 55.7642 139.851 54.9162 139.289 53.8168C138.735 52.7173 138.453 51.4006 138.445 49.8665V37.3636H143.891V48.8949C143.899 50.054 144.21 50.9702 144.824 51.6435C145.438 52.3168 146.26 52.6534 147.291 52.6534C147.948 52.6534 148.561 52.5043 149.132 52.206C149.703 51.8991 150.164 51.4474 150.513 50.8509C150.871 50.2543 151.046 49.517 151.037 48.6392ZM171.284 37.3636V41.4545H159.459V37.3636H171.284ZM162.143 32.6591H167.589V50.9659C167.589 51.4687 167.666 51.8608 167.819 52.142C167.973 52.4148 168.186 52.6065 168.459 52.7173C168.74 52.8281 169.064 52.8835 169.43 52.8835C169.686 52.8835 169.942 52.8622 170.197 52.8196C170.453 52.7685 170.649 52.7301 170.785 52.7045L171.642 56.7571C171.369 56.8423 170.986 56.9403 170.491 57.0511C169.997 57.1705 169.396 57.2429 168.689 57.2685C167.376 57.3196 166.226 57.1449 165.237 56.7443C164.257 56.3437 163.494 55.7216 162.949 54.8778C162.403 54.0341 162.135 52.9687 162.143 51.6818V32.6591ZM183.493 57.3835C181.507 57.3835 179.79 56.9616 178.341 56.1179C176.9 55.2656 175.788 54.081 175.004 52.5639C174.22 51.0384 173.828 49.2699 173.828 47.2585C173.828 45.2301 174.22 43.4574 175.004 41.9403C175.788 40.4148 176.9 39.2301 178.341 38.3864C179.79 37.5341 181.507 37.108 183.493 37.108C185.479 37.108 187.192 37.5341 188.632 38.3864C190.081 39.2301 191.197 40.4148 191.981 41.9403C192.765 43.4574 193.157 45.2301 193.157 47.2585C193.157 49.2699 192.765 51.0384 191.981 52.5639C191.197 54.081 190.081 55.2656 188.632 56.1179C187.192 56.9616 185.479 57.3835 183.493 57.3835ZM183.518 53.1648C184.422 53.1648 185.176 52.9091 185.781 52.3977C186.386 51.8778 186.842 51.1705 187.149 50.2756C187.464 49.3807 187.622 48.3622 187.622 47.2202C187.622 46.0781 187.464 45.0597 187.149 44.1648C186.842 43.2699 186.386 42.5625 185.781 42.0426C185.176 41.5227 184.422 41.2628 183.518 41.2628C182.606 41.2628 181.839 41.5227 181.217 42.0426C180.604 42.5625 180.139 43.2699 179.824 44.1648C179.517 45.0597 179.363 46.0781 179.363 47.2202C179.363 48.3622 179.517 49.3807 179.824 50.2756C180.139 51.1705 180.604 51.8778 181.217 52.3977C181.839 52.9091 182.606 53.1648 183.518 53.1648ZM219.336 38.348C219.234 37.3168 218.795 36.5156 218.019 35.9446C217.244 35.3736 216.191 35.0881 214.862 35.0881C213.958 35.0881 213.195 35.2159 212.573 35.4716C211.951 35.7188 211.474 36.0639 211.142 36.5071C210.818 36.9503 210.656 37.4531 210.656 38.0156C210.639 38.4844 210.737 38.8935 210.95 39.2429C211.171 39.5923 211.474 39.8949 211.857 40.1506C212.241 40.3977 212.684 40.6151 213.187 40.8026C213.69 40.9815 214.227 41.1349 214.798 41.2628L217.15 41.8253C218.292 42.081 219.34 42.4219 220.295 42.848C221.249 43.2741 222.076 43.7983 222.775 44.4205C223.474 45.0426 224.015 45.7756 224.399 46.6193C224.791 47.4631 224.991 48.4304 224.999 49.5213C224.991 51.1236 224.582 52.5128 223.772 53.6889C222.971 54.8565 221.812 55.7642 220.295 56.4119C218.786 57.0511 216.967 57.3707 214.836 57.3707C212.722 57.3707 210.882 57.0469 209.313 56.3991C207.754 55.7514 206.535 54.7926 205.657 53.5227C204.788 52.2443 204.332 50.6634 204.289 48.7798H209.646C209.705 49.6577 209.957 50.3906 210.4 50.9787C210.852 51.5582 211.453 51.9972 212.203 52.2955C212.961 52.5852 213.818 52.7301 214.772 52.7301C215.71 52.7301 216.524 52.5937 217.214 52.321C217.913 52.0483 218.454 51.669 218.838 51.1832C219.221 50.6974 219.413 50.1392 219.413 49.5085C219.413 48.9205 219.238 48.4261 218.889 48.0256C218.548 47.625 218.045 47.2841 217.38 47.0028C216.724 46.7216 215.919 46.4659 214.964 46.2358L212.113 45.5199C209.906 44.983 208.163 44.1435 206.884 43.0014C205.606 41.8594 204.971 40.321 204.98 38.3864C204.971 36.8011 205.393 35.4162 206.245 34.2315C207.106 33.0469 208.286 32.1222 209.786 31.4574C211.286 30.7926 212.991 30.4602 214.9 30.4602C216.843 30.4602 218.539 30.7926 219.988 31.4574C221.445 32.1222 222.579 33.0469 223.389 34.2315C224.198 35.4162 224.616 36.7884 224.642 38.348H219.336ZM237.493 57.3835C235.481 57.3835 233.751 56.9574 232.302 56.1051C230.862 55.2443 229.754 54.0511 228.979 52.5256C228.211 51 227.828 49.2443 227.828 47.2585C227.828 45.2472 228.216 43.483 228.991 41.9659C229.775 40.4403 230.888 39.2514 232.328 38.3991C233.768 37.5384 235.481 37.108 237.467 37.108C239.18 37.108 240.68 37.419 241.967 38.0412C243.254 38.6634 244.273 39.5369 245.023 40.6619C245.773 41.7869 246.186 43.108 246.263 44.625H241.123C240.979 43.6449 240.595 42.8565 239.973 42.2599C239.359 41.6548 238.554 41.3523 237.557 41.3523C236.713 41.3523 235.976 41.5824 235.345 42.0426C234.723 42.4943 234.237 43.1548 233.888 44.0241C233.538 44.8935 233.363 45.946 233.363 47.1818C233.363 48.4347 233.534 49.5 233.875 50.3778C234.224 51.2557 234.714 51.9247 235.345 52.3849C235.976 52.8452 236.713 53.0753 237.557 53.0753C238.179 53.0753 238.737 52.9474 239.231 52.6918C239.734 52.4361 240.148 52.0653 240.471 51.5795C240.804 51.0852 241.021 50.4929 241.123 49.8026H246.263C246.177 51.3026 245.768 52.6236 245.035 53.7656C244.311 54.8991 243.309 55.7855 242.031 56.4247C240.753 57.0639 239.24 57.3835 237.493 57.3835ZM249.749 57V37.3636H255.029V40.7898H255.234C255.592 39.571 256.193 38.6506 257.036 38.0284C257.88 37.3977 258.852 37.0824 259.951 37.0824C260.224 37.0824 260.518 37.0994 260.833 37.1335C261.149 37.1676 261.426 37.2145 261.664 37.2741V42.1065C261.409 42.0298 261.055 41.9616 260.603 41.902C260.151 41.8423 259.738 41.8125 259.363 41.8125C258.562 41.8125 257.846 41.9872 257.215 42.3366C256.593 42.6776 256.099 43.1548 255.732 43.7685C255.374 44.3821 255.195 45.0895 255.195 45.8906V57H249.749ZM264.48 57V37.3636H269.926V57H264.48ZM267.216 34.8324C266.406 34.8324 265.711 34.5639 265.132 34.027C264.561 33.4815 264.275 32.8295 264.275 32.071C264.275 31.321 264.561 30.6776 265.132 30.1406C265.711 29.5952 266.406 29.3224 267.216 29.3224C268.025 29.3224 268.716 29.5952 269.287 30.1406C269.866 30.6776 270.156 31.321 270.156 32.071C270.156 32.8295 269.866 33.4815 269.287 34.027C268.716 34.5639 268.025 34.8324 267.216 34.8324ZM274.289 64.3636V37.3636H279.658V40.6619H279.901C280.139 40.1335 280.485 39.5966 280.936 39.0511C281.396 38.4972 281.993 38.0369 282.726 37.6705C283.468 37.2955 284.388 37.108 285.487 37.108C286.919 37.108 288.24 37.483 289.45 38.233C290.661 38.9744 291.628 40.0952 292.352 41.5952C293.077 43.0866 293.439 44.9574 293.439 47.2074C293.439 49.3977 293.085 51.2472 292.378 52.7557C291.679 54.2557 290.725 55.3935 289.514 56.169C288.313 56.9361 286.966 57.3196 285.475 57.3196C284.418 57.3196 283.519 57.1449 282.777 56.7955C282.044 56.446 281.443 56.0071 280.975 55.4787C280.506 54.9418 280.148 54.4006 279.901 53.8551H279.735V64.3636H274.289ZM279.619 47.1818C279.619 48.3494 279.781 49.3679 280.105 50.2372C280.429 51.1065 280.898 51.7841 281.512 52.2699C282.125 52.7472 282.871 52.9858 283.749 52.9858C284.635 52.9858 285.385 52.7429 285.999 52.2571C286.612 51.7628 287.077 51.081 287.392 50.2116C287.716 49.3338 287.878 48.3239 287.878 47.1818C287.878 46.0483 287.72 45.0511 287.405 44.1903C287.09 43.3295 286.625 42.6562 286.012 42.1705C285.398 41.6847 284.644 41.4418 283.749 41.4418C282.862 41.4418 282.112 41.6761 281.499 42.1449C280.894 42.6136 280.429 43.2784 280.105 44.1392C279.781 45 279.619 46.0142 279.619 47.1818ZM307.514 37.3636V41.4545H295.689V37.3636H307.514ZM298.374 32.6591H303.82V50.9659C303.82 51.4687 303.896 51.8608 304.05 52.142C304.203 52.4148 304.416 52.6065 304.689 52.7173C304.97 52.8281 305.294 52.8835 305.661 52.8835C305.916 52.8835 306.172 52.8622 306.428 52.8196C306.683 52.7685 306.879 52.7301 307.016 52.7045L307.872 56.7571C307.6 56.8423 307.216 56.9403 306.722 57.0511C306.227 57.1705 305.627 57.2429 304.919 57.2685C303.607 57.3196 302.456 57.1449 301.468 56.7443C300.487 56.3437 299.725 55.7216 299.179 54.8778C298.634 54.0341 298.365 52.9687 298.374 51.6818V32.6591ZM325.032 30.8182V57H319.496V30.8182H325.032ZM334.93 45.6477V57H329.484V37.3636H334.674V40.8281H334.904C335.339 39.6861 336.068 38.7827 337.09 38.1179C338.113 37.4446 339.353 37.108 340.811 37.108C342.174 37.108 343.363 37.4062 344.377 38.0028C345.392 38.5994 346.18 39.4517 346.742 40.5597C347.305 41.6591 347.586 42.9716 347.586 44.4972V57H342.14V45.4688C342.149 44.267 341.842 43.3295 341.22 42.6562C340.597 41.9744 339.741 41.6335 338.65 41.6335C337.917 41.6335 337.269 41.7912 336.707 42.1065C336.153 42.4219 335.718 42.8821 335.403 43.4872C335.096 44.0838 334.938 44.804 334.93 45.6477ZM368.216 42.9631L363.231 43.2699C363.145 42.8437 362.962 42.4602 362.681 42.1193C362.4 41.7699 362.029 41.4929 361.569 41.2884C361.117 41.0753 360.576 40.9688 359.945 40.9688C359.101 40.9688 358.39 41.1477 357.81 41.5057C357.231 41.8551 356.941 42.3239 356.941 42.9119C356.941 43.3807 357.128 43.777 357.503 44.1009C357.878 44.4247 358.522 44.6847 359.434 44.8807L362.988 45.5966C364.897 45.9886 366.32 46.6193 367.258 47.4886C368.195 48.358 368.664 49.5 368.664 50.9148C368.664 52.2017 368.285 53.331 367.526 54.3026C366.776 55.2741 365.745 56.0327 364.432 56.5781C363.128 57.1151 361.624 57.3835 359.92 57.3835C357.32 57.3835 355.249 56.8423 353.706 55.7599C352.172 54.669 351.273 53.1861 351.009 51.3111L356.366 51.0298C356.528 51.8224 356.92 52.4276 357.542 52.8452C358.164 53.2543 358.961 53.4588 359.932 53.4588C360.887 53.4588 361.654 53.2756 362.233 52.9091C362.822 52.5341 363.12 52.0526 363.128 51.4645C363.12 50.9702 362.911 50.5653 362.502 50.25C362.093 49.9261 361.462 49.679 360.61 49.5085L357.209 48.831C355.292 48.4474 353.864 47.7827 352.927 46.8366C351.998 45.8906 351.533 44.6847 351.533 43.2188C351.533 41.9574 351.874 40.8707 352.556 39.9588C353.246 39.0469 354.214 38.3438 355.458 37.8494C356.711 37.3551 358.177 37.108 359.856 37.108C362.336 37.108 364.287 37.6321 365.711 38.6804C367.143 39.7287 367.978 41.1562 368.216 42.9631ZM382.538 37.3636V41.4545H370.713V37.3636H382.538ZM373.397 32.6591H378.843V50.9659C378.843 51.4687 378.92 51.8608 379.073 52.142C379.227 52.4148 379.44 52.6065 379.713 52.7173C379.994 52.8281 380.318 52.8835 380.684 52.8835C380.94 52.8835 381.195 52.8622 381.451 52.8196C381.707 52.7685 381.903 52.7301 382.039 52.7045L382.896 56.7571C382.623 56.8423 382.24 56.9403 381.745 57.0511C381.251 57.1705 380.65 57.2429 379.943 57.2685C378.63 57.3196 377.48 57.1449 376.491 56.7443C375.511 56.3437 374.748 55.7216 374.203 54.8778C373.657 54.0341 373.389 52.9687 373.397 51.6818V32.6591ZM391.685 57.3707C390.432 57.3707 389.316 57.1534 388.335 56.7188C387.355 56.2756 386.58 55.6236 386.009 54.7628C385.446 53.8935 385.165 52.8111 385.165 51.5156C385.165 50.4247 385.365 49.5085 385.766 48.767C386.166 48.0256 386.712 47.429 387.402 46.9773C388.093 46.5256 388.877 46.1847 389.754 45.9545C390.641 45.7244 391.57 45.5625 392.541 45.4688C393.683 45.3494 394.604 45.2386 395.303 45.1364C396.002 45.0256 396.509 44.8636 396.824 44.6506C397.139 44.4375 397.297 44.1222 397.297 43.7045V43.6278C397.297 42.8182 397.041 42.1918 396.53 41.7486C396.027 41.3054 395.311 41.0838 394.382 41.0838C393.402 41.0838 392.622 41.3011 392.043 41.7358C391.463 42.1619 391.08 42.6989 390.892 43.3466L385.855 42.9375C386.111 41.7443 386.614 40.7131 387.364 39.8438C388.114 38.9659 389.081 38.2926 390.266 37.8239C391.459 37.3466 392.84 37.108 394.408 37.108C395.499 37.108 396.543 37.2358 397.54 37.4915C398.546 37.7472 399.436 38.1435 400.212 38.6804C400.996 39.2173 401.614 39.9077 402.066 40.7514C402.517 41.5866 402.743 42.5881 402.743 43.7557V57H397.578V54.277H397.425C397.11 54.8906 396.688 55.4318 396.159 55.9006C395.631 56.3608 394.996 56.723 394.254 56.9872C393.513 57.2429 392.656 57.3707 391.685 57.3707ZM393.244 53.6122C394.046 53.6122 394.753 53.4545 395.367 53.1392C395.98 52.8153 396.462 52.3807 396.811 51.8352C397.161 51.2898 397.335 50.6719 397.335 49.9815V47.8977C397.165 48.0085 396.931 48.1108 396.632 48.2045C396.343 48.2898 396.014 48.3707 395.648 48.4474C395.281 48.5156 394.915 48.5795 394.548 48.6392C394.182 48.6903 393.85 48.7372 393.551 48.7798C392.912 48.8736 392.354 49.0227 391.877 49.2273C391.399 49.4318 391.029 49.7088 390.764 50.0582C390.5 50.3991 390.368 50.8253 390.368 51.3366C390.368 52.0781 390.637 52.6449 391.173 53.0369C391.719 53.4205 392.409 53.6122 393.244 53.6122ZM412.414 30.8182V57H406.968V30.8182H412.414ZM422.223 30.8182V57H416.777V30.8182H422.223ZM435.534 57.3835C433.514 57.3835 431.776 56.9744 430.318 56.1562C428.869 55.3295 427.753 54.1619 426.969 52.6534C426.185 51.1364 425.793 49.3423 425.793 47.2713C425.793 45.2514 426.185 43.4787 426.969 41.9531C427.753 40.4276 428.857 39.2386 430.28 38.3864C431.712 37.5341 433.391 37.108 435.317 37.108C436.612 37.108 437.818 37.3168 438.935 37.7344C440.06 38.1435 441.04 38.7614 441.875 39.5881C442.719 40.4148 443.375 41.4545 443.844 42.7074C444.313 43.9517 444.547 45.4091 444.547 47.0795V48.5753H427.966V45.2003H439.421C439.421 44.4162 439.25 43.7216 438.909 43.1165C438.568 42.5114 438.095 42.0384 437.49 41.6974C436.894 41.348 436.199 41.1733 435.406 41.1733C434.58 41.1733 433.847 41.3651 433.208 41.7486C432.577 42.1236 432.083 42.6307 431.725 43.2699C431.367 43.9006 431.183 44.6037 431.175 45.3793V48.5881C431.175 49.5597 431.354 50.3991 431.712 51.1065C432.078 51.8139 432.594 52.3594 433.259 52.7429C433.923 53.1264 434.712 53.3182 435.624 53.3182C436.229 53.3182 436.783 53.233 437.286 53.0625C437.789 52.892 438.219 52.6364 438.577 52.2955C438.935 51.9545 439.208 51.5369 439.395 51.0426L444.432 51.375C444.176 52.5852 443.652 53.642 442.86 54.5455C442.075 55.4403 441.061 56.1392 439.817 56.642C438.581 57.1364 437.154 57.3835 435.534 57.3835ZM448.101 57V37.3636H453.381V40.7898H453.585C453.943 39.571 454.544 38.6506 455.388 38.0284C456.232 37.3977 457.203 37.0824 458.303 37.0824C458.575 37.0824 458.869 37.0994 459.185 37.1335C459.5 37.1676 459.777 37.2145 460.016 37.2741V42.1065C459.76 42.0298 459.406 41.9616 458.955 41.902C458.503 41.8423 458.09 41.8125 457.715 41.8125C456.914 41.8125 456.198 41.9872 455.567 42.3366C454.945 42.6776 454.45 43.1548 454.084 43.7685C453.726 44.3821 453.547 45.0895 453.547 45.8906V57H448.101Z" fill="white"/>
<path d="M56.4061 38.5H32.0985V45.125H56.4061V38.5ZM67.6737 22.8691L55.2793 12.7246C54.7096 12.2588 53.9374 12 53.1271 12H52.3548V25.25H68.5599V24.6186C68.5599 23.9664 68.2434 23.335 67.6737 22.8691ZM48.3036 26.0781V12H22.9832C21.2993 12 19.9447 13.1076 19.9447 14.4844V62.5156C19.9447 63.8924 21.2993 65 22.9832 65H65.5215C67.2053 65 68.5599 63.8924 68.5599 62.5156V28.5625H51.342C49.6709 28.5625 48.3036 27.4445 48.3036 26.0781ZM28.0472 19.4531C28.0472 18.9956 28.5005 18.625 29.0601 18.625H39.1882C39.7478 18.625 40.201 18.9956 40.201 19.4531V21.1094C40.201 21.5669 39.7478 21.9375 39.1882 21.9375H29.0601C28.5005 21.9375 28.0472 21.5669 28.0472 21.1094V19.4531ZM28.0472 26.0781C28.0472 25.6206 28.5005 25.25 29.0601 25.25H39.1882C39.7478 25.25 40.201 25.6206 40.201 26.0781V27.7344C40.201 28.1919 39.7478 28.5625 39.1882 28.5625H29.0601C28.5005 28.5625 28.0472 28.1919 28.0472 27.7344V26.0781ZM60.4574 57.5469C60.4574 58.0044 60.0041 58.375 59.4446 58.375H49.3164C48.7568 58.375 48.3036 58.0044 48.3036 57.5469V55.8906C48.3036 55.4331 48.7568 55.0625 49.3164 55.0625H59.4446C60.0041 55.0625 60.4574 55.4331 60.4574 55.8906V57.5469ZM60.4574 36.8438V46.7812C60.4574 47.6963 59.5509 48.4375 58.4317 48.4375H30.0729C28.9537 48.4375 28.0472 47.6963 28.0472 46.7812V36.8438C28.0472 35.9287 28.9537 35.1875 30.0729 35.1875H58.4317C59.5509 35.1875 60.4574 35.9287 60.4574 36.8438Z" fill="#FFA800"/>
</svg>
