<svg width="1882" height="312" viewBox="0 0 1882 312" fill="none" xmlns="http://www.w3.org/2000/svg">
<g clip-path="url(#clip0_47_89)">
<rect width="1882" height="312" fill="#FFA800"/>
<path d="M1646.22 -68.6024C1646.22 -68.6024 1189.36 -82.679 1227.23 56.6794C1265.1 196.038 1742.92 56.6794 1804.96 196.038C1867 335.396 1526.77 423 1713.71 423C1900.64 423 1910.1 343.982 1978.2 150.993C2046.3 -41.997 1646.22 -68.6024 1646.22 -68.6024Z" fill="black" stroke="#FFA800"/>
<path d="M138.554 -226.299L870 -16.1423C870 -16.1423 1413 -296.9 1520.5 -24.7285C1628 247.443 961 -140.728 964 163.358C967 467.444 801.89 395.031 796.445 211.015C791 26.9997 -208.423 14.3274 72.8803 -24.7278L138.554 -226.299Z" fill="black"/>
<path d="M93.0539 141.268C95.9678 162.002 105.981 181.084 121.387 195.263C136.793 209.442 156.638 217.841 177.542 219.028C198.446 220.215 219.115 214.117 236.027 201.773C252.939 189.43 265.048 171.604 270.291 151.333C275.533 131.062 273.585 109.601 264.778 90.6057C255.97 71.6104 240.849 56.2566 221.991 47.1602C203.132 38.0639 181.703 35.7878 161.355 40.7199C141.006 45.6521 122.998 57.4871 110.397 74.2086L143.553 99.194C150.374 90.1434 160.121 83.7376 171.135 81.0681C182.148 78.3986 193.747 79.6305 203.954 84.5539C214.161 89.4774 222.346 97.7877 227.113 108.069C231.879 118.35 232.934 129.966 230.096 140.938C227.259 151.91 220.705 161.558 211.551 168.239C202.398 174.92 191.21 178.22 179.896 177.578C168.582 176.935 157.84 172.39 149.502 164.715C141.163 157.041 135.744 146.713 134.166 135.49L93.0539 141.268Z" fill="#C98500"/>
<ellipse cx="347.5" cy="163" rx="102.5" ry="99" fill="#C98500"/>
<ellipse cx="547.5" cy="271" rx="164.5" ry="142" fill="#C98500"/>
<path d="M1280.62 76.7266C1279.12 77.1172 1277.14 77.3125 1274.68 77.3125C1272.24 77.3125 1270.13 77.0065 1268.38 76.3945C1266.63 75.7826 1265.13 74.8776 1263.86 73.6797C1261.15 71.1536 1259.8 67.638 1259.8 63.1328C1259.8 60.1901 1260.5 57.651 1261.91 55.5156C1263.81 52.612 1266.73 50.763 1270.68 49.9688C1271.89 49.7344 1273.38 49.6172 1275.13 49.6172C1276.89 49.6172 1278.41 49.7018 1279.68 49.8711V53.6211C1278.56 53.3346 1276.96 53.1914 1274.88 53.1914C1272.81 53.1914 1271.11 53.4258 1269.78 53.8945C1268.45 54.3633 1267.35 55.0339 1266.48 55.9062C1264.74 57.612 1263.86 60.0208 1263.86 63.1328C1263.86 66.2969 1264.72 68.8294 1266.44 70.7305C1268.32 72.8008 1270.99 73.8359 1274.47 73.8359C1275.28 73.8359 1276.02 73.8034 1276.71 73.7383V63.7188H1280.62V76.7266ZM1296.34 77.3125C1288.97 77.3125 1285.29 73.7122 1285.29 66.5117C1285.29 63.4128 1286.31 60.9323 1288.36 59.0703C1290.19 57.3776 1292.29 56.5312 1294.64 56.5312C1297.21 56.5312 1299.21 57.3906 1300.66 59.1094C1302 60.7109 1302.67 62.8529 1302.67 65.5352V67.0586H1289.35C1289.35 70.7435 1290.86 72.9961 1293.86 73.8164C1294.58 74.0117 1295.68 74.1094 1297.16 74.1094C1298.66 74.1094 1300.13 73.9076 1301.56 73.5039V76.8047C1300.13 77.1432 1298.39 77.3125 1296.34 77.3125ZM1298.77 64.1875C1298.77 62.9375 1298.42 61.8828 1297.73 61.0234C1296.92 60.0339 1295.81 59.5391 1294.39 59.5391C1292.89 59.5391 1291.68 60.0143 1290.74 60.9648C1289.88 61.8503 1289.45 62.9245 1289.45 64.1875H1298.77ZM1314.21 73.9141C1314.64 74.0703 1315.3 74.1484 1316.17 74.1484C1317.04 74.1484 1317.77 74.0443 1318.36 73.8359V76.9609C1318.08 77.026 1317.68 77.0651 1317.16 77.0781L1315.93 77.1172C1315.66 77.1172 1315.45 77.1172 1315.31 77.1172C1312.8 77.1172 1310.94 76.2969 1309.74 74.6562C1308.78 73.3281 1308.3 71.5703 1308.3 69.3828V59.832H1305.41V57.9961L1308.3 56.8438L1309.23 51.8438H1312.2V56.8438H1318.45V59.832H1312.2V69.3633C1312.2 71.9154 1312.87 73.4323 1314.21 73.9141ZM1344.21 73.9141C1344.64 74.0703 1345.3 74.1484 1346.17 74.1484C1347.04 74.1484 1347.77 74.0443 1348.36 73.8359V76.9609C1348.08 77.026 1347.68 77.0651 1347.16 77.0781L1345.93 77.1172C1345.66 77.1172 1345.45 77.1172 1345.31 77.1172C1342.8 77.1172 1340.94 76.2969 1339.74 74.6562C1338.78 73.3281 1338.3 71.5703 1338.3 69.3828V59.832H1335.41V57.9961L1338.3 56.8438L1339.23 51.8438H1342.2V56.8438H1348.45V59.832H1342.2V69.3633C1342.2 71.9154 1342.87 73.4323 1344.21 73.9141ZM1362.71 59.8906C1360.78 59.8906 1359.07 60.5482 1357.55 61.8633V77H1353.65V47.9375H1357.55V59.0117C1359.66 57.3581 1361.85 56.5312 1364.1 56.5312C1366.51 56.5312 1368.27 57.2474 1369.39 58.6797C1370.56 60.1901 1371.15 62.625 1371.15 65.9844V77H1367.24V65.9844C1367.24 62.7552 1366.36 60.8281 1364.61 60.2031C1364.05 59.9948 1363.41 59.8906 1362.71 59.8906ZM1386.38 77.3125C1379.01 77.3125 1375.33 73.7122 1375.33 66.5117C1375.33 63.4128 1376.35 60.9323 1378.39 59.0703C1380.23 57.3776 1382.33 56.5312 1384.68 56.5312C1387.25 56.5312 1389.25 57.3906 1390.7 59.1094C1392.04 60.7109 1392.71 62.8529 1392.71 65.5352V67.0586H1379.39C1379.39 70.7435 1380.89 72.9961 1383.9 73.8164C1384.62 74.0117 1385.72 74.1094 1387.2 74.1094C1388.7 74.1094 1390.17 73.9076 1391.6 73.5039V76.8047C1390.17 77.1432 1388.43 77.3125 1386.38 77.3125ZM1388.8 64.1875C1388.8 62.9375 1388.46 61.8828 1387.77 61.0234C1386.96 60.0339 1385.85 59.5391 1384.43 59.5391C1382.93 59.5391 1381.71 60.0143 1380.78 60.9648C1379.92 61.8503 1379.49 62.9245 1379.49 64.1875H1388.8ZM1410.62 49.8125H1417.48C1421.97 49.8125 1424.87 51.1081 1426.17 53.6992C1426.65 54.6758 1426.89 55.6458 1426.89 56.6094C1426.89 57.5729 1426.79 58.3411 1426.58 58.9141C1426.38 59.474 1426.12 59.9883 1425.78 60.457C1425.14 61.3424 1424.29 62.0977 1423.24 62.7227V62.8008C1425.19 63.3607 1426.63 64.3438 1427.55 65.75C1428.26 66.8177 1428.61 68.0026 1428.61 69.3047C1428.61 70.6068 1428.35 71.7331 1427.83 72.6836C1427.32 73.6341 1426.61 74.4284 1425.7 75.0664C1423.84 76.3555 1421.35 77 1418.24 77H1410.62V49.8125ZM1418.22 61.668C1420.32 61.668 1421.73 60.8411 1422.46 59.1875C1422.7 58.6016 1422.83 57.9505 1422.83 57.2344C1422.83 56.5052 1422.74 55.8802 1422.55 55.3594C1422.37 54.8255 1422.08 54.3698 1421.68 53.9922C1420.82 53.1849 1419.52 52.7812 1417.79 52.7812H1414.53V61.668H1418.22ZM1424.55 69.3828C1424.55 66.2188 1422.65 64.6367 1418.84 64.6367H1414.53V74.0312H1418.24C1421.1 74.0312 1423.04 73.1654 1424.04 71.4336C1424.38 70.8477 1424.55 70.1641 1424.55 69.3828ZM1443.1 77.3125C1435.73 77.3125 1432.05 73.7122 1432.05 66.5117C1432.05 63.4128 1433.07 60.9323 1435.11 59.0703C1436.95 57.3776 1439.05 56.5312 1441.4 56.5312C1443.97 56.5312 1445.97 57.3906 1447.42 59.1094C1448.76 60.7109 1449.43 62.8529 1449.43 65.5352V67.0586H1436.11C1436.11 70.7435 1437.61 72.9961 1440.62 73.8164C1441.34 74.0117 1442.44 74.1094 1443.92 74.1094C1445.42 74.1094 1446.88 73.9076 1448.32 73.5039V76.8047C1446.88 77.1432 1445.15 77.3125 1443.1 77.3125ZM1445.52 64.1875C1445.52 62.9375 1445.18 61.8828 1444.49 61.0234C1443.68 60.0339 1442.57 59.5391 1441.15 59.5391C1439.65 59.5391 1438.43 60.0143 1437.5 60.9648C1436.64 61.8503 1436.21 62.9245 1436.21 64.1875H1445.52ZM1458.67 77.3125C1457.04 77.3125 1455.39 77.1953 1453.73 76.9609V73.5039C1455.42 73.9076 1457.14 74.1094 1458.88 74.1094C1462.37 74.1094 1464.12 73.3737 1464.12 71.9023C1464.12 71.3424 1463.98 70.9258 1463.71 70.6523C1463.3 70.2227 1462.67 69.793 1461.79 69.3633L1458.94 68.0547C1457.09 67.1302 1455.89 66.388 1455.35 65.8281C1454.32 64.7865 1453.8 63.5495 1453.8 62.1172C1453.8 60.5026 1454.55 59.1875 1456.05 58.1719C1457.67 57.0781 1459.93 56.5312 1462.85 56.5312C1464.32 56.5312 1465.8 56.6354 1467.3 56.8438V60.1836C1465.66 59.8841 1464.23 59.7344 1463 59.7344C1461.79 59.7344 1460.85 59.8125 1460.17 59.9688C1459.51 60.125 1459.01 60.3203 1458.67 60.5547C1458.13 60.9193 1457.87 61.3945 1457.87 61.9805C1457.87 62.5534 1458.05 63.0221 1458.41 63.3867C1458.79 63.7383 1459.38 64.1224 1460.17 64.5391L1463.04 65.9258C1464.92 66.9023 1466.12 67.651 1466.66 68.1719C1467.67 69.1615 1468.18 70.4049 1468.18 71.9023C1468.18 73.5039 1467.37 74.793 1465.76 75.7695C1464.07 76.7982 1461.7 77.3125 1458.67 77.3125ZM1480.97 73.9141C1481.4 74.0703 1482.05 74.1484 1482.93 74.1484C1483.8 74.1484 1484.53 74.0443 1485.11 73.8359V76.9609C1484.84 77.026 1484.44 77.0651 1483.92 77.0781L1482.69 77.1172C1482.42 77.1172 1482.21 77.1172 1482.07 77.1172C1479.55 77.1172 1477.7 76.2969 1476.5 74.6562C1475.54 73.3281 1475.05 71.5703 1475.05 69.3828V59.832H1472.16V57.9961L1475.05 56.8438L1475.99 51.8438H1478.96V56.8438H1485.21V59.832H1478.96V69.3633C1478.96 71.9154 1479.63 73.4323 1480.97 73.9141ZM1519.2 75.1055C1518.27 75.7565 1517.09 76.2708 1515.64 76.6484C1514.2 77.013 1512.42 77.1953 1510.33 77.1953C1508.24 77.1953 1506.14 77.0716 1504.02 76.8242V73.0352C1505.92 73.4648 1507.83 73.6797 1509.76 73.6797C1511.69 73.6797 1513.13 73.5755 1514.1 73.3672C1515.06 73.1458 1515.84 72.8594 1516.42 72.5078C1517.5 71.8568 1518.04 71.0104 1518.04 69.9688C1518.04 69.1615 1517.83 68.5365 1517.42 68.0938C1516.75 67.4036 1515.8 66.7721 1514.55 66.1992L1509.55 63.9141C1507.83 63.1068 1506.61 62.3581 1505.89 61.668C1504.36 60.1836 1503.59 58.4648 1503.59 56.5117C1503.59 54.5065 1504.46 52.8854 1506.21 51.6484C1508.12 50.2943 1510.84 49.6172 1514.37 49.6172C1516.65 49.6172 1518.73 49.7083 1520.62 49.8906V53.6211C1519.02 53.2565 1517.23 53.0742 1515.25 53.0742C1513.28 53.0742 1511.85 53.1784 1510.95 53.3867C1510.07 53.582 1509.37 53.8359 1508.86 54.1484C1507.94 54.7214 1507.48 55.4766 1507.48 56.4141C1507.48 57.3255 1507.77 58.0807 1508.36 58.6797C1508.88 59.1875 1509.83 59.7734 1511.21 60.4375L1516.34 62.8789C1518.05 63.6862 1519.24 64.4479 1519.92 65.1641C1520.61 65.8802 1521.12 66.6029 1521.44 67.332C1521.77 68.0482 1521.93 68.9141 1521.93 69.9297C1521.93 70.9323 1521.71 71.8828 1521.27 72.7812C1520.82 73.6667 1520.13 74.4414 1519.2 75.1055ZM1536.5 77.3125C1529.13 77.3125 1525.45 73.7122 1525.45 66.5117C1525.45 63.4128 1526.47 60.9323 1528.51 59.0703C1530.35 57.3776 1532.44 56.5312 1534.8 56.5312C1537.37 56.5312 1539.37 57.3906 1540.82 59.1094C1542.16 60.7109 1542.83 62.8529 1542.83 65.5352V67.0586H1529.51C1529.51 70.7435 1531.01 72.9961 1534.02 73.8164C1534.74 74.0117 1535.84 74.1094 1537.32 74.1094C1538.82 74.1094 1540.28 73.9076 1541.71 73.5039V76.8047C1540.28 77.1432 1538.54 77.3125 1536.5 77.3125ZM1538.92 64.1875C1538.92 62.9375 1538.58 61.8828 1537.89 61.0234C1537.08 60.0339 1535.97 59.5391 1534.55 59.5391C1533.05 59.5391 1531.83 60.0143 1530.89 60.9648C1530.04 61.8503 1529.61 62.9245 1529.61 64.1875H1538.92ZM1559.94 60.418C1559.22 60.2096 1558.36 60.1055 1557.36 60.1055C1556.37 60.1055 1555.56 60.2096 1554.92 60.418C1554.28 60.6133 1553.72 60.8542 1553.24 61.1406C1552.35 61.6615 1551.71 62.2474 1551.3 62.8984V77H1547.4V56.8438H1551.15L1551.3 59.6367C1552.28 58.4128 1553.71 57.4948 1555.58 56.8828C1556.26 56.6484 1557.03 56.5312 1557.91 56.5312C1558.78 56.5312 1559.46 56.5964 1559.94 56.7266V60.418ZM1561.05 56.8438H1565.25L1570.74 73.1914L1576.25 56.8438H1580.43L1572.71 77H1568.79L1561.05 56.8438ZM1588.32 50.9844C1588.32 51.7266 1588.07 52.2995 1587.57 52.7031C1587.09 53.0938 1586.49 53.2891 1585.76 53.2891C1585.03 53.2891 1584.42 53.0938 1583.94 52.7031C1583.47 52.2995 1583.24 51.7266 1583.24 50.9844C1583.24 50.2292 1583.47 49.6562 1583.94 49.2656C1584.42 48.875 1585.03 48.6797 1585.76 48.6797C1586.49 48.6797 1587.09 48.875 1587.57 49.2656C1588.07 49.6562 1588.32 50.2292 1588.32 50.9844ZM1583.75 56.8438H1587.65V77H1583.75V56.8438ZM1608.28 76.9414C1607.5 77.1888 1606.14 77.3125 1604.21 77.3125C1602.29 77.3125 1600.65 77.0781 1599.29 76.6094C1597.95 76.1406 1596.81 75.4505 1595.86 74.5391C1593.89 72.651 1592.91 70.0339 1592.91 66.6875C1592.91 63.4453 1594.08 60.8932 1596.44 59.0312C1598.55 57.3646 1601.14 56.5312 1604.21 56.5312C1606.12 56.5312 1607.42 56.5964 1608.12 56.7266V60.2031C1607.03 59.8516 1605.78 59.6758 1604.37 59.6758C1602.98 59.6758 1601.82 59.8711 1600.89 60.2617C1599.97 60.6393 1599.21 61.1536 1598.63 61.8047C1597.52 63.0417 1596.97 64.6693 1596.97 66.6875C1596.97 70.099 1598.2 72.3711 1600.66 73.5039C1601.53 73.9076 1602.39 74.1094 1603.22 74.1094C1604.05 74.1094 1604.69 74.0898 1605.13 74.0508C1605.59 74.0117 1606.02 73.9596 1606.42 73.8945C1607.28 73.7513 1607.9 73.6016 1608.28 73.4453V76.9414ZM1623.18 77.3125C1615.81 77.3125 1612.12 73.7122 1612.12 66.5117C1612.12 63.4128 1613.15 60.9323 1615.19 59.0703C1617.03 57.3776 1619.12 56.5312 1621.48 56.5312C1624.05 56.5312 1626.05 57.3906 1627.5 59.1094C1628.84 60.7109 1629.51 62.8529 1629.51 65.5352V67.0586H1616.19C1616.19 70.7435 1617.69 72.9961 1620.7 73.8164C1621.42 74.0117 1622.52 74.1094 1624 74.1094C1625.5 74.1094 1626.96 73.9076 1628.39 73.5039V76.8047C1626.96 77.1432 1625.22 77.3125 1623.18 77.3125ZM1625.6 64.1875C1625.6 62.9375 1625.26 61.8828 1624.57 61.0234C1623.76 60.0339 1622.65 59.5391 1621.23 59.5391C1619.73 59.5391 1618.51 60.0143 1617.57 60.9648C1616.71 61.8503 1616.29 62.9245 1616.29 64.1875H1625.6Z" fill="#C98500"/>
</g>
<defs>
<clipPath id="clip0_47_89">
<rect width="1882" height="312" fill="white"/>
</clipPath>
</defs>
</svg>
