<svg width="682" height="162" viewBox="0 0 682 162" fill="none" xmlns="http://www.w3.org/2000/svg">
<rect width="682" height="162" fill="white"/>
<path d="M148.488 67H138.696V34.648H148.296C153.064 34.648 156.968 36.136 160.008 39.112C163.08 42.056 164.616 45.88 164.616 50.584C164.616 55.256 163.192 59.16 160.344 62.296C157.528 65.432 153.576 67 148.488 67ZM148.248 38.104H142.632V63.592H148.44C152.44 63.592 155.464 62.36 157.512 59.896C159.56 57.4 160.584 54.296 160.584 50.584C160.584 47.064 159.432 44.104 157.128 41.704C154.856 39.304 151.896 38.104 148.248 38.104ZM191.646 54.904C191.646 58.52 190.622 61.512 188.574 63.88C186.526 66.248 183.71 67.432 180.126 67.432C176.638 67.432 173.87 66.264 171.822 63.928C169.806 61.56 168.798 58.584 168.798 55C168.798 51.384 169.838 48.376 171.918 45.976C174.03 43.544 176.766 42.328 180.126 42.328C183.806 42.328 186.638 43.512 188.622 45.88C190.638 48.248 191.646 51.256 191.646 54.904ZM172.734 54.952C172.734 57.48 173.406 59.64 174.75 61.432C176.094 63.192 177.886 64.072 180.126 64.072C182.558 64.072 184.43 63.208 185.742 61.48C187.054 59.72 187.71 57.544 187.71 54.952C187.71 52.264 187.086 50.056 185.838 48.328C184.59 46.568 182.686 45.688 180.126 45.688C177.822 45.688 176.014 46.584 174.702 48.376C173.39 50.168 172.734 52.36 172.734 54.952ZM229.736 67H225.944V51.256C225.944 47.576 224.392 45.736 221.288 45.736C219.752 45.736 218.376 46.44 217.16 47.848C215.944 49.224 215.336 51.176 215.336 53.704V67H211.544V51.256C211.544 47.576 209.992 45.736 206.888 45.736C205.352 45.736 203.976 46.44 202.76 47.848C201.544 49.224 200.936 51.176 200.936 53.704V67H197.192V42.664H200.936V46.6C202.28 43.752 204.568 42.328 207.799 42.328C211.544 42.328 213.912 43.912 214.904 47.08C215.608 45.544 216.584 44.376 217.832 43.576C219.112 42.744 220.536 42.328 222.104 42.328C224.632 42.328 226.536 43.048 227.816 44.488C229.096 45.928 229.736 47.864 229.736 50.296V67ZM243.913 64.072C245.641 64.072 247.017 63.592 248.041 62.632C249.065 61.64 249.577 60.392 249.577 58.888V55.768H245.353C243.305 55.768 241.769 56.168 240.745 56.968C239.721 57.768 239.209 58.776 239.209 59.992C239.209 61.208 239.609 62.2 240.409 62.968C241.209 63.704 242.377 64.072 243.913 64.072ZM249.625 64.12C248.377 66.2 246.105 67.24 242.809 67.24C240.537 67.24 238.697 66.568 237.289 65.224C235.913 63.88 235.225 62.184 235.225 60.136C235.225 57.8 236.105 55.992 237.865 54.712C239.657 53.4 242.089 52.744 245.161 52.744H249.577V51.496C249.577 49.576 249.145 48.136 248.281 47.176C247.417 46.184 245.961 45.688 243.913 45.688C241.321 45.688 239.017 46.376 237.001 47.752V43.96C238.825 42.84 241.225 42.28 244.201 42.28C250.313 42.28 253.369 45.384 253.369 51.592V67H249.625V64.12ZM264.082 67H260.29V42.664H264.082V67ZM263.938 33.256C264.418 33.736 264.658 34.328 264.658 35.032C264.658 35.736 264.418 36.328 263.938 36.808C263.458 37.256 262.866 37.48 262.162 37.48C261.458 37.48 260.866 37.256 260.386 36.808C259.938 36.328 259.714 35.736 259.714 35.032C259.714 34.328 259.938 33.736 260.386 33.256C260.866 32.776 261.458 32.536 262.162 32.536C262.866 32.536 263.458 32.776 263.938 33.256ZM290.501 67H286.709V51.256C286.709 49.464 286.245 48.104 285.317 47.176C284.421 46.216 283.237 45.736 281.765 45.736C279.941 45.736 278.357 46.44 277.013 47.848C275.701 49.256 275.045 51.208 275.045 53.704V67H271.301V42.664H275.045V46.888C276.485 43.848 279.045 42.328 282.725 42.328C285.093 42.328 286.981 43.048 288.389 44.488C289.797 45.928 290.501 47.848 290.501 50.248V67ZM313.022 67H309.134V34.648H314.03L322.142 48.28L330.35 62.296C330.222 59.192 330.158 54.536 330.158 48.328V34.648H334.046V67H329.15L321.038 53.464C319.406 50.744 317.902 48.216 316.526 45.88C315.15 43.512 314.174 41.816 313.598 40.792L312.782 39.304C312.942 42.632 313.022 47.32 313.022 53.368V67ZM348.678 64.072C350.406 64.072 351.782 63.592 352.806 62.632C353.83 61.64 354.342 60.392 354.342 58.888V55.768H350.118C348.07 55.768 346.534 56.168 345.51 56.968C344.486 57.768 343.974 58.776 343.974 59.992C343.974 61.208 344.374 62.2 345.174 62.968C345.974 63.704 347.142 64.072 348.678 64.072ZM354.39 64.12C353.142 66.2 350.87 67.24 347.574 67.24C345.302 67.24 343.462 66.568 342.054 65.224C340.678 63.88 339.99 62.184 339.99 60.136C339.99 57.8 340.87 55.992 342.63 54.712C344.422 53.4 346.854 52.744 349.926 52.744H354.342V51.496C354.342 49.576 353.91 48.136 353.046 47.176C352.182 46.184 350.726 45.688 348.678 45.688C346.086 45.688 343.782 46.376 341.766 47.752V43.96C343.59 42.84 345.99 42.28 348.966 42.28C355.078 42.28 358.134 45.384 358.134 51.592V67H354.39V64.12ZM397.407 67H393.615V51.256C393.615 47.576 392.063 45.736 388.959 45.736C387.423 45.736 386.047 46.44 384.831 47.848C383.615 49.224 383.007 51.176 383.007 53.704V67H379.215V51.256C379.215 47.576 377.663 45.736 374.559 45.736C373.023 45.736 371.647 46.44 370.431 47.848C369.215 49.224 368.607 51.176 368.607 53.704V67H364.863V42.664H368.607V46.6C369.951 43.752 372.239 42.328 375.471 42.328C379.215 42.328 381.583 43.912 382.575 47.08C383.279 45.544 384.255 44.376 385.503 43.576C386.783 42.744 388.207 42.328 389.775 42.328C392.303 42.328 394.207 43.048 395.487 44.488C396.767 45.928 397.407 47.864 397.407 50.296V67ZM421.905 65.752C420.017 66.744 417.713 67.24 414.993 67.24C411.313 67.24 408.337 66.12 406.065 63.88C403.825 61.608 402.705 58.616 402.705 54.904C402.705 51.032 403.713 47.976 405.729 45.736C407.745 43.496 410.337 42.376 413.505 42.376C416.545 42.376 418.961 43.352 420.753 45.304C422.545 47.256 423.441 50.024 423.441 53.608C423.441 54.632 423.361 55.576 423.201 56.44H406.593C406.881 58.84 407.793 60.68 409.329 61.96C410.865 63.24 412.881 63.88 415.377 63.88C418.097 63.88 420.273 63.32 421.905 62.2V65.752ZM413.505 45.688C411.681 45.688 410.129 46.344 408.849 47.656C407.569 48.968 406.817 50.84 406.593 53.272H419.649V52.312C419.649 50.296 419.105 48.696 418.017 47.512C416.929 46.296 415.425 45.688 413.505 45.688ZM459.854 58.408C459.854 61.256 458.878 63.464 456.926 65.032C454.974 66.568 452.462 67.336 449.39 67.336C445.998 67.336 443.118 66.648 440.75 65.272V61.096C443.086 62.856 445.934 63.736 449.294 63.736C451.31 63.736 452.894 63.288 454.046 62.392C455.198 61.496 455.774 60.2 455.774 58.504C455.774 57.8 455.63 57.176 455.342 56.632C455.086 56.056 454.638 55.544 453.998 55.096C453.39 54.616 452.798 54.232 452.222 53.944C451.678 53.624 450.926 53.24 449.966 52.792C449.774 52.696 449.486 52.568 449.102 52.408C447.726 51.8 446.67 51.304 445.934 50.92C445.23 50.536 444.382 49.976 443.39 49.24C442.43 48.472 441.726 47.592 441.278 46.6C440.83 45.608 440.605 44.456 440.605 43.144C440.605 40.392 441.582 38.248 443.534 36.712C445.518 35.144 447.998 34.36 450.974 34.36C453.758 34.36 456.126 34.856 458.078 35.848V39.928C456.126 38.648 453.79 38.008 451.07 38.008C449.118 38.008 447.566 38.472 446.414 39.4C445.262 40.296 444.686 41.48 444.686 42.952C444.686 43.72 444.83 44.408 445.118 45.016C445.438 45.624 445.982 46.2 446.75 46.744C447.518 47.256 448.174 47.656 448.718 47.944C449.262 48.2 450.11 48.584 451.262 49.096C452.35 49.576 453.182 49.96 453.758 50.248C454.334 50.504 455.07 50.936 455.966 51.544C456.894 52.12 457.582 52.696 458.03 53.272C458.51 53.816 458.926 54.552 459.278 55.48C459.662 56.376 459.854 57.352 459.854 58.408ZM483.873 65.752C481.985 66.744 479.681 67.24 476.961 67.24C473.281 67.24 470.305 66.12 468.033 63.88C465.793 61.608 464.673 58.616 464.673 54.904C464.673 51.032 465.681 47.976 467.697 45.736C469.713 43.496 472.305 42.376 475.473 42.376C478.513 42.376 480.929 43.352 482.721 45.304C484.513 47.256 485.409 50.024 485.409 53.608C485.409 54.632 485.329 55.576 485.169 56.44H468.561C468.849 58.84 469.761 60.68 471.297 61.96C472.833 63.24 474.849 63.88 477.345 63.88C480.065 63.88 482.241 63.32 483.873 62.2V65.752ZM475.473 45.688C473.649 45.688 472.097 46.344 470.817 47.656C469.537 48.968 468.785 50.84 468.561 53.272H481.617V52.312C481.617 50.296 481.073 48.696 479.985 47.512C478.897 46.296 477.393 45.688 475.473 45.688ZM498.632 64.072C500.36 64.072 501.736 63.592 502.76 62.632C503.784 61.64 504.296 60.392 504.296 58.888V55.768H500.072C498.024 55.768 496.488 56.168 495.464 56.968C494.44 57.768 493.928 58.776 493.928 59.992C493.928 61.208 494.328 62.2 495.128 62.968C495.928 63.704 497.096 64.072 498.632 64.072ZM504.344 64.12C503.096 66.2 500.824 67.24 497.528 67.24C495.256 67.24 493.416 66.568 492.008 65.224C490.632 63.88 489.944 62.184 489.944 60.136C489.944 57.8 490.824 55.992 492.584 54.712C494.376 53.4 496.808 52.744 499.88 52.744H504.296V51.496C504.296 49.576 503.864 48.136 503 47.176C502.136 46.184 500.68 45.688 498.632 45.688C496.04 45.688 493.736 46.376 491.72 47.752V43.96C493.544 42.84 495.944 42.28 498.92 42.28C505.032 42.28 508.088 45.384 508.088 51.592V67H504.344V64.12ZM518.561 67H514.769L514.817 42.664H518.561V46.936C519.841 43.928 522.049 42.424 525.185 42.424C525.761 42.424 526.209 42.456 526.529 42.52V46.264C525.857 46.04 525.169 45.928 524.465 45.928C522.769 45.928 521.361 46.712 520.241 48.28C519.121 49.848 518.561 51.656 518.561 53.704V67ZM547.225 66.136C545.689 67.064 543.801 67.528 541.561 67.528C537.721 67.528 534.665 66.312 532.393 63.88C530.153 61.416 529.033 58.424 529.033 54.904C529.033 51.448 530.153 48.472 532.393 45.976C534.665 43.48 537.753 42.232 541.657 42.232C543.737 42.232 545.593 42.68 547.225 43.576V47.176C545.753 46.184 544.025 45.688 542.041 45.688C539.289 45.688 537.081 46.584 535.417 48.376C533.785 50.136 532.969 52.328 532.969 54.952C533.001 57.576 533.801 59.768 535.369 61.528C536.937 63.256 539.161 64.12 542.041 64.12C543.897 64.12 545.625 63.592 547.225 62.536V66.136ZM572.267 67H568.475V51.256C568.475 49.496 568.011 48.136 567.083 47.176C566.187 46.216 565.003 45.736 563.531 45.736C561.739 45.736 560.171 46.424 558.827 47.8C557.483 49.176 556.811 51.144 556.811 53.704V67H553.067V33.064H556.811V46.888C558.251 43.848 560.811 42.328 564.491 42.328C566.827 42.328 568.699 43.048 570.107 44.488C571.547 45.928 572.267 47.88 572.267 50.344V67Z" fill="black"/>
<path d="M143.24 103.14H138.16V109H136.54V95.52H143.94V96.94H138.16V101.72H143.24V103.14ZM147.905 109H146.325V98.86H147.905V109ZM147.845 94.94C148.045 95.14 148.145 95.3867 148.145 95.68C148.145 95.9733 148.045 96.22 147.845 96.42C147.645 96.6067 147.398 96.7 147.105 96.7C146.812 96.7 146.565 96.6067 146.365 96.42C146.178 96.22 146.085 95.9733 146.085 95.68C146.085 95.3867 146.178 95.14 146.365 94.94C146.565 94.74 146.812 94.64 147.105 94.64C147.398 94.64 147.645 94.74 147.845 94.94ZM158.913 109H157.333V102.44C157.333 101.693 157.14 101.127 156.753 100.74C156.38 100.34 155.886 100.14 155.273 100.14C154.513 100.14 153.853 100.433 153.293 101.02C152.746 101.607 152.473 102.42 152.473 103.46V109H150.913V98.86H152.473V100.62C153.073 99.3533 154.14 98.72 155.673 98.72C156.66 98.72 157.446 99.02 158.033 99.62C158.62 100.22 158.913 101.02 158.913 102.02V109ZM162.754 104.04C162.754 105.133 163.021 106.02 163.554 106.7C164.087 107.38 164.761 107.72 165.574 107.72C166.401 107.72 167.101 107.413 167.674 106.8C168.261 106.187 168.554 105.207 168.554 103.86C168.554 102.58 168.254 101.64 167.654 101.04C167.054 100.44 166.394 100.14 165.674 100.14C164.834 100.14 164.134 100.48 163.574 101.16C163.027 101.827 162.754 102.787 162.754 104.04ZM170.134 109H168.554V107.5C167.834 108.607 166.794 109.16 165.434 109.16C164.087 109.16 163.027 108.66 162.254 107.66C161.494 106.66 161.114 105.447 161.114 104.02C161.114 102.433 161.521 101.153 162.334 100.18C163.147 99.1933 164.194 98.7 165.474 98.7C166.794 98.7 167.821 99.2667 168.554 100.4V94.86H170.134V109ZM183.024 108.74C182.584 108.98 182.091 109.1 181.544 109.1C179.544 109.1 178.544 108.08 178.544 106.04V100.14H176.924V98.86H178.544V96.34H180.124V98.86H182.924V100.14H180.124V106.08C180.124 107.16 180.631 107.7 181.644 107.7C182.164 107.7 182.624 107.547 183.024 107.24V108.74ZM193.327 109H191.747V102.44C191.747 101.707 191.554 101.14 191.167 100.74C190.794 100.34 190.301 100.14 189.687 100.14C188.941 100.14 188.287 100.427 187.727 101C187.167 101.573 186.887 102.393 186.887 103.46V109H185.327V94.86H186.887V100.62C187.487 99.3533 188.554 98.72 190.087 98.72C191.061 98.72 191.841 99.02 192.427 99.62C193.027 100.22 193.327 101.033 193.327 102.06V109ZM203.528 108.48C202.741 108.893 201.781 109.1 200.648 109.1C199.115 109.1 197.875 108.633 196.928 107.7C195.995 106.753 195.528 105.507 195.528 103.96C195.528 102.347 195.948 101.073 196.788 100.14C197.628 99.2067 198.708 98.74 200.028 98.74C201.295 98.74 202.301 99.1467 203.048 99.96C203.795 100.773 204.168 101.927 204.168 103.42C204.168 103.847 204.135 104.24 204.068 104.6H197.148C197.268 105.6 197.648 106.367 198.288 106.9C198.928 107.433 199.768 107.7 200.808 107.7C201.941 107.7 202.848 107.467 203.528 107V108.48ZM200.028 100.12C199.268 100.12 198.621 100.393 198.088 100.94C197.555 101.487 197.241 102.267 197.148 103.28H202.588V102.88C202.588 102.04 202.361 101.373 201.908 100.88C201.455 100.373 200.828 100.12 200.028 100.12ZM213.02 112.94H211.46V98.86H213.02V100.4C213.727 99.2667 214.773 98.7 216.16 98.7C217.507 98.7 218.56 99.1933 219.32 100.18C220.093 101.153 220.48 102.373 220.48 103.84C220.48 105.4 220.073 106.68 219.26 107.68C218.46 108.667 217.413 109.16 216.12 109.16C214.787 109.16 213.753 108.593 213.02 107.46V112.94ZM213.02 103.94C213.02 105.233 213.32 106.187 213.92 106.8C214.52 107.413 215.187 107.72 215.92 107.72C216.773 107.72 217.473 107.387 218.02 106.72C218.567 106.04 218.84 105.08 218.84 103.84C218.84 102.733 218.573 101.84 218.04 101.16C217.507 100.48 216.833 100.14 216.02 100.14C215.207 100.14 214.5 100.44 213.9 101.04C213.313 101.627 213.02 102.593 213.02 103.94ZM230.208 108.48C229.421 108.893 228.461 109.1 227.328 109.1C225.794 109.1 224.554 108.633 223.608 107.7C222.674 106.753 222.208 105.507 222.208 103.96C222.208 102.347 222.628 101.073 223.468 100.14C224.308 99.2067 225.388 98.74 226.708 98.74C227.974 98.74 228.981 99.1467 229.728 99.96C230.474 100.773 230.848 101.927 230.848 103.42C230.848 103.847 230.814 104.24 230.748 104.6H223.828C223.948 105.6 224.328 106.367 224.968 106.9C225.608 107.433 226.448 107.7 227.488 107.7C228.621 107.7 229.528 107.467 230.208 107V108.48ZM226.708 100.12C225.948 100.12 225.301 100.393 224.768 100.94C224.234 101.487 223.921 102.267 223.828 103.28H229.268V102.88C229.268 102.04 229.041 101.373 228.588 100.88C228.134 100.373 227.508 100.12 226.708 100.12ZM234.817 109H233.237L233.257 98.86H234.817V100.64C235.35 99.3867 236.27 98.76 237.577 98.76C237.817 98.76 238.004 98.7733 238.137 98.8V100.36C237.857 100.267 237.57 100.22 237.277 100.22C236.57 100.22 235.984 100.547 235.517 101.2C235.05 101.853 234.817 102.607 234.817 103.46V109ZM244.48 100.14H242.24V109H240.66V100.14H238.92V98.86H240.66V97.92C240.66 96.9333 240.92 96.1533 241.44 95.58C241.974 95.0067 242.707 94.72 243.64 94.72C243.96 94.72 244.287 94.7667 244.62 94.86V96.3C244.3 96.1933 243.994 96.14 243.7 96.14C243.274 96.14 242.92 96.2867 242.64 96.58C242.374 96.8733 242.24 97.3267 242.24 97.94V98.86H244.48V100.14ZM253.762 108.48C252.976 108.893 252.016 109.1 250.882 109.1C249.349 109.1 248.109 108.633 247.162 107.7C246.229 106.753 245.762 105.507 245.762 103.96C245.762 102.347 246.182 101.073 247.022 100.14C247.862 99.2067 248.942 98.74 250.262 98.74C251.529 98.74 252.536 99.1467 253.282 99.96C254.029 100.773 254.402 101.927 254.402 103.42C254.402 103.847 254.369 104.24 254.302 104.6H247.382C247.502 105.6 247.882 106.367 248.522 106.9C249.162 107.433 250.002 107.7 251.042 107.7C252.176 107.7 253.082 107.467 253.762 107V108.48ZM250.262 100.12C249.502 100.12 248.856 100.393 248.322 100.94C247.789 101.487 247.476 102.267 247.382 103.28H252.822V102.88C252.822 102.04 252.596 101.373 252.142 100.88C251.689 100.373 251.062 100.12 250.262 100.12ZM263.792 108.64C263.152 109.027 262.365 109.22 261.432 109.22C259.832 109.22 258.558 108.713 257.612 107.7C256.678 106.673 256.212 105.427 256.212 103.96C256.212 102.52 256.678 101.28 257.612 100.24C258.558 99.2 259.845 98.68 261.472 98.68C262.338 98.68 263.112 98.8667 263.792 99.24V100.74C263.178 100.327 262.458 100.12 261.632 100.12C260.485 100.12 259.565 100.493 258.872 101.24C258.192 101.973 257.852 102.887 257.852 103.98C257.865 105.073 258.198 105.987 258.852 106.72C259.505 107.44 260.432 107.8 261.632 107.8C262.405 107.8 263.125 107.58 263.792 107.14V108.64ZM271.306 108.74C270.866 108.98 270.372 109.1 269.826 109.1C267.826 109.1 266.826 108.08 266.826 106.04V100.14H265.206V98.86H266.826V96.34H268.406V98.86H271.206V100.14H268.406V106.08C268.406 107.16 268.912 107.7 269.926 107.7C270.446 107.7 270.906 107.547 271.306 107.24V108.74ZM279.531 104.04C279.531 105.133 279.798 106.02 280.331 106.7C280.865 107.38 281.538 107.72 282.351 107.72C283.178 107.72 283.878 107.413 284.451 106.8C285.038 106.187 285.331 105.207 285.331 103.86C285.331 102.58 285.031 101.64 284.431 101.04C283.831 100.44 283.171 100.14 282.451 100.14C281.611 100.14 280.911 100.48 280.351 101.16C279.805 101.827 279.531 102.787 279.531 104.04ZM286.911 109H285.331V107.5C284.611 108.607 283.571 109.16 282.211 109.16C280.865 109.16 279.805 108.66 279.031 107.66C278.271 106.66 277.891 105.447 277.891 104.02C277.891 102.433 278.298 101.153 279.111 100.18C279.925 99.1933 280.971 98.7 282.251 98.7C283.571 98.7 284.598 99.2667 285.331 100.4V94.86H286.911V109ZM298.759 103.96C298.759 105.467 298.332 106.713 297.479 107.7C296.626 108.687 295.452 109.18 293.959 109.18C292.506 109.18 291.352 108.693 290.499 107.72C289.659 106.733 289.239 105.493 289.239 104C289.239 102.493 289.672 101.24 290.539 100.24C291.419 99.2267 292.559 98.72 293.959 98.72C295.492 98.72 296.672 99.2133 297.499 100.2C298.339 101.187 298.759 102.44 298.759 103.96ZM290.879 103.98C290.879 105.033 291.159 105.933 291.719 106.68C292.279 107.413 293.026 107.78 293.959 107.78C294.972 107.78 295.752 107.42 296.299 106.7C296.846 105.967 297.119 105.06 297.119 103.98C297.119 102.86 296.859 101.94 296.339 101.22C295.819 100.487 295.026 100.12 293.959 100.12C292.999 100.12 292.246 100.493 291.699 101.24C291.152 101.987 290.879 102.9 290.879 103.98ZM314.629 109H313.049V102.44C313.049 100.907 312.403 100.14 311.109 100.14C310.469 100.14 309.896 100.433 309.389 101.02C308.883 101.593 308.629 102.407 308.629 103.46V109H307.049V102.44C307.049 100.907 306.403 100.14 305.109 100.14C304.469 100.14 303.896 100.433 303.389 101.02C302.883 101.593 302.629 102.407 302.629 103.46V109H301.069V98.86H302.629V100.5C303.189 99.3133 304.143 98.72 305.489 98.72C307.049 98.72 308.036 99.38 308.449 100.7C308.743 100.06 309.149 99.5733 309.669 99.24C310.203 98.8933 310.796 98.72 311.449 98.72C312.503 98.72 313.296 99.02 313.829 99.62C314.363 100.22 314.629 101.027 314.629 102.04V109ZM320.537 107.78C321.257 107.78 321.83 107.58 322.257 107.18C322.683 106.767 322.897 106.247 322.897 105.62V104.32H321.137C320.283 104.32 319.643 104.487 319.217 104.82C318.79 105.153 318.577 105.573 318.577 106.08C318.577 106.587 318.743 107 319.077 107.32C319.41 107.627 319.897 107.78 320.537 107.78ZM322.917 107.8C322.397 108.667 321.45 109.1 320.077 109.1C319.13 109.1 318.363 108.82 317.777 108.26C317.203 107.7 316.917 106.993 316.917 106.14C316.917 105.167 317.283 104.413 318.017 103.88C318.763 103.333 319.777 103.06 321.057 103.06H322.897V102.54C322.897 101.74 322.717 101.14 322.357 100.74C321.997 100.327 321.39 100.12 320.537 100.12C319.457 100.12 318.497 100.407 317.657 100.98V99.4C318.417 98.9333 319.417 98.7 320.657 98.7C323.203 98.7 324.477 99.9933 324.477 102.58V109H322.917V107.8ZM328.94 109H327.36V98.86H328.94V109ZM328.88 94.94C329.08 95.14 329.18 95.3867 329.18 95.68C329.18 95.9733 329.08 96.22 328.88 96.42C328.68 96.6067 328.434 96.7 328.14 96.7C327.847 96.7 327.6 96.6067 327.4 96.42C327.214 96.22 327.12 95.9733 327.12 95.68C327.12 95.3867 327.214 95.14 327.4 94.94C327.6 94.74 327.847 94.64 328.14 94.64C328.434 94.64 328.68 94.74 328.88 94.94ZM339.948 109H338.368V102.44C338.368 101.693 338.175 101.127 337.788 100.74C337.415 100.34 336.922 100.14 336.308 100.14C335.548 100.14 334.888 100.433 334.328 101.02C333.782 101.607 333.508 102.42 333.508 103.46V109H331.948V98.86H333.508V100.62C334.108 99.3533 335.175 98.72 336.708 98.72C337.695 98.72 338.482 99.02 339.068 99.62C339.655 100.22 339.948 101.02 339.948 102.02V109ZM355.632 109H354.052V102.44C354.052 101.693 353.859 101.127 353.472 100.74C353.099 100.34 352.605 100.14 351.992 100.14C351.232 100.14 350.572 100.433 350.012 101.02C349.465 101.607 349.192 102.42 349.192 103.46V109H347.632V98.86H349.192V100.62C349.792 99.3533 350.859 98.72 352.392 98.72C353.379 98.72 354.165 99.02 354.752 99.62C355.339 100.22 355.632 101.02 355.632 102.02V109ZM361.533 107.78C362.253 107.78 362.826 107.58 363.253 107.18C363.679 106.767 363.893 106.247 363.893 105.62V104.32H362.133C361.279 104.32 360.639 104.487 360.213 104.82C359.786 105.153 359.573 105.573 359.573 106.08C359.573 106.587 359.739 107 360.073 107.32C360.406 107.627 360.893 107.78 361.533 107.78ZM363.913 107.8C363.393 108.667 362.446 109.1 361.073 109.1C360.126 109.1 359.359 108.82 358.773 108.26C358.199 107.7 357.913 106.993 357.913 106.14C357.913 105.167 358.279 104.413 359.013 103.88C359.759 103.333 360.773 103.06 362.053 103.06H363.893V102.54C363.893 101.74 363.713 101.14 363.353 100.74C362.993 100.327 362.386 100.12 361.533 100.12C360.453 100.12 359.493 100.407 358.653 100.98V99.4C359.413 98.9333 360.413 98.7 361.653 98.7C364.199 98.7 365.473 99.9933 365.473 102.58V109H363.913V107.8ZM381.836 109H380.256V102.44C380.256 100.907 379.61 100.14 378.316 100.14C377.676 100.14 377.103 100.433 376.596 101.02C376.09 101.593 375.836 102.407 375.836 103.46V109H374.256V102.44C374.256 100.907 373.61 100.14 372.316 100.14C371.676 100.14 371.103 100.433 370.596 101.02C370.09 101.593 369.836 102.407 369.836 103.46V109H368.276V98.86H369.836V100.5C370.396 99.3133 371.35 98.72 372.696 98.72C374.256 98.72 375.243 99.38 375.656 100.7C375.95 100.06 376.356 99.5733 376.876 99.24C377.41 98.8933 378.003 98.72 378.656 98.72C379.71 98.72 380.503 99.02 381.036 99.62C381.57 100.22 381.836 101.027 381.836 102.04V109ZM392.044 108.48C391.257 108.893 390.297 109.1 389.164 109.1C387.63 109.1 386.39 108.633 385.444 107.7C384.51 106.753 384.044 105.507 384.044 103.96C384.044 102.347 384.464 101.073 385.304 100.14C386.144 99.2067 387.224 98.74 388.544 98.74C389.81 98.74 390.817 99.1467 391.564 99.96C392.31 100.773 392.684 101.927 392.684 103.42C392.684 103.847 392.65 104.24 392.584 104.6H385.664C385.784 105.6 386.164 106.367 386.804 106.9C387.444 107.433 388.284 107.7 389.324 107.7C390.457 107.7 391.364 107.467 392.044 107V108.48ZM388.544 100.12C387.784 100.12 387.137 100.393 386.604 100.94C386.07 101.487 385.757 102.267 385.664 103.28H391.104V102.88C391.104 102.04 390.877 101.373 390.424 100.88C389.97 100.373 389.344 100.12 388.544 100.12Z" fill="black"/>
<path d="M69.5 33C48.2365 33 31 48.6696 31 68C31 87.3304 48.2365 103 69.5 103C90.7635 103 108 87.3304 108 68C108 48.6696 90.7635 33 69.5 33ZM94.3387 63.4133V64.3913C94.3387 65.2198 93.8233 65.9776 93.0083 66.3474L90.6191 67.4341C90.2397 67.6067 89.8168 67.685 89.3934 67.6609C88.9699 67.6369 88.561 67.5114 88.2082 67.2972L85.3812 65.5839C85.0763 65.3992 84.729 65.2802 84.3658 65.236C84.0027 65.1917 83.6332 65.2233 83.2855 65.3284L82.8741 65.4526C81.3682 65.9085 80.7535 67.5399 81.6337 68.7409L83.6891 71.5437C84.1347 72.152 84.886 72.5175 85.6902 72.5175H86.9647C88.2936 72.5175 89.371 73.497 89.371 74.705V76.3054C89.371 76.7782 89.2018 77.2397 88.8897 77.6179L85.9805 81.1433C85.76 81.4115 85.6095 81.722 85.5411 82.0508L84.8736 85.2728C84.7774 85.7371 84.5181 86.1605 84.1347 86.4808C82.6635 87.7056 81.3603 89.0874 80.2536 90.5962L78.2308 93.3552C77.8374 93.8917 77.3044 94.3316 76.6791 94.6359C76.0538 94.9402 75.3555 95.0995 74.6463 95.0996C73.0147 95.0996 71.5228 94.2613 70.7932 92.9347C69.9427 91.3883 69.4999 89.6831 69.5 87.9542V83.7359C69.5 82.5278 68.4226 81.5484 67.0938 81.5484H63.0761C60.8266 81.5484 58.6703 80.7355 57.0791 79.2903C55.4891 77.8441 54.5957 75.8832 54.5952 73.8385V71.8542C54.5952 69.4282 55.8527 67.1433 57.9873 65.6869L62.2688 62.7669C63.737 61.7661 65.5225 61.2248 67.3577 61.2244H67.4958C68.8123 61.2244 70.1117 61.5024 71.2884 62.0387L73.5735 63.0774C74.1448 63.3371 74.8046 63.3794 75.4101 63.196L82.7546 60.9704C83.7372 60.6726 84.4001 59.8371 84.4001 58.8958C84.4001 57.6877 83.3227 56.7083 81.9939 56.7083H80.4275C79.7894 56.7083 79.1778 56.4782 78.726 56.0675L77.6518 55.0909C77.4284 54.8878 77.1631 54.7266 76.8712 54.6167C76.5792 54.5067 76.2663 54.4502 75.9503 54.4502H61.9708C60.6419 54.4502 59.5645 53.4708 59.5645 52.2627V51.6417C59.5645 50.6383 60.3159 49.7633 61.3871 49.5192L63.6303 49.0097C64.2109 48.877 64.717 48.5538 65.0492 48.1008L66.3036 46.3917C66.7491 45.7835 67.5005 45.4179 68.3046 45.4179H72.063C73.3919 45.4179 74.4693 44.4385 74.4693 43.2304V40.1679C86.7676 41.98 96.6456 50.3617 99.6061 61.2258H96.745C95.4161 61.2258 94.3387 62.2052 94.3387 63.4133Z" fill="#FFA800"/>
</svg>
