<svg width="589" height="307" viewBox="0 0 589 307" fill="none" xmlns="http://www.w3.org/2000/svg">
<rect width="589" height="307" fill="white"/>
<rect width="589" height="307" fill="white"/>
<path d="M72.1875 69C81.7154 69 89.4375 60.7184 89.4375 50.5C89.4375 40.2816 81.7154 32 72.1875 32C62.6596 32 54.9375 40.2816 54.9375 50.5C54.9375 60.7184 62.6596 69 72.1875 69ZM84.2625 73.625H82.0119C79.0201 75.0992 75.6914 75.9375 72.1875 75.9375C68.6836 75.9375 65.3684 75.0992 62.3631 73.625H60.1125C50.1129 73.625 42 82.3258 42 93.05V99.0625C42 102.893 44.8975 106 48.4688 106H95.9062C99.4775 106 102.375 102.893 102.375 99.0625V93.05C102.375 82.3258 94.2621 73.625 84.2625 73.625Z" fill="#FFA800"/>
<path d="M44.244 154V126.588H62.108V130.636H49.084V137.676H59.776V141.768H49.084V149.952H61.976V154H44.244ZM72.712 154.528C70.4533 154.528 68.6933 154 67.432 152.944C66.2 151.859 65.584 150.465 65.584 148.764C65.584 147.679 65.8187 146.681 66.288 145.772C66.7867 144.833 67.52 144.027 68.488 143.352C69.456 142.677 70.6587 142.164 72.096 141.812C73.5333 141.431 75.176 141.24 77.024 141.24C77.2587 141.24 77.552 141.24 77.904 141.24C78.256 141.24 78.6373 141.255 79.048 141.284C79.4587 141.284 79.84 141.313 80.192 141.372L80.324 144.804C80.0307 144.775 79.6787 144.76 79.268 144.76C78.8573 144.731 78.432 144.716 77.992 144.716C77.5813 144.687 77.2293 144.672 76.936 144.672C75.7627 144.672 74.7653 144.76 73.944 144.936C73.152 145.112 72.5067 145.361 72.008 145.684C71.5093 145.977 71.1427 146.344 70.908 146.784C70.6733 147.195 70.556 147.649 70.556 148.148C70.556 148.617 70.6293 149.013 70.776 149.336C70.952 149.659 71.172 149.923 71.436 150.128C71.7293 150.304 72.0667 150.436 72.448 150.524C72.8293 150.612 73.24 150.656 73.68 150.656C74.56 150.656 75.3227 150.524 75.968 150.26C76.6427 149.967 77.2 149.512 77.64 148.896C78.1093 148.28 78.4467 147.517 78.652 146.608C78.8867 145.669 79.004 144.569 79.004 143.308C79.004 141.607 78.828 140.301 78.476 139.392C78.124 138.483 77.6107 137.852 76.936 137.5C76.2613 137.119 75.4107 136.928 74.384 136.928C73.4453 136.928 72.5507 137.089 71.7 137.412C70.8787 137.705 70.072 138.263 69.28 139.084L66.552 136.092C67.696 135.007 68.972 134.229 70.38 133.76C71.788 133.291 73.196 133.056 74.604 133.056C75.8947 133.056 77.0973 133.203 78.212 133.496C79.3267 133.789 80.2947 134.288 81.116 134.992C81.9667 135.667 82.6267 136.605 83.096 137.808C83.5947 138.981 83.844 140.448 83.844 142.208V154H78.696V151.8C78.3147 152.299 77.904 152.724 77.464 153.076C77.024 153.428 76.5547 153.707 76.056 153.912C75.5573 154.117 75.0293 154.264 74.472 154.352C73.9147 154.469 73.328 154.528 72.712 154.528ZM97.396 154.484C96.164 154.484 94.976 154.367 93.832 154.132C92.688 153.927 91.632 153.589 90.664 153.12C89.696 152.621 88.8013 151.991 87.98 151.228L90.18 147.18L90.356 146.828L90.708 147.048C90.796 147.253 90.884 147.488 90.972 147.752C91.06 147.987 91.28 148.265 91.632 148.588C92.3653 149.204 93.2013 149.688 94.14 150.04C95.0787 150.392 96.1933 150.568 97.484 150.568C98.3053 150.568 98.9947 150.48 99.552 150.304C100.139 150.099 100.579 149.835 100.872 149.512C101.195 149.16 101.356 148.764 101.356 148.324C101.356 147.972 101.268 147.664 101.092 147.4C100.916 147.136 100.637 146.901 100.256 146.696C99.8747 146.491 99.376 146.285 98.76 146.08C98.144 145.845 97.4107 145.596 96.56 145.332C95.064 144.951 93.7587 144.481 92.644 143.924C91.5587 143.337 90.7227 142.633 90.136 141.812C89.5493 140.991 89.256 140.037 89.256 138.952C89.256 137.808 89.5787 136.796 90.224 135.916C90.8987 135.036 91.8373 134.347 93.04 133.848C94.2427 133.32 95.6653 133.056 97.308 133.056C98.1587 133.056 98.9653 133.129 99.728 133.276C100.491 133.393 101.209 133.584 101.884 133.848C102.588 134.083 103.233 134.405 103.82 134.816C104.436 135.197 105.008 135.652 105.536 136.18L103.116 139.568L102.808 139.92L102.5 139.656C102.471 139.421 102.397 139.201 102.28 138.996C102.192 138.761 101.972 138.483 101.62 138.16C101.033 137.72 100.359 137.397 99.596 137.192C98.8627 136.987 98.1293 136.884 97.396 136.884C96.3987 136.884 95.5333 137.045 94.8 137.368C94.096 137.691 93.744 138.189 93.744 138.864C93.744 139.245 93.9053 139.597 94.228 139.92C94.5507 140.213 95.0787 140.507 95.812 140.8C96.5747 141.064 97.572 141.357 98.804 141.68C100.447 142.12 101.781 142.633 102.808 143.22C103.864 143.777 104.627 144.452 105.096 145.244C105.595 146.036 105.844 146.96 105.844 148.016C105.844 149.16 105.521 150.231 104.876 151.228C104.231 152.225 103.277 153.017 102.016 153.604C100.784 154.191 99.244 154.484 97.396 154.484ZM119.924 154.484C118.457 154.484 117.093 154.249 115.832 153.78C114.6 153.311 113.515 152.636 112.576 151.756C111.667 150.847 110.963 149.732 110.464 148.412C109.965 147.092 109.716 145.596 109.716 143.924C109.716 142.223 109.965 140.697 110.464 139.348C110.963 137.999 111.637 136.855 112.488 135.916C113.368 134.977 114.395 134.273 115.568 133.804C116.741 133.305 118.003 133.056 119.352 133.056C120.555 133.056 121.684 133.261 122.74 133.672C123.796 134.083 124.72 134.713 125.512 135.564C126.333 136.385 126.979 137.427 127.448 138.688C127.917 139.92 128.152 141.357 128.152 143C128.152 143.293 128.137 143.645 128.108 144.056C128.108 144.467 128.093 144.819 128.064 145.112H114.512C114.571 146.08 114.761 146.916 115.084 147.62C115.407 148.295 115.832 148.852 116.36 149.292C116.888 149.732 117.475 150.069 118.12 150.304C118.765 150.509 119.44 150.612 120.144 150.612C120.76 150.612 121.347 150.553 121.904 150.436C122.491 150.319 123.033 150.113 123.532 149.82C124.06 149.527 124.559 149.145 125.028 148.676L127.58 151.14C126.935 151.903 126.201 152.548 125.38 153.076C124.588 153.575 123.723 153.927 122.784 154.132C121.875 154.367 120.921 154.484 119.924 154.484ZM114.6 141.372H123.312C123.312 140.668 123.209 140.037 123.004 139.48C122.828 138.923 122.564 138.453 122.212 138.072C121.86 137.691 121.42 137.412 120.892 137.236C120.393 137.031 119.807 136.928 119.132 136.928C118.575 136.928 118.032 137.016 117.504 137.192C117.005 137.339 116.551 137.603 116.14 137.984C115.729 138.365 115.392 138.835 115.128 139.392C114.864 139.949 114.688 140.609 114.6 141.372ZM162.956 154.44C161.137 154.44 159.48 154 157.984 153.12C156.517 152.211 155.359 150.949 154.508 149.336C153.657 147.723 153.232 145.86 153.232 143.748C153.232 141.724 153.657 139.905 154.508 138.292C155.359 136.679 156.517 135.403 157.984 134.464C159.48 133.525 161.137 133.056 162.956 133.056C164.804 133.056 166.461 133.525 167.928 134.464C169.424 135.403 170.597 136.679 171.448 138.292C172.328 139.905 172.768 141.724 172.768 143.748C172.768 145.86 172.328 147.723 171.448 149.336C170.597 150.949 169.424 152.211 167.928 153.12C166.461 154 164.804 154.44 162.956 154.44ZM162.956 150.48C163.924 150.48 164.76 150.201 165.464 149.644C166.168 149.057 166.725 148.265 167.136 147.268C167.576 146.241 167.796 145.068 167.796 143.748C167.796 142.369 167.576 141.181 167.136 140.184C166.725 139.187 166.168 138.424 165.464 137.896C164.76 137.339 163.924 137.06 162.956 137.06C162.076 137.06 161.269 137.339 160.536 137.896C159.832 138.424 159.26 139.187 158.82 140.184C158.409 141.181 158.204 142.369 158.204 143.748C158.204 145.068 158.409 146.241 158.82 147.268C159.231 148.265 159.788 149.057 160.492 149.644C161.225 150.201 162.047 150.48 162.956 150.48ZM180.116 137.412H175.672V133.54H180.116V132.308C180.116 130.431 180.497 128.905 181.26 127.732C182.052 126.529 183.093 125.635 184.384 125.048C185.675 124.461 187.068 124.168 188.564 124.168C189.943 124.168 191.219 124.417 192.392 124.916C193.595 125.385 194.607 126.075 195.428 126.984L193.58 130.372L193.36 130.724L193.008 130.504C192.92 130.299 192.832 130.093 192.744 129.888C192.656 129.653 192.421 129.375 192.04 129.052C191.541 128.7 191.043 128.451 190.544 128.304C190.045 128.128 189.473 128.04 188.828 128.04C188.065 128.04 187.391 128.201 186.804 128.524C186.217 128.847 185.777 129.316 185.484 129.932C185.191 130.548 185.044 131.325 185.044 132.264V133.54H191.204V137.412H185.044V154H180.116V137.412ZM229 154.572C225.979 154.572 223.647 153.677 222.004 151.888C220.391 150.069 219.584 147.576 219.584 144.408V126.588H224.512H224.908V126.984C224.761 127.16 224.659 127.351 224.6 127.556C224.571 127.761 224.556 128.113 224.556 128.612V144.452C224.556 146.329 224.879 147.811 225.524 148.896C226.199 149.981 227.372 150.524 229.044 150.524C230.745 150.524 231.933 149.981 232.608 148.896C233.283 147.781 233.62 146.256 233.62 144.32V126.588H238.46V144.276C238.46 146.623 238.064 148.559 237.272 150.084C236.48 151.609 235.365 152.739 233.928 153.472C232.52 154.205 230.877 154.572 229 154.572ZM251.396 154.484C250.164 154.484 248.976 154.367 247.832 154.132C246.688 153.927 245.632 153.589 244.664 153.12C243.696 152.621 242.801 151.991 241.98 151.228L244.18 147.18L244.356 146.828L244.708 147.048C244.796 147.253 244.884 147.488 244.972 147.752C245.06 147.987 245.28 148.265 245.632 148.588C246.365 149.204 247.201 149.688 248.14 150.04C249.079 150.392 250.193 150.568 251.484 150.568C252.305 150.568 252.995 150.48 253.552 150.304C254.139 150.099 254.579 149.835 254.872 149.512C255.195 149.16 255.356 148.764 255.356 148.324C255.356 147.972 255.268 147.664 255.092 147.4C254.916 147.136 254.637 146.901 254.256 146.696C253.875 146.491 253.376 146.285 252.76 146.08C252.144 145.845 251.411 145.596 250.56 145.332C249.064 144.951 247.759 144.481 246.644 143.924C245.559 143.337 244.723 142.633 244.136 141.812C243.549 140.991 243.256 140.037 243.256 138.952C243.256 137.808 243.579 136.796 244.224 135.916C244.899 135.036 245.837 134.347 247.04 133.848C248.243 133.32 249.665 133.056 251.308 133.056C252.159 133.056 252.965 133.129 253.728 133.276C254.491 133.393 255.209 133.584 255.884 133.848C256.588 134.083 257.233 134.405 257.82 134.816C258.436 135.197 259.008 135.652 259.536 136.18L257.116 139.568L256.808 139.92L256.5 139.656C256.471 139.421 256.397 139.201 256.28 138.996C256.192 138.761 255.972 138.483 255.62 138.16C255.033 137.72 254.359 137.397 253.596 137.192C252.863 136.987 252.129 136.884 251.396 136.884C250.399 136.884 249.533 137.045 248.8 137.368C248.096 137.691 247.744 138.189 247.744 138.864C247.744 139.245 247.905 139.597 248.228 139.92C248.551 140.213 249.079 140.507 249.812 140.8C250.575 141.064 251.572 141.357 252.804 141.68C254.447 142.12 255.781 142.633 256.808 143.22C257.864 143.777 258.627 144.452 259.096 145.244C259.595 146.036 259.844 146.96 259.844 148.016C259.844 149.16 259.521 150.231 258.876 151.228C258.231 152.225 257.277 153.017 256.016 153.604C254.784 154.191 253.244 154.484 251.396 154.484ZM273.924 154.484C272.457 154.484 271.093 154.249 269.832 153.78C268.6 153.311 267.515 152.636 266.576 151.756C265.667 150.847 264.963 149.732 264.464 148.412C263.965 147.092 263.716 145.596 263.716 143.924C263.716 142.223 263.965 140.697 264.464 139.348C264.963 137.999 265.637 136.855 266.488 135.916C267.368 134.977 268.395 134.273 269.568 133.804C270.741 133.305 272.003 133.056 273.352 133.056C274.555 133.056 275.684 133.261 276.74 133.672C277.796 134.083 278.72 134.713 279.512 135.564C280.333 136.385 280.979 137.427 281.448 138.688C281.917 139.92 282.152 141.357 282.152 143C282.152 143.293 282.137 143.645 282.108 144.056C282.108 144.467 282.093 144.819 282.064 145.112H268.512C268.571 146.08 268.761 146.916 269.084 147.62C269.407 148.295 269.832 148.852 270.36 149.292C270.888 149.732 271.475 150.069 272.12 150.304C272.765 150.509 273.44 150.612 274.144 150.612C274.76 150.612 275.347 150.553 275.904 150.436C276.491 150.319 277.033 150.113 277.532 149.82C278.06 149.527 278.559 149.145 279.028 148.676L281.58 151.14C280.935 151.903 280.201 152.548 279.38 153.076C278.588 153.575 277.723 153.927 276.784 154.132C275.875 154.367 274.921 154.484 273.924 154.484ZM268.6 141.372H277.312C277.312 140.668 277.209 140.037 277.004 139.48C276.828 138.923 276.564 138.453 276.212 138.072C275.86 137.691 275.42 137.412 274.892 137.236C274.393 137.031 273.807 136.928 273.132 136.928C272.575 136.928 272.032 137.016 271.504 137.192C271.005 137.339 270.551 137.603 270.14 137.984C269.729 138.365 269.392 138.835 269.128 139.392C268.864 139.949 268.688 140.609 268.6 141.372Z" fill="black"/>
<path d="M43.8047 193.688H46.1484V200.133H53.8594V193.688H56.2031V210H53.8594V202.195H46.1484V210H43.8047V193.688ZM59.0391 203.93C59.0391 202.031 59.6445 200.492 60.8555 199.312C61.9883 198.211 63.3906 197.66 65.0625 197.66C66.7031 197.66 68.0742 198.211 69.1758 199.312C70.3477 200.484 70.9336 202.023 70.9336 203.93C70.9336 205.828 70.3438 207.359 69.1641 208.523C68.0469 209.633 66.6758 210.188 65.0508 210.188C63.4023 210.188 62.0039 209.633 60.8555 208.523C59.6445 207.359 59.0391 205.828 59.0391 203.93ZM61.4766 203.93C61.4766 205.93 62.1172 207.289 63.3984 208.008C63.8516 208.258 64.3945 208.383 65.0273 208.383C65.6602 208.383 66.1953 208.258 66.6328 208.008C67.0703 207.75 67.4297 207.414 67.7109 207C68.2344 206.203 68.4961 205.18 68.4961 203.93C68.4961 201.945 67.8672 200.586 66.6094 199.852C66.1719 199.594 65.6484 199.465 65.0391 199.465C64.4297 199.465 63.8984 199.594 63.4453 199.852C63 200.102 62.6328 200.434 62.3438 200.848C61.7656 201.66 61.4766 202.688 61.4766 203.93ZM76.7812 210.188C75.8047 210.188 74.8164 210.117 73.8164 209.977V207.902C74.832 208.145 75.8633 208.266 76.9102 208.266C79.0039 208.266 80.0508 207.824 80.0508 206.941C80.0508 206.605 79.9688 206.355 79.8047 206.191C79.5625 205.934 79.1797 205.676 78.6562 205.418L76.9453 204.633C75.8359 204.078 75.1172 203.633 74.7891 203.297C74.1719 202.672 73.8633 201.93 73.8633 201.07C73.8633 200.102 74.3125 199.312 75.2109 198.703C76.1797 198.047 77.5391 197.719 79.2891 197.719C80.1719 197.719 81.0625 197.781 81.9609 197.906V199.91C80.9766 199.73 80.1172 199.641 79.3828 199.641C78.6562 199.641 78.0898 199.688 77.6836 199.781C77.2852 199.875 76.9844 199.992 76.7812 200.133C76.4609 200.352 76.3008 200.637 76.3008 200.988C76.3008 201.332 76.4102 201.613 76.6289 201.832C76.8555 202.043 77.207 202.273 77.6836 202.523L79.4062 203.355C80.5312 203.941 81.2539 204.391 81.5742 204.703C82.1836 205.297 82.4883 206.043 82.4883 206.941C82.4883 207.902 82.0039 208.676 81.0352 209.262C80.0195 209.879 78.6016 210.188 76.7812 210.188ZM90.1641 208.148C90.4219 208.242 90.8125 208.289 91.3359 208.289C91.8594 208.289 92.2969 208.227 92.6484 208.102V209.977C92.4844 210.016 92.2461 210.039 91.9336 210.047L91.1953 210.07C91.0312 210.07 90.9062 210.07 90.8203 210.07C89.3125 210.07 88.1992 209.578 87.4805 208.594C86.9023 207.797 86.6133 206.742 86.6133 205.43V199.699H84.8789V198.598L86.6133 197.906L87.1758 194.906H88.957V197.906H92.707V199.699H88.957V205.418C88.957 206.949 89.3594 207.859 90.1641 208.148ZM98.5547 194.391C98.5547 194.836 98.4062 195.18 98.1094 195.422C97.8203 195.656 97.457 195.773 97.0195 195.773C96.582 195.773 96.2188 195.656 95.9297 195.422C95.6484 195.18 95.5078 194.836 95.5078 194.391C95.5078 193.938 95.6484 193.594 95.9297 193.359C96.2188 193.125 96.582 193.008 97.0195 193.008C97.457 193.008 97.8203 193.125 98.1094 193.359C98.4062 193.594 98.5547 193.938 98.5547 194.391ZM95.8125 197.906H98.1562V210H95.8125V197.906ZM107.297 199.734C106.133 199.734 105.098 200.129 104.191 200.918V210H101.848V197.906H104.016L104.18 199.219C105.453 198.219 106.77 197.719 108.129 197.719C109.566 197.719 110.621 198.148 111.293 199.008C111.996 199.914 112.348 201.375 112.348 203.391V210H110.004V203.391C110.004 201.453 109.48 200.297 108.434 199.922C108.098 199.797 107.719 199.734 107.297 199.734ZM122.742 214.617C122.062 214.789 121.188 214.875 120.117 214.875C119.055 214.875 118.277 214.797 117.785 214.641V212.555C118.402 212.82 119.156 212.953 120.047 212.953C120.945 212.961 121.605 212.902 122.027 212.777C122.449 212.652 122.781 212.449 123.023 212.168C123.461 211.66 123.68 210.742 123.68 209.414V208.793C123.086 209.387 122.305 209.801 121.336 210.035C120.945 210.129 120.555 210.176 120.164 210.176C119.773 210.176 119.391 210.133 119.016 210.047C118.648 209.961 118.281 209.824 117.914 209.637C117.547 209.441 117.195 209.191 116.859 208.887C116.523 208.574 116.227 208.188 115.969 207.727C115.391 206.727 115.102 205.496 115.102 204.035C115.086 202.684 115.477 201.496 116.273 200.473C116.961 199.582 117.906 198.891 119.109 198.398C120.203 197.945 121.387 197.719 122.66 197.719C123.934 197.719 125.055 197.781 126.023 197.906V209.414C126.023 212.336 124.93 214.07 122.742 214.617ZM123.68 199.617C123.18 199.555 122.688 199.523 122.203 199.523C121.719 199.523 121.176 199.613 120.574 199.793C119.973 199.973 119.445 200.246 118.992 200.613C118 201.418 117.504 202.559 117.504 204.035C117.504 205.637 117.891 206.805 118.664 207.539C119.242 208.094 119.949 208.371 120.785 208.371C121.793 208.371 122.641 208.016 123.328 207.305C123.492 207.125 123.609 206.965 123.68 206.824V199.617ZM135.504 210.188C131.082 210.188 128.871 208.027 128.871 203.707C128.871 201.848 129.484 200.359 130.711 199.242C131.812 198.227 133.07 197.719 134.484 197.719C136.023 197.719 137.227 198.234 138.094 199.266C138.898 200.227 139.301 201.512 139.301 203.121V204.035H131.309C131.309 206.246 132.211 207.598 134.016 208.09C134.445 208.207 135.105 208.266 135.996 208.266C136.895 208.266 137.773 208.145 138.633 207.902V209.883C137.773 210.086 136.73 210.188 135.504 210.188ZM136.957 202.312C136.957 201.562 136.75 200.93 136.336 200.414C135.852 199.82 135.184 199.523 134.332 199.523C133.434 199.523 132.703 199.809 132.141 200.379C131.625 200.91 131.367 201.555 131.367 202.312H136.957ZM149.566 200.051C149.137 199.926 148.621 199.863 148.02 199.863C147.426 199.863 146.938 199.926 146.555 200.051C146.172 200.168 145.836 200.312 145.547 200.484C145.016 200.797 144.629 201.148 144.387 201.539V210H142.043V197.906H144.293L144.387 199.582C144.973 198.848 145.828 198.297 146.953 197.93C147.359 197.789 147.824 197.719 148.348 197.719C148.871 197.719 149.277 197.758 149.566 197.836V200.051ZM160.055 193.688H164.684C167.77 193.688 169.758 194.602 170.648 196.43C170.969 197.102 171.129 197.898 171.129 198.82C171.129 199.742 170.965 200.531 170.637 201.188C170.309 201.844 169.867 202.383 169.312 202.805C168.234 203.617 166.793 204.023 164.988 204.023H162.398V210H160.055V193.688ZM164.531 202.148C165.945 202.148 166.992 201.875 167.672 201.328C168.352 200.781 168.691 199.93 168.691 198.773C168.691 197.234 167.977 196.242 166.547 195.797C166.047 195.641 165.441 195.562 164.73 195.562H162.398V202.148H164.531ZM174.434 207.844C174.176 207.398 173.969 206.875 173.812 206.273C173.664 205.672 173.59 204.887 173.59 203.918C173.59 202.949 173.797 202.059 174.211 201.246C174.633 200.426 175.18 199.754 175.852 199.23C177.156 198.223 178.777 197.719 180.715 197.719C181.723 197.719 182.484 197.742 183 197.789C183 197.789 183.379 197.828 184.137 197.906V210H182.027L181.934 208.605C181.465 209.23 180.75 209.695 179.789 210C179.422 210.117 179.043 210.176 178.652 210.176C178.27 210.176 177.891 210.137 177.516 210.059C177.141 209.98 176.766 209.852 176.391 209.672C176.023 209.492 175.672 209.254 175.336 208.957C175 208.652 174.699 208.281 174.434 207.844ZM181.793 199.629C181.293 199.566 180.793 199.535 180.293 199.535C179.801 199.535 179.273 199.625 178.711 199.805C178.148 199.977 177.668 200.25 177.27 200.625C176.441 201.406 176.027 202.598 176.027 204.199C176.027 205.715 176.383 206.836 177.094 207.562C177.633 208.102 178.281 208.371 179.039 208.371C180.016 208.371 180.82 208.016 181.453 207.305C181.609 207.125 181.723 206.965 181.793 206.824V199.629ZM193.336 199.734C192.172 199.734 191.137 200.129 190.23 200.918V210H187.887V197.906H190.055L190.219 199.219C191.492 198.219 192.809 197.719 194.168 197.719C195.605 197.719 196.66 198.148 197.332 199.008C198.035 199.914 198.387 201.375 198.387 203.391V210H196.043V203.391C196.043 201.453 195.52 200.297 194.473 199.922C194.137 199.797 193.758 199.734 193.336 199.734ZM207.551 210.188C203.129 210.188 200.918 208.027 200.918 203.707C200.918 201.848 201.531 200.359 202.758 199.242C203.859 198.227 205.117 197.719 206.531 197.719C208.07 197.719 209.273 198.234 210.141 199.266C210.945 200.227 211.348 201.512 211.348 203.121V204.035H203.355C203.355 206.246 204.258 207.598 206.062 208.09C206.492 208.207 207.152 208.266 208.043 208.266C208.941 208.266 209.82 208.145 210.68 207.902V209.883C209.82 210.086 208.777 210.188 207.551 210.188ZM209.004 202.312C209.004 201.562 208.797 200.93 208.383 200.414C207.898 199.82 207.23 199.523 206.379 199.523C205.48 199.523 204.75 199.809 204.188 200.379C203.672 200.91 203.414 201.555 203.414 202.312H209.004ZM214.43 192.562H216.773V205.418C216.773 206.965 217.125 207.875 217.828 208.148C218.062 208.242 218.312 208.289 218.578 208.289C218.844 208.289 219.082 208.258 219.293 208.195V210L218.859 210.047C218.719 210.062 218.582 210.07 218.449 210.07C216.949 210.07 215.867 209.578 215.203 208.594C214.688 207.82 214.43 206.766 214.43 205.43V192.562ZM232.664 194.391C232.664 194.836 232.516 195.18 232.219 195.422C231.93 195.656 231.566 195.773 231.129 195.773C230.691 195.773 230.328 195.656 230.039 195.422C229.758 195.18 229.617 194.836 229.617 194.391C229.617 193.938 229.758 193.594 230.039 193.359C230.328 193.125 230.691 193.008 231.129 193.008C231.566 193.008 231.93 193.125 232.219 193.359C232.516 193.594 232.664 193.938 232.664 194.391ZM229.922 197.906H232.266V210H229.922V197.906ZM238.922 210.188C237.945 210.188 236.957 210.117 235.957 209.977V207.902C236.973 208.145 238.004 208.266 239.051 208.266C241.145 208.266 242.191 207.824 242.191 206.941C242.191 206.605 242.109 206.355 241.945 206.191C241.703 205.934 241.32 205.676 240.797 205.418L239.086 204.633C237.977 204.078 237.258 203.633 236.93 203.297C236.312 202.672 236.004 201.93 236.004 201.07C236.004 200.102 236.453 199.312 237.352 198.703C238.32 198.047 239.68 197.719 241.43 197.719C242.312 197.719 243.203 197.781 244.102 197.906V199.91C243.117 199.73 242.258 199.641 241.523 199.641C240.797 199.641 240.23 199.688 239.824 199.781C239.426 199.875 239.125 199.992 238.922 200.133C238.602 200.352 238.441 200.637 238.441 200.988C238.441 201.332 238.551 201.613 238.77 201.832C238.996 202.043 239.348 202.273 239.824 202.523L241.547 203.355C242.672 203.941 243.395 204.391 243.715 204.703C244.324 205.297 244.629 206.043 244.629 206.941C244.629 207.902 244.145 208.676 243.176 209.262C242.16 209.879 240.742 210.188 238.922 210.188ZM261.598 210.188C257.176 210.188 254.965 208.027 254.965 203.707C254.965 201.848 255.578 200.359 256.805 199.242C257.906 198.227 259.164 197.719 260.578 197.719C262.117 197.719 263.32 198.234 264.188 199.266C264.992 200.227 265.395 201.512 265.395 203.121V204.035H257.402C257.402 206.246 258.305 207.598 260.109 208.09C260.539 208.207 261.199 208.266 262.09 208.266C262.988 208.266 263.867 208.145 264.727 207.902V209.883C263.867 210.086 262.824 210.188 261.598 210.188ZM263.051 202.312C263.051 201.562 262.844 200.93 262.43 200.414C261.945 199.82 261.277 199.523 260.426 199.523C259.527 199.523 258.797 199.809 258.234 200.379C257.719 200.91 257.461 201.555 257.461 202.312H263.051ZM270.832 203.93L266.672 197.906H269.332L272.215 202.277L275.297 197.906H277.922L273.422 203.918L277.816 210H275.168L272.086 205.594L269.062 210H266.402L270.832 203.93ZM284.344 208.148C284.602 208.242 284.992 208.289 285.516 208.289C286.039 208.289 286.477 208.227 286.828 208.102V209.977C286.664 210.016 286.426 210.039 286.113 210.047L285.375 210.07C285.211 210.07 285.086 210.07 285 210.07C283.492 210.07 282.379 209.578 281.66 208.594C281.082 207.797 280.793 206.742 280.793 205.43V199.699H279.059V198.598L280.793 197.906L281.355 194.906H283.137V197.906H286.887V199.699H283.137V205.418C283.137 206.949 283.539 207.859 284.344 208.148ZM297.691 200.051C297.262 199.926 296.746 199.863 296.145 199.863C295.551 199.863 295.062 199.926 294.68 200.051C294.297 200.168 293.961 200.312 293.672 200.484C293.141 200.797 292.754 201.148 292.512 201.539V210H290.168V197.906H292.418L292.512 199.582C293.098 198.848 293.953 198.297 295.078 197.93C295.484 197.789 295.949 197.719 296.473 197.719C296.996 197.719 297.402 197.758 297.691 197.836V200.051ZM305.66 210.188C301.238 210.188 299.027 208.027 299.027 203.707C299.027 201.848 299.641 200.359 300.867 199.242C301.969 198.227 303.227 197.719 304.641 197.719C306.18 197.719 307.383 198.234 308.25 199.266C309.055 200.227 309.457 201.512 309.457 203.121V204.035H301.465C301.465 206.246 302.367 207.598 304.172 208.09C304.602 208.207 305.262 208.266 306.152 208.266C307.051 208.266 307.93 208.145 308.789 207.902V209.883C307.93 210.086 306.887 210.188 305.66 210.188ZM307.113 202.312C307.113 201.562 306.906 200.93 306.492 200.414C306.008 199.82 305.34 199.523 304.488 199.523C303.59 199.523 302.859 199.809 302.297 200.379C301.781 200.91 301.523 201.555 301.523 202.312H307.113ZM314.426 200.918L314.438 210H312.094V197.906H314.25L314.414 199.23C315.273 198.512 316.273 198.043 317.414 197.824C317.781 197.754 318.141 197.719 318.492 197.719C319.953 197.719 321.055 198.336 321.797 199.57C323.156 198.336 324.578 197.719 326.062 197.719C327.531 197.719 328.602 198.16 329.273 199.043C329.945 199.941 330.281 201.426 330.281 203.496V210H327.938V203.578C327.938 201.547 327.449 200.332 326.473 199.934C326.145 199.801 325.762 199.734 325.324 199.734C324.277 199.734 323.316 200.109 322.441 200.859V210H320.098V203.484C320.098 202.094 319.891 201.117 319.477 200.555C319.078 200.008 318.363 199.734 317.332 199.734C316.309 199.734 315.34 200.129 314.426 200.918ZM339.691 210.188C335.27 210.188 333.059 208.027 333.059 203.707C333.059 201.848 333.672 200.359 334.898 199.242C336 198.227 337.258 197.719 338.672 197.719C340.211 197.719 341.414 198.234 342.281 199.266C343.086 200.227 343.488 201.512 343.488 203.121V204.035H335.496C335.496 206.246 336.398 207.598 338.203 208.09C338.633 208.207 339.293 208.266 340.184 208.266C341.082 208.266 341.961 208.145 342.82 207.902V209.883C341.961 210.086 340.918 210.188 339.691 210.188ZM341.145 202.312C341.145 201.562 340.938 200.93 340.523 200.414C340.039 199.82 339.371 199.523 338.52 199.523C337.621 199.523 336.891 199.809 336.328 200.379C335.812 200.91 335.555 201.555 335.555 202.312H341.145ZM346.57 192.562H348.914V205.418C348.914 206.965 349.266 207.875 349.969 208.148C350.203 208.242 350.453 208.289 350.719 208.289C350.984 208.289 351.223 208.258 351.434 208.195V210L351 210.047C350.859 210.062 350.723 210.07 350.59 210.07C349.09 210.07 348.008 209.578 347.344 208.594C346.828 207.82 346.57 206.766 346.57 205.43V192.562ZM353.578 213C353.789 213.062 354.074 213.094 354.434 213.094C354.801 213.094 355.176 213.02 355.559 212.871C355.941 212.73 356.273 212.531 356.555 212.273C357.023 211.852 357.449 211.188 357.832 210.281L352.863 197.906H355.359L358.852 207.539L361.98 197.906H364.453L359.484 211.488C359.109 212.504 358.59 213.281 357.926 213.82C357.051 214.523 355.883 214.875 354.422 214.875C354.289 214.875 354.152 214.867 354.012 214.852L353.578 214.805V213ZM381.984 207.035V197.906H384.328V210H382.219L382.008 208.723C380.852 209.699 379.574 210.188 378.176 210.188C376.691 210.188 375.641 209.777 375.023 208.957C374.383 208.121 374.062 206.68 374.062 204.633V197.906H376.406V204.516C376.406 205.961 376.613 206.945 377.027 207.469C377.395 207.938 378.094 208.172 379.125 208.172C380.164 208.172 381.117 207.793 381.984 207.035ZM391.078 210.188C390.102 210.188 389.113 210.117 388.113 209.977V207.902C389.129 208.145 390.16 208.266 391.207 208.266C393.301 208.266 394.348 207.824 394.348 206.941C394.348 206.605 394.266 206.355 394.102 206.191C393.859 205.934 393.477 205.676 392.953 205.418L391.242 204.633C390.133 204.078 389.414 203.633 389.086 203.297C388.469 202.672 388.16 201.93 388.16 201.07C388.16 200.102 388.609 199.312 389.508 198.703C390.477 198.047 391.836 197.719 393.586 197.719C394.469 197.719 395.359 197.781 396.258 197.906V199.91C395.273 199.73 394.414 199.641 393.68 199.641C392.953 199.641 392.387 199.688 391.98 199.781C391.582 199.875 391.281 199.992 391.078 200.133C390.758 200.352 390.598 200.637 390.598 200.988C390.598 201.332 390.707 201.613 390.926 201.832C391.152 202.043 391.504 202.273 391.98 202.523L393.703 203.355C394.828 203.941 395.551 204.391 395.871 204.703C396.48 205.297 396.785 206.043 396.785 206.941C396.785 207.902 396.301 208.676 395.332 209.262C394.316 209.879 392.898 210.188 391.078 210.188ZM405.762 210.188C401.34 210.188 399.129 208.027 399.129 203.707C399.129 201.848 399.742 200.359 400.969 199.242C402.07 198.227 403.328 197.719 404.742 197.719C406.281 197.719 407.484 198.234 408.352 199.266C409.156 200.227 409.559 201.512 409.559 203.121V204.035H401.566C401.566 206.246 402.469 207.598 404.273 208.09C404.703 208.207 405.363 208.266 406.254 208.266C407.152 208.266 408.031 208.145 408.891 207.902V209.883C408.031 210.086 406.988 210.188 405.762 210.188ZM407.215 202.312C407.215 201.562 407.008 200.93 406.594 200.414C406.109 199.82 405.441 199.523 404.59 199.523C403.691 199.523 402.961 199.809 402.398 200.379C401.883 200.91 401.625 201.555 401.625 202.312H407.215ZM419.824 200.051C419.395 199.926 418.879 199.863 418.277 199.863C417.684 199.863 417.195 199.926 416.812 200.051C416.43 200.168 416.094 200.312 415.805 200.484C415.273 200.797 414.887 201.148 414.645 201.539V210H412.301V197.906H414.551L414.645 199.582C415.23 198.848 416.086 198.297 417.211 197.93C417.617 197.789 418.082 197.719 418.605 197.719C419.129 197.719 419.535 197.758 419.824 197.836V200.051ZM422.32 202.125H430.289V203.93H422.32V202.125ZM440.262 194.32C439.98 194.227 439.59 194.18 439.09 194.18C438.59 194.18 438.191 194.227 437.895 194.32C437.605 194.414 437.375 194.551 437.203 194.73C436.906 195.051 436.758 195.574 436.758 196.301V197.906H439.781V199.699H436.758V210H434.414V199.699H432.961V198.598L434.414 197.906V196.617C434.414 195.797 434.484 195.18 434.625 194.766C434.773 194.352 434.949 194.008 435.152 193.734C435.355 193.461 435.629 193.223 435.973 193.02C436.699 192.59 437.719 192.375 439.031 192.375C439.578 192.375 439.988 192.406 440.262 192.469V194.32ZM449.824 200.051C449.395 199.926 448.879 199.863 448.277 199.863C447.684 199.863 447.195 199.926 446.812 200.051C446.43 200.168 446.094 200.312 445.805 200.484C445.273 200.797 444.887 201.148 444.645 201.539V210H442.301V197.906H444.551L444.645 199.582C445.23 198.848 446.086 198.297 447.211 197.93C447.617 197.789 448.082 197.719 448.605 197.719C449.129 197.719 449.535 197.758 449.824 197.836V200.051ZM454.875 194.391C454.875 194.836 454.727 195.18 454.43 195.422C454.141 195.656 453.777 195.773 453.34 195.773C452.902 195.773 452.539 195.656 452.25 195.422C451.969 195.18 451.828 194.836 451.828 194.391C451.828 193.938 451.969 193.594 452.25 193.359C452.539 193.125 452.902 193.008 453.34 193.008C453.777 193.008 454.141 193.125 454.43 193.359C454.727 193.594 454.875 193.938 454.875 194.391ZM452.133 197.906H454.477V210H452.133V197.906ZM463.816 210.188C459.395 210.188 457.184 208.027 457.184 203.707C457.184 201.848 457.797 200.359 459.023 199.242C460.125 198.227 461.383 197.719 462.797 197.719C464.336 197.719 465.539 198.234 466.406 199.266C467.211 200.227 467.613 201.512 467.613 203.121V204.035H459.621C459.621 206.246 460.523 207.598 462.328 208.09C462.758 208.207 463.418 208.266 464.309 208.266C465.207 208.266 466.086 208.145 466.945 207.902V209.883C466.086 210.086 465.043 210.188 463.816 210.188ZM465.27 202.312C465.27 201.562 465.062 200.93 464.648 200.414C464.164 199.82 463.496 199.523 462.645 199.523C461.746 199.523 461.016 199.809 460.453 200.379C459.938 200.91 459.68 201.555 459.68 202.312H465.27ZM475.641 199.734C474.477 199.734 473.441 200.129 472.535 200.918V210H470.191V197.906H472.359L472.523 199.219C473.797 198.219 475.113 197.719 476.473 197.719C477.91 197.719 478.965 198.148 479.637 199.008C480.34 199.914 480.691 201.375 480.691 203.391V210H478.348V203.391C478.348 201.453 477.824 200.297 476.777 199.922C476.441 199.797 476.062 199.734 475.641 199.734ZM486.035 199.23C486.715 198.707 487.477 198.324 488.32 198.082C489.172 197.84 489.914 197.719 490.547 197.719C491.18 197.719 491.668 197.734 492.012 197.766V192.562H494.344V210H492.246L492.152 208.605C491.676 209.238 490.953 209.707 489.984 210.012C489.609 210.129 489.227 210.188 488.836 210.188C488.453 210.188 488.074 210.148 487.699 210.07C487.324 209.992 486.949 209.863 486.574 209.684C486.207 209.496 485.855 209.254 485.52 208.957C485.184 208.652 484.883 208.281 484.617 207.844C484.055 206.883 483.773 205.746 483.773 204.434C483.773 203.121 483.98 202.059 484.395 201.246C484.816 200.426 485.363 199.754 486.035 199.23ZM487.453 200.625C487.055 201 486.746 201.484 486.527 202.078C486.316 202.664 486.211 203.379 486.211 204.223C486.211 205.059 486.312 205.75 486.516 206.297C486.719 206.836 486.973 207.258 487.277 207.562C487.816 208.109 488.465 208.383 489.223 208.383C490.199 208.383 491.008 208.023 491.648 207.305C491.812 207.125 491.93 206.965 492 206.824V199.617L491.766 199.594C491.406 199.547 490.977 199.523 490.477 199.523C489.984 199.523 489.457 199.613 488.895 199.793C488.332 199.965 487.852 200.242 487.453 200.625ZM498.703 192.562H501.047V205.418C501.047 206.965 501.398 207.875 502.102 208.148C502.336 208.242 502.586 208.289 502.852 208.289C503.117 208.289 503.355 208.258 503.566 208.195V210L503.133 210.047C502.992 210.062 502.855 210.07 502.723 210.07C501.223 210.07 500.141 209.578 499.477 208.594C498.961 207.82 498.703 206.766 498.703 205.43V192.562ZM505.711 213C505.922 213.062 506.207 213.094 506.566 213.094C506.934 213.094 507.309 213.02 507.691 212.871C508.074 212.73 508.406 212.531 508.688 212.273C509.156 211.852 509.582 211.188 509.965 210.281L504.996 197.906H507.492L510.984 207.539L514.113 197.906H516.586L511.617 211.488C511.242 212.504 510.723 213.281 510.059 213.82C509.184 214.523 508.016 214.875 506.555 214.875C506.422 214.875 506.285 214.867 506.145 214.852L505.711 214.805V213ZM44.3555 237.844C44.0977 237.398 43.8906 236.875 43.7344 236.273C43.5859 235.672 43.5117 234.887 43.5117 233.918C43.5117 232.949 43.7188 232.059 44.1328 231.246C44.5547 230.426 45.1016 229.754 45.7734 229.23C47.0781 228.223 48.6992 227.719 50.6367 227.719C51.6445 227.719 52.4062 227.742 52.9219 227.789C52.9219 227.789 53.3008 227.828 54.0586 227.906V240H51.9492L51.8555 238.605C51.3867 239.23 50.6719 239.695 49.7109 240C49.3438 240.117 48.9648 240.176 48.5742 240.176C48.1914 240.176 47.8125 240.137 47.4375 240.059C47.0625 239.98 46.6875 239.852 46.3125 239.672C45.9453 239.492 45.5938 239.254 45.2578 238.957C44.9219 238.652 44.6211 238.281 44.3555 237.844ZM51.7148 229.629C51.2148 229.566 50.7148 229.535 50.2148 229.535C49.7227 229.535 49.1953 229.625 48.6328 229.805C48.0703 229.977 47.5898 230.25 47.1914 230.625C46.3633 231.406 45.9492 232.598 45.9492 234.199C45.9492 235.715 46.3047 236.836 47.0156 237.562C47.5547 238.102 48.2031 238.371 48.9609 238.371C49.9375 238.371 50.7422 238.016 51.375 237.305C51.5312 237.125 51.6445 236.965 51.7148 236.824V229.629ZM63.2578 229.734C62.0938 229.734 61.0586 230.129 60.1523 230.918V240H57.8086V227.906H59.9766L60.1406 229.219C61.4141 228.219 62.7305 227.719 64.0898 227.719C65.5273 227.719 66.582 228.148 67.2539 229.008C67.957 229.914 68.3086 231.375 68.3086 233.391V240H65.9648V233.391C65.9648 231.453 65.4414 230.297 64.3945 229.922C64.0586 229.797 63.6797 229.734 63.2578 229.734ZM73.6523 229.23C74.332 228.707 75.0938 228.324 75.9375 228.082C76.7891 227.84 77.5312 227.719 78.1641 227.719C78.7969 227.719 79.2852 227.734 79.6289 227.766V222.562H81.9609V240H79.8633L79.7695 238.605C79.293 239.238 78.5703 239.707 77.6016 240.012C77.2266 240.129 76.8438 240.188 76.4531 240.188C76.0703 240.188 75.6914 240.148 75.3164 240.07C74.9414 239.992 74.5664 239.863 74.1914 239.684C73.8242 239.496 73.4727 239.254 73.1367 238.957C72.8008 238.652 72.5 238.281 72.2344 237.844C71.6719 236.883 71.3906 235.746 71.3906 234.434C71.3906 233.121 71.5977 232.059 72.0117 231.246C72.4336 230.426 72.9805 229.754 73.6523 229.23ZM75.0703 230.625C74.6719 231 74.3633 231.484 74.1445 232.078C73.9336 232.664 73.8281 233.379 73.8281 234.223C73.8281 235.059 73.9297 235.75 74.1328 236.297C74.3359 236.836 74.5898 237.258 74.8945 237.562C75.4336 238.109 76.082 238.383 76.8398 238.383C77.8164 238.383 78.625 238.023 79.2656 237.305C79.4297 237.125 79.5469 236.965 79.6172 236.824V229.617L79.3828 229.594C79.0234 229.547 78.5938 229.523 78.0938 229.523C77.6016 229.523 77.0742 229.613 76.5117 229.793C75.9492 229.965 75.4688 230.242 75.0703 230.625ZM102.492 239.965C102.023 240.113 101.211 240.188 100.055 240.188C98.8984 240.188 97.9141 240.047 97.1016 239.766C96.2969 239.484 95.6094 239.07 95.0391 238.523C93.8594 237.391 93.2695 235.82 93.2695 233.812C93.2695 231.867 93.9766 230.336 95.3906 229.219C96.6562 228.219 98.2109 227.719 100.055 227.719C101.195 227.719 101.977 227.758 102.398 227.836V229.922C101.742 229.711 100.992 229.605 100.148 229.605C99.3125 229.605 98.6172 229.723 98.0625 229.957C97.5078 230.184 97.0547 230.492 96.7031 230.883C96.0391 231.625 95.707 232.602 95.707 233.812C95.707 235.859 96.4453 237.223 97.9219 237.902C98.4453 238.145 98.957 238.266 99.457 238.266C99.957 238.266 100.34 238.254 100.605 238.23C100.879 238.207 101.137 238.176 101.379 238.137C101.895 238.051 102.266 237.961 102.492 237.867V239.965ZM106.324 237.844C106.066 237.398 105.859 236.875 105.703 236.273C105.555 235.672 105.48 234.887 105.48 233.918C105.48 232.949 105.688 232.059 106.102 231.246C106.523 230.426 107.07 229.754 107.742 229.23C109.047 228.223 110.668 227.719 112.605 227.719C113.613 227.719 114.375 227.742 114.891 227.789C114.891 227.789 115.27 227.828 116.027 227.906V240H113.918L113.824 238.605C113.355 239.23 112.641 239.695 111.68 240C111.312 240.117 110.934 240.176 110.543 240.176C110.16 240.176 109.781 240.137 109.406 240.059C109.031 239.98 108.656 239.852 108.281 239.672C107.914 239.492 107.562 239.254 107.227 238.957C106.891 238.652 106.59 238.281 106.324 237.844ZM113.684 229.629C113.184 229.566 112.684 229.535 112.184 229.535C111.691 229.535 111.164 229.625 110.602 229.805C110.039 229.977 109.559 230.25 109.16 230.625C108.332 231.406 107.918 232.598 107.918 234.199C107.918 235.715 108.273 236.836 108.984 237.562C109.523 238.102 110.172 238.371 110.93 238.371C111.906 238.371 112.711 238.016 113.344 237.305C113.5 237.125 113.613 236.965 113.684 236.824V229.629ZM125.227 229.734C124.062 229.734 123.027 230.129 122.121 230.918V240H119.777V227.906H121.945L122.109 229.219C123.383 228.219 124.699 227.719 126.059 227.719C127.496 227.719 128.551 228.148 129.223 229.008C129.926 229.914 130.277 231.375 130.277 233.391V240H127.934V233.391C127.934 231.453 127.41 230.297 126.363 229.922C126.027 229.797 125.648 229.734 125.227 229.734ZM150.246 238.652C149.574 239.176 148.812 239.562 147.961 239.812C147.117 240.055 146.203 240.176 145.219 240.176C144.242 240.176 143.148 240.117 141.938 240V222.562H144.281V229.113C144.797 228.527 145.512 228.109 146.426 227.859C146.77 227.766 147.121 227.719 147.48 227.719C147.848 227.719 148.219 227.758 148.594 227.836C148.969 227.906 149.34 228.031 149.707 228.211C150.082 228.391 150.438 228.629 150.773 228.926C151.109 229.223 151.406 229.594 151.664 230.039C152.234 230.992 152.52 232.125 152.52 233.438C152.52 234.742 152.309 235.805 151.887 236.625C151.473 237.445 150.926 238.121 150.246 238.652ZM144.293 238.277C144.512 238.34 144.941 238.371 145.582 238.371C146.223 238.371 146.824 238.281 147.387 238.102C147.949 237.922 148.43 237.641 148.828 237.258C149.664 236.453 150.082 235.254 150.082 233.66C150.082 231.715 149.516 230.441 148.383 229.84C147.977 229.629 147.562 229.523 147.141 229.523C146.719 229.523 146.352 229.578 146.039 229.688C145.727 229.797 145.453 229.93 145.219 230.086C144.773 230.391 144.465 230.719 144.293 231.07V238.277ZM161.402 240.188C156.98 240.188 154.77 238.027 154.77 233.707C154.77 231.848 155.383 230.359 156.609 229.242C157.711 228.227 158.969 227.719 160.383 227.719C161.922 227.719 163.125 228.234 163.992 229.266C164.797 230.227 165.199 231.512 165.199 233.121V234.035H157.207C157.207 236.246 158.109 237.598 159.914 238.09C160.344 238.207 161.004 238.266 161.895 238.266C162.793 238.266 163.672 238.145 164.531 237.902V239.883C163.672 240.086 162.629 240.188 161.402 240.188ZM162.855 232.312C162.855 231.562 162.648 230.93 162.234 230.414C161.75 229.82 161.082 229.523 160.23 229.523C159.332 229.523 158.602 229.809 158.039 230.379C157.523 230.91 157.266 231.555 157.266 232.312H162.855ZM183.656 237.035V227.906H186V240H183.891L183.68 238.723C182.523 239.699 181.246 240.188 179.848 240.188C178.363 240.188 177.312 239.777 176.695 238.957C176.055 238.121 175.734 236.68 175.734 234.633V227.906H178.078V234.516C178.078 235.961 178.285 236.945 178.699 237.469C179.066 237.938 179.766 238.172 180.797 238.172C181.836 238.172 182.789 237.793 183.656 237.035ZM192.75 240.188C191.773 240.188 190.785 240.117 189.785 239.977V237.902C190.801 238.145 191.832 238.266 192.879 238.266C194.973 238.266 196.02 237.824 196.02 236.941C196.02 236.605 195.938 236.355 195.773 236.191C195.531 235.934 195.148 235.676 194.625 235.418L192.914 234.633C191.805 234.078 191.086 233.633 190.758 233.297C190.141 232.672 189.832 231.93 189.832 231.07C189.832 230.102 190.281 229.312 191.18 228.703C192.148 228.047 193.508 227.719 195.258 227.719C196.141 227.719 197.031 227.781 197.93 227.906V229.91C196.945 229.73 196.086 229.641 195.352 229.641C194.625 229.641 194.059 229.688 193.652 229.781C193.254 229.875 192.953 229.992 192.75 230.133C192.43 230.352 192.27 230.637 192.27 230.988C192.27 231.332 192.379 231.613 192.598 231.832C192.824 232.043 193.176 232.273 193.652 232.523L195.375 233.355C196.5 233.941 197.223 234.391 197.543 234.703C198.152 235.297 198.457 236.043 198.457 236.941C198.457 237.902 197.973 238.676 197.004 239.262C195.988 239.879 194.57 240.188 192.75 240.188ZM207.434 240.188C203.012 240.188 200.801 238.027 200.801 233.707C200.801 231.848 201.414 230.359 202.641 229.242C203.742 228.227 205 227.719 206.414 227.719C207.953 227.719 209.156 228.234 210.023 229.266C210.828 230.227 211.23 231.512 211.23 233.121V234.035H203.238C203.238 236.246 204.141 237.598 205.945 238.09C206.375 238.207 207.035 238.266 207.926 238.266C208.824 238.266 209.703 238.145 210.562 237.902V239.883C209.703 240.086 208.66 240.188 207.434 240.188ZM208.887 232.312C208.887 231.562 208.68 230.93 208.266 230.414C207.781 229.82 207.113 229.523 206.262 229.523C205.363 229.523 204.633 229.809 204.07 230.379C203.555 230.91 203.297 231.555 203.297 232.312H208.887ZM215.637 229.23C216.316 228.707 217.078 228.324 217.922 228.082C218.773 227.84 219.516 227.719 220.148 227.719C220.781 227.719 221.27 227.734 221.613 227.766V222.562H223.945V240H221.848L221.754 238.605C221.277 239.238 220.555 239.707 219.586 240.012C219.211 240.129 218.828 240.188 218.438 240.188C218.055 240.188 217.676 240.148 217.301 240.07C216.926 239.992 216.551 239.863 216.176 239.684C215.809 239.496 215.457 239.254 215.121 238.957C214.785 238.652 214.484 238.281 214.219 237.844C213.656 236.883 213.375 235.746 213.375 234.434C213.375 233.121 213.582 232.059 213.996 231.246C214.418 230.426 214.965 229.754 215.637 229.23ZM217.055 230.625C216.656 231 216.348 231.484 216.129 232.078C215.918 232.664 215.812 233.379 215.812 234.223C215.812 235.059 215.914 235.75 216.117 236.297C216.32 236.836 216.574 237.258 216.879 237.562C217.418 238.109 218.066 238.383 218.824 238.383C219.801 238.383 220.609 238.023 221.25 237.305C221.414 237.125 221.531 236.965 221.602 236.824V229.617L221.367 229.594C221.008 229.547 220.578 229.523 220.078 229.523C219.586 229.523 219.059 229.613 218.496 229.793C217.934 229.965 217.453 230.242 217.055 230.625ZM244.254 238.652C243.582 239.176 242.82 239.562 241.969 239.812C241.125 240.055 240.211 240.176 239.227 240.176C238.25 240.176 237.156 240.117 235.945 240V222.562H238.289V229.113C238.805 228.527 239.52 228.109 240.434 227.859C240.777 227.766 241.129 227.719 241.488 227.719C241.855 227.719 242.227 227.758 242.602 227.836C242.977 227.906 243.348 228.031 243.715 228.211C244.09 228.391 244.445 228.629 244.781 228.926C245.117 229.223 245.414 229.594 245.672 230.039C246.242 230.992 246.527 232.125 246.527 233.438C246.527 234.742 246.316 235.805 245.895 236.625C245.48 237.445 244.934 238.121 244.254 238.652ZM238.301 238.277C238.52 238.34 238.949 238.371 239.59 238.371C240.23 238.371 240.832 238.281 241.395 238.102C241.957 237.922 242.438 237.641 242.836 237.258C243.672 236.453 244.09 235.254 244.09 233.66C244.09 231.715 243.523 230.441 242.391 229.84C241.984 229.629 241.57 229.523 241.148 229.523C240.727 229.523 240.359 229.578 240.047 229.688C239.734 229.797 239.461 229.93 239.227 230.086C238.781 230.391 238.473 230.719 238.301 231.07V238.277ZM249.258 243C249.469 243.062 249.754 243.094 250.113 243.094C250.48 243.094 250.855 243.02 251.238 242.871C251.621 242.73 251.953 242.531 252.234 242.273C252.703 241.852 253.129 241.188 253.512 240.281L248.543 227.906H251.039L254.531 237.539L257.66 227.906H260.133L255.164 241.488C254.789 242.504 254.27 243.281 253.605 243.82C252.73 244.523 251.562 244.875 250.102 244.875C249.969 244.875 249.832 244.867 249.691 244.852L249.258 244.805V243ZM274.125 238.148C274.383 238.242 274.773 238.289 275.297 238.289C275.82 238.289 276.258 238.227 276.609 238.102V239.977C276.445 240.016 276.207 240.039 275.895 240.047L275.156 240.07C274.992 240.07 274.867 240.07 274.781 240.07C273.273 240.07 272.16 239.578 271.441 238.594C270.863 237.797 270.574 236.742 270.574 235.43V229.699H268.84V228.598L270.574 227.906L271.137 224.906H272.918V227.906H276.668V229.699H272.918V235.418C272.918 236.949 273.32 237.859 274.125 238.148ZM285.223 229.734C284.066 229.734 283.035 230.129 282.129 230.918V240H279.785V222.562H282.129V229.207C283.395 228.215 284.703 227.719 286.055 227.719C287.5 227.719 288.559 228.148 289.23 229.008C289.934 229.914 290.285 231.375 290.285 233.391V240H287.941V233.391C287.941 231.453 287.414 230.297 286.359 229.922C286.023 229.797 285.645 229.734 285.223 229.734ZM292.992 233.93C292.992 232.031 293.598 230.492 294.809 229.312C295.941 228.211 297.344 227.66 299.016 227.66C300.656 227.66 302.027 228.211 303.129 229.312C304.301 230.484 304.887 232.023 304.887 233.93C304.887 235.828 304.297 237.359 303.117 238.523C302 239.633 300.629 240.188 299.004 240.188C297.355 240.188 295.957 239.633 294.809 238.523C293.598 237.359 292.992 235.828 292.992 233.93ZM295.43 233.93C295.43 235.93 296.07 237.289 297.352 238.008C297.805 238.258 298.348 238.383 298.98 238.383C299.613 238.383 300.148 238.258 300.586 238.008C301.023 237.75 301.383 237.414 301.664 237C302.188 236.203 302.449 235.18 302.449 233.93C302.449 231.945 301.82 230.586 300.562 229.852C300.125 229.594 299.602 229.465 298.992 229.465C298.383 229.465 297.852 229.594 297.398 229.852C296.953 230.102 296.586 230.434 296.297 230.848C295.719 231.66 295.43 232.688 295.43 233.93ZM310.734 240.188C309.758 240.188 308.77 240.117 307.77 239.977V237.902C308.785 238.145 309.816 238.266 310.863 238.266C312.957 238.266 314.004 237.824 314.004 236.941C314.004 236.605 313.922 236.355 313.758 236.191C313.516 235.934 313.133 235.676 312.609 235.418L310.898 234.633C309.789 234.078 309.07 233.633 308.742 233.297C308.125 232.672 307.816 231.93 307.816 231.07C307.816 230.102 308.266 229.312 309.164 228.703C310.133 228.047 311.492 227.719 313.242 227.719C314.125 227.719 315.016 227.781 315.914 227.906V229.91C314.93 229.73 314.07 229.641 313.336 229.641C312.609 229.641 312.043 229.688 311.637 229.781C311.238 229.875 310.938 229.992 310.734 230.133C310.414 230.352 310.254 230.637 310.254 230.988C310.254 231.332 310.363 231.613 310.582 231.832C310.809 232.043 311.16 232.273 311.637 232.523L313.359 233.355C314.484 233.941 315.207 234.391 315.527 234.703C316.137 235.297 316.441 236.043 316.441 236.941C316.441 237.902 315.957 238.676 314.988 239.262C313.973 239.879 312.555 240.188 310.734 240.188ZM325.418 240.188C320.996 240.188 318.785 238.027 318.785 233.707C318.785 231.848 319.398 230.359 320.625 229.242C321.727 228.227 322.984 227.719 324.398 227.719C325.938 227.719 327.141 228.234 328.008 229.266C328.812 230.227 329.215 231.512 329.215 233.121V234.035H321.223C321.223 236.246 322.125 237.598 323.93 238.09C324.359 238.207 325.02 238.266 325.91 238.266C326.809 238.266 327.688 238.145 328.547 237.902V239.883C327.688 240.086 326.645 240.188 325.418 240.188ZM326.871 232.312C326.871 231.562 326.664 230.93 326.25 230.414C325.766 229.82 325.098 229.523 324.246 229.523C323.348 229.523 322.617 229.809 322.055 230.379C321.539 230.91 321.281 231.555 321.281 232.312H326.871ZM338.156 227.906H340.652L343.758 237.516L346.898 227.906H349.336L352.512 237.48L355.465 227.906H357.785L353.719 240H351.305L348.047 230.836L344.965 240H342.551L338.156 227.906ZM362.531 224.391C362.531 224.836 362.383 225.18 362.086 225.422C361.797 225.656 361.434 225.773 360.996 225.773C360.559 225.773 360.195 225.656 359.906 225.422C359.625 225.18 359.484 224.836 359.484 224.391C359.484 223.938 359.625 223.594 359.906 223.359C360.195 223.125 360.559 223.008 360.996 223.008C361.434 223.008 361.797 223.125 362.086 223.359C362.383 223.594 362.531 223.938 362.531 224.391ZM359.789 227.906H362.133V240H359.789V227.906ZM370.172 238.148C370.43 238.242 370.82 238.289 371.344 238.289C371.867 238.289 372.305 238.227 372.656 238.102V239.977C372.492 240.016 372.254 240.039 371.941 240.047L371.203 240.07C371.039 240.07 370.914 240.07 370.828 240.07C369.32 240.07 368.207 239.578 367.488 238.594C366.91 237.797 366.621 236.742 366.621 235.43V229.699H364.887V228.598L366.621 227.906L367.184 224.906H368.965V227.906H372.715V229.699H368.965V235.418C368.965 236.949 369.367 237.859 370.172 238.148ZM381.27 229.734C380.113 229.734 379.082 230.129 378.176 230.918V240H375.832V222.562H378.176V229.207C379.441 228.215 380.75 227.719 382.102 227.719C383.547 227.719 384.605 228.148 385.277 229.008C385.98 229.914 386.332 231.375 386.332 233.391V240H383.988V233.391C383.988 231.453 383.461 230.297 382.406 229.922C382.07 229.797 381.691 229.734 381.27 229.734ZM398.32 222.562H400.664V235.418C400.664 236.965 401.016 237.875 401.719 238.148C401.953 238.242 402.203 238.289 402.469 238.289C402.734 238.289 402.973 238.258 403.184 238.195V240L402.75 240.047C402.609 240.062 402.473 240.07 402.34 240.07C400.84 240.07 399.758 239.578 399.094 238.594C398.578 237.82 398.32 236.766 398.32 235.43V222.562ZM408.562 224.391C408.562 224.836 408.414 225.18 408.117 225.422C407.828 225.656 407.465 225.773 407.027 225.773C406.59 225.773 406.227 225.656 405.938 225.422C405.656 225.18 405.516 224.836 405.516 224.391C405.516 223.938 405.656 223.594 405.938 223.359C406.227 223.125 406.59 223.008 407.027 223.008C407.465 223.008 407.828 223.125 408.117 223.359C408.414 223.594 408.562 223.938 408.562 224.391ZM405.82 227.906H408.164V240H405.82V227.906ZM416.203 238.148C416.461 238.242 416.852 238.289 417.375 238.289C417.898 238.289 418.336 238.227 418.688 238.102V239.977C418.523 240.016 418.285 240.039 417.973 240.047L417.234 240.07C417.07 240.07 416.945 240.07 416.859 240.07C415.352 240.07 414.238 239.578 413.52 238.594C412.941 237.797 412.652 236.742 412.652 235.43V229.699H410.918V228.598L412.652 227.906L413.215 224.906H414.996V227.906H418.746V229.699H414.996V235.418C414.996 236.949 415.398 237.859 416.203 238.148ZM426.211 238.148C426.469 238.242 426.859 238.289 427.383 238.289C427.906 238.289 428.344 238.227 428.695 238.102V239.977C428.531 240.016 428.293 240.039 427.98 240.047L427.242 240.07C427.078 240.07 426.953 240.07 426.867 240.07C425.359 240.07 424.246 239.578 423.527 238.594C422.949 237.797 422.66 236.742 422.66 235.43V229.699H420.926V228.598L422.66 227.906L423.223 224.906H425.004V227.906H428.754V229.699H425.004V235.418C425.004 236.949 425.406 237.859 426.211 238.148ZM432.375 222.562H434.719V235.418C434.719 236.965 435.07 237.875 435.773 238.148C436.008 238.242 436.258 238.289 436.523 238.289C436.789 238.289 437.027 238.258 437.238 238.195V240L436.805 240.047C436.664 240.062 436.527 240.07 436.395 240.07C434.895 240.07 433.812 239.578 433.148 238.594C432.633 237.82 432.375 236.766 432.375 235.43V222.562ZM445.535 240.188C441.113 240.188 438.902 238.027 438.902 233.707C438.902 231.848 439.516 230.359 440.742 229.242C441.844 228.227 443.102 227.719 444.516 227.719C446.055 227.719 447.258 228.234 448.125 229.266C448.93 230.227 449.332 231.512 449.332 233.121V234.035H441.34C441.34 236.246 442.242 237.598 444.047 238.09C444.477 238.207 445.137 238.266 446.027 238.266C446.926 238.266 447.805 238.145 448.664 237.902V239.883C447.805 240.086 446.762 240.188 445.535 240.188ZM446.988 232.312C446.988 231.562 446.781 230.93 446.367 230.414C445.883 229.82 445.215 229.523 444.363 229.523C443.465 229.523 442.734 229.809 442.172 230.379C441.656 230.91 441.398 231.555 441.398 232.312H446.988ZM49.4648 270.188C45.043 270.188 42.832 268.027 42.832 263.707C42.832 261.848 43.4453 260.359 44.6719 259.242C45.7734 258.227 47.0312 257.719 48.4453 257.719C49.9844 257.719 51.1875 258.234 52.0547 259.266C52.8594 260.227 53.2617 261.512 53.2617 263.121V264.035H45.2695C45.2695 266.246 46.1719 267.598 47.9766 268.09C48.4062 268.207 49.0664 268.266 49.957 268.266C50.8555 268.266 51.7344 268.145 52.5938 267.902V269.883C51.7344 270.086 50.6914 270.188 49.4648 270.188ZM50.918 262.312C50.918 261.562 50.7109 260.93 50.2969 260.414C49.8125 259.82 49.1445 259.523 48.293 259.523C47.3945 259.523 46.6641 259.809 46.1016 260.379C45.5859 260.91 45.3281 261.555 45.3281 262.312H50.918ZM58.6992 263.93L54.5391 257.906H57.1992L60.082 262.277L63.1641 257.906H65.7891L61.2891 263.918L65.6836 270H63.0352L59.9531 265.594L56.9297 270H54.2695L58.6992 263.93ZM70.3828 274.688H68.0391V257.906H70.1484L70.2422 259.289C70.7109 258.664 71.4297 258.199 72.3984 257.895C72.7734 257.777 73.1523 257.719 73.5352 257.719C73.9258 257.719 74.3086 257.762 74.6836 257.848C75.0586 257.926 75.4297 258.059 75.7969 258.246C76.1641 258.426 76.5156 258.668 76.8516 258.973C77.1875 259.27 77.4844 259.641 77.7422 260.086C78.3047 261.047 78.5859 262.238 78.5859 263.66C78.5859 265.832 77.8359 267.492 76.3359 268.641C75.0078 269.664 73.3906 270.176 71.4844 270.176H70.8984C70.7109 270.176 70.5391 270.172 70.3828 270.164V274.688ZM70.3828 268.266C70.6016 268.328 71.0312 268.359 71.6719 268.359C72.3125 268.359 72.9141 268.27 73.4766 268.09C74.0391 267.91 74.5156 267.633 74.9062 267.258C75.7344 266.461 76.1484 265.262 76.1484 263.66C76.1484 262.152 75.7891 261.039 75.0703 260.32C74.5391 259.789 73.8906 259.523 73.125 259.523C72.1641 259.523 71.3672 259.879 70.7344 260.59C70.5703 260.77 70.4531 260.93 70.3828 261.07V268.266ZM87.5273 270.188C83.1055 270.188 80.8945 268.027 80.8945 263.707C80.8945 261.848 81.5078 260.359 82.7344 259.242C83.8359 258.227 85.0938 257.719 86.5078 257.719C88.0469 257.719 89.25 258.234 90.1172 259.266C90.9219 260.227 91.3242 261.512 91.3242 263.121V264.035H83.332C83.332 266.246 84.2344 267.598 86.0391 268.09C86.4688 268.207 87.1289 268.266 88.0195 268.266C88.918 268.266 89.7969 268.145 90.6562 267.902V269.883C89.7969 270.086 88.7539 270.188 87.5273 270.188ZM88.9805 262.312C88.9805 261.562 88.7734 260.93 88.3594 260.414C87.875 259.82 87.207 259.523 86.3555 259.523C85.457 259.523 84.7266 259.809 84.1641 260.379C83.6484 260.91 83.3906 261.555 83.3906 262.312H88.9805ZM101.59 260.051C101.16 259.926 100.645 259.863 100.043 259.863C99.4492 259.863 98.9609 259.926 98.5781 260.051C98.1953 260.168 97.8594 260.312 97.5703 260.484C97.0391 260.797 96.6523 261.148 96.4102 261.539V270H94.0664V257.906H96.3164L96.4102 259.582C96.9961 258.848 97.8516 258.297 98.9766 257.93C99.3828 257.789 99.8477 257.719 100.371 257.719C100.895 257.719 101.301 257.758 101.59 257.836V260.051ZM106.641 254.391C106.641 254.836 106.492 255.18 106.195 255.422C105.906 255.656 105.543 255.773 105.105 255.773C104.668 255.773 104.305 255.656 104.016 255.422C103.734 255.18 103.594 254.836 103.594 254.391C103.594 253.938 103.734 253.594 104.016 253.359C104.305 253.125 104.668 253.008 105.105 253.008C105.543 253.008 105.906 253.125 106.195 253.359C106.492 253.594 106.641 253.938 106.641 254.391ZM103.898 257.906H106.242V270H103.898V257.906ZM115.582 270.188C111.16 270.188 108.949 268.027 108.949 263.707C108.949 261.848 109.562 260.359 110.789 259.242C111.891 258.227 113.148 257.719 114.562 257.719C116.102 257.719 117.305 258.234 118.172 259.266C118.977 260.227 119.379 261.512 119.379 263.121V264.035H111.387C111.387 266.246 112.289 267.598 114.094 268.09C114.523 268.207 115.184 268.266 116.074 268.266C116.973 268.266 117.852 268.145 118.711 267.902V269.883C117.852 270.086 116.809 270.188 115.582 270.188ZM117.035 262.312C117.035 261.562 116.828 260.93 116.414 260.414C115.93 259.82 115.262 259.523 114.41 259.523C113.512 259.523 112.781 259.809 112.219 260.379C111.703 260.91 111.445 261.555 111.445 262.312H117.035ZM127.406 259.734C126.242 259.734 125.207 260.129 124.301 260.918V270H121.957V257.906H124.125L124.289 259.219C125.562 258.219 126.879 257.719 128.238 257.719C129.676 257.719 130.73 258.148 131.402 259.008C132.105 259.914 132.457 261.375 132.457 263.391V270H130.113V263.391C130.113 261.453 129.59 260.297 128.543 259.922C128.207 259.797 127.828 259.734 127.406 259.734ZM144.656 269.965C144.188 270.113 143.375 270.188 142.219 270.188C141.062 270.188 140.078 270.047 139.266 269.766C138.461 269.484 137.773 269.07 137.203 268.523C136.023 267.391 135.434 265.82 135.434 263.812C135.434 261.867 136.141 260.336 137.555 259.219C138.82 258.219 140.375 257.719 142.219 257.719C143.359 257.719 144.141 257.758 144.562 257.836V259.922C143.906 259.711 143.156 259.605 142.312 259.605C141.477 259.605 140.781 259.723 140.227 259.957C139.672 260.184 139.219 260.492 138.867 260.883C138.203 261.625 137.871 262.602 137.871 263.812C137.871 265.859 138.609 267.223 140.086 267.902C140.609 268.145 141.121 268.266 141.621 268.266C142.121 268.266 142.504 268.254 142.77 268.23C143.043 268.207 143.301 268.176 143.543 268.137C144.059 268.051 144.43 267.961 144.656 267.867V269.965ZM153.598 270.188C149.176 270.188 146.965 268.027 146.965 263.707C146.965 261.848 147.578 260.359 148.805 259.242C149.906 258.227 151.164 257.719 152.578 257.719C154.117 257.719 155.32 258.234 156.188 259.266C156.992 260.227 157.395 261.512 157.395 263.121V264.035H149.402C149.402 266.246 150.305 267.598 152.109 268.09C152.539 268.207 153.199 268.266 154.09 268.266C154.988 268.266 155.867 268.145 156.727 267.902V269.883C155.867 270.086 154.824 270.188 153.598 270.188ZM155.051 262.312C155.051 261.562 154.844 260.93 154.43 260.414C153.945 259.82 153.277 259.523 152.426 259.523C151.527 259.523 150.797 259.809 150.234 260.379C149.719 260.91 149.461 261.555 149.461 262.312H155.051ZM170.695 254.391C170.695 254.836 170.547 255.18 170.25 255.422C169.961 255.656 169.598 255.773 169.16 255.773C168.723 255.773 168.359 255.656 168.07 255.422C167.789 255.18 167.648 254.836 167.648 254.391C167.648 253.938 167.789 253.594 168.07 253.359C168.359 253.125 168.723 253.008 169.16 253.008C169.598 253.008 169.961 253.125 170.25 253.359C170.547 253.594 170.695 253.938 170.695 254.391ZM167.953 257.906H170.297V270H167.953V257.906ZM179.438 259.734C178.273 259.734 177.238 260.129 176.332 260.918V270H173.988V257.906H176.156L176.32 259.219C177.594 258.219 178.91 257.719 180.27 257.719C181.707 257.719 182.762 258.148 183.434 259.008C184.137 259.914 184.488 261.375 184.488 263.391V270H182.145V263.391C182.145 261.453 181.621 260.297 180.574 259.922C180.238 259.797 179.859 259.734 179.438 259.734ZM194.367 257.906H196.863L199.969 267.516L203.109 257.906H205.547L208.723 267.48L211.676 257.906H213.996L209.93 270H207.516L204.258 260.836L201.176 270H198.762L194.367 257.906ZM221.66 270.188C217.238 270.188 215.027 268.027 215.027 263.707C215.027 261.848 215.641 260.359 216.867 259.242C217.969 258.227 219.227 257.719 220.641 257.719C222.18 257.719 223.383 258.234 224.25 259.266C225.055 260.227 225.457 261.512 225.457 263.121V264.035H217.465C217.465 266.246 218.367 267.598 220.172 268.09C220.602 268.207 221.262 268.266 222.152 268.266C223.051 268.266 223.93 268.145 224.789 267.902V269.883C223.93 270.086 222.887 270.188 221.66 270.188ZM223.113 262.312C223.113 261.562 222.906 260.93 222.492 260.414C222.008 259.82 221.34 259.523 220.488 259.523C219.59 259.523 218.859 259.809 218.297 260.379C217.781 260.91 217.523 261.555 217.523 262.312H223.113ZM236.496 268.652C235.824 269.176 235.062 269.562 234.211 269.812C233.367 270.055 232.453 270.176 231.469 270.176C230.492 270.176 229.398 270.117 228.188 270V252.562H230.531V259.113C231.047 258.527 231.762 258.109 232.676 257.859C233.02 257.766 233.371 257.719 233.73 257.719C234.098 257.719 234.469 257.758 234.844 257.836C235.219 257.906 235.59 258.031 235.957 258.211C236.332 258.391 236.688 258.629 237.023 258.926C237.359 259.223 237.656 259.594 237.914 260.039C238.484 260.992 238.77 262.125 238.77 263.438C238.77 264.742 238.559 265.805 238.137 266.625C237.723 267.445 237.176 268.121 236.496 268.652ZM230.543 268.277C230.762 268.34 231.191 268.371 231.832 268.371C232.473 268.371 233.074 268.281 233.637 268.102C234.199 267.922 234.68 267.641 235.078 267.258C235.914 266.453 236.332 265.254 236.332 263.66C236.332 261.715 235.766 260.441 234.633 259.84C234.227 259.629 233.812 259.523 233.391 259.523C232.969 259.523 232.602 259.578 232.289 259.688C231.977 259.797 231.703 259.93 231.469 260.086C231.023 260.391 230.715 260.719 230.543 261.07V268.277ZM244.969 270.188C243.992 270.188 243.004 270.117 242.004 269.977V267.902C243.02 268.145 244.051 268.266 245.098 268.266C247.191 268.266 248.238 267.824 248.238 266.941C248.238 266.605 248.156 266.355 247.992 266.191C247.75 265.934 247.367 265.676 246.844 265.418L245.133 264.633C244.023 264.078 243.305 263.633 242.977 263.297C242.359 262.672 242.051 261.93 242.051 261.07C242.051 260.102 242.5 259.312 243.398 258.703C244.367 258.047 245.727 257.719 247.477 257.719C248.359 257.719 249.25 257.781 250.148 257.906V259.91C249.164 259.73 248.305 259.641 247.57 259.641C246.844 259.641 246.277 259.688 245.871 259.781C245.473 259.875 245.172 259.992 244.969 260.133C244.648 260.352 244.488 260.637 244.488 260.988C244.488 261.332 244.598 261.613 244.816 261.832C245.043 262.043 245.395 262.273 245.871 262.523L247.594 263.355C248.719 263.941 249.441 264.391 249.762 264.703C250.371 265.297 250.676 266.043 250.676 266.941C250.676 267.902 250.191 268.676 249.223 269.262C248.207 269.879 246.789 270.188 244.969 270.188ZM256.734 254.391C256.734 254.836 256.586 255.18 256.289 255.422C256 255.656 255.637 255.773 255.199 255.773C254.762 255.773 254.398 255.656 254.109 255.422C253.828 255.18 253.688 254.836 253.688 254.391C253.688 253.938 253.828 253.594 254.109 253.359C254.398 253.125 254.762 253.008 255.199 253.008C255.637 253.008 256 253.125 256.289 253.359C256.586 253.594 256.734 253.938 256.734 254.391ZM253.992 257.906H256.336V270H253.992V257.906ZM264.375 268.148C264.633 268.242 265.023 268.289 265.547 268.289C266.07 268.289 266.508 268.227 266.859 268.102V269.977C266.695 270.016 266.457 270.039 266.145 270.047L265.406 270.07C265.242 270.07 265.117 270.07 265.031 270.07C263.523 270.07 262.41 269.578 261.691 268.594C261.113 267.797 260.824 266.742 260.824 265.43V259.699H259.09V258.598L260.824 257.906L261.387 254.906H263.168V257.906H266.918V259.699H263.168V265.418C263.168 266.949 263.57 267.859 264.375 268.148ZM275.684 270.188C271.262 270.188 269.051 268.027 269.051 263.707C269.051 261.848 269.664 260.359 270.891 259.242C271.992 258.227 273.25 257.719 274.664 257.719C276.203 257.719 277.406 258.234 278.273 259.266C279.078 260.227 279.48 261.512 279.48 263.121V264.035H271.488C271.488 266.246 272.391 267.598 274.195 268.09C274.625 268.207 275.285 268.266 276.176 268.266C277.074 268.266 277.953 268.145 278.812 267.902V269.883C277.953 270.086 276.91 270.188 275.684 270.188ZM277.137 262.312C277.137 261.562 276.93 260.93 276.516 260.414C276.031 259.82 275.363 259.523 274.512 259.523C273.613 259.523 272.883 259.809 272.32 260.379C271.805 260.91 271.547 261.555 271.547 262.312H277.137ZM291.879 259.23C292.559 258.707 293.32 258.324 294.164 258.082C295.016 257.84 295.758 257.719 296.391 257.719C297.023 257.719 297.512 257.734 297.855 257.766V252.562H300.188V270H298.09L297.996 268.605C297.52 269.238 296.797 269.707 295.828 270.012C295.453 270.129 295.07 270.188 294.68 270.188C294.297 270.188 293.918 270.148 293.543 270.07C293.168 269.992 292.793 269.863 292.418 269.684C292.051 269.496 291.699 269.254 291.363 268.957C291.027 268.652 290.727 268.281 290.461 267.844C289.898 266.883 289.617 265.746 289.617 264.434C289.617 263.121 289.824 262.059 290.238 261.246C290.66 260.426 291.207 259.754 291.879 259.23ZM293.297 260.625C292.898 261 292.59 261.484 292.371 262.078C292.16 262.664 292.055 263.379 292.055 264.223C292.055 265.059 292.156 265.75 292.359 266.297C292.562 266.836 292.816 267.258 293.121 267.562C293.66 268.109 294.309 268.383 295.066 268.383C296.043 268.383 296.852 268.023 297.492 267.305C297.656 267.125 297.773 266.965 297.844 266.824V259.617L297.609 259.594C297.25 259.547 296.82 259.523 296.32 259.523C295.828 259.523 295.301 259.613 294.738 259.793C294.176 259.965 293.695 260.242 293.297 260.625ZM309.691 270.188C305.27 270.188 303.059 268.027 303.059 263.707C303.059 261.848 303.672 260.359 304.898 259.242C306 258.227 307.258 257.719 308.672 257.719C310.211 257.719 311.414 258.234 312.281 259.266C313.086 260.227 313.488 261.512 313.488 263.121V264.035H305.496C305.496 266.246 306.398 267.598 308.203 268.09C308.633 268.207 309.293 268.266 310.184 268.266C311.082 268.266 311.961 268.145 312.82 267.902V269.883C311.961 270.086 310.918 270.188 309.691 270.188ZM311.145 262.312C311.145 261.562 310.938 260.93 310.523 260.414C310.039 259.82 309.371 259.523 308.52 259.523C307.621 259.523 306.891 259.809 306.328 260.379C305.812 260.91 305.555 261.555 305.555 262.312H311.145ZM314.414 257.906H316.934L320.227 267.715L323.531 257.906H326.039L321.41 270H319.055L314.414 257.906ZM333.691 270.188C329.27 270.188 327.059 268.027 327.059 263.707C327.059 261.848 327.672 260.359 328.898 259.242C330 258.227 331.258 257.719 332.672 257.719C334.211 257.719 335.414 258.234 336.281 259.266C337.086 260.227 337.488 261.512 337.488 263.121V264.035H329.496C329.496 266.246 330.398 267.598 332.203 268.09C332.633 268.207 333.293 268.266 334.184 268.266C335.082 268.266 335.961 268.145 336.82 267.902V269.883C335.961 270.086 334.918 270.188 333.691 270.188ZM335.145 262.312C335.145 261.562 334.938 260.93 334.523 260.414C334.039 259.82 333.371 259.523 332.52 259.523C331.621 259.523 330.891 259.809 330.328 260.379C329.812 260.91 329.555 261.555 329.555 262.312H335.145ZM340.57 252.562H342.914V265.418C342.914 266.965 343.266 267.875 343.969 268.148C344.203 268.242 344.453 268.289 344.719 268.289C344.984 268.289 345.223 268.258 345.434 268.195V270L345 270.047C344.859 270.062 344.723 270.07 344.59 270.07C343.09 270.07 342.008 269.578 341.344 268.594C340.828 267.82 340.57 266.766 340.57 265.43V252.562ZM347.297 263.93C347.297 262.031 347.902 260.492 349.113 259.312C350.246 258.211 351.648 257.66 353.32 257.66C354.961 257.66 356.332 258.211 357.434 259.312C358.605 260.484 359.191 262.023 359.191 263.93C359.191 265.828 358.602 267.359 357.422 268.523C356.305 269.633 354.934 270.188 353.309 270.188C351.66 270.188 350.262 269.633 349.113 268.523C347.902 267.359 347.297 265.828 347.297 263.93ZM349.734 263.93C349.734 265.93 350.375 267.289 351.656 268.008C352.109 268.258 352.652 268.383 353.285 268.383C353.918 268.383 354.453 268.258 354.891 268.008C355.328 267.75 355.688 267.414 355.969 267C356.492 266.203 356.754 265.18 356.754 263.93C356.754 261.945 356.125 260.586 354.867 259.852C354.43 259.594 353.906 259.465 353.297 259.465C352.688 259.465 352.156 259.594 351.703 259.852C351.258 260.102 350.891 260.434 350.602 260.848C350.023 261.66 349.734 262.688 349.734 263.93ZM364.594 274.688H362.25V257.906H364.359L364.453 259.289C364.922 258.664 365.641 258.199 366.609 257.895C366.984 257.777 367.363 257.719 367.746 257.719C368.137 257.719 368.52 257.762 368.895 257.848C369.27 257.926 369.641 258.059 370.008 258.246C370.375 258.426 370.727 258.668 371.062 258.973C371.398 259.27 371.695 259.641 371.953 260.086C372.516 261.047 372.797 262.238 372.797 263.66C372.797 265.832 372.047 267.492 370.547 268.641C369.219 269.664 367.602 270.176 365.695 270.176H365.109C364.922 270.176 364.75 270.172 364.594 270.164V274.688ZM364.594 268.266C364.812 268.328 365.242 268.359 365.883 268.359C366.523 268.359 367.125 268.27 367.688 268.09C368.25 267.91 368.727 267.633 369.117 267.258C369.945 266.461 370.359 265.262 370.359 263.66C370.359 262.152 370 261.039 369.281 260.32C368.75 259.789 368.102 259.523 367.336 259.523C366.375 259.523 365.578 259.879 364.945 260.59C364.781 260.77 364.664 260.93 364.594 261.07V268.266ZM378.48 260.918L378.492 270H376.148V257.906H378.305L378.469 259.23C379.328 258.512 380.328 258.043 381.469 257.824C381.836 257.754 382.195 257.719 382.547 257.719C384.008 257.719 385.109 258.336 385.852 259.57C387.211 258.336 388.633 257.719 390.117 257.719C391.586 257.719 392.656 258.16 393.328 259.043C394 259.941 394.336 261.426 394.336 263.496V270H391.992V263.578C391.992 261.547 391.504 260.332 390.527 259.934C390.199 259.801 389.816 259.734 389.379 259.734C388.332 259.734 387.371 260.109 386.496 260.859V270H384.152V263.484C384.152 262.094 383.945 261.117 383.531 260.555C383.133 260.008 382.418 259.734 381.387 259.734C380.363 259.734 379.395 260.129 378.48 260.918ZM403.746 270.188C399.324 270.188 397.113 268.027 397.113 263.707C397.113 261.848 397.727 260.359 398.953 259.242C400.055 258.227 401.312 257.719 402.727 257.719C404.266 257.719 405.469 258.234 406.336 259.266C407.141 260.227 407.543 261.512 407.543 263.121V264.035H399.551C399.551 266.246 400.453 267.598 402.258 268.09C402.688 268.207 403.348 268.266 404.238 268.266C405.137 268.266 406.016 268.145 406.875 267.902V269.883C406.016 270.086 404.973 270.188 403.746 270.188ZM405.199 262.312C405.199 261.562 404.992 260.93 404.578 260.414C404.094 259.82 403.426 259.523 402.574 259.523C401.676 259.523 400.945 259.809 400.383 260.379C399.867 260.91 399.609 261.555 399.609 262.312H405.199ZM415.57 259.734C414.406 259.734 413.371 260.129 412.465 260.918V270H410.121V257.906H412.289L412.453 259.219C413.727 258.219 415.043 257.719 416.402 257.719C417.84 257.719 418.895 258.148 419.566 259.008C420.27 259.914 420.621 261.375 420.621 263.391V270H418.277V263.391C418.277 261.453 417.754 260.297 416.707 259.922C416.371 259.797 415.992 259.734 415.57 259.734ZM428.484 268.148C428.742 268.242 429.133 268.289 429.656 268.289C430.18 268.289 430.617 268.227 430.969 268.102V269.977C430.805 270.016 430.566 270.039 430.254 270.047L429.516 270.07C429.352 270.07 429.227 270.07 429.141 270.07C427.633 270.07 426.52 269.578 425.801 268.594C425.223 267.797 424.934 266.742 424.934 265.43V259.699H423.199V258.598L424.934 257.906L425.496 254.906H427.277V257.906H431.027V259.699H427.277V265.418C427.277 266.949 427.68 267.859 428.484 268.148ZM435.328 270.293C434.859 270.293 434.469 270.168 434.156 269.918C433.852 269.66 433.699 269.293 433.699 268.816C433.699 268.332 433.852 267.961 434.156 267.703C434.469 267.445 434.859 267.316 435.328 267.316C435.805 267.316 436.199 267.445 436.512 267.703C436.824 267.961 436.98 268.332 436.98 268.816C436.98 269.293 436.824 269.66 436.512 269.918C436.199 270.168 435.805 270.293 435.328 270.293Z" fill="#4F4D4D"/>
</svg>
