<svg width="608" height="88" viewBox="0 0 608 88" fill="none" xmlns="http://www.w3.org/2000/svg">
<rect width="597" height="88" fill="black"/>
<path d="M127.706 55.3835C125.686 55.3835 123.947 54.9744 122.49 54.1562C121.041 53.3295 119.925 52.1619 119.14 50.6534C118.356 49.1364 117.964 47.3423 117.964 45.2713C117.964 43.2514 118.356 41.4787 119.14 39.9531C119.925 38.4276 121.028 37.2386 122.452 36.3864C123.883 35.5341 125.562 35.108 127.489 35.108C128.784 35.108 129.99 35.3168 131.106 35.7344C132.231 36.1435 133.212 36.7614 134.047 37.5881C134.89 38.4148 135.547 39.4545 136.015 40.7074C136.484 41.9517 136.719 43.4091 136.719 45.0795V46.5753H120.138V43.2003H131.592C131.592 42.4162 131.422 41.7216 131.081 41.1165C130.74 40.5114 130.267 40.0384 129.662 39.6974C129.065 39.348 128.371 39.1733 127.578 39.1733C126.751 39.1733 126.018 39.3651 125.379 39.7486C124.748 40.1236 124.254 40.6307 123.896 41.2699C123.538 41.9006 123.355 42.6037 123.346 43.3793V46.5881C123.346 47.5597 123.525 48.3991 123.883 49.1065C124.25 49.8139 124.765 50.3594 125.43 50.7429C126.095 51.1264 126.883 51.3182 127.795 51.3182C128.4 51.3182 128.954 51.233 129.457 51.0625C129.96 50.892 130.39 50.6364 130.748 50.2955C131.106 49.9545 131.379 49.5369 131.567 49.0426L136.604 49.375C136.348 50.5852 135.824 51.642 135.031 52.5455C134.247 53.4403 133.233 54.1392 131.989 54.642C130.753 55.1364 129.325 55.3835 127.706 55.3835ZM163.476 37.9844H157.876C157.774 37.2599 157.565 36.6165 157.25 36.054C156.935 35.483 156.53 34.9972 156.035 34.5966C155.541 34.196 154.97 33.8892 154.322 33.6761C153.683 33.4631 152.989 33.3565 152.239 33.3565C150.883 33.3565 149.703 33.6932 148.697 34.3665C147.692 35.0312 146.912 36.0028 146.358 37.2812C145.804 38.5511 145.527 40.0937 145.527 41.9091C145.527 43.7756 145.804 45.3437 146.358 46.6136C146.92 47.8835 147.704 48.8423 148.71 49.4901C149.716 50.1378 150.879 50.4616 152.2 50.4616C152.942 50.4616 153.628 50.3636 154.258 50.1676C154.898 49.9716 155.464 49.6861 155.959 49.3111C156.453 48.9276 156.862 48.4631 157.186 47.9176C157.518 47.3722 157.748 46.75 157.876 46.0511L163.476 46.0767C163.331 47.2784 162.969 48.4375 162.389 49.554C161.818 50.6619 161.047 51.6548 160.075 52.5327C159.112 53.402 157.962 54.0923 156.623 54.6037C155.294 55.1065 153.79 55.358 152.111 55.358C149.775 55.358 147.687 54.8295 145.846 53.7727C144.014 52.7159 142.565 51.1861 141.5 49.1832C140.443 47.1804 139.915 44.7557 139.915 41.9091C139.915 39.054 140.452 36.625 141.525 34.6222C142.599 32.6193 144.057 31.0937 145.898 30.0455C147.739 28.9886 149.81 28.4602 152.111 28.4602C153.628 28.4602 155.034 28.6733 156.329 29.0994C157.633 29.5256 158.788 30.1477 159.794 30.9659C160.8 31.7756 161.618 32.7685 162.248 33.9446C162.888 35.1207 163.297 36.4673 163.476 37.9844ZM176.215 55.3835C174.229 55.3835 172.512 54.9616 171.063 54.1179C169.623 53.2656 168.511 52.081 167.726 50.5639C166.942 49.0384 166.55 47.2699 166.55 45.2585C166.55 43.2301 166.942 41.4574 167.726 39.9403C168.511 38.4148 169.623 37.2301 171.063 36.3864C172.512 35.5341 174.229 35.108 176.215 35.108C178.201 35.108 179.914 35.5341 181.354 36.3864C182.803 37.2301 183.92 38.4148 184.704 39.9403C185.488 41.4574 185.88 43.2301 185.88 45.2585C185.88 47.2699 185.488 49.0384 184.704 50.5639C183.92 52.081 182.803 53.2656 181.354 54.1179C179.914 54.9616 178.201 55.3835 176.215 55.3835ZM176.241 51.1648C177.144 51.1648 177.898 50.9091 178.503 50.3977C179.109 49.8778 179.565 49.1705 179.871 48.2756C180.187 47.3807 180.344 46.3622 180.344 45.2202C180.344 44.0781 180.187 43.0597 179.871 42.1648C179.565 41.2699 179.109 40.5625 178.503 40.0426C177.898 39.5227 177.144 39.2628 176.241 39.2628C175.329 39.2628 174.562 39.5227 173.94 40.0426C173.326 40.5625 172.861 41.2699 172.546 42.1648C172.239 43.0597 172.086 44.0781 172.086 45.2202C172.086 46.3622 172.239 47.3807 172.546 48.2756C172.861 49.1705 173.326 49.8778 173.94 50.3977C174.562 50.9091 175.329 51.1648 176.241 51.1648ZM189.421 55V35.3636H194.611V38.8281H194.841C195.251 37.6776 195.932 36.7699 196.887 36.1051C197.841 35.4403 198.984 35.108 200.313 35.108C201.66 35.108 202.806 35.4446 203.752 36.1179C204.698 36.7827 205.329 37.6861 205.644 38.8281H205.849C206.249 37.7031 206.974 36.804 208.022 36.1307C209.079 35.4489 210.327 35.108 211.768 35.108C213.6 35.108 215.087 35.6918 216.229 36.8594C217.38 38.0185 217.955 39.6634 217.955 41.794V55H212.522V42.8679C212.522 41.777 212.232 40.9588 211.653 40.4134C211.073 39.8679 210.349 39.5952 209.479 39.5952C208.491 39.5952 207.719 39.9105 207.165 40.5412C206.611 41.1634 206.334 41.9858 206.334 43.0085V55H201.055V42.7528C201.055 41.7898 200.778 41.0227 200.224 40.4517C199.678 39.8807 198.958 39.5952 198.063 39.5952C197.458 39.5952 196.913 39.7486 196.427 40.0554C195.949 40.3537 195.57 40.7756 195.289 41.321C195.008 41.858 194.867 42.4886 194.867 43.2131V55H189.421ZM222.257 55V35.3636H227.447V38.8281H227.677C228.087 37.6776 228.768 36.7699 229.723 36.1051C230.677 35.4403 231.819 35.108 233.149 35.108C234.496 35.108 235.642 35.4446 236.588 36.1179C237.534 36.7827 238.165 37.6861 238.48 38.8281H238.685C239.085 37.7031 239.81 36.804 240.858 36.1307C241.915 35.4489 243.163 35.108 244.604 35.108C246.436 35.108 247.923 35.6918 249.065 36.8594C250.216 38.0185 250.791 39.6634 250.791 41.794V55H245.358V42.8679C245.358 41.777 245.068 40.9588 244.489 40.4134C243.909 39.8679 243.185 39.5952 242.315 39.5952C241.327 39.5952 240.555 39.9105 240.001 40.5412C239.447 41.1634 239.17 41.9858 239.17 43.0085V55H233.89V42.7528C233.89 41.7898 233.614 41.0227 233.06 40.4517C232.514 39.8807 231.794 39.5952 230.899 39.5952C230.294 39.5952 229.748 39.7486 229.263 40.0554C228.785 40.3537 228.406 40.7756 228.125 41.321C227.844 41.858 227.703 42.4886 227.703 43.2131V55H222.257ZM264.042 55.3835C262.022 55.3835 260.283 54.9744 258.826 54.1562C257.377 53.3295 256.261 52.1619 255.476 50.6534C254.692 49.1364 254.3 47.3423 254.3 45.2713C254.3 43.2514 254.692 41.4787 255.476 39.9531C256.261 38.4276 257.364 37.2386 258.788 36.3864C260.219 35.5341 261.898 35.108 263.824 35.108C265.12 35.108 266.326 35.3168 267.442 35.7344C268.567 36.1435 269.547 36.7614 270.383 37.5881C271.226 38.4148 271.883 39.4545 272.351 40.7074C272.82 41.9517 273.055 43.4091 273.055 45.0795V46.5753H256.474V43.2003H267.928C267.928 42.4162 267.758 41.7216 267.417 41.1165C267.076 40.5114 266.603 40.0384 265.998 39.6974C265.401 39.348 264.707 39.1733 263.914 39.1733C263.087 39.1733 262.354 39.3651 261.715 39.7486C261.084 40.1236 260.59 40.6307 260.232 41.2699C259.874 41.9006 259.691 42.6037 259.682 43.3793V46.5881C259.682 47.5597 259.861 48.3991 260.219 49.1065C260.586 49.8139 261.101 50.3594 261.766 50.7429C262.431 51.1264 263.219 51.3182 264.131 51.3182C264.736 51.3182 265.29 51.233 265.793 51.0625C266.296 50.892 266.726 50.6364 267.084 50.2955C267.442 49.9545 267.715 49.5369 267.903 49.0426L272.94 49.375C272.684 50.5852 272.16 51.642 271.367 52.5455C270.583 53.4403 269.569 54.1392 268.324 54.642C267.089 55.1364 265.661 55.3835 264.042 55.3835ZM276.609 55V35.3636H281.888V38.7898H282.093C282.451 37.571 283.052 36.6506 283.895 36.0284C284.739 35.3977 285.711 35.0824 286.81 35.0824C287.083 35.0824 287.377 35.0994 287.692 35.1335C288.008 35.1676 288.285 35.2145 288.523 35.2741V40.1065C288.268 40.0298 287.914 39.9616 287.462 39.902C287.011 39.8423 286.597 39.8125 286.222 39.8125C285.421 39.8125 284.705 39.9872 284.074 40.3366C283.452 40.6776 282.958 41.1548 282.591 41.7685C282.234 42.3821 282.055 43.0895 282.055 43.8906V55H276.609ZM299.297 55.3835C297.286 55.3835 295.556 54.9574 294.107 54.1051C292.666 53.2443 291.558 52.0511 290.783 50.5256C290.016 49 289.632 47.2443 289.632 45.2585C289.632 43.2472 290.02 41.483 290.796 39.9659C291.58 38.4403 292.692 37.2514 294.132 36.3991C295.573 35.5384 297.286 35.108 299.272 35.108C300.985 35.108 302.485 35.419 303.772 36.0412C305.058 36.6634 306.077 37.5369 306.827 38.6619C307.577 39.7869 307.99 41.108 308.067 42.625H302.928C302.783 41.6449 302.399 40.8565 301.777 40.2599C301.164 39.6548 300.358 39.3523 299.361 39.3523C298.517 39.3523 297.78 39.5824 297.149 40.0426C296.527 40.4943 296.041 41.1548 295.692 42.0241C295.343 42.8935 295.168 43.946 295.168 45.1818C295.168 46.4347 295.338 47.5 295.679 48.3778C296.029 49.2557 296.519 49.9247 297.149 50.3849C297.78 50.8452 298.517 51.0753 299.361 51.0753C299.983 51.0753 300.541 50.9474 301.036 50.6918C301.539 50.4361 301.952 50.0653 302.276 49.5795C302.608 49.0852 302.826 48.4929 302.928 47.8026H308.067C307.982 49.3026 307.573 50.6236 306.84 51.7656C306.115 52.8991 305.114 53.7855 303.835 54.4247C302.557 55.0639 301.044 55.3835 299.297 55.3835ZM320.503 55.3835C318.483 55.3835 316.744 54.9744 315.287 54.1562C313.838 53.3295 312.721 52.1619 311.937 50.6534C311.153 49.1364 310.761 47.3423 310.761 45.2713C310.761 43.2514 311.153 41.4787 311.937 39.9531C312.721 38.4276 313.825 37.2386 315.248 36.3864C316.68 35.5341 318.359 35.108 320.285 35.108C321.581 35.108 322.787 35.3168 323.903 35.7344C325.028 36.1435 326.008 36.7614 326.844 37.5881C327.687 38.4148 328.344 39.4545 328.812 40.7074C329.281 41.9517 329.515 43.4091 329.515 45.0795V46.5753H312.935V43.2003H324.389C324.389 42.4162 324.219 41.7216 323.878 41.1165C323.537 40.5114 323.064 40.0384 322.459 39.6974C321.862 39.348 321.167 39.1733 320.375 39.1733C319.548 39.1733 318.815 39.3651 318.176 39.7486C317.545 40.1236 317.051 40.6307 316.693 41.2699C316.335 41.9006 316.152 42.6037 316.143 43.3793V46.5881C316.143 47.5597 316.322 48.3991 316.68 49.1065C317.047 49.8139 317.562 50.3594 318.227 50.7429C318.892 51.1264 319.68 51.3182 320.592 51.3182C321.197 51.3182 321.751 51.233 322.254 51.0625C322.757 50.892 323.187 50.6364 323.545 50.2955C323.903 49.9545 324.176 49.5369 324.364 49.0426L329.4 49.375C329.145 50.5852 328.621 51.642 327.828 52.5455C327.044 53.4403 326.03 54.1392 324.785 54.642C323.55 55.1364 322.122 55.3835 320.503 55.3835ZM365.563 41.9091C365.563 44.7642 365.022 47.1932 363.94 49.196C362.866 51.1989 361.4 52.7287 359.542 53.7855C357.693 54.8338 355.613 55.358 353.303 55.358C350.977 55.358 348.889 54.8295 347.039 53.7727C345.19 52.7159 343.728 51.1861 342.654 49.1832C341.58 47.1804 341.044 44.7557 341.044 41.9091C341.044 39.054 341.58 36.625 342.654 34.6222C343.728 32.6193 345.19 31.0937 347.039 30.0455C348.889 28.9886 350.977 28.4602 353.303 28.4602C355.613 28.4602 357.693 28.9886 359.542 30.0455C361.4 31.0937 362.866 32.6193 363.94 34.6222C365.022 36.625 365.563 39.054 365.563 41.9091ZM359.951 41.9091C359.951 40.0597 359.674 38.5 359.12 37.2301C358.575 35.9602 357.803 34.9972 356.806 34.3409C355.809 33.6847 354.642 33.3565 353.303 33.3565C351.965 33.3565 350.798 33.6847 349.801 34.3409C348.803 34.9972 348.028 35.9602 347.474 37.2301C346.928 38.5 346.656 40.0597 346.656 41.9091C346.656 43.7585 346.928 45.3182 347.474 46.5881C348.028 47.858 348.803 48.821 349.801 49.4773C350.798 50.1335 351.965 50.4616 353.303 50.4616C354.642 50.4616 355.809 50.1335 356.806 49.4773C357.803 48.821 358.575 47.858 359.12 46.5881C359.674 45.3182 359.951 43.7585 359.951 41.9091ZM369.562 62.3636V35.3636H374.931V38.6619H375.174C375.413 38.1335 375.758 37.5966 376.209 37.0511C376.67 36.4972 377.266 36.0369 377.999 35.6705C378.741 35.2955 379.661 35.108 380.761 35.108C382.192 35.108 383.513 35.483 384.724 36.233C385.934 36.9744 386.901 38.0952 387.626 39.5952C388.35 41.0866 388.712 42.9574 388.712 45.2074C388.712 47.3977 388.359 49.2472 387.651 50.7557C386.952 52.2557 385.998 53.3935 384.788 54.169C383.586 54.9361 382.239 55.3196 380.748 55.3196C379.691 55.3196 378.792 55.1449 378.05 54.7955C377.317 54.446 376.716 54.0071 376.248 53.4787C375.779 52.9418 375.421 52.4006 375.174 51.8551H375.008V62.3636H369.562ZM374.893 45.1818C374.893 46.3494 375.055 47.3679 375.378 48.2372C375.702 49.1065 376.171 49.7841 376.785 50.2699C377.398 50.7472 378.144 50.9858 379.022 50.9858C379.908 50.9858 380.658 50.7429 381.272 50.2571C381.886 49.7628 382.35 49.081 382.665 48.2116C382.989 47.3338 383.151 46.3239 383.151 45.1818C383.151 44.0483 382.993 43.0511 382.678 42.1903C382.363 41.3295 381.898 40.6562 381.285 40.1705C380.671 39.6847 379.917 39.4418 379.022 39.4418C378.136 39.4418 377.386 39.6761 376.772 40.1449C376.167 40.6136 375.702 41.2784 375.378 42.1392C375.055 43 374.893 44.0142 374.893 45.1818ZM402.788 35.3636V39.4545H390.962V35.3636H402.788ZM393.647 30.6591H399.093V48.9659C399.093 49.4687 399.17 49.8608 399.323 50.142C399.476 50.4148 399.69 50.6065 399.962 50.7173C400.243 50.8281 400.567 50.8835 400.934 50.8835C401.19 50.8835 401.445 50.8622 401.701 50.8196C401.957 50.7685 402.153 50.7301 402.289 50.7045L403.145 54.7571C402.873 54.8423 402.489 54.9403 401.995 55.0511C401.501 55.1705 400.9 55.2429 400.192 55.2685C398.88 55.3196 397.729 55.1449 396.741 54.7443C395.761 54.3437 394.998 53.7216 394.452 52.8778C393.907 52.0341 393.638 50.9687 393.647 49.6818V30.6591ZM406.335 55V35.3636H411.781V55H406.335ZM409.071 32.8324C408.261 32.8324 407.567 32.5639 406.987 32.027C406.416 31.4815 406.131 30.8295 406.131 30.071C406.131 29.321 406.416 28.6776 406.987 28.1406C407.567 27.5952 408.261 27.3224 409.071 27.3224C409.881 27.3224 410.571 27.5952 411.142 28.1406C411.721 28.6776 412.011 29.321 412.011 30.071C412.011 30.8295 411.721 31.4815 411.142 32.027C410.571 32.5639 409.881 32.8324 409.071 32.8324ZM416.144 55V35.3636H421.334V38.8281H421.564C421.973 37.6776 422.655 36.7699 423.61 36.1051C424.564 35.4403 425.706 35.108 427.036 35.108C428.382 35.108 429.529 35.4446 430.475 36.1179C431.421 36.7827 432.051 37.6861 432.367 38.8281H432.571C432.972 37.7031 433.696 36.804 434.745 36.1307C435.801 35.4489 437.05 35.108 438.49 35.108C440.323 35.108 441.81 35.6918 442.952 36.8594C444.103 38.0185 444.678 39.6634 444.678 41.794V55H439.245V42.8679C439.245 41.777 438.955 40.9588 438.375 40.4134C437.796 39.8679 437.071 39.5952 436.202 39.5952C435.213 39.5952 434.442 39.9105 433.888 40.5412C433.334 41.1634 433.057 41.9858 433.057 43.0085V55H427.777V42.7528C427.777 41.7898 427.5 41.0227 426.946 40.4517C426.401 39.8807 425.681 39.5952 424.786 39.5952C424.181 39.5952 423.635 39.7486 423.149 40.0554C422.672 40.3537 422.293 40.7756 422.012 41.321C421.73 41.858 421.59 42.4886 421.59 43.2131V55H416.144ZM448.98 55V35.3636H454.426V55H448.98ZM451.715 32.8324C450.906 32.8324 450.211 32.5639 449.632 32.027C449.061 31.4815 448.775 30.8295 448.775 30.071C448.775 29.321 449.061 28.6776 449.632 28.1406C450.211 27.5952 450.906 27.3224 451.715 27.3224C452.525 27.3224 453.215 27.5952 453.786 28.1406C454.366 28.6776 454.656 29.321 454.656 30.071C454.656 30.8295 454.366 31.4815 453.786 32.027C453.215 32.5639 452.525 32.8324 451.715 32.8324ZM458.686 55V51.7528L468.3 39.8509V39.7102H459.018V35.3636H474.858V38.9048L465.832 50.5128V50.6534H475.19V55H458.686ZM484.954 55.3707C483.701 55.3707 482.585 55.1534 481.605 54.7188C480.625 54.2756 479.849 53.6236 479.278 52.7628C478.715 51.8935 478.434 50.8111 478.434 49.5156C478.434 48.4247 478.634 47.5085 479.035 46.767C479.436 46.0256 479.981 45.429 480.671 44.9773C481.362 44.5256 482.146 44.1847 483.024 43.9545C483.91 43.7244 484.839 43.5625 485.811 43.4688C486.953 43.3494 487.873 43.2386 488.572 43.1364C489.271 43.0256 489.778 42.8636 490.093 42.6506C490.409 42.4375 490.566 42.1222 490.566 41.7045V41.6278C490.566 40.8182 490.311 40.1918 489.799 39.7486C489.296 39.3054 488.58 39.0838 487.652 39.0838C486.671 39.0838 485.892 39.3011 485.312 39.7358C484.732 40.1619 484.349 40.6989 484.161 41.3466L479.125 40.9375C479.38 39.7443 479.883 38.7131 480.633 37.8438C481.383 36.9659 482.35 36.2926 483.535 35.8239C484.728 35.3466 486.109 35.108 487.677 35.108C488.768 35.108 489.812 35.2358 490.809 35.4915C491.815 35.7472 492.705 36.1435 493.481 36.6804C494.265 37.2173 494.883 37.9077 495.335 38.7514C495.786 39.5866 496.012 40.5881 496.012 41.7557V55H490.848V52.277H490.694C490.379 52.8906 489.957 53.4318 489.428 53.9006C488.9 54.3608 488.265 54.723 487.524 54.9872C486.782 55.2429 485.926 55.3707 484.954 55.3707ZM486.514 51.6122C487.315 51.6122 488.022 51.4545 488.636 51.1392C489.25 50.8153 489.731 50.3807 490.08 49.8352C490.43 49.2898 490.605 48.6719 490.605 47.9815V45.8977C490.434 46.0085 490.2 46.1108 489.902 46.2045C489.612 46.2898 489.284 46.3707 488.917 46.4474C488.551 46.5156 488.184 46.5795 487.818 46.6392C487.451 46.6903 487.119 46.7372 486.821 46.7798C486.181 46.8736 485.623 47.0227 485.146 47.2273C484.669 47.4318 484.298 47.7088 484.034 48.0582C483.769 48.3991 483.637 48.8253 483.637 49.3366C483.637 50.0781 483.906 50.6449 484.443 51.0369C484.988 51.4205 485.678 51.6122 486.514 51.6122ZM510.682 35.3636V39.4545H498.857V35.3636H510.682ZM501.541 30.6591H506.987V48.9659C506.987 49.4687 507.064 49.8608 507.218 50.142C507.371 50.4148 507.584 50.6065 507.857 50.7173C508.138 50.8281 508.462 50.8835 508.828 50.8835C509.084 50.8835 509.34 50.8622 509.595 50.8196C509.851 50.7685 510.047 50.7301 510.183 50.7045L511.04 54.7571C510.767 54.8423 510.384 54.9403 509.889 55.0511C509.395 55.1705 508.794 55.2429 508.087 55.2685C506.774 55.3196 505.624 55.1449 504.635 54.7443C503.655 54.3437 502.892 53.7216 502.347 52.8778C501.801 52.0341 501.533 50.9687 501.541 49.6818V30.6591ZM514.23 55V35.3636H519.676V55H514.23ZM516.965 32.8324C516.156 32.8324 515.461 32.5639 514.882 32.027C514.311 31.4815 514.025 30.8295 514.025 30.071C514.025 29.321 514.311 28.6776 514.882 28.1406C515.461 27.5952 516.156 27.3224 516.965 27.3224C517.775 27.3224 518.465 27.5952 519.036 28.1406C519.616 28.6776 519.906 29.321 519.906 30.071C519.906 30.8295 519.616 31.4815 519.036 32.027C518.465 32.5639 517.775 32.8324 516.965 32.8324ZM532.91 55.3835C530.925 55.3835 529.207 54.9616 527.758 54.1179C526.318 53.2656 525.206 52.081 524.422 50.5639C523.638 49.0384 523.246 47.2699 523.246 45.2585C523.246 43.2301 523.638 41.4574 524.422 39.9403C525.206 38.4148 526.318 37.2301 527.758 36.3864C529.207 35.5341 530.925 35.108 532.91 35.108C534.896 35.108 536.609 35.5341 538.05 36.3864C539.498 37.2301 540.615 38.4148 541.399 39.9403C542.183 41.4574 542.575 43.2301 542.575 45.2585C542.575 47.2699 542.183 49.0384 541.399 50.5639C540.615 52.081 539.498 53.2656 538.05 54.1179C536.609 54.9616 534.896 55.3835 532.91 55.3835ZM532.936 51.1648C533.839 51.1648 534.594 50.9091 535.199 50.3977C535.804 49.8778 536.26 49.1705 536.567 48.2756C536.882 47.3807 537.04 46.3622 537.04 45.2202C537.04 44.0781 536.882 43.0597 536.567 42.1648C536.26 41.2699 535.804 40.5625 535.199 40.0426C534.594 39.5227 533.839 39.2628 532.936 39.2628C532.024 39.2628 531.257 39.5227 530.635 40.0426C530.021 40.5625 529.557 41.2699 529.241 42.1648C528.935 43.0597 528.781 44.0781 528.781 45.2202C528.781 46.3622 528.935 47.3807 529.241 48.2756C529.557 49.1705 530.021 49.8778 530.635 50.3977C531.257 50.9091 532.024 51.1648 532.936 51.1648ZM551.562 43.6477V55H546.116V35.3636H551.307V38.8281H551.537C551.971 37.6861 552.7 36.7827 553.723 36.1179C554.746 35.4446 555.986 35.108 557.443 35.108C558.807 35.108 559.996 35.4062 561.01 36.0028C562.024 36.5994 562.812 37.4517 563.375 38.5597C563.937 39.6591 564.219 40.9716 564.219 42.4972V55H558.773V43.4688C558.781 42.267 558.474 41.3295 557.852 40.6562C557.23 39.9744 556.373 39.6335 555.283 39.6335C554.55 39.6335 553.902 39.7912 553.339 40.1065C552.785 40.4219 552.351 40.8821 552.035 41.4872C551.729 42.0838 551.571 42.804 551.562 43.6477Z" fill="white"/>
<path d="M45.5997 52.6496H49.5105C50.1623 52.6496 50.8141 51.7846 50.8141 50.9196V32.7555C50.8141 31.8906 50.1623 31.0256 49.5105 31.0256H45.5997C44.9479 31.0256 44.2961 31.8906 44.2961 32.7555V50.9196C44.2961 51.7846 44.9479 52.6496 45.5997 52.6496V52.6496ZM55.3767 52.6496H59.2876C59.9394 52.6496 60.5912 51.7846 60.5912 50.9196V19.7812C60.5912 18.9162 59.9394 18.0513 59.2876 18.0513H55.3767C54.7249 18.0513 54.0731 18.9162 54.0731 19.7812V50.9196C54.0731 51.7846 54.7249 52.6496 55.3767 52.6496ZM26.0455 52.6496H29.9563C30.6082 52.6496 31.26 51.7846 31.26 50.9196V41.4051C31.26 40.5402 30.6082 39.6752 29.9563 39.6752H26.0455C25.3937 39.6752 24.7419 40.5402 24.7419 41.4051V50.9196C24.7419 51.7846 25.3937 52.6496 26.0455 52.6496ZM35.8226 52.6496H39.7334C40.3852 52.6496 41.037 51.7846 41.037 50.9196V24.106C41.037 23.241 40.3852 22.3761 39.7334 22.3761H35.8226C35.1708 22.3761 34.519 23.241 34.519 24.106V50.9196C34.519 51.7846 35.1708 52.6496 35.8226 52.6496V52.6496ZM62.2207 61.2991H18.2239V20.2137C18.2239 19.0189 17.4947 18.0513 16.5943 18.0513H13.3353C12.435 18.0513 11.7058 19.0189 11.7058 20.2137V65.6239C11.7058 68.012 13.1652 69.9487 14.9648 69.9487H62.2207C63.121 69.9487 63.8502 68.981 63.8502 67.7863V63.4615C63.8502 62.2668 63.121 61.2991 62.2207 61.2991Z" fill="#FFA800"/>
</svg>
