<svg width="81" height="84" viewBox="0 0 81 84" fill="none" xmlns="http://www.w3.org/2000/svg">
<path d="M72.3214 0H8.67857C6.37687 0 4.16944 0.948212 2.54189 2.63604C0.914347 4.32387 0 6.61305 0 9L0 75C0 77.3869 0.914347 79.6761 2.54189 81.364C4.16944 83.0518 6.37687 84 8.67857 84H33.4939V55.4419H22.1032V42H33.4939V31.755C33.4939 20.1019 40.1836 13.665 50.4297 13.665C55.3367 13.665 60.4679 14.5725 60.4679 14.5725V26.01H54.8142C49.2437 26.01 47.5061 29.595 47.5061 33.2719V42H59.9418L57.953 55.4419H47.5061V84H72.3214C74.6231 84 76.8306 83.0518 78.4581 81.364C80.0857 79.6761 81 77.3869 81 75V9C81 6.61305 80.0857 4.32387 78.4581 2.63604C76.8306 0.948212 74.6231 0 72.3214 0V0Z" fill="#FFA800"/>
</svg>
