<svg width="92" height="79" viewBox="0 0 92 79" fill="none" xmlns="http://www.w3.org/2000/svg">
<path d="M46.0103 19.2454C32.9568 19.2454 22.4279 28.2886 22.4279 39.5C22.4279 50.7114 32.9568 59.7546 46.0103 59.7546C59.0637 59.7546 69.5926 50.7114 69.5926 39.5C69.5926 28.2886 59.0637 19.2454 46.0103 19.2454ZM46.0103 52.6681C37.5748 52.6681 30.6786 46.7627 30.6786 39.5C30.6786 32.2373 37.5543 26.3319 46.0103 26.3319C54.4663 26.3319 61.3419 32.2373 61.3419 39.5C61.3419 46.7627 54.4457 52.6681 46.0103 52.6681V52.6681ZM76.0578 18.4169C76.0578 21.0435 73.5949 23.1412 70.5573 23.1412C67.4992 23.1412 65.0568 21.0258 65.0568 18.4169C65.0568 15.8079 67.5197 13.6926 70.5573 13.6926C73.5949 13.6926 76.0578 15.8079 76.0578 18.4169ZM91.6767 23.2117C91.3278 16.8832 89.6448 11.2775 84.247 6.65899C78.8696 2.04044 72.3429 0.594946 64.9747 0.277641C57.3807 -0.0925471 34.6193 -0.0925471 27.0253 0.277641C19.6776 0.577318 13.1509 2.02282 7.75304 6.64136C2.35516 11.2599 0.692694 16.8656 0.323257 23.1941C-0.107752 29.7164 -0.107752 49.2659 0.323257 55.7883C0.67217 62.1168 2.35516 67.7225 7.75304 72.341C13.1509 76.9596 19.6571 78.405 27.0253 78.7224C34.6193 79.0925 57.3807 79.0925 64.9747 78.7224C72.3429 78.4227 78.8696 76.9772 84.247 72.341C89.6243 67.7225 91.3073 62.1168 91.6767 55.7883C92.1078 49.2659 92.1078 29.7341 91.6767 23.2117V23.2117ZM81.8661 62.7866C80.2653 66.2417 77.1661 68.9035 73.1228 70.2962C67.0682 72.3586 52.7012 71.8827 46.0103 71.8827C39.3194 71.8827 24.9318 72.341 18.8977 70.2962C14.875 68.9212 11.7758 66.2593 10.1544 62.7866C7.75304 57.5864 8.30719 45.2467 8.30719 39.5C8.30719 33.7533 7.77356 21.396 10.1544 16.2134C11.7553 12.7583 14.8544 10.0965 18.8977 8.70384C24.9524 6.64136 39.3194 7.11731 46.0103 7.11731C52.7012 7.11731 67.0887 6.65899 73.1228 8.70384C77.1456 10.0788 80.2447 12.7407 81.8661 16.2134C84.2675 21.4136 83.7133 33.7533 83.7133 39.5C83.7133 45.2467 84.2675 57.604 81.8661 62.7866Z" fill="#FFA800"/>
</svg>
