<svg width="82" height="84" viewBox="0 0 82 84" fill="none" xmlns="http://www.w3.org/2000/svg">
<path d="M76.1429 0H5.83884C2.61741 0 0 2.71875 0 6.05625V77.9438C0 81.2813 2.61741 84 5.83884 84H76.1429C79.3643 84 82 81.2813 82 77.9438V6.05625C82 2.71875 79.3643 0 76.1429 0ZM24.783 72H12.6295V31.9125H24.8013V72H24.783ZM18.7062 26.4375C14.8076 26.4375 11.6594 23.1938 11.6594 19.2188C11.6594 15.2437 14.8076 12 18.7062 12C22.5866 12 25.7531 15.2437 25.7531 19.2188C25.7531 23.2125 22.6049 26.4375 18.7062 26.4375V26.4375ZM70.3406 72H58.1871V52.5C58.1871 47.85 58.0955 41.8688 51.8723 41.8688C45.5393 41.8688 44.5692 46.9313 44.5692 52.1625V72H32.4156V31.9125H44.075V37.3875H44.2397C45.8687 34.2375 49.8406 30.9187 55.7527 30.9187C68.0527 30.9187 70.3406 39.225 70.3406 50.025V72V72Z" fill="#FFA800"/>
</svg>
