<svg width="543" height="78" viewBox="0 0 543 78" fill="none" xmlns="http://www.w3.org/2000/svg">
<rect width="543" height="78" fill="black"/>
<path d="M122.754 52V25.8182H128.29V47.4361H139.514V52H122.754ZM143.078 52V32.3636H148.524V52H143.078ZM145.813 29.8324C145.004 29.8324 144.309 29.5639 143.73 29.027C143.159 28.4815 142.873 27.8295 142.873 27.071C142.873 26.321 143.159 25.6776 143.73 25.1406C144.309 24.5952 145.004 24.3224 145.813 24.3224C146.623 24.3224 147.313 24.5952 147.884 25.1406C148.464 25.6776 148.754 26.321 148.754 27.071C148.754 27.8295 148.464 28.4815 147.884 29.027C147.313 29.5639 146.623 29.8324 145.813 29.8324ZM163.331 32.3636V36.4545H151.506V32.3636H163.331ZM154.19 27.6591H159.636V45.9659C159.636 46.4687 159.713 46.8608 159.866 47.142C160.02 47.4148 160.233 47.6065 160.506 47.7173C160.787 47.8281 161.111 47.8835 161.477 47.8835C161.733 47.8835 161.988 47.8622 162.244 47.8196C162.5 47.7685 162.696 47.7301 162.832 47.7045L163.689 51.7571C163.416 51.8423 163.032 51.9403 162.538 52.0511C162.044 52.1705 161.443 52.2429 160.736 52.2685C159.423 52.3196 158.273 52.1449 157.284 51.7443C156.304 51.3437 155.541 50.7216 154.996 49.8778C154.45 49.0341 154.182 47.9687 154.19 46.6818V27.6591ZM175.616 52.3835C173.596 52.3835 171.858 51.9744 170.4 51.1562C168.952 50.3295 167.835 49.1619 167.051 47.6534C166.267 46.1364 165.875 44.3423 165.875 42.2713C165.875 40.2514 166.267 38.4787 167.051 36.9531C167.835 35.4276 168.939 34.2386 170.362 33.3864C171.794 32.5341 173.473 32.108 175.399 32.108C176.694 32.108 177.9 32.3168 179.017 32.7344C180.142 33.1435 181.122 33.7614 181.957 34.5881C182.801 35.4148 183.457 36.4545 183.926 37.7074C184.395 38.9517 184.629 40.4091 184.629 42.0795V43.5753H168.048V40.2003H179.503C179.503 39.4162 179.332 38.7216 178.991 38.1165C178.65 37.5114 178.177 37.0384 177.572 36.6974C176.976 36.348 176.281 36.1733 175.488 36.1733C174.662 36.1733 173.929 36.3651 173.29 36.7486C172.659 37.1236 172.165 37.6307 171.807 38.2699C171.449 38.9006 171.265 39.6037 171.257 40.3793V43.5881C171.257 44.5597 171.436 45.3991 171.794 46.1065C172.16 46.8139 172.676 47.3594 173.341 47.7429C174.006 48.1264 174.794 48.3182 175.706 48.3182C176.311 48.3182 176.865 48.233 177.368 48.0625C177.871 47.892 178.301 47.6364 178.659 47.2955C179.017 46.9545 179.29 46.5369 179.477 46.0426L184.514 46.375C184.258 47.5852 183.734 48.642 182.942 49.5455C182.157 50.4403 181.143 51.1392 179.899 51.642C178.663 52.1364 177.236 52.3835 175.616 52.3835ZM202.488 33.348C202.386 32.3168 201.947 31.5156 201.172 30.9446C200.396 30.3736 199.344 30.0881 198.014 30.0881C197.111 30.0881 196.348 30.2159 195.726 30.4716C195.104 30.7188 194.626 31.0639 194.294 31.5071C193.97 31.9503 193.808 32.4531 193.808 33.0156C193.791 33.4844 193.889 33.8935 194.102 34.2429C194.324 34.5923 194.626 34.8949 195.01 35.1506C195.393 35.3977 195.836 35.6151 196.339 35.8026C196.842 35.9815 197.379 36.1349 197.95 36.2628L200.302 36.8253C201.444 37.081 202.493 37.4219 203.447 37.848C204.402 38.2741 205.229 38.7983 205.927 39.4205C206.626 40.0426 207.167 40.7756 207.551 41.6193C207.943 42.4631 208.143 43.4304 208.152 44.5213C208.143 46.1236 207.734 47.5128 206.925 48.6889C206.123 49.8565 204.964 50.7642 203.447 51.4119C201.939 52.0511 200.119 52.3707 197.988 52.3707C195.875 52.3707 194.034 52.0469 192.466 51.3991C190.906 50.7514 189.687 49.7926 188.809 48.5227C187.94 47.2443 187.484 45.6634 187.442 43.7798H192.798C192.858 44.6577 193.109 45.3906 193.552 45.9787C194.004 46.5582 194.605 46.9972 195.355 47.2955C196.113 47.5852 196.97 47.7301 197.925 47.7301C198.862 47.7301 199.676 47.5937 200.366 47.321C201.065 47.0483 201.606 46.669 201.99 46.1832C202.373 45.6974 202.565 45.1392 202.565 44.5085C202.565 43.9205 202.39 43.4261 202.041 43.0256C201.7 42.625 201.197 42.2841 200.532 42.0028C199.876 41.7216 199.071 41.4659 198.116 41.2358L195.265 40.5199C193.058 39.983 191.315 39.1435 190.037 38.0014C188.758 36.8594 188.123 35.321 188.132 33.3864C188.123 31.8011 188.545 30.4162 189.398 29.2315C190.258 28.0469 191.439 27.1222 192.939 26.4574C194.439 25.7926 196.143 25.4602 198.052 25.4602C199.996 25.4602 201.692 25.7926 203.14 26.4574C204.598 27.1222 205.731 28.0469 206.541 29.2315C207.351 30.4162 207.768 31.7884 207.794 33.348H202.488ZM211.773 59.3636V32.3636H217.142V35.6619H217.385C217.624 35.1335 217.969 34.5966 218.421 34.0511C218.881 33.4972 219.477 33.0369 220.21 32.6705C220.952 32.2955 221.872 32.108 222.972 32.108C224.404 32.108 225.725 32.483 226.935 33.233C228.145 33.9744 229.112 35.0952 229.837 36.5952C230.561 38.0866 230.923 39.9574 230.923 42.2074C230.923 44.3977 230.57 46.2472 229.862 47.7557C229.164 49.2557 228.209 50.3935 226.999 51.169C225.797 51.9361 224.45 52.3196 222.959 52.3196C221.902 52.3196 221.003 52.1449 220.262 51.7955C219.529 51.446 218.928 51.0071 218.459 50.4787C217.99 49.9418 217.632 49.4006 217.385 48.8551H217.219V59.3636H211.773ZM217.104 42.1818C217.104 43.3494 217.266 44.3679 217.59 45.2372C217.914 46.1065 218.382 46.7841 218.996 47.2699C219.61 47.7472 220.355 47.9858 221.233 47.9858C222.119 47.9858 222.869 47.7429 223.483 47.2571C224.097 46.7628 224.561 46.081 224.877 45.2116C225.2 44.3338 225.362 43.3239 225.362 42.1818C225.362 41.0483 225.205 40.0511 224.889 39.1903C224.574 38.3295 224.11 37.6562 223.496 37.1705C222.882 36.6847 222.128 36.4418 221.233 36.4418C220.347 36.4418 219.597 36.6761 218.983 37.1449C218.378 37.6136 217.914 38.2784 217.59 39.1392C217.266 40 217.104 41.0142 217.104 42.1818ZM243.503 52.3835C241.483 52.3835 239.744 51.9744 238.287 51.1562C236.838 50.3295 235.722 49.1619 234.938 47.6534C234.154 46.1364 233.762 44.3423 233.762 42.2713C233.762 40.2514 234.154 38.4787 234.938 36.9531C235.722 35.4276 236.825 34.2386 238.249 33.3864C239.681 32.5341 241.36 32.108 243.286 32.108C244.581 32.108 245.787 32.3168 246.904 32.7344C248.029 33.1435 249.009 33.7614 249.844 34.5881C250.688 35.4148 251.344 36.4545 251.813 37.7074C252.281 38.9517 252.516 40.4091 252.516 42.0795V43.5753H235.935V40.2003H247.389C247.389 39.4162 247.219 38.7216 246.878 38.1165C246.537 37.5114 246.064 37.0384 245.459 36.6974C244.862 36.348 244.168 36.1733 243.375 36.1733C242.548 36.1733 241.816 36.3651 241.176 36.7486C240.546 37.1236 240.051 37.6307 239.693 38.2699C239.335 38.9006 239.152 39.6037 239.144 40.3793V43.5881C239.144 44.5597 239.323 45.3991 239.681 46.1065C240.047 46.8139 240.563 47.3594 241.227 47.7429C241.892 48.1264 242.681 48.3182 243.593 48.3182C244.198 48.3182 244.752 48.233 245.254 48.0625C245.757 47.892 246.188 47.6364 246.546 47.2955C246.904 46.9545 247.176 46.5369 247.364 46.0426L252.401 46.375C252.145 47.5852 251.621 48.642 250.828 49.5455C250.044 50.4403 249.03 51.1392 247.786 51.642C246.55 52.1364 245.122 52.3835 243.503 52.3835ZM265.019 52.3835C262.999 52.3835 261.26 51.9744 259.803 51.1562C258.354 50.3295 257.237 49.1619 256.453 47.6534C255.669 46.1364 255.277 44.3423 255.277 42.2713C255.277 40.2514 255.669 38.4787 256.453 36.9531C257.237 35.4276 258.341 34.2386 259.764 33.3864C261.196 32.5341 262.875 32.108 264.801 32.108C266.097 32.108 267.303 32.3168 268.419 32.7344C269.544 33.1435 270.524 33.7614 271.36 34.5881C272.203 35.4148 272.86 36.4545 273.328 37.7074C273.797 38.9517 274.031 40.4091 274.031 42.0795V43.5753H257.45V40.2003H268.905C268.905 39.4162 268.735 38.7216 268.394 38.1165C268.053 37.5114 267.58 37.0384 266.975 36.6974C266.378 36.348 265.683 36.1733 264.891 36.1733C264.064 36.1733 263.331 36.3651 262.692 36.7486C262.061 37.1236 261.567 37.6307 261.209 38.2699C260.851 38.9006 260.668 39.6037 260.659 40.3793V43.5881C260.659 44.5597 260.838 45.3991 261.196 46.1065C261.563 46.8139 262.078 47.3594 262.743 47.7429C263.408 48.1264 264.196 48.3182 265.108 48.3182C265.713 48.3182 266.267 48.233 266.77 48.0625C267.273 47.892 267.703 47.6364 268.061 47.2955C268.419 46.9545 268.692 46.5369 268.879 46.0426L273.916 46.375C273.661 47.5852 273.137 48.642 272.344 49.5455C271.56 50.4403 270.546 51.1392 269.301 51.642C268.066 52.1364 266.638 52.3835 265.019 52.3835ZM284.821 52.3196C283.33 52.3196 281.979 51.9361 280.769 51.169C279.567 50.3935 278.612 49.2557 277.905 47.7557C277.206 46.2472 276.857 44.3977 276.857 42.2074C276.857 39.9574 277.219 38.0866 277.943 36.5952C278.668 35.0952 279.631 33.9744 280.833 33.233C282.043 32.483 283.368 32.108 284.808 32.108C285.908 32.108 286.824 32.2955 287.557 32.6705C288.298 33.0369 288.895 33.4972 289.347 34.0511C289.807 34.5966 290.156 35.1335 290.395 35.6619H290.561V25.8182H295.994V52H290.625V48.8551H290.395C290.139 49.4006 289.777 49.9418 289.308 50.4787C288.848 51.0071 288.247 51.446 287.506 51.7955C286.773 52.1449 285.878 52.3196 284.821 52.3196ZM286.547 47.9858C287.425 47.9858 288.166 47.7472 288.771 47.2699C289.385 46.7841 289.854 46.1065 290.178 45.2372C290.51 44.3679 290.676 43.3494 290.676 42.1818C290.676 41.0142 290.514 40 290.191 39.1392C289.867 38.2784 289.398 37.6136 288.784 37.1449C288.171 36.6761 287.425 36.4418 286.547 36.4418C285.652 36.4418 284.898 36.6847 284.284 37.1705C283.671 37.6562 283.206 38.3295 282.891 39.1903C282.575 40.0511 282.418 41.0483 282.418 42.1818C282.418 43.3239 282.575 44.3338 282.891 45.2116C283.215 46.081 283.679 46.7628 284.284 47.2571C284.898 47.7429 285.652 47.9858 286.547 47.9858ZM332.007 34.9844H326.408C326.306 34.2599 326.097 33.6165 325.781 33.054C325.466 32.483 325.061 31.9972 324.567 31.5966C324.073 31.196 323.502 30.8892 322.854 30.6761C322.215 30.4631 321.52 30.3565 320.77 30.3565C319.415 30.3565 318.235 30.6932 317.229 31.3665C316.223 32.0312 315.443 33.0028 314.889 34.2812C314.335 35.5511 314.058 37.0937 314.058 38.9091C314.058 40.7756 314.335 42.3437 314.889 43.6136C315.452 44.8835 316.236 45.8423 317.242 46.4901C318.247 47.1378 319.411 47.4616 320.732 47.4616C321.473 47.4616 322.159 47.3636 322.79 47.1676C323.429 46.9716 323.996 46.6861 324.49 46.3111C324.985 45.9276 325.394 45.4631 325.718 44.9176C326.05 44.3722 326.28 43.75 326.408 43.0511L332.007 43.0767C331.862 44.2784 331.5 45.4375 330.921 46.554C330.35 47.6619 329.578 48.6548 328.607 49.5327C327.644 50.402 326.493 51.0923 325.155 51.6037C323.825 52.1065 322.321 52.358 320.642 52.358C318.307 52.358 316.219 51.8295 314.378 50.7727C312.546 49.7159 311.097 48.1861 310.031 46.1832C308.975 44.1804 308.446 41.7557 308.446 38.9091C308.446 36.054 308.983 33.625 310.057 31.6222C311.131 29.6193 312.588 28.0937 314.429 27.0455C316.27 25.9886 318.341 25.4602 320.642 25.4602C322.159 25.4602 323.566 25.6733 324.861 26.0994C326.165 26.5256 327.32 27.1477 328.325 27.9659C329.331 28.7756 330.149 29.7685 330.78 30.9446C331.419 32.1207 331.828 33.4673 332.007 34.9844ZM341.474 52.3707C340.221 52.3707 339.105 52.1534 338.124 51.7188C337.144 51.2756 336.369 50.6236 335.798 49.7628C335.235 48.8935 334.954 47.8111 334.954 46.5156C334.954 45.4247 335.154 44.5085 335.555 43.767C335.955 43.0256 336.501 42.429 337.191 41.9773C337.882 41.5256 338.666 41.1847 339.544 40.9545C340.43 40.7244 341.359 40.5625 342.33 40.4688C343.472 40.3494 344.393 40.2386 345.092 40.1364C345.791 40.0256 346.298 39.8636 346.613 39.6506C346.928 39.4375 347.086 39.1222 347.086 38.7045V38.6278C347.086 37.8182 346.83 37.1918 346.319 36.7486C345.816 36.3054 345.1 36.0838 344.171 36.0838C343.191 36.0838 342.411 36.3011 341.832 36.7358C341.252 37.1619 340.869 37.6989 340.681 38.3466L335.644 37.9375C335.9 36.7443 336.403 35.7131 337.153 34.8438C337.903 33.9659 338.87 33.2926 340.055 32.8239C341.248 32.3466 342.629 32.108 344.197 32.108C345.288 32.108 346.332 32.2358 347.329 32.4915C348.335 32.7472 349.225 33.1435 350.001 33.6804C350.785 34.2173 351.403 34.9077 351.855 35.7514C352.306 36.5866 352.532 37.5881 352.532 38.7557V52H347.367V49.277H347.214C346.899 49.8906 346.477 50.4318 345.948 50.9006C345.42 51.3608 344.785 51.723 344.044 51.9872C343.302 52.2429 342.445 52.3707 341.474 52.3707ZM343.034 48.6122C343.835 48.6122 344.542 48.4545 345.156 48.1392C345.769 47.8153 346.251 47.3807 346.6 46.8352C346.95 46.2898 347.124 45.6719 347.124 44.9815V42.8977C346.954 43.0085 346.72 43.1108 346.421 43.2045C346.132 43.2898 345.803 43.3707 345.437 43.4474C345.07 43.5156 344.704 43.5795 344.338 43.6392C343.971 43.6903 343.639 43.7372 343.34 43.7798C342.701 43.8736 342.143 44.0227 341.666 44.2273C341.188 44.4318 340.818 44.7088 340.553 45.0582C340.289 45.3991 340.157 45.8253 340.157 46.3366C340.157 47.0781 340.426 47.6449 340.963 48.0369C341.508 48.4205 342.198 48.6122 343.034 48.6122ZM365.629 52.3835C363.618 52.3835 361.888 51.9574 360.439 51.1051C358.999 50.2443 357.891 49.0511 357.115 47.5256C356.348 46 355.965 44.2443 355.965 42.2585C355.965 40.2472 356.352 38.483 357.128 36.9659C357.912 35.4403 359.024 34.2514 360.465 33.3991C361.905 32.5384 363.618 32.108 365.604 32.108C367.317 32.108 368.817 32.419 370.104 33.0412C371.391 33.6634 372.409 34.5369 373.159 35.6619C373.909 36.7869 374.323 38.108 374.399 39.625H369.26C369.115 38.6449 368.732 37.8565 368.11 37.2599C367.496 36.6548 366.691 36.3523 365.693 36.3523C364.85 36.3523 364.112 36.5824 363.482 37.0426C362.86 37.4943 362.374 38.1548 362.024 39.0241C361.675 39.8935 361.5 40.946 361.5 42.1818C361.5 43.4347 361.671 44.5 362.012 45.3778C362.361 46.2557 362.851 46.9247 363.482 47.3849C364.112 47.8452 364.85 48.0753 365.693 48.0753C366.316 48.0753 366.874 47.9474 367.368 47.6918C367.871 47.4361 368.284 47.0653 368.608 46.5795C368.941 46.0852 369.158 45.4929 369.26 44.8026H374.399C374.314 46.3026 373.905 47.6236 373.172 48.7656C372.448 49.8991 371.446 50.7855 370.168 51.4247C368.889 52.0639 367.377 52.3835 365.629 52.3835ZM383.332 40.6477V52H377.886V25.8182H383.179V35.8281H383.409C383.852 34.669 384.568 33.7614 385.557 33.1051C386.545 32.4403 387.785 32.108 389.277 32.108C390.64 32.108 391.829 32.4062 392.844 33.0028C393.866 33.5909 394.659 34.4389 395.221 35.5469C395.792 36.6463 396.074 37.9631 396.065 39.4972V52H390.619V40.4688C390.628 39.2585 390.321 38.3168 389.699 37.6435C389.085 36.9702 388.224 36.6335 387.116 36.6335C386.375 36.6335 385.719 36.7912 385.148 37.1065C384.585 37.4219 384.142 37.8821 383.818 38.4872C383.503 39.0838 383.341 39.804 383.332 40.6477ZM409.3 52.3835C407.28 52.3835 405.541 51.9744 404.084 51.1562C402.635 50.3295 401.519 49.1619 400.735 47.6534C399.95 46.1364 399.558 44.3423 399.558 42.2713C399.558 40.2514 399.95 38.4787 400.735 36.9531C401.519 35.4276 402.622 34.2386 404.046 33.3864C405.477 32.5341 407.156 32.108 409.083 32.108C410.378 32.108 411.584 32.3168 412.7 32.7344C413.825 33.1435 414.806 33.7614 415.641 34.5881C416.485 35.4148 417.141 36.4545 417.61 37.7074C418.078 38.9517 418.313 40.4091 418.313 42.0795V43.5753H401.732V40.2003H413.186C413.186 39.4162 413.016 38.7216 412.675 38.1165C412.334 37.5114 411.861 37.0384 411.256 36.6974C410.659 36.348 409.965 36.1733 409.172 36.1733C408.345 36.1733 407.612 36.3651 406.973 36.7486C406.343 37.1236 405.848 37.6307 405.49 38.2699C405.132 38.9006 404.949 39.6037 404.941 40.3793V43.5881C404.941 44.5597 405.119 45.3991 405.477 46.1065C405.844 46.8139 406.36 47.3594 407.024 47.7429C407.689 48.1264 408.477 48.3182 409.389 48.3182C409.994 48.3182 410.548 48.233 411.051 48.0625C411.554 47.892 411.985 47.6364 412.343 47.2955C412.7 46.9545 412.973 46.5369 413.161 46.0426L418.198 46.375C417.942 47.5852 417.418 48.642 416.625 49.5455C415.841 50.4403 414.827 51.1392 413.583 51.642C412.347 52.1364 410.919 52.3835 409.3 52.3835ZM430.301 52V25.8182H440.631C442.616 25.8182 444.308 26.1974 445.706 26.956C447.104 27.706 448.169 28.75 448.902 30.0881C449.643 31.4176 450.014 32.9517 450.014 34.6903C450.014 36.429 449.639 37.9631 448.889 39.2926C448.139 40.6222 447.052 41.6577 445.629 42.3991C444.214 43.1406 442.501 43.5114 440.49 43.5114H433.906V39.0753H439.595C440.66 39.0753 441.538 38.892 442.229 38.5256C442.927 38.1506 443.447 37.6349 443.788 36.9787C444.138 36.3139 444.312 35.5511 444.312 34.6903C444.312 33.821 444.138 33.0625 443.788 32.4148C443.447 31.7585 442.927 31.2514 442.229 30.8935C441.53 30.527 440.643 30.3438 439.569 30.3438H435.836V52H430.301ZM458.953 25.8182V52H453.507V25.8182H458.953ZM475.908 43.6392V32.3636H481.354V52H476.126V48.4332H475.921C475.478 49.5838 474.741 50.5085 473.709 51.2074C472.687 51.9062 471.438 52.2557 469.964 52.2557C468.651 52.2557 467.496 51.9574 466.499 51.3608C465.502 50.7642 464.722 49.9162 464.16 48.8168C463.606 47.7173 463.324 46.4006 463.316 44.8665V32.3636H468.762V43.8949C468.77 45.054 469.081 45.9702 469.695 46.6435C470.309 47.3168 471.131 47.6534 472.162 47.6534C472.819 47.6534 473.432 47.5043 474.003 47.206C474.574 46.8991 475.035 46.4474 475.384 45.8509C475.742 45.2543 475.917 44.517 475.908 43.6392ZM494.557 59.7727C492.793 59.7727 491.28 59.5298 490.019 59.044C488.766 58.5668 487.769 57.9148 487.027 57.0881C486.286 56.2614 485.804 55.3324 485.583 54.3011L490.619 53.6236C490.773 54.0156 491.016 54.3821 491.348 54.723C491.681 55.0639 492.119 55.3366 492.665 55.5412C493.219 55.7543 493.892 55.8608 494.685 55.8608C495.869 55.8608 496.845 55.571 497.612 54.9915C498.388 54.4205 498.776 53.4616 498.776 52.1151V48.5227H498.546C498.307 49.0682 497.949 49.5838 497.472 50.0696C496.994 50.5554 496.381 50.9517 495.631 51.2585C494.881 51.5653 493.986 51.7188 492.946 51.7188C491.472 51.7188 490.129 51.3778 488.919 50.696C487.718 50.0057 486.759 48.9531 486.043 47.5384C485.335 46.1151 484.982 44.3168 484.982 42.1435C484.982 39.919 485.344 38.0611 486.068 36.5696C486.793 35.0781 487.756 33.9616 488.958 33.2202C490.168 32.4787 491.493 32.108 492.933 32.108C494.033 32.108 494.953 32.2955 495.695 32.6705C496.436 33.0369 497.033 33.4972 497.485 34.0511C497.945 34.5966 498.298 35.1335 498.546 35.6619H498.75V32.3636H504.158V52.1918C504.158 53.8622 503.749 55.2599 502.931 56.3849C502.112 57.5099 500.979 58.3537 499.53 58.9162C498.09 59.4872 496.432 59.7727 494.557 59.7727ZM494.672 47.6278C495.55 47.6278 496.291 47.4105 496.896 46.9759C497.51 46.5327 497.979 45.902 498.303 45.0838C498.635 44.2571 498.801 43.2685 498.801 42.1179C498.801 40.9673 498.639 39.9702 498.316 39.1264C497.992 38.2741 497.523 37.6136 496.909 37.1449C496.296 36.6761 495.55 36.4418 494.672 36.4418C493.777 36.4418 493.023 36.6847 492.409 37.1705C491.796 37.6477 491.331 38.3125 491.016 39.1648C490.7 40.017 490.543 41.0014 490.543 42.1179C490.543 43.2514 490.7 44.2315 491.016 45.0582C491.34 45.8764 491.804 46.5114 492.409 46.9631C493.023 47.4062 493.777 47.6278 494.672 47.6278ZM508.492 52V32.3636H513.938V52H508.492ZM511.227 29.8324C510.418 29.8324 509.723 29.5639 509.144 29.027C508.573 28.4815 508.287 27.8295 508.287 27.071C508.287 26.321 508.573 25.6776 509.144 25.1406C509.723 24.5952 510.418 24.3224 511.227 24.3224C512.037 24.3224 512.727 24.5952 513.298 25.1406C513.878 25.6776 514.168 26.321 514.168 27.071C514.168 27.8295 513.878 28.4815 513.298 29.027C512.727 29.5639 512.037 29.8324 511.227 29.8324ZM523.746 40.6477V52H518.3V32.3636H523.491V35.8281H523.721C524.155 34.6861 524.884 33.7827 525.907 33.1179C526.93 32.4446 528.17 32.108 529.627 32.108C530.991 32.108 532.18 32.4062 533.194 33.0028C534.208 33.5994 534.996 34.4517 535.559 35.5597C536.121 36.6591 536.403 37.9716 536.403 39.4972V52H530.956V40.4688C530.965 39.267 530.658 38.3295 530.036 37.6562C529.414 36.9744 528.557 36.6335 527.466 36.6335C526.733 36.6335 526.086 36.7912 525.523 37.1065C524.969 37.4219 524.535 37.8821 524.219 38.4872C523.912 39.0838 523.755 39.804 523.746 40.6477Z" fill="white"/>
<path d="M18.4164 29.8972L29.6769 60.7238C21.8001 56.9093 16.3751 48.8367 16.3751 39.5C16.3751 36.0736 17.1073 32.8357 18.4164 29.8972V29.8972ZM55.9034 38.3135C55.9034 35.3972 54.8606 33.379 53.9619 31.8044C52.7638 29.8639 51.6433 28.2117 51.6433 26.2712C51.6433 24.0978 53.2852 22.0796 55.6039 22.0796C55.7037 22.0796 55.8036 22.0907 55.9145 22.1018C51.7098 18.254 46.1184 15.9032 39.9723 15.9032C31.7294 15.9032 24.4738 20.128 20.247 26.5373C20.8017 26.5595 21.3231 26.5706 21.7668 26.5706C24.2297 26.5706 28.0572 26.2712 28.0572 26.2712C29.333 26.1935 29.4773 28.0675 28.2125 28.2117C28.2125 28.2117 26.9367 28.3558 25.5167 28.4335L34.1146 53.9819L39.2844 38.502L35.6123 28.4335C34.3365 28.3558 33.1383 28.2117 33.1383 28.2117C31.8625 28.1341 32.0178 26.1935 33.2825 26.2712C33.2825 26.2712 37.1766 26.5706 39.4952 26.5706C41.9581 26.5706 45.7856 26.2712 45.7856 26.2712C47.0614 26.1935 47.2056 28.0675 45.9409 28.2117C45.9409 28.2117 44.6651 28.3558 43.245 28.4335L51.7764 53.7933L54.1284 45.9315C55.1268 42.6714 55.9034 40.3317 55.9034 38.3135ZM40.3828 41.5625L33.3047 62.1321C35.4237 62.753 37.6536 63.0968 39.9723 63.0968C42.7236 63.0968 45.3529 62.62 47.8047 61.755C47.7382 61.6552 47.6827 61.5444 47.6383 61.4335L40.3828 41.5625ZM60.685 28.1784C60.7848 28.9325 60.8403 29.7308 60.8403 30.6069C60.8403 33.002 60.3965 35.6855 59.043 39.0565L51.8319 59.8921C58.8544 55.8004 63.5694 48.2046 63.5694 39.5C63.5694 35.3972 62.5266 31.5383 60.685 28.1784V28.1784ZM67.4857 39.5C67.4857 54.6694 55.1379 67 39.9723 67C24.7955 67 12.4589 54.6583 12.4589 39.5C12.4589 24.3306 24.7955 12 39.9723 12C55.1379 12 67.4857 24.3306 67.4857 39.5ZM66.2209 39.5C66.2209 25.0292 54.439 13.2641 39.9723 13.2641C25.4945 13.2641 13.7236 25.0292 13.7236 39.5C13.7236 53.9708 25.5056 65.7359 39.9723 65.7359C54.4501 65.7359 66.2209 53.9708 66.2209 39.5Z" fill="#FFA800"/>
</svg>
