<svg width="846" height="193" viewBox="0 0 846 193" fill="none" xmlns="http://www.w3.org/2000/svg">
<rect width="846" height="193" fill="white"/>
<path d="M64.8319 66.1C64.8319 69.18 63.6586 71.655 61.3119 73.525C59.0019 75.3583 55.7569 76.275 51.5769 76.275C47.6536 76.275 44.4086 75.6517 41.8419 74.405V66.705C44.7752 68.3183 47.8002 69.125 50.9169 69.125C52.7136 69.125 54.1069 68.74 55.0969 67.97C56.1236 67.2 56.6369 66.2283 56.6369 65.055C56.6369 62.3783 54.1619 61.04 49.2119 61.04H47.2869V54.44H49.2119C51.1552 54.44 52.7502 54.11 53.9969 53.45C55.2436 52.79 55.8669 51.8 55.8669 50.48C55.8669 47.95 54.2169 46.685 50.9169 46.685C48.3869 46.685 45.8386 47.4733 43.2719 49.05V41.57C45.9852 40.2133 48.7169 39.535 51.4669 39.535C55.3536 39.535 58.4336 40.47 60.7069 42.34C62.9802 44.1733 64.1169 46.575 64.1169 49.545C64.1169 53.615 62.2652 56.42 58.5619 57.96C62.7419 58.95 64.8319 61.6633 64.8319 66.1ZM94.9388 57.85C94.9388 63.4967 93.8205 68.0067 91.5838 71.38C89.3838 74.7533 86.1205 76.44 81.7938 76.44C77.4671 76.44 74.2038 74.7717 72.0038 71.435C69.8038 68.0617 68.7038 63.5333 68.7038 57.85C68.7038 52.13 69.8038 47.6017 72.0038 44.265C74.2038 40.9283 77.4671 39.26 81.7938 39.26C86.1205 39.26 89.3838 40.9283 91.5838 44.265C93.8205 47.6017 94.9388 52.13 94.9388 57.85ZM81.7938 46.41C78.5305 46.41 76.8988 50.2233 76.8988 57.85C76.8988 65.4767 78.5305 69.29 81.7938 69.29C85.0938 69.29 86.7438 65.4767 86.7438 57.85C86.7438 50.2233 85.0938 46.41 81.7938 46.41ZM114.017 64.89H99.3319V58.29H114.017V64.89ZM132.74 76H120.09V38.93H132.85C138.423 38.93 142.988 40.6533 146.545 44.1C150.102 47.51 151.88 51.7633 151.88 56.86C151.88 62.8 150.12 67.475 146.6 70.885C143.117 74.295 138.497 76 132.74 76ZM132.575 45.915H128.78V69.07H132.63C136.04 69.07 138.662 68.0067 140.495 65.88C142.365 63.7533 143.3 60.7467 143.3 56.86C143.3 53.56 142.365 50.92 140.495 48.94C138.625 46.9233 135.985 45.915 132.575 45.915ZM167.589 70.5C168.726 70.5 169.606 70.1517 170.229 69.455C170.852 68.7583 171.164 67.805 171.164 66.595V64.56H168.579C167.222 64.56 166.177 64.8533 165.444 65.44C164.711 66.0267 164.344 66.7783 164.344 67.695C164.344 69.565 165.426 70.5 167.589 70.5ZM171.549 72.59C170.376 74.9733 168.066 76.165 164.619 76.165C161.906 76.165 159.779 75.395 158.239 73.855C156.736 72.315 155.984 70.39 155.984 68.08C155.984 65.4033 156.956 63.3317 158.899 61.865C160.879 60.3617 163.794 59.61 167.644 59.61H171.164V57.685C171.164 55.3383 169.606 54.165 166.489 54.165C163.482 54.165 160.696 55.0083 158.129 56.695V49.49C160.329 48.2433 163.501 47.62 167.644 47.62C171.604 47.62 174.556 48.4817 176.499 50.205C178.442 51.8917 179.414 54.5317 179.414 58.125V76H171.549V72.59ZM201.338 75.175C198.442 82.985 194.023 86.89 188.083 86.89C186.947 86.89 185.92 86.7983 185.003 86.615V80.235C185.59 80.3817 186.213 80.455 186.873 80.455C189.917 80.455 192.117 78.8233 193.473 75.56L182.693 48.115H191.438L194.463 56.805C195.233 59.0417 195.857 60.9667 196.333 62.58C196.847 64.1933 197.158 65.2567 197.268 65.77L197.433 66.54C197.837 65.0733 198.827 61.8283 200.403 56.805L203.153 48.115H211.403L201.338 75.175ZM236.661 76H228.191L231.381 38.93H240.676L245.846 52.35C246.726 54.5867 247.478 56.64 248.101 58.51C248.724 60.38 249.128 61.7 249.311 62.47L249.586 63.57C250.173 61.15 251.456 57.41 253.436 52.35L258.661 38.93H267.956L271.806 76H263.336L261.961 61.645L261.246 50.81C260.293 53.56 258.973 57.1717 257.286 61.645L252.061 75.615H247.056L241.886 61.645C241.043 59.3717 240.328 57.3367 239.741 55.54C239.154 53.7433 238.769 52.4967 238.586 51.8L238.311 50.81C238.311 53.4133 238.146 57.025 237.816 61.645L236.661 76ZM303.793 61.92C303.793 66.1367 302.583 69.62 300.163 72.37C297.779 75.0833 294.443 76.44 290.153 76.44C285.789 76.44 282.416 75.1383 280.033 72.535C277.649 69.895 276.458 66.5217 276.458 62.415C276.458 58.125 277.704 54.605 280.198 51.855C282.691 49.0683 286.009 47.675 290.153 47.675C294.479 47.675 297.834 49.0133 300.218 51.69C302.601 54.3667 303.793 57.7767 303.793 61.92ZM286.138 56.255C285.258 57.7583 284.818 59.7017 284.818 62.085C284.818 64.4683 285.258 66.43 286.138 67.97C287.054 69.4733 288.411 70.225 290.208 70.225C291.968 70.225 293.269 69.4917 294.113 68.025C294.993 66.5217 295.433 64.5783 295.433 62.195C295.433 56.7317 293.654 54 290.098 54C288.338 54 287.018 54.7517 286.138 56.255ZM334.614 76H326.584V59.39C326.584 57.74 326.199 56.4933 325.429 55.65C324.659 54.77 323.577 54.33 322.184 54.33C320.717 54.33 319.489 54.9167 318.499 56.09C317.545 57.2267 317.069 58.95 317.069 61.26V76H309.039V48.115H317.069V52.845C317.765 51.305 318.829 50.095 320.259 49.215C321.725 48.2983 323.467 47.84 325.484 47.84C328.344 47.84 330.58 48.7017 332.194 50.425C333.807 52.1117 334.614 54.605 334.614 57.905V76ZM362.833 74.405C360.926 75.6517 358.011 76.275 354.088 76.275C349.505 76.275 345.93 74.955 343.363 72.315C340.833 69.6383 339.568 66.21 339.568 62.03C339.568 57.5933 340.796 54.1283 343.253 51.635C345.746 49.105 348.808 47.84 352.438 47.84C356.178 47.84 359.13 48.94 361.293 51.14C363.456 53.3033 364.538 56.5483 364.538 60.875C364.538 61.7183 364.391 63.1667 364.098 65.22H347.708C348.258 66.76 349.211 67.9517 350.568 68.795C351.925 69.6383 353.556 70.06 355.463 70.06C358.286 70.06 360.743 69.2717 362.833 67.695V74.405ZM352.768 53.945C351.485 53.945 350.348 54.4217 349.358 55.375C348.368 56.2917 347.708 57.6667 347.378 59.5H357.058V58.84C356.801 55.5767 355.371 53.945 352.768 53.945ZM385.889 75.175C382.993 82.985 378.574 86.89 372.634 86.89C371.498 86.89 370.471 86.7983 369.554 86.615V80.235C370.141 80.3817 370.764 80.455 371.424 80.455C374.468 80.455 376.668 78.8233 378.024 75.56L367.244 48.115H375.989L379.014 56.805C379.784 59.0417 380.408 60.9667 380.884 62.58C381.398 64.1933 381.709 65.2567 381.819 65.77L381.984 66.54C382.388 65.0733 383.378 61.8283 384.954 56.805L387.704 48.115H395.954L385.889 75.175ZM413.402 64.89H398.717V58.29H413.402V64.89ZM435.48 76H419.475V38.93H433.885C437.955 38.93 441.053 39.9017 443.18 41.845C445.307 43.7517 446.37 46.19 446.37 49.16C446.37 51.1033 445.857 52.8083 444.83 54.275C443.803 55.7417 442.465 56.7317 440.815 57.245C445.105 58.5283 447.25 61.425 447.25 65.935C447.25 68.8683 446.187 71.2883 444.06 73.195C441.97 75.065 439.11 76 435.48 76ZM432.455 45.695H427.945V54H431.08C433.28 54 434.93 53.5967 436.03 52.79C437.167 51.9833 437.735 50.92 437.735 49.6C437.735 46.9967 435.975 45.695 432.455 45.695ZM432.455 60.655H427.945V69.235H432.4C436.58 69.235 438.67 67.805 438.67 64.945C438.67 62.085 436.598 60.655 432.455 60.655ZM462.731 70.5C463.867 70.5 464.747 70.1517 465.371 69.455C465.994 68.7583 466.306 67.805 466.306 66.595V64.56H463.721C462.364 64.56 461.319 64.8533 460.586 65.44C459.852 66.0267 459.486 66.7783 459.486 67.695C459.486 69.565 460.567 70.5 462.731 70.5ZM466.691 72.59C465.517 74.9733 463.207 76.165 459.761 76.165C457.047 76.165 454.921 75.395 453.381 73.855C451.877 72.315 451.126 70.39 451.126 68.08C451.126 65.4033 452.097 63.3317 454.041 61.865C456.021 60.3617 458.936 59.61 462.786 59.61H466.306V57.685C466.306 55.3383 464.747 54.165 461.631 54.165C458.624 54.165 455.837 55.0083 453.271 56.695V49.49C455.471 48.2433 458.642 47.62 462.786 47.62C466.746 47.62 469.697 48.4817 471.641 50.205C473.584 51.8917 474.556 54.5317 474.556 58.125V76H466.691V72.59ZM501.705 74.68C499.542 75.8533 496.938 76.44 493.895 76.44C489.715 76.44 486.268 75.12 483.555 72.48C480.842 69.8033 479.485 66.3567 479.485 62.14C479.558 57.96 480.915 54.5133 483.555 51.8C486.195 49.05 489.807 47.675 494.39 47.675C497.213 47.675 499.652 48.2067 501.705 49.27V56.145C499.762 54.935 497.598 54.33 495.215 54.33C492.978 54.33 491.163 55.0083 489.77 56.365C488.377 57.685 487.662 59.61 487.625 62.14C487.772 64.5967 488.505 66.5033 489.825 67.86C491.145 69.2167 492.887 69.895 495.05 69.895C497.36 69.895 499.578 69.2533 501.705 67.97V74.68ZM514.671 76H506.641V38.05H514.671V60.6L523.471 48.115H532.711L523.031 61.48L532.876 76H523.581L514.671 62.305V76ZM582.753 72.59C579.233 75.1567 574.796 76.44 569.443 76.44C563.503 76.44 558.681 74.735 554.978 71.325C551.275 67.915 549.423 63.2767 549.423 57.41C549.423 51.6167 551.348 46.9783 555.198 43.495C559.085 40.0117 563.998 38.27 569.938 38.27C574.118 38.27 577.73 39.04 580.773 40.58V49.05C577.253 47.0333 573.641 46.025 569.938 46.025C566.455 46.025 563.686 47.07 561.633 49.16C559.58 51.2133 558.553 53.9633 558.553 57.41C558.553 60.8933 559.561 63.6617 561.578 65.715C563.595 67.7683 566.345 68.795 569.828 68.795C571.405 68.795 572.963 68.5567 574.503 68.08V61.095H568.508V53.89H582.753V72.59ZM614.656 76H606.626V71.545C605.159 74.6617 602.336 76.22 598.156 76.22C595.296 76.22 593.059 75.4317 591.446 73.855C589.869 72.2417 589.081 69.8767 589.081 66.76V48.115H597.111V64.945C597.111 68.2083 598.541 69.84 601.401 69.84C604.884 69.84 606.626 67.5117 606.626 62.855V48.115H614.656V76ZM631.49 70.5C632.627 70.5 633.507 70.1517 634.13 69.455C634.754 68.7583 635.065 67.805 635.065 66.595V64.56H632.48C631.124 64.56 630.079 64.8533 629.345 65.44C628.612 66.0267 628.245 66.7783 628.245 67.695C628.245 69.565 629.327 70.5 631.49 70.5ZM635.45 72.59C634.277 74.9733 631.967 76.165 628.52 76.165C625.807 76.165 623.68 75.395 622.14 73.855C620.637 72.315 619.885 70.39 619.885 68.08C619.885 65.4033 620.857 63.3317 622.8 61.865C624.78 60.3617 627.695 59.61 631.545 59.61H635.065V57.685C635.065 55.3383 633.507 54.165 630.39 54.165C627.384 54.165 624.597 55.0083 622.03 56.695V49.49C624.23 48.2433 627.402 47.62 631.545 47.62C635.505 47.62 638.457 48.4817 640.4 50.205C642.344 51.8917 643.315 54.5317 643.315 58.125V76H635.45V72.59ZM657.595 76H649.565L649.62 48.115H657.595V53.285C658.108 51.6717 658.951 50.3883 660.125 49.435C661.335 48.445 662.728 47.95 664.305 47.95C665.185 47.95 665.881 48.0233 666.395 48.17V55.76C665.515 55.3567 664.506 55.155 663.37 55.155C661.646 55.155 660.253 55.7967 659.19 57.08C658.126 58.3267 657.595 59.995 657.595 62.085V76ZM680.206 70.5C681.343 70.5 682.223 70.1517 682.846 69.455C683.47 68.7583 683.781 67.805 683.781 66.595V64.56H681.196C679.84 64.56 678.795 64.8533 678.061 65.44C677.328 66.0267 676.961 66.7783 676.961 67.695C676.961 69.565 678.043 70.5 680.206 70.5ZM684.166 72.59C682.993 74.9733 680.683 76.165 677.236 76.165C674.523 76.165 672.396 75.395 670.856 73.855C669.353 72.315 668.601 70.39 668.601 68.08C668.601 65.4033 669.573 63.3317 671.516 61.865C673.496 60.3617 676.411 59.61 680.261 59.61H683.781V57.685C683.781 55.3383 682.223 54.165 679.106 54.165C676.1 54.165 673.313 55.0083 670.746 56.695V49.49C672.946 48.2433 676.118 47.62 680.261 47.62C684.221 47.62 687.173 48.4817 689.116 50.205C691.06 51.8917 692.031 54.5317 692.031 58.125V76H684.166V72.59ZM723.911 76H715.881V59.39C715.881 57.74 715.496 56.4933 714.726 55.65C713.956 54.77 712.874 54.33 711.481 54.33C710.014 54.33 708.786 54.9167 707.796 56.09C706.842 57.2267 706.366 58.95 706.366 61.26V76H698.336V48.115H706.366V52.845C707.062 51.305 708.126 50.095 709.556 49.215C711.022 48.2983 712.764 47.84 714.781 47.84C717.641 47.84 719.877 48.7017 721.491 50.425C723.104 52.1117 723.911 54.605 723.911 57.905V76ZM746.52 75.395C745.163 75.9817 743.33 76.275 741.02 76.275C734.677 76.275 731.505 73.1033 731.505 66.76V54H727.49V48.115H731.505V41.515H739.535V48.115H746.025V54H739.535V66.815C739.535 67.805 739.81 68.5567 740.36 69.07C740.947 69.5833 741.698 69.84 742.615 69.84C744.082 69.84 745.383 69.4733 746.52 68.74V75.395ZM773.346 74.405C771.439 75.6517 768.524 76.275 764.601 76.275C760.017 76.275 756.442 74.955 753.876 72.315C751.346 69.6383 750.081 66.21 750.081 62.03C750.081 57.5933 751.309 54.1283 753.766 51.635C756.259 49.105 759.321 47.84 762.951 47.84C766.691 47.84 769.642 48.94 771.806 51.14C773.969 53.3033 775.051 56.5483 775.051 60.875C775.051 61.7183 774.904 63.1667 774.611 65.22H758.221C758.771 66.76 759.724 67.9517 761.081 68.795C762.437 69.6383 764.069 70.06 765.976 70.06C768.799 70.06 771.256 69.2717 773.346 67.695V74.405ZM763.281 53.945C761.997 53.945 760.861 54.4217 759.871 55.375C758.881 56.2917 758.221 57.6667 757.891 59.5H767.571V58.84C767.314 55.5767 765.884 53.945 763.281 53.945ZM802.672 74.405C800.765 75.6517 797.85 76.275 793.927 76.275C789.344 76.275 785.769 74.955 783.202 72.315C780.672 69.6383 779.407 66.21 779.407 62.03C779.407 57.5933 780.635 54.1283 783.092 51.635C785.585 49.105 788.647 47.84 792.277 47.84C796.017 47.84 798.969 48.94 801.132 51.14C803.295 53.3033 804.377 56.5483 804.377 60.875C804.377 61.7183 804.23 63.1667 803.937 65.22H787.547C788.097 66.76 789.05 67.9517 790.407 68.795C791.764 69.6383 793.395 70.06 795.302 70.06C798.125 70.06 800.582 69.2717 802.672 67.695V74.405ZM792.607 53.945C791.324 53.945 790.187 54.4217 789.197 55.375C788.207 56.2917 787.547 57.6667 787.217 59.5H796.897V58.84C796.64 55.5767 795.21 53.945 792.607 53.945Z" fill="black"/>
<path d="M16.4632 143H14.1972L10.3252 128.172H12.1952L13.5812 133.672L15.4072 141.13C16.2285 138.123 16.9252 135.637 17.4972 133.672L19.0372 128.392H20.8192L22.4472 133.672L24.6912 141.196C25.3659 137.955 25.9085 135.454 26.3192 133.694L27.5732 128.172H29.3772L25.9012 143H23.6132L22.1832 138.314L19.9612 130.9C19.5065 132.631 18.8025 135.102 17.8492 138.314L16.4632 143ZM39.9257 142.428C39.0604 142.883 38.0044 143.11 36.7577 143.11C35.071 143.11 33.707 142.597 32.6657 141.57C31.639 140.529 31.1257 139.157 31.1257 137.456C31.1257 135.681 31.5877 134.281 32.5117 133.254C33.4357 132.227 34.6237 131.714 36.0757 131.714C37.469 131.714 38.5764 132.161 39.3977 133.056C40.219 133.951 40.6297 135.219 40.6297 136.862C40.6297 137.331 40.593 137.764 40.5197 138.16H32.9077C33.0397 139.26 33.4577 140.103 34.1617 140.69C34.8657 141.277 35.7897 141.57 36.9337 141.57C38.1804 141.57 39.1777 141.313 39.9257 140.8V142.428ZM36.0757 133.232C35.2397 133.232 34.5284 133.533 33.9417 134.134C33.355 134.735 33.0104 135.593 32.9077 136.708H38.8917V136.268C38.8917 135.344 38.6424 134.611 38.1437 134.068C37.645 133.511 36.9557 133.232 36.0757 133.232ZM44.2038 133.232H42.6418V128.018H44.2038V133.232ZM48.6078 143H46.8698V127.446H48.6078V143ZM53.7425 143H52.0045V127.446H53.7425V143ZM64.1384 143H62.4004L62.4224 131.846H64.1384V133.804C64.7251 132.425 65.7371 131.736 67.1744 131.736C67.4384 131.736 67.6437 131.751 67.7904 131.78V133.496C67.4824 133.393 67.1671 133.342 66.8444 133.342C66.0671 133.342 65.4217 133.701 64.9084 134.42C64.3951 135.139 64.1384 135.967 64.1384 136.906V143ZM77.7382 142.428C76.8729 142.883 75.8169 143.11 74.5702 143.11C72.8835 143.11 71.5195 142.597 70.4782 141.57C69.4515 140.529 68.9382 139.157 68.9382 137.456C68.9382 135.681 69.4002 134.281 70.3242 133.254C71.2482 132.227 72.4362 131.714 73.8882 131.714C75.2815 131.714 76.3889 132.161 77.2102 133.056C78.0315 133.951 78.4422 135.219 78.4422 136.862C78.4422 137.331 78.4055 137.764 78.3322 138.16H70.7202C70.8522 139.26 71.2702 140.103 71.9742 140.69C72.6782 141.277 73.6022 141.57 74.7462 141.57C75.9929 141.57 76.9902 141.313 77.7382 140.8V142.428ZM73.8882 133.232C73.0522 133.232 72.3409 133.533 71.7542 134.134C71.1675 134.735 70.8229 135.593 70.7202 136.708H76.7042V136.268C76.7042 135.344 76.4549 134.611 75.9562 134.068C75.4575 133.511 74.7682 133.232 73.8882 133.232ZM86.2623 133.254H83.7983V143H82.0603V133.254H80.1463V131.846H82.0603V130.812C82.0603 129.727 82.3463 128.869 82.9183 128.238C83.505 127.607 84.3117 127.292 85.3383 127.292C85.6903 127.292 86.0497 127.343 86.4163 127.446V129.03C86.0643 128.913 85.727 128.854 85.4043 128.854C84.935 128.854 84.5463 129.015 84.2383 129.338C83.945 129.661 83.7983 130.159 83.7983 130.834V131.846H86.2623V133.254ZM97.0006 143H95.2626V141.064C94.6759 142.443 93.5099 143.132 91.7646 143.132C90.6646 143.132 89.7919 142.809 89.1466 142.164C88.5159 141.504 88.2006 140.624 88.2006 139.524V131.846H89.9386V139.084C89.9386 139.891 90.1439 140.507 90.5546 140.932C90.9652 141.357 91.5226 141.57 92.2266 141.57C93.1506 141.57 93.8839 141.247 94.4266 140.602C94.9839 139.957 95.2626 139.084 95.2626 137.984V131.846H97.0006V143ZM109.013 143H107.275V135.784C107.275 134.963 107.063 134.339 106.637 133.914C106.227 133.474 105.684 133.254 105.009 133.254C104.173 133.254 103.447 133.577 102.831 134.222C102.23 134.867 101.929 135.762 101.929 136.906V143H100.213V131.846H101.929V133.782C102.589 132.389 103.763 131.692 105.449 131.692C106.535 131.692 107.4 132.022 108.045 132.682C108.691 133.342 109.013 134.222 109.013 135.322V143ZM113.238 137.544C113.238 138.747 113.532 139.722 114.118 140.47C114.705 141.218 115.446 141.592 116.34 141.592C117.25 141.592 118.02 141.255 118.65 140.58C119.296 139.905 119.618 138.827 119.618 137.346C119.618 135.938 119.288 134.904 118.628 134.244C117.968 133.584 117.242 133.254 116.45 133.254C115.526 133.254 114.756 133.628 114.14 134.376C113.539 135.109 113.238 136.165 113.238 137.544ZM121.356 143H119.618V141.35C118.826 142.567 117.682 143.176 116.186 143.176C114.705 143.176 113.539 142.626 112.688 141.526C111.852 140.426 111.434 139.091 111.434 137.522C111.434 135.777 111.882 134.369 112.776 133.298C113.671 132.213 114.822 131.67 116.23 131.67C117.682 131.67 118.812 132.293 119.618 133.54V127.446H121.356V143ZM134.788 142.714C134.216 144.225 133.534 145.288 132.742 145.904C131.964 146.52 131.07 146.828 130.058 146.828C129.676 146.828 129.368 146.791 129.134 146.718V145.156C129.354 145.215 129.603 145.244 129.882 145.244C131.363 145.244 132.412 144.401 133.028 142.714L128.518 131.846H130.476L131.928 135.52L133.886 140.58C134.003 140.199 134.59 138.512 135.646 135.52L136.944 131.846H138.814L134.788 142.714ZM150.609 137.456C150.609 139.113 150.14 140.485 149.201 141.57C148.263 142.655 146.972 143.198 145.329 143.198C143.731 143.198 142.462 142.663 141.523 141.592C140.599 140.507 140.137 139.143 140.137 137.5C140.137 135.843 140.614 134.464 141.567 133.364C142.535 132.249 143.789 131.692 145.329 131.692C147.016 131.692 148.314 132.235 149.223 133.32C150.147 134.405 150.609 135.784 150.609 137.456ZM141.941 137.478C141.941 138.637 142.249 139.627 142.865 140.448C143.481 141.255 144.303 141.658 145.329 141.658C146.444 141.658 147.302 141.262 147.903 140.47C148.505 139.663 148.805 138.666 148.805 137.478C148.805 136.246 148.519 135.234 147.947 134.442C147.375 133.635 146.503 133.232 145.329 133.232C144.273 133.232 143.445 133.643 142.843 134.464C142.242 135.285 141.941 136.29 141.941 137.478ZM161.819 143H160.081V141.064C159.494 142.443 158.328 143.132 156.583 143.132C155.483 143.132 154.61 142.809 153.965 142.164C153.334 141.504 153.019 140.624 153.019 139.524V131.846H154.757V139.084C154.757 139.891 154.962 140.507 155.373 140.932C155.784 141.357 156.341 141.57 157.045 141.57C157.969 141.57 158.702 141.247 159.245 140.602C159.802 139.957 160.081 139.084 160.081 137.984V131.846H161.819V143ZM166.748 143H165.01L165.032 131.846H166.748V133.804C167.334 132.425 168.346 131.736 169.784 131.736C170.048 131.736 170.253 131.751 170.4 131.78V133.496C170.092 133.393 169.776 133.342 169.454 133.342C168.676 133.342 168.031 133.701 167.518 134.42C167.004 135.139 166.748 135.967 166.748 136.906V143ZM179.295 147.334H177.579V131.846H179.295V133.54C180.072 132.293 181.223 131.67 182.749 131.67C184.23 131.67 185.389 132.213 186.225 133.298C187.075 134.369 187.501 135.711 187.501 137.324C187.501 139.04 187.053 140.448 186.159 141.548C185.279 142.633 184.127 143.176 182.705 143.176C181.238 143.176 180.101 142.553 179.295 141.306V147.334ZM179.295 137.434C179.295 138.857 179.625 139.905 180.285 140.58C180.945 141.255 181.678 141.592 182.485 141.592C183.423 141.592 184.193 141.225 184.795 140.492C185.396 139.744 185.697 138.688 185.697 137.324C185.697 136.107 185.403 135.124 184.817 134.376C184.23 133.628 183.489 133.254 182.595 133.254C181.7 133.254 180.923 133.584 180.263 134.244C179.617 134.889 179.295 135.953 179.295 137.434ZM193.471 141.658C194.263 141.658 194.894 141.438 195.363 140.998C195.832 140.543 196.067 139.971 196.067 139.282V137.852H194.131C193.192 137.852 192.488 138.035 192.019 138.402C191.55 138.769 191.315 139.231 191.315 139.788C191.315 140.345 191.498 140.8 191.865 141.152C192.232 141.489 192.767 141.658 193.471 141.658ZM196.089 141.68C195.517 142.633 194.476 143.11 192.965 143.11C191.924 143.11 191.08 142.802 190.435 142.186C189.804 141.57 189.489 140.793 189.489 139.854C189.489 138.783 189.892 137.955 190.699 137.368C191.52 136.767 192.635 136.466 194.043 136.466H196.067V135.894C196.067 135.014 195.869 134.354 195.473 133.914C195.077 133.459 194.41 133.232 193.471 133.232C192.283 133.232 191.227 133.547 190.303 134.178V132.44C191.139 131.927 192.239 131.67 193.603 131.67C196.404 131.67 197.805 133.093 197.805 135.938V143H196.089V141.68ZM205.729 142.714C205.157 144.225 204.475 145.288 203.683 145.904C202.906 146.52 202.011 146.828 200.999 146.828C200.618 146.828 200.31 146.791 200.075 146.718V145.156C200.295 145.215 200.545 145.244 200.823 145.244C202.305 145.244 203.353 144.401 203.969 142.714L199.459 131.846H201.417L202.869 135.52L204.827 140.58C204.945 140.199 205.531 138.512 206.587 135.52L207.885 131.846H209.755L205.729 142.714ZM226.655 143H224.917V135.784C224.917 134.097 224.205 133.254 222.783 133.254C222.079 133.254 221.448 133.577 220.891 134.222C220.333 134.853 220.055 135.747 220.055 136.906V143H218.317V135.784C218.317 134.097 217.605 133.254 216.183 133.254C215.479 133.254 214.848 133.577 214.291 134.222C213.733 134.853 213.455 135.747 213.455 136.906V143H211.739V131.846H213.455V133.65C214.071 132.345 215.119 131.692 216.601 131.692C218.317 131.692 219.402 132.418 219.857 133.87C220.179 133.166 220.627 132.631 221.199 132.264C221.785 131.883 222.438 131.692 223.157 131.692C224.315 131.692 225.188 132.022 225.775 132.682C226.361 133.342 226.655 134.229 226.655 135.344V143ZM237.883 142.428C237.017 142.883 235.961 143.11 234.715 143.11C233.028 143.11 231.664 142.597 230.623 141.57C229.596 140.529 229.083 139.157 229.083 137.456C229.083 135.681 229.545 134.281 230.469 133.254C231.393 132.227 232.581 131.714 234.033 131.714C235.426 131.714 236.533 132.161 237.355 133.056C238.176 133.951 238.587 135.219 238.587 136.862C238.587 137.331 238.55 137.764 238.477 138.16H230.865C230.997 139.26 231.415 140.103 232.119 140.69C232.823 141.277 233.747 141.57 234.891 141.57C236.137 141.57 237.135 141.313 237.883 140.8V142.428ZM234.033 133.232C233.197 133.232 232.485 133.533 231.899 134.134C231.312 134.735 230.967 135.593 230.865 136.708H236.849V136.268C236.849 135.344 236.599 134.611 236.101 134.068C235.602 133.511 234.913 133.232 234.033 133.232ZM250.037 143H248.299V135.784C248.299 134.963 248.086 134.339 247.661 133.914C247.25 133.474 246.708 133.254 246.033 133.254C245.197 133.254 244.471 133.577 243.855 134.222C243.254 134.867 242.953 135.762 242.953 136.906V143H241.237V131.846H242.953V133.782C243.613 132.389 244.786 131.692 246.473 131.692C247.558 131.692 248.424 132.022 249.069 132.682C249.714 133.342 250.037 134.222 250.037 135.322V143ZM258.706 142.714C258.222 142.978 257.679 143.11 257.078 143.11C254.878 143.11 253.778 141.988 253.778 139.744V133.254H251.996V131.846H253.778V129.074H255.516V131.846H258.596V133.254H255.516V139.788C255.516 140.976 256.073 141.57 257.188 141.57C257.76 141.57 258.266 141.401 258.706 141.064V142.714ZM268.436 143H266.698V131.846H268.436V143ZM268.37 127.534C268.59 127.754 268.7 128.025 268.7 128.348C268.7 128.671 268.59 128.942 268.37 129.162C268.15 129.367 267.879 129.47 267.556 129.47C267.233 129.47 266.962 129.367 266.742 129.162C266.537 128.942 266.434 128.671 266.434 128.348C266.434 128.025 266.537 127.754 266.742 127.534C266.962 127.314 267.233 127.204 267.556 127.204C267.879 127.204 268.15 127.314 268.37 127.534ZM276.915 133.254H274.451V143H272.713V133.254H270.799V131.846H272.713V130.812C272.713 129.727 272.999 128.869 273.571 128.238C274.157 127.607 274.964 127.292 275.991 127.292C276.343 127.292 276.702 127.343 277.069 127.446V129.03C276.717 128.913 276.379 128.854 276.057 128.854C275.587 128.854 275.199 129.015 274.891 129.338C274.597 129.661 274.451 130.159 274.451 130.834V131.846H276.915V133.254ZM289.196 142.714C288.624 144.225 287.942 145.288 287.15 145.904C286.373 146.52 285.478 146.828 284.466 146.828C284.085 146.828 283.777 146.791 283.542 146.718V145.156C283.762 145.215 284.011 145.244 284.29 145.244C285.771 145.244 286.82 144.401 287.436 142.714L282.926 131.846H284.884L286.336 135.52L288.294 140.58C288.411 140.199 288.998 138.512 290.054 135.52L291.352 131.846H293.222L289.196 142.714ZM305.018 137.456C305.018 139.113 304.548 140.485 303.61 141.57C302.671 142.655 301.38 143.198 299.738 143.198C298.139 143.198 296.87 142.663 295.932 141.592C295.008 140.507 294.546 139.143 294.546 137.5C294.546 135.843 295.022 134.464 295.976 133.364C296.944 132.249 298.198 131.692 299.738 131.692C301.424 131.692 302.722 132.235 303.632 133.32C304.556 134.405 305.018 135.784 305.018 137.456ZM296.35 137.478C296.35 138.637 296.658 139.627 297.274 140.448C297.89 141.255 298.711 141.658 299.738 141.658C300.852 141.658 301.71 141.262 302.312 140.47C302.913 139.663 303.214 138.666 303.214 137.478C303.214 136.246 302.928 135.234 302.356 134.442C301.784 133.635 300.911 133.232 299.738 133.232C298.682 133.232 297.853 133.643 297.252 134.464C296.65 135.285 296.35 136.29 296.35 137.478ZM316.227 143H314.489V141.064C313.902 142.443 312.736 143.132 310.991 143.132C309.891 143.132 309.018 142.809 308.373 142.164C307.742 141.504 307.427 140.624 307.427 139.524V131.846H309.165V139.084C309.165 139.891 309.37 140.507 309.781 140.932C310.192 141.357 310.749 141.57 311.453 141.57C312.377 141.57 313.11 141.247 313.653 140.602C314.21 139.957 314.489 139.084 314.489 137.984V131.846H316.227V143ZM319.462 132.638H318.098L319.946 127.71H322.102L319.462 132.638ZM325.131 143H323.393L323.415 131.846H325.131V133.804C325.717 132.425 326.729 131.736 328.167 131.736C328.431 131.736 328.636 131.751 328.783 131.78V133.496C328.475 133.393 328.159 133.342 327.837 133.342C327.059 133.342 326.414 133.701 325.901 134.42C325.387 135.139 325.131 135.967 325.131 136.906V143ZM338.73 142.428C337.865 142.883 336.809 143.11 335.562 143.11C333.876 143.11 332.512 142.597 331.47 141.57C330.444 140.529 329.93 139.157 329.93 137.456C329.93 135.681 330.392 134.281 331.316 133.254C332.24 132.227 333.428 131.714 334.88 131.714C336.274 131.714 337.381 132.161 338.202 133.056C339.024 133.951 339.434 135.219 339.434 136.862C339.434 137.331 339.398 137.764 339.324 138.16H331.712C331.844 139.26 332.262 140.103 332.966 140.69C333.67 141.277 334.594 141.57 335.738 141.57C336.985 141.57 337.982 141.313 338.73 140.8V142.428ZM334.88 133.232C334.044 133.232 333.333 133.533 332.746 134.134C332.16 134.735 331.815 135.593 331.712 136.708H337.696V136.268C337.696 135.344 337.447 134.611 336.948 134.068C336.45 133.511 335.76 133.232 334.88 133.232ZM356.256 143H354.518V135.784C354.518 134.963 354.305 134.339 353.88 133.914C353.469 133.474 352.926 133.254 352.252 133.254C351.416 133.254 350.69 133.577 350.074 134.222C349.472 134.867 349.172 135.762 349.172 136.906V143H347.456V131.846H349.172V133.782C349.832 132.389 351.005 131.692 352.692 131.692C353.777 131.692 354.642 132.022 355.288 132.682C355.933 133.342 356.256 134.222 356.256 135.322V143ZM369.148 137.456C369.148 139.113 368.679 140.485 367.74 141.57C366.802 142.655 365.511 143.198 363.868 143.198C362.27 143.198 361.001 142.663 360.062 141.592C359.138 140.507 358.676 139.143 358.676 137.5C358.676 135.843 359.153 134.464 360.106 133.364C361.074 132.249 362.328 131.692 363.868 131.692C365.555 131.692 366.853 132.235 367.762 133.32C368.686 134.405 369.148 135.784 369.148 137.456ZM360.48 137.478C360.48 138.637 360.788 139.627 361.404 140.448C362.02 141.255 362.842 141.658 363.868 141.658C364.983 141.658 365.841 141.262 366.442 140.47C367.044 139.663 367.344 138.666 367.344 137.478C367.344 136.246 367.058 135.234 366.486 134.442C365.914 133.635 365.042 133.232 363.868 133.232C362.812 133.232 361.984 133.643 361.382 134.464C360.781 135.285 360.48 136.29 360.48 137.478ZM377.278 142.714C376.794 142.978 376.251 143.11 375.65 143.11C373.45 143.11 372.35 141.988 372.35 139.744V133.254H370.568V131.846H372.35V129.074H374.088V131.846H377.168V133.254H374.088V139.788C374.088 140.976 374.645 141.57 375.76 141.57C376.332 141.57 376.838 141.401 377.278 141.064V142.714ZM389.01 143H387.294V130.504L383.972 132.55V130.68L387.382 128.612H389.01V143ZM401.71 135.762C401.71 138.006 401.27 139.803 400.39 141.152C399.51 142.501 398.256 143.176 396.628 143.176C395.117 143.176 393.907 142.501 392.998 141.152C392.088 139.803 391.634 138.006 391.634 135.762C391.634 133.503 392.088 131.721 392.998 130.416C393.922 129.096 395.132 128.436 396.628 128.436C398.182 128.436 399.414 129.096 400.324 130.416C401.248 131.721 401.71 133.503 401.71 135.762ZM394.362 131.582C393.731 132.565 393.416 133.958 393.416 135.762C393.416 137.566 393.724 138.981 394.34 140.008C394.956 141.02 395.718 141.526 396.628 141.526C397.64 141.526 398.439 141.027 399.026 140.03C399.627 139.033 399.928 137.61 399.928 135.762C399.928 133.929 399.612 132.528 398.982 131.56C398.366 130.577 397.581 130.086 396.628 130.086C395.748 130.086 394.992 130.585 394.362 131.582ZM413.676 135.762C413.676 138.006 413.236 139.803 412.356 141.152C411.476 142.501 410.222 143.176 408.594 143.176C407.084 143.176 405.874 142.501 404.964 141.152C404.055 139.803 403.6 138.006 403.6 135.762C403.6 133.503 404.055 131.721 404.964 130.416C405.888 129.096 407.098 128.436 408.594 128.436C410.149 128.436 411.381 129.096 412.29 130.416C413.214 131.721 413.676 133.503 413.676 135.762ZM406.328 131.582C405.698 132.565 405.382 133.958 405.382 135.762C405.382 137.566 405.69 138.981 406.306 140.008C406.922 141.02 407.685 141.526 408.594 141.526C409.606 141.526 410.406 141.027 410.992 140.03C411.594 139.033 411.894 137.61 411.894 135.762C411.894 133.929 411.579 132.528 410.948 131.56C410.332 130.577 409.548 130.086 408.594 130.086C407.714 130.086 406.959 130.585 406.328 131.582ZM420.803 143.022H419.153L427.007 128.37H428.701L420.803 143.022ZM422.673 131.67C422.673 132.638 422.328 133.467 421.639 134.156C420.95 134.831 420.128 135.168 419.175 135.168C418.222 135.168 417.4 134.831 416.711 134.156C416.036 133.467 415.699 132.638 415.699 131.67C415.699 130.717 416.036 129.903 416.711 129.228C417.4 128.539 418.222 128.194 419.175 128.194C420.128 128.194 420.95 128.539 421.639 129.228C422.328 129.903 422.673 130.717 422.673 131.67ZM417.789 130.284C417.408 130.665 417.217 131.127 417.217 131.67C417.217 132.213 417.408 132.682 417.789 133.078C418.17 133.459 418.632 133.65 419.175 133.65C419.718 133.65 420.18 133.459 420.561 133.078C420.957 132.682 421.155 132.213 421.155 131.67C421.155 131.127 420.957 130.665 420.561 130.284C420.18 129.903 419.718 129.712 419.175 129.712C418.632 129.712 418.17 129.903 417.789 130.284ZM431.143 137.214C431.832 137.903 432.177 138.725 432.177 139.678C432.177 140.631 431.832 141.453 431.143 142.142C430.468 142.817 429.654 143.154 428.701 143.154C427.733 143.154 426.912 142.817 426.237 142.142C425.562 141.453 425.225 140.631 425.225 139.678C425.225 138.71 425.562 137.889 426.237 137.214C426.912 136.525 427.733 136.18 428.701 136.18C429.654 136.18 430.468 136.525 431.143 137.214ZM427.293 138.292C426.912 138.673 426.721 139.135 426.721 139.678C426.721 140.221 426.912 140.683 427.293 141.064C427.689 141.445 428.158 141.636 428.701 141.636C429.244 141.636 429.706 141.445 430.087 141.064C430.483 140.683 430.681 140.221 430.681 139.678C430.681 139.135 430.49 138.673 430.109 138.292C429.728 137.896 429.258 137.698 428.701 137.698C428.158 137.698 427.689 137.896 427.293 138.292ZM446.935 140.03C446.935 140.983 446.598 141.739 445.923 142.296C445.263 142.853 444.354 143.132 443.195 143.132C441.846 143.132 440.753 142.905 439.917 142.45V140.756C440.9 141.343 441.956 141.636 443.085 141.636C443.76 141.636 444.273 141.504 444.625 141.24C444.977 140.976 445.153 140.617 445.153 140.162C445.153 139.634 444.955 139.223 444.559 138.93C444.178 138.637 443.532 138.307 442.623 137.94C441.787 137.617 441.112 137.214 440.599 136.73C440.1 136.246 439.851 135.593 439.851 134.772C439.851 133.848 440.196 133.115 440.885 132.572C441.589 132.015 442.462 131.736 443.503 131.736C444.662 131.736 445.593 131.897 446.297 132.22V133.87C445.622 133.459 444.698 133.254 443.525 133.254C442.938 133.254 442.469 133.393 442.117 133.672C441.78 133.936 441.611 134.281 441.611 134.706C441.611 134.97 441.662 135.205 441.765 135.41C441.868 135.601 442.066 135.791 442.359 135.982C442.667 136.173 442.887 136.305 443.019 136.378C443.166 136.437 443.474 136.569 443.943 136.774C444.882 137.155 445.615 137.588 446.143 138.072C446.671 138.556 446.935 139.209 446.935 140.03ZM452.702 141.658C453.494 141.658 454.124 141.438 454.594 140.998C455.063 140.543 455.298 139.971 455.298 139.282V137.852H453.362C452.423 137.852 451.719 138.035 451.25 138.402C450.78 138.769 450.546 139.231 450.546 139.788C450.546 140.345 450.729 140.8 451.096 141.152C451.462 141.489 451.998 141.658 452.702 141.658ZM455.32 141.68C454.748 142.633 453.706 143.11 452.196 143.11C451.154 143.11 450.311 142.802 449.666 142.186C449.035 141.57 448.72 140.793 448.72 139.854C448.72 138.783 449.123 137.955 449.93 137.368C450.751 136.767 451.866 136.466 453.274 136.466H455.298V135.894C455.298 135.014 455.1 134.354 454.704 133.914C454.308 133.459 453.64 133.232 452.702 133.232C451.514 133.232 450.458 133.547 449.534 134.178V132.44C450.37 131.927 451.47 131.67 452.834 131.67C455.635 131.67 457.036 133.093 457.036 135.938V143H455.32V141.68ZM465.708 142.714C465.224 142.978 464.681 143.11 464.08 143.11C461.88 143.11 460.78 141.988 460.78 139.744V133.254H458.998V131.846H460.78V129.074H462.518V131.846H465.598V133.254H462.518V139.788C462.518 140.976 463.075 141.57 464.19 141.57C464.762 141.57 465.268 141.401 465.708 141.064V142.714ZM470.067 143H468.329V131.846H470.067V143ZM470.001 127.534C470.221 127.754 470.331 128.025 470.331 128.348C470.331 128.671 470.221 128.942 470.001 129.162C469.781 129.367 469.509 129.47 469.187 129.47C468.864 129.47 468.593 129.367 468.373 129.162C468.167 128.942 468.065 128.671 468.065 128.348C468.065 128.025 468.167 127.754 468.373 127.534C468.593 127.314 468.864 127.204 469.187 127.204C469.509 127.204 469.781 127.314 470.001 127.534ZM480.086 140.03C480.086 140.983 479.748 141.739 479.074 142.296C478.414 142.853 477.504 143.132 476.346 143.132C474.996 143.132 473.904 142.905 473.068 142.45V140.756C474.05 141.343 475.106 141.636 476.236 141.636C476.91 141.636 477.424 141.504 477.776 141.24C478.128 140.976 478.304 140.617 478.304 140.162C478.304 139.634 478.106 139.223 477.71 138.93C477.328 138.637 476.683 138.307 475.774 137.94C474.938 137.617 474.263 137.214 473.75 136.73C473.251 136.246 473.002 135.593 473.002 134.772C473.002 133.848 473.346 133.115 474.036 132.572C474.74 132.015 475.612 131.736 476.654 131.736C477.812 131.736 478.744 131.897 479.448 132.22V133.87C478.773 133.459 477.849 133.254 476.676 133.254C476.089 133.254 475.62 133.393 475.268 133.672C474.93 133.936 474.762 134.281 474.762 134.706C474.762 134.97 474.813 135.205 474.916 135.41C475.018 135.601 475.216 135.791 475.51 135.982C475.818 136.173 476.038 136.305 476.17 136.378C476.316 136.437 476.624 136.569 477.094 136.774C478.032 137.155 478.766 137.588 479.294 138.072C479.822 138.556 480.086 139.209 480.086 140.03ZM487.612 133.254H485.148V143H483.41V133.254H481.496V131.846H483.41V130.812C483.41 129.727 483.696 128.869 484.268 128.238C484.855 127.607 485.661 127.292 486.688 127.292C487.04 127.292 487.399 127.343 487.766 127.446V129.03C487.414 128.913 487.077 128.854 486.754 128.854C486.285 128.854 485.896 129.015 485.588 129.338C485.295 129.661 485.148 130.159 485.148 130.834V131.846H487.612V133.254ZM491.508 143H489.77V131.846H491.508V143ZM491.442 127.534C491.662 127.754 491.772 128.025 491.772 128.348C491.772 128.671 491.662 128.942 491.442 129.162C491.222 129.367 490.951 129.47 490.628 129.47C490.306 129.47 490.034 129.367 489.814 129.162C489.609 128.942 489.506 128.671 489.506 128.348C489.506 128.025 489.609 127.754 489.814 127.534C490.034 127.314 490.306 127.204 490.628 127.204C490.951 127.204 491.222 127.314 491.442 127.534ZM502.957 142.428C502.092 142.883 501.036 143.11 499.789 143.11C498.102 143.11 496.738 142.597 495.697 141.57C494.67 140.529 494.157 139.157 494.157 137.456C494.157 135.681 494.619 134.281 495.543 133.254C496.467 132.227 497.655 131.714 499.107 131.714C500.5 131.714 501.608 132.161 502.429 133.056C503.25 133.951 503.661 135.219 503.661 136.862C503.661 137.331 503.624 137.764 503.551 138.16H495.939C496.071 139.26 496.489 140.103 497.193 140.69C497.897 141.277 498.821 141.57 499.965 141.57C501.212 141.57 502.209 141.313 502.957 140.8V142.428ZM499.107 133.232C498.271 133.232 497.56 133.533 496.973 134.134C496.386 134.735 496.042 135.593 495.939 136.708H501.923V136.268C501.923 135.344 501.674 134.611 501.175 134.068C500.676 133.511 499.987 133.232 499.107 133.232ZM507.455 137.544C507.455 138.747 507.748 139.722 508.335 140.47C508.922 141.218 509.662 141.592 510.557 141.592C511.466 141.592 512.236 141.255 512.867 140.58C513.512 139.905 513.835 138.827 513.835 137.346C513.835 135.938 513.505 134.904 512.845 134.244C512.185 133.584 511.459 133.254 510.667 133.254C509.743 133.254 508.973 133.628 508.357 134.376C507.756 135.109 507.455 136.165 507.455 137.544ZM515.573 143H513.835V141.35C513.043 142.567 511.899 143.176 510.403 143.176C508.922 143.176 507.756 142.626 506.905 141.526C506.069 140.426 505.651 139.091 505.651 137.522C505.651 135.777 506.098 134.369 506.993 133.298C507.888 132.213 509.039 131.67 510.447 131.67C511.899 131.67 513.028 132.293 513.835 133.54V127.446H515.573V143ZM528.675 143H526.541L523.109 131.846H524.957L526.035 135.542C526.416 136.833 526.731 137.962 526.981 138.93C527.245 139.883 527.413 140.521 527.487 140.844L527.597 141.306C527.817 140.367 528.352 138.439 529.203 135.52L530.259 131.846H532.107L533.185 135.52L534.835 141.328C535.04 140.463 535.605 138.527 536.529 135.52L537.651 131.846H539.433L535.913 143H533.779L532.723 139.348L531.183 133.782C530.963 134.721 530.464 136.576 529.687 139.348L528.675 143ZM543.414 143H541.676V131.846H543.414V143ZM543.348 127.534C543.568 127.754 543.678 128.025 543.678 128.348C543.678 128.671 543.568 128.942 543.348 129.162C543.128 129.367 542.857 129.47 542.534 129.47C542.212 129.47 541.94 129.367 541.72 129.162C541.515 128.942 541.412 128.671 541.412 128.348C541.412 128.025 541.515 127.754 541.72 127.534C541.94 127.314 542.212 127.204 542.534 127.204C542.857 127.204 543.128 127.314 543.348 127.534ZM552.311 142.714C551.827 142.978 551.285 143.11 550.683 143.11C548.483 143.11 547.383 141.988 547.383 139.744V133.254H545.601V131.846H547.383V129.074H549.121V131.846H552.201V133.254H549.121V139.788C549.121 140.976 549.679 141.57 550.793 141.57C551.365 141.57 551.871 141.401 552.311 141.064V142.714ZM563.644 143H561.906V135.784C561.906 134.977 561.694 134.354 561.268 133.914C560.858 133.474 560.315 133.254 559.64 133.254C558.819 133.254 558.1 133.569 557.484 134.2C556.868 134.831 556.56 135.733 556.56 136.906V143H554.844V127.446H556.56V133.782C557.22 132.389 558.394 131.692 560.08 131.692C561.151 131.692 562.009 132.022 562.654 132.682C563.314 133.342 563.644 134.237 563.644 135.366V143ZM582.942 143H581.16V136.29H573.966V143H572.184V128.172H573.966V134.684H581.16V128.172H582.942V143ZM596.045 137.456C596.045 139.113 595.576 140.485 594.637 141.57C593.698 142.655 592.408 143.198 590.765 143.198C589.166 143.198 587.898 142.663 586.959 141.592C586.035 140.507 585.573 139.143 585.573 137.5C585.573 135.843 586.05 134.464 587.003 133.364C587.971 132.249 589.225 131.692 590.765 131.692C592.452 131.692 593.75 132.235 594.659 133.32C595.583 134.405 596.045 135.784 596.045 137.456ZM587.377 137.478C587.377 138.637 587.685 139.627 588.301 140.448C588.917 141.255 589.738 141.658 590.765 141.658C591.88 141.658 592.738 141.262 593.339 140.47C593.94 139.663 594.241 138.666 594.241 137.478C594.241 136.246 593.955 135.234 593.383 134.442C592.811 133.635 591.938 133.232 590.765 133.232C589.709 133.232 588.88 133.643 588.279 134.464C587.678 135.285 587.377 136.29 587.377 137.478ZM605.296 140.03C605.296 140.983 604.959 141.739 604.284 142.296C603.624 142.853 602.715 143.132 601.556 143.132C600.207 143.132 599.114 142.905 598.278 142.45V140.756C599.261 141.343 600.317 141.636 601.446 141.636C602.121 141.636 602.634 141.504 602.986 141.24C603.338 140.976 603.514 140.617 603.514 140.162C603.514 139.634 603.316 139.223 602.92 138.93C602.539 138.637 601.894 138.307 600.984 137.94C600.148 137.617 599.474 137.214 598.96 136.73C598.462 136.246 598.212 135.593 598.212 134.772C598.212 133.848 598.557 133.115 599.246 132.572C599.95 132.015 600.823 131.736 601.864 131.736C603.023 131.736 603.954 131.897 604.658 132.22V133.87C603.984 133.459 603.06 133.254 601.886 133.254C601.3 133.254 600.83 133.393 600.478 133.672C600.141 133.936 599.972 134.281 599.972 134.706C599.972 134.97 600.024 135.205 600.126 135.41C600.229 135.601 600.427 135.791 600.72 135.982C601.028 136.173 601.248 136.305 601.38 136.378C601.527 136.437 601.835 136.569 602.304 136.774C603.243 137.155 603.976 137.588 604.504 138.072C605.032 138.556 605.296 139.209 605.296 140.03ZM613.241 142.714C612.757 142.978 612.214 143.11 611.613 143.11C609.413 143.11 608.313 141.988 608.313 139.744V133.254H606.531V131.846H608.313V129.074H610.051V131.846H613.131V133.254H610.051V139.788C610.051 140.976 610.608 141.57 611.723 141.57C612.295 141.57 612.801 141.401 613.241 141.064V142.714ZM617.6 143H615.862V131.846H617.6V143ZM617.534 127.534C617.754 127.754 617.864 128.025 617.864 128.348C617.864 128.671 617.754 128.942 617.534 129.162C617.314 129.367 617.043 129.47 616.72 129.47C616.397 129.47 616.126 129.367 615.906 129.162C615.701 128.942 615.598 128.671 615.598 128.348C615.598 128.025 615.701 127.754 615.906 127.534C616.126 127.314 616.397 127.204 616.72 127.204C617.043 127.204 617.314 127.314 617.534 127.534ZM629.709 143H627.971V135.784C627.971 134.963 627.758 134.339 627.333 133.914C626.922 133.474 626.379 133.254 625.705 133.254C624.869 133.254 624.143 133.577 623.527 134.222C622.925 134.867 622.625 135.762 622.625 136.906V143H620.909V131.846H622.625V133.782C623.285 132.389 624.458 131.692 626.145 131.692C627.23 131.692 628.095 132.022 628.741 132.682C629.386 133.342 629.709 134.222 629.709 135.322V143ZM641.788 142.098C641.788 143.799 641.318 145.075 640.38 145.926C639.441 146.791 638.231 147.224 636.75 147.224C635.4 147.224 634.249 146.997 633.296 146.542V144.804C634.234 145.347 635.334 145.618 636.596 145.618C637.666 145.618 638.51 145.332 639.126 144.76C639.742 144.188 640.05 143.293 640.05 142.076V140.822C639.316 142.083 638.224 142.714 636.772 142.714C635.496 142.714 634.403 142.245 633.494 141.306C632.599 140.367 632.152 139.062 632.152 137.39C632.152 135.733 632.57 134.369 633.406 133.298C634.242 132.227 635.334 131.692 636.684 131.692C638.209 131.692 639.331 132.359 640.05 133.694V131.846H641.788V142.098ZM633.956 137.346C633.956 138.593 634.264 139.546 634.88 140.206C635.496 140.851 636.192 141.174 636.97 141.174C637.776 141.174 638.488 140.866 639.104 140.25C639.734 139.619 640.05 138.688 640.05 137.456C640.05 136.033 639.749 134.977 639.148 134.288C638.546 133.599 637.85 133.254 637.058 133.254C636.104 133.254 635.349 133.635 634.792 134.398C634.234 135.146 633.956 136.129 633.956 137.346ZM653.004 142.428C652.138 142.883 651.082 143.11 649.836 143.11C648.149 143.11 646.785 142.597 645.744 141.57C644.717 140.529 644.204 139.157 644.204 137.456C644.204 135.681 644.666 134.281 645.59 133.254C646.514 132.227 647.702 131.714 649.154 131.714C650.547 131.714 651.654 132.161 652.476 133.056C653.297 133.951 653.708 135.219 653.708 136.862C653.708 137.331 653.671 137.764 653.598 138.16H645.986C646.118 139.26 646.536 140.103 647.24 140.69C647.944 141.277 648.868 141.57 650.012 141.57C651.258 141.57 652.256 141.313 653.004 140.8V142.428ZM649.154 133.232C648.318 133.232 647.606 133.533 647.02 134.134C646.433 134.735 646.088 135.593 645.986 136.708H651.97V136.268C651.97 135.344 651.72 134.611 651.222 134.068C650.723 133.511 650.034 133.232 649.154 133.232ZM658.074 143H656.336L656.358 131.846H658.074V133.804C658.661 132.425 659.673 131.736 661.11 131.736C661.374 131.736 661.579 131.751 661.726 131.78V133.496C661.418 133.393 661.103 133.342 660.78 133.342C660.003 133.342 659.357 133.701 658.844 134.42C658.331 135.139 658.074 135.967 658.074 136.906V143ZM664.678 140.954C664.927 141.203 665.052 141.511 665.052 141.878C665.052 142.245 664.927 142.553 664.678 142.802C664.428 143.051 664.12 143.176 663.754 143.176C663.387 143.176 663.079 143.051 662.83 142.802C662.58 142.553 662.456 142.245 662.456 141.878C662.456 141.511 662.58 141.203 662.83 140.954C663.079 140.705 663.387 140.58 663.754 140.58C664.12 140.58 664.428 140.705 664.678 140.954ZM674.427 143H672.645V128.172H674.889L678.607 134.42L682.369 140.844C682.311 139.421 682.281 137.287 682.281 134.442V128.172H684.063V143H681.819L678.101 136.796C677.353 135.549 676.664 134.391 676.033 133.32C675.403 132.235 674.955 131.457 674.691 130.988L674.317 130.306C674.391 131.831 674.427 133.98 674.427 136.752V143ZM697.172 137.456C697.172 139.113 696.703 140.485 695.764 141.57C694.825 142.655 693.535 143.198 691.892 143.198C690.293 143.198 689.025 142.663 688.086 141.592C687.162 140.507 686.7 139.143 686.7 137.5C686.7 135.843 687.177 134.464 688.13 133.364C689.098 132.249 690.352 131.692 691.892 131.692C693.579 131.692 694.877 132.235 695.786 133.32C696.71 134.405 697.172 135.784 697.172 137.456ZM688.504 137.478C688.504 138.637 688.812 139.627 689.428 140.448C690.044 141.255 690.865 141.658 691.892 141.658C693.007 141.658 693.865 141.262 694.466 140.47C695.067 139.663 695.368 138.666 695.368 137.478C695.368 136.246 695.082 135.234 694.51 134.442C693.938 133.635 693.065 133.232 691.892 133.232C690.836 133.232 690.007 133.643 689.406 134.464C688.805 135.285 688.504 136.29 688.504 137.478ZM713.885 143H712.147V135.784C712.147 134.977 711.934 134.354 711.509 133.914C711.098 133.474 710.555 133.254 709.881 133.254C709.059 133.254 708.341 133.569 707.725 134.2C707.109 134.831 706.801 135.733 706.801 136.906V143H705.085V127.446H706.801V133.782C707.461 132.389 708.634 131.692 710.321 131.692C711.391 131.692 712.249 132.022 712.895 132.682C713.555 133.342 713.885 134.237 713.885 135.366V143ZM720.375 141.658C721.167 141.658 721.798 141.438 722.267 140.998C722.737 140.543 722.971 139.971 722.971 139.282V137.852H721.035C720.097 137.852 719.393 138.035 718.923 138.402C718.454 138.769 718.219 139.231 718.219 139.788C718.219 140.345 718.403 140.8 718.769 141.152C719.136 141.489 719.671 141.658 720.375 141.658ZM722.993 141.68C722.421 142.633 721.38 143.11 719.869 143.11C718.828 143.11 717.985 142.802 717.339 142.186C716.709 141.57 716.393 140.793 716.393 139.854C716.393 138.783 716.797 137.955 717.603 137.368C718.425 136.767 719.539 136.466 720.947 136.466H722.971V135.894C722.971 135.014 722.773 134.354 722.377 133.914C721.981 133.459 721.314 133.232 720.375 133.232C719.187 133.232 718.131 133.547 717.207 134.178V132.44C718.043 131.927 719.143 131.67 720.507 131.67C723.309 131.67 724.709 133.093 724.709 135.938V143H722.993V141.68ZM734.504 140.03C734.504 140.983 734.166 141.739 733.492 142.296C732.832 142.853 731.922 143.132 730.764 143.132C729.414 143.132 728.322 142.905 727.486 142.45V140.756C728.468 141.343 729.524 141.636 730.654 141.636C731.328 141.636 731.842 141.504 732.194 141.24C732.546 140.976 732.722 140.617 732.722 140.162C732.722 139.634 732.524 139.223 732.128 138.93C731.746 138.637 731.101 138.307 730.192 137.94C729.356 137.617 728.681 137.214 728.168 136.73C727.669 136.246 727.42 135.593 727.42 134.772C727.42 133.848 727.764 133.115 728.454 132.572C729.158 132.015 730.03 131.736 731.072 131.736C732.23 131.736 733.162 131.897 733.866 132.22V133.87C733.191 133.459 732.267 133.254 731.094 133.254C730.507 133.254 730.038 133.393 729.686 133.672C729.348 133.936 729.18 134.281 729.18 134.706C729.18 134.97 729.231 135.205 729.334 135.41C729.436 135.601 729.634 135.791 729.928 135.982C730.236 136.173 730.456 136.305 730.588 136.378C730.734 136.437 731.042 136.569 731.512 136.774C732.45 137.155 733.184 137.588 733.712 138.072C734.24 138.556 734.504 139.209 734.504 140.03ZM743.57 140.03C743.57 140.983 743.233 141.739 742.558 142.296C741.898 142.853 740.989 143.132 739.83 143.132C738.481 143.132 737.388 142.905 736.552 142.45V140.756C737.535 141.343 738.591 141.636 739.72 141.636C740.395 141.636 740.908 141.504 741.26 141.24C741.612 140.976 741.788 140.617 741.788 140.162C741.788 139.634 741.59 139.223 741.194 138.93C740.813 138.637 740.167 138.307 739.258 137.94C738.422 137.617 737.747 137.214 737.234 136.73C736.735 136.246 736.486 135.593 736.486 134.772C736.486 133.848 736.831 133.115 737.52 132.572C738.224 132.015 739.097 131.736 740.138 131.736C741.297 131.736 742.228 131.897 742.932 132.22V133.87C742.257 133.459 741.333 133.254 740.16 133.254C739.573 133.254 739.104 133.393 738.752 133.672C738.415 133.936 738.246 134.281 738.246 134.706C738.246 134.97 738.297 135.205 738.4 135.41C738.503 135.601 738.701 135.791 738.994 135.982C739.302 136.173 739.522 136.305 739.654 136.378C739.801 136.437 740.109 136.569 740.578 136.774C741.517 137.155 742.25 137.588 742.778 138.072C743.306 138.556 743.57 139.209 743.57 140.03ZM747.752 143H746.014V127.446H747.752V143ZM759.201 142.428C758.336 142.883 757.28 143.11 756.033 143.11C754.346 143.11 752.982 142.597 751.941 141.57C750.914 140.529 750.401 139.157 750.401 137.456C750.401 135.681 750.863 134.281 751.787 133.254C752.711 132.227 753.899 131.714 755.351 131.714C756.744 131.714 757.852 132.161 758.673 133.056C759.494 133.951 759.905 135.219 759.905 136.862C759.905 137.331 759.868 137.764 759.795 138.16H752.183C752.315 139.26 752.733 140.103 753.437 140.69C754.141 141.277 755.065 141.57 756.209 141.57C757.456 141.57 758.453 141.313 759.201 140.8V142.428ZM755.351 133.232C754.515 133.232 753.804 133.533 753.217 134.134C752.63 134.735 752.286 135.593 752.183 136.708H758.167V136.268C758.167 135.344 757.918 134.611 757.419 134.068C756.92 133.511 756.231 133.232 755.351 133.232ZM762.291 145.706H760.773L762.819 140.778H765.129L762.291 145.706ZM781.668 143H779.93V135.784C779.93 134.963 779.717 134.339 779.292 133.914C778.881 133.474 778.338 133.254 777.664 133.254C776.828 133.254 776.102 133.577 775.486 134.222C774.884 134.867 774.584 135.762 774.584 136.906V143H772.868V131.846H774.584V133.782C775.244 132.389 776.417 131.692 778.104 131.692C779.189 131.692 780.054 132.022 780.7 132.682C781.345 133.342 781.668 134.222 781.668 135.322V143ZM794.561 137.456C794.561 139.113 794.091 140.485 793.153 141.57C792.214 142.655 790.923 143.198 789.281 143.198C787.682 143.198 786.413 142.663 785.475 141.592C784.551 140.507 784.089 139.143 784.089 137.5C784.089 135.843 784.565 134.464 785.519 133.364C786.487 132.249 787.741 131.692 789.281 131.692C790.967 131.692 792.265 132.235 793.175 133.32C794.099 134.405 794.561 135.784 794.561 137.456ZM785.893 137.478C785.893 138.637 786.201 139.627 786.817 140.448C787.433 141.255 788.254 141.658 789.281 141.658C790.395 141.658 791.253 141.262 791.855 140.47C792.456 139.663 792.757 138.666 792.757 137.478C792.757 136.246 792.471 135.234 791.899 134.442C791.327 133.635 790.454 133.232 789.281 133.232C788.225 133.232 787.396 133.643 786.795 134.464C786.193 135.285 785.893 136.29 785.893 137.478ZM804.189 143H802.451L802.473 131.846H804.189V133.804C804.776 132.425 805.788 131.736 807.225 131.736C807.489 131.736 807.695 131.751 807.841 131.78V133.496C807.533 133.393 807.218 133.342 806.895 133.342C806.118 133.342 805.473 133.701 804.959 134.42C804.446 135.139 804.189 135.967 804.189 136.906V143ZM811.475 143H809.737V131.846H811.475V143ZM811.409 127.534C811.629 127.754 811.739 128.025 811.739 128.348C811.739 128.671 811.629 128.942 811.409 129.162C811.189 129.367 810.918 129.47 810.595 129.47C810.272 129.47 810.001 129.367 809.781 129.162C809.576 128.942 809.473 128.671 809.473 128.348C809.473 128.025 809.576 127.754 809.781 127.534C810.001 127.314 810.272 127.204 810.595 127.204C810.918 127.204 811.189 127.314 811.409 127.534ZM821.494 140.03C821.494 140.983 821.156 141.739 820.482 142.296C819.822 142.853 818.912 143.132 817.754 143.132C816.404 143.132 815.312 142.905 814.476 142.45V140.756C815.458 141.343 816.514 141.636 817.644 141.636C818.318 141.636 818.832 141.504 819.184 141.24C819.536 140.976 819.712 140.617 819.712 140.162C819.712 139.634 819.514 139.223 819.118 138.93C818.736 138.637 818.091 138.307 817.182 137.94C816.346 137.617 815.671 137.214 815.158 136.73C814.659 136.246 814.41 135.593 814.41 134.772C814.41 133.848 814.754 133.115 815.444 132.572C816.148 132.015 817.02 131.736 818.062 131.736C819.22 131.736 820.152 131.897 820.856 132.22V133.87C820.181 133.459 819.257 133.254 818.084 133.254C817.497 133.254 817.028 133.393 816.676 133.672C816.338 133.936 816.17 134.281 816.17 134.706C816.17 134.97 816.221 135.205 816.324 135.41C816.426 135.601 816.624 135.791 816.918 135.982C817.226 136.173 817.446 136.305 817.578 136.378C817.724 136.437 818.032 136.569 818.502 136.774C819.44 137.155 820.174 137.588 820.702 138.072C821.23 138.556 821.494 139.209 821.494 140.03ZM825.566 143H823.85V127.534H825.566V143ZM827.832 137.148L832.364 143H830.274L825.786 137.148L830.164 131.846H832.232L827.832 137.148ZM835.564 140.954C835.814 141.203 835.938 141.511 835.938 141.878C835.938 142.245 835.814 142.553 835.564 142.802C835.315 143.051 835.007 143.176 834.64 143.176C834.274 143.176 833.966 143.051 833.716 142.802C833.467 142.553 833.342 142.245 833.342 141.878C833.342 141.511 833.467 141.203 833.716 140.954C833.966 140.705 834.274 140.58 834.64 140.58C835.007 140.58 835.315 140.705 835.564 140.954Z" fill="black"/>
</svg>
