<svg width="541" height="78" viewBox="0 0 541 78" fill="none" xmlns="http://www.w3.org/2000/svg">
<rect width="541" height="78" fill="black"/>
<path d="M121.979 52V25.8182H132.308C134.294 25.8182 135.986 26.1974 137.384 26.956C138.781 27.706 139.847 28.75 140.58 30.0881C141.321 31.4176 141.692 32.9517 141.692 34.6903C141.692 36.429 141.317 37.9631 140.567 39.2926C139.817 40.6222 138.73 41.6577 137.307 42.3991C135.892 43.1406 134.179 43.5114 132.168 43.5114H125.584V39.0753H131.273C132.338 39.0753 133.216 38.892 133.906 38.5256C134.605 38.1506 135.125 37.6349 135.466 36.9787C135.815 36.3139 135.99 35.5511 135.99 34.6903C135.99 33.821 135.815 33.0625 135.466 32.4148C135.125 31.7585 134.605 31.2514 133.906 30.8935C133.207 30.527 132.321 30.3438 131.247 30.3438H127.514V52H121.979ZM145.287 52V25.8182H150.823V36.6207H162.06V25.8182H167.583V52H162.06V41.1847H150.823V52H145.287ZM172.147 52V25.8182H182.476C184.462 25.8182 186.154 26.1974 187.551 26.956C188.949 27.706 190.015 28.75 190.748 30.0881C191.489 31.4176 191.86 32.9517 191.86 34.6903C191.86 36.429 191.485 37.9631 190.735 39.2926C189.985 40.6222 188.898 41.6577 187.475 42.3991C186.06 43.1406 184.347 43.5114 182.336 43.5114H175.752V39.0753H181.441C182.506 39.0753 183.384 38.892 184.074 38.5256C184.773 38.1506 185.293 37.6349 185.634 36.9787C185.983 36.3139 186.158 35.5511 186.158 34.6903C186.158 33.821 185.983 33.0625 185.634 32.4148C185.293 31.7585 184.773 31.2514 184.074 30.8935C183.375 30.527 182.489 30.3438 181.415 30.3438H177.682V52H172.147ZM217.99 33.348C217.888 32.3168 217.449 31.5156 216.674 30.9446C215.898 30.3736 214.846 30.0881 213.516 30.0881C212.613 30.0881 211.85 30.2159 211.228 30.4716C210.605 30.7188 210.128 31.0639 209.796 31.5071C209.472 31.9503 209.31 32.4531 209.31 33.0156C209.293 33.4844 209.391 33.8935 209.604 34.2429C209.826 34.5923 210.128 34.8949 210.512 35.1506C210.895 35.3977 211.338 35.6151 211.841 35.8026C212.344 35.9815 212.881 36.1349 213.452 36.2628L215.804 36.8253C216.946 37.081 217.995 37.4219 218.949 37.848C219.904 38.2741 220.73 38.7983 221.429 39.4205C222.128 40.0426 222.669 40.7756 223.053 41.6193C223.445 42.4631 223.645 43.4304 223.654 44.5213C223.645 46.1236 223.236 47.5128 222.426 48.6889C221.625 49.8565 220.466 50.7642 218.949 51.4119C217.441 52.0511 215.621 52.3707 213.49 52.3707C211.377 52.3707 209.536 52.0469 207.968 51.3991C206.408 50.7514 205.189 49.7926 204.311 48.5227C203.442 47.2443 202.986 45.6634 202.944 43.7798H208.3C208.36 44.6577 208.611 45.3906 209.054 45.9787C209.506 46.5582 210.107 46.9972 210.857 47.2955C211.615 47.5852 212.472 47.7301 213.426 47.7301C214.364 47.7301 215.178 47.5937 215.868 47.321C216.567 47.0483 217.108 46.669 217.492 46.1832C217.875 45.6974 218.067 45.1392 218.067 44.5085C218.067 43.9205 217.892 43.4261 217.543 43.0256C217.202 42.625 216.699 42.2841 216.034 42.0028C215.378 41.7216 214.573 41.4659 213.618 41.2358L210.767 40.5199C208.56 39.983 206.817 39.1435 205.539 38.0014C204.26 36.8594 203.625 35.321 203.634 33.3864C203.625 31.8011 204.047 30.4162 204.9 29.2315C205.76 28.0469 206.941 27.1222 208.441 26.4574C209.941 25.7926 211.645 25.4602 213.554 25.4602C215.498 25.4602 217.194 25.7926 218.642 26.4574C220.1 27.1222 221.233 28.0469 222.043 29.2315C222.853 30.4162 223.27 31.7884 223.296 33.348H217.99ZM227.275 59.3636V32.3636H232.644V35.6619H232.887C233.126 35.1335 233.471 34.5966 233.923 34.0511C234.383 33.4972 234.979 33.0369 235.712 32.6705C236.454 32.2955 237.374 32.108 238.474 32.108C239.906 32.108 241.227 32.483 242.437 33.233C243.647 33.9744 244.614 35.0952 245.339 36.5952C246.063 38.0866 246.425 39.9574 246.425 42.2074C246.425 44.3977 246.072 46.2472 245.364 47.7557C244.665 49.2557 243.711 50.3935 242.501 51.169C241.299 51.9361 239.952 52.3196 238.461 52.3196C237.404 52.3196 236.505 52.1449 235.763 51.7955C235.031 51.446 234.43 51.0071 233.961 50.4787C233.492 49.9418 233.134 49.4006 232.887 48.8551H232.721V59.3636H227.275ZM232.606 42.1818C232.606 43.3494 232.768 44.3679 233.092 45.2372C233.415 46.1065 233.884 46.7841 234.498 47.2699C235.112 47.7472 235.857 47.9858 236.735 47.9858C237.621 47.9858 238.371 47.7429 238.985 47.2571C239.599 46.7628 240.063 46.081 240.379 45.2116C240.702 44.3338 240.864 43.3239 240.864 42.1818C240.864 41.0483 240.707 40.0511 240.391 39.1903C240.076 38.3295 239.612 37.6562 238.998 37.1705C238.384 36.6847 237.63 36.4418 236.735 36.4418C235.849 36.4418 235.099 36.6761 234.485 37.1449C233.88 37.6136 233.415 38.2784 233.092 39.1392C232.768 40 232.606 41.0142 232.606 42.1818ZM259.005 52.3835C256.985 52.3835 255.246 51.9744 253.789 51.1562C252.34 50.3295 251.224 49.1619 250.44 47.6534C249.656 46.1364 249.263 44.3423 249.263 42.2713C249.263 40.2514 249.656 38.4787 250.44 36.9531C251.224 35.4276 252.327 34.2386 253.751 33.3864C255.183 32.5341 256.862 32.108 258.788 32.108C260.083 32.108 261.289 32.3168 262.406 32.7344C263.531 33.1435 264.511 33.7614 265.346 34.5881C266.19 35.4148 266.846 36.4545 267.315 37.7074C267.783 38.9517 268.018 40.4091 268.018 42.0795V43.5753H251.437V40.2003H262.891C262.891 39.4162 262.721 38.7216 262.38 38.1165C262.039 37.5114 261.566 37.0384 260.961 36.6974C260.364 36.348 259.67 36.1733 258.877 36.1733C258.05 36.1733 257.317 36.3651 256.678 36.7486C256.048 37.1236 255.553 37.6307 255.195 38.2699C254.837 38.9006 254.654 39.6037 254.646 40.3793V43.5881C254.646 44.5597 254.825 45.3991 255.183 46.1065C255.549 46.8139 256.065 47.3594 256.729 47.7429C257.394 48.1264 258.183 48.3182 259.094 48.3182C259.7 48.3182 260.254 48.233 260.756 48.0625C261.259 47.892 261.69 47.6364 262.048 47.2955C262.406 46.9545 262.678 46.5369 262.866 46.0426L267.903 46.375C267.647 47.5852 267.123 48.642 266.33 49.5455C265.546 50.4403 264.532 51.1392 263.288 51.642C262.052 52.1364 260.624 52.3835 259.005 52.3835ZM280.521 52.3835C278.501 52.3835 276.762 51.9744 275.305 51.1562C273.856 50.3295 272.739 49.1619 271.955 47.6534C271.171 46.1364 270.779 44.3423 270.779 42.2713C270.779 40.2514 271.171 38.4787 271.955 36.9531C272.739 35.4276 273.843 34.2386 275.266 33.3864C276.698 32.5341 278.377 32.108 280.303 32.108C281.599 32.108 282.805 32.3168 283.921 32.7344C285.046 33.1435 286.026 33.7614 286.862 34.5881C287.705 35.4148 288.362 36.4545 288.83 37.7074C289.299 38.9517 289.533 40.4091 289.533 42.0795V43.5753H272.952V40.2003H284.407C284.407 39.4162 284.237 38.7216 283.896 38.1165C283.555 37.5114 283.082 37.0384 282.477 36.6974C281.88 36.348 281.185 36.1733 280.393 36.1733C279.566 36.1733 278.833 36.3651 278.194 36.7486C277.563 37.1236 277.069 37.6307 276.711 38.2699C276.353 38.9006 276.17 39.6037 276.161 40.3793V43.5881C276.161 44.5597 276.34 45.3991 276.698 46.1065C277.065 46.8139 277.58 47.3594 278.245 47.7429C278.91 48.1264 279.698 48.3182 280.61 48.3182C281.215 48.3182 281.769 48.233 282.272 48.0625C282.775 47.892 283.205 47.6364 283.563 47.2955C283.921 46.9545 284.194 46.5369 284.381 46.0426L289.418 46.375C289.163 47.5852 288.638 48.642 287.846 49.5455C287.062 50.4403 286.048 51.1392 284.803 51.642C283.567 52.1364 282.14 52.3835 280.521 52.3835ZM300.323 52.3196C298.832 52.3196 297.481 51.9361 296.271 51.169C295.069 50.3935 294.114 49.2557 293.407 47.7557C292.708 46.2472 292.359 44.3977 292.359 42.2074C292.359 39.9574 292.721 38.0866 293.445 36.5952C294.17 35.0952 295.133 33.9744 296.335 33.233C297.545 32.483 298.87 32.108 300.31 32.108C301.41 32.108 302.326 32.2955 303.059 32.6705C303.8 33.0369 304.397 33.4972 304.849 34.0511C305.309 34.5966 305.658 35.1335 305.897 35.6619H306.063V25.8182H311.496V52H306.127V48.8551H305.897C305.641 49.4006 305.279 49.9418 304.81 50.4787C304.35 51.0071 303.749 51.446 303.008 51.7955C302.275 52.1449 301.38 52.3196 300.323 52.3196ZM302.049 47.9858C302.927 47.9858 303.668 47.7472 304.273 47.2699C304.887 46.7841 305.356 46.1065 305.68 45.2372C306.012 44.3679 306.178 43.3494 306.178 42.1818C306.178 41.0142 306.016 40 305.692 39.1392C305.369 38.2784 304.9 37.6136 304.286 37.1449C303.673 36.6761 302.927 36.4418 302.049 36.4418C301.154 36.4418 300.4 36.6847 299.786 37.1705C299.173 37.6562 298.708 38.3295 298.393 39.1903C298.077 40.0511 297.92 41.0483 297.92 42.1818C297.92 43.3239 298.077 44.3338 298.393 45.2116C298.717 46.081 299.181 46.7628 299.786 47.2571C300.4 47.7429 301.154 47.9858 302.049 47.9858ZM324.408 52V25.8182H334.891C336.817 25.8182 338.424 26.1037 339.711 26.6747C340.998 27.2457 341.965 28.0384 342.613 29.0526C343.261 30.0582 343.585 31.2173 343.585 32.5298C343.585 33.5526 343.38 34.4517 342.971 35.2273C342.562 35.9943 341.999 36.625 341.283 37.1193C340.576 37.6051 339.766 37.9503 338.854 38.1548V38.4105C339.852 38.4531 340.785 38.7344 341.654 39.2543C342.532 39.7741 343.244 40.5028 343.789 41.4403C344.335 42.3693 344.607 43.4773 344.607 44.7642C344.607 46.1534 344.262 47.3935 343.572 48.4844C342.89 49.5668 341.88 50.4233 340.542 51.054C339.204 51.6847 337.555 52 335.594 52H324.408ZM329.944 47.4744H334.457C335.999 47.4744 337.124 47.1804 337.832 46.5923C338.539 45.9957 338.893 45.2031 338.893 44.2145C338.893 43.4901 338.718 42.8509 338.369 42.2969C338.019 41.7429 337.521 41.3082 336.873 40.9929C336.234 40.6776 335.471 40.5199 334.585 40.5199H329.944V47.4744ZM329.944 36.7741H334.048C334.806 36.7741 335.479 36.642 336.067 36.3778C336.664 36.1051 337.133 35.7216 337.474 35.2273C337.823 34.733 337.998 34.1406 337.998 33.4503C337.998 32.5043 337.661 31.7415 336.988 31.1619C336.323 30.5824 335.377 30.2926 334.15 30.2926H329.944V36.7741ZM356.979 52.3835C354.993 52.3835 353.276 51.9616 351.827 51.1179C350.387 50.2656 349.275 49.081 348.49 47.5639C347.706 46.0384 347.314 44.2699 347.314 42.2585C347.314 40.2301 347.706 38.4574 348.49 36.9403C349.275 35.4148 350.387 34.2301 351.827 33.3864C353.276 32.5341 354.993 32.108 356.979 32.108C358.965 32.108 360.678 32.5341 362.118 33.3864C363.567 34.2301 364.684 35.4148 365.468 36.9403C366.252 38.4574 366.644 40.2301 366.644 42.2585C366.644 44.2699 366.252 46.0384 365.468 47.5639C364.684 49.081 363.567 50.2656 362.118 51.1179C360.678 51.9616 358.965 52.3835 356.979 52.3835ZM357.005 48.1648C357.908 48.1648 358.662 47.9091 359.267 47.3977C359.873 46.8778 360.328 46.1705 360.635 45.2756C360.951 44.3807 361.108 43.3622 361.108 42.2202C361.108 41.0781 360.951 40.0597 360.635 39.1648C360.328 38.2699 359.873 37.5625 359.267 37.0426C358.662 36.5227 357.908 36.2628 357.005 36.2628C356.093 36.2628 355.326 36.5227 354.703 37.0426C354.09 37.5625 353.625 38.2699 353.31 39.1648C353.003 40.0597 352.85 41.0781 352.85 42.2202C352.85 43.3622 353.003 44.3807 353.31 45.2756C353.625 46.1705 354.09 46.8778 354.703 47.3977C355.326 47.9091 356.093 48.1648 357.005 48.1648ZM379.057 52.3835C377.071 52.3835 375.354 51.9616 373.905 51.1179C372.465 50.2656 371.353 49.081 370.569 47.5639C369.784 46.0384 369.392 44.2699 369.392 42.2585C369.392 40.2301 369.784 38.4574 370.569 36.9403C371.353 35.4148 372.465 34.2301 373.905 33.3864C375.354 32.5341 377.071 32.108 379.057 32.108C381.043 32.108 382.756 32.5341 384.196 33.3864C385.645 34.2301 386.762 35.4148 387.546 36.9403C388.33 38.4574 388.722 40.2301 388.722 42.2585C388.722 44.2699 388.33 46.0384 387.546 47.5639C386.762 49.081 385.645 50.2656 384.196 51.1179C382.756 51.9616 381.043 52.3835 379.057 52.3835ZM379.083 48.1648C379.986 48.1648 380.74 47.9091 381.346 47.3977C381.951 46.8778 382.407 46.1705 382.713 45.2756C383.029 44.3807 383.186 43.3622 383.186 42.2202C383.186 41.0781 383.029 40.0597 382.713 39.1648C382.407 38.2699 381.951 37.5625 381.346 37.0426C380.74 36.5227 379.986 36.2628 379.083 36.2628C378.171 36.2628 377.404 36.5227 376.782 37.0426C376.168 37.5625 375.703 38.2699 375.388 39.1648C375.081 40.0597 374.928 41.0781 374.928 42.2202C374.928 43.3622 375.081 44.3807 375.388 45.2756C375.703 46.1705 376.168 46.8778 376.782 47.3977C377.404 47.9091 378.171 48.1648 379.083 48.1648ZM408.601 37.9631L403.615 38.2699C403.53 37.8437 403.347 37.4602 403.066 37.1193C402.784 36.7699 402.414 36.4929 401.953 36.2884C401.502 36.0753 400.961 35.9688 400.33 35.9688C399.486 35.9688 398.775 36.1477 398.195 36.5057C397.615 36.8551 397.326 37.3239 397.326 37.9119C397.326 38.3807 397.513 38.777 397.888 39.1009C398.263 39.4247 398.907 39.6847 399.819 39.8807L403.373 40.5966C405.282 40.9886 406.705 41.6193 407.642 42.4886C408.58 43.358 409.049 44.5 409.049 45.9148C409.049 47.2017 408.669 48.331 407.911 49.3026C407.161 50.2741 406.13 51.0327 404.817 51.5781C403.513 52.1151 402.009 52.3835 400.304 52.3835C397.705 52.3835 395.634 51.8423 394.091 50.7599C392.557 49.669 391.658 48.1861 391.394 46.3111L396.75 46.0298C396.912 46.8224 397.304 47.4276 397.926 47.8452C398.549 48.2543 399.346 48.4588 400.317 48.4588C401.272 48.4588 402.039 48.2756 402.618 47.9091C403.206 47.5341 403.505 47.0526 403.513 46.4645C403.505 45.9702 403.296 45.5653 402.887 45.25C402.478 44.9261 401.847 44.679 400.995 44.5085L397.594 43.831C395.676 43.4474 394.249 42.7827 393.311 41.8366C392.382 40.8906 391.918 39.6847 391.918 38.2188C391.918 36.9574 392.259 35.8707 392.941 34.9588C393.631 34.0469 394.598 33.3438 395.843 32.8494C397.096 32.3551 398.561 32.108 400.24 32.108C402.721 32.108 404.672 32.6321 406.096 33.6804C407.527 34.7287 408.363 36.1562 408.601 37.9631ZM422.923 32.3636V36.4545H411.097V32.3636H422.923ZM413.782 27.6591H419.228V45.9659C419.228 46.4687 419.305 46.8608 419.458 47.142C419.612 47.4148 419.825 47.6065 420.097 47.7173C420.379 47.8281 420.702 47.8835 421.069 47.8835C421.325 47.8835 421.58 47.8622 421.836 47.8196C422.092 47.7685 422.288 47.7301 422.424 47.7045L423.281 51.7571C423.008 51.8423 422.624 51.9403 422.13 52.0511C421.636 52.1705 421.035 52.2429 420.327 52.2685C419.015 52.3196 417.864 52.1449 416.876 51.7443C415.896 51.3437 415.133 50.7216 414.587 49.8778C414.042 49.0341 413.773 47.9687 413.782 46.6818V27.6591Z" fill="white"/>
<path d="M60.0378 21.9465C84.4212 21.9465 103.171 30.3119 103.171 39.5C103.171 48.6881 84.4069 57.0535 60.0378 57.0535C35.6545 57.0535 16.9046 48.6881 16.9046 39.5C16.9046 30.3119 35.6687 21.9465 60.0378 21.9465ZM60.0378 20C34.9005 20 14.5146 28.7246 14.5146 39.5C14.5146 50.2754 34.9005 59 60.0378 59C85.1751 59 105.561 50.2754 105.561 39.5C105.561 28.7246 85.1751 20 60.0378 20ZM45.5558 37.9358C44.4319 42.6283 40.4629 42.1417 35.5833 42.1417L37.5323 33.9617C42.9382 33.9617 46.6085 33.4866 45.5558 37.9358ZM28.3708 50.426H33.5917L34.8294 45.2353C40.6762 45.2353 44.3039 45.5829 47.6612 43.0223C51.3742 40.2415 52.3416 35.2941 49.6955 32.8146C48.3156 31.5169 46.0963 30.8797 43.0804 30.8797H33.0227L28.3708 50.426ZM54.7884 25.6774H59.9809L58.7433 30.8681C63.2244 30.8681 67.3784 30.6016 69.3843 32.1078C71.4897 33.6836 70.4797 35.6996 68.2035 45.2121H62.9399C65.1307 36.0125 65.5433 35.2478 64.7466 34.5526C63.9784 33.8806 62.2286 34.0196 58.0035 34.0196L55.329 45.2121H50.1365L54.7884 25.6774V25.6774ZM86.3559 37.9358C85.2178 42.6979 81.135 42.1417 76.3835 42.1417L78.3324 33.9617C83.7668 33.9617 87.4086 33.4866 86.3559 37.9358V37.9358ZM69.1709 50.426H74.4061L75.6437 45.2353C81.7894 45.2353 85.1894 45.525 88.4756 43.0223C92.1886 40.2415 93.1559 35.2941 90.5099 32.8146C89.13 31.5169 86.9107 30.8797 83.8948 30.8797H73.837L69.1709 50.426V50.426Z" fill="#FFA800"/>
</svg>
