<svg width="318" height="144" viewBox="0 0 318 144" fill="none" xmlns="http://www.w3.org/2000/svg">
<rect width="318" height="144" rx="20" fill="black"/>
<path d="M63.3352 35.4545V82H53.4943V44.7955H53.2216L42.5625 51.4773V42.75L54.0852 35.4545H63.3352ZM73.6932 73.8182V66.0682L93.125 35.4545H99.8068V46.1818H95.8523L83.6023 65.5682V65.9318H111.216V73.8182H73.6932ZM96.0341 82V71.4545L96.2159 68.0227V35.4545H105.443V82H96.0341ZM134.614 34.8182C137.008 34.8182 139.311 35.2197 141.523 36.0227C143.75 36.8258 145.735 38.1061 147.477 39.8636C149.235 41.6212 150.621 43.9545 151.636 46.8636C152.667 49.7576 153.189 53.3106 153.205 57.5227C153.205 61.4773 152.758 65.0076 151.864 68.1136C150.985 71.2045 149.72 73.8333 148.068 76C146.417 78.1667 144.424 79.8182 142.091 80.9545C139.758 82.0758 137.152 82.6364 134.273 82.6364C131.167 82.6364 128.424 82.0379 126.045 80.8409C123.667 79.6288 121.75 77.9848 120.295 75.9091C118.856 73.8182 117.985 71.4697 117.682 68.8636H127.386C127.765 70.5606 128.561 71.8788 129.773 72.8182C130.985 73.7424 132.485 74.2045 134.273 74.2045C137.303 74.2045 139.606 72.8864 141.182 70.25C142.758 67.5985 143.553 63.9697 143.568 59.3636H143.25C142.553 60.7273 141.614 61.9015 140.432 62.8864C139.25 63.8561 137.894 64.6061 136.364 65.1364C134.848 65.6667 133.235 65.9318 131.523 65.9318C128.78 65.9318 126.333 65.2879 124.182 64C122.03 62.7121 120.333 60.9394 119.091 58.6818C117.848 56.4242 117.227 53.8485 117.227 50.9545C117.212 47.8333 117.932 45.053 119.386 42.6136C120.841 40.1742 122.871 38.2652 125.477 36.8864C128.098 35.4924 131.144 34.803 134.614 34.8182ZM134.682 42.5455C133.152 42.5455 131.788 42.9091 130.591 43.6364C129.409 44.3636 128.47 45.3409 127.773 46.5682C127.091 47.7955 126.758 49.1667 126.773 50.6818C126.773 52.2121 127.106 53.5909 127.773 54.8182C128.455 56.0303 129.379 57 130.545 57.7273C131.727 58.4394 133.076 58.7955 134.591 58.7955C135.727 58.7955 136.78 58.5833 137.75 58.1591C138.72 57.7348 139.561 57.1515 140.273 56.4091C141 55.6515 141.568 54.7803 141.977 53.7955C142.386 52.8106 142.591 51.7652 142.591 50.6591C142.576 49.1894 142.227 47.8409 141.545 46.6136C140.864 45.3864 139.924 44.4015 138.727 43.6591C137.53 42.9167 136.182 42.5455 134.682 42.5455ZM163.898 82.5909C162.398 82.5909 161.11 82.0606 160.034 81C158.973 79.9242 158.443 78.6364 158.443 77.1364C158.443 75.6515 158.973 74.3788 160.034 73.3182C161.11 72.2576 162.398 71.7273 163.898 71.7273C165.352 71.7273 166.625 72.2576 167.716 73.3182C168.807 74.3788 169.352 75.6515 169.352 77.1364C169.352 78.1364 169.095 79.053 168.58 79.8864C168.08 80.7045 167.42 81.3636 166.602 81.8636C165.784 82.3485 164.883 82.5909 163.898 82.5909ZM193.585 83.0227C189.676 83.0076 186.313 82.0455 183.494 80.1364C180.691 78.2273 178.532 75.4621 177.017 71.8409C175.517 68.2197 174.775 63.8636 174.79 58.7727C174.79 53.697 175.54 49.3712 177.04 45.7955C178.555 42.2197 180.714 39.5 183.517 37.6364C186.335 35.7576 189.691 34.8182 193.585 34.8182C197.479 34.8182 200.828 35.7576 203.631 37.6364C206.449 39.5152 208.616 42.2424 210.131 45.8182C211.646 49.3788 212.396 53.697 212.381 58.7727C212.381 63.8788 211.623 68.2424 210.108 71.8636C208.608 75.4848 206.456 78.25 203.653 80.1591C200.85 82.0682 197.494 83.0227 193.585 83.0227ZM193.585 74.8636C196.252 74.8636 198.381 73.5227 199.972 70.8409C201.563 68.1591 202.35 64.1364 202.335 58.7727C202.335 55.2424 201.972 52.303 201.244 49.9545C200.532 47.6061 199.517 45.8409 198.199 44.6591C196.896 43.4773 195.358 42.8864 193.585 42.8864C190.934 42.8864 188.813 44.2121 187.222 46.8636C185.631 49.5152 184.828 53.4848 184.812 58.7727C184.812 62.3485 185.169 65.3333 185.881 67.7273C186.608 70.1061 187.631 71.8939 188.949 73.0909C190.267 74.2727 191.812 74.8636 193.585 74.8636ZM237.648 83.0227C233.739 83.0076 230.375 82.0455 227.557 80.1364C224.754 78.2273 222.595 75.4621 221.08 71.8409C219.58 68.2197 218.837 63.8636 218.852 58.7727C218.852 53.697 219.602 49.3712 221.102 45.7955C222.617 42.2197 224.777 39.5 227.58 37.6364C230.398 35.7576 233.754 34.8182 237.648 34.8182C241.542 34.8182 244.89 35.7576 247.693 37.6364C250.511 39.5152 252.678 42.2424 254.193 45.8182C255.708 49.3788 256.458 53.697 256.443 58.7727C256.443 63.8788 255.686 68.2424 254.17 71.8636C252.67 75.4848 250.519 78.25 247.716 80.1591C244.913 82.0682 241.557 83.0227 237.648 83.0227ZM237.648 74.8636C240.314 74.8636 242.443 73.5227 244.034 70.8409C245.625 68.1591 246.413 64.1364 246.398 58.7727C246.398 55.2424 246.034 52.303 245.307 49.9545C244.595 47.6061 243.58 45.8409 242.261 44.6591C240.958 43.4773 239.42 42.8864 237.648 42.8864C234.996 42.8864 232.875 44.2121 231.284 46.8636C229.693 49.5152 228.89 53.4848 228.875 58.7727C228.875 62.3485 229.231 65.3333 229.943 67.7273C230.67 70.1061 231.693 71.8939 233.011 73.0909C234.33 74.2727 235.875 74.8636 237.648 74.8636Z" fill="#FFA800"/>
<path d="M271.392 63.7727L266.705 81.1875H264.098L268.786 63.7727H271.392ZM272.85 79V68.0909H275.733V70.0156H275.861C276.089 69.3764 276.467 68.8722 276.998 68.5028C277.528 68.1335 278.162 67.9489 278.901 67.9489C279.649 67.9489 280.286 68.1359 280.812 68.5099C281.337 68.8793 281.688 69.3812 281.863 70.0156H281.976C282.199 69.3906 282.601 68.8911 283.184 68.517C283.771 68.1383 284.465 67.9489 285.265 67.9489C286.283 67.9489 287.109 68.2732 287.743 68.9219C288.383 69.5658 288.702 70.4796 288.702 71.6634V79H285.684V72.2599C285.684 71.6539 285.523 71.1993 285.201 70.8963C284.879 70.5933 284.476 70.4418 283.993 70.4418C283.444 70.4418 283.016 70.617 282.708 70.9673C282.4 71.313 282.246 71.7699 282.246 72.3381V79H279.313V72.196C279.313 71.661 279.159 71.2348 278.851 70.9176C278.548 70.6004 278.148 70.4418 277.651 70.4418C277.315 70.4418 277.012 70.527 276.742 70.6974C276.477 70.8632 276.266 71.0975 276.11 71.4006C275.954 71.6989 275.876 72.0492 275.876 72.4517V79H272.85ZM296.021 79.2131C294.918 79.2131 293.964 78.9787 293.159 78.5099C292.359 78.0365 291.741 77.3783 291.305 76.5355C290.87 75.688 290.652 74.7055 290.652 73.5881C290.652 72.4612 290.87 71.4763 291.305 70.6335C291.741 69.786 292.359 69.1278 293.159 68.6591C293.964 68.1856 294.918 67.9489 296.021 67.9489C297.124 67.9489 298.076 68.1856 298.876 68.6591C299.681 69.1278 300.301 69.786 300.737 70.6335C301.173 71.4763 301.39 72.4612 301.39 73.5881C301.39 74.7055 301.173 75.688 300.737 76.5355C300.301 77.3783 299.681 78.0365 298.876 78.5099C298.076 78.9787 297.124 79.2131 296.021 79.2131ZM296.035 76.8693C296.537 76.8693 296.956 76.7273 297.292 76.4432C297.629 76.1544 297.882 75.7614 298.052 75.2642C298.228 74.767 298.315 74.2012 298.315 73.5668C298.315 72.9323 298.228 72.3665 298.052 71.8693C297.882 71.3722 297.629 70.9792 297.292 70.6903C296.956 70.4015 296.537 70.2571 296.035 70.2571C295.529 70.2571 295.103 70.4015 294.757 70.6903C294.416 70.9792 294.158 71.3722 293.983 71.8693C293.812 72.3665 293.727 72.9323 293.727 73.5668C293.727 74.2012 293.812 74.767 293.983 75.2642C294.158 75.7614 294.416 76.1544 294.757 76.4432C295.103 76.7273 295.529 76.8693 296.035 76.8693Z" fill="#FFA800" fill-opacity="0.97"/>
<path d="M26.7885 109.062L26.2701 111.037H16.7459L17.2573 109.062H26.7885ZM21.8382 120L16.9803 114.219L16.9874 112.443H19.388C19.923 112.443 20.3704 112.344 20.7303 112.145C21.0901 111.946 21.36 111.676 21.54 111.335C21.7199 110.994 21.8122 110.606 21.8169 110.17C21.8122 109.517 21.6204 108.984 21.2417 108.572C20.8676 108.156 20.2497 107.947 19.388 107.947H16.7459L17.3283 105.455H19.388C20.5953 105.455 21.6015 105.637 22.4064 106.001C23.2161 106.361 23.8221 106.875 24.2246 107.543C24.6318 108.21 24.8378 109.006 24.8425 109.929C24.8378 110.748 24.7005 111.463 24.4306 112.074C24.1654 112.685 23.7464 113.194 23.1735 113.601C22.6053 114.008 21.8643 114.311 20.9505 114.51L20.8368 114.553L25.1834 119.872V120H21.8382ZM26.8027 105.455L26.2701 107.457H18.4292L18.9618 105.455H26.8027ZM28.6848 120V117.784L33.8624 112.99C34.3027 112.564 34.6721 112.18 34.9703 111.839C35.2734 111.499 35.503 111.165 35.6593 110.838C35.8155 110.507 35.8936 110.149 35.8936 109.766C35.8936 109.339 35.7966 108.973 35.6025 108.665C35.4083 108.352 35.1432 108.113 34.807 107.947C34.4708 107.777 34.0897 107.692 33.6635 107.692C33.2185 107.692 32.8302 107.782 32.4988 107.962C32.1673 108.142 31.9116 108.4 31.7317 108.736C31.5518 109.072 31.4618 109.472 31.4618 109.936H28.5428C28.5428 108.984 28.7582 108.158 29.1891 107.457C29.62 106.757 30.2237 106.214 31.0002 105.831C31.7767 105.447 32.6716 105.256 33.6848 105.256C34.7265 105.256 35.6332 105.44 36.405 105.81C37.1815 106.174 37.7852 106.681 38.2161 107.33C38.647 107.978 38.8624 108.722 38.8624 109.56C38.8624 110.109 38.7535 110.651 38.5357 111.186C38.3226 111.721 37.9415 112.315 37.3922 112.969C36.843 113.617 36.0688 114.396 35.0698 115.305L32.9462 117.386V117.486H39.0542V120H28.6848ZM40.7498 117.443V115.021L46.8223 105.455H48.9103V108.807H47.6745L43.8464 114.865V114.979H52.4757V117.443H40.7498ZM47.7314 120V116.705L47.7882 115.632V105.455H50.6717V120H47.7314ZM59.7875 105.256C60.5356 105.256 61.2553 105.381 61.9466 105.632C62.6426 105.883 63.2628 106.283 63.8074 106.832C64.3566 107.382 64.7898 108.111 65.1071 109.02C65.429 109.924 65.5924 111.035 65.5971 112.351C65.5971 113.587 65.4574 114.69 65.1781 115.661C64.9035 116.626 64.5081 117.448 63.992 118.125C63.4759 118.802 62.8533 119.318 62.1241 119.673C61.3949 120.024 60.5806 120.199 59.6809 120.199C58.7103 120.199 57.8533 120.012 57.1099 119.638C56.3665 119.259 55.7676 118.745 55.313 118.097C54.8632 117.443 54.591 116.709 54.4963 115.895H57.5289C57.6473 116.425 57.8959 116.837 58.2747 117.131C58.6535 117.42 59.1222 117.564 59.6809 117.564C60.6279 117.564 61.3476 117.152 61.84 116.328C62.3324 115.5 62.581 114.366 62.5858 112.926H62.4863C62.2685 113.352 61.975 113.719 61.6056 114.027C61.2363 114.33 60.8126 114.564 60.3343 114.73C59.8609 114.896 59.3566 114.979 58.8216 114.979C57.9645 114.979 57.1999 114.777 56.5275 114.375C55.8552 113.973 55.3249 113.419 54.9366 112.713C54.5484 112.008 54.3542 111.203 54.3542 110.298C54.3495 109.323 54.5744 108.454 55.0289 107.692C55.4835 106.929 56.118 106.333 56.9324 105.902C57.7515 105.466 58.7032 105.251 59.7875 105.256ZM59.8088 107.67C59.3306 107.67 58.9044 107.784 58.5304 108.011C58.161 108.239 57.8675 108.544 57.6497 108.928C57.4366 109.311 57.3324 109.74 57.3372 110.213C57.3372 110.691 57.4413 111.122 57.6497 111.506C57.8627 111.884 58.1516 112.187 58.5162 112.415C58.8855 112.637 59.3069 112.749 59.7804 112.749C60.1355 112.749 60.4645 112.682 60.7676 112.55C61.0706 112.417 61.3334 112.235 61.5559 112.003C61.7832 111.766 61.9608 111.494 62.0886 111.186C62.2164 110.878 62.2804 110.552 62.2804 110.206C62.2756 109.747 62.1667 109.325 61.9537 108.942C61.7406 108.558 61.447 108.25 61.073 108.018C60.6989 107.786 60.2775 107.67 59.8088 107.67ZM68.9387 120.185C68.47 120.185 68.0675 120.019 67.7314 119.688C67.3999 119.351 67.2342 118.949 67.2342 118.48C67.2342 118.016 67.3999 117.618 67.7314 117.287C68.0675 116.955 68.47 116.79 68.9387 116.79C69.3933 116.79 69.791 116.955 70.1319 117.287C70.4728 117.618 70.6433 118.016 70.6433 118.48C70.6433 118.793 70.5628 119.079 70.4018 119.339C70.2456 119.595 70.0396 119.801 69.7839 119.957C69.5282 120.109 69.2465 120.185 68.9387 120.185ZM78.2161 120.32C76.9945 120.315 75.9434 120.014 75.0627 119.418C74.1867 118.821 73.512 117.957 73.0385 116.825C72.5698 115.694 72.3378 114.332 72.3425 112.741C72.3425 111.155 72.5769 109.804 73.0456 108.686C73.5191 107.569 74.1938 106.719 75.0698 106.136C75.9505 105.549 76.9992 105.256 78.2161 105.256C79.4329 105.256 80.4793 105.549 81.3553 106.136C82.236 106.723 82.9131 107.576 83.3865 108.693C83.86 109.806 84.0944 111.155 84.0897 112.741C84.0897 114.337 83.8529 115.701 83.3794 116.832C82.9107 117.964 82.2383 118.828 81.3624 119.425C80.4864 120.021 79.4377 120.32 78.2161 120.32ZM78.2161 117.77C79.0494 117.77 79.7147 117.351 80.2118 116.513C80.709 115.675 80.9552 114.418 80.9505 112.741C80.9505 111.638 80.8368 110.72 80.6096 109.986C80.387 109.252 80.0698 108.7 79.6578 108.331C79.2507 107.962 78.7701 107.777 78.2161 107.777C77.3875 107.777 76.7246 108.191 76.2275 109.02C75.7303 109.848 75.4793 111.089 75.4746 112.741C75.4746 113.859 75.5859 114.792 75.8084 115.54C76.0357 116.283 76.3553 116.842 76.7672 117.216C77.1792 117.585 77.6621 117.77 78.2161 117.77ZM91.9856 120.32C90.764 120.315 89.7129 120.014 88.8322 119.418C87.9563 118.821 87.2815 117.957 86.8081 116.825C86.3393 115.694 86.1073 114.332 86.112 112.741C86.112 111.155 86.3464 109.804 86.8152 108.686C87.2886 107.569 87.9634 106.719 88.8393 106.136C89.72 105.549 90.7688 105.256 91.9856 105.256C93.2025 105.256 94.2489 105.549 95.1248 106.136C96.0055 106.723 96.6826 107.576 97.1561 108.693C97.6296 109.806 97.8639 111.155 97.8592 112.741C97.8592 114.337 97.6225 115.701 97.149 116.832C96.6802 117.964 96.0079 118.828 95.1319 119.425C94.256 120.021 93.2072 120.32 91.9856 120.32ZM91.9856 117.77C92.819 117.77 93.4842 117.351 93.9814 116.513C94.4785 115.675 94.7247 114.418 94.72 112.741C94.72 111.638 94.6064 110.72 94.3791 109.986C94.1565 109.252 93.8393 108.7 93.4274 108.331C93.0202 107.962 92.5396 107.777 91.9856 107.777C91.157 107.777 90.4941 108.191 89.997 109.02C89.4998 109.848 89.2489 111.089 89.2441 112.741C89.2441 113.859 89.3554 114.792 89.5779 115.54C89.8052 116.283 90.1248 116.842 90.5368 117.216C90.9487 117.585 91.4316 117.77 91.9856 117.77ZM106.416 104.773L101.728 122.188H99.1216L103.809 104.773H106.416ZM107.873 120V109.091H110.757V111.016H110.885C111.112 110.376 111.491 109.872 112.021 109.503C112.551 109.134 113.186 108.949 113.925 108.949C114.673 108.949 115.309 109.136 115.835 109.51C116.361 109.879 116.711 110.381 116.886 111.016H117C117.222 110.391 117.625 109.891 118.207 109.517C118.794 109.138 119.488 108.949 120.288 108.949C121.306 108.949 122.132 109.273 122.767 109.922C123.406 110.566 123.726 111.48 123.726 112.663V120H120.707V113.26C120.707 112.654 120.546 112.199 120.224 111.896C119.902 111.593 119.5 111.442 119.017 111.442C118.468 111.442 118.039 111.617 117.731 111.967C117.424 112.313 117.27 112.77 117.27 113.338V120H114.336V113.196C114.336 112.661 114.183 112.235 113.875 111.918C113.572 111.6 113.172 111.442 112.675 111.442C112.338 111.442 112.035 111.527 111.765 111.697C111.5 111.863 111.29 112.098 111.133 112.401C110.977 112.699 110.899 113.049 110.899 113.452V120H107.873ZM131.045 120.213C129.941 120.213 128.987 119.979 128.182 119.51C127.382 119.036 126.764 118.378 126.329 117.536C125.893 116.688 125.675 115.705 125.675 114.588C125.675 113.461 125.893 112.476 126.329 111.634C126.764 110.786 127.382 110.128 128.182 109.659C128.987 109.186 129.941 108.949 131.045 108.949C132.148 108.949 133.099 109.186 133.9 109.659C134.705 110.128 135.325 110.786 135.76 111.634C136.196 112.476 136.414 113.461 136.414 114.588C136.414 115.705 136.196 116.688 135.76 117.536C135.325 118.378 134.705 119.036 133.9 119.51C133.099 119.979 132.148 120.213 131.045 120.213ZM131.059 117.869C131.561 117.869 131.98 117.727 132.316 117.443C132.652 117.154 132.905 116.761 133.076 116.264C133.251 115.767 133.339 115.201 133.339 114.567C133.339 113.932 133.251 113.366 133.076 112.869C132.905 112.372 132.652 111.979 132.316 111.69C131.98 111.402 131.561 111.257 131.059 111.257C130.552 111.257 130.126 111.402 129.78 111.69C129.439 111.979 129.181 112.372 129.006 112.869C128.836 113.366 128.751 113.932 128.751 114.567C128.751 115.201 128.836 115.767 129.006 116.264C129.181 116.761 129.439 117.154 129.78 117.443C130.126 117.727 130.552 117.869 131.059 117.869ZM145.162 120L142.193 109.091H145.254L146.945 116.42H147.044L148.806 109.091H151.81L153.6 116.378H153.692L155.354 109.091H158.408L155.446 120H152.243L150.368 113.139H150.233L148.358 120H145.162ZM163.047 113.693V120H160.022V105.455H162.962V111.016H163.09C163.336 110.372 163.734 109.867 164.283 109.503C164.832 109.134 165.521 108.949 166.35 108.949C167.108 108.949 167.768 109.115 168.331 109.446C168.9 109.773 169.34 110.244 169.653 110.859C169.97 111.47 170.126 112.202 170.121 113.054V120H167.096V113.594C167.1 112.921 166.93 112.398 166.584 112.024C166.243 111.65 165.765 111.463 165.15 111.463C164.738 111.463 164.373 111.551 164.056 111.726C163.743 111.901 163.497 112.157 163.317 112.493C163.142 112.824 163.052 113.224 163.047 113.693ZM177.474 120.213C176.352 120.213 175.386 119.986 174.576 119.531C173.771 119.072 173.151 118.423 172.715 117.585C172.28 116.742 172.062 115.746 172.062 114.595C172.062 113.473 172.28 112.488 172.715 111.641C173.151 110.793 173.764 110.133 174.555 109.659C175.35 109.186 176.283 108.949 177.353 108.949C178.073 108.949 178.743 109.065 179.363 109.297C179.988 109.524 180.533 109.867 180.997 110.327C181.465 110.786 181.83 111.364 182.09 112.06C182.351 112.751 182.481 113.561 182.481 114.489V115.32H173.269V113.445H179.633C179.633 113.009 179.538 112.623 179.349 112.287C179.16 111.951 178.897 111.688 178.561 111.499C178.229 111.304 177.843 111.207 177.403 111.207C176.944 111.207 176.536 111.314 176.181 111.527C175.831 111.735 175.556 112.017 175.357 112.372C175.159 112.723 175.057 113.113 175.052 113.544V115.327C175.052 115.866 175.151 116.333 175.35 116.726C175.554 117.119 175.84 117.422 176.21 117.635C176.579 117.848 177.017 117.955 177.524 117.955C177.86 117.955 178.168 117.907 178.447 117.812C178.726 117.718 178.965 117.576 179.164 117.386C179.363 117.197 179.515 116.965 179.619 116.69L182.417 116.875C182.275 117.547 181.984 118.134 181.544 118.636C181.108 119.134 180.544 119.522 179.853 119.801C179.167 120.076 178.374 120.213 177.474 120.213ZM187.481 113.693V120H184.455V109.091H187.339V111.016H187.467C187.708 110.381 188.113 109.879 188.681 109.51C189.249 109.136 189.938 108.949 190.748 108.949C191.506 108.949 192.166 109.115 192.73 109.446C193.293 109.777 193.731 110.251 194.044 110.866C194.356 111.477 194.512 112.206 194.512 113.054V120H191.487V113.594C191.491 112.926 191.321 112.405 190.975 112.031C190.63 111.652 190.154 111.463 189.548 111.463C189.141 111.463 188.781 111.551 188.468 111.726C188.16 111.901 187.919 112.157 187.744 112.493C187.573 112.824 187.486 113.224 187.481 113.693ZM203.394 124.091C203.01 124.091 202.65 124.06 202.314 123.999C201.983 123.942 201.708 123.868 201.49 123.778L202.172 121.52C202.527 121.629 202.847 121.688 203.131 121.697C203.42 121.707 203.668 121.641 203.877 121.499C204.09 121.357 204.262 121.115 204.395 120.774L204.573 120.312L200.659 109.091H203.841L206.1 117.102H206.213L208.493 109.091H211.696L207.456 121.179C207.253 121.766 206.976 122.277 206.625 122.713C206.28 123.153 205.842 123.492 205.311 123.729C204.781 123.97 204.142 124.091 203.394 124.091ZM217.822 120.213C216.719 120.213 215.765 119.979 214.96 119.51C214.16 119.036 213.542 118.378 213.106 117.536C212.67 116.688 212.453 115.705 212.453 114.588C212.453 113.461 212.67 112.476 213.106 111.634C213.542 110.786 214.16 110.128 214.96 109.659C215.765 109.186 216.719 108.949 217.822 108.949C218.925 108.949 219.877 109.186 220.677 109.659C221.482 110.128 222.102 110.786 222.538 111.634C222.973 112.476 223.191 113.461 223.191 114.588C223.191 115.705 222.973 116.688 222.538 117.536C222.102 118.378 221.482 119.036 220.677 119.51C219.877 119.979 218.925 120.213 217.822 120.213ZM217.836 117.869C218.338 117.869 218.757 117.727 219.093 117.443C219.429 117.154 219.683 116.761 219.853 116.264C220.028 115.767 220.116 115.201 220.116 114.567C220.116 113.932 220.028 113.366 219.853 112.869C219.683 112.372 219.429 111.979 219.093 111.69C218.757 111.402 218.338 111.257 217.836 111.257C217.329 111.257 216.903 111.402 216.558 111.69C216.217 111.979 215.959 112.372 215.784 112.869C215.613 113.366 215.528 113.932 215.528 114.567C215.528 115.201 215.613 115.767 215.784 116.264C215.959 116.761 216.217 117.154 216.558 117.443C216.903 117.727 217.329 117.869 217.836 117.869ZM232.154 115.355V109.091H235.18V120H232.275V118.018H232.161C231.915 118.658 231.506 119.171 230.933 119.56C230.365 119.948 229.671 120.142 228.852 120.142C228.123 120.142 227.481 119.976 226.927 119.645C226.373 119.313 225.94 118.842 225.627 118.232C225.32 117.621 225.163 116.889 225.159 116.037V109.091H228.184V115.497C228.189 116.141 228.362 116.65 228.703 117.024C229.044 117.398 229.5 117.585 230.073 117.585C230.438 117.585 230.779 117.502 231.096 117.337C231.413 117.166 231.669 116.915 231.863 116.584C232.062 116.252 232.159 115.843 232.154 115.355ZM242.229 120V109.091H245.162V110.994H245.276C245.475 110.317 245.808 109.806 246.277 109.46C246.746 109.11 247.286 108.935 247.896 108.935C248.048 108.935 248.211 108.944 248.387 108.963C248.562 108.982 248.716 109.008 248.848 109.041V111.726C248.706 111.683 248.51 111.645 248.259 111.612C248.008 111.579 247.778 111.562 247.57 111.562C247.125 111.562 246.727 111.66 246.377 111.854C246.031 112.043 245.756 112.308 245.553 112.649C245.354 112.99 245.254 113.383 245.254 113.828V120H242.229ZM254.876 120.213C253.754 120.213 252.788 119.986 251.979 119.531C251.174 119.072 250.553 118.423 250.118 117.585C249.682 116.742 249.464 115.746 249.464 114.595C249.464 113.473 249.682 112.488 250.118 111.641C250.553 110.793 251.166 110.133 251.957 109.659C252.753 109.186 253.685 108.949 254.756 108.949C255.475 108.949 256.145 109.065 256.765 109.297C257.39 109.524 257.935 109.867 258.399 110.327C258.868 110.786 259.232 111.364 259.493 112.06C259.753 112.751 259.883 113.561 259.883 114.489V115.32H250.672V113.445H257.035C257.035 113.009 256.941 112.623 256.751 112.287C256.562 111.951 256.299 111.688 255.963 111.499C255.631 111.304 255.246 111.207 254.805 111.207C254.346 111.207 253.939 111.314 253.584 111.527C253.233 111.735 252.959 112.017 252.76 112.372C252.561 112.723 252.459 113.113 252.454 113.544V115.327C252.454 115.866 252.554 116.333 252.753 116.726C252.956 117.119 253.243 117.422 253.612 117.635C253.981 117.848 254.419 117.955 254.926 117.955C255.262 117.955 255.57 117.907 255.849 117.812C256.129 117.718 256.368 117.576 256.567 117.386C256.765 117.197 256.917 116.965 257.021 116.69L259.819 116.875C259.677 117.547 259.386 118.134 258.946 118.636C258.51 119.134 257.947 119.522 257.256 119.801C256.569 120.076 255.776 120.213 254.876 120.213ZM264.883 113.693V120H261.858V109.091H264.741V111.016H264.869C265.111 110.381 265.515 109.879 266.084 109.51C266.652 109.136 267.341 108.949 268.15 108.949C268.908 108.949 269.568 109.115 270.132 109.446C270.695 109.777 271.133 110.251 271.446 110.866C271.758 111.477 271.915 112.206 271.915 113.054V120H268.889V113.594C268.894 112.926 268.723 112.405 268.378 112.031C268.032 111.652 267.556 111.463 266.95 111.463C266.543 111.463 266.183 111.551 265.871 111.726C265.563 111.901 265.321 112.157 265.146 112.493C264.976 112.824 264.888 113.224 264.883 113.693ZM279.271 120.213C278.149 120.213 277.183 119.986 276.373 119.531C275.568 119.072 274.948 118.423 274.512 117.585C274.077 116.742 273.859 115.746 273.859 114.595C273.859 113.473 274.077 112.488 274.512 111.641C274.948 110.793 275.561 110.133 276.352 109.659C277.147 109.186 278.08 108.949 279.15 108.949C279.87 108.949 280.54 109.065 281.16 109.297C281.785 109.524 282.329 109.867 282.794 110.327C283.262 110.786 283.627 111.364 283.887 112.06C284.148 112.751 284.278 113.561 284.278 114.489V115.32H275.066V113.445H281.43C281.43 113.009 281.335 112.623 281.146 112.287C280.956 111.951 280.694 111.688 280.357 111.499C280.026 111.304 279.64 111.207 279.2 111.207C278.74 111.207 278.333 111.314 277.978 111.527C277.628 111.735 277.353 112.017 277.154 112.372C276.955 112.723 276.854 113.113 276.849 113.544V115.327C276.849 115.866 276.948 116.333 277.147 116.726C277.351 117.119 277.637 117.422 278.007 117.635C278.376 117.848 278.814 117.955 279.32 117.955C279.657 117.955 279.964 117.907 280.244 117.812C280.523 117.718 280.762 117.576 280.961 117.386C281.16 117.197 281.311 116.965 281.416 116.69L284.214 116.875C284.072 117.547 283.781 118.134 283.34 118.636C282.905 119.134 282.341 119.522 281.65 119.801C280.963 120.076 280.17 120.213 279.271 120.213ZM288.326 120L285.357 109.091H288.419L290.109 116.42H290.208L291.97 109.091H294.974L296.764 116.378H296.856L298.518 109.091H301.572L298.61 120H295.407L293.532 113.139H293.397L291.522 120H288.326Z" fill="#FFA800" fill-opacity="0.79"/>
<path d="M38.1 23C38.597 23 39 22.6642 39 22.25V19.75C39 19.3358 38.597 19 38.1 19H15.9C15.403 19 15 19.3358 15 19.75V22.5468C15 22.9609 15.403 23.2968 15.9 23.2968H22.296C24.3441 23.2968 25.9156 23.9191 26.8688 25H15.9C15.403 25 15 25.3358 15 25.75V28.25C15 28.6642 15.403 29 15.9 29H27.8068C27.3405 31.2554 25.3347 32.6645 22.2 32.6645H15.9C15.403 32.6645 15 33.0003 15 33.4145V36.7278C15 36.9371 15.105 37.1369 15.2896 37.2789L27.6685 46.8011C27.8347 46.929 28.0527 47 28.2789 47H34.4711C35.2904 47 35.6835 46.162 35.0815 45.6989L23.7653 36.9941C29.5028 36.8479 33.6011 33.6569 34.1392 29H38.1C38.597 29 39 28.6642 39 28.25V25.75C39 25.3358 38.597 25 38.1 25H33.6983C33.4368 24.2787 33.0773 23.6096 32.6294 23H38.1Z" fill="#FFA800"/>
</svg>
