<svg width="541" height="78" viewBox="0 0 541 78" fill="none" xmlns="http://www.w3.org/2000/svg">
<rect width="541" height="78" fill="black"/>
<path d="M118.012 52V25.8182H135.347V30.3821H123.547V36.6207H134.197V41.1847H123.547V52H118.012ZM138.652 52V32.3636H143.932V35.7898H144.136C144.494 34.571 145.095 33.6506 145.939 33.0284C146.782 32.3977 147.754 32.0824 148.854 32.0824C149.126 32.0824 149.42 32.0994 149.736 32.1335C150.051 32.1676 150.328 32.2145 150.567 32.2741V37.1065C150.311 37.0298 149.957 36.9616 149.506 36.902C149.054 36.8423 148.64 36.8125 148.265 36.8125C147.464 36.8125 146.748 36.9872 146.118 37.3366C145.496 37.6776 145.001 38.1548 144.635 38.7685C144.277 39.3821 144.098 40.0895 144.098 40.8906V52H138.652ZM161.417 52.3835C159.397 52.3835 157.659 51.9744 156.201 51.1562C154.752 50.3295 153.636 49.1619 152.852 47.6534C152.068 46.1364 151.676 44.3423 151.676 42.2713C151.676 40.2514 152.068 38.4787 152.852 36.9531C153.636 35.4276 154.74 34.2386 156.163 33.3864C157.595 32.5341 159.274 32.108 161.2 32.108C162.495 32.108 163.701 32.3168 164.818 32.7344C165.943 33.1435 166.923 33.7614 167.758 34.5881C168.602 35.4148 169.258 36.4545 169.727 37.7074C170.195 38.9517 170.43 40.4091 170.43 42.0795V43.5753H153.849V40.2003H165.303C165.303 39.4162 165.133 38.7216 164.792 38.1165C164.451 37.5114 163.978 37.0384 163.373 36.6974C162.776 36.348 162.082 36.1733 161.289 36.1733C160.463 36.1733 159.73 36.3651 159.09 36.7486C158.46 37.1236 157.965 37.6307 157.607 38.2699C157.249 38.9006 157.066 39.6037 157.058 40.3793V43.5881C157.058 44.5597 157.237 45.3991 157.595 46.1065C157.961 46.8139 158.477 47.3594 159.142 47.7429C159.806 48.1264 160.595 48.3182 161.507 48.3182C162.112 48.3182 162.666 48.233 163.169 48.0625C163.671 47.892 164.102 47.6364 164.46 47.2955C164.818 46.9545 165.09 46.5369 165.278 46.0426L170.315 46.375C170.059 47.5852 169.535 48.642 168.742 49.5455C167.958 50.4403 166.944 51.1392 165.7 51.642C164.464 52.1364 163.036 52.3835 161.417 52.3835ZM182.933 52.3835C180.913 52.3835 179.174 51.9744 177.717 51.1562C176.268 50.3295 175.151 49.1619 174.367 47.6534C173.583 46.1364 173.191 44.3423 173.191 42.2713C173.191 40.2514 173.583 38.4787 174.367 36.9531C175.151 35.4276 176.255 34.2386 177.678 33.3864C179.11 32.5341 180.789 32.108 182.715 32.108C184.011 32.108 185.217 32.3168 186.333 32.7344C187.458 33.1435 188.438 33.7614 189.274 34.5881C190.117 35.4148 190.774 36.4545 191.242 37.7074C191.711 38.9517 191.945 40.4091 191.945 42.0795V43.5753H175.365V40.2003H186.819C186.819 39.4162 186.649 38.7216 186.308 38.1165C185.967 37.5114 185.494 37.0384 184.889 36.6974C184.292 36.348 183.597 36.1733 182.805 36.1733C181.978 36.1733 181.245 36.3651 180.606 36.7486C179.975 37.1236 179.481 37.6307 179.123 38.2699C178.765 38.9006 178.582 39.6037 178.573 40.3793V43.5881C178.573 44.5597 178.752 45.3991 179.11 46.1065C179.477 46.8139 179.992 47.3594 180.657 47.7429C181.322 48.1264 182.11 48.3182 183.022 48.3182C183.627 48.3182 184.181 48.233 184.684 48.0625C185.187 47.892 185.617 47.6364 185.975 47.2955C186.333 46.9545 186.606 46.5369 186.794 46.0426L191.83 46.375C191.575 47.5852 191.051 48.642 190.258 49.5455C189.474 50.4403 188.46 51.1392 187.215 51.642C185.98 52.1364 184.552 52.3835 182.933 52.3835ZM218.137 33.348C218.035 32.3168 217.596 31.5156 216.82 30.9446C216.045 30.3736 214.992 30.0881 213.662 30.0881C212.759 30.0881 211.996 30.2159 211.374 30.4716C210.752 30.7188 210.275 31.0639 209.942 31.5071C209.618 31.9503 209.456 32.4531 209.456 33.0156C209.439 33.4844 209.537 33.8935 209.751 34.2429C209.972 34.5923 210.275 34.8949 210.658 35.1506C211.042 35.3977 211.485 35.6151 211.988 35.8026C212.491 35.9815 213.028 36.1349 213.599 36.2628L215.951 36.8253C217.093 37.081 218.141 37.4219 219.096 37.848C220.05 38.2741 220.877 38.7983 221.576 39.4205C222.275 40.0426 222.816 40.7756 223.199 41.6193C223.591 42.4631 223.792 43.4304 223.8 44.5213C223.792 46.1236 223.383 47.5128 222.573 48.6889C221.772 49.8565 220.613 50.7642 219.096 51.4119C217.587 52.0511 215.768 52.3707 213.637 52.3707C211.523 52.3707 209.682 52.0469 208.114 51.3991C206.555 50.7514 205.336 49.7926 204.458 48.5227C203.589 47.2443 203.133 45.6634 203.09 43.7798H208.447C208.506 44.6577 208.758 45.3906 209.201 45.9787C209.653 46.5582 210.253 46.9972 211.003 47.2955C211.762 47.5852 212.618 47.7301 213.573 47.7301C214.51 47.7301 215.324 47.5937 216.015 47.321C216.714 47.0483 217.255 46.669 217.638 46.1832C218.022 45.6974 218.214 45.1392 218.214 44.5085C218.214 43.9205 218.039 43.4261 217.689 43.0256C217.349 42.625 216.846 42.2841 216.181 42.0028C215.525 41.7216 214.719 41.4659 213.765 41.2358L210.914 40.5199C208.706 39.983 206.964 39.1435 205.685 38.0014C204.407 36.8594 203.772 35.321 203.78 33.3864C203.772 31.8011 204.194 30.4162 205.046 29.2315C205.907 28.0469 207.087 27.1222 208.587 26.4574C210.087 25.7926 211.792 25.4602 213.701 25.4602C215.644 25.4602 217.34 25.7926 218.789 26.4574C220.246 27.1222 221.38 28.0469 222.189 29.2315C222.999 30.4162 223.417 31.7884 223.442 33.348H218.137ZM241.727 33.348C241.624 32.3168 241.186 31.5156 240.41 30.9446C239.634 30.3736 238.582 30.0881 237.252 30.0881C236.349 30.0881 235.586 30.2159 234.964 30.4716C234.342 30.7188 233.865 31.0639 233.532 31.5071C233.208 31.9503 233.046 32.4531 233.046 33.0156C233.029 33.4844 233.127 33.8935 233.34 34.2429C233.562 34.5923 233.865 34.8949 234.248 35.1506C234.632 35.3977 235.075 35.6151 235.578 35.8026C236.08 35.9815 236.617 36.1349 237.188 36.2628L239.541 36.8253C240.683 37.081 241.731 37.4219 242.686 37.848C243.64 38.2741 244.467 38.7983 245.166 39.4205C245.865 40.0426 246.406 40.7756 246.789 41.6193C247.181 42.4631 247.382 43.4304 247.39 44.5213C247.382 46.1236 246.972 47.5128 246.163 48.6889C245.362 49.8565 244.203 50.7642 242.686 51.4119C241.177 52.0511 239.357 52.3707 237.227 52.3707C235.113 52.3707 233.272 52.0469 231.704 51.3991C230.144 50.7514 228.926 49.7926 228.048 48.5227C227.178 47.2443 226.722 45.6634 226.68 43.7798H232.036C232.096 44.6577 232.347 45.3906 232.791 45.9787C233.242 46.5582 233.843 46.9972 234.593 47.2955C235.352 47.5852 236.208 47.7301 237.163 47.7301C238.1 47.7301 238.914 47.5937 239.605 47.321C240.303 47.0483 240.845 46.669 241.228 46.1832C241.612 45.6974 241.803 45.1392 241.803 44.5085C241.803 43.9205 241.629 43.4261 241.279 43.0256C240.938 42.625 240.436 42.2841 239.771 42.0028C239.115 41.7216 238.309 41.4659 237.355 41.2358L234.504 40.5199C232.296 39.983 230.553 39.1435 229.275 38.0014C227.997 36.8594 227.362 35.321 227.37 33.3864C227.362 31.8011 227.784 30.4162 228.636 29.2315C229.497 28.0469 230.677 27.1222 232.177 26.4574C233.677 25.7926 235.382 25.4602 237.291 25.4602C239.234 25.4602 240.93 25.7926 242.379 26.4574C243.836 27.1222 244.97 28.0469 245.779 29.2315C246.589 30.4162 247.007 31.7884 247.032 33.348H241.727ZM251.113 52V25.8182H256.649V47.4361H267.873V52H251.113Z" fill="white"/>
<path d="M24 35.1429H48V12H24V35.1429ZM32 19.7143H40V27.4286H32V19.7143ZM56 12V35.1429H80V12H56ZM72 27.4286H64V19.7143H72V27.4286ZM24 66H48V42.8571H24V66ZM32 50.5714H40V58.2857H32V50.5714ZM76 42.8571H80V58.2857H68V54.4286H64V66H56V42.8571H68V46.7143H76V42.8571ZM76 62.1429H80V66H76V62.1429ZM68 62.1429H72V66H68V62.1429Z" fill="#FFA800"/>
</svg>
