<svg width="89" height="79" viewBox="0 0 89 79" fill="none" xmlns="http://www.w3.org/2000/svg">
<path d="M79.8517 19.6882C79.9082 20.5522 79.9082 21.4164 79.9082 22.2805C79.9082 48.6343 61.5549 79 28.0103 79C17.6758 79 8.07557 75.7288 0 70.0509C1.46833 70.2359 2.88 70.2977 4.40482 70.2977C12.932 70.2977 20.7818 67.1501 27.0502 61.7806C19.0311 61.5953 12.3109 55.8555 9.9955 47.9555C11.125 48.1405 12.2544 48.264 13.4404 48.264C15.0781 48.264 16.7159 48.017 18.2406 47.5852C9.88269 45.7335 3.61407 37.7101 3.61407 28.0203V27.7735C6.04229 29.2548 8.86614 30.1805 11.8589 30.3038C6.94585 26.7241 3.72706 20.614 3.72706 13.7014C3.72706 9.99837 4.63045 6.60384 6.21177 3.64131C15.1909 15.7382 28.6878 23.638 43.8222 24.5023C43.5399 23.021 43.3705 21.4782 43.3705 19.9352C43.3705 8.94912 51.5025 0 61.611 0C66.8629 0 71.6065 2.40703 74.9385 6.29531C79.0608 5.43129 83.0139 3.7648 86.5153 1.48126C85.1598 6.11027 82.2798 9.99856 78.4962 12.4671C82.167 12.0353 85.7247 10.9241 89 9.38132C86.5156 13.3312 83.4095 16.849 79.8517 19.6882V19.6882Z" fill="#FFA800"/>
</svg>
