<svg width="589" height="307" viewBox="0 0 589 307" fill="none" xmlns="http://www.w3.org/2000/svg">
<rect width="589" height="307" fill="white"/>
<rect width="589" height="307" fill="white"/>
<path d="M46.048 154L42.44 126.588H46.752L48.6 143.792L52.12 128.744H54.76L58.28 143.748L59.732 126.588H63.78L60.216 154H57.092L53.22 137.104L49.26 154H46.048ZM74.956 154.44C73.1373 154.44 71.48 154 69.984 153.12C68.5173 152.211 67.3587 150.949 66.508 149.336C65.6573 147.723 65.232 145.86 65.232 143.748C65.232 141.724 65.6573 139.905 66.508 138.292C67.3587 136.679 68.5173 135.403 69.984 134.464C71.48 133.525 73.1373 133.056 74.956 133.056C76.804 133.056 78.4613 133.525 79.928 134.464C81.424 135.403 82.5973 136.679 83.448 138.292C84.328 139.905 84.768 141.724 84.768 143.748C84.768 145.86 84.328 147.723 83.448 149.336C82.5973 150.949 81.424 152.211 79.928 153.12C78.4613 154 76.804 154.44 74.956 154.44ZM74.956 150.48C75.924 150.48 76.76 150.201 77.464 149.644C78.168 149.057 78.7253 148.265 79.136 147.268C79.576 146.241 79.796 145.068 79.796 143.748C79.796 142.369 79.576 141.181 79.136 140.184C78.7253 139.187 78.168 138.424 77.464 137.896C76.76 137.339 75.924 137.06 74.956 137.06C74.076 137.06 73.2693 137.339 72.536 137.896C71.832 138.424 71.26 139.187 70.82 140.184C70.4093 141.181 70.204 142.369 70.204 143.748C70.204 145.068 70.4093 146.241 70.82 147.268C71.2307 148.265 71.788 149.057 72.492 149.644C73.2253 150.201 74.0467 150.48 74.956 150.48ZM89.916 133.54H95.064L95.02 139.26L94.448 138.908C94.5653 137.999 94.8147 137.192 95.196 136.488C95.6067 135.784 96.1053 135.168 96.692 134.64C97.308 134.112 97.968 133.716 98.672 133.452C99.4053 133.188 100.153 133.056 100.916 133.056C102.06 133.056 103.087 133.247 103.996 133.628C104.935 133.98 105.8 134.567 106.592 135.388L104.48 139.568L104.348 139.92L103.952 139.744C103.864 139.509 103.776 139.275 103.688 139.04C103.6 138.776 103.38 138.483 103.028 138.16C102.617 137.837 102.177 137.588 101.708 137.412C101.268 137.236 100.784 137.148 100.256 137.148C99.552 137.148 98.8773 137.265 98.232 137.5C97.5867 137.735 97.0147 138.101 96.516 138.6C96.0467 139.099 95.6653 139.744 95.372 140.536C95.108 141.299 94.976 142.208 94.976 143.264V154H89.916V133.54ZM117.944 154.484C116.8 154.484 115.715 154.264 114.688 153.824C113.691 153.384 112.796 152.709 112.004 151.8C111.212 150.891 110.581 149.761 110.112 148.412C109.672 147.063 109.452 145.479 109.452 143.66C109.452 141.9 109.672 140.36 110.112 139.04C110.552 137.691 111.153 136.576 111.916 135.696C112.708 134.787 113.617 134.112 114.644 133.672C115.671 133.232 116.785 133.012 117.988 133.012C118.663 133.012 119.308 133.1 119.924 133.276C120.569 133.452 121.141 133.716 121.64 134.068C122.168 134.391 122.593 134.845 122.916 135.432V124.476H127.8H128.24V124.872C128.064 125.048 127.947 125.239 127.888 125.444C127.859 125.649 127.844 126.001 127.844 126.5L127.8 151.272C127.8 151.741 127.829 152.196 127.888 152.636C127.947 153.076 128.079 153.531 128.284 154H123.4C123.253 153.677 123.151 153.413 123.092 153.208C123.033 153.003 122.989 152.797 122.96 152.592C122.96 152.357 122.96 152.079 122.96 151.756C122.608 152.372 122.168 152.885 121.64 153.296C121.112 153.707 120.54 154 119.924 154.176C119.308 154.381 118.648 154.484 117.944 154.484ZM118.78 150.48C119.455 150.48 120.041 150.348 120.54 150.084C121.068 149.791 121.493 149.365 121.816 148.808C122.168 148.251 122.417 147.547 122.564 146.696C122.74 145.816 122.828 144.819 122.828 143.704C122.828 142.179 122.681 140.917 122.388 139.92C122.095 138.893 121.64 138.131 121.024 137.632C120.408 137.133 119.616 136.884 118.648 136.884C117.973 136.884 117.357 137.045 116.8 137.368C116.243 137.661 115.788 138.101 115.436 138.688C115.084 139.275 114.805 139.979 114.6 140.8C114.424 141.621 114.336 142.545 114.336 143.572C114.336 145.009 114.527 146.241 114.908 147.268C115.319 148.295 115.861 149.087 116.536 149.644C117.211 150.201 117.959 150.48 118.78 150.48ZM132.112 154V126.588H141.44C143.581 126.588 145.327 126.955 146.676 127.688C148.055 128.421 149.067 129.389 149.712 130.592C150.387 131.795 150.724 133.144 150.724 134.64C150.724 135.725 150.533 136.752 150.152 137.72C149.8 138.659 149.243 139.495 148.48 140.228C147.747 140.932 146.808 141.489 145.664 141.9C144.549 142.311 143.215 142.516 141.66 142.516H137.172V154H132.112ZM137.172 138.38H141.308C142.247 138.38 143.039 138.219 143.684 137.896C144.329 137.573 144.813 137.133 145.136 136.576C145.459 136.019 145.62 135.373 145.62 134.64C145.62 133.907 145.459 133.261 145.136 132.704C144.813 132.147 144.329 131.707 143.684 131.384C143.068 131.061 142.291 130.9 141.352 130.9H137.172V138.38ZM155.916 133.54H161.064L161.02 139.26L160.448 138.908C160.565 137.999 160.815 137.192 161.196 136.488C161.607 135.784 162.105 135.168 162.692 134.64C163.308 134.112 163.968 133.716 164.672 133.452C165.405 133.188 166.153 133.056 166.916 133.056C168.06 133.056 169.087 133.247 169.996 133.628C170.935 133.98 171.8 134.567 172.592 135.388L170.48 139.568L170.348 139.92L169.952 139.744C169.864 139.509 169.776 139.275 169.688 139.04C169.6 138.776 169.38 138.483 169.028 138.16C168.617 137.837 168.177 137.588 167.708 137.412C167.268 137.236 166.784 137.148 166.256 137.148C165.552 137.148 164.877 137.265 164.232 137.5C163.587 137.735 163.015 138.101 162.516 138.6C162.047 139.099 161.665 139.744 161.372 140.536C161.108 141.299 160.976 142.208 160.976 143.264V154H155.916V133.54ZM185.924 154.484C184.457 154.484 183.093 154.249 181.832 153.78C180.6 153.311 179.515 152.636 178.576 151.756C177.667 150.847 176.963 149.732 176.464 148.412C175.965 147.092 175.716 145.596 175.716 143.924C175.716 142.223 175.965 140.697 176.464 139.348C176.963 137.999 177.637 136.855 178.488 135.916C179.368 134.977 180.395 134.273 181.568 133.804C182.741 133.305 184.003 133.056 185.352 133.056C186.555 133.056 187.684 133.261 188.74 133.672C189.796 134.083 190.72 134.713 191.512 135.564C192.333 136.385 192.979 137.427 193.448 138.688C193.917 139.92 194.152 141.357 194.152 143C194.152 143.293 194.137 143.645 194.108 144.056C194.108 144.467 194.093 144.819 194.064 145.112H180.512C180.571 146.08 180.761 146.916 181.084 147.62C181.407 148.295 181.832 148.852 182.36 149.292C182.888 149.732 183.475 150.069 184.12 150.304C184.765 150.509 185.44 150.612 186.144 150.612C186.76 150.612 187.347 150.553 187.904 150.436C188.491 150.319 189.033 150.113 189.532 149.82C190.06 149.527 190.559 149.145 191.028 148.676L193.58 151.14C192.935 151.903 192.201 152.548 191.38 153.076C190.588 153.575 189.723 153.927 188.784 154.132C187.875 154.367 186.921 154.484 185.924 154.484ZM180.6 141.372H189.312C189.312 140.668 189.209 140.037 189.004 139.48C188.828 138.923 188.564 138.453 188.212 138.072C187.86 137.691 187.42 137.412 186.892 137.236C186.393 137.031 185.807 136.928 185.132 136.928C184.575 136.928 184.032 137.016 183.504 137.192C183.005 137.339 182.551 137.603 182.14 137.984C181.729 138.365 181.392 138.835 181.128 139.392C180.864 139.949 180.688 140.609 180.6 141.372ZM207.396 154.484C206.164 154.484 204.976 154.367 203.832 154.132C202.688 153.927 201.632 153.589 200.664 153.12C199.696 152.621 198.801 151.991 197.98 151.228L200.18 147.18L200.356 146.828L200.708 147.048C200.796 147.253 200.884 147.488 200.972 147.752C201.06 147.987 201.28 148.265 201.632 148.588C202.365 149.204 203.201 149.688 204.14 150.04C205.079 150.392 206.193 150.568 207.484 150.568C208.305 150.568 208.995 150.48 209.552 150.304C210.139 150.099 210.579 149.835 210.872 149.512C211.195 149.16 211.356 148.764 211.356 148.324C211.356 147.972 211.268 147.664 211.092 147.4C210.916 147.136 210.637 146.901 210.256 146.696C209.875 146.491 209.376 146.285 208.76 146.08C208.144 145.845 207.411 145.596 206.56 145.332C205.064 144.951 203.759 144.481 202.644 143.924C201.559 143.337 200.723 142.633 200.136 141.812C199.549 140.991 199.256 140.037 199.256 138.952C199.256 137.808 199.579 136.796 200.224 135.916C200.899 135.036 201.837 134.347 203.04 133.848C204.243 133.32 205.665 133.056 207.308 133.056C208.159 133.056 208.965 133.129 209.728 133.276C210.491 133.393 211.209 133.584 211.884 133.848C212.588 134.083 213.233 134.405 213.82 134.816C214.436 135.197 215.008 135.652 215.536 136.18L213.116 139.568L212.808 139.92L212.5 139.656C212.471 139.421 212.397 139.201 212.28 138.996C212.192 138.761 211.972 138.483 211.62 138.16C211.033 137.72 210.359 137.397 209.596 137.192C208.863 136.987 208.129 136.884 207.396 136.884C206.399 136.884 205.533 137.045 204.8 137.368C204.096 137.691 203.744 138.189 203.744 138.864C203.744 139.245 203.905 139.597 204.228 139.92C204.551 140.213 205.079 140.507 205.812 140.8C206.575 141.064 207.572 141.357 208.804 141.68C210.447 142.12 211.781 142.633 212.808 143.22C213.864 143.777 214.627 144.452 215.096 145.244C215.595 146.036 215.844 146.96 215.844 148.016C215.844 149.16 215.521 150.231 214.876 151.228C214.231 152.225 213.277 153.017 212.016 153.604C210.784 154.191 209.244 154.484 207.396 154.484ZM229.396 154.484C228.164 154.484 226.976 154.367 225.832 154.132C224.688 153.927 223.632 153.589 222.664 153.12C221.696 152.621 220.801 151.991 219.98 151.228L222.18 147.18L222.356 146.828L222.708 147.048C222.796 147.253 222.884 147.488 222.972 147.752C223.06 147.987 223.28 148.265 223.632 148.588C224.365 149.204 225.201 149.688 226.14 150.04C227.079 150.392 228.193 150.568 229.484 150.568C230.305 150.568 230.995 150.48 231.552 150.304C232.139 150.099 232.579 149.835 232.872 149.512C233.195 149.16 233.356 148.764 233.356 148.324C233.356 147.972 233.268 147.664 233.092 147.4C232.916 147.136 232.637 146.901 232.256 146.696C231.875 146.491 231.376 146.285 230.76 146.08C230.144 145.845 229.411 145.596 228.56 145.332C227.064 144.951 225.759 144.481 224.644 143.924C223.559 143.337 222.723 142.633 222.136 141.812C221.549 140.991 221.256 140.037 221.256 138.952C221.256 137.808 221.579 136.796 222.224 135.916C222.899 135.036 223.837 134.347 225.04 133.848C226.243 133.32 227.665 133.056 229.308 133.056C230.159 133.056 230.965 133.129 231.728 133.276C232.491 133.393 233.209 133.584 233.884 133.848C234.588 134.083 235.233 134.405 235.82 134.816C236.436 135.197 237.008 135.652 237.536 136.18L235.116 139.568L234.808 139.92L234.5 139.656C234.471 139.421 234.397 139.201 234.28 138.996C234.192 138.761 233.972 138.483 233.62 138.16C233.033 137.72 232.359 137.397 231.596 137.192C230.863 136.987 230.129 136.884 229.396 136.884C228.399 136.884 227.533 137.045 226.8 137.368C226.096 137.691 225.744 138.189 225.744 138.864C225.744 139.245 225.905 139.597 226.228 139.92C226.551 140.213 227.079 140.507 227.812 140.8C228.575 141.064 229.572 141.357 230.804 141.68C232.447 142.12 233.781 142.633 234.808 143.22C235.864 143.777 236.627 144.452 237.096 145.244C237.595 146.036 237.844 146.96 237.844 148.016C237.844 149.16 237.521 150.231 236.876 151.228C236.231 152.225 235.277 153.017 234.016 153.604C232.784 154.191 231.244 154.484 229.396 154.484ZM273.088 154.528C270.829 154.528 268.937 153.971 267.412 152.856C265.916 151.741 264.772 150.128 263.98 148.016C263.217 145.904 262.836 143.337 262.836 140.316C262.836 137.353 263.217 134.831 263.98 132.748C264.772 130.636 265.916 129.023 267.412 127.908C268.937 126.764 270.829 126.192 273.088 126.192C275.317 126.192 277.18 126.764 278.676 127.908C280.201 129.023 281.345 130.636 282.108 132.748C282.9 134.831 283.296 137.353 283.296 140.316C283.296 143.337 282.9 145.919 282.108 148.06C281.345 150.172 280.201 151.785 278.676 152.9C277.18 153.985 275.317 154.528 273.088 154.528ZM273.088 150.48C274.203 150.48 275.141 150.113 275.904 149.38C276.696 148.617 277.297 147.488 277.708 145.992C278.148 144.467 278.368 142.56 278.368 140.272C278.368 138.131 278.148 136.312 277.708 134.816C277.297 133.32 276.696 132.191 275.904 131.428C275.141 130.636 274.203 130.24 273.088 130.24C271.973 130.24 271.02 130.636 270.228 131.428C269.436 132.191 268.82 133.32 268.38 134.816C267.969 136.312 267.764 138.131 267.764 140.272C267.764 142.56 267.969 144.467 268.38 145.992C268.82 147.488 269.436 148.617 270.228 149.38C271.02 150.113 271.973 150.48 273.088 150.48ZM286.112 161.348L286.068 133.496H290.996V136.356C291.465 135.593 291.979 134.977 292.536 134.508C293.123 134.009 293.768 133.643 294.472 133.408C295.205 133.173 295.968 133.056 296.76 133.056C297.875 133.056 298.916 133.291 299.884 133.76C300.881 134.2 301.747 134.875 302.48 135.784C303.213 136.693 303.785 137.823 304.196 139.172C304.636 140.492 304.856 142.047 304.856 143.836C304.856 145.625 304.636 147.195 304.196 148.544C303.756 149.893 303.14 151.008 302.348 151.888C301.585 152.768 300.705 153.428 299.708 153.868C298.74 154.308 297.728 154.528 296.672 154.528C295.939 154.528 295.22 154.44 294.516 154.264C293.841 154.088 293.211 153.839 292.624 153.516C292.037 153.164 291.553 152.739 291.172 152.24V161.348H286.112ZM295.308 150.656C295.953 150.656 296.555 150.539 297.112 150.304C297.669 150.069 298.153 149.688 298.564 149.16C299.004 148.603 299.341 147.869 299.576 146.96C299.811 146.051 299.928 144.921 299.928 143.572C299.928 142.223 299.752 141.064 299.4 140.096C299.048 139.099 298.549 138.336 297.904 137.808C297.259 137.28 296.481 137.001 295.572 136.972C294.868 136.943 294.237 137.06 293.68 137.324C293.152 137.588 292.697 138.013 292.316 138.6C291.935 139.187 291.641 139.935 291.436 140.844C291.231 141.753 291.128 142.853 291.128 144.144C291.157 145.024 291.231 145.816 291.348 146.52C291.465 147.224 291.627 147.84 291.832 148.368C292.067 148.867 292.345 149.292 292.668 149.644C292.991 149.967 293.372 150.216 293.812 150.392C294.252 150.568 294.751 150.656 295.308 150.656ZM319.156 154.44C317.983 154.44 316.956 154.249 316.076 153.868C315.225 153.487 314.507 152.871 313.92 152.02C313.363 151.169 312.952 150.04 312.688 148.632C312.453 147.224 312.38 145.479 312.468 143.396L313.04 128.7L318.188 128.04L318.584 127.996L318.628 128.392C318.511 128.597 318.393 128.803 318.276 129.008C318.159 129.213 318.085 129.565 318.056 130.064L317.572 136.136L317.792 136.444L317.44 143.308C317.352 145.215 317.411 146.696 317.616 147.752C317.851 148.779 318.188 149.483 318.628 149.864C319.097 150.245 319.655 150.436 320.3 150.436C321.239 150.436 322.075 150.245 322.808 149.864C323.571 149.483 324.275 149.043 324.92 148.544L325.976 152.152C324.979 152.885 323.908 153.457 322.764 153.868C321.649 154.249 320.447 154.44 319.156 154.44ZM308.596 133.54H324.348L324.304 137.456H308.508L308.596 133.54ZM331.696 154V150.084H336.712V137.456H331.96V133.54H341.728V150.084H346.304V154H331.696ZM339 130.152C338.149 130.152 337.416 129.859 336.8 129.272C336.184 128.685 335.876 127.981 335.876 127.16C335.876 126.28 336.169 125.561 336.756 125.004C337.343 124.447 338.091 124.168 339 124.168C339.821 124.168 340.54 124.461 341.156 125.048C341.801 125.635 342.124 126.339 342.124 127.16C342.124 127.981 341.801 128.685 341.156 129.272C340.54 129.859 339.821 130.152 339 130.152ZM351.32 154V133.54H355.5V135.036C355.852 134.567 356.219 134.185 356.6 133.892C356.981 133.599 357.377 133.393 357.788 133.276C358.228 133.129 358.653 133.056 359.064 133.056C359.563 133.056 360.032 133.144 360.472 133.32C360.912 133.467 361.308 133.731 361.66 134.112C362.041 134.464 362.335 134.933 362.54 135.52C362.863 134.963 363.229 134.508 363.64 134.156C364.051 133.775 364.52 133.496 365.048 133.32C365.605 133.144 366.207 133.056 366.852 133.056C367.615 133.056 368.26 133.188 368.788 133.452C369.316 133.716 369.741 134.097 370.064 134.596C370.416 135.095 370.665 135.711 370.812 136.444C370.959 137.177 371.032 137.999 371.032 138.908V154H366.72V139.964C366.72 139.084 366.676 138.409 366.588 137.94C366.5 137.441 366.368 137.104 366.192 136.928C366.016 136.723 365.781 136.62 365.488 136.62C365.107 136.62 364.74 136.811 364.388 137.192C364.036 137.544 363.743 138.043 363.508 138.688C363.303 139.304 363.2 140.037 363.2 140.888V154H359.152V140.096C359.152 138.688 359.049 137.749 358.844 137.28C358.639 136.811 358.257 136.576 357.7 136.576C357.436 136.576 357.172 136.664 356.908 136.84C356.673 137.016 356.453 137.28 356.248 137.632C356.072 137.955 355.925 138.38 355.808 138.908C355.691 139.407 355.632 139.979 355.632 140.624V154H351.32ZM375.696 154V150.084H380.712V137.456H375.96V133.54H385.728V150.084H390.304V154H375.696ZM383 130.152C382.149 130.152 381.416 129.859 380.8 129.272C380.184 128.685 379.876 127.981 379.876 127.16C379.876 126.28 380.169 125.561 380.756 125.004C381.343 124.447 382.091 124.168 383 124.168C383.821 124.168 384.54 124.461 385.156 125.048C385.801 125.635 386.124 126.339 386.124 127.16C386.124 127.981 385.801 128.685 385.156 129.272C384.54 129.859 383.821 130.152 383 130.152ZM395.76 151.008L407.068 137.632H396.64V133.54H413.228V136.664L402.14 149.908H412.216C412.715 149.908 413.067 149.879 413.272 149.82C413.477 149.761 413.668 149.644 413.844 149.468H414.24V149.908V154H395.76V151.008ZM427.924 154.484C426.457 154.484 425.093 154.249 423.832 153.78C422.6 153.311 421.515 152.636 420.576 151.756C419.667 150.847 418.963 149.732 418.464 148.412C417.965 147.092 417.716 145.596 417.716 143.924C417.716 142.223 417.965 140.697 418.464 139.348C418.963 137.999 419.637 136.855 420.488 135.916C421.368 134.977 422.395 134.273 423.568 133.804C424.741 133.305 426.003 133.056 427.352 133.056C428.555 133.056 429.684 133.261 430.74 133.672C431.796 134.083 432.72 134.713 433.512 135.564C434.333 136.385 434.979 137.427 435.448 138.688C435.917 139.92 436.152 141.357 436.152 143C436.152 143.293 436.137 143.645 436.108 144.056C436.108 144.467 436.093 144.819 436.064 145.112H422.512C422.571 146.08 422.761 146.916 423.084 147.62C423.407 148.295 423.832 148.852 424.36 149.292C424.888 149.732 425.475 150.069 426.12 150.304C426.765 150.509 427.44 150.612 428.144 150.612C428.76 150.612 429.347 150.553 429.904 150.436C430.491 150.319 431.033 150.113 431.532 149.82C432.06 149.527 432.559 149.145 433.028 148.676L435.58 151.14C434.935 151.903 434.201 152.548 433.38 153.076C432.588 153.575 431.723 153.927 430.784 154.132C429.875 154.367 428.921 154.484 427.924 154.484ZM422.6 141.372H431.312C431.312 140.668 431.209 140.037 431.004 139.48C430.828 138.923 430.564 138.453 430.212 138.072C429.86 137.691 429.42 137.412 428.892 137.236C428.393 137.031 427.807 136.928 427.132 136.928C426.575 136.928 426.032 137.016 425.504 137.192C425.005 137.339 424.551 137.603 424.14 137.984C423.729 138.365 423.392 138.835 423.128 139.392C422.864 139.949 422.688 140.609 422.6 141.372ZM447.944 154.484C446.8 154.484 445.715 154.264 444.688 153.824C443.691 153.384 442.796 152.709 442.004 151.8C441.212 150.891 440.581 149.761 440.112 148.412C439.672 147.063 439.452 145.479 439.452 143.66C439.452 141.9 439.672 140.36 440.112 139.04C440.552 137.691 441.153 136.576 441.916 135.696C442.708 134.787 443.617 134.112 444.644 133.672C445.671 133.232 446.785 133.012 447.988 133.012C448.663 133.012 449.308 133.1 449.924 133.276C450.569 133.452 451.141 133.716 451.64 134.068C452.168 134.391 452.593 134.845 452.916 135.432V124.476H457.8H458.24V124.872C458.064 125.048 457.947 125.239 457.888 125.444C457.859 125.649 457.844 126.001 457.844 126.5L457.8 151.272C457.8 151.741 457.829 152.196 457.888 152.636C457.947 153.076 458.079 153.531 458.284 154H453.4C453.253 153.677 453.151 153.413 453.092 153.208C453.033 153.003 452.989 152.797 452.96 152.592C452.96 152.357 452.96 152.079 452.96 151.756C452.608 152.372 452.168 152.885 451.64 153.296C451.112 153.707 450.54 154 449.924 154.176C449.308 154.381 448.648 154.484 447.944 154.484ZM448.78 150.48C449.455 150.48 450.041 150.348 450.54 150.084C451.068 149.791 451.493 149.365 451.816 148.808C452.168 148.251 452.417 147.547 452.564 146.696C452.74 145.816 452.828 144.819 452.828 143.704C452.828 142.179 452.681 140.917 452.388 139.92C452.095 138.893 451.64 138.131 451.024 137.632C450.408 137.133 449.616 136.884 448.648 136.884C447.973 136.884 447.357 137.045 446.8 137.368C446.243 137.661 445.788 138.101 445.436 138.688C445.084 139.275 444.805 139.979 444.6 140.8C444.424 141.621 444.336 142.545 444.336 143.572C444.336 145.009 444.527 146.241 444.908 147.268C445.319 148.295 445.861 149.087 446.536 149.644C447.211 150.201 447.959 150.48 448.78 150.48Z" fill="black"/>
<path d="M56.0391 209.836C55.1406 210.07 53.9531 210.188 52.4766 210.188C51.0078 210.188 49.7461 210.004 48.6914 209.637C47.6445 209.27 46.7422 208.727 45.9844 208.008C44.3594 206.492 43.5469 204.383 43.5469 201.68C43.5469 199.914 43.9688 198.391 44.8125 197.109C45.9531 195.367 47.707 194.258 50.0742 193.781C50.8008 193.641 51.6914 193.57 52.7461 193.57C53.8008 193.57 54.7109 193.621 55.4766 193.723V195.973C54.8047 195.801 53.8438 195.715 52.5938 195.715C51.3516 195.715 50.332 195.855 49.5352 196.137C48.7383 196.418 48.0781 196.82 47.5547 197.344C46.5078 198.367 45.9844 199.812 45.9844 201.68C45.9844 203.578 46.5 205.098 47.5312 206.238C48.6562 207.48 50.2617 208.102 52.3477 208.102C52.832 208.102 53.2812 208.082 53.6953 208.043V202.031H56.0391V209.836ZM65.4727 210.188C61.0508 210.188 58.8398 208.027 58.8398 203.707C58.8398 201.848 59.4531 200.359 60.6797 199.242C61.7812 198.227 63.0391 197.719 64.4531 197.719C65.9922 197.719 67.1953 198.234 68.0625 199.266C68.8672 200.227 69.2695 201.512 69.2695 203.121V204.035H61.2773C61.2773 206.246 62.1797 207.598 63.9844 208.09C64.4141 208.207 65.0742 208.266 65.9648 208.266C66.8633 208.266 67.7422 208.145 68.6016 207.902V209.883C67.7422 210.086 66.6992 210.188 65.4727 210.188ZM66.9258 202.312C66.9258 201.562 66.7188 200.93 66.3047 200.414C65.8203 199.82 65.1523 199.523 64.3008 199.523C63.4023 199.523 62.6719 199.809 62.1094 200.379C61.5938 200.91 61.3359 201.555 61.3359 202.312H66.9258ZM76.1953 208.148C76.4531 208.242 76.8438 208.289 77.3672 208.289C77.8906 208.289 78.3281 208.227 78.6797 208.102V209.977C78.5156 210.016 78.2773 210.039 77.9648 210.047L77.2266 210.07C77.0625 210.07 76.9375 210.07 76.8516 210.07C75.3438 210.07 74.2305 209.578 73.5117 208.594C72.9336 207.797 72.6445 206.742 72.6445 205.43V199.699H70.9102V198.598L72.6445 197.906L73.207 194.906H74.9883V197.906H78.7383V199.699H74.9883V205.418C74.9883 206.949 75.3906 207.859 76.1953 208.148ZM92.2383 200.918L92.25 210H89.9062V197.906H92.0625L92.2266 199.23C93.0859 198.512 94.0859 198.043 95.2266 197.824C95.5938 197.754 95.9531 197.719 96.3047 197.719C97.7656 197.719 98.8672 198.336 99.6094 199.57C100.969 198.336 102.391 197.719 103.875 197.719C105.344 197.719 106.414 198.16 107.086 199.043C107.758 199.941 108.094 201.426 108.094 203.496V210H105.75V203.578C105.75 201.547 105.262 200.332 104.285 199.934C103.957 199.801 103.574 199.734 103.137 199.734C102.09 199.734 101.129 200.109 100.254 200.859V210H97.9102V203.484C97.9102 202.094 97.7031 201.117 97.2891 200.555C96.8906 200.008 96.1758 199.734 95.1445 199.734C94.1211 199.734 93.1523 200.129 92.2383 200.918ZM111.07 203.93C111.07 202.031 111.676 200.492 112.887 199.312C114.02 198.211 115.422 197.66 117.094 197.66C118.734 197.66 120.105 198.211 121.207 199.312C122.379 200.484 122.965 202.023 122.965 203.93C122.965 205.828 122.375 207.359 121.195 208.523C120.078 209.633 118.707 210.188 117.082 210.188C115.434 210.188 114.035 209.633 112.887 208.523C111.676 207.359 111.07 205.828 111.07 203.93ZM113.508 203.93C113.508 205.93 114.148 207.289 115.43 208.008C115.883 208.258 116.426 208.383 117.059 208.383C117.691 208.383 118.227 208.258 118.664 208.008C119.102 207.75 119.461 207.414 119.742 207C120.266 206.203 120.527 205.18 120.527 203.93C120.527 201.945 119.898 200.586 118.641 199.852C118.203 199.594 117.68 199.465 117.07 199.465C116.461 199.465 115.93 199.594 115.477 199.852C115.031 200.102 114.664 200.434 114.375 200.848C113.797 201.66 113.508 202.688 113.508 203.93ZM133.535 200.051C133.105 199.926 132.59 199.863 131.988 199.863C131.395 199.863 130.906 199.926 130.523 200.051C130.141 200.168 129.805 200.312 129.516 200.484C128.984 200.797 128.598 201.148 128.355 201.539V210H126.012V197.906H128.262L128.355 199.582C128.941 198.848 129.797 198.297 130.922 197.93C131.328 197.789 131.793 197.719 132.316 197.719C132.84 197.719 133.246 197.758 133.535 197.836V200.051ZM141.504 210.188C137.082 210.188 134.871 208.027 134.871 203.707C134.871 201.848 135.484 200.359 136.711 199.242C137.812 198.227 139.07 197.719 140.484 197.719C142.023 197.719 143.227 198.234 144.094 199.266C144.898 200.227 145.301 201.512 145.301 203.121V204.035H137.309C137.309 206.246 138.211 207.598 140.016 208.09C140.445 208.207 141.105 208.266 141.996 208.266C142.895 208.266 143.773 208.145 144.633 207.902V209.883C143.773 210.086 142.73 210.188 141.504 210.188ZM142.957 202.312C142.957 201.562 142.75 200.93 142.336 200.414C141.852 199.82 141.184 199.523 140.332 199.523C139.434 199.523 138.703 199.809 138.141 200.379C137.625 200.91 137.367 201.555 137.367 202.312H142.957ZM158.836 210.188C157.859 210.188 156.871 210.117 155.871 209.977V207.902C156.887 208.145 157.918 208.266 158.965 208.266C161.059 208.266 162.105 207.824 162.105 206.941C162.105 206.605 162.023 206.355 161.859 206.191C161.617 205.934 161.234 205.676 160.711 205.418L159 204.633C157.891 204.078 157.172 203.633 156.844 203.297C156.227 202.672 155.918 201.93 155.918 201.07C155.918 200.102 156.367 199.312 157.266 198.703C158.234 198.047 159.594 197.719 161.344 197.719C162.227 197.719 163.117 197.781 164.016 197.906V199.91C163.031 199.73 162.172 199.641 161.438 199.641C160.711 199.641 160.145 199.688 159.738 199.781C159.34 199.875 159.039 199.992 158.836 200.133C158.516 200.352 158.355 200.637 158.355 200.988C158.355 201.332 158.465 201.613 158.684 201.832C158.91 202.043 159.262 202.273 159.738 202.523L161.461 203.355C162.586 203.941 163.309 204.391 163.629 204.703C164.238 205.297 164.543 206.043 164.543 206.941C164.543 207.902 164.059 208.676 163.09 209.262C162.074 209.879 160.656 210.188 158.836 210.188ZM170.391 214.688H168.047V197.906H170.156L170.25 199.289C170.719 198.664 171.438 198.199 172.406 197.895C172.781 197.777 173.16 197.719 173.543 197.719C173.934 197.719 174.316 197.762 174.691 197.848C175.066 197.926 175.438 198.059 175.805 198.246C176.172 198.426 176.523 198.668 176.859 198.973C177.195 199.27 177.492 199.641 177.75 200.086C178.312 201.047 178.594 202.238 178.594 203.66C178.594 205.832 177.844 207.492 176.344 208.641C175.016 209.664 173.398 210.176 171.492 210.176H170.906C170.719 210.176 170.547 210.172 170.391 210.164V214.688ZM170.391 208.266C170.609 208.328 171.039 208.359 171.68 208.359C172.32 208.359 172.922 208.27 173.484 208.09C174.047 207.91 174.523 207.633 174.914 207.258C175.742 206.461 176.156 205.262 176.156 203.66C176.156 202.152 175.797 201.039 175.078 200.32C174.547 199.789 173.898 199.523 173.133 199.523C172.172 199.523 171.375 199.879 170.742 200.59C170.578 200.77 170.461 200.93 170.391 201.07V208.266ZM187.535 210.188C183.113 210.188 180.902 208.027 180.902 203.707C180.902 201.848 181.516 200.359 182.742 199.242C183.844 198.227 185.102 197.719 186.516 197.719C188.055 197.719 189.258 198.234 190.125 199.266C190.93 200.227 191.332 201.512 191.332 203.121V204.035H183.34C183.34 206.246 184.242 207.598 186.047 208.09C186.477 208.207 187.137 208.266 188.027 208.266C188.926 208.266 189.805 208.145 190.664 207.902V209.883C189.805 210.086 188.762 210.188 187.535 210.188ZM188.988 202.312C188.988 201.562 188.781 200.93 188.367 200.414C187.883 199.82 187.215 199.523 186.363 199.523C185.465 199.523 184.734 199.809 184.172 200.379C183.656 200.91 183.398 201.555 183.398 202.312H188.988ZM199.559 210.188C195.137 210.188 192.926 208.027 192.926 203.707C192.926 201.848 193.539 200.359 194.766 199.242C195.867 198.227 197.125 197.719 198.539 197.719C200.078 197.719 201.281 198.234 202.148 199.266C202.953 200.227 203.355 201.512 203.355 203.121V204.035H195.363C195.363 206.246 196.266 207.598 198.07 208.09C198.5 208.207 199.16 208.266 200.051 208.266C200.949 208.266 201.828 208.145 202.688 207.902V209.883C201.828 210.086 200.785 210.188 199.559 210.188ZM201.012 202.312C201.012 201.562 200.805 200.93 200.391 200.414C199.906 199.82 199.238 199.523 198.387 199.523C197.488 199.523 196.758 199.809 196.195 200.379C195.68 200.91 195.422 201.555 195.422 202.312H201.012ZM207.762 199.23C208.441 198.707 209.203 198.324 210.047 198.082C210.898 197.84 211.641 197.719 212.273 197.719C212.906 197.719 213.395 197.734 213.738 197.766V192.562H216.07V210H213.973L213.879 208.605C213.402 209.238 212.68 209.707 211.711 210.012C211.336 210.129 210.953 210.188 210.562 210.188C210.18 210.188 209.801 210.148 209.426 210.07C209.051 209.992 208.676 209.863 208.301 209.684C207.934 209.496 207.582 209.254 207.246 208.957C206.91 208.652 206.609 208.281 206.344 207.844C205.781 206.883 205.5 205.746 205.5 204.434C205.5 203.121 205.707 202.059 206.121 201.246C206.543 200.426 207.09 199.754 207.762 199.23ZM209.18 200.625C208.781 201 208.473 201.484 208.254 202.078C208.043 202.664 207.938 203.379 207.938 204.223C207.938 205.059 208.039 205.75 208.242 206.297C208.445 206.836 208.699 207.258 209.004 207.562C209.543 208.109 210.191 208.383 210.949 208.383C211.926 208.383 212.734 208.023 213.375 207.305C213.539 207.125 213.656 206.965 213.727 206.824V199.617L213.492 199.594C213.133 199.547 212.703 199.523 212.203 199.523C211.711 199.523 211.184 199.613 210.621 199.793C210.059 199.965 209.578 200.242 209.18 200.625ZM220.219 207.82H222.48V210C222.48 211.516 222.188 212.633 221.602 213.352C220.945 214.148 219.875 214.547 218.391 214.547V212.613C219.375 212.613 219.953 212.125 220.125 211.148C220.188 210.82 220.219 210.438 220.219 210V207.82ZM242.379 208.652C241.707 209.176 240.945 209.562 240.094 209.812C239.25 210.055 238.336 210.176 237.352 210.176C236.375 210.176 235.281 210.117 234.07 210V192.562H236.414V199.113C236.93 198.527 237.645 198.109 238.559 197.859C238.902 197.766 239.254 197.719 239.613 197.719C239.98 197.719 240.352 197.758 240.727 197.836C241.102 197.906 241.473 198.031 241.84 198.211C242.215 198.391 242.57 198.629 242.906 198.926C243.242 199.223 243.539 199.594 243.797 200.039C244.367 200.992 244.652 202.125 244.652 203.438C244.652 204.742 244.441 205.805 244.02 206.625C243.605 207.445 243.059 208.121 242.379 208.652ZM236.426 208.277C236.645 208.34 237.074 208.371 237.715 208.371C238.355 208.371 238.957 208.281 239.52 208.102C240.082 207.922 240.562 207.641 240.961 207.258C241.797 206.453 242.215 205.254 242.215 203.66C242.215 201.715 241.648 200.441 240.516 199.84C240.109 199.629 239.695 199.523 239.273 199.523C238.852 199.523 238.484 199.578 238.172 199.688C237.859 199.797 237.586 199.93 237.352 200.086C236.906 200.391 236.598 200.719 236.426 201.07V208.277ZM253.535 210.188C249.113 210.188 246.902 208.027 246.902 203.707C246.902 201.848 247.516 200.359 248.742 199.242C249.844 198.227 251.102 197.719 252.516 197.719C254.055 197.719 255.258 198.234 256.125 199.266C256.93 200.227 257.332 201.512 257.332 203.121V204.035H249.34C249.34 206.246 250.242 207.598 252.047 208.09C252.477 208.207 253.137 208.266 254.027 208.266C254.926 208.266 255.805 208.145 256.664 207.902V209.883C255.805 210.086 254.762 210.188 253.535 210.188ZM254.988 202.312C254.988 201.562 254.781 200.93 254.367 200.414C253.883 199.82 253.215 199.523 252.363 199.523C251.465 199.523 250.734 199.809 250.172 200.379C249.656 200.91 249.398 201.555 249.398 202.312H254.988ZM264.258 208.148C264.516 208.242 264.906 208.289 265.43 208.289C265.953 208.289 266.391 208.227 266.742 208.102V209.977C266.578 210.016 266.34 210.039 266.027 210.047L265.289 210.07C265.125 210.07 265 210.07 264.914 210.07C263.406 210.07 262.293 209.578 261.574 208.594C260.996 207.797 260.707 206.742 260.707 205.43V199.699H258.973V198.598L260.707 197.906L261.27 194.906H263.051V197.906H266.801V199.699H263.051V205.418C263.051 206.949 263.453 207.859 264.258 208.148ZM274.266 208.148C274.523 208.242 274.914 208.289 275.438 208.289C275.961 208.289 276.398 208.227 276.75 208.102V209.977C276.586 210.016 276.348 210.039 276.035 210.047L275.297 210.07C275.133 210.07 275.008 210.07 274.922 210.07C273.414 210.07 272.301 209.578 271.582 208.594C271.004 207.797 270.715 206.742 270.715 205.43V199.699H268.98V198.598L270.715 197.906L271.277 194.906H273.059V197.906H276.809V199.699H273.059V205.418C273.059 206.949 273.461 207.859 274.266 208.148ZM285.574 210.188C281.152 210.188 278.941 208.027 278.941 203.707C278.941 201.848 279.555 200.359 280.781 199.242C281.883 198.227 283.141 197.719 284.555 197.719C286.094 197.719 287.297 198.234 288.164 199.266C288.969 200.227 289.371 201.512 289.371 203.121V204.035H281.379C281.379 206.246 282.281 207.598 284.086 208.09C284.516 208.207 285.176 208.266 286.066 208.266C286.965 208.266 287.844 208.145 288.703 207.902V209.883C287.844 210.086 286.801 210.188 285.574 210.188ZM287.027 202.312C287.027 201.562 286.82 200.93 286.406 200.414C285.922 199.82 285.254 199.523 284.402 199.523C283.504 199.523 282.773 199.809 282.211 200.379C281.695 200.91 281.438 201.555 281.438 202.312H287.027ZM299.637 200.051C299.207 199.926 298.691 199.863 298.09 199.863C297.496 199.863 297.008 199.926 296.625 200.051C296.242 200.168 295.906 200.312 295.617 200.484C295.086 200.797 294.699 201.148 294.457 201.539V210H292.113V197.906H294.363L294.457 199.582C295.043 198.848 295.898 198.297 297.023 197.93C297.43 197.789 297.895 197.719 298.418 197.719C298.941 197.719 299.348 197.758 299.637 197.836V200.051ZM319.23 208.863C318.676 209.254 317.965 209.562 317.098 209.789C316.23 210.008 315.168 210.117 313.91 210.117C312.66 210.117 311.398 210.043 310.125 209.895V207.621C311.266 207.879 312.414 208.008 313.57 208.008C314.727 208.008 315.594 207.945 316.172 207.82C316.75 207.688 317.215 207.516 317.566 207.305C318.215 206.914 318.539 206.406 318.539 205.781C318.539 205.297 318.414 204.922 318.164 204.656C317.766 204.242 317.191 203.863 316.441 203.52L313.441 202.148C312.41 201.664 311.68 201.215 311.25 200.801C310.328 199.91 309.867 198.879 309.867 197.707C309.867 196.504 310.391 195.531 311.438 194.789C312.586 193.977 314.219 193.57 316.336 193.57C317.703 193.57 318.953 193.625 320.086 193.734V195.973C319.125 195.754 318.051 195.645 316.863 195.645C315.684 195.645 314.824 195.707 314.285 195.832C313.754 195.949 313.336 196.102 313.031 196.289C312.477 196.633 312.199 197.086 312.199 197.648C312.199 198.195 312.375 198.648 312.727 199.008C313.039 199.312 313.609 199.664 314.438 200.062L317.52 201.527C318.543 202.012 319.258 202.469 319.664 202.898C320.078 203.328 320.383 203.762 320.578 204.199C320.773 204.629 320.871 205.148 320.871 205.758C320.871 206.359 320.738 206.93 320.473 207.469C320.207 208 319.793 208.465 319.23 208.863ZM323.953 193.688H334.488V195.727H326.297V200.531H332.496V202.5H326.297V207.938H334.488V210H323.953V193.688ZM337.441 201.867C337.441 200.594 337.633 199.441 338.016 198.41C338.398 197.379 338.93 196.5 339.609 195.773C341.039 194.258 342.895 193.5 345.176 193.5C347.465 193.5 349.316 194.258 350.73 195.773C352.168 197.312 352.887 199.344 352.887 201.867C352.887 204.391 352.168 206.414 350.73 207.938C349.324 209.438 347.473 210.188 345.176 210.188C342.887 210.188 341.031 209.438 339.609 207.938C338.164 206.406 337.441 204.383 337.441 201.867ZM339.785 201.855C339.785 203.637 340.219 205.109 341.086 206.273C342.062 207.57 343.426 208.219 345.176 208.219C346.926 208.219 348.285 207.57 349.254 206.273C350.113 205.125 350.543 203.66 350.543 201.879C350.543 200.082 350.113 198.602 349.254 197.438C348.285 196.125 346.926 195.469 345.176 195.469C343.418 195.469 342.055 196.125 341.086 197.438C340.219 198.602 339.785 200.074 339.785 201.855ZM356.273 207.82H358.535V210C358.535 211.516 358.242 212.633 357.656 213.352C357 214.148 355.93 214.547 354.445 214.547V212.613C355.43 212.613 356.008 212.125 356.18 211.148C356.242 210.82 356.273 210.438 356.273 210V207.82ZM368.32 197.906H370.84L374.133 207.715L377.438 197.906H379.945L375.316 210H372.961L368.32 197.906ZM384.68 194.391C384.68 194.836 384.531 195.18 384.234 195.422C383.945 195.656 383.582 195.773 383.145 195.773C382.707 195.773 382.344 195.656 382.055 195.422C381.773 195.18 381.633 194.836 381.633 194.391C381.633 193.938 381.773 193.594 382.055 193.359C382.344 193.125 382.707 193.008 383.145 193.008C383.582 193.008 383.945 193.125 384.234 193.359C384.531 193.594 384.68 193.938 384.68 194.391ZM381.938 197.906H384.281V210H381.938V197.906ZM390.938 210.188C389.961 210.188 388.973 210.117 387.973 209.977V207.902C388.988 208.145 390.02 208.266 391.066 208.266C393.16 208.266 394.207 207.824 394.207 206.941C394.207 206.605 394.125 206.355 393.961 206.191C393.719 205.934 393.336 205.676 392.812 205.418L391.102 204.633C389.992 204.078 389.273 203.633 388.945 203.297C388.328 202.672 388.02 201.93 388.02 201.07C388.02 200.102 388.469 199.312 389.367 198.703C390.336 198.047 391.695 197.719 393.445 197.719C394.328 197.719 395.219 197.781 396.117 197.906V199.91C395.133 199.73 394.273 199.641 393.539 199.641C392.812 199.641 392.246 199.688 391.84 199.781C391.441 199.875 391.141 199.992 390.938 200.133C390.617 200.352 390.457 200.637 390.457 200.988C390.457 201.332 390.566 201.613 390.785 201.832C391.012 202.043 391.363 202.273 391.84 202.523L393.562 203.355C394.688 203.941 395.41 204.391 395.73 204.703C396.34 205.297 396.645 206.043 396.645 206.941C396.645 207.902 396.16 208.676 395.191 209.262C394.176 209.879 392.758 210.188 390.938 210.188ZM402.703 194.391C402.703 194.836 402.555 195.18 402.258 195.422C401.969 195.656 401.605 195.773 401.168 195.773C400.73 195.773 400.367 195.656 400.078 195.422C399.797 195.18 399.656 194.836 399.656 194.391C399.656 193.938 399.797 193.594 400.078 193.359C400.367 193.125 400.73 193.008 401.168 193.008C401.605 193.008 401.969 193.125 402.258 193.359C402.555 193.594 402.703 193.938 402.703 194.391ZM399.961 197.906H402.305V210H399.961V197.906ZM410.344 208.148C410.602 208.242 410.992 208.289 411.516 208.289C412.039 208.289 412.477 208.227 412.828 208.102V209.977C412.664 210.016 412.426 210.039 412.113 210.047L411.375 210.07C411.211 210.07 411.086 210.07 411 210.07C409.492 210.07 408.379 209.578 407.66 208.594C407.082 207.797 406.793 206.742 406.793 205.43V199.699H405.059V198.598L406.793 197.906L407.355 194.906H409.137V197.906H412.887V199.699H409.137V205.418C409.137 206.949 409.539 207.859 410.344 208.148ZM415.219 203.93C415.219 202.031 415.824 200.492 417.035 199.312C418.168 198.211 419.57 197.66 421.242 197.66C422.883 197.66 424.254 198.211 425.355 199.312C426.527 200.484 427.113 202.023 427.113 203.93C427.113 205.828 426.523 207.359 425.344 208.523C424.227 209.633 422.855 210.188 421.23 210.188C419.582 210.188 418.184 209.633 417.035 208.523C415.824 207.359 415.219 205.828 415.219 203.93ZM417.656 203.93C417.656 205.93 418.297 207.289 419.578 208.008C420.031 208.258 420.574 208.383 421.207 208.383C421.84 208.383 422.375 208.258 422.812 208.008C423.25 207.75 423.609 207.414 423.891 207C424.414 206.203 424.676 205.18 424.676 203.93C424.676 201.945 424.047 200.586 422.789 199.852C422.352 199.594 421.828 199.465 421.219 199.465C420.609 199.465 420.078 199.594 419.625 199.852C419.18 200.102 418.812 200.434 418.523 200.848C417.945 201.66 417.656 202.688 417.656 203.93ZM437.684 200.051C437.254 199.926 436.738 199.863 436.137 199.863C435.543 199.863 435.055 199.926 434.672 200.051C434.289 200.168 433.953 200.312 433.664 200.484C433.133 200.797 432.746 201.148 432.504 201.539V210H430.16V197.906H432.41L432.504 199.582C433.09 198.848 433.945 198.297 435.07 197.93C435.477 197.789 435.941 197.719 436.465 197.719C436.988 197.719 437.395 197.758 437.684 197.836V200.051ZM455.684 200.051C455.254 199.926 454.738 199.863 454.137 199.863C453.543 199.863 453.055 199.926 452.672 200.051C452.289 200.168 451.953 200.312 451.664 200.484C451.133 200.797 450.746 201.148 450.504 201.539V210H448.16V197.906H450.41L450.504 199.582C451.09 198.848 451.945 198.297 453.07 197.93C453.477 197.789 453.941 197.719 454.465 197.719C454.988 197.719 455.395 197.758 455.684 197.836V200.051ZM463.652 210.188C459.23 210.188 457.02 208.027 457.02 203.707C457.02 201.848 457.633 200.359 458.859 199.242C459.961 198.227 461.219 197.719 462.633 197.719C464.172 197.719 465.375 198.234 466.242 199.266C467.047 200.227 467.449 201.512 467.449 203.121V204.035H459.457C459.457 206.246 460.359 207.598 462.164 208.09C462.594 208.207 463.254 208.266 464.145 208.266C465.043 208.266 465.922 208.145 466.781 207.902V209.883C465.922 210.086 464.879 210.188 463.652 210.188ZM465.105 202.312C465.105 201.562 464.898 200.93 464.484 200.414C464 199.82 463.332 199.523 462.48 199.523C461.582 199.523 460.852 199.809 460.289 200.379C459.773 200.91 459.516 201.555 459.516 202.312H465.105ZM474.375 208.148C474.633 208.242 475.023 208.289 475.547 208.289C476.07 208.289 476.508 208.227 476.859 208.102V209.977C476.695 210.016 476.457 210.039 476.145 210.047L475.406 210.07C475.242 210.07 475.117 210.07 475.031 210.07C473.523 210.07 472.41 209.578 471.691 208.594C471.113 207.797 470.824 206.742 470.824 205.43V199.699H469.09V198.598L470.824 197.906L471.387 194.906H473.168V197.906H476.918V199.699H473.168V205.418C473.168 206.949 473.57 207.859 474.375 208.148ZM485.684 210.188C481.262 210.188 479.051 208.027 479.051 203.707C479.051 201.848 479.664 200.359 480.891 199.242C481.992 198.227 483.25 197.719 484.664 197.719C486.203 197.719 487.406 198.234 488.273 199.266C489.078 200.227 489.48 201.512 489.48 203.121V204.035H481.488C481.488 206.246 482.391 207.598 484.195 208.09C484.625 208.207 485.285 208.266 486.176 208.266C487.074 208.266 487.953 208.145 488.812 207.902V209.883C487.953 210.086 486.91 210.188 485.684 210.188ZM487.137 202.312C487.137 201.562 486.93 200.93 486.516 200.414C486.031 199.82 485.363 199.523 484.512 199.523C483.613 199.523 482.883 199.809 482.32 200.379C481.805 200.91 481.547 201.555 481.547 202.312H487.137ZM497.508 199.734C496.344 199.734 495.309 200.129 494.402 200.918V210H492.059V197.906H494.227L494.391 199.219C495.664 198.219 496.98 197.719 498.34 197.719C499.777 197.719 500.832 198.148 501.504 199.008C502.207 199.914 502.559 201.375 502.559 203.391V210H500.215V203.391C500.215 201.453 499.691 200.297 498.645 199.922C498.309 199.797 497.93 199.734 497.508 199.734ZM510.422 208.148C510.68 208.242 511.07 208.289 511.594 208.289C512.117 208.289 512.555 208.227 512.906 208.102V209.977C512.742 210.016 512.504 210.039 512.191 210.047L511.453 210.07C511.289 210.07 511.164 210.07 511.078 210.07C509.57 210.07 508.457 209.578 507.738 208.594C507.16 207.797 506.871 206.742 506.871 205.43V199.699H505.137V198.598L506.871 197.906L507.434 194.906H509.215V197.906H512.965V199.699H509.215V205.418C509.215 206.949 509.617 207.859 510.422 208.148ZM518.812 194.391C518.812 194.836 518.664 195.18 518.367 195.422C518.078 195.656 517.715 195.773 517.277 195.773C516.84 195.773 516.477 195.656 516.188 195.422C515.906 195.18 515.766 194.836 515.766 194.391C515.766 193.938 515.906 193.594 516.188 193.359C516.477 193.125 516.84 193.008 517.277 193.008C517.715 193.008 518.078 193.125 518.367 193.359C518.664 193.594 518.812 193.938 518.812 194.391ZM516.07 197.906H518.414V210H516.07V197.906ZM521.32 203.93C521.32 202.031 521.926 200.492 523.137 199.312C524.27 198.211 525.672 197.66 527.344 197.66C528.984 197.66 530.355 198.211 531.457 199.312C532.629 200.484 533.215 202.023 533.215 203.93C533.215 205.828 532.625 207.359 531.445 208.523C530.328 209.633 528.957 210.188 527.332 210.188C525.684 210.188 524.285 209.633 523.137 208.523C521.926 207.359 521.32 205.828 521.32 203.93ZM523.758 203.93C523.758 205.93 524.398 207.289 525.68 208.008C526.133 208.258 526.676 208.383 527.309 208.383C527.941 208.383 528.477 208.258 528.914 208.008C529.352 207.75 529.711 207.414 529.992 207C530.516 206.203 530.777 205.18 530.777 203.93C530.777 201.945 530.148 200.586 528.891 199.852C528.453 199.594 527.93 199.465 527.32 199.465C526.711 199.465 526.18 199.594 525.727 199.852C525.281 200.102 524.914 200.434 524.625 200.848C524.047 201.66 523.758 202.688 523.758 203.93ZM541.547 199.734C540.383 199.734 539.348 200.129 538.441 200.918V210H536.098V197.906H538.266L538.43 199.219C539.703 198.219 541.02 197.719 542.379 197.719C543.816 197.719 544.871 198.148 545.543 199.008C546.246 199.914 546.598 201.375 546.598 203.391V210H544.254V203.391C544.254 201.453 543.73 200.297 542.684 199.922C542.348 199.797 541.969 199.734 541.547 199.734ZM44.3555 237.844C44.0977 237.398 43.8906 236.875 43.7344 236.273C43.5859 235.672 43.5117 234.887 43.5117 233.918C43.5117 232.949 43.7188 232.059 44.1328 231.246C44.5547 230.426 45.1016 229.754 45.7734 229.23C47.0781 228.223 48.6992 227.719 50.6367 227.719C51.6445 227.719 52.4062 227.742 52.9219 227.789C52.9219 227.789 53.3008 227.828 54.0586 227.906V240H51.9492L51.8555 238.605C51.3867 239.23 50.6719 239.695 49.7109 240C49.3438 240.117 48.9648 240.176 48.5742 240.176C48.1914 240.176 47.8125 240.137 47.4375 240.059C47.0625 239.98 46.6875 239.852 46.3125 239.672C45.9453 239.492 45.5938 239.254 45.2578 238.957C44.9219 238.652 44.6211 238.281 44.3555 237.844ZM51.7148 229.629C51.2148 229.566 50.7148 229.535 50.2148 229.535C49.7227 229.535 49.1953 229.625 48.6328 229.805C48.0703 229.977 47.5898 230.25 47.1914 230.625C46.3633 231.406 45.9492 232.598 45.9492 234.199C45.9492 235.715 46.3047 236.836 47.0156 237.562C47.5547 238.102 48.2031 238.371 48.9609 238.371C49.9375 238.371 50.7422 238.016 51.375 237.305C51.5312 237.125 51.6445 236.965 51.7148 236.824V229.629ZM63.2578 229.734C62.0938 229.734 61.0586 230.129 60.1523 230.918V240H57.8086V227.906H59.9766L60.1406 229.219C61.4141 228.219 62.7305 227.719 64.0898 227.719C65.5273 227.719 66.582 228.148 67.2539 229.008C67.957 229.914 68.3086 231.375 68.3086 233.391V240H65.9648V233.391C65.9648 231.453 65.4414 230.297 64.3945 229.922C64.0586 229.797 63.6797 229.734 63.2578 229.734ZM73.6523 229.23C74.332 228.707 75.0938 228.324 75.9375 228.082C76.7891 227.84 77.5312 227.719 78.1641 227.719C78.7969 227.719 79.2852 227.734 79.6289 227.766V222.562H81.9609V240H79.8633L79.7695 238.605C79.293 239.238 78.5703 239.707 77.6016 240.012C77.2266 240.129 76.8438 240.188 76.4531 240.188C76.0703 240.188 75.6914 240.148 75.3164 240.07C74.9414 239.992 74.5664 239.863 74.1914 239.684C73.8242 239.496 73.4727 239.254 73.1367 238.957C72.8008 238.652 72.5 238.281 72.2344 237.844C71.6719 236.883 71.3906 235.746 71.3906 234.434C71.3906 233.121 71.5977 232.059 72.0117 231.246C72.4336 230.426 72.9805 229.754 73.6523 229.23ZM75.0703 230.625C74.6719 231 74.3633 231.484 74.1445 232.078C73.9336 232.664 73.8281 233.379 73.8281 234.223C73.8281 235.059 73.9297 235.75 74.1328 236.297C74.3359 236.836 74.5898 237.258 74.8945 237.562C75.4336 238.109 76.082 238.383 76.8398 238.383C77.8164 238.383 78.625 238.023 79.2656 237.305C79.4297 237.125 79.5469 236.965 79.6172 236.824V229.617L79.3828 229.594C79.0234 229.547 78.5938 229.523 78.0938 229.523C77.6016 229.523 77.0742 229.613 76.5117 229.793C75.9492 229.965 75.4688 230.242 75.0703 230.625ZM102.492 239.965C102.023 240.113 101.211 240.188 100.055 240.188C98.8984 240.188 97.9141 240.047 97.1016 239.766C96.2969 239.484 95.6094 239.07 95.0391 238.523C93.8594 237.391 93.2695 235.82 93.2695 233.812C93.2695 231.867 93.9766 230.336 95.3906 229.219C96.6562 228.219 98.2109 227.719 100.055 227.719C101.195 227.719 101.977 227.758 102.398 227.836V229.922C101.742 229.711 100.992 229.605 100.148 229.605C99.3125 229.605 98.6172 229.723 98.0625 229.957C97.5078 230.184 97.0547 230.492 96.7031 230.883C96.0391 231.625 95.707 232.602 95.707 233.812C95.707 235.859 96.4453 237.223 97.9219 237.902C98.4453 238.145 98.957 238.266 99.457 238.266C99.957 238.266 100.34 238.254 100.605 238.23C100.879 238.207 101.137 238.176 101.379 238.137C101.895 238.051 102.266 237.961 102.492 237.867V239.965ZM105 233.93C105 232.031 105.605 230.492 106.816 229.312C107.949 228.211 109.352 227.66 111.023 227.66C112.664 227.66 114.035 228.211 115.137 229.312C116.309 230.484 116.895 232.023 116.895 233.93C116.895 235.828 116.305 237.359 115.125 238.523C114.008 239.633 112.637 240.188 111.012 240.188C109.363 240.188 107.965 239.633 106.816 238.523C105.605 237.359 105 235.828 105 233.93ZM107.438 233.93C107.438 235.93 108.078 237.289 109.359 238.008C109.812 238.258 110.355 238.383 110.988 238.383C111.621 238.383 112.156 238.258 112.594 238.008C113.031 237.75 113.391 237.414 113.672 237C114.195 236.203 114.457 235.18 114.457 233.93C114.457 231.945 113.828 230.586 112.57 229.852C112.133 229.594 111.609 229.465 111 229.465C110.391 229.465 109.859 229.594 109.406 229.852C108.961 230.102 108.594 230.434 108.305 230.848C107.727 231.66 107.438 232.688 107.438 233.93ZM125.227 229.734C124.062 229.734 123.027 230.129 122.121 230.918V240H119.777V227.906H121.945L122.109 229.219C123.383 228.219 124.699 227.719 126.059 227.719C127.496 227.719 128.551 228.148 129.223 229.008C129.926 229.914 130.277 231.375 130.277 233.391V240H127.934V233.391C127.934 231.453 127.41 230.297 126.363 229.922C126.027 229.797 125.648 229.734 125.227 229.734ZM132.141 227.906H134.66L137.953 237.715L141.258 227.906H143.766L139.137 240H136.781L132.141 227.906ZM151.418 240.188C146.996 240.188 144.785 238.027 144.785 233.707C144.785 231.848 145.398 230.359 146.625 229.242C147.727 228.227 148.984 227.719 150.398 227.719C151.938 227.719 153.141 228.234 154.008 229.266C154.812 230.227 155.215 231.512 155.215 233.121V234.035H147.223C147.223 236.246 148.125 237.598 149.93 238.09C150.359 238.207 151.02 238.266 151.91 238.266C152.809 238.266 153.688 238.145 154.547 237.902V239.883C153.688 240.086 152.645 240.188 151.418 240.188ZM152.871 232.312C152.871 231.562 152.664 230.93 152.25 230.414C151.766 229.82 151.098 229.523 150.246 229.523C149.348 229.523 148.617 229.809 148.055 230.379C147.539 230.91 147.281 231.555 147.281 232.312H152.871ZM165.48 230.051C165.051 229.926 164.535 229.863 163.934 229.863C163.34 229.863 162.852 229.926 162.469 230.051C162.086 230.168 161.75 230.312 161.461 230.484C160.93 230.797 160.543 231.148 160.301 231.539V240H157.957V227.906H160.207L160.301 229.582C160.887 228.848 161.742 228.297 162.867 227.93C163.273 227.789 163.738 227.719 164.262 227.719C164.785 227.719 165.191 227.758 165.48 227.836V230.051ZM170.766 240.188C169.789 240.188 168.801 240.117 167.801 239.977V237.902C168.816 238.145 169.848 238.266 170.895 238.266C172.988 238.266 174.035 237.824 174.035 236.941C174.035 236.605 173.953 236.355 173.789 236.191C173.547 235.934 173.164 235.676 172.641 235.418L170.93 234.633C169.82 234.078 169.102 233.633 168.773 233.297C168.156 232.672 167.848 231.93 167.848 231.07C167.848 230.102 168.297 229.312 169.195 228.703C170.164 228.047 171.523 227.719 173.273 227.719C174.156 227.719 175.047 227.781 175.945 227.906V229.91C174.961 229.73 174.102 229.641 173.367 229.641C172.641 229.641 172.074 229.688 171.668 229.781C171.27 229.875 170.969 229.992 170.766 230.133C170.445 230.352 170.285 230.637 170.285 230.988C170.285 231.332 170.395 231.613 170.613 231.832C170.84 232.043 171.191 232.273 171.668 232.523L173.391 233.355C174.516 233.941 175.238 234.391 175.559 234.703C176.168 235.297 176.473 236.043 176.473 236.941C176.473 237.902 175.988 238.676 175.02 239.262C174.004 239.879 172.586 240.188 170.766 240.188ZM182.531 224.391C182.531 224.836 182.383 225.18 182.086 225.422C181.797 225.656 181.434 225.773 180.996 225.773C180.559 225.773 180.195 225.656 179.906 225.422C179.625 225.18 179.484 224.836 179.484 224.391C179.484 223.938 179.625 223.594 179.906 223.359C180.195 223.125 180.559 223.008 180.996 223.008C181.434 223.008 181.797 223.125 182.086 223.359C182.383 223.594 182.531 223.938 182.531 224.391ZM179.789 227.906H182.133V240H179.789V227.906ZM185.039 233.93C185.039 232.031 185.645 230.492 186.855 229.312C187.988 228.211 189.391 227.66 191.062 227.66C192.703 227.66 194.074 228.211 195.176 229.312C196.348 230.484 196.934 232.023 196.934 233.93C196.934 235.828 196.344 237.359 195.164 238.523C194.047 239.633 192.676 240.188 191.051 240.188C189.402 240.188 188.004 239.633 186.855 238.523C185.645 237.359 185.039 235.828 185.039 233.93ZM187.477 233.93C187.477 235.93 188.117 237.289 189.398 238.008C189.852 238.258 190.395 238.383 191.027 238.383C191.66 238.383 192.195 238.258 192.633 238.008C193.07 237.75 193.43 237.414 193.711 237C194.234 236.203 194.496 235.18 194.496 233.93C194.496 231.945 193.867 230.586 192.609 229.852C192.172 229.594 191.648 229.465 191.039 229.465C190.43 229.465 189.898 229.594 189.445 229.852C189 230.102 188.633 230.434 188.344 230.848C187.766 231.66 187.477 232.688 187.477 233.93ZM205.266 229.734C204.102 229.734 203.066 230.129 202.16 230.918V240H199.816V227.906H201.984L202.148 229.219C203.422 228.219 204.738 227.719 206.098 227.719C207.535 227.719 208.59 228.148 209.262 229.008C209.965 229.914 210.316 231.375 210.316 233.391V240H207.973V233.391C207.973 231.453 207.449 230.297 206.402 229.922C206.066 229.797 205.688 229.734 205.266 229.734ZM216.797 240.188C215.82 240.188 214.832 240.117 213.832 239.977V237.902C214.848 238.145 215.879 238.266 216.926 238.266C219.02 238.266 220.066 237.824 220.066 236.941C220.066 236.605 219.984 236.355 219.82 236.191C219.578 235.934 219.195 235.676 218.672 235.418L216.961 234.633C215.852 234.078 215.133 233.633 214.805 233.297C214.188 232.672 213.879 231.93 213.879 231.07C213.879 230.102 214.328 229.312 215.227 228.703C216.195 228.047 217.555 227.719 219.305 227.719C220.188 227.719 221.078 227.781 221.977 227.906V229.91C220.992 229.73 220.133 229.641 219.398 229.641C218.672 229.641 218.105 229.688 217.699 229.781C217.301 229.875 217 229.992 216.797 230.133C216.477 230.352 216.316 230.637 216.316 230.988C216.316 231.332 216.426 231.613 216.645 231.832C216.871 232.043 217.223 232.273 217.699 232.523L219.422 233.355C220.547 233.941 221.27 234.391 221.59 234.703C222.199 235.297 222.504 236.043 222.504 236.941C222.504 237.902 222.02 238.676 221.051 239.262C220.035 239.879 218.617 240.188 216.797 240.188ZM232.195 227.906H234.691L237.797 237.516L240.938 227.906H243.375L246.551 237.48L249.504 227.906H251.824L247.758 240H245.344L242.086 230.836L239.004 240H236.59L232.195 227.906ZM256.57 224.391C256.57 224.836 256.422 225.18 256.125 225.422C255.836 225.656 255.473 225.773 255.035 225.773C254.598 225.773 254.234 225.656 253.945 225.422C253.664 225.18 253.523 224.836 253.523 224.391C253.523 223.938 253.664 223.594 253.945 223.359C254.234 223.125 254.598 223.008 255.035 223.008C255.473 223.008 255.836 223.125 256.125 223.359C256.422 223.594 256.57 223.938 256.57 224.391ZM253.828 227.906H256.172V240H253.828V227.906ZM264.211 238.148C264.469 238.242 264.859 238.289 265.383 238.289C265.906 238.289 266.344 238.227 266.695 238.102V239.977C266.531 240.016 266.293 240.039 265.98 240.047L265.242 240.07C265.078 240.07 264.953 240.07 264.867 240.07C263.359 240.07 262.246 239.578 261.527 238.594C260.949 237.797 260.66 236.742 260.66 235.43V229.699H258.926V228.598L260.66 227.906L261.223 224.906H263.004V227.906H266.754V229.699H263.004V235.418C263.004 236.949 263.406 237.859 264.211 238.148ZM275.309 229.734C274.152 229.734 273.121 230.129 272.215 230.918V240H269.871V222.562H272.215V229.207C273.48 228.215 274.789 227.719 276.141 227.719C277.586 227.719 278.645 228.148 279.316 229.008C280.02 229.914 280.371 231.375 280.371 233.391V240H278.027V233.391C278.027 231.453 277.5 230.297 276.445 229.922C276.109 229.797 275.73 229.734 275.309 229.734ZM291.07 233.93C291.07 232.031 291.676 230.492 292.887 229.312C294.02 228.211 295.422 227.66 297.094 227.66C298.734 227.66 300.105 228.211 301.207 229.312C302.379 230.484 302.965 232.023 302.965 233.93C302.965 235.828 302.375 237.359 301.195 238.523C300.078 239.633 298.707 240.188 297.082 240.188C295.434 240.188 294.035 239.633 292.887 238.523C291.676 237.359 291.07 235.828 291.07 233.93ZM293.508 233.93C293.508 235.93 294.148 237.289 295.43 238.008C295.883 238.258 296.426 238.383 297.059 238.383C297.691 238.383 298.227 238.258 298.664 238.008C299.102 237.75 299.461 237.414 299.742 237C300.266 236.203 300.527 235.18 300.527 233.93C300.527 231.945 299.898 230.586 298.641 229.852C298.203 229.594 297.68 229.465 297.07 229.465C296.461 229.465 295.93 229.594 295.477 229.852C295.031 230.102 294.664 230.434 294.375 230.848C293.797 231.66 293.508 232.688 293.508 233.93ZM313.734 237.035V227.906H316.078V240H313.969L313.758 238.723C312.602 239.699 311.324 240.188 309.926 240.188C308.441 240.188 307.391 239.777 306.773 238.957C306.133 238.121 305.812 236.68 305.812 234.633V227.906H308.156V234.516C308.156 235.961 308.363 236.945 308.777 237.469C309.145 237.938 309.844 238.172 310.875 238.172C311.914 238.172 312.867 237.793 313.734 237.035ZM327.551 230.051C327.121 229.926 326.605 229.863 326.004 229.863C325.41 229.863 324.922 229.926 324.539 230.051C324.156 230.168 323.82 230.312 323.531 230.484C323 230.797 322.613 231.148 322.371 231.539V240H320.027V227.906H322.277L322.371 229.582C322.957 228.848 323.812 228.297 324.938 227.93C325.344 227.789 325.809 227.719 326.332 227.719C326.855 227.719 327.262 227.758 327.551 227.836V230.051ZM346.547 239.965C346.078 240.113 345.266 240.188 344.109 240.188C342.953 240.188 341.969 240.047 341.156 239.766C340.352 239.484 339.664 239.07 339.094 238.523C337.914 237.391 337.324 235.82 337.324 233.812C337.324 231.867 338.031 230.336 339.445 229.219C340.711 228.219 342.266 227.719 344.109 227.719C345.25 227.719 346.031 227.758 346.453 227.836V229.922C345.797 229.711 345.047 229.605 344.203 229.605C343.367 229.605 342.672 229.723 342.117 229.957C341.562 230.184 341.109 230.492 340.758 230.883C340.094 231.625 339.762 232.602 339.762 233.812C339.762 235.859 340.5 237.223 341.977 237.902C342.5 238.145 343.012 238.266 343.512 238.266C344.012 238.266 344.395 238.254 344.66 238.23C344.934 238.207 345.191 238.176 345.434 238.137C345.949 238.051 346.32 237.961 346.547 237.867V239.965ZM357.727 237.035V227.906H360.07V240H357.961L357.75 238.723C356.594 239.699 355.316 240.188 353.918 240.188C352.434 240.188 351.383 239.777 350.766 238.957C350.125 238.121 349.805 236.68 349.805 234.633V227.906H352.148V234.516C352.148 235.961 352.355 236.945 352.77 237.469C353.137 237.938 353.836 238.172 354.867 238.172C355.906 238.172 356.859 237.793 357.727 237.035ZM366.82 240.188C365.844 240.188 364.855 240.117 363.855 239.977V237.902C364.871 238.145 365.902 238.266 366.949 238.266C369.043 238.266 370.09 237.824 370.09 236.941C370.09 236.605 370.008 236.355 369.844 236.191C369.602 235.934 369.219 235.676 368.695 235.418L366.984 234.633C365.875 234.078 365.156 233.633 364.828 233.297C364.211 232.672 363.902 231.93 363.902 231.07C363.902 230.102 364.352 229.312 365.25 228.703C366.219 228.047 367.578 227.719 369.328 227.719C370.211 227.719 371.102 227.781 372 227.906V229.91C371.016 229.73 370.156 229.641 369.422 229.641C368.695 229.641 368.129 229.688 367.723 229.781C367.324 229.875 367.023 229.992 366.82 230.133C366.5 230.352 366.34 230.637 366.34 230.988C366.34 231.332 366.449 231.613 366.668 231.832C366.895 232.043 367.246 232.273 367.723 232.523L369.445 233.355C370.57 233.941 371.293 234.391 371.613 234.703C372.223 235.297 372.527 236.043 372.527 236.941C372.527 237.902 372.043 238.676 371.074 239.262C370.059 239.879 368.641 240.188 366.82 240.188ZM380.203 238.148C380.461 238.242 380.852 238.289 381.375 238.289C381.898 238.289 382.336 238.227 382.688 238.102V239.977C382.523 240.016 382.285 240.039 381.973 240.047L381.234 240.07C381.07 240.07 380.945 240.07 380.859 240.07C379.352 240.07 378.238 239.578 377.52 238.594C376.941 237.797 376.652 236.742 376.652 235.43V229.699H374.918V228.598L376.652 227.906L377.215 224.906H378.996V227.906H382.746V229.699H378.996V235.418C378.996 236.949 379.398 237.859 380.203 238.148ZM385.078 233.93C385.078 232.031 385.684 230.492 386.895 229.312C388.027 228.211 389.43 227.66 391.102 227.66C392.742 227.66 394.113 228.211 395.215 229.312C396.387 230.484 396.973 232.023 396.973 233.93C396.973 235.828 396.383 237.359 395.203 238.523C394.086 239.633 392.715 240.188 391.09 240.188C389.441 240.188 388.043 239.633 386.895 238.523C385.684 237.359 385.078 235.828 385.078 233.93ZM387.516 233.93C387.516 235.93 388.156 237.289 389.438 238.008C389.891 238.258 390.434 238.383 391.066 238.383C391.699 238.383 392.234 238.258 392.672 238.008C393.109 237.75 393.469 237.414 393.75 237C394.273 236.203 394.535 235.18 394.535 233.93C394.535 231.945 393.906 230.586 392.648 229.852C392.211 229.594 391.688 229.465 391.078 229.465C390.469 229.465 389.938 229.594 389.484 229.852C389.039 230.102 388.672 230.434 388.383 230.848C387.805 231.66 387.516 232.688 387.516 233.93ZM402.246 230.918L402.258 240H399.914V227.906H402.07L402.234 229.23C403.094 228.512 404.094 228.043 405.234 227.824C405.602 227.754 405.961 227.719 406.312 227.719C407.773 227.719 408.875 228.336 409.617 229.57C410.977 228.336 412.398 227.719 413.883 227.719C415.352 227.719 416.422 228.16 417.094 229.043C417.766 229.941 418.102 231.426 418.102 233.496V240H415.758V233.578C415.758 231.547 415.27 230.332 414.293 229.934C413.965 229.801 413.582 229.734 413.145 229.734C412.098 229.734 411.137 230.109 410.262 230.859V240H407.918V233.484C407.918 232.094 407.711 231.117 407.297 230.555C406.898 230.008 406.184 229.734 405.152 229.734C404.129 229.734 403.16 230.129 402.246 230.918ZM422.039 232.125H430.008V233.93H422.039V232.125ZM442.301 238.652C441.629 239.176 440.867 239.562 440.016 239.812C439.172 240.055 438.258 240.176 437.273 240.176C436.297 240.176 435.203 240.117 433.992 240V222.562H436.336V229.113C436.852 228.527 437.566 228.109 438.48 227.859C438.824 227.766 439.176 227.719 439.535 227.719C439.902 227.719 440.273 227.758 440.648 227.836C441.023 227.906 441.395 228.031 441.762 228.211C442.137 228.391 442.492 228.629 442.828 228.926C443.164 229.223 443.461 229.594 443.719 230.039C444.289 230.992 444.574 232.125 444.574 233.438C444.574 234.742 444.363 235.805 443.941 236.625C443.527 237.445 442.98 238.121 442.301 238.652ZM436.348 238.277C436.566 238.34 436.996 238.371 437.637 238.371C438.277 238.371 438.879 238.281 439.441 238.102C440.004 237.922 440.484 237.641 440.883 237.258C441.719 236.453 442.137 235.254 442.137 233.66C442.137 231.715 441.57 230.441 440.438 229.84C440.031 229.629 439.617 229.523 439.195 229.523C438.773 229.523 438.406 229.578 438.094 229.688C437.781 229.797 437.508 229.93 437.273 230.086C436.828 230.391 436.52 230.719 436.348 231.07V238.277ZM455.695 237.035V227.906H458.039V240H455.93L455.719 238.723C454.562 239.699 453.285 240.188 451.887 240.188C450.402 240.188 449.352 239.777 448.734 238.957C448.094 238.121 447.773 236.68 447.773 234.633V227.906H450.117V234.516C450.117 235.961 450.324 236.945 450.738 237.469C451.105 237.938 451.805 238.172 452.836 238.172C453.875 238.172 454.828 237.793 455.695 237.035ZM464.555 224.391C464.555 224.836 464.406 225.18 464.109 225.422C463.82 225.656 463.457 225.773 463.02 225.773C462.582 225.773 462.219 225.656 461.93 225.422C461.648 225.18 461.508 224.836 461.508 224.391C461.508 223.938 461.648 223.594 461.93 223.359C462.219 223.125 462.582 223.008 463.02 223.008C463.457 223.008 463.82 223.125 464.109 223.359C464.406 223.594 464.555 223.938 464.555 224.391ZM461.812 227.906H464.156V240H461.812V227.906ZM468.352 222.562H470.695V235.418C470.695 236.965 471.047 237.875 471.75 238.148C471.984 238.242 472.234 238.289 472.5 238.289C472.766 238.289 473.004 238.258 473.215 238.195V240L472.781 240.047C472.641 240.062 472.504 240.07 472.371 240.07C470.871 240.07 469.789 239.578 469.125 238.594C468.609 237.82 468.352 236.766 468.352 235.43V222.562ZM480.211 238.148C480.469 238.242 480.859 238.289 481.383 238.289C481.906 238.289 482.344 238.227 482.695 238.102V239.977C482.531 240.016 482.293 240.039 481.98 240.047L481.242 240.07C481.078 240.07 480.953 240.07 480.867 240.07C479.359 240.07 478.246 239.578 477.527 238.594C476.949 237.797 476.66 236.742 476.66 235.43V229.699H474.926V228.598L476.66 227.906L477.223 224.906H479.004V227.906H482.754V229.699H479.004V235.418C479.004 236.949 479.406 237.859 480.211 238.148ZM492.07 223.688H494.508L497.66 235.195L498.117 237.223L498.633 235.195L501.938 223.688H504.188L507.457 235.195L507.984 237.305L508.488 235.195L511.664 223.688H514.008L509.062 240H506.812L503.379 228.516L502.992 227.051L502.617 228.516L499.219 240H496.969L492.07 223.688ZM516.047 223.688H520.676C523.762 223.688 525.75 224.602 526.641 226.43C526.961 227.102 527.121 227.898 527.121 228.82C527.121 229.742 526.957 230.531 526.629 231.188C526.301 231.844 525.859 232.383 525.305 232.805C524.227 233.617 522.785 234.023 520.98 234.023H518.391V240H516.047V223.688ZM520.523 232.148C521.938 232.148 522.984 231.875 523.664 231.328C524.344 230.781 524.684 229.93 524.684 228.773C524.684 227.234 523.969 226.242 522.539 225.797C522.039 225.641 521.434 225.562 520.723 225.562H518.391V232.148H520.523ZM43.0312 263.93C43.0312 262.031 43.6367 260.492 44.8477 259.312C45.9805 258.211 47.3828 257.66 49.0547 257.66C50.6953 257.66 52.0664 258.211 53.168 259.312C54.3398 260.484 54.9258 262.023 54.9258 263.93C54.9258 265.828 54.3359 267.359 53.1562 268.523C52.0391 269.633 50.668 270.188 49.043 270.188C47.3945 270.188 45.9961 269.633 44.8477 268.523C43.6367 267.359 43.0312 265.828 43.0312 263.93ZM45.4688 263.93C45.4688 265.93 46.1094 267.289 47.3906 268.008C47.8438 268.258 48.3867 268.383 49.0195 268.383C49.6523 268.383 50.1875 268.258 50.625 268.008C51.0625 267.75 51.4219 267.414 51.7031 267C52.2266 266.203 52.4883 265.18 52.4883 263.93C52.4883 261.945 51.8594 260.586 50.6016 259.852C50.1641 259.594 49.6406 259.465 49.0312 259.465C48.4219 259.465 47.8906 259.594 47.4375 259.852C46.9922 260.102 46.625 260.434 46.3359 260.848C45.7578 261.66 45.4688 262.688 45.4688 263.93ZM60.3281 274.688H57.9844V257.906H60.0938L60.1875 259.289C60.6562 258.664 61.375 258.199 62.3438 257.895C62.7188 257.777 63.0977 257.719 63.4805 257.719C63.8711 257.719 64.2539 257.762 64.6289 257.848C65.0039 257.926 65.375 258.059 65.7422 258.246C66.1094 258.426 66.4609 258.668 66.7969 258.973C67.1328 259.27 67.4297 259.641 67.6875 260.086C68.25 261.047 68.5312 262.238 68.5312 263.66C68.5312 265.832 67.7812 267.492 66.2812 268.641C64.9531 269.664 63.3359 270.176 61.4297 270.176H60.8438C60.6562 270.176 60.4844 270.172 60.3281 270.164V274.688ZM60.3281 268.266C60.5469 268.328 60.9766 268.359 61.6172 268.359C62.2578 268.359 62.8594 268.27 63.4219 268.09C63.9844 267.91 64.4609 267.633 64.8516 267.258C65.6797 266.461 66.0938 265.262 66.0938 263.66C66.0938 262.152 65.7344 261.039 65.0156 260.32C64.4844 259.789 63.8359 259.523 63.0703 259.523C62.1094 259.523 61.3125 259.879 60.6797 260.59C60.5156 260.77 60.3984 260.93 60.3281 261.07V268.266ZM76.1719 268.148C76.4297 268.242 76.8203 268.289 77.3438 268.289C77.8672 268.289 78.3047 268.227 78.6562 268.102V269.977C78.4922 270.016 78.2539 270.039 77.9414 270.047L77.2031 270.07C77.0391 270.07 76.9141 270.07 76.8281 270.07C75.3203 270.07 74.207 269.578 73.4883 268.594C72.9102 267.797 72.6211 266.742 72.6211 265.43V259.699H70.8867V258.598L72.6211 257.906L73.1836 254.906H74.9648V257.906H78.7148V259.699H74.9648V265.418C74.9648 266.949 75.3672 267.859 76.1719 268.148ZM84.5625 254.391C84.5625 254.836 84.4141 255.18 84.1172 255.422C83.8281 255.656 83.4648 255.773 83.0273 255.773C82.5898 255.773 82.2266 255.656 81.9375 255.422C81.6562 255.18 81.5156 254.836 81.5156 254.391C81.5156 253.938 81.6562 253.594 81.9375 253.359C82.2266 253.125 82.5898 253.008 83.0273 253.008C83.4648 253.008 83.8281 253.125 84.1172 253.359C84.4141 253.594 84.5625 253.938 84.5625 254.391ZM81.8203 257.906H84.1641V270H81.8203V257.906ZM90.2461 260.918L90.2578 270H87.9141V257.906H90.0703L90.2344 259.23C91.0938 258.512 92.0938 258.043 93.2344 257.824C93.6016 257.754 93.9609 257.719 94.3125 257.719C95.7734 257.719 96.875 258.336 97.6172 259.57C98.9766 258.336 100.398 257.719 101.883 257.719C103.352 257.719 104.422 258.16 105.094 259.043C105.766 259.941 106.102 261.426 106.102 263.496V270H103.758V263.578C103.758 261.547 103.27 260.332 102.293 259.934C101.965 259.801 101.582 259.734 101.145 259.734C100.098 259.734 99.1367 260.109 98.2617 260.859V270H95.918V263.484C95.918 262.094 95.7109 261.117 95.2969 260.555C94.8984 260.008 94.1836 259.734 93.1523 259.734C92.1289 259.734 91.1602 260.129 90.2461 260.918ZM112.594 254.391C112.594 254.836 112.445 255.18 112.148 255.422C111.859 255.656 111.496 255.773 111.059 255.773C110.621 255.773 110.258 255.656 109.969 255.422C109.688 255.18 109.547 254.836 109.547 254.391C109.547 253.938 109.688 253.594 109.969 253.359C110.258 253.125 110.621 253.008 111.059 253.008C111.496 253.008 111.859 253.125 112.148 253.359C112.445 253.594 112.594 253.938 112.594 254.391ZM109.852 257.906H112.195V270H109.852V257.906ZM115.113 268.641L122.145 259.781H115.547V257.906H125.145V259.266L118.008 268.125H125.402V270H115.113V268.641ZM128.449 267.844C128.191 267.398 127.984 266.875 127.828 266.273C127.68 265.672 127.605 264.887 127.605 263.918C127.605 262.949 127.812 262.059 128.227 261.246C128.648 260.426 129.195 259.754 129.867 259.23C131.172 258.223 132.793 257.719 134.73 257.719C135.738 257.719 136.5 257.742 137.016 257.789C137.016 257.789 137.395 257.828 138.152 257.906V270H136.043L135.949 268.605C135.48 269.23 134.766 269.695 133.805 270C133.438 270.117 133.059 270.176 132.668 270.176C132.285 270.176 131.906 270.137 131.531 270.059C131.156 269.98 130.781 269.852 130.406 269.672C130.039 269.492 129.688 269.254 129.352 268.957C129.016 268.652 128.715 268.281 128.449 267.844ZM135.809 259.629C135.309 259.566 134.809 259.535 134.309 259.535C133.816 259.535 133.289 259.625 132.727 259.805C132.164 259.977 131.684 260.25 131.285 260.625C130.457 261.406 130.043 262.598 130.043 264.199C130.043 265.715 130.398 266.836 131.109 267.562C131.648 268.102 132.297 268.371 133.055 268.371C134.031 268.371 134.836 268.016 135.469 267.305C135.625 267.125 135.738 266.965 135.809 266.824V259.629ZM146.25 268.148C146.508 268.242 146.898 268.289 147.422 268.289C147.945 268.289 148.383 268.227 148.734 268.102V269.977C148.57 270.016 148.332 270.039 148.02 270.047L147.281 270.07C147.117 270.07 146.992 270.07 146.906 270.07C145.398 270.07 144.285 269.578 143.566 268.594C142.988 267.797 142.699 266.742 142.699 265.43V259.699H140.965V258.598L142.699 257.906L143.262 254.906H145.043V257.906H148.793V259.699H145.043V265.418C145.043 266.949 145.445 267.859 146.25 268.148ZM154.641 254.391C154.641 254.836 154.492 255.18 154.195 255.422C153.906 255.656 153.543 255.773 153.105 255.773C152.668 255.773 152.305 255.656 152.016 255.422C151.734 255.18 151.594 254.836 151.594 254.391C151.594 253.938 151.734 253.594 152.016 253.359C152.305 253.125 152.668 253.008 153.105 253.008C153.543 253.008 153.906 253.125 154.195 253.359C154.492 253.594 154.641 253.938 154.641 254.391ZM151.898 257.906H154.242V270H151.898V257.906ZM157.148 263.93C157.148 262.031 157.754 260.492 158.965 259.312C160.098 258.211 161.5 257.66 163.172 257.66C164.812 257.66 166.184 258.211 167.285 259.312C168.457 260.484 169.043 262.023 169.043 263.93C169.043 265.828 168.453 267.359 167.273 268.523C166.156 269.633 164.785 270.188 163.16 270.188C161.512 270.188 160.113 269.633 158.965 268.523C157.754 267.359 157.148 265.828 157.148 263.93ZM159.586 263.93C159.586 265.93 160.227 267.289 161.508 268.008C161.961 268.258 162.504 268.383 163.137 268.383C163.77 268.383 164.305 268.258 164.742 268.008C165.18 267.75 165.539 267.414 165.82 267C166.344 266.203 166.605 265.18 166.605 263.93C166.605 261.945 165.977 260.586 164.719 259.852C164.281 259.594 163.758 259.465 163.148 259.465C162.539 259.465 162.008 259.594 161.555 259.852C161.109 260.102 160.742 260.434 160.453 260.848C159.875 261.66 159.586 262.688 159.586 263.93ZM177.375 259.734C176.211 259.734 175.176 260.129 174.27 260.918V270H171.926V257.906H174.094L174.258 259.219C175.531 258.219 176.848 257.719 178.207 257.719C179.645 257.719 180.699 258.148 181.371 259.008C182.074 259.914 182.426 261.375 182.426 263.391V270H180.082V263.391C180.082 261.453 179.559 260.297 178.512 259.922C178.176 259.797 177.797 259.734 177.375 259.734ZM196.898 270.188C195.922 270.188 194.934 270.117 193.934 269.977V267.902C194.949 268.145 195.98 268.266 197.027 268.266C199.121 268.266 200.168 267.824 200.168 266.941C200.168 266.605 200.086 266.355 199.922 266.191C199.68 265.934 199.297 265.676 198.773 265.418L197.062 264.633C195.953 264.078 195.234 263.633 194.906 263.297C194.289 262.672 193.98 261.93 193.98 261.07C193.98 260.102 194.43 259.312 195.328 258.703C196.297 258.047 197.656 257.719 199.406 257.719C200.289 257.719 201.18 257.781 202.078 257.906V259.91C201.094 259.73 200.234 259.641 199.5 259.641C198.773 259.641 198.207 259.688 197.801 259.781C197.402 259.875 197.102 259.992 196.898 260.133C196.578 260.352 196.418 260.637 196.418 260.988C196.418 261.332 196.527 261.613 196.746 261.832C196.973 262.043 197.324 262.273 197.801 262.523L199.523 263.355C200.648 263.941 201.371 264.391 201.691 264.703C202.301 265.297 202.605 266.043 202.605 266.941C202.605 267.902 202.121 268.676 201.152 269.262C200.137 269.879 198.719 270.188 196.898 270.188ZM210.281 268.148C210.539 268.242 210.93 268.289 211.453 268.289C211.977 268.289 212.414 268.227 212.766 268.102V269.977C212.602 270.016 212.363 270.039 212.051 270.047L211.312 270.07C211.148 270.07 211.023 270.07 210.938 270.07C209.43 270.07 208.316 269.578 207.598 268.594C207.02 267.797 206.73 266.742 206.73 265.43V259.699H204.996V258.598L206.73 257.906L207.293 254.906H209.074V257.906H212.824V259.699H209.074V265.418C209.074 266.949 209.477 267.859 210.281 268.148ZM216.48 267.844C216.223 267.398 216.016 266.875 215.859 266.273C215.711 265.672 215.637 264.887 215.637 263.918C215.637 262.949 215.844 262.059 216.258 261.246C216.68 260.426 217.227 259.754 217.898 259.23C219.203 258.223 220.824 257.719 222.762 257.719C223.77 257.719 224.531 257.742 225.047 257.789C225.047 257.789 225.426 257.828 226.184 257.906V270H224.074L223.98 268.605C223.512 269.23 222.797 269.695 221.836 270C221.469 270.117 221.09 270.176 220.699 270.176C220.316 270.176 219.938 270.137 219.562 270.059C219.188 269.98 218.812 269.852 218.438 269.672C218.07 269.492 217.719 269.254 217.383 268.957C217.047 268.652 216.746 268.281 216.48 267.844ZM223.84 259.629C223.34 259.566 222.84 259.535 222.34 259.535C221.848 259.535 221.32 259.625 220.758 259.805C220.195 259.977 219.715 260.25 219.316 260.625C218.488 261.406 218.074 262.598 218.074 264.199C218.074 265.715 218.43 266.836 219.141 267.562C219.68 268.102 220.328 268.371 221.086 268.371C222.062 268.371 222.867 268.016 223.5 267.305C223.656 267.125 223.77 266.965 223.84 266.824V259.629ZM238.617 269.965C238.148 270.113 237.336 270.188 236.18 270.188C235.023 270.188 234.039 270.047 233.227 269.766C232.422 269.484 231.734 269.07 231.164 268.523C229.984 267.391 229.395 265.82 229.395 263.812C229.395 261.867 230.102 260.336 231.516 259.219C232.781 258.219 234.336 257.719 236.18 257.719C237.32 257.719 238.102 257.758 238.523 257.836V259.922C237.867 259.711 237.117 259.605 236.273 259.605C235.438 259.605 234.742 259.723 234.188 259.957C233.633 260.184 233.18 260.492 232.828 260.883C232.164 261.625 231.832 262.602 231.832 263.812C231.832 265.859 232.57 267.223 234.047 267.902C234.57 268.145 235.082 268.266 235.582 268.266C236.082 268.266 236.465 268.254 236.73 268.23C237.004 268.207 237.262 268.176 237.504 268.137C238.02 268.051 238.391 267.961 238.617 267.867V269.965ZM242.086 252.574H244.43V263.32L249.328 257.906H252.117L246.902 263.391L252.387 270H249.527L244.43 263.836V270H242.086V252.574ZM262.441 267.844C262.184 267.398 261.977 266.875 261.82 266.273C261.672 265.672 261.598 264.887 261.598 263.918C261.598 262.949 261.805 262.059 262.219 261.246C262.641 260.426 263.188 259.754 263.859 259.23C265.164 258.223 266.785 257.719 268.723 257.719C269.73 257.719 270.492 257.742 271.008 257.789C271.008 257.789 271.387 257.828 272.145 257.906V270H270.035L269.941 268.605C269.473 269.23 268.758 269.695 267.797 270C267.43 270.117 267.051 270.176 266.66 270.176C266.277 270.176 265.898 270.137 265.523 270.059C265.148 269.98 264.773 269.852 264.398 269.672C264.031 269.492 263.68 269.254 263.344 268.957C263.008 268.652 262.707 268.281 262.441 267.844ZM269.801 259.629C269.301 259.566 268.801 259.535 268.301 259.535C267.809 259.535 267.281 259.625 266.719 259.805C266.156 259.977 265.676 260.25 265.277 260.625C264.449 261.406 264.035 262.598 264.035 264.199C264.035 265.715 264.391 266.836 265.102 267.562C265.641 268.102 266.289 268.371 267.047 268.371C268.023 268.371 268.828 268.016 269.461 267.305C269.617 267.125 269.73 266.965 269.801 266.824V259.629ZM281.344 259.734C280.18 259.734 279.145 260.129 278.238 260.918V270H275.895V257.906H278.062L278.227 259.219C279.5 258.219 280.816 257.719 282.176 257.719C283.613 257.719 284.668 258.148 285.34 259.008C286.043 259.914 286.395 261.375 286.395 263.391V270H284.051V263.391C284.051 261.453 283.527 260.297 282.48 259.922C282.145 259.797 281.766 259.734 281.344 259.734ZM291.738 259.23C292.418 258.707 293.18 258.324 294.023 258.082C294.875 257.84 295.617 257.719 296.25 257.719C296.883 257.719 297.371 257.734 297.715 257.766V252.562H300.047V270H297.949L297.855 268.605C297.379 269.238 296.656 269.707 295.688 270.012C295.312 270.129 294.93 270.188 294.539 270.188C294.156 270.188 293.777 270.148 293.402 270.07C293.027 269.992 292.652 269.863 292.277 269.684C291.91 269.496 291.559 269.254 291.223 268.957C290.887 268.652 290.586 268.281 290.32 267.844C289.758 266.883 289.477 265.746 289.477 264.434C289.477 263.121 289.684 262.059 290.098 261.246C290.52 260.426 291.066 259.754 291.738 259.23ZM293.156 260.625C292.758 261 292.449 261.484 292.23 262.078C292.02 262.664 291.914 263.379 291.914 264.223C291.914 265.059 292.016 265.75 292.219 266.297C292.422 266.836 292.676 267.258 292.98 267.562C293.52 268.109 294.168 268.383 294.926 268.383C295.902 268.383 296.711 268.023 297.352 267.305C297.516 267.125 297.633 266.965 297.703 266.824V259.617L297.469 259.594C297.109 259.547 296.68 259.523 296.18 259.523C295.688 259.523 295.16 259.613 294.598 259.793C294.035 259.965 293.555 260.242 293.156 260.625ZM311.883 253.688H314.227V267.938H321.211V270H311.883V253.688ZM326.648 254.391C326.648 254.836 326.5 255.18 326.203 255.422C325.914 255.656 325.551 255.773 325.113 255.773C324.676 255.773 324.312 255.656 324.023 255.422C323.742 255.18 323.602 254.836 323.602 254.391C323.602 253.938 323.742 253.594 324.023 253.359C324.312 253.125 324.676 253.008 325.113 253.008C325.551 253.008 325.914 253.125 326.203 253.359C326.5 253.594 326.648 253.938 326.648 254.391ZM323.906 257.906H326.25V270H323.906V257.906ZM334.289 268.148C334.547 268.242 334.938 268.289 335.461 268.289C335.984 268.289 336.422 268.227 336.773 268.102V269.977C336.609 270.016 336.371 270.039 336.059 270.047L335.32 270.07C335.156 270.07 335.031 270.07 334.945 270.07C333.438 270.07 332.324 269.578 331.605 268.594C331.027 267.797 330.738 266.742 330.738 265.43V259.699H329.004V258.598L330.738 257.906L331.301 254.906H333.082V257.906H336.832V259.699H333.082V265.418C333.082 266.949 333.484 267.859 334.289 268.148ZM345.598 270.188C341.176 270.188 338.965 268.027 338.965 263.707C338.965 261.848 339.578 260.359 340.805 259.242C341.906 258.227 343.164 257.719 344.578 257.719C346.117 257.719 347.32 258.234 348.188 259.266C348.992 260.227 349.395 261.512 349.395 263.121V264.035H341.402C341.402 266.246 342.305 267.598 344.109 268.09C344.539 268.207 345.199 268.266 346.09 268.266C346.988 268.266 347.867 268.145 348.727 267.902V269.883C347.867 270.086 346.824 270.188 345.598 270.188ZM347.051 262.312C347.051 261.562 346.844 260.93 346.43 260.414C345.945 259.82 345.277 259.523 344.426 259.523C343.527 259.523 342.797 259.809 342.234 260.379C341.719 260.91 341.461 261.555 341.461 262.312H347.051ZM361.254 268.863C360.699 269.254 359.988 269.562 359.121 269.789C358.254 270.008 357.191 270.117 355.934 270.117C354.684 270.117 353.422 270.043 352.148 269.895V267.621C353.289 267.879 354.438 268.008 355.594 268.008C356.75 268.008 357.617 267.945 358.195 267.82C358.773 267.688 359.238 267.516 359.59 267.305C360.238 266.914 360.562 266.406 360.562 265.781C360.562 265.297 360.438 264.922 360.188 264.656C359.789 264.242 359.215 263.863 358.465 263.52L355.465 262.148C354.434 261.664 353.703 261.215 353.273 260.801C352.352 259.91 351.891 258.879 351.891 257.707C351.891 256.504 352.414 255.531 353.461 254.789C354.609 253.977 356.242 253.57 358.359 253.57C359.727 253.57 360.977 253.625 362.109 253.734V255.973C361.148 255.754 360.074 255.645 358.887 255.645C357.707 255.645 356.848 255.707 356.309 255.832C355.777 255.949 355.359 256.102 355.055 256.289C354.5 256.633 354.223 257.086 354.223 257.648C354.223 258.195 354.398 258.648 354.75 259.008C355.062 259.312 355.633 259.664 356.461 260.062L359.543 261.527C360.566 262.012 361.281 262.469 361.688 262.898C362.102 263.328 362.406 263.762 362.602 264.199C362.797 264.629 362.895 265.148 362.895 265.758C362.895 266.359 362.762 266.93 362.496 267.469C362.23 268 361.816 268.465 361.254 268.863ZM368.508 274.688H366.164V257.906H368.273L368.367 259.289C368.836 258.664 369.555 258.199 370.523 257.895C370.898 257.777 371.277 257.719 371.66 257.719C372.051 257.719 372.434 257.762 372.809 257.848C373.184 257.926 373.555 258.059 373.922 258.246C374.289 258.426 374.641 258.668 374.977 258.973C375.312 259.27 375.609 259.641 375.867 260.086C376.43 261.047 376.711 262.238 376.711 263.66C376.711 265.832 375.961 267.492 374.461 268.641C373.133 269.664 371.516 270.176 369.609 270.176H369.023C368.836 270.176 368.664 270.172 368.508 270.164V274.688ZM368.508 268.266C368.727 268.328 369.156 268.359 369.797 268.359C370.438 268.359 371.039 268.27 371.602 268.09C372.164 267.91 372.641 267.633 373.031 267.258C373.859 266.461 374.273 265.262 374.273 263.66C374.273 262.152 373.914 261.039 373.195 260.32C372.664 259.789 372.016 259.523 371.25 259.523C370.289 259.523 369.492 259.879 368.859 260.59C368.695 260.77 368.578 260.93 368.508 261.07V268.266ZM385.652 270.188C381.23 270.188 379.02 268.027 379.02 263.707C379.02 261.848 379.633 260.359 380.859 259.242C381.961 258.227 383.219 257.719 384.633 257.719C386.172 257.719 387.375 258.234 388.242 259.266C389.047 260.227 389.449 261.512 389.449 263.121V264.035H381.457C381.457 266.246 382.359 267.598 384.164 268.09C384.594 268.207 385.254 268.266 386.145 268.266C387.043 268.266 387.922 268.145 388.781 267.902V269.883C387.922 270.086 386.879 270.188 385.652 270.188ZM387.105 262.312C387.105 261.562 386.898 260.93 386.484 260.414C386 259.82 385.332 259.523 384.48 259.523C383.582 259.523 382.852 259.809 382.289 260.379C381.773 260.91 381.516 261.555 381.516 262.312H387.105ZM397.676 270.188C393.254 270.188 391.043 268.027 391.043 263.707C391.043 261.848 391.656 260.359 392.883 259.242C393.984 258.227 395.242 257.719 396.656 257.719C398.195 257.719 399.398 258.234 400.266 259.266C401.07 260.227 401.473 261.512 401.473 263.121V264.035H393.48C393.48 266.246 394.383 267.598 396.188 268.09C396.617 268.207 397.277 268.266 398.168 268.266C399.066 268.266 399.945 268.145 400.805 267.902V269.883C399.945 270.086 398.902 270.188 397.676 270.188ZM399.129 262.312C399.129 261.562 398.922 260.93 398.508 260.414C398.023 259.82 397.355 259.523 396.504 259.523C395.605 259.523 394.875 259.809 394.312 260.379C393.797 260.91 393.539 261.555 393.539 262.312H399.129ZM405.879 259.23C406.559 258.707 407.32 258.324 408.164 258.082C409.016 257.84 409.758 257.719 410.391 257.719C411.023 257.719 411.512 257.734 411.855 257.766V252.562H414.188V270H412.09L411.996 268.605C411.52 269.238 410.797 269.707 409.828 270.012C409.453 270.129 409.07 270.188 408.68 270.188C408.297 270.188 407.918 270.148 407.543 270.07C407.168 269.992 406.793 269.863 406.418 269.684C406.051 269.496 405.699 269.254 405.363 268.957C405.027 268.652 404.727 268.281 404.461 267.844C403.898 266.883 403.617 265.746 403.617 264.434C403.617 263.121 403.824 262.059 404.238 261.246C404.66 260.426 405.207 259.754 405.879 259.23ZM407.297 260.625C406.898 261 406.59 261.484 406.371 262.078C406.16 262.664 406.055 263.379 406.055 264.223C406.055 265.059 406.156 265.75 406.359 266.297C406.562 266.836 406.816 267.258 407.121 267.562C407.66 268.109 408.309 268.383 409.066 268.383C410.043 268.383 410.852 268.023 411.492 267.305C411.656 267.125 411.773 266.965 411.844 266.824V259.617L411.609 259.594C411.25 259.547 410.82 259.523 410.32 259.523C409.828 259.523 409.301 259.613 408.738 259.793C408.176 259.965 407.695 260.242 407.297 260.625ZM434.719 269.965C434.25 270.113 433.438 270.188 432.281 270.188C431.125 270.188 430.141 270.047 429.328 269.766C428.523 269.484 427.836 269.07 427.266 268.523C426.086 267.391 425.496 265.82 425.496 263.812C425.496 261.867 426.203 260.336 427.617 259.219C428.883 258.219 430.438 257.719 432.281 257.719C433.422 257.719 434.203 257.758 434.625 257.836V259.922C433.969 259.711 433.219 259.605 432.375 259.605C431.539 259.605 430.844 259.723 430.289 259.957C429.734 260.184 429.281 260.492 428.93 260.883C428.266 261.625 427.934 262.602 427.934 263.812C427.934 265.859 428.672 267.223 430.148 267.902C430.672 268.145 431.184 268.266 431.684 268.266C432.184 268.266 432.566 268.254 432.832 268.23C433.105 268.207 433.363 268.176 433.605 268.137C434.121 268.051 434.492 267.961 434.719 267.867V269.965ZM438.551 267.844C438.293 267.398 438.086 266.875 437.93 266.273C437.781 265.672 437.707 264.887 437.707 263.918C437.707 262.949 437.914 262.059 438.328 261.246C438.75 260.426 439.297 259.754 439.969 259.23C441.273 258.223 442.895 257.719 444.832 257.719C445.84 257.719 446.602 257.742 447.117 257.789C447.117 257.789 447.496 257.828 448.254 257.906V270H446.145L446.051 268.605C445.582 269.23 444.867 269.695 443.906 270C443.539 270.117 443.16 270.176 442.77 270.176C442.387 270.176 442.008 270.137 441.633 270.059C441.258 269.98 440.883 269.852 440.508 269.672C440.141 269.492 439.789 269.254 439.453 268.957C439.117 268.652 438.816 268.281 438.551 267.844ZM445.91 259.629C445.41 259.566 444.91 259.535 444.41 259.535C443.918 259.535 443.391 259.625 442.828 259.805C442.266 259.977 441.785 260.25 441.387 260.625C440.559 261.406 440.145 262.598 440.145 264.199C440.145 265.715 440.5 266.836 441.211 267.562C441.75 268.102 442.398 268.371 443.156 268.371C444.133 268.371 444.938 268.016 445.57 267.305C445.727 267.125 445.84 266.965 445.91 266.824V259.629ZM460.688 269.965C460.219 270.113 459.406 270.188 458.25 270.188C457.094 270.188 456.109 270.047 455.297 269.766C454.492 269.484 453.805 269.07 453.234 268.523C452.055 267.391 451.465 265.82 451.465 263.812C451.465 261.867 452.172 260.336 453.586 259.219C454.852 258.219 456.406 257.719 458.25 257.719C459.391 257.719 460.172 257.758 460.594 257.836V259.922C459.938 259.711 459.188 259.605 458.344 259.605C457.508 259.605 456.812 259.723 456.258 259.957C455.703 260.184 455.25 260.492 454.898 260.883C454.234 261.625 453.902 262.602 453.902 263.812C453.902 265.859 454.641 267.223 456.117 267.902C456.641 268.145 457.152 268.266 457.652 268.266C458.152 268.266 458.535 268.254 458.801 268.23C459.074 268.207 459.332 268.176 459.574 268.137C460.09 268.051 460.461 267.961 460.688 267.867V269.965ZM469.418 259.734C468.262 259.734 467.23 260.129 466.324 260.918V270H463.98V252.562H466.324V259.207C467.59 258.215 468.898 257.719 470.25 257.719C471.695 257.719 472.754 258.148 473.426 259.008C474.129 259.914 474.48 261.375 474.48 263.391V270H472.137V263.391C472.137 261.453 471.609 260.297 470.555 259.922C470.219 259.797 469.84 259.734 469.418 259.734ZM483.621 270.188C479.199 270.188 476.988 268.027 476.988 263.707C476.988 261.848 477.602 260.359 478.828 259.242C479.93 258.227 481.188 257.719 482.602 257.719C484.141 257.719 485.344 258.234 486.211 259.266C487.016 260.227 487.418 261.512 487.418 263.121V264.035H479.426C479.426 266.246 480.328 267.598 482.133 268.09C482.562 268.207 483.223 268.266 484.113 268.266C485.012 268.266 485.891 268.145 486.75 267.902V269.883C485.891 270.086 484.848 270.188 483.621 270.188ZM485.074 262.312C485.074 261.562 484.867 260.93 484.453 260.414C483.969 259.82 483.301 259.523 482.449 259.523C481.551 259.523 480.82 259.809 480.258 260.379C479.742 260.91 479.484 261.555 479.484 262.312H485.074ZM491.18 270.293C490.711 270.293 490.32 270.168 490.008 269.918C489.703 269.66 489.551 269.293 489.551 268.816C489.551 268.332 489.703 267.961 490.008 267.703C490.32 267.445 490.711 267.316 491.18 267.316C491.656 267.316 492.051 267.445 492.363 267.703C492.676 267.961 492.832 268.332 492.832 268.816C492.832 269.293 492.676 269.66 492.363 269.918C492.051 270.168 491.656 270.293 491.18 270.293Z" fill="#4F4D4D"/>
<path d="M41.3621 55.1036L55.2774 94.898C45.5435 89.9738 38.8395 79.5528 38.8395 67.5C38.8395 63.0768 39.7444 58.897 41.3621 55.1036V55.1036ZM87.6871 65.9683C87.6871 62.2036 86.3984 59.5984 85.2879 57.5657C83.8073 55.0607 82.4226 52.9278 82.4226 50.4228C82.4226 47.6171 84.4516 45.0119 87.3169 45.0119C87.4403 45.0119 87.5637 45.0262 87.7008 45.0405C82.5048 40.0734 75.5952 37.0387 68 37.0387C57.8137 37.0387 48.8476 42.4925 43.6242 50.7663C44.3097 50.795 44.954 50.8093 45.5024 50.8093C48.546 50.8093 53.2758 50.4228 53.2758 50.4228C54.8524 50.3226 55.0306 52.7417 53.4677 52.9278C53.4677 52.9278 51.8911 53.1139 50.1363 53.2141L60.7613 86.1948L67.15 66.2117L62.6121 53.2141C61.0355 53.1139 59.5548 52.9278 59.5548 52.9278C57.9782 52.8276 58.1702 50.3226 59.7331 50.4228C59.7331 50.4228 64.5452 50.8093 67.4105 50.8093C70.454 50.8093 75.1839 50.4228 75.1839 50.4228C76.7605 50.3226 76.9387 52.7417 75.3758 52.9278C75.3758 52.9278 73.7992 53.1139 72.0444 53.2141L82.5871 85.9514L85.4936 75.8024C86.7274 71.594 87.6871 68.5736 87.6871 65.9683ZM68.5073 70.1625L59.7605 96.7159C62.379 97.5175 65.1347 97.9613 68 97.9613C71.4 97.9613 74.6492 97.3458 77.679 96.2292C77.5968 96.1004 77.5282 95.9573 77.4734 95.8141L68.5073 70.1625ZM93.596 52.8849C93.7194 53.8583 93.7879 54.8889 93.7879 56.0198C93.7879 59.1117 93.2395 62.5758 91.5669 66.9274L82.6556 93.8244C91.3339 88.5423 97.1605 78.7369 97.1605 67.5C97.1605 62.2036 95.8718 57.2222 93.596 52.8849V52.8849ZM102 67.5C102 87.0823 86.7411 103 68 103C49.2452 103 34 87.0679 34 67.5C34 47.9177 49.2452 32 68 32C86.7411 32 102 47.9177 102 67.5ZM100.437 67.5C100.437 48.8196 85.8774 33.6319 68 33.6319C50.1089 33.6319 35.5629 48.8196 35.5629 67.5C35.5629 86.1804 50.1226 101.368 68 101.368C85.8911 101.368 100.437 86.1804 100.437 67.5Z" fill="#FFA800"/>
</svg>
