<svg width="597" height="105" viewBox="0 0 597 105" fill="none" xmlns="http://www.w3.org/2000/svg">
<rect width="597" height="105" fill="black"/>
<path d="M143.308 30.8091C143.308 33.6642 142.766 36.0932 141.684 38.096C140.61 40.0989 139.144 41.6287 137.286 42.6855C135.437 43.7338 133.357 44.2579 131.048 44.2579C128.721 44.2579 126.633 43.7295 124.783 42.6727C122.934 41.6159 121.472 40.0861 120.398 38.0832C119.325 36.0804 118.788 33.6557 118.788 30.8091C118.788 27.954 119.325 25.525 120.398 23.5222C121.472 21.5193 122.934 19.9937 124.783 18.9454C126.633 17.8886 128.721 17.3602 131.048 17.3602C133.357 17.3602 135.437 17.8886 137.286 18.9454C139.144 19.9937 140.61 21.5193 141.684 23.5222C142.766 25.525 143.308 27.954 143.308 30.8091ZM137.695 30.8091C137.695 28.9597 137.418 27.4 136.864 26.1301C136.319 24.8602 135.548 23.8972 134.55 23.2409C133.553 22.5847 132.386 22.2565 131.048 22.2565C129.71 22.2565 128.542 22.5847 127.545 23.2409C126.548 23.8972 125.772 24.8602 125.218 26.1301C124.673 27.4 124.4 28.9597 124.4 30.8091C124.4 32.6585 124.673 34.2182 125.218 35.4881C125.772 36.7579 126.548 37.721 127.545 38.3773C128.542 39.0335 129.71 39.3616 131.048 39.3616C132.386 39.3616 133.553 39.0335 134.55 38.3773C135.548 37.721 136.319 36.7579 136.864 35.4881C137.418 34.2182 137.695 32.6585 137.695 30.8091ZM152.752 32.5477V43.9H147.306V24.2636H152.496V27.7281H152.726C153.161 26.5861 153.89 25.6827 154.912 25.0179C155.935 24.3446 157.175 24.0079 158.632 24.0079C159.996 24.0079 161.185 24.3062 162.199 24.9028C163.213 25.4994 164.002 26.3517 164.564 27.4597C165.127 28.5591 165.408 29.8716 165.408 31.3972V43.9H159.962V32.3687C159.971 31.167 159.664 30.2295 159.042 29.5562C158.419 28.8744 157.563 28.5335 156.472 28.5335C155.739 28.5335 155.091 28.6912 154.529 29.0065C153.975 29.3219 153.54 29.7821 153.225 30.3872C152.918 30.9838 152.76 31.704 152.752 32.5477ZM178.649 44.2835C176.629 44.2835 174.891 43.8744 173.433 43.0562C171.984 42.2295 170.868 41.0619 170.084 39.5534C169.3 38.0364 168.908 36.2423 168.908 34.1713C168.908 32.1514 169.3 30.3787 170.084 28.8531C170.868 27.3276 171.972 26.1386 173.395 25.2864C174.827 24.4341 176.506 24.0079 178.432 24.0079C179.727 24.0079 180.933 24.2168 182.05 24.6344C183.175 25.0435 184.155 25.6614 184.99 26.4881C185.834 27.3148 186.49 28.3545 186.959 29.6074C187.428 30.8517 187.662 32.3091 187.662 33.9795V35.4753H171.081V32.1003H182.536C182.536 31.3162 182.365 30.6216 182.024 30.0165C181.683 29.4114 181.21 28.9383 180.605 28.5974C180.009 28.248 179.314 28.0733 178.521 28.0733C177.695 28.0733 176.962 28.2651 176.322 28.6486C175.692 29.0236 175.197 29.5307 174.839 30.1699C174.482 30.8006 174.298 31.5037 174.29 32.2793V35.4881C174.29 36.4597 174.469 37.2991 174.827 38.0065C175.193 38.7139 175.709 39.2594 176.374 39.6429C177.038 40.0264 177.827 40.2182 178.739 40.2182C179.344 40.2182 179.898 40.1329 180.401 39.9625C180.903 39.792 181.334 39.5364 181.692 39.1954C182.05 38.8545 182.322 38.4369 182.51 37.9426L187.547 38.275C187.291 39.4852 186.767 40.542 185.974 41.4454C185.19 42.3403 184.176 43.0392 182.932 43.542C181.696 44.0364 180.268 44.2835 178.649 44.2835ZM203.45 30.9881V35.3091H191.51V30.9881H203.45ZM231.294 26.8844H225.695C225.592 26.1599 225.384 25.5165 225.068 24.954C224.753 24.3829 224.348 23.8972 223.854 23.4966C223.359 23.096 222.788 22.7892 222.141 22.5761C221.501 22.3631 220.807 22.2565 220.057 22.2565C218.702 22.2565 217.521 22.5932 216.516 23.2665C215.51 23.9312 214.73 24.9028 214.176 26.1812C213.622 27.4511 213.345 28.9937 213.345 30.8091C213.345 32.6756 213.622 34.2437 214.176 35.5136C214.739 36.7835 215.523 37.7423 216.528 38.3901C217.534 39.0378 218.697 39.3616 220.018 39.3616C220.76 39.3616 221.446 39.2636 222.077 39.0676C222.716 38.8716 223.283 38.5861 223.777 38.2111C224.271 37.8276 224.68 37.3631 225.004 36.8176C225.337 36.2722 225.567 35.65 225.695 34.9511L231.294 34.9767C231.149 36.1784 230.787 37.3375 230.207 38.454C229.636 39.5619 228.865 40.5548 227.893 41.4327C226.93 42.302 225.78 42.9923 224.442 43.5037C223.112 44.0065 221.608 44.2579 219.929 44.2579C217.594 44.2579 215.506 43.7295 213.665 42.6727C211.832 41.6159 210.384 40.0861 209.318 38.0832C208.261 36.0804 207.733 33.6557 207.733 30.8091C207.733 27.954 208.27 25.525 209.344 23.5222C210.418 21.5193 211.875 19.9937 213.716 18.9454C215.557 17.8886 217.628 17.3602 219.929 17.3602C221.446 17.3602 222.852 17.5733 224.148 17.9994C225.452 18.4256 226.607 19.0477 227.612 19.8659C228.618 20.6756 229.436 21.6685 230.067 22.8446C230.706 24.0207 231.115 25.3673 231.294 26.8844ZM240.607 17.7182V43.9H235.161V17.7182H240.607ZM244.97 43.9V24.2636H250.416V43.9H244.97ZM247.706 21.7324C246.896 21.7324 246.201 21.4639 245.622 20.927C245.051 20.3815 244.765 19.7295 244.765 18.971C244.765 18.221 245.051 17.5775 245.622 17.0406C246.201 16.4952 246.896 16.2224 247.706 16.2224C248.515 16.2224 249.206 16.4952 249.777 17.0406C250.356 17.5775 250.646 18.221 250.646 18.971C250.646 19.7295 250.356 20.3815 249.777 20.927C249.206 21.4639 248.515 21.7324 247.706 21.7324ZM263.651 44.2835C261.639 44.2835 259.909 43.8574 258.46 43.0051C257.02 42.1443 255.912 40.9511 255.136 39.4256C254.369 37.9 253.986 36.1443 253.986 34.1585C253.986 32.1472 254.374 30.3829 255.149 28.8659C255.933 27.3403 257.045 26.1514 258.486 25.2991C259.926 24.4383 261.639 24.0079 263.625 24.0079C265.338 24.0079 266.838 24.319 268.125 24.9412C269.412 25.5633 270.43 26.4369 271.18 27.5619C271.93 28.6869 272.344 30.0079 272.42 31.525H267.281C267.136 30.5449 266.753 29.7565 266.131 29.1599C265.517 28.5548 264.712 28.2523 263.714 28.2523C262.871 28.2523 262.134 28.4824 261.503 28.9426C260.881 29.3943 260.395 30.0548 260.045 30.9241C259.696 31.7935 259.521 32.846 259.521 34.0818C259.521 35.3347 259.692 36.4 260.033 37.2778C260.382 38.1557 260.872 38.8247 261.503 39.2849C262.134 39.7452 262.871 39.9753 263.714 39.9753C264.337 39.9753 264.895 39.8474 265.389 39.5918C265.892 39.3361 266.305 38.9653 266.629 38.4795C266.962 37.9852 267.179 37.3929 267.281 36.7026H272.42C272.335 38.2026 271.926 39.5236 271.193 40.6656C270.469 41.7991 269.467 42.6855 268.189 43.3247C266.911 43.9639 265.398 44.2835 263.651 44.2835ZM280.842 38.2494L280.855 31.7168H281.647L287.937 24.2636H294.189L285.738 34.1329H284.447L280.842 38.2494ZM275.907 43.9V17.7182H281.353V43.9H275.907ZM288.18 43.9L282.402 35.3474L286.032 31.4994L294.559 43.9H288.18ZM311.188 43.9L303.697 17.7182H309.744L314.077 35.9099H314.295L319.076 17.7182H324.254L329.022 35.9483H329.252L333.586 17.7182H339.633L332.141 43.9H326.746L321.761 26.7821H321.556L316.583 43.9H311.188ZM349.256 44.2835C347.27 44.2835 345.553 43.8616 344.104 43.0179C342.664 42.1656 341.551 40.981 340.767 39.4639C339.983 37.9383 339.591 36.1699 339.591 34.1585C339.591 32.1301 339.983 30.3574 340.767 28.8403C341.551 27.3148 342.664 26.1301 344.104 25.2864C345.553 24.4341 347.27 24.0079 349.256 24.0079C351.242 24.0079 352.955 24.4341 354.395 25.2864C355.844 26.1301 356.961 27.3148 357.745 28.8403C358.529 30.3574 358.921 32.1301 358.921 34.1585C358.921 36.1699 358.529 37.9383 357.745 39.4639C356.961 40.981 355.844 42.1656 354.395 43.0179C352.955 43.8616 351.242 44.2835 349.256 44.2835ZM349.282 40.0648C350.185 40.0648 350.939 39.8091 351.544 39.2977C352.149 38.7778 352.605 38.0704 352.912 37.1756C353.228 36.2807 353.385 35.2622 353.385 34.1202C353.385 32.9781 353.228 31.9597 352.912 31.0648C352.605 30.1699 352.149 29.4625 351.544 28.9426C350.939 28.4227 350.185 28.1628 349.282 28.1628C348.37 28.1628 347.603 28.4227 346.98 28.9426C346.367 29.4625 345.902 30.1699 345.587 31.0648C345.28 31.9597 345.127 32.9781 345.127 34.1202C345.127 35.2622 345.28 36.2807 345.587 37.1756C345.902 38.0704 346.367 38.7778 346.98 39.2977C347.603 39.8091 348.37 40.0648 349.282 40.0648ZM362.462 43.9V24.2636H367.742V27.6898H367.946C368.304 26.471 368.905 25.5506 369.749 24.9284C370.593 24.2977 371.564 23.9824 372.664 23.9824C372.936 23.9824 373.23 23.9994 373.546 24.0335C373.861 24.0676 374.138 24.1145 374.377 24.1741V29.0065C374.121 28.9298 373.767 28.8616 373.316 28.802C372.864 28.7423 372.451 28.7125 372.076 28.7125C371.274 28.7125 370.559 28.8872 369.928 29.2366C369.306 29.5776 368.811 30.0548 368.445 30.6685C368.087 31.2821 367.908 31.9895 367.908 32.7906V43.9H362.462ZM383.514 44.2196C382.023 44.2196 380.672 43.8361 379.462 43.069C378.26 42.2935 377.305 41.1557 376.598 39.6557C375.899 38.1472 375.55 36.2977 375.55 34.1074C375.55 31.8574 375.912 29.9866 376.636 28.4952C377.361 26.9952 378.324 25.8744 379.526 25.1329C380.736 24.3829 382.061 24.0079 383.501 24.0079C384.601 24.0079 385.517 24.1954 386.25 24.5704C386.991 24.9369 387.588 25.3972 388.04 25.9511C388.5 26.4966 388.849 27.0335 389.088 27.5619H389.254V17.7182H394.687V43.9H389.318V40.7551H389.088C388.832 41.3006 388.47 41.8418 388.001 42.3787C387.541 42.9071 386.94 43.346 386.199 43.6954C385.466 44.0449 384.571 44.2196 383.514 44.2196ZM385.24 39.8858C386.118 39.8858 386.859 39.6472 387.464 39.1699C388.078 38.6841 388.547 38.0065 388.871 37.1372C389.203 36.2679 389.369 35.2494 389.369 34.0818C389.369 32.9142 389.207 31.9 388.884 31.0392C388.56 30.1784 388.091 29.5136 387.477 29.0449C386.864 28.5761 386.118 28.3418 385.24 28.3418C384.345 28.3418 383.591 28.5847 382.977 29.0704C382.364 29.5562 381.899 30.2295 381.584 31.0903C381.268 31.9511 381.111 32.9483 381.111 34.0818C381.111 35.2239 381.268 36.2338 381.584 37.1116C381.908 37.981 382.372 38.6628 382.977 39.1571C383.591 39.6429 384.345 39.8858 385.24 39.8858ZM399.267 43.9V17.7182H409.597C411.583 17.7182 413.274 18.0974 414.672 18.856C416.07 19.606 417.135 20.65 417.868 21.9881C418.61 23.3176 418.98 24.8517 418.98 26.5903C418.98 28.329 418.605 29.8631 417.855 31.1926C417.105 32.5222 416.019 33.5577 414.596 34.2991C413.181 35.0406 411.468 35.4114 409.456 35.4114H402.873V30.9753H408.561C409.627 30.9753 410.505 30.792 411.195 30.4256C411.894 30.0506 412.414 29.5349 412.755 28.8787C413.104 28.2139 413.279 27.4511 413.279 26.5903C413.279 25.721 413.104 24.9625 412.755 24.3148C412.414 23.6585 411.894 23.1514 411.195 22.7935C410.496 22.427 409.61 22.2437 408.536 22.2437H404.803V43.9H399.267ZM422.474 43.9V24.2636H427.754V27.6898H427.958C428.316 26.471 428.917 25.5506 429.761 24.9284C430.604 24.2977 431.576 23.9824 432.675 23.9824C432.948 23.9824 433.242 23.9994 433.558 24.0335C433.873 24.0676 434.15 24.1145 434.388 24.1741V29.0065C434.133 28.9298 433.779 28.8616 433.327 28.802C432.876 28.7423 432.462 28.7125 432.087 28.7125C431.286 28.7125 430.57 28.8872 429.94 29.2366C429.317 29.5776 428.823 30.0548 428.457 30.6685C428.099 31.2821 427.92 31.9895 427.92 32.7906V43.9H422.474ZM445.239 44.2835C443.219 44.2835 441.48 43.8744 440.023 43.0562C438.574 42.2295 437.458 41.0619 436.674 39.5534C435.89 38.0364 435.498 36.2423 435.498 34.1713C435.498 32.1514 435.89 30.3787 436.674 28.8531C437.458 27.3276 438.561 26.1386 439.985 25.2864C441.417 24.4341 443.096 24.0079 445.022 24.0079C446.317 24.0079 447.523 24.2168 448.64 24.6344C449.765 25.0435 450.745 25.6614 451.58 26.4881C452.424 27.3148 453.08 28.3545 453.549 29.6074C454.017 30.8517 454.252 32.3091 454.252 33.9795V35.4753H437.671V32.1003H449.125C449.125 31.3162 448.955 30.6216 448.614 30.0165C448.273 29.4114 447.8 28.9383 447.195 28.5974C446.598 28.248 445.904 28.0733 445.111 28.0733C444.284 28.0733 443.551 28.2651 442.912 28.6486C442.282 29.0236 441.787 29.5307 441.429 30.1699C441.071 30.8006 440.888 31.5037 440.88 32.2793V35.4881C440.88 36.4597 441.059 37.2991 441.417 38.0065C441.783 38.7139 442.299 39.2594 442.963 39.6429C443.628 40.0264 444.417 40.2182 445.328 40.2182C445.934 40.2182 446.488 40.1329 446.99 39.9625C447.493 39.792 447.924 39.5364 448.282 39.1954C448.64 38.8545 448.912 38.4369 449.1 37.9426L454.137 38.275C453.881 39.4852 453.357 40.542 452.564 41.4454C451.78 42.3403 450.766 43.0392 449.522 43.542C448.286 44.0364 446.858 44.2835 445.239 44.2835ZM474.144 29.8631L469.158 30.1699C469.073 29.7437 468.89 29.3602 468.608 29.0193C468.327 28.6699 467.956 28.3929 467.496 28.1883C467.044 27.9753 466.503 27.8687 465.873 27.8687C465.029 27.8687 464.317 28.0477 463.738 28.4057C463.158 28.7551 462.868 29.2239 462.868 29.8119C462.868 30.2807 463.056 30.677 463.431 31.0008C463.806 31.3247 464.449 31.5847 465.361 31.7807L468.915 32.4966C470.824 32.8886 472.248 33.5193 473.185 34.3886C474.123 35.2579 474.591 36.4 474.591 37.8148C474.591 39.1017 474.212 40.231 473.453 41.2026C472.703 42.1741 471.672 42.9327 470.36 43.4781C469.056 44.0151 467.551 44.2835 465.847 44.2835C463.248 44.2835 461.176 43.7423 459.634 42.6599C458.1 41.569 457.201 40.0861 456.936 38.2111L462.293 37.9298C462.455 38.7224 462.847 39.3276 463.469 39.7452C464.091 40.1543 464.888 40.3588 465.86 40.3588C466.814 40.3588 467.581 40.1756 468.161 39.8091C468.749 39.4341 469.047 38.9526 469.056 38.3645C469.047 37.8702 468.838 37.4653 468.429 37.15C468.02 36.8261 467.39 36.579 466.537 36.4085L463.137 35.731C461.219 35.3474 459.792 34.6827 458.854 33.7366C457.925 32.7906 457.461 31.5847 457.461 30.1187C457.461 28.8574 457.801 27.7707 458.483 26.8588C459.174 25.9469 460.141 25.2437 461.385 24.7494C462.638 24.2551 464.104 24.0079 465.783 24.0079C468.263 24.0079 470.215 24.5321 471.638 25.5804C473.07 26.6287 473.905 28.0562 474.144 29.8631ZM494.359 29.8631L489.373 30.1699C489.288 29.7437 489.104 29.3602 488.823 29.0193C488.542 28.6699 488.171 28.3929 487.711 28.1883C487.259 27.9753 486.718 27.8687 486.087 27.8687C485.244 27.8687 484.532 28.0477 483.952 28.4057C483.373 28.7551 483.083 29.2239 483.083 29.8119C483.083 30.2807 483.271 30.677 483.646 31.0008C484.021 31.3247 484.664 31.5847 485.576 31.7807L489.13 32.4966C491.039 32.8886 492.462 33.5193 493.4 34.3886C494.337 35.2579 494.806 36.4 494.806 37.8148C494.806 39.1017 494.427 40.231 493.668 41.2026C492.918 42.1741 491.887 42.9327 490.575 43.4781C489.271 44.0151 487.766 44.2835 486.062 44.2835C483.462 44.2835 481.391 43.7423 479.849 42.6599C478.315 41.569 477.415 40.0861 477.151 38.2111L482.508 37.9298C482.67 38.7224 483.062 39.3276 483.684 39.7452C484.306 40.1543 485.103 40.3588 486.075 40.3588C487.029 40.3588 487.796 40.1756 488.376 39.8091C488.964 39.4341 489.262 38.9526 489.271 38.3645C489.262 37.8702 489.053 37.4653 488.644 37.15C488.235 36.8261 487.604 36.579 486.752 36.4085L483.352 35.731C481.434 35.3474 480.006 34.6827 479.069 33.7366C478.14 32.7906 477.675 31.5847 477.675 30.1187C477.675 28.8574 478.016 27.7707 478.698 26.8588C479.388 25.9469 480.356 25.2437 481.6 24.7494C482.853 24.2551 484.319 24.0079 485.998 24.0079C488.478 24.0079 490.43 24.5321 491.853 25.5804C493.285 26.6287 494.12 28.0562 494.359 29.8631ZM124.783 61.7182V87.9H119.248V61.7182H124.783ZM134.681 76.5477V87.9H129.235V68.2636H134.426V71.7281H134.656C135.091 70.5861 135.819 69.6827 136.842 69.0179C137.865 68.3446 139.105 68.0079 140.562 68.0079C141.926 68.0079 143.115 68.3062 144.129 68.9028C145.143 69.4994 145.931 70.3517 146.494 71.4597C147.056 72.5591 147.338 73.8716 147.338 75.3972V87.9H141.892V76.3687C141.9 75.167 141.593 74.2295 140.971 73.5562C140.349 72.8744 139.493 72.5335 138.402 72.5335C137.669 72.5335 137.021 72.6912 136.458 73.0065C135.904 73.3219 135.47 73.7821 135.154 74.3872C134.848 74.9838 134.69 75.704 134.681 76.5477ZM167.968 73.8631L162.982 74.1699C162.897 73.7437 162.714 73.3602 162.433 73.0193C162.151 72.6699 161.781 72.3929 161.32 72.1883C160.869 71.9753 160.327 71.8687 159.697 71.8687C158.853 71.8687 158.141 72.0477 157.562 72.4057C156.982 72.7551 156.692 73.2239 156.692 73.8119C156.692 74.2807 156.88 74.677 157.255 75.0008C157.63 75.3247 158.273 75.5847 159.185 75.7807L162.739 76.4966C164.648 76.8886 166.072 77.5193 167.009 78.3886C167.947 79.2579 168.415 80.4 168.415 81.8148C168.415 83.1017 168.036 84.231 167.278 85.2026C166.528 86.1741 165.496 86.9327 164.184 87.4781C162.88 88.0151 161.376 88.2835 159.671 88.2835C157.072 88.2835 155.001 87.7423 153.458 86.6599C151.924 85.569 151.025 84.0861 150.761 82.2111L156.117 81.9298C156.279 82.7224 156.671 83.3276 157.293 83.7452C157.915 84.1543 158.712 84.3588 159.684 84.3588C160.638 84.3588 161.406 84.1756 161.985 83.8091C162.573 83.4341 162.871 82.9526 162.88 82.3645C162.871 81.8702 162.663 81.4653 162.254 81.15C161.844 80.8261 161.214 80.579 160.361 80.4085L156.961 79.731C155.043 79.3474 153.616 78.6827 152.678 77.7366C151.749 76.7906 151.285 75.5847 151.285 74.1187C151.285 72.8574 151.626 71.7707 152.308 70.8588C152.998 69.9469 153.965 69.2437 155.21 68.7494C156.462 68.2551 157.928 68.0079 159.607 68.0079C162.087 68.0079 164.039 68.5321 165.462 69.5804C166.894 70.6287 167.729 72.0562 167.968 73.8631ZM182.289 68.2636V72.3545H170.464V68.2636H182.289ZM173.149 63.5591H178.595V81.8659C178.595 82.3687 178.672 82.7608 178.825 83.042C178.978 83.3148 179.191 83.5065 179.464 83.6173C179.745 83.7281 180.069 83.7835 180.436 83.7835C180.691 83.7835 180.947 83.7622 181.203 83.7196C181.458 83.6685 181.654 83.6301 181.791 83.6045L182.647 87.6571C182.375 87.7423 181.991 87.8403 181.497 87.9511C181.002 88.0704 180.402 88.1429 179.694 88.1685C178.382 88.2196 177.231 88.0449 176.243 87.6443C175.262 87.2437 174.5 86.6216 173.954 85.7778C173.409 84.9341 173.14 83.8687 173.149 82.5818V63.5591ZM191.436 88.2707C190.184 88.2707 189.067 88.0534 188.087 87.6187C187.107 87.1756 186.331 86.5236 185.76 85.6628C185.198 84.7935 184.917 83.7111 184.917 82.4156C184.917 81.3247 185.117 80.4085 185.517 79.667C185.918 78.9256 186.463 78.329 187.154 77.8773C187.844 77.4256 188.628 77.0847 189.506 76.8545C190.392 76.6244 191.321 76.4625 192.293 76.3687C193.435 76.2494 194.355 76.1386 195.054 76.0364C195.753 75.9256 196.26 75.7636 196.576 75.5506C196.891 75.3375 197.049 75.0222 197.049 74.6045V74.5278C197.049 73.7182 196.793 73.0918 196.282 72.6486C195.779 72.2054 195.063 71.9838 194.134 71.9838C193.154 71.9838 192.374 72.2011 191.794 72.6358C191.215 73.0619 190.831 73.5989 190.644 74.2466L185.607 73.8375C185.863 72.6443 186.365 71.6131 187.115 70.7437C187.865 69.8659 188.833 69.1926 190.017 68.7239C191.211 68.2466 192.591 68.0079 194.159 68.0079C195.25 68.0079 196.294 68.1358 197.292 68.3915C198.297 68.6472 199.188 69.0435 199.963 69.5804C200.748 70.1173 201.365 70.8077 201.817 71.6514C202.269 72.4866 202.495 73.4881 202.495 74.6557V87.9H197.33V85.177H197.176C196.861 85.7906 196.439 86.3318 195.911 86.8006C195.382 87.2608 194.748 87.623 194.006 87.8872C193.265 88.1429 192.408 88.2707 191.436 88.2707ZM192.996 84.5122C193.797 84.5122 194.505 84.3545 195.118 84.0392C195.732 83.7153 196.213 83.2807 196.563 82.7352C196.912 82.1898 197.087 81.5719 197.087 80.8815V78.7977C196.917 78.9085 196.682 79.0108 196.384 79.1045C196.094 79.1898 195.766 79.2707 195.399 79.3474C195.033 79.4156 194.667 79.4795 194.3 79.5392C193.934 79.5903 193.601 79.6372 193.303 79.6798C192.664 79.7736 192.105 79.9227 191.628 80.1273C191.151 80.3318 190.78 80.6088 190.516 80.9582C190.252 81.2991 190.12 81.7253 190.12 82.2366C190.12 82.9781 190.388 83.5449 190.925 83.9369C191.471 84.3204 192.161 84.5122 192.996 84.5122ZM212.166 61.7182V87.9H206.72V61.7182H212.166ZM221.974 61.7182V87.9H216.528V61.7182H221.974ZM231.936 88.2707C230.684 88.2707 229.567 88.0534 228.587 87.6187C227.607 87.1756 226.831 86.5236 226.26 85.6628C225.698 84.7935 225.417 83.7111 225.417 82.4156C225.417 81.3247 225.617 80.4085 226.017 79.667C226.418 78.9256 226.963 78.329 227.654 77.8773C228.344 77.4256 229.128 77.0847 230.006 76.8545C230.892 76.6244 231.821 76.4625 232.793 76.3687C233.935 76.2494 234.855 76.1386 235.554 76.0364C236.253 75.9256 236.76 75.7636 237.076 75.5506C237.391 75.3375 237.549 75.0222 237.549 74.6045V74.5278C237.549 73.7182 237.293 73.0918 236.782 72.6486C236.279 72.2054 235.563 71.9838 234.634 71.9838C233.654 71.9838 232.874 72.2011 232.294 72.6358C231.715 73.0619 231.331 73.5989 231.144 74.2466L226.107 73.8375C226.363 72.6443 226.865 71.6131 227.615 70.7437C228.365 69.8659 229.333 69.1926 230.517 68.7239C231.711 68.2466 233.091 68.0079 234.659 68.0079C235.75 68.0079 236.794 68.1358 237.792 68.3915C238.797 68.6472 239.688 69.0435 240.463 69.5804C241.248 70.1173 241.865 70.8077 242.317 71.6514C242.769 72.4866 242.995 73.4881 242.995 74.6557V87.9H237.83V85.177H237.676C237.361 85.7906 236.939 86.3318 236.411 86.8006C235.882 87.2608 235.248 87.623 234.506 87.8872C233.765 88.1429 232.908 88.2707 231.936 88.2707ZM233.496 84.5122C234.297 84.5122 235.005 84.3545 235.618 84.0392C236.232 83.7153 236.713 83.2807 237.063 82.7352C237.412 82.1898 237.587 81.5719 237.587 80.8815V78.7977C237.417 78.9085 237.182 79.0108 236.884 79.1045C236.594 79.1898 236.266 79.2707 235.899 79.3474C235.533 79.4156 235.167 79.4795 234.8 79.5392C234.434 79.5903 234.101 79.6372 233.803 79.6798C233.164 79.7736 232.605 79.9227 232.128 80.1273C231.651 80.3318 231.28 80.6088 231.016 80.9582C230.752 81.2991 230.62 81.7253 230.62 82.2366C230.62 82.9781 230.888 83.5449 231.425 83.9369C231.971 84.3204 232.661 84.5122 233.496 84.5122ZM247.22 87.9V68.2636H252.666V87.9H247.22ZM249.956 65.7324C249.146 65.7324 248.451 65.4639 247.872 64.927C247.301 64.3815 247.015 63.7295 247.015 62.971C247.015 62.221 247.301 61.5775 247.872 61.0406C248.451 60.4952 249.146 60.2224 249.956 60.2224C250.765 60.2224 251.456 60.4952 252.027 61.0406C252.606 61.5775 252.896 62.221 252.896 62.971C252.896 63.7295 252.606 64.3815 252.027 64.927C251.456 65.4639 250.765 65.7324 249.956 65.7324ZM265.901 88.2835C263.915 88.2835 262.197 87.8616 260.749 87.0179C259.308 86.1656 258.196 84.981 257.412 83.4639C256.628 81.9383 256.236 80.1699 256.236 78.1585C256.236 76.1301 256.628 74.3574 257.412 72.8403C258.196 71.3148 259.308 70.1301 260.749 69.2864C262.197 68.4341 263.915 68.0079 265.901 68.0079C267.886 68.0079 269.599 68.4341 271.04 69.2864C272.489 70.1301 273.605 71.3148 274.389 72.8403C275.173 74.3574 275.565 76.1301 275.565 78.1585C275.565 80.1699 275.173 81.9383 274.389 83.4639C273.605 84.981 272.489 86.1656 271.04 87.0179C269.599 87.8616 267.886 88.2835 265.901 88.2835ZM265.926 84.0648C266.83 84.0648 267.584 83.8091 268.189 83.2977C268.794 82.7778 269.25 82.0704 269.557 81.1756C269.872 80.2807 270.03 79.2622 270.03 78.1202C270.03 76.9781 269.872 75.9597 269.557 75.0648C269.25 74.1699 268.794 73.4625 268.189 72.9426C267.584 72.4227 266.83 72.1628 265.926 72.1628C265.014 72.1628 264.247 72.4227 263.625 72.9426C263.011 73.4625 262.547 74.1699 262.232 75.0648C261.925 75.9597 261.771 76.9781 261.771 78.1202C261.771 79.2622 261.925 80.2807 262.232 81.1756C262.547 82.0704 263.011 82.7778 263.625 83.2977C264.247 83.8091 265.014 84.0648 265.926 84.0648ZM284.553 76.5477V87.9H279.107V68.2636H284.297V71.7281H284.527C284.962 70.5861 285.69 69.6827 286.713 69.0179C287.736 68.3446 288.976 68.0079 290.433 68.0079C291.797 68.0079 292.986 68.3062 294 68.9028C295.014 69.4994 295.803 70.3517 296.365 71.4597C296.928 72.5591 297.209 73.8716 297.209 75.3972V87.9H291.763V76.3687C291.771 75.167 291.464 74.2295 290.842 73.5562C290.22 72.8744 289.364 72.5335 288.273 72.5335C287.54 72.5335 286.892 72.6912 286.33 73.0065C285.776 73.3219 285.341 73.7821 285.026 74.3872C284.719 74.9838 284.561 75.704 284.553 76.5477Z" fill="white"/>
<path d="M57.5905 49.6736H45.7985L52.0045 61.1081C52.4368 61.9009 51.9428 62.7897 50.9547 63.126L45.4897 64.9276C44.4709 65.264 43.3284 64.8796 42.8962 64.1109L36.9989 53.2529L27.3656 60.7478C26.0819 61.7464 24 60.9765 24 59.6668V23.5386C24 22.1596 26.2144 21.4874 27.3655 22.4576L58.9799 47.0552C60.2551 47.9951 59.3142 49.6736 57.5905 49.6736V49.6736Z" fill="#FFA800"/>
</svg>
