<svg width="538" height="158" viewBox="0 0 538 158" fill="none" xmlns="http://www.w3.org/2000/svg">
<rect width="538" height="158" fill="white"/>
<path d="M142.206 71H137.262L128.814 38.648H132.894L135.918 50.648L139.902 66.92C141.694 60.36 143.214 54.936 144.462 50.648L147.822 39.128H151.71L155.262 50.648L160.158 67.064C161.63 59.992 162.814 54.536 163.71 50.696L166.446 38.648H170.382L162.798 71H157.806L154.686 60.776L149.838 44.6C148.846 48.376 147.31 53.768 145.23 60.776L142.206 71ZM197.045 58.904C197.045 62.52 196.021 65.512 193.973 67.88C191.925 70.248 189.109 71.432 185.525 71.432C182.037 71.432 179.269 70.264 177.221 67.928C175.205 65.56 174.197 62.584 174.197 59C174.197 55.384 175.237 52.376 177.317 49.976C179.429 47.544 182.165 46.328 185.525 46.328C189.205 46.328 192.037 47.512 194.021 49.88C196.037 52.248 197.045 55.256 197.045 58.904ZM178.133 58.952C178.133 61.48 178.805 63.64 180.149 65.432C181.493 67.192 183.285 68.072 185.525 68.072C187.957 68.072 189.829 67.208 191.141 65.48C192.453 63.72 193.109 61.544 193.109 58.952C193.109 56.264 192.485 54.056 191.237 52.328C189.989 50.568 188.085 49.688 185.525 49.688C183.221 49.688 181.413 50.584 180.101 52.376C178.789 54.168 178.133 56.36 178.133 58.952ZM206.334 71H202.542L202.59 46.664H206.334V50.936C207.614 47.928 209.822 46.424 212.958 46.424C213.534 46.424 213.982 46.456 214.302 46.52V50.264C213.63 50.04 212.942 49.928 212.238 49.928C210.542 49.928 209.134 50.712 208.014 52.28C206.894 53.848 206.334 55.656 206.334 57.704V71ZM220.742 59.096C220.742 61.72 221.382 63.848 222.662 65.48C223.942 67.112 225.558 67.928 227.51 67.928C229.494 67.928 231.174 67.192 232.55 65.72C233.958 64.248 234.662 61.896 234.662 58.664C234.662 55.592 233.942 53.336 232.502 51.896C231.062 50.456 229.478 49.736 227.75 49.736C225.734 49.736 224.054 50.552 222.71 52.184C221.398 53.784 220.742 56.088 220.742 59.096ZM238.454 71H234.662V67.4C232.934 70.056 230.438 71.384 227.174 71.384C223.942 71.384 221.398 70.184 219.542 67.784C217.718 65.384 216.806 62.472 216.806 59.048C216.806 55.24 217.782 52.168 219.734 49.832C221.686 47.464 224.198 46.28 227.27 46.28C230.438 46.28 232.902 47.64 234.662 50.36V37.064H238.454V71ZM254.553 59.096H249.561V71H245.673V38.648H254.169C257.913 38.648 260.857 39.624 263.001 41.576C265.177 43.496 266.265 45.992 266.265 49.064C266.265 51.944 265.193 54.344 263.049 56.264C260.905 58.152 258.073 59.096 254.553 59.096ZM254.217 41.96H249.561V55.784H254.553C256.985 55.784 258.889 55.16 260.265 53.912C261.641 52.632 262.329 51.016 262.329 49.064C262.329 46.888 261.625 45.16 260.217 43.88C258.809 42.6 256.809 41.96 254.217 41.96ZM275.381 71H271.589L271.637 46.664H275.381V50.936C276.661 47.928 278.869 46.424 282.005 46.424C282.581 46.424 283.029 46.456 283.349 46.52V50.264C282.677 50.04 281.989 49.928 281.285 49.928C279.589 49.928 278.181 50.712 277.061 52.28C275.941 53.848 275.381 55.656 275.381 57.704V71ZM305.053 69.752C303.165 70.744 300.861 71.24 298.141 71.24C294.461 71.24 291.485 70.12 289.213 67.88C286.973 65.608 285.853 62.616 285.853 58.904C285.853 55.032 286.861 51.976 288.877 49.736C290.893 47.496 293.485 46.376 296.653 46.376C299.693 46.376 302.109 47.352 303.901 49.304C305.693 51.256 306.589 54.024 306.589 57.608C306.589 58.632 306.509 59.576 306.349 60.44H289.741C290.029 62.84 290.941 64.68 292.477 65.96C294.013 67.24 296.029 67.88 298.525 67.88C301.245 67.88 303.421 67.32 305.053 66.2V69.752ZM296.653 49.688C294.829 49.688 293.277 50.344 291.997 51.656C290.717 52.968 289.965 54.84 289.741 57.272H302.797V56.312C302.797 54.296 302.253 52.696 301.165 51.512C300.077 50.296 298.573 49.688 296.653 49.688ZM327.011 64.52C327.011 66.6 326.275 68.248 324.803 69.464C323.363 70.68 321.379 71.288 318.851 71.288C315.907 71.288 313.523 70.792 311.699 69.8V66.104C313.843 67.384 316.147 68.024 318.611 68.024C320.083 68.024 321.203 67.736 321.971 67.16C322.739 66.584 323.123 65.8 323.123 64.808C323.123 63.656 322.691 62.76 321.827 62.12C320.995 61.48 319.587 60.76 317.603 59.96C315.779 59.256 314.307 58.376 313.187 57.32C312.099 56.264 311.555 54.84 311.555 53.048C311.555 51.032 312.307 49.432 313.811 48.248C315.347 47.032 317.251 46.424 319.523 46.424C322.051 46.424 324.083 46.776 325.619 47.48V51.08C324.147 50.184 322.131 49.736 319.571 49.736C318.291 49.736 317.267 50.04 316.499 50.648C315.763 51.224 315.395 51.976 315.395 52.904C315.395 53.48 315.507 53.992 315.731 54.44C315.955 54.856 316.387 55.272 317.027 55.688C317.699 56.104 318.179 56.392 318.467 56.552C318.787 56.68 319.459 56.968 320.483 57.416C322.531 58.248 324.131 59.192 325.283 60.248C326.435 61.304 327.011 62.728 327.011 64.52ZM346.792 64.52C346.792 66.6 346.056 68.248 344.584 69.464C343.144 70.68 341.16 71.288 338.632 71.288C335.688 71.288 333.304 70.792 331.48 69.8V66.104C333.624 67.384 335.928 68.024 338.392 68.024C339.864 68.024 340.984 67.736 341.752 67.16C342.52 66.584 342.904 65.8 342.904 64.808C342.904 63.656 342.472 62.76 341.608 62.12C340.776 61.48 339.368 60.76 337.384 59.96C335.56 59.256 334.088 58.376 332.968 57.32C331.88 56.264 331.336 54.84 331.336 53.048C331.336 51.032 332.088 49.432 333.592 48.248C335.128 47.032 337.032 46.424 339.304 46.424C341.832 46.424 343.864 46.776 345.4 47.48V51.08C343.928 50.184 341.912 49.736 339.352 49.736C338.072 49.736 337.048 50.04 336.28 50.648C335.544 51.224 335.176 51.976 335.176 52.904C335.176 53.48 335.288 53.992 335.512 54.44C335.736 54.856 336.168 55.272 336.808 55.688C337.48 56.104 337.96 56.392 338.248 56.552C338.568 56.68 339.24 56.968 340.264 57.416C342.312 58.248 343.912 59.192 345.064 60.248C346.216 61.304 346.792 62.728 346.792 64.52ZM387.316 71H383.428V56.36H367.732V71H363.844V38.648H367.732V52.856H383.428V38.648H387.316V71ZM415.904 58.904C415.904 62.52 414.88 65.512 412.832 67.88C410.784 70.248 407.968 71.432 404.384 71.432C400.896 71.432 398.128 70.264 396.08 67.928C394.064 65.56 393.056 62.584 393.056 59C393.056 55.384 394.096 52.376 396.176 49.976C398.288 47.544 401.024 46.328 404.384 46.328C408.064 46.328 410.896 47.512 412.88 49.88C414.896 52.248 415.904 55.256 415.904 58.904ZM396.992 58.952C396.992 61.48 397.664 63.64 399.008 65.432C400.352 67.192 402.144 68.072 404.384 68.072C406.816 68.072 408.688 67.208 410 65.48C411.312 63.72 411.968 61.544 411.968 58.952C411.968 56.264 411.344 54.056 410.096 52.328C408.848 50.568 406.944 49.688 404.384 49.688C402.08 49.688 400.272 50.584 398.96 52.376C397.648 54.168 396.992 56.36 396.992 58.952ZM436.089 64.52C436.089 66.6 435.353 68.248 433.881 69.464C432.441 70.68 430.457 71.288 427.929 71.288C424.985 71.288 422.601 70.792 420.777 69.8V66.104C422.921 67.384 425.225 68.024 427.689 68.024C429.161 68.024 430.281 67.736 431.049 67.16C431.817 66.584 432.201 65.8 432.201 64.808C432.201 63.656 431.769 62.76 430.905 62.12C430.073 61.48 428.665 60.76 426.681 59.96C424.857 59.256 423.385 58.376 422.265 57.32C421.177 56.264 420.633 54.84 420.633 53.048C420.633 51.032 421.385 49.432 422.889 48.248C424.425 47.032 426.329 46.424 428.601 46.424C431.129 46.424 433.161 46.776 434.697 47.48V51.08C433.225 50.184 431.209 49.736 428.649 49.736C427.369 49.736 426.345 50.04 425.577 50.648C424.841 51.224 424.473 51.976 424.473 52.904C424.473 53.48 424.585 53.992 424.809 54.44C425.033 54.856 425.465 55.272 426.105 55.688C426.777 56.104 427.257 56.392 427.545 56.552C427.865 56.68 428.537 56.968 429.561 57.416C431.609 58.248 433.209 59.192 434.361 60.248C435.513 61.304 436.089 62.728 436.089 64.52ZM453.423 70.376C452.367 70.952 451.183 71.24 449.871 71.24C445.071 71.24 442.671 68.792 442.671 63.896V49.736H438.783V46.664H442.671V40.616H446.463V46.664H453.183V49.736H446.463V63.992C446.463 66.584 447.679 67.88 450.111 67.88C451.359 67.88 452.463 67.512 453.423 66.776V70.376ZM462.933 71H459.141V46.664H462.933V71ZM462.789 37.256C463.269 37.736 463.509 38.328 463.509 39.032C463.509 39.736 463.269 40.328 462.789 40.808C462.309 41.256 461.717 41.48 461.013 41.48C460.309 41.48 459.717 41.256 459.237 40.808C458.789 40.328 458.565 39.736 458.565 39.032C458.565 38.328 458.789 37.736 459.237 37.256C459.717 36.776 460.309 36.536 461.013 36.536C461.717 36.536 462.309 36.776 462.789 37.256ZM489.352 71H485.56V55.256C485.56 53.464 485.096 52.104 484.168 51.176C483.272 50.216 482.088 49.736 480.616 49.736C478.792 49.736 477.208 50.44 475.864 51.848C474.552 53.256 473.896 55.208 473.896 57.704V71H470.152V46.664H473.896V50.888C475.336 47.848 477.896 46.328 481.576 46.328C483.944 46.328 485.832 47.048 487.24 48.488C488.648 49.928 489.352 51.848 489.352 54.248V71ZM515.706 69.032C515.706 72.744 514.682 75.528 512.634 77.384C510.586 79.272 507.946 80.216 504.714 80.216C501.77 80.216 499.258 79.72 497.178 78.728V74.936C499.226 76.12 501.626 76.712 504.378 76.712C506.714 76.712 508.554 76.088 509.898 74.84C511.242 73.592 511.914 71.64 511.914 68.984V66.248C510.314 69 507.93 70.376 504.762 70.376C501.978 70.376 499.594 69.352 497.61 67.304C495.658 65.256 494.682 62.408 494.682 58.76C494.682 55.144 495.594 52.168 497.418 49.832C499.242 47.496 501.626 46.328 504.57 46.328C507.898 46.328 510.346 47.784 511.914 50.696V46.664H515.706V69.032ZM498.618 58.664C498.618 61.384 499.29 63.464 500.634 64.904C501.978 66.312 503.498 67.016 505.194 67.016C506.954 67.016 508.506 66.344 509.85 65C511.226 63.624 511.914 61.592 511.914 58.904C511.914 55.8 511.258 53.496 509.946 51.992C508.634 50.488 507.114 49.736 505.386 49.736C503.306 49.736 501.658 50.568 500.442 52.232C499.226 53.864 498.618 56.008 498.618 58.664Z" fill="black"/>
<path d="M148.06 97.2C148.06 99.32 147.513 101.013 146.42 102.28C145.34 103.533 143.873 104.16 142.02 104.16C140.193 104.16 138.727 103.527 137.62 102.26C136.513 100.993 135.96 99.3067 135.96 97.2C135.96 95.08 136.5 93.3933 137.58 92.14C138.673 90.8867 140.147 90.26 142 90.26C143.893 90.26 145.373 90.8867 146.44 92.14C147.52 93.38 148.06 95.0667 148.06 97.2ZM137.66 97.2C137.66 98.8667 138.053 100.187 138.84 101.16C139.64 102.133 140.7 102.62 142.02 102.62C143.393 102.62 144.453 102.14 145.2 101.18C145.96 100.22 146.34 98.8933 146.34 97.2C146.34 95.5067 145.96 94.18 145.2 93.22C144.44 92.26 143.373 91.78 142 91.78C140.64 91.78 139.573 92.2667 138.8 93.24C138.04 94.2 137.66 95.52 137.66 97.2ZM152.024 107.94H150.464V93.86H152.024V95.4C152.731 94.2667 153.777 93.7 155.164 93.7C156.511 93.7 157.564 94.1933 158.324 95.18C159.097 96.1533 159.484 97.3733 159.484 98.84C159.484 100.4 159.077 101.68 158.264 102.68C157.464 103.667 156.417 104.16 155.124 104.16C153.791 104.16 152.757 103.593 152.024 102.46V107.94ZM152.024 98.94C152.024 100.233 152.324 101.187 152.924 101.8C153.524 102.413 154.191 102.72 154.924 102.72C155.777 102.72 156.477 102.387 157.024 101.72C157.571 101.04 157.844 100.08 157.844 98.84C157.844 97.7333 157.577 96.84 157.044 96.16C156.511 95.48 155.837 95.14 155.024 95.14C154.211 95.14 153.504 95.44 152.904 96.04C152.317 96.6267 152.024 97.5933 152.024 98.94ZM166.892 103.74C166.452 103.98 165.958 104.1 165.412 104.1C163.412 104.1 162.412 103.08 162.412 101.04V95.14H160.792V93.86H162.412V91.34H163.992V93.86H166.792V95.14H163.992V101.08C163.992 102.16 164.498 102.7 165.512 102.7C166.032 102.7 166.492 102.547 166.892 102.24V103.74ZM170.854 104H169.274V93.86H170.854V104ZM170.794 89.94C170.994 90.14 171.094 90.3867 171.094 90.68C171.094 90.9733 170.994 91.22 170.794 91.42C170.594 91.6067 170.348 91.7 170.054 91.7C169.761 91.7 169.514 91.6067 169.314 91.42C169.128 91.22 169.034 90.9733 169.034 90.68C169.034 90.3867 169.128 90.14 169.314 89.94C169.514 89.74 169.761 89.64 170.054 89.64C170.348 89.64 170.594 89.74 170.794 89.94ZM187.422 104H185.842V97.44C185.842 95.9067 185.196 95.14 183.902 95.14C183.262 95.14 182.689 95.4333 182.182 96.02C181.676 96.5933 181.422 97.4067 181.422 98.46V104H179.842V97.44C179.842 95.9067 179.196 95.14 177.902 95.14C177.262 95.14 176.689 95.4333 176.182 96.02C175.676 96.5933 175.422 97.4067 175.422 98.46V104H173.862V93.86H175.422V95.5C175.982 94.3133 176.936 93.72 178.282 93.72C179.842 93.72 180.829 94.38 181.242 95.7C181.536 95.06 181.942 94.5733 182.462 94.24C182.996 93.8933 183.589 93.72 184.242 93.72C185.296 93.72 186.089 94.02 186.622 94.62C187.156 95.22 187.422 96.0267 187.422 97.04V104ZM191.89 104H190.31V93.86H191.89V104ZM191.83 89.94C192.03 90.14 192.13 90.3867 192.13 90.68C192.13 90.9733 192.03 91.22 191.83 91.42C191.63 91.6067 191.383 91.7 191.09 91.7C190.796 91.7 190.55 91.6067 190.35 91.42C190.163 91.22 190.07 90.9733 190.07 90.68C190.07 90.3867 190.163 90.14 190.35 89.94C190.55 89.74 190.796 89.64 191.09 89.64C191.383 89.64 191.63 89.74 191.83 89.94ZM201.618 104H194.318V102.76L199.458 95.26H194.518V93.86H201.338V95.02L196.138 102.58H201.618V104ZM211.36 103.48C210.573 103.893 209.613 104.1 208.48 104.1C206.947 104.1 205.707 103.633 204.76 102.7C203.827 101.753 203.36 100.507 203.36 98.96C203.36 97.3467 203.78 96.0733 204.62 95.14C205.46 94.2067 206.54 93.74 207.86 93.74C209.127 93.74 210.133 94.1467 210.88 94.96C211.627 95.7733 212 96.9267 212 98.42C212 98.8467 211.967 99.24 211.9 99.6H204.98C205.1 100.6 205.48 101.367 206.12 101.9C206.76 102.433 207.6 102.7 208.64 102.7C209.773 102.7 210.68 102.467 211.36 102V103.48ZM207.86 95.12C207.1 95.12 206.453 95.3933 205.92 95.94C205.387 96.4867 205.073 97.2667 204.98 98.28H210.42V97.88C210.42 97.04 210.193 96.3733 209.74 95.88C209.287 95.3733 208.66 95.12 207.86 95.12ZM215.449 99.04C215.449 100.133 215.716 101.02 216.249 101.7C216.783 102.38 217.456 102.72 218.269 102.72C219.096 102.72 219.796 102.413 220.369 101.8C220.956 101.187 221.249 100.207 221.249 98.86C221.249 97.58 220.949 96.64 220.349 96.04C219.749 95.44 219.089 95.14 218.369 95.14C217.529 95.14 216.829 95.48 216.269 96.16C215.723 96.8267 215.449 97.7867 215.449 99.04ZM222.829 104H221.249V102.5C220.529 103.607 219.489 104.16 218.129 104.16C216.783 104.16 215.723 103.66 214.949 102.66C214.189 101.66 213.809 100.447 213.809 99.02C213.809 97.4333 214.216 96.1533 215.029 95.18C215.843 94.1933 216.889 93.7 218.169 93.7C219.489 93.7 220.516 94.2667 221.249 95.4V89.86H222.829V104ZM236.74 101.3C236.74 102.167 236.433 102.853 235.82 103.36C235.22 103.867 234.393 104.12 233.34 104.12C232.113 104.12 231.12 103.913 230.36 103.5V101.96C231.253 102.493 232.213 102.76 233.24 102.76C233.853 102.76 234.32 102.64 234.64 102.4C234.96 102.16 235.12 101.833 235.12 101.42C235.12 100.94 234.94 100.567 234.58 100.3C234.233 100.033 233.646 99.7333 232.82 99.4C232.06 99.1067 231.446 98.74 230.98 98.3C230.526 97.86 230.3 97.2667 230.3 96.52C230.3 95.68 230.613 95.0133 231.24 94.52C231.88 94.0133 232.673 93.76 233.62 93.76C234.673 93.76 235.52 93.9067 236.16 94.2V95.7C235.546 95.3267 234.706 95.14 233.64 95.14C233.106 95.14 232.68 95.2667 232.36 95.52C232.053 95.76 231.9 96.0733 231.9 96.46C231.9 96.7 231.946 96.9133 232.04 97.1C232.133 97.2733 232.313 97.4467 232.58 97.62C232.86 97.7933 233.06 97.9133 233.18 97.98C233.313 98.0333 233.593 98.1533 234.02 98.34C234.873 98.6867 235.54 99.08 236.02 99.52C236.5 99.96 236.74 100.553 236.74 101.3ZM247.802 98.96C247.802 100.467 247.375 101.713 246.522 102.7C245.669 103.687 244.495 104.18 243.002 104.18C241.549 104.18 240.395 103.693 239.542 102.72C238.702 101.733 238.282 100.493 238.282 99C238.282 97.4933 238.715 96.24 239.582 95.24C240.462 94.2267 241.602 93.72 243.002 93.72C244.535 93.72 245.715 94.2133 246.542 95.2C247.382 96.1867 247.802 97.44 247.802 98.96ZM239.922 98.98C239.922 100.033 240.202 100.933 240.762 101.68C241.322 102.413 242.069 102.78 243.002 102.78C244.015 102.78 244.795 102.42 245.342 101.7C245.889 100.967 246.162 100.06 246.162 98.98C246.162 97.86 245.902 96.94 245.382 96.22C244.862 95.4867 244.069 95.12 243.002 95.12C242.042 95.12 241.289 95.4933 240.742 96.24C240.195 96.9867 239.922 97.9 239.922 98.98ZM251.772 104H250.192V89.86H251.772V104ZM262.66 104H261.08V102.24C260.547 103.493 259.487 104.12 257.9 104.12C256.9 104.12 256.107 103.827 255.52 103.24C254.947 102.64 254.66 101.84 254.66 100.84V93.86H256.24V100.44C256.24 101.173 256.427 101.733 256.8 102.12C257.174 102.507 257.68 102.7 258.32 102.7C259.16 102.7 259.827 102.407 260.32 101.82C260.827 101.233 261.08 100.44 261.08 99.44V93.86H262.66V104ZM270.661 103.74C270.221 103.98 269.728 104.1 269.181 104.1C267.181 104.1 266.181 103.08 266.181 101.04V95.14H264.561V93.86H266.181V91.34H267.761V93.86H270.561V95.14H267.761V101.08C267.761 102.16 268.268 102.7 269.281 102.7C269.801 102.7 270.261 102.547 270.661 102.24V103.74ZM274.624 104H273.044V93.86H274.624V104ZM274.564 89.94C274.764 90.14 274.864 90.3867 274.864 90.68C274.864 90.9733 274.764 91.22 274.564 91.42C274.364 91.6067 274.117 91.7 273.824 91.7C273.531 91.7 273.284 91.6067 273.084 91.42C272.897 91.22 272.804 90.9733 272.804 90.68C272.804 90.3867 272.897 90.14 273.084 89.94C273.284 89.74 273.531 89.64 273.824 89.64C274.117 89.64 274.364 89.74 274.564 89.94ZM286.552 98.96C286.552 100.467 286.125 101.713 285.272 102.7C284.419 103.687 283.245 104.18 281.752 104.18C280.299 104.18 279.145 103.693 278.292 102.72C277.452 101.733 277.032 100.493 277.032 99C277.032 97.4933 277.465 96.24 278.332 95.24C279.212 94.2267 280.352 93.72 281.752 93.72C283.285 93.72 284.465 94.2133 285.292 95.2C286.132 96.1867 286.552 97.44 286.552 98.96ZM278.672 98.98C278.672 100.033 278.952 100.933 279.512 101.68C280.072 102.413 280.819 102.78 281.752 102.78C282.765 102.78 283.545 102.42 284.092 101.7C284.639 100.967 284.912 100.06 284.912 98.98C284.912 97.86 284.652 96.94 284.132 96.22C283.612 95.4867 282.819 95.12 281.752 95.12C280.792 95.12 280.039 95.4933 279.492 96.24C278.945 96.9867 278.672 97.9 278.672 98.98ZM296.862 104H295.282V97.44C295.282 96.6933 295.089 96.1267 294.702 95.74C294.329 95.34 293.836 95.14 293.222 95.14C292.462 95.14 291.802 95.4333 291.242 96.02C290.696 96.6067 290.422 97.42 290.422 98.46V104H288.862V93.86H290.422V95.62C291.022 94.3533 292.089 93.72 293.622 93.72C294.609 93.72 295.396 94.02 295.982 94.62C296.569 95.22 296.862 96.02 296.862 97.02V104ZM309.246 95.14H307.006V104H305.426V95.14H303.686V93.86H305.426V92.92C305.426 91.9333 305.686 91.1533 306.206 90.58C306.739 90.0067 307.473 89.72 308.406 89.72C308.726 89.72 309.053 89.7667 309.386 89.86V91.3C309.066 91.1933 308.759 91.14 308.466 91.14C308.039 91.14 307.686 91.2867 307.406 91.58C307.139 91.8733 307.006 92.3267 307.006 92.94V93.86H309.246V95.14ZM320.048 98.96C320.048 100.467 319.621 101.713 318.768 102.7C317.915 103.687 316.741 104.18 315.248 104.18C313.795 104.18 312.641 103.693 311.788 102.72C310.948 101.733 310.528 100.493 310.528 99C310.528 97.4933 310.961 96.24 311.828 95.24C312.708 94.2267 313.848 93.72 315.248 93.72C316.781 93.72 317.961 94.2133 318.788 95.2C319.628 96.1867 320.048 97.44 320.048 98.96ZM312.168 98.98C312.168 100.033 312.448 100.933 313.008 101.68C313.568 102.413 314.315 102.78 315.248 102.78C316.261 102.78 317.041 102.42 317.588 101.7C318.135 100.967 318.408 100.06 318.408 98.98C318.408 97.86 318.148 96.94 317.628 96.22C317.108 95.4867 316.315 95.12 315.248 95.12C314.288 95.12 313.535 95.4933 312.988 96.24C312.441 96.9867 312.168 97.9 312.168 98.98ZM323.918 104H322.338L322.358 93.86H323.918V95.64C324.452 94.3867 325.372 93.76 326.678 93.76C326.918 93.76 327.105 93.7733 327.238 93.8V95.36C326.958 95.2667 326.672 95.22 326.378 95.22C325.672 95.22 325.085 95.5467 324.618 96.2C324.152 96.8533 323.918 97.6067 323.918 98.46V104ZM337.865 104H335.925L332.805 93.86H334.485L335.465 97.22C335.811 98.3933 336.098 99.42 336.325 100.3C336.565 101.167 336.718 101.747 336.785 102.04L336.885 102.46C337.085 101.607 337.571 99.8533 338.345 97.2L339.305 93.86H340.985L341.965 97.2L343.465 102.48C343.651 101.693 344.165 99.9333 345.005 97.2L346.025 93.86H347.645L344.445 104H342.505L341.545 100.68L340.145 95.62C339.945 96.4733 339.491 98.16 338.785 100.68L337.865 104ZM358.525 98.96C358.525 100.467 358.098 101.713 357.245 102.7C356.391 103.687 355.218 104.18 353.725 104.18C352.271 104.18 351.118 103.693 350.265 102.72C349.425 101.733 349.005 100.493 349.005 99C349.005 97.4933 349.438 96.24 350.305 95.24C351.185 94.2267 352.325 93.72 353.725 93.72C355.258 93.72 356.438 94.2133 357.265 95.2C358.105 96.1867 358.525 97.44 358.525 98.96ZM350.645 98.98C350.645 100.033 350.925 100.933 351.485 101.68C352.045 102.413 352.791 102.78 353.725 102.78C354.738 102.78 355.518 102.42 356.065 101.7C356.611 100.967 356.885 100.06 356.885 98.98C356.885 97.86 356.625 96.94 356.105 96.22C355.585 95.4867 354.791 95.12 353.725 95.12C352.765 95.12 352.011 95.4933 351.465 96.24C350.918 96.9867 350.645 97.9 350.645 98.98ZM362.395 104H360.815L360.835 93.86H362.395V95.64C362.928 94.3867 363.848 93.76 365.155 93.76C365.395 93.76 365.582 93.7733 365.715 93.8V95.36C365.435 95.2667 365.148 95.22 364.855 95.22C364.148 95.22 363.562 95.5467 363.095 96.2C362.628 96.8533 362.395 97.6067 362.395 98.46V104ZM368.398 99.04C368.398 100.133 368.665 101.02 369.198 101.7C369.732 102.38 370.405 102.72 371.218 102.72C372.045 102.72 372.745 102.413 373.318 101.8C373.905 101.187 374.198 100.207 374.198 98.86C374.198 97.58 373.898 96.64 373.298 96.04C372.698 95.44 372.038 95.14 371.318 95.14C370.478 95.14 369.778 95.48 369.218 96.16C368.672 96.8267 368.398 97.7867 368.398 99.04ZM375.778 104H374.198V102.5C373.478 103.607 372.438 104.16 371.078 104.16C369.732 104.16 368.672 103.66 367.898 102.66C367.138 101.66 366.758 100.447 366.758 99.02C366.758 97.4333 367.165 96.1533 367.978 95.18C368.792 94.1933 369.838 93.7 371.118 93.7C372.438 93.7 373.465 94.2667 374.198 95.4V89.86H375.778V104ZM382.486 99.04H380.406V104H378.786V90.52H382.326C383.886 90.52 385.113 90.9267 386.006 91.74C386.913 92.54 387.366 93.58 387.366 94.86C387.366 96.06 386.919 97.06 386.026 97.86C385.133 98.6467 383.953 99.04 382.486 99.04ZM382.346 91.9H380.406V97.66H382.486C383.499 97.66 384.293 97.4 384.866 96.88C385.439 96.3467 385.726 95.6733 385.726 94.86C385.726 93.9533 385.433 93.2333 384.846 92.7C384.259 92.1667 383.426 91.9 382.346 91.9ZM391.165 104H389.585L389.605 93.86H391.165V95.64C391.698 94.3867 392.618 93.76 393.925 93.76C394.165 93.76 394.351 93.7733 394.485 93.8V95.36C394.205 95.2667 393.918 95.22 393.625 95.22C392.918 95.22 392.331 95.5467 391.865 96.2C391.398 96.8533 391.165 97.6067 391.165 98.46V104ZM403.528 103.48C402.741 103.893 401.781 104.1 400.648 104.1C399.115 104.1 397.875 103.633 396.928 102.7C395.995 101.753 395.528 100.507 395.528 98.96C395.528 97.3467 395.948 96.0733 396.788 95.14C397.628 94.2067 398.708 93.74 400.028 93.74C401.295 93.74 402.301 94.1467 403.048 94.96C403.795 95.7733 404.168 96.9267 404.168 98.42C404.168 98.8467 404.135 99.24 404.068 99.6H397.148C397.268 100.6 397.648 101.367 398.288 101.9C398.928 102.433 399.768 102.7 400.808 102.7C401.941 102.7 402.848 102.467 403.528 102V103.48ZM400.028 95.12C399.268 95.12 398.621 95.3933 398.088 95.94C397.555 96.4867 397.241 97.2667 397.148 98.28H402.588V97.88C402.588 97.04 402.361 96.3733 401.908 95.88C401.455 95.3733 400.828 95.12 400.028 95.12ZM412.677 101.3C412.677 102.167 412.371 102.853 411.757 103.36C411.157 103.867 410.331 104.12 409.277 104.12C408.051 104.12 407.057 103.913 406.297 103.5V101.96C407.191 102.493 408.151 102.76 409.177 102.76C409.791 102.76 410.257 102.64 410.577 102.4C410.897 102.16 411.057 101.833 411.057 101.42C411.057 100.94 410.877 100.567 410.517 100.3C410.171 100.033 409.584 99.7333 408.757 99.4C407.997 99.1067 407.384 98.74 406.917 98.3C406.464 97.86 406.237 97.2667 406.237 96.52C406.237 95.68 406.551 95.0133 407.177 94.52C407.817 94.0133 408.611 93.76 409.557 93.76C410.611 93.76 411.457 93.9067 412.097 94.2V95.7C411.484 95.3267 410.644 95.14 409.577 95.14C409.044 95.14 408.617 95.2667 408.297 95.52C407.991 95.76 407.837 96.0733 407.837 96.46C407.837 96.7 407.884 96.9133 407.977 97.1C408.071 97.2733 408.251 97.4467 408.517 97.62C408.797 97.7933 408.997 97.9133 409.117 97.98C409.251 98.0333 409.531 98.1533 409.957 98.34C410.811 98.6867 411.477 99.08 411.957 99.52C412.437 99.96 412.677 100.553 412.677 101.3ZM420.919 101.3C420.919 102.167 420.613 102.853 419.999 103.36C419.399 103.867 418.573 104.12 417.519 104.12C416.293 104.12 415.299 103.913 414.539 103.5V101.96C415.433 102.493 416.393 102.76 417.419 102.76C418.033 102.76 418.499 102.64 418.819 102.4C419.139 102.16 419.299 101.833 419.299 101.42C419.299 100.94 419.119 100.567 418.759 100.3C418.413 100.033 417.826 99.7333 416.999 99.4C416.239 99.1067 415.626 98.74 415.159 98.3C414.706 97.86 414.479 97.2667 414.479 96.52C414.479 95.68 414.793 95.0133 415.419 94.52C416.059 94.0133 416.853 93.76 417.799 93.76C418.853 93.76 419.699 93.9067 420.339 94.2V95.7C419.726 95.3267 418.886 95.14 417.819 95.14C417.286 95.14 416.859 95.2667 416.539 95.52C416.233 95.76 416.079 96.0733 416.079 96.46C416.079 96.7 416.126 96.9133 416.219 97.1C416.313 97.2733 416.493 97.4467 416.759 97.62C417.039 97.7933 417.239 97.9133 417.359 97.98C417.493 98.0333 417.773 98.1533 418.199 98.34C419.053 98.6867 419.719 99.08 420.199 99.52C420.679 99.96 420.919 100.553 420.919 101.3ZM144.46 132H142.88V125.44C142.88 124.707 142.687 124.14 142.3 123.74C141.927 123.34 141.433 123.14 140.82 123.14C140.073 123.14 139.42 123.427 138.86 124C138.3 124.573 138.02 125.393 138.02 126.46V132H136.46V117.86H138.02V123.62C138.62 122.353 139.687 121.72 141.22 121.72C142.193 121.72 142.973 122.02 143.56 122.62C144.16 123.22 144.46 124.033 144.46 125.06V132ZM156.181 126.96C156.181 128.467 155.754 129.713 154.901 130.7C154.047 131.687 152.874 132.18 151.381 132.18C149.927 132.18 148.774 131.693 147.921 130.72C147.081 129.733 146.661 128.493 146.661 127C146.661 125.493 147.094 124.24 147.961 123.24C148.841 122.227 149.981 121.72 151.381 121.72C152.914 121.72 154.094 122.213 154.921 123.2C155.761 124.187 156.181 125.44 156.181 126.96ZM148.301 126.98C148.301 128.033 148.581 128.933 149.141 129.68C149.701 130.413 150.447 130.78 151.381 130.78C152.394 130.78 153.174 130.42 153.721 129.7C154.267 128.967 154.541 128.06 154.541 126.98C154.541 125.86 154.281 124.94 153.761 124.22C153.241 123.487 152.447 123.12 151.381 123.12C150.421 123.12 149.667 123.493 149.121 124.24C148.574 124.987 148.301 125.9 148.301 126.98ZM164.591 129.3C164.591 130.167 164.285 130.853 163.671 131.36C163.071 131.867 162.245 132.12 161.191 132.12C159.965 132.12 158.971 131.913 158.211 131.5V129.96C159.105 130.493 160.065 130.76 161.091 130.76C161.705 130.76 162.171 130.64 162.491 130.4C162.811 130.16 162.971 129.833 162.971 129.42C162.971 128.94 162.791 128.567 162.431 128.3C162.085 128.033 161.498 127.733 160.671 127.4C159.911 127.107 159.298 126.74 158.831 126.3C158.378 125.86 158.151 125.267 158.151 124.52C158.151 123.68 158.465 123.013 159.091 122.52C159.731 122.013 160.525 121.76 161.471 121.76C162.525 121.76 163.371 121.907 164.011 122.2V123.7C163.398 123.327 162.558 123.14 161.491 123.14C160.958 123.14 160.531 123.267 160.211 123.52C159.905 123.76 159.751 124.073 159.751 124.46C159.751 124.7 159.798 124.913 159.891 125.1C159.985 125.273 160.165 125.447 160.431 125.62C160.711 125.793 160.911 125.913 161.031 125.98C161.165 126.033 161.445 126.153 161.871 126.34C162.725 126.687 163.391 127.08 163.871 127.52C164.351 127.96 164.591 128.553 164.591 129.3ZM171.813 131.74C171.373 131.98 170.88 132.1 170.333 132.1C168.333 132.1 167.333 131.08 167.333 129.04V123.14H165.713V121.86H167.333V119.34H168.913V121.86H171.713V123.14H168.913V129.08C168.913 130.16 169.42 130.7 170.433 130.7C170.953 130.7 171.413 130.547 171.813 130.24V131.74ZM175.776 132H174.196V121.86H175.776V132ZM175.716 117.94C175.916 118.14 176.016 118.387 176.016 118.68C176.016 118.973 175.916 119.22 175.716 119.42C175.516 119.607 175.27 119.7 174.976 119.7C174.683 119.7 174.436 119.607 174.236 119.42C174.05 119.22 173.956 118.973 173.956 118.68C173.956 118.387 174.05 118.14 174.236 117.94C174.436 117.74 174.683 117.64 174.976 117.64C175.27 117.64 175.516 117.74 175.716 117.94ZM186.784 132H185.204V125.44C185.204 124.693 185.011 124.127 184.624 123.74C184.251 123.34 183.758 123.14 183.144 123.14C182.384 123.14 181.724 123.433 181.164 124.02C180.618 124.607 180.344 125.42 180.344 126.46V132H178.784V121.86H180.344V123.62C180.944 122.353 182.011 121.72 183.544 121.72C184.531 121.72 185.318 122.02 185.904 122.62C186.491 123.22 186.784 124.02 186.784 125.02V132ZM197.765 131.18C197.765 132.727 197.338 133.887 196.485 134.66C195.632 135.447 194.532 135.84 193.185 135.84C191.958 135.84 190.912 135.633 190.045 135.22V133.64C190.898 134.133 191.898 134.38 193.045 134.38C194.018 134.38 194.785 134.12 195.345 133.6C195.905 133.08 196.185 132.267 196.185 131.16V130.02C195.518 131.167 194.525 131.74 193.205 131.74C192.045 131.74 191.052 131.313 190.225 130.46C189.412 129.607 189.005 128.42 189.005 126.9C189.005 125.393 189.385 124.153 190.145 123.18C190.905 122.207 191.898 121.72 193.125 121.72C194.512 121.72 195.532 122.327 196.185 123.54V121.86H197.765V131.18ZM190.645 126.86C190.645 127.993 190.925 128.86 191.485 129.46C192.045 130.047 192.678 130.34 193.385 130.34C194.118 130.34 194.765 130.06 195.325 129.5C195.898 128.927 196.185 128.08 196.185 126.96C196.185 125.667 195.912 124.707 195.365 124.08C194.818 123.453 194.185 123.14 193.465 123.14C192.598 123.14 191.912 123.487 191.405 124.18C190.898 124.86 190.645 125.753 190.645 126.86ZM201.602 130.14C201.828 130.367 201.942 130.647 201.942 130.98C201.942 131.313 201.828 131.593 201.602 131.82C201.375 132.047 201.095 132.16 200.762 132.16C200.428 132.16 200.148 132.047 199.922 131.82C199.695 131.593 199.582 131.313 199.582 130.98C199.582 130.647 199.695 130.367 199.922 130.14C200.148 129.913 200.428 129.8 200.762 129.8C201.095 129.8 201.375 129.913 201.602 130.14Z" fill="black"/>
<path d="M35.3277 50.4687L53.9625 93.9062C40.9273 88.5312 31.9496 77.1562 31.9496 64C31.9496 59.1719 33.1613 54.6094 35.3277 50.4687V50.4687ZM97.3641 62.3281C97.3641 58.2188 95.6383 55.375 94.1512 53.1563C92.1684 50.4219 90.3141 48.0937 90.3141 45.3594C90.3141 42.2969 93.0312 39.4531 96.8684 39.4531C97.0336 39.4531 97.1988 39.4687 97.3824 39.4844C90.4242 34.0625 81.1711 30.75 71 30.75C57.359 30.75 45.352 36.7031 38.357 45.7344C39.275 45.7656 40.1379 45.7812 40.8723 45.7812C44.948 45.7812 51.282 45.3594 51.282 45.3594C53.3934 45.25 53.632 47.8906 51.5391 48.0937C51.5391 48.0937 49.4277 48.2969 47.0777 48.4062L61.3062 84.4063L69.8617 62.5938L63.7848 48.4062C61.6734 48.2969 59.6906 48.0937 59.6906 48.0937C57.5793 47.9844 57.8363 45.25 59.9293 45.3594C59.9293 45.3594 66.3734 45.7812 70.2105 45.7812C74.2863 45.7812 80.6203 45.3594 80.6203 45.3594C82.7316 45.25 82.9703 47.8906 80.8773 48.0937C80.8773 48.0937 78.766 48.2969 76.416 48.4062L90.5344 84.1406L94.4266 73.0625C96.0789 68.4688 97.3641 65.1719 97.3641 62.3281ZM71.6793 66.9063L59.966 95.8906C63.4727 96.7656 67.1629 97.25 71 97.25C75.5531 97.25 79.9043 96.5781 83.9617 95.3594C83.8516 95.2188 83.7598 95.0625 83.6863 94.9062L71.6793 66.9063ZM105.277 48.0469C105.442 49.1094 105.534 50.2344 105.534 51.4688C105.534 54.8438 104.8 58.625 102.56 63.375L90.6262 92.7344C102.248 86.9687 110.05 76.2656 110.05 64C110.05 58.2188 108.325 52.7812 105.277 48.0469V48.0469ZM116.531 64C116.531 85.375 96.0973 102.75 71 102.75C45.8844 102.75 25.4688 85.3594 25.4688 64C25.4688 42.625 45.8844 25.25 71 25.25C96.0973 25.25 116.531 42.625 116.531 64ZM114.438 64C114.438 43.6094 94.9406 27.0312 71 27.0312C47.041 27.0312 27.5617 43.6094 27.5617 64C27.5617 84.3906 47.0594 100.969 71 100.969C94.959 100.969 114.438 84.3906 114.438 64Z" fill="#FFA800"/>
</svg>
