<svg width="107" height="84" viewBox="0 0 107 84" fill="none" xmlns="http://www.w3.org/2000/svg">
<path d="M104.764 13.1432C103.534 7.96972 99.9078 3.89528 95.3042 2.51256C86.9598 0 53.5 0 53.5 0C53.5 0 20.0403 0 11.6958 2.51256C7.0922 3.8955 3.46646 7.96972 2.23587 13.1432C0 22.5203 0 42.0849 0 42.0849C0 42.0849 0 61.6494 2.23587 71.0266C3.46646 76.2 7.0922 80.1047 11.6958 81.4874C20.0403 84 53.5 84 53.5 84C53.5 84 86.9597 84 95.3042 81.4874C99.9078 80.1047 103.534 76.2 104.764 71.0266C107 61.6494 107 42.0849 107 42.0849C107 42.0849 107 22.5203 104.764 13.1432ZM42.5567 59.848V24.3217L70.5225 42.0853L42.5567 59.848Z" fill="#FFA800"/>
</svg>
