<svg width="1842" height="707" viewBox="0 0 1842 707" fill="none" xmlns="http://www.w3.org/2000/svg">
<g clip-path="url(#clip0_51_5)">
<rect width="1842" height="707" fill="#FFA800"/>
<circle cx="104" cy="435" r="296" fill="white"/>
<circle cx="214.5" cy="60.5" r="237.5" fill="#C98500"/>
<ellipse cx="1638" cy="486" rx="292" ry="295" fill="white"/>
<ellipse cx="1638.39" cy="486.359" rx="207.588" ry="210.067" transform="rotate(10.84 1638.39 486.359)" fill="#FFA800"/>
<ellipse cx="1638" cy="486" rx="119" ry="117" fill="#FFFEFE"/>
<g filter="url(#filter0_d_51_5)">
<path d="M283.405 405L268.237 337.992H282.637L288.973 370.152L292.525 388.776H292.813L297.037 370.152L304.429 337.992H320.365L327.853 370.152L331.981 388.776H332.269L335.821 370.152L342.253 337.992H356.077L340.525 405H323.917L315.469 368.712L312.205 354.024H311.917L308.557 368.712L300.109 405H283.405ZM486.85 406.152C482.434 406.152 478.402 405.416 474.754 403.944C471.106 402.472 468.002 400.296 465.442 397.416C462.882 394.472 460.898 390.856 459.49 386.568C458.082 382.216 457.378 377.192 457.378 371.496C457.378 365.8 458.082 360.808 459.49 356.52C460.898 352.168 462.882 348.552 465.442 345.672C468.002 342.728 471.106 340.52 474.754 339.048C478.402 337.576 482.434 336.84 486.85 336.84C491.266 336.84 495.298 337.576 498.946 339.048C502.594 340.52 505.698 342.728 508.258 345.672C510.818 348.552 512.802 352.168 514.21 356.52C515.618 360.808 516.322 365.8 516.322 371.496C516.322 377.192 515.618 382.216 514.21 386.568C512.802 390.856 510.818 394.472 508.258 397.416C505.698 400.296 502.594 402.472 498.946 403.944C495.298 405.416 491.266 406.152 486.85 406.152ZM486.85 393.192C491.266 393.192 494.69 391.752 497.122 388.872C499.618 385.992 500.866 381.864 500.866 376.488V366.504C500.866 361.128 499.618 357 497.122 354.12C494.69 351.24 491.266 349.8 486.85 349.8C482.434 349.8 478.978 351.24 476.482 354.12C474.05 357 472.834 361.128 472.834 366.504V376.488C472.834 381.864 474.05 385.992 476.482 388.872C478.978 391.752 482.434 393.192 486.85 393.192ZM639.093 405H624.501V337.992H656.277C659.349 337.992 662.133 338.504 664.629 339.528C667.125 340.552 669.237 342.024 670.965 343.944C672.757 345.8 674.133 348.04 675.093 350.664C676.053 353.288 676.533 356.2 676.533 359.4C676.533 363.944 675.509 367.912 673.461 371.304C671.477 374.696 668.437 377.16 664.341 378.696L677.493 405H661.269L649.557 380.424H639.093V405ZM654.453 368.136C656.629 368.136 658.325 367.592 659.541 366.504C660.821 365.352 661.461 363.688 661.461 361.512V357.288C661.461 355.112 660.821 353.48 659.541 352.392C658.325 351.24 656.629 350.664 654.453 350.664H639.093V368.136H654.453ZM785.189 337.992H810.437C814.853 337.992 818.885 338.696 822.533 340.104C826.181 341.512 829.285 343.624 831.845 346.44C834.405 349.192 836.389 352.68 837.797 356.904C839.205 361.064 839.909 365.928 839.909 371.496C839.909 377.064 839.205 381.96 837.797 386.184C836.389 390.344 834.405 393.832 831.845 396.648C829.285 399.4 826.181 401.48 822.533 402.888C818.885 404.296 814.853 405 810.437 405H785.189V337.992ZM810.437 392.04C814.789 392.04 818.213 390.824 820.709 388.392C823.205 385.96 824.453 382.056 824.453 376.68V366.312C824.453 360.936 823.205 357.032 820.709 354.6C818.213 352.168 814.789 350.952 810.437 350.952H799.781V392.04H810.437ZM948.126 405V337.992H979.806C982.942 337.992 985.758 338.536 988.254 339.624C990.75 340.648 992.862 342.088 994.59 343.944C996.382 345.8 997.758 348.072 998.718 350.76C999.678 353.384 1000.16 356.264 1000.16 359.4C1000.16 362.6 999.678 365.512 998.718 368.136C997.758 370.76 996.382 373 994.59 374.856C992.862 376.712 990.75 378.184 988.254 379.272C985.758 380.296 982.942 380.808 979.806 380.808H962.718V405H948.126ZM962.718 368.136H978.078C980.254 368.136 981.95 367.592 983.166 366.504C984.446 365.352 985.086 363.688 985.086 361.512V357.288C985.086 355.112 984.446 353.48 983.166 352.392C981.95 351.24 980.254 350.664 978.078 350.664H962.718V368.136ZM1121.72 405H1107.13V337.992H1138.9C1141.97 337.992 1144.76 338.504 1147.25 339.528C1149.75 340.552 1151.86 342.024 1153.59 343.944C1155.38 345.8 1156.76 348.04 1157.72 350.664C1158.68 353.288 1159.16 356.2 1159.16 359.4C1159.16 363.944 1158.13 367.912 1156.09 371.304C1154.1 374.696 1151.06 377.16 1146.97 378.696L1160.12 405H1143.89L1132.18 380.424H1121.72V405ZM1137.08 368.136C1139.25 368.136 1140.95 367.592 1142.17 366.504C1143.45 365.352 1144.09 363.688 1144.09 361.512V357.288C1144.09 355.112 1143.45 353.48 1142.17 352.392C1140.95 351.24 1139.25 350.664 1137.08 350.664H1121.72V368.136H1137.08ZM1267.81 405V337.992H1313.41V350.952H1282.41V364.68H1309V377.544H1282.41V392.04H1313.41V405H1267.81ZM1443.82 406.152C1437.93 406.152 1432.94 405.16 1428.85 403.176C1424.75 401.128 1421.26 398.504 1418.38 395.304L1427.98 385.608C1432.53 390.728 1438.13 393.288 1444.78 393.288C1448.37 393.288 1451.02 392.552 1452.75 391.08C1454.48 389.608 1455.34 387.656 1455.34 385.224C1455.34 383.368 1454.83 381.832 1453.81 380.616C1452.78 379.336 1450.7 378.472 1447.57 378.024L1440.94 377.16C1433.84 376.264 1428.62 374.12 1425.29 370.728C1422.03 367.336 1420.4 362.824 1420.4 357.192C1420.4 354.184 1420.97 351.432 1422.13 348.936C1423.28 346.44 1424.91 344.296 1427.02 342.504C1429.2 340.712 1431.82 339.336 1434.89 338.376C1438.03 337.352 1441.58 336.84 1445.55 336.84C1450.61 336.84 1455.05 337.64 1458.89 339.24C1462.73 340.84 1466.03 343.176 1468.78 346.248L1459.09 356.04C1457.49 354.184 1455.53 352.68 1453.23 351.528C1450.99 350.312 1448.14 349.704 1444.69 349.704C1441.42 349.704 1438.99 350.28 1437.39 351.432C1435.79 352.584 1434.99 354.184 1434.99 356.232C1434.99 358.536 1435.6 360.2 1436.81 361.224C1438.09 362.248 1440.14 362.984 1442.96 363.432L1449.58 364.488C1456.49 365.576 1461.61 367.72 1464.94 370.92C1468.27 374.056 1469.93 378.536 1469.93 384.36C1469.93 387.56 1469.36 390.504 1468.21 393.192C1467.05 395.88 1465.36 398.184 1463.12 400.104C1460.94 402.024 1458.22 403.528 1454.96 404.616C1451.69 405.64 1447.98 406.152 1443.82 406.152Z" fill="white"/>
<path d="M1599.73 406.152C1593.84 406.152 1588.85 405.16 1584.75 403.176C1580.66 401.128 1577.17 398.504 1574.29 395.304L1583.89 385.608C1588.43 390.728 1594.03 393.288 1600.69 393.288C1604.27 393.288 1606.93 392.552 1608.66 391.08C1610.38 389.608 1611.25 387.656 1611.25 385.224C1611.25 383.368 1610.74 381.832 1609.71 380.616C1608.69 379.336 1606.61 378.472 1603.47 378.024L1596.85 377.16C1589.74 376.264 1584.53 374.12 1581.2 370.728C1577.94 367.336 1576.3 362.824 1576.3 357.192C1576.3 354.184 1576.88 351.432 1578.03 348.936C1579.18 346.44 1580.82 344.296 1582.93 342.504C1585.1 340.712 1587.73 339.336 1590.8 338.376C1593.94 337.352 1597.49 336.84 1601.46 336.84C1606.51 336.84 1610.96 337.64 1614.8 339.24C1618.64 340.84 1621.94 343.176 1624.69 346.248L1614.99 356.04C1613.39 354.184 1611.44 352.68 1609.14 351.528C1606.9 350.312 1604.05 349.704 1600.59 349.704C1597.33 349.704 1594.9 350.28 1593.3 351.432C1591.7 352.584 1590.9 354.184 1590.9 356.232C1590.9 358.536 1591.5 360.2 1592.72 361.224C1594 362.248 1596.05 362.984 1598.86 363.432L1605.49 364.488C1612.4 365.576 1617.52 367.72 1620.85 370.92C1624.18 374.056 1625.84 378.536 1625.84 384.36C1625.84 387.56 1625.26 390.504 1624.11 393.192C1622.96 395.88 1621.26 398.184 1619.02 400.104C1616.85 402.024 1614.13 403.528 1610.86 404.616C1607.6 405.64 1603.89 406.152 1599.73 406.152Z" fill="black"/>
</g>
</g>
<defs>
<filter id="filter0_d_51_5" x="268.237" y="336.84" width="1364.6" height="79.312" filterUnits="userSpaceOnUse" color-interpolation-filters="sRGB">
<feFlood flood-opacity="0" result="BackgroundImageFix"/>
<feColorMatrix in="SourceAlpha" type="matrix" values="0 0 0 0 0 0 0 0 0 0 0 0 0 0 0 0 0 0 127 0" result="hardAlpha"/>
<feOffset dx="7" dy="10"/>
<feComposite in2="hardAlpha" operator="out"/>
<feColorMatrix type="matrix" values="0 0 0 0 0 0 0 0 0 0 0 0 0 0 0 0 0 0 0.89 0"/>
<feBlend mode="normal" in2="BackgroundImageFix" result="effect1_dropShadow_51_5"/>
<feBlend mode="normal" in="SourceGraphic" in2="effect1_dropShadow_51_5" result="shape"/>
</filter>
<clipPath id="clip0_51_5">
<rect width="1842" height="707" fill="white"/>
</clipPath>
</defs>
</svg>
